solid OpenSCAD_Model
  facet normal -1 0 0
    outer loop
      vertex 1 1 0
      vertex 1 9.2 42.9
      vertex 1 9.2 0
    endloop
  endfacet
  facet normal -1 -0 0
    outer loop
      vertex 1 9.2 42.9
      vertex 1 1 0
      vertex 1 1 42.9
    endloop
  endfacet
  facet normal 0 0 1
    outer loop
      vertex 46 9.2 42.9
      vertex 54.2 54.2 42.9
      vertex 46 54.2 42.9
    endloop
  endfacet
  facet normal 0 0 1
    outer loop
      vertex 54.2 54.2 42.9
      vertex 46 9.2 42.9
      vertex 54.2 1 42.9
    endloop
  endfacet
  facet normal 0 0 1
    outer loop
      vertex 1 1 42.9
      vertex 46 9.2 42.9
      vertex 1 9.2 42.9
    endloop
  endfacet
  facet normal 0 0 1
    outer loop
      vertex 46 9.2 42.9
      vertex 1 1 42.9
      vertex 54.2 1 42.9
    endloop
  endfacet
  facet normal 0 1 0
    outer loop
      vertex 46 9.2 42.9
      vertex 25 9.2 37
      vertex 1 9.2 42.9
    endloop
  endfacet
  facet normal 0 1 0
    outer loop
      vertex 46 9.2 42.9
      vertex 26.2558 9.2 36.9645
      vertex 25 9.2 37
    endloop
  endfacet
  facet normal 0 1 0
    outer loop
      vertex 46 9.2 42.9
      vertex 27.5067 9.2 36.8581
      vertex 26.2558 9.2 36.9645
    endloop
  endfacet
  facet normal 0 1 0
    outer loop
      vertex 46 9.2 42.9
      vertex 28.7476 9.2 36.6812
      vertex 27.5067 9.2 36.8581
    endloop
  endfacet
  facet normal 0 1 0
    outer loop
      vertex 46 9.2 42.9
      vertex 29.9738 9.2 36.4345
      vertex 28.7476 9.2 36.6812
    endloop
  endfacet
  facet normal 0 1 0
    outer loop
      vertex 46 9.2 42.9
      vertex 31.1803 9.2 36.119
      vertex 29.9738 9.2 36.4345
    endloop
  endfacet
  facet normal 0 1 0
    outer loop
      vertex 46 9.2 42.9
      vertex 32.3625 9.2 35.736
      vertex 31.1803 9.2 36.119
    endloop
  endfacet
  facet normal 0 1 0
    outer loop
      vertex 46 9.2 42.9
      vertex 33.5156 9.2 35.2869
      vertex 32.3625 9.2 35.736
    endloop
  endfacet
  facet normal 0 1 0
    outer loop
      vertex 46 9.2 42.9
      vertex 34.6351 9.2 34.7735
      vertex 33.5156 9.2 35.2869
    endloop
  endfacet
  facet normal 0 1 0
    outer loop
      vertex 46 9.2 42.9
      vertex 35.7165 9.2 34.1979
      vertex 34.6351 9.2 34.7735
    endloop
  endfacet
  facet normal 0 1 0
    outer loop
      vertex 46 9.2 42.9
      vertex 36.7557 9.2 33.5623
      vertex 35.7165 9.2 34.1979
    endloop
  endfacet
  facet normal 0 1 0
    outer loop
      vertex 46 9.2 42.9
      vertex 37.7485 9.2 32.8692
      vertex 36.7557 9.2 33.5623
    endloop
  endfacet
  facet normal 0 1 0
    outer loop
      vertex 46 9.2 42.9
      vertex 38.6909 9.2 32.1214
      vertex 37.7485 9.2 32.8692
    endloop
  endfacet
  facet normal 0 1 0
    outer loop
      vertex 46 9.2 42.9
      vertex 39.5794 9.2 31.3218
      vertex 38.6909 9.2 32.1214
    endloop
  endfacet
  facet normal 0 1 0
    outer loop
      vertex 46 9.2 42.9
      vertex 40.4103 9.2 30.4736
      vertex 39.5794 9.2 31.3218
    endloop
  endfacet
  facet normal 0 1 0
    outer loop
      vertex 46 9.2 42.9
      vertex 41.1803 9.2 29.5801
      vertex 40.4103 9.2 30.4736
    endloop
  endfacet
  facet normal 0 1 0
    outer loop
      vertex 46 9.2 42.9
      vertex 41.8866 9.2 28.6449
      vertex 41.1803 9.2 29.5801
    endloop
  endfacet
  facet normal 0 1 0
    outer loop
      vertex 46 9.2 42.9
      vertex 42.5261 9.2 27.6716
      vertex 41.8866 9.2 28.6449
    endloop
  endfacet
  facet normal 0 1 0
    outer loop
      vertex 46 9.2 42.9
      vertex 43.0965 9.2 26.664
      vertex 42.5261 9.2 27.6716
    endloop
  endfacet
  facet normal 0 1 0
    outer loop
      vertex 46 9.2 42.9
      vertex 43.5955 9.2 25.6262
      vertex 43.0965 9.2 26.664
    endloop
  endfacet
  facet normal 0 1 0
    outer loop
      vertex 46 9.2 42.9
      vertex 44.0211 9.2 24.5623
      vertex 43.5955 9.2 25.6262
    endloop
  endfacet
  facet normal 0 1 0
    outer loop
      vertex 46 9.2 42.9
      vertex 44.3717 9.2 23.4764
      vertex 44.0211 9.2 24.5623
    endloop
  endfacet
  facet normal 0 1 0
    outer loop
      vertex 46 9.2 42.9
      vertex 44.6457 9.2 22.3729
      vertex 44.3717 9.2 23.4764
    endloop
  endfacet
  facet normal 0 1 0
    outer loop
      vertex 46 9.2 42.9
      vertex 44.8423 9.2 21.256
      vertex 44.6457 9.2 22.3729
    endloop
  endfacet
  facet normal 0 1 -0
    outer loop
      vertex 45 9.2 20
      vertex 44.8423 9.2 21.256
      vertex 46 9.2 42.9
    endloop
  endfacet
  facet normal 0 1 0
    outer loop
      vertex 44.8423 9.2 21.256
      vertex 45 9.2 20
      vertex 44.9605 9.2 20.1302
    endloop
  endfacet
  facet normal 0 1 -0
    outer loop
      vertex 46 9.2 0
      vertex 45 9.2 20
      vertex 46 9.2 42.9
    endloop
  endfacet
  facet normal 0 1 0
    outer loop
      vertex 45 9.2 20
      vertex 46 9.2 0
      vertex 45 9.2 0
    endloop
  endfacet
  facet normal 0 1 -0
    outer loop
      vertex 23.7442 9.2 36.9645
      vertex 1 9.2 42.9
      vertex 25 9.2 37
    endloop
  endfacet
  facet normal 0 1 -0
    outer loop
      vertex 22.4933 9.2 36.8581
      vertex 1 9.2 42.9
      vertex 23.7442 9.2 36.9645
    endloop
  endfacet
  facet normal 0 1 -0
    outer loop
      vertex 21.2524 9.2 36.6812
      vertex 1 9.2 42.9
      vertex 22.4933 9.2 36.8581
    endloop
  endfacet
  facet normal 0 1 -0
    outer loop
      vertex 20.0262 9.2 36.4345
      vertex 1 9.2 42.9
      vertex 21.2524 9.2 36.6812
    endloop
  endfacet
  facet normal 0 1 -0
    outer loop
      vertex 18.8197 9.2 36.119
      vertex 1 9.2 42.9
      vertex 20.0262 9.2 36.4345
    endloop
  endfacet
  facet normal 0 1 -0
    outer loop
      vertex 17.6375 9.2 35.736
      vertex 1 9.2 42.9
      vertex 18.8197 9.2 36.119
    endloop
  endfacet
  facet normal 0 1 -0
    outer loop
      vertex 16.4844 9.2 35.2869
      vertex 1 9.2 42.9
      vertex 17.6375 9.2 35.736
    endloop
  endfacet
  facet normal 0 1 -0
    outer loop
      vertex 15.3649 9.2 34.7735
      vertex 1 9.2 42.9
      vertex 16.4844 9.2 35.2869
    endloop
  endfacet
  facet normal 0 1 -0
    outer loop
      vertex 14.2835 9.2 34.1979
      vertex 1 9.2 42.9
      vertex 15.3649 9.2 34.7735
    endloop
  endfacet
  facet normal 0 1 -0
    outer loop
      vertex 13.2443 9.2 33.5623
      vertex 1 9.2 42.9
      vertex 14.2835 9.2 34.1979
    endloop
  endfacet
  facet normal 0 1 -0
    outer loop
      vertex 12.2515 9.2 32.8692
      vertex 1 9.2 42.9
      vertex 13.2443 9.2 33.5623
    endloop
  endfacet
  facet normal 0 1 -0
    outer loop
      vertex 11.3091 9.2 32.1214
      vertex 1 9.2 42.9
      vertex 12.2515 9.2 32.8692
    endloop
  endfacet
  facet normal 0 1 -0
    outer loop
      vertex 10.4206 9.2 31.3218
      vertex 1 9.2 42.9
      vertex 11.3091 9.2 32.1214
    endloop
  endfacet
  facet normal 0 1 -0
    outer loop
      vertex 9.58974 9.2 30.4736
      vertex 1 9.2 42.9
      vertex 10.4206 9.2 31.3218
    endloop
  endfacet
  facet normal 0 1 -0
    outer loop
      vertex 8.81966 9.2 29.5801
      vertex 1 9.2 42.9
      vertex 9.58974 9.2 30.4736
    endloop
  endfacet
  facet normal 0 1 -0
    outer loop
      vertex 8.11344 9.2 28.6449
      vertex 1 9.2 42.9
      vertex 8.81966 9.2 29.5801
    endloop
  endfacet
  facet normal 0 1 -0
    outer loop
      vertex 7.47387 9.2 27.6716
      vertex 1 9.2 42.9
      vertex 8.11344 9.2 28.6449
    endloop
  endfacet
  facet normal 0 1 -0
    outer loop
      vertex 6.90346 9.2 26.664
      vertex 1 9.2 42.9
      vertex 7.47387 9.2 27.6716
    endloop
  endfacet
  facet normal 0 1 -0
    outer loop
      vertex 6.40447 9.2 25.6262
      vertex 1 9.2 42.9
      vertex 6.90346 9.2 26.664
    endloop
  endfacet
  facet normal 0 1 -0
    outer loop
      vertex 5.97887 9.2 24.5623
      vertex 1 9.2 42.9
      vertex 6.40447 9.2 25.6262
    endloop
  endfacet
  facet normal 0 1 -0
    outer loop
      vertex 5.62834 9.2 23.4764
      vertex 1 9.2 42.9
      vertex 5.97887 9.2 24.5623
    endloop
  endfacet
  facet normal 0 1 -0
    outer loop
      vertex 5.35425 9.2 22.3729
      vertex 1 9.2 42.9
      vertex 5.62834 9.2 23.4764
    endloop
  endfacet
  facet normal 0 1 -0
    outer loop
      vertex 5.15771 9.2 21.256
      vertex 1 9.2 42.9
      vertex 5.35425 9.2 22.3729
    endloop
  endfacet
  facet normal 0 1 0
    outer loop
      vertex 5 9.2 20
      vertex 5.15771 9.2 21.256
      vertex 5.03946 9.2 20.1302
    endloop
  endfacet
  facet normal 0 1 0
    outer loop
      vertex 5 9.2 20
      vertex 5.03946 9.2 20.1302
      vertex 5.03492 9.2 20
    endloop
  endfacet
  facet normal 0 1 0
    outer loop
      vertex 5.15771 9.2 21.256
      vertex 5 9.2 20
      vertex 1 9.2 42.9
    endloop
  endfacet
  facet normal 0 1 0
    outer loop
      vertex 1 9.2 0
      vertex 5 9.2 20
      vertex 5 9.2 0
    endloop
  endfacet
  facet normal 0 1 0
    outer loop
      vertex 5 9.2 20
      vertex 1 9.2 0
      vertex 1 9.2 42.9
    endloop
  endfacet
  facet normal 0 1 0
    outer loop
      vertex 44.9605 9.2 20.1302
      vertex 45 9.2 20
      vertex 44.9651 9.2 20
    endloop
  endfacet
  facet normal 0 0 -1
    outer loop
      vertex 46 50 0
      vertex 54.2 54.2 0
      vertex 54.2 50 0
    endloop
  endfacet
  facet normal -0 0 -1
    outer loop
      vertex 54.2 54.2 0
      vertex 46 50 0
      vertex 46 54.2 0
    endloop
  endfacet
  facet normal 0 0 -1
    outer loop
      vertex 54.2 1 0
      vertex 46 9.2 0
      vertex 54.2 10 0
    endloop
  endfacet
  facet normal 0 0 -1
    outer loop
      vertex 45 1 0
      vertex 46 9.2 0
      vertex 54.2 1 0
    endloop
  endfacet
  facet normal -0 0 -1
    outer loop
      vertex 46 9.2 0
      vertex 45 1 0
      vertex 45 9.2 0
    endloop
  endfacet
  facet normal -0 0 -1
    outer loop
      vertex 54.2 10 0
      vertex 46 9.2 0
      vertex 46 10 0
    endloop
  endfacet
  facet normal 0 0 -1
    outer loop
      vertex 1 1 0
      vertex 5 9.2 0
      vertex 5 1 0
    endloop
  endfacet
  facet normal -0 0 -1
    outer loop
      vertex 5 9.2 0
      vertex 1 1 0
      vertex 1 9.2 0
    endloop
  endfacet
  facet normal 0 -1 0
    outer loop
      vertex 1 1 42.9
      vertex 25 1 37
      vertex 54.2 1 42.9
    endloop
  endfacet
  facet normal 0 -1 0
    outer loop
      vertex 1 1 42.9
      vertex 23.7442 1 36.9645
      vertex 25 1 37
    endloop
  endfacet
  facet normal 0 -1 0
    outer loop
      vertex 1 1 42.9
      vertex 22.4933 1 36.8581
      vertex 23.7442 1 36.9645
    endloop
  endfacet
  facet normal 0 -1 0
    outer loop
      vertex 1 1 42.9
      vertex 21.2524 1 36.6812
      vertex 22.4933 1 36.8581
    endloop
  endfacet
  facet normal 0 -1 0
    outer loop
      vertex 1 1 42.9
      vertex 20.0262 1 36.4345
      vertex 21.2524 1 36.6812
    endloop
  endfacet
  facet normal 0 -1 0
    outer loop
      vertex 1 1 42.9
      vertex 18.8197 1 36.119
      vertex 20.0262 1 36.4345
    endloop
  endfacet
  facet normal 0 -1 0
    outer loop
      vertex 1 1 42.9
      vertex 17.6375 1 35.736
      vertex 18.8197 1 36.119
    endloop
  endfacet
  facet normal 0 -1 0
    outer loop
      vertex 1 1 42.9
      vertex 16.4844 1 35.2869
      vertex 17.6375 1 35.736
    endloop
  endfacet
  facet normal 0 -1 0
    outer loop
      vertex 1 1 42.9
      vertex 15.3649 1 34.7735
      vertex 16.4844 1 35.2869
    endloop
  endfacet
  facet normal 0 -1 0
    outer loop
      vertex 1 1 42.9
      vertex 14.2835 1 34.1979
      vertex 15.3649 1 34.7735
    endloop
  endfacet
  facet normal 0 -1 0
    outer loop
      vertex 1 1 42.9
      vertex 13.2443 1 33.5623
      vertex 14.2835 1 34.1979
    endloop
  endfacet
  facet normal 0 -1 0
    outer loop
      vertex 1 1 42.9
      vertex 12.2515 1 32.8692
      vertex 13.2443 1 33.5623
    endloop
  endfacet
  facet normal 0 -1 0
    outer loop
      vertex 1 1 42.9
      vertex 11.3091 1 32.1214
      vertex 12.2515 1 32.8692
    endloop
  endfacet
  facet normal 0 -1 0
    outer loop
      vertex 1 1 42.9
      vertex 10.4206 1 31.3218
      vertex 11.3091 1 32.1214
    endloop
  endfacet
  facet normal 0 -1 0
    outer loop
      vertex 1 1 42.9
      vertex 9.58974 1 30.4736
      vertex 10.4206 1 31.3218
    endloop
  endfacet
  facet normal 0 -1 0
    outer loop
      vertex 1 1 42.9
      vertex 8.81966 1 29.5801
      vertex 9.58974 1 30.4736
    endloop
  endfacet
  facet normal 0 -1 0
    outer loop
      vertex 1 1 42.9
      vertex 8.11344 1 28.6449
      vertex 8.81966 1 29.5801
    endloop
  endfacet
  facet normal 0 -1 0
    outer loop
      vertex 1 1 42.9
      vertex 7.47387 1 27.6716
      vertex 8.11344 1 28.6449
    endloop
  endfacet
  facet normal 0 -1 0
    outer loop
      vertex 1 1 42.9
      vertex 6.90346 1 26.664
      vertex 7.47387 1 27.6716
    endloop
  endfacet
  facet normal 0 -1 0
    outer loop
      vertex 1 1 42.9
      vertex 6.40447 1 25.6262
      vertex 6.90346 1 26.664
    endloop
  endfacet
  facet normal 0 -1 0
    outer loop
      vertex 1 1 42.9
      vertex 5.97887 1 24.5623
      vertex 6.40447 1 25.6262
    endloop
  endfacet
  facet normal 0 -1 0
    outer loop
      vertex 1 1 42.9
      vertex 5.62834 1 23.4764
      vertex 5.97887 1 24.5623
    endloop
  endfacet
  facet normal 0 -1 0
    outer loop
      vertex 1 1 42.9
      vertex 5.35425 1 22.3729
      vertex 5.62834 1 23.4764
    endloop
  endfacet
  facet normal 0 -1 0
    outer loop
      vertex 1 1 42.9
      vertex 5.15771 1 21.256
      vertex 5.35425 1 22.3729
    endloop
  endfacet
  facet normal 0 -1 0
    outer loop
      vertex 5 1 20
      vertex 5.15771 1 21.256
      vertex 1 1 42.9
    endloop
  endfacet
  facet normal 0 -1 0
    outer loop
      vertex 5.15771 1 21.256
      vertex 5 1 20
      vertex 5.03946 1 20.1302
    endloop
  endfacet
  facet normal 0 -1 0
    outer loop
      vertex 1 1 0
      vertex 5 1 20
      vertex 1 1 42.9
    endloop
  endfacet
  facet normal 0 -1 -0
    outer loop
      vertex 5 1 20
      vertex 1 1 0
      vertex 5 1 0
    endloop
  endfacet
  facet normal 0 -1 0
    outer loop
      vertex 26.2558 1 36.9645
      vertex 54.2 1 42.9
      vertex 25 1 37
    endloop
  endfacet
  facet normal 0 -1 0
    outer loop
      vertex 27.5067 1 36.8581
      vertex 54.2 1 42.9
      vertex 26.2558 1 36.9645
    endloop
  endfacet
  facet normal 0 -1 0
    outer loop
      vertex 28.7476 1 36.6812
      vertex 54.2 1 42.9
      vertex 27.5067 1 36.8581
    endloop
  endfacet
  facet normal 0 -1 0
    outer loop
      vertex 29.9738 1 36.4345
      vertex 54.2 1 42.9
      vertex 28.7476 1 36.6812
    endloop
  endfacet
  facet normal 0 -1 0
    outer loop
      vertex 31.1803 1 36.119
      vertex 54.2 1 42.9
      vertex 29.9738 1 36.4345
    endloop
  endfacet
  facet normal 0 -1 0
    outer loop
      vertex 32.3625 1 35.736
      vertex 54.2 1 42.9
      vertex 31.1803 1 36.119
    endloop
  endfacet
  facet normal 0 -1 0
    outer loop
      vertex 33.5156 1 35.2869
      vertex 54.2 1 42.9
      vertex 32.3625 1 35.736
    endloop
  endfacet
  facet normal 0 -1 0
    outer loop
      vertex 34.6351 1 34.7735
      vertex 54.2 1 42.9
      vertex 33.5156 1 35.2869
    endloop
  endfacet
  facet normal 0 -1 0
    outer loop
      vertex 35.7165 1 34.1979
      vertex 54.2 1 42.9
      vertex 34.6351 1 34.7735
    endloop
  endfacet
  facet normal 0 -1 0
    outer loop
      vertex 36.7557 1 33.5623
      vertex 54.2 1 42.9
      vertex 35.7165 1 34.1979
    endloop
  endfacet
  facet normal 0 -1 0
    outer loop
      vertex 37.7485 1 32.8692
      vertex 54.2 1 42.9
      vertex 36.7557 1 33.5623
    endloop
  endfacet
  facet normal 0 -1 0
    outer loop
      vertex 38.6909 1 32.1214
      vertex 54.2 1 42.9
      vertex 37.7485 1 32.8692
    endloop
  endfacet
  facet normal 0 -1 0
    outer loop
      vertex 39.5794 1 31.3218
      vertex 54.2 1 42.9
      vertex 38.6909 1 32.1214
    endloop
  endfacet
  facet normal 0 -1 0
    outer loop
      vertex 40.4103 1 30.4736
      vertex 54.2 1 42.9
      vertex 39.5794 1 31.3218
    endloop
  endfacet
  facet normal 0 -1 0
    outer loop
      vertex 41.1803 1 29.5801
      vertex 54.2 1 42.9
      vertex 40.4103 1 30.4736
    endloop
  endfacet
  facet normal 0 -1 0
    outer loop
      vertex 41.8866 1 28.6449
      vertex 54.2 1 42.9
      vertex 41.1803 1 29.5801
    endloop
  endfacet
  facet normal 0 -1 0
    outer loop
      vertex 42.5261 1 27.6716
      vertex 54.2 1 42.9
      vertex 41.8866 1 28.6449
    endloop
  endfacet
  facet normal 0 -1 0
    outer loop
      vertex 43.0965 1 26.664
      vertex 54.2 1 42.9
      vertex 42.5261 1 27.6716
    endloop
  endfacet
  facet normal 0 -1 0
    outer loop
      vertex 43.5955 1 25.6262
      vertex 54.2 1 42.9
      vertex 43.0965 1 26.664
    endloop
  endfacet
  facet normal 0 -1 0
    outer loop
      vertex 44.0211 1 24.5623
      vertex 54.2 1 42.9
      vertex 43.5955 1 25.6262
    endloop
  endfacet
  facet normal 0 -1 0
    outer loop
      vertex 44.3717 1 23.4764
      vertex 54.2 1 42.9
      vertex 44.0211 1 24.5623
    endloop
  endfacet
  facet normal 0 -1 0
    outer loop
      vertex 44.6457 1 22.3729
      vertex 54.2 1 42.9
      vertex 44.3717 1 23.4764
    endloop
  endfacet
  facet normal 0 -1 0
    outer loop
      vertex 44.8423 1 21.256
      vertex 54.2 1 42.9
      vertex 44.6457 1 22.3729
    endloop
  endfacet
  facet normal 0 -1 0
    outer loop
      vertex 45 1 20
      vertex 44.8423 1 21.256
      vertex 44.9605 1 20.1302
    endloop
  endfacet
  facet normal 0 -1 0
    outer loop
      vertex 45 1 20
      vertex 44.9605 1 20.1302
      vertex 44.9651 1 20
    endloop
  endfacet
  facet normal 0 -1 0
    outer loop
      vertex 44.8423 1 21.256
      vertex 45 1 20
      vertex 54.2 1 42.9
    endloop
  endfacet
  facet normal 0 -1 0
    outer loop
      vertex 54.2 1 0
      vertex 45 1 20
      vertex 45 1 0
    endloop
  endfacet
  facet normal 0 -1 0
    outer loop
      vertex 45 1 20
      vertex 54.2 1 0
      vertex 54.2 1 42.9
    endloop
  endfacet
  facet normal 0 -1 0
    outer loop
      vertex 5.03946 1 20.1302
      vertex 5 1 20
      vertex 5.03492 1 20
    endloop
  endfacet
  facet normal -1 0 0
    outer loop
      vertex 46 10 0
      vertex 46 9.2 0
      vertex 46 10 20
    endloop
  endfacet
  facet normal -1 0 0
    outer loop
      vertex 46 50 20
      vertex 46 54.2 0
      vertex 46 50 0
    endloop
  endfacet
  facet normal -1 0 0
    outer loop
      vertex 46 54.2 0
      vertex 46 50 20
      vertex 46 54.2 42.9
    endloop
  endfacet
  facet normal -1 0 0
    outer loop
      vertex 46 49.9605 20.1302
      vertex 46 50 20
      vertex 46 49.9651 20
    endloop
  endfacet
  facet normal -1 0 0
    outer loop
      vertex 46 49.8423 21.256
      vertex 46 50 20
      vertex 46 49.9605 20.1302
    endloop
  endfacet
  facet normal -1 0 0
    outer loop
      vertex 46 50 20
      vertex 46 49.8423 21.256
      vertex 46 54.2 42.9
    endloop
  endfacet
  facet normal -1 0 0
    outer loop
      vertex 46 49.6457 22.3729
      vertex 46 54.2 42.9
      vertex 46 49.8423 21.256
    endloop
  endfacet
  facet normal -1 0 0
    outer loop
      vertex 46 49.3717 23.4764
      vertex 46 54.2 42.9
      vertex 46 49.6457 22.3729
    endloop
  endfacet
  facet normal -1 0 0
    outer loop
      vertex 46 49.0211 24.5623
      vertex 46 54.2 42.9
      vertex 46 49.3717 23.4764
    endloop
  endfacet
  facet normal -1 0 0
    outer loop
      vertex 46 48.5955 25.6262
      vertex 46 54.2 42.9
      vertex 46 49.0211 24.5623
    endloop
  endfacet
  facet normal -1 0 0
    outer loop
      vertex 46 48.0965 26.664
      vertex 46 54.2 42.9
      vertex 46 48.5955 25.6262
    endloop
  endfacet
  facet normal -1 0 0
    outer loop
      vertex 46 47.5261 27.6716
      vertex 46 54.2 42.9
      vertex 46 48.0965 26.664
    endloop
  endfacet
  facet normal -1 0 0
    outer loop
      vertex 46 46.8866 28.6449
      vertex 46 54.2 42.9
      vertex 46 47.5261 27.6716
    endloop
  endfacet
  facet normal -1 0 0
    outer loop
      vertex 46 46.1803 29.5801
      vertex 46 54.2 42.9
      vertex 46 46.8866 28.6449
    endloop
  endfacet
  facet normal -1 0 0
    outer loop
      vertex 46 45.4103 30.4736
      vertex 46 54.2 42.9
      vertex 46 46.1803 29.5801
    endloop
  endfacet
  facet normal -1 0 0
    outer loop
      vertex 46 44.5794 31.3218
      vertex 46 54.2 42.9
      vertex 46 45.4103 30.4736
    endloop
  endfacet
  facet normal -1 0 0
    outer loop
      vertex 46 43.6909 32.1214
      vertex 46 54.2 42.9
      vertex 46 44.5794 31.3218
    endloop
  endfacet
  facet normal -1 0 0
    outer loop
      vertex 46 42.7485 32.8692
      vertex 46 54.2 42.9
      vertex 46 43.6909 32.1214
    endloop
  endfacet
  facet normal -1 0 0
    outer loop
      vertex 46 41.7557 33.5623
      vertex 46 54.2 42.9
      vertex 46 42.7485 32.8692
    endloop
  endfacet
  facet normal -1 0 0
    outer loop
      vertex 46 40.7165 34.1979
      vertex 46 54.2 42.9
      vertex 46 41.7557 33.5623
    endloop
  endfacet
  facet normal -1 0 0
    outer loop
      vertex 46 39.6351 34.7735
      vertex 46 54.2 42.9
      vertex 46 40.7165 34.1979
    endloop
  endfacet
  facet normal -1 0 0
    outer loop
      vertex 46 38.5156 35.2869
      vertex 46 54.2 42.9
      vertex 46 39.6351 34.7735
    endloop
  endfacet
  facet normal -1 0 0
    outer loop
      vertex 46 37.3625 35.736
      vertex 46 54.2 42.9
      vertex 46 38.5156 35.2869
    endloop
  endfacet
  facet normal -1 0 0
    outer loop
      vertex 46 36.1803 36.119
      vertex 46 54.2 42.9
      vertex 46 37.3625 35.736
    endloop
  endfacet
  facet normal -1 0 0
    outer loop
      vertex 46 34.9738 36.4345
      vertex 46 54.2 42.9
      vertex 46 36.1803 36.119
    endloop
  endfacet
  facet normal -1 0 0
    outer loop
      vertex 46 33.7476 36.6812
      vertex 46 54.2 42.9
      vertex 46 34.9738 36.4345
    endloop
  endfacet
  facet normal -1 0 0
    outer loop
      vertex 46 32.5067 36.8581
      vertex 46 54.2 42.9
      vertex 46 33.7476 36.6812
    endloop
  endfacet
  facet normal -1 0 0
    outer loop
      vertex 46 31.2558 36.9645
      vertex 46 54.2 42.9
      vertex 46 32.5067 36.8581
    endloop
  endfacet
  facet normal -1 0 0
    outer loop
      vertex 46 30 37
      vertex 46 54.2 42.9
      vertex 46 31.2558 36.9645
    endloop
  endfacet
  facet normal -1 0 0
    outer loop
      vertex 46 9.2 42.9
      vertex 46 30 37
      vertex 46 28.7442 36.9645
    endloop
  endfacet
  facet normal -1 0 0
    outer loop
      vertex 46 9.2 42.9
      vertex 46 28.7442 36.9645
      vertex 46 27.4933 36.8581
    endloop
  endfacet
  facet normal -1 0 0
    outer loop
      vertex 46 9.2 42.9
      vertex 46 27.4933 36.8581
      vertex 46 26.2524 36.6812
    endloop
  endfacet
  facet normal -1 0 0
    outer loop
      vertex 46 9.2 42.9
      vertex 46 26.2524 36.6812
      vertex 46 25.0262 36.4345
    endloop
  endfacet
  facet normal -1 0 0
    outer loop
      vertex 46 10 20
      vertex 46 10.0395 20.1302
      vertex 46 10.0349 20
    endloop
  endfacet
  facet normal -1 0 0
    outer loop
      vertex 46 10 20
      vertex 46 10.1577 21.256
      vertex 46 10.0395 20.1302
    endloop
  endfacet
  facet normal -1 0 0
    outer loop
      vertex 46 30 37
      vertex 46 9.2 42.9
      vertex 46 54.2 42.9
    endloop
  endfacet
  facet normal -1 0 0
    outer loop
      vertex 46 23.8197 36.119
      vertex 46 9.2 42.9
      vertex 46 25.0262 36.4345
    endloop
  endfacet
  facet normal -1 0 0
    outer loop
      vertex 46 22.6375 35.736
      vertex 46 9.2 42.9
      vertex 46 23.8197 36.119
    endloop
  endfacet
  facet normal -1 0 0
    outer loop
      vertex 46 21.4844 35.2869
      vertex 46 9.2 42.9
      vertex 46 22.6375 35.736
    endloop
  endfacet
  facet normal -1 0 0
    outer loop
      vertex 46 20.3649 34.7735
      vertex 46 9.2 42.9
      vertex 46 21.4844 35.2869
    endloop
  endfacet
  facet normal -1 0 0
    outer loop
      vertex 46 19.2835 34.1979
      vertex 46 9.2 42.9
      vertex 46 20.3649 34.7735
    endloop
  endfacet
  facet normal -1 0 0
    outer loop
      vertex 46 18.2443 33.5623
      vertex 46 9.2 42.9
      vertex 46 19.2835 34.1979
    endloop
  endfacet
  facet normal -1 0 0
    outer loop
      vertex 46 17.2515 32.8692
      vertex 46 9.2 42.9
      vertex 46 18.2443 33.5623
    endloop
  endfacet
  facet normal -1 0 0
    outer loop
      vertex 46 16.3091 32.1214
      vertex 46 9.2 42.9
      vertex 46 17.2515 32.8692
    endloop
  endfacet
  facet normal -1 0 0
    outer loop
      vertex 46 15.4206 31.3218
      vertex 46 9.2 42.9
      vertex 46 16.3091 32.1214
    endloop
  endfacet
  facet normal -1 0 0
    outer loop
      vertex 46 14.5897 30.4736
      vertex 46 9.2 42.9
      vertex 46 15.4206 31.3218
    endloop
  endfacet
  facet normal -1 0 0
    outer loop
      vertex 46 13.8197 29.5801
      vertex 46 9.2 42.9
      vertex 46 14.5897 30.4736
    endloop
  endfacet
  facet normal -1 0 0
    outer loop
      vertex 46 13.1134 28.6449
      vertex 46 9.2 42.9
      vertex 46 13.8197 29.5801
    endloop
  endfacet
  facet normal -1 0 0
    outer loop
      vertex 46 12.4739 27.6716
      vertex 46 9.2 42.9
      vertex 46 13.1134 28.6449
    endloop
  endfacet
  facet normal -1 0 0
    outer loop
      vertex 46 11.9035 26.664
      vertex 46 9.2 42.9
      vertex 46 12.4739 27.6716
    endloop
  endfacet
  facet normal -1 0 0
    outer loop
      vertex 46 11.4045 25.6262
      vertex 46 9.2 42.9
      vertex 46 11.9035 26.664
    endloop
  endfacet
  facet normal -1 0 0
    outer loop
      vertex 46 10.9789 24.5623
      vertex 46 9.2 42.9
      vertex 46 11.4045 25.6262
    endloop
  endfacet
  facet normal -1 0 0
    outer loop
      vertex 46 10.6283 23.4764
      vertex 46 9.2 42.9
      vertex 46 10.9789 24.5623
    endloop
  endfacet
  facet normal -1 0 0
    outer loop
      vertex 46 10.3543 22.3729
      vertex 46 9.2 42.9
      vertex 46 10.6283 23.4764
    endloop
  endfacet
  facet normal -1 0 0
    outer loop
      vertex 46 10.1577 21.256
      vertex 46 9.2 42.9
      vertex 46 10.3543 22.3729
    endloop
  endfacet
  facet normal -1 0 0
    outer loop
      vertex 46 10 20
      vertex 46 9.2 42.9
      vertex 46 10.1577 21.256
    endloop
  endfacet
  facet normal -1 0 0
    outer loop
      vertex 46 9.2 42.9
      vertex 46 10 20
      vertex 46 9.2 0
    endloop
  endfacet
  facet normal 1 0 0
    outer loop
      vertex 54.2 54.2 42.9
      vertex 54.2 50 20
      vertex 54.2 54.2 0
    endloop
  endfacet
  facet normal 1 -0 0
    outer loop
      vertex 54.2 49.8423 21.256
      vertex 54.2 50 20
      vertex 54.2 54.2 42.9
    endloop
  endfacet
  facet normal 1 0 0
    outer loop
      vertex 54.2 50 20
      vertex 54.2 49.9605 20.1302
      vertex 54.2 49.9651 20
    endloop
  endfacet
  facet normal 1 0 0
    outer loop
      vertex 54.2 50 20
      vertex 54.2 49.8423 21.256
      vertex 54.2 49.9605 20.1302
    endloop
  endfacet
  facet normal 1 0 0
    outer loop
      vertex 54.2 54.2 42.9
      vertex 54.2 49.6457 22.3729
      vertex 54.2 49.8423 21.256
    endloop
  endfacet
  facet normal 1 0 0
    outer loop
      vertex 54.2 54.2 42.9
      vertex 54.2 49.3717 23.4764
      vertex 54.2 49.6457 22.3729
    endloop
  endfacet
  facet normal 1 0 0
    outer loop
      vertex 54.2 54.2 42.9
      vertex 54.2 49.0211 24.5623
      vertex 54.2 49.3717 23.4764
    endloop
  endfacet
  facet normal 1 0 0
    outer loop
      vertex 54.2 54.2 42.9
      vertex 54.2 48.5955 25.6262
      vertex 54.2 49.0211 24.5623
    endloop
  endfacet
  facet normal 1 0 0
    outer loop
      vertex 54.2 54.2 42.9
      vertex 54.2 48.0965 26.664
      vertex 54.2 48.5955 25.6262
    endloop
  endfacet
  facet normal 1 0 0
    outer loop
      vertex 54.2 54.2 42.9
      vertex 54.2 47.5261 27.6716
      vertex 54.2 48.0965 26.664
    endloop
  endfacet
  facet normal 1 0 0
    outer loop
      vertex 54.2 54.2 42.9
      vertex 54.2 46.8866 28.6449
      vertex 54.2 47.5261 27.6716
    endloop
  endfacet
  facet normal 1 0 0
    outer loop
      vertex 54.2 54.2 42.9
      vertex 54.2 46.1803 29.5801
      vertex 54.2 46.8866 28.6449
    endloop
  endfacet
  facet normal 1 0 0
    outer loop
      vertex 54.2 54.2 42.9
      vertex 54.2 45.4103 30.4736
      vertex 54.2 46.1803 29.5801
    endloop
  endfacet
  facet normal 1 0 0
    outer loop
      vertex 54.2 54.2 42.9
      vertex 54.2 44.5794 31.3218
      vertex 54.2 45.4103 30.4736
    endloop
  endfacet
  facet normal 1 0 0
    outer loop
      vertex 54.2 54.2 42.9
      vertex 54.2 43.6909 32.1214
      vertex 54.2 44.5794 31.3218
    endloop
  endfacet
  facet normal 1 0 0
    outer loop
      vertex 54.2 54.2 42.9
      vertex 54.2 42.7485 32.8692
      vertex 54.2 43.6909 32.1214
    endloop
  endfacet
  facet normal 1 0 0
    outer loop
      vertex 54.2 54.2 42.9
      vertex 54.2 41.7557 33.5623
      vertex 54.2 42.7485 32.8692
    endloop
  endfacet
  facet normal 1 0 0
    outer loop
      vertex 54.2 54.2 42.9
      vertex 54.2 40.7165 34.1979
      vertex 54.2 41.7557 33.5623
    endloop
  endfacet
  facet normal 1 0 0
    outer loop
      vertex 54.2 54.2 42.9
      vertex 54.2 39.6351 34.7735
      vertex 54.2 40.7165 34.1979
    endloop
  endfacet
  facet normal 1 0 0
    outer loop
      vertex 54.2 54.2 42.9
      vertex 54.2 38.5156 35.2869
      vertex 54.2 39.6351 34.7735
    endloop
  endfacet
  facet normal 1 0 0
    outer loop
      vertex 54.2 54.2 42.9
      vertex 54.2 37.3625 35.736
      vertex 54.2 38.5156 35.2869
    endloop
  endfacet
  facet normal 1 0 0
    outer loop
      vertex 54.2 54.2 42.9
      vertex 54.2 36.1803 36.119
      vertex 54.2 37.3625 35.736
    endloop
  endfacet
  facet normal 1 0 0
    outer loop
      vertex 54.2 54.2 42.9
      vertex 54.2 34.9738 36.4345
      vertex 54.2 36.1803 36.119
    endloop
  endfacet
  facet normal 1 0 0
    outer loop
      vertex 54.2 54.2 42.9
      vertex 54.2 33.7476 36.6812
      vertex 54.2 34.9738 36.4345
    endloop
  endfacet
  facet normal 1 0 0
    outer loop
      vertex 54.2 54.2 42.9
      vertex 54.2 32.5067 36.8581
      vertex 54.2 33.7476 36.6812
    endloop
  endfacet
  facet normal 1 0 0
    outer loop
      vertex 54.2 54.2 42.9
      vertex 54.2 31.2558 36.9645
      vertex 54.2 32.5067 36.8581
    endloop
  endfacet
  facet normal 1 0 0
    outer loop
      vertex 54.2 54.2 42.9
      vertex 54.2 30 37
      vertex 54.2 31.2558 36.9645
    endloop
  endfacet
  facet normal 1 0 0
    outer loop
      vertex 54.2 54.2 42.9
      vertex 54.2 28.7442 36.9645
      vertex 54.2 30 37
    endloop
  endfacet
  facet normal 1 -0 0
    outer loop
      vertex 54.2 1 42.9
      vertex 54.2 28.7442 36.9645
      vertex 54.2 54.2 42.9
    endloop
  endfacet
  facet normal 1 0 0
    outer loop
      vertex 54.2 28.7442 36.9645
      vertex 54.2 1 42.9
      vertex 54.2 27.4933 36.8581
    endloop
  endfacet
  facet normal 1 0 0
    outer loop
      vertex 54.2 27.4933 36.8581
      vertex 54.2 1 42.9
      vertex 54.2 26.2524 36.6812
    endloop
  endfacet
  facet normal 1 0 0
    outer loop
      vertex 54.2 10.0395 20.1302
      vertex 54.2 10 20
      vertex 54.2 10.0349 20
    endloop
  endfacet
  facet normal 1 0 0
    outer loop
      vertex 54.2 10.1577 21.256
      vertex 54.2 10 20
      vertex 54.2 10.0395 20.1302
    endloop
  endfacet
  facet normal 1 0 0
    outer loop
      vertex 54.2 26.2524 36.6812
      vertex 54.2 1 42.9
      vertex 54.2 25.0262 36.4345
    endloop
  endfacet
  facet normal 1 0 0
    outer loop
      vertex 54.2 1 42.9
      vertex 54.2 23.8197 36.119
      vertex 54.2 25.0262 36.4345
    endloop
  endfacet
  facet normal 1 0 0
    outer loop
      vertex 54.2 1 42.9
      vertex 54.2 22.6375 35.736
      vertex 54.2 23.8197 36.119
    endloop
  endfacet
  facet normal 1 0 0
    outer loop
      vertex 54.2 1 42.9
      vertex 54.2 21.4844 35.2869
      vertex 54.2 22.6375 35.736
    endloop
  endfacet
  facet normal 1 0 0
    outer loop
      vertex 54.2 1 42.9
      vertex 54.2 20.3649 34.7735
      vertex 54.2 21.4844 35.2869
    endloop
  endfacet
  facet normal 1 0 0
    outer loop
      vertex 54.2 1 42.9
      vertex 54.2 19.2835 34.1979
      vertex 54.2 20.3649 34.7735
    endloop
  endfacet
  facet normal 1 0 0
    outer loop
      vertex 54.2 1 42.9
      vertex 54.2 18.2443 33.5623
      vertex 54.2 19.2835 34.1979
    endloop
  endfacet
  facet normal 1 0 0
    outer loop
      vertex 54.2 1 42.9
      vertex 54.2 17.2515 32.8692
      vertex 54.2 18.2443 33.5623
    endloop
  endfacet
  facet normal 1 0 0
    outer loop
      vertex 54.2 1 42.9
      vertex 54.2 16.3091 32.1214
      vertex 54.2 17.2515 32.8692
    endloop
  endfacet
  facet normal 1 0 0
    outer loop
      vertex 54.2 1 42.9
      vertex 54.2 15.4206 31.3218
      vertex 54.2 16.3091 32.1214
    endloop
  endfacet
  facet normal 1 0 0
    outer loop
      vertex 54.2 1 42.9
      vertex 54.2 14.5897 30.4736
      vertex 54.2 15.4206 31.3218
    endloop
  endfacet
  facet normal 1 0 0
    outer loop
      vertex 54.2 1 42.9
      vertex 54.2 13.8197 29.5801
      vertex 54.2 14.5897 30.4736
    endloop
  endfacet
  facet normal 1 0 0
    outer loop
      vertex 54.2 1 42.9
      vertex 54.2 13.1134 28.6449
      vertex 54.2 13.8197 29.5801
    endloop
  endfacet
  facet normal 1 0 0
    outer loop
      vertex 54.2 1 42.9
      vertex 54.2 12.4739 27.6716
      vertex 54.2 13.1134 28.6449
    endloop
  endfacet
  facet normal 1 0 0
    outer loop
      vertex 54.2 1 42.9
      vertex 54.2 11.9035 26.664
      vertex 54.2 12.4739 27.6716
    endloop
  endfacet
  facet normal 1 0 0
    outer loop
      vertex 54.2 1 42.9
      vertex 54.2 11.4045 25.6262
      vertex 54.2 11.9035 26.664
    endloop
  endfacet
  facet normal 1 0 0
    outer loop
      vertex 54.2 1 42.9
      vertex 54.2 10.9789 24.5623
      vertex 54.2 11.4045 25.6262
    endloop
  endfacet
  facet normal 1 0 0
    outer loop
      vertex 54.2 1 42.9
      vertex 54.2 10.6283 23.4764
      vertex 54.2 10.9789 24.5623
    endloop
  endfacet
  facet normal 1 0 0
    outer loop
      vertex 54.2 1 42.9
      vertex 54.2 10.3543 22.3729
      vertex 54.2 10.6283 23.4764
    endloop
  endfacet
  facet normal 1 0 0
    outer loop
      vertex 54.2 1 42.9
      vertex 54.2 10.1577 21.256
      vertex 54.2 10.3543 22.3729
    endloop
  endfacet
  facet normal 1 0 0
    outer loop
      vertex 54.2 1 42.9
      vertex 54.2 10 20
      vertex 54.2 10.1577 21.256
    endloop
  endfacet
  facet normal 1 0 0
    outer loop
      vertex 54.2 1 0
      vertex 54.2 10 20
      vertex 54.2 1 42.9
    endloop
  endfacet
  facet normal 1 0 0
    outer loop
      vertex 54.2 10 20
      vertex 54.2 1 0
      vertex 54.2 10 0
    endloop
  endfacet
  facet normal 1 0 0
    outer loop
      vertex 54.2 54.2 0
      vertex 54.2 50 20
      vertex 54.2 50 0
    endloop
  endfacet
  facet normal 0 1 -0
    outer loop
      vertex 54.2 54.2 0
      vertex 46 54.2 42.9
      vertex 54.2 54.2 42.9
    endloop
  endfacet
  facet normal 0 1 0
    outer loop
      vertex 46 54.2 42.9
      vertex 54.2 54.2 0
      vertex 46 54.2 0
    endloop
  endfacet
  facet normal 1 -0 0
    outer loop
      vertex 5 1 20
      vertex 5 9.2 0
      vertex 5 9.2 20
    endloop
  endfacet
  facet normal 1 0 0
    outer loop
      vertex 5 9.2 0
      vertex 5 1 20
      vertex 5 1 0
    endloop
  endfacet
  facet normal 0 0 -1
    outer loop
      vertex 5 1 20
      vertex 5.03492 9.2 20
      vertex 5.03492 1 20
    endloop
  endfacet
  facet normal -0 0 -1
    outer loop
      vertex 5.03492 9.2 20
      vertex 5 1 20
      vertex 5 9.2 20
    endloop
  endfacet
  facet normal 0 0 -1
    outer loop
      vertex 44.9651 1 20
      vertex 45 9.2 20
      vertex 45 1 20
    endloop
  endfacet
  facet normal -0 0 -1
    outer loop
      vertex 45 9.2 20
      vertex 44.9651 1 20
      vertex 44.9651 9.2 20
    endloop
  endfacet
  facet normal -1 0 0
    outer loop
      vertex 45 1 0
      vertex 45 9.2 20
      vertex 45 9.2 0
    endloop
  endfacet
  facet normal -1 -0 0
    outer loop
      vertex 45 9.2 20
      vertex 45 1 0
      vertex 45 1 20
    endloop
  endfacet
  facet normal -0.999391 0 -0.0348948
    outer loop
      vertex 44.9651 1 20
      vertex 44.9605 9.2 20.1302
      vertex 44.9651 9.2 20
    endloop
  endfacet
  facet normal -0.999391 -0 -0.0348948
    outer loop
      vertex 44.9605 9.2 20.1302
      vertex 44.9651 1 20
      vertex 44.9605 1 20.1302
    endloop
  endfacet
  facet normal -0.994529 0 -0.104456
    outer loop
      vertex 44.9605 1 20.1302
      vertex 44.8423 9.2 21.256
      vertex 44.9605 9.2 20.1302
    endloop
  endfacet
  facet normal -0.994529 -0 -0.104456
    outer loop
      vertex 44.8423 9.2 21.256
      vertex 44.9605 1 20.1302
      vertex 44.8423 1 21.256
    endloop
  endfacet
  facet normal 0.0282722 0 -0.9996
    outer loop
      vertex 23.7442 1 36.9645
      vertex 25 9.2 37
      vertex 25 1 37
    endloop
  endfacet
  facet normal 0.0282722 0 -0.9996
    outer loop
      vertex 25 9.2 37
      vertex 23.7442 1 36.9645
      vertex 23.7442 9.2 36.9645
    endloop
  endfacet
  facet normal -0.668966 0 -0.743293
    outer loop
      vertex 38.6909 1 32.1214
      vertex 39.5794 9.2 31.3218
      vertex 39.5794 1 31.3218
    endloop
  endfacet
  facet normal -0.668966 0 -0.743293
    outer loop
      vertex 39.5794 9.2 31.3218
      vertex 38.6909 1 32.1214
      vertex 38.6909 9.2 32.1214
    endloop
  endfacet
  facet normal 0.668966 0 -0.743293
    outer loop
      vertex 10.4206 1 31.3218
      vertex 11.3091 9.2 32.1214
      vertex 11.3091 1 32.1214
    endloop
  endfacet
  facet normal 0.668966 0 -0.743293
    outer loop
      vertex 11.3091 9.2 32.1214
      vertex 10.4206 1 31.3218
      vertex 10.4206 9.2 31.3218
    endloop
  endfacet
  facet normal -0.901236 0 -0.433329
    outer loop
      vertex 43.5955 1 25.6262
      vertex 43.0965 9.2 26.664
      vertex 43.5955 9.2 25.6262
    endloop
  endfacet
  facet normal -0.901236 -0 -0.433329
    outer loop
      vertex 43.0965 9.2 26.664
      vertex 43.5955 1 25.6262
      vertex 43.0965 1 26.664
    endloop
  endfacet
  facet normal -0.308243 0 -0.951308
    outer loop
      vertex 31.1803 1 36.119
      vertex 32.3625 9.2 35.736
      vertex 32.3625 1 35.736
    endloop
  endfacet
  facet normal -0.308243 0 -0.951308
    outer loop
      vertex 32.3625 9.2 35.736
      vertex 31.1803 1 36.119
      vertex 31.1803 9.2 36.119
    endloop
  endfacet
  facet normal 0.901234 0 -0.433332
    outer loop
      vertex 6.90346 1 26.664
      vertex 6.40447 9.2 25.6262
      vertex 6.90346 9.2 26.664
    endloop
  endfacet
  facet normal 0.901234 0 -0.433332
    outer loop
      vertex 6.40447 9.2 25.6262
      vertex 6.90346 1 26.664
      vertex 6.40447 1 25.6262
    endloop
  endfacet
  facet normal 0.714364 0 -0.699774
    outer loop
      vertex 10.4206 1 31.3218
      vertex 9.58974 9.2 30.4736
      vertex 10.4206 9.2 31.3218
    endloop
  endfacet
  facet normal 0.714364 0 -0.699774
    outer loop
      vertex 9.58974 9.2 30.4736
      vertex 10.4206 1 31.3218
      vertex 9.58974 1 30.4736
    endloop
  endfacet
  facet normal 0.197223 0 -0.980359
    outer loop
      vertex 20.0262 1 36.4345
      vertex 21.2524 9.2 36.6812
      vertex 21.2524 1 36.6812
    endloop
  endfacet
  facet normal 0.197223 0 -0.980359
    outer loop
      vertex 21.2524 9.2 36.6812
      vertex 20.0262 1 36.4345
      vertex 20.0262 9.2 36.4345
    endloop
  endfacet
  facet normal -0.970515 0 -0.24104
    outer loop
      vertex 44.6457 1 22.3729
      vertex 44.3717 9.2 23.4764
      vertex 44.6457 9.2 22.3729
    endloop
  endfacet
  facet normal -0.970515 -0 -0.24104
    outer loop
      vertex 44.3717 9.2 23.4764
      vertex 44.6457 1 22.3729
      vertex 44.3717 1 23.4764
    endloop
  endfacet
  facet normal -0.870219 0 -0.492666
    outer loop
      vertex 43.0965 1 26.664
      vertex 42.5261 9.2 27.6716
      vertex 43.0965 9.2 26.664
    endloop
  endfacet
  facet normal -0.870219 -0 -0.492666
    outer loop
      vertex 42.5261 9.2 27.6716
      vertex 43.0965 1 26.664
      vertex 42.5261 1 27.6716
    endloop
  endfacet
  facet normal -0.141117 0 -0.989993
    outer loop
      vertex 27.5067 1 36.8581
      vertex 28.7476 9.2 36.6812
      vertex 28.7476 1 36.6812
    endloop
  endfacet
  facet normal -0.141117 0 -0.989993
    outer loop
      vertex 28.7476 9.2 36.6812
      vertex 27.5067 1 36.8581
      vertex 27.5067 9.2 36.8581
    endloop
  endfacet
  facet normal -0.252969 0 -0.967474
    outer loop
      vertex 29.9738 1 36.4345
      vertex 31.1803 9.2 36.119
      vertex 31.1803 1 36.119
    endloop
  endfacet
  facet normal -0.252969 0 -0.967474
    outer loop
      vertex 31.1803 9.2 36.119
      vertex 29.9738 1 36.4345
      vertex 29.9738 9.2 36.4345
    endloop
  endfacet
  facet normal -0.572423 0 -0.819958
    outer loop
      vertex 36.7557 1 33.5623
      vertex 37.7485 9.2 32.8692
      vertex 37.7485 1 32.8692
    endloop
  endfacet
  facet normal -0.572423 0 -0.819958
    outer loop
      vertex 37.7485 9.2 32.8692
      vertex 36.7557 1 33.5623
      vertex 36.7557 9.2 33.5623
    endloop
  endfacet
  facet normal 0.798039 0 -0.602606
    outer loop
      vertex 8.81966 1 29.5801
      vertex 8.11344 9.2 28.6449
      vertex 8.81966 9.2 29.5801
    endloop
  endfacet
  facet normal 0.798039 0 -0.602606
    outer loop
      vertex 8.11344 9.2 28.6449
      vertex 8.81966 1 29.5801
      vertex 8.11344 1 28.6449
    endloop
  endfacet
  facet normal 0.928469 0 -0.37141
    outer loop
      vertex 6.40447 1 25.6262
      vertex 5.97887 9.2 24.5623
      vertex 6.40447 9.2 25.6262
    endloop
  endfacet
  facet normal 0.928469 0 -0.37141
    outer loop
      vertex 5.97887 9.2 24.5623
      vertex 6.40447 1 25.6262
      vertex 5.97887 1 24.5623
    endloop
  endfacet
  facet normal 0.521778 0 -0.853081
    outer loop
      vertex 13.2443 1 33.5623
      vertex 14.2835 9.2 34.1979
      vertex 14.2835 1 34.1979
    endloop
  endfacet
  facet normal 0.521778 0 -0.853081
    outer loop
      vertex 14.2835 9.2 34.1979
      vertex 13.2443 1 33.5623
      vertex 13.2443 9.2 33.5623
    endloop
  endfacet
  facet normal 0.416835 0 -0.908982
    outer loop
      vertex 15.3649 1 34.7735
      vertex 16.4844 9.2 35.2869
      vertex 16.4844 1 35.2869
    endloop
  endfacet
  facet normal 0.416835 0 -0.908982
    outer loop
      vertex 16.4844 9.2 35.2869
      vertex 15.3649 1 34.7735
      vertex 15.3649 9.2 34.7735
    endloop
  endfacet
  facet normal 0.141117 0 -0.989993
    outer loop
      vertex 21.2524 1 36.6812
      vertex 22.4933 9.2 36.8581
      vertex 22.4933 1 36.8581
    endloop
  endfacet
  facet normal 0.141117 0 -0.989993
    outer loop
      vertex 22.4933 9.2 36.8581
      vertex 21.2524 1 36.6812
      vertex 21.2524 9.2 36.6812
    endloop
  endfacet
  facet normal -0.928468 0 -0.371411
    outer loop
      vertex 44.0211 1 24.5623
      vertex 43.5955 9.2 25.6262
      vertex 44.0211 9.2 24.5623
    endloop
  endfacet
  facet normal -0.928468 -0 -0.371411
    outer loop
      vertex 43.5955 9.2 25.6262
      vertex 44.0211 1 24.5623
      vertex 43.5955 1 25.6262
    endloop
  endfacet
  facet normal -0.951646 0 -0.307198
    outer loop
      vertex 44.3717 1 23.4764
      vertex 44.0211 9.2 24.5623
      vertex 44.3717 9.2 23.4764
    endloop
  endfacet
  facet normal -0.951646 -0 -0.307198
    outer loop
      vertex 44.0211 9.2 24.5623
      vertex 44.3717 1 23.4764
      vertex 44.0211 1 24.5623
    endloop
  endfacet
  facet normal -0.757485 0 -0.652853
    outer loop
      vertex 41.1803 1 29.5801
      vertex 40.4103 9.2 30.4736
      vertex 41.1803 9.2 29.5801
    endloop
  endfacet
  facet normal -0.757485 -0 -0.652853
    outer loop
      vertex 40.4103 9.2 30.4736
      vertex 41.1803 1 29.5801
      vertex 40.4103 1 30.4736
    endloop
  endfacet
  facet normal -0.714364 0 -0.699774
    outer loop
      vertex 40.4103 1 30.4736
      vertex 39.5794 9.2 31.3218
      vertex 40.4103 9.2 30.4736
    endloop
  endfacet
  facet normal -0.714364 -0 -0.699774
    outer loop
      vertex 39.5794 9.2 31.3218
      vertex 40.4103 1 30.4736
      vertex 39.5794 1 31.3218
    endloop
  endfacet
  facet normal -0.197222 0 -0.980359
    outer loop
      vertex 28.7476 1 36.6812
      vertex 29.9738 9.2 36.4345
      vertex 29.9738 1 36.4345
    endloop
  endfacet
  facet normal -0.197222 0 -0.980359
    outer loop
      vertex 29.9738 9.2 36.4345
      vertex 28.7476 1 36.6812
      vertex 28.7476 9.2 36.6812
    endloop
  endfacet
  facet normal -0.0847705 0 -0.996401
    outer loop
      vertex 26.2558 1 36.9645
      vertex 27.5067 9.2 36.8581
      vertex 27.5067 1 36.8581
    endloop
  endfacet
  facet normal -0.0847705 0 -0.996401
    outer loop
      vertex 27.5067 9.2 36.8581
      vertex 26.2558 1 36.9645
      vertex 26.2558 9.2 36.9645
    endloop
  endfacet
  facet normal -0.0282722 0 -0.9996
    outer loop
      vertex 25 1 37
      vertex 26.2558 9.2 36.9645
      vertex 26.2558 1 36.9645
    endloop
  endfacet
  facet normal -0.0282722 0 -0.9996
    outer loop
      vertex 26.2558 9.2 36.9645
      vertex 25 1 37
      vertex 25 9.2 37
    endloop
  endfacet
  facet normal -0.416836 0 -0.908982
    outer loop
      vertex 33.5156 1 35.2869
      vertex 34.6351 9.2 34.7735
      vertex 34.6351 1 34.7735
    endloop
  endfacet
  facet normal -0.416836 0 -0.908982
    outer loop
      vertex 34.6351 9.2 34.7735
      vertex 33.5156 1 35.2869
      vertex 33.5156 9.2 35.2869
    endloop
  endfacet
  facet normal -0.362912 0 -0.931824
    outer loop
      vertex 32.3625 1 35.736
      vertex 33.5156 9.2 35.2869
      vertex 33.5156 1 35.2869
    endloop
  endfacet
  facet normal -0.362912 0 -0.931824
    outer loop
      vertex 33.5156 9.2 35.2869
      vertex 32.3625 1 35.736
      vertex 32.3625 9.2 35.736
    endloop
  endfacet
  facet normal -0.621564 0 -0.783363
    outer loop
      vertex 37.7485 1 32.8692
      vertex 38.6909 9.2 32.1214
      vertex 38.6909 1 32.1214
    endloop
  endfacet
  facet normal -0.621564 0 -0.783363
    outer loop
      vertex 38.6909 9.2 32.1214
      vertex 37.7485 1 32.8692
      vertex 37.7485 9.2 32.8692
    endloop
  endfacet
  facet normal 0.994529 0 -0.104456
    outer loop
      vertex 5.15771 1 21.256
      vertex 5.03946 9.2 20.1302
      vertex 5.15771 9.2 21.256
    endloop
  endfacet
  facet normal 0.994529 0 -0.104456
    outer loop
      vertex 5.03946 9.2 20.1302
      vertex 5.15771 1 21.256
      vertex 5.03946 1 20.1302
    endloop
  endfacet
  facet normal 0.757485 0 -0.652853
    outer loop
      vertex 9.58974 1 30.4736
      vertex 8.81966 9.2 29.5801
      vertex 9.58974 9.2 30.4736
    endloop
  endfacet
  facet normal 0.757485 0 -0.652853
    outer loop
      vertex 8.81966 9.2 29.5801
      vertex 9.58974 1 30.4736
      vertex 8.81966 1 29.5801
    endloop
  endfacet
  facet normal 0.835718 0 -0.549159
    outer loop
      vertex 8.11344 1 28.6449
      vertex 7.47387 9.2 27.6716
      vertex 8.11344 9.2 28.6449
    endloop
  endfacet
  facet normal 0.835718 0 -0.549159
    outer loop
      vertex 7.47387 9.2 27.6716
      vertex 8.11344 1 28.6449
      vertex 7.47387 1 27.6716
    endloop
  endfacet
  facet normal 0.951645 0 -0.307199
    outer loop
      vertex 5.97887 1 24.5623
      vertex 5.62834 9.2 23.4764
      vertex 5.97887 9.2 24.5623
    endloop
  endfacet
  facet normal 0.951645 0 -0.307199
    outer loop
      vertex 5.62834 9.2 23.4764
      vertex 5.97887 1 24.5623
      vertex 5.62834 1 23.4764
    endloop
  endfacet
  facet normal 0.572422 0 -0.819959
    outer loop
      vertex 12.2515 1 32.8692
      vertex 13.2443 9.2 33.5623
      vertex 13.2443 1 33.5623
    endloop
  endfacet
  facet normal 0.572422 0 -0.819959
    outer loop
      vertex 13.2443 9.2 33.5623
      vertex 12.2515 1 32.8692
      vertex 12.2515 9.2 32.8692
    endloop
  endfacet
  facet normal 0.621564 0 -0.783363
    outer loop
      vertex 11.3091 1 32.1214
      vertex 12.2515 9.2 32.8692
      vertex 12.2515 1 32.8692
    endloop
  endfacet
  facet normal 0.621564 0 -0.783363
    outer loop
      vertex 12.2515 9.2 32.8692
      vertex 11.3091 1 32.1214
      vertex 11.3091 9.2 32.1214
    endloop
  endfacet
  facet normal 0.252969 0 -0.967474
    outer loop
      vertex 18.8197 1 36.119
      vertex 20.0262 9.2 36.4345
      vertex 20.0262 1 36.4345
    endloop
  endfacet
  facet normal 0.252969 0 -0.967474
    outer loop
      vertex 20.0262 9.2 36.4345
      vertex 18.8197 1 36.119
      vertex 18.8197 9.2 36.119
    endloop
  endfacet
  facet normal 0.308243 0 -0.951308
    outer loop
      vertex 17.6375 1 35.736
      vertex 18.8197 9.2 36.119
      vertex 18.8197 1 36.119
    endloop
  endfacet
  facet normal 0.308243 0 -0.951308
    outer loop
      vertex 18.8197 9.2 36.119
      vertex 17.6375 1 35.736
      vertex 17.6375 9.2 35.736
    endloop
  endfacet
  facet normal 0.362912 0 -0.931824
    outer loop
      vertex 16.4844 1 35.2869
      vertex 17.6375 9.2 35.736
      vertex 17.6375 1 35.736
    endloop
  endfacet
  facet normal 0.362912 0 -0.931824
    outer loop
      vertex 17.6375 9.2 35.736
      vertex 16.4844 1 35.2869
      vertex 16.4844 9.2 35.2869
    endloop
  endfacet
  facet normal 0.0847705 0 -0.996401
    outer loop
      vertex 22.4933 1 36.8581
      vertex 23.7442 9.2 36.9645
      vertex 23.7442 1 36.9645
    endloop
  endfacet
  facet normal 0.0847705 0 -0.996401
    outer loop
      vertex 23.7442 9.2 36.9645
      vertex 22.4933 1 36.8581
      vertex 22.4933 9.2 36.8581
    endloop
  endfacet
  facet normal -0.984866 0 -0.173319
    outer loop
      vertex 44.8423 1 21.256
      vertex 44.6457 9.2 22.3729
      vertex 44.8423 9.2 21.256
    endloop
  endfacet
  facet normal -0.984866 -0 -0.173319
    outer loop
      vertex 44.6457 9.2 22.3729
      vertex 44.8423 1 21.256
      vertex 44.6457 1 22.3729
    endloop
  endfacet
  facet normal -0.835718 0 -0.549159
    outer loop
      vertex 42.5261 1 27.6716
      vertex 41.8866 9.2 28.6449
      vertex 42.5261 9.2 27.6716
    endloop
  endfacet
  facet normal -0.835718 -0 -0.549159
    outer loop
      vertex 41.8866 9.2 28.6449
      vertex 42.5261 1 27.6716
      vertex 41.8866 1 28.6449
    endloop
  endfacet
  facet normal -0.798038 0 -0.602607
    outer loop
      vertex 41.8866 1 28.6449
      vertex 41.1803 9.2 29.5801
      vertex 41.8866 9.2 28.6449
    endloop
  endfacet
  facet normal -0.798038 -0 -0.602607
    outer loop
      vertex 41.1803 9.2 29.5801
      vertex 41.8866 1 28.6449
      vertex 41.1803 1 29.5801
    endloop
  endfacet
  facet normal -0.521778 0 -0.853081
    outer loop
      vertex 35.7165 1 34.1979
      vertex 36.7557 9.2 33.5623
      vertex 36.7557 1 33.5623
    endloop
  endfacet
  facet normal -0.521778 0 -0.853081
    outer loop
      vertex 36.7557 9.2 33.5623
      vertex 35.7165 1 34.1979
      vertex 35.7165 9.2 34.1979
    endloop
  endfacet
  facet normal -0.469849 0 -0.882747
    outer loop
      vertex 34.6351 1 34.7735
      vertex 35.7165 9.2 34.1979
      vertex 35.7165 1 34.1979
    endloop
  endfacet
  facet normal -0.469849 0 -0.882747
    outer loop
      vertex 35.7165 9.2 34.1979
      vertex 34.6351 1 34.7735
      vertex 34.6351 9.2 34.7735
    endloop
  endfacet
  facet normal 0.870219 0 -0.492665
    outer loop
      vertex 7.47387 1 27.6716
      vertex 6.90346 9.2 26.664
      vertex 7.47387 9.2 27.6716
    endloop
  endfacet
  facet normal 0.870219 0 -0.492665
    outer loop
      vertex 6.90346 9.2 26.664
      vertex 7.47387 1 27.6716
      vertex 6.90346 1 26.664
    endloop
  endfacet
  facet normal 0.970515 0 -0.241039
    outer loop
      vertex 5.62834 1 23.4764
      vertex 5.35425 9.2 22.3729
      vertex 5.62834 9.2 23.4764
    endloop
  endfacet
  facet normal 0.970515 0 -0.241039
    outer loop
      vertex 5.35425 9.2 22.3729
      vertex 5.62834 1 23.4764
      vertex 5.35425 1 22.3729
    endloop
  endfacet
  facet normal 0.984866 0 -0.173319
    outer loop
      vertex 5.35425 1 22.3729
      vertex 5.15771 9.2 21.256
      vertex 5.35425 9.2 22.3729
    endloop
  endfacet
  facet normal 0.984866 0 -0.173319
    outer loop
      vertex 5.15771 9.2 21.256
      vertex 5.35425 1 22.3729
      vertex 5.15771 1 21.256
    endloop
  endfacet
  facet normal 0.999391 0 -0.0348948
    outer loop
      vertex 5.03946 1 20.1302
      vertex 5.03492 9.2 20
      vertex 5.03946 9.2 20.1302
    endloop
  endfacet
  facet normal 0.999391 0 -0.0348948
    outer loop
      vertex 5.03492 9.2 20
      vertex 5.03946 1 20.1302
      vertex 5.03492 1 20
    endloop
  endfacet
  facet normal 0.46985 0 -0.882746
    outer loop
      vertex 14.2835 1 34.1979
      vertex 15.3649 9.2 34.7735
      vertex 15.3649 1 34.7735
    endloop
  endfacet
  facet normal 0.46985 0 -0.882746
    outer loop
      vertex 15.3649 9.2 34.7735
      vertex 14.2835 1 34.1979
      vertex 14.2835 9.2 34.1979
    endloop
  endfacet
  facet normal 0 1 -0
    outer loop
      vertex 54.2 10 0
      vertex 46 10 20
      vertex 54.2 10 20
    endloop
  endfacet
  facet normal 0 1 0
    outer loop
      vertex 46 10 20
      vertex 54.2 10 0
      vertex 46 10 0
    endloop
  endfacet
  facet normal 0 0 -1
    outer loop
      vertex 46 10 20
      vertex 54.2 10.0349 20
      vertex 54.2 10 20
    endloop
  endfacet
  facet normal -0 0 -1
    outer loop
      vertex 54.2 10.0349 20
      vertex 46 10 20
      vertex 46 10.0349 20
    endloop
  endfacet
  facet normal 0 0 -1
    outer loop
      vertex 46 49.9651 20
      vertex 54.2 50 20
      vertex 54.2 49.9651 20
    endloop
  endfacet
  facet normal -0 0 -1
    outer loop
      vertex 54.2 50 20
      vertex 46 49.9651 20
      vertex 46 50 20
    endloop
  endfacet
  facet normal 0 -1 0
    outer loop
      vertex 46 50 0
      vertex 54.2 50 20
      vertex 46 50 20
    endloop
  endfacet
  facet normal 0 -1 -0
    outer loop
      vertex 54.2 50 20
      vertex 46 50 0
      vertex 54.2 50 0
    endloop
  endfacet
  facet normal 0 -0.999391 -0.0348948
    outer loop
      vertex 46 49.9651 20
      vertex 54.2 49.9605 20.1302
      vertex 46 49.9605 20.1302
    endloop
  endfacet
  facet normal 0 -0.999391 -0.0348948
    outer loop
      vertex 54.2 49.9605 20.1302
      vertex 46 49.9651 20
      vertex 54.2 49.9651 20
    endloop
  endfacet
  facet normal 0 -0.994529 -0.104456
    outer loop
      vertex 46 49.9605 20.1302
      vertex 54.2 49.8423 21.256
      vertex 46 49.8423 21.256
    endloop
  endfacet
  facet normal 0 -0.994529 -0.104456
    outer loop
      vertex 54.2 49.8423 21.256
      vertex 46 49.9605 20.1302
      vertex 54.2 49.9605 20.1302
    endloop
  endfacet
  facet normal 6.57619e-09 0.0282721 -0.9996
    outer loop
      vertex 46 28.7442 36.9645
      vertex 54.2 30 37
      vertex 54.2 28.7442 36.9645
    endloop
  endfacet
  facet normal 0 0.0282722 -0.9996
    outer loop
      vertex 54.2 30 37
      vertex 46 28.7442 36.9645
      vertex 46 30 37
    endloop
  endfacet
  facet normal 0 -0.668966 -0.743293
    outer loop
      vertex 46 43.6909 32.1214
      vertex 54.2 44.5794 31.3218
      vertex 54.2 43.6909 32.1214
    endloop
  endfacet
  facet normal -0 -0.668966 -0.743293
    outer loop
      vertex 54.2 44.5794 31.3218
      vertex 46 43.6909 32.1214
      vertex 46 44.5794 31.3218
    endloop
  endfacet
  facet normal 0 0.668966 -0.743293
    outer loop
      vertex 46 15.4206 31.3218
      vertex 54.2 16.3091 32.1214
      vertex 54.2 15.4206 31.3218
    endloop
  endfacet
  facet normal 0 0.668966 -0.743293
    outer loop
      vertex 54.2 16.3091 32.1214
      vertex 46 15.4206 31.3218
      vertex 46 16.3091 32.1214
    endloop
  endfacet
  facet normal -4.19261e-07 -0.901236 -0.433329
    outer loop
      vertex 46 48.5955 25.6262
      vertex 54.2 48.0965 26.664
      vertex 46 48.0965 26.664
    endloop
  endfacet
  facet normal 0 -0.901234 -0.433332
    outer loop
      vertex 54.2 48.0965 26.664
      vertex 46 48.5955 25.6262
      vertex 54.2 48.5955 25.6262
    endloop
  endfacet
  facet normal 0 -0.308243 -0.951308
    outer loop
      vertex 46 36.1803 36.119
      vertex 54.2 37.3625 35.736
      vertex 54.2 36.1803 36.119
    endloop
  endfacet
  facet normal -0 -0.308243 -0.951308
    outer loop
      vertex 54.2 37.3625 35.736
      vertex 46 36.1803 36.119
      vertex 46 37.3625 35.736
    endloop
  endfacet
  facet normal 0 0.901234 -0.433332
    outer loop
      vertex 54.2 11.4045 25.6262
      vertex 46 11.9035 26.664
      vertex 54.2 11.9035 26.664
    endloop
  endfacet
  facet normal 0 0.901234 -0.433332
    outer loop
      vertex 46 11.9035 26.664
      vertex 54.2 11.4045 25.6262
      vertex 46 11.4045 25.6262
    endloop
  endfacet
  facet normal 0 0.714364 -0.699774
    outer loop
      vertex 54.2 14.5897 30.4736
      vertex 46 15.4206 31.3218
      vertex 54.2 15.4206 31.3218
    endloop
  endfacet
  facet normal 0 0.714364 -0.699774
    outer loop
      vertex 46 15.4206 31.3218
      vertex 54.2 14.5897 30.4736
      vertex 46 14.5897 30.4736
    endloop
  endfacet
  facet normal 4.58746e-08 0.197222 -0.980359
    outer loop
      vertex 46 25.0262 36.4345
      vertex 54.2 26.2524 36.6812
      vertex 54.2 25.0262 36.4345
    endloop
  endfacet
  facet normal 0 0.197223 -0.980359
    outer loop
      vertex 54.2 26.2524 36.6812
      vertex 46 25.0262 36.4345
      vertex 46 26.2524 36.6812
    endloop
  endfacet
  facet normal 0 -0.970515 -0.24104
    outer loop
      vertex 46 49.6457 22.3729
      vertex 54.2 49.3717 23.4764
      vertex 46 49.3717 23.4764
    endloop
  endfacet
  facet normal 0 -0.970515 -0.24104
    outer loop
      vertex 54.2 49.3717 23.4764
      vertex 46 49.6457 22.3729
      vertex 54.2 49.6457 22.3729
    endloop
  endfacet
  facet normal 0 -0.870219 -0.492666
    outer loop
      vertex 46 48.0965 26.664
      vertex 54.2 47.5261 27.6716
      vertex 46 47.5261 27.6716
    endloop
  endfacet
  facet normal -4.04832e-07 -0.87022 -0.492663
    outer loop
      vertex 54.2 47.5261 27.6716
      vertex 46 48.0965 26.664
      vertex 54.2 48.0965 26.664
    endloop
  endfacet
  facet normal 0 -0.141118 -0.989993
    outer loop
      vertex 46 32.5067 36.8581
      vertex 54.2 33.7476 36.6812
      vertex 54.2 32.5067 36.8581
    endloop
  endfacet
  facet normal -6.56487e-08 -0.141117 -0.989993
    outer loop
      vertex 54.2 33.7476 36.6812
      vertex 46 32.5067 36.8581
      vertex 46 33.7476 36.6812
    endloop
  endfacet
  facet normal 0 -0.252969 -0.967474
    outer loop
      vertex 46 34.9738 36.4345
      vertex 54.2 36.1803 36.119
      vertex 54.2 34.9738 36.4345
    endloop
  endfacet
  facet normal -0 -0.252969 -0.967474
    outer loop
      vertex 54.2 36.1803 36.119
      vertex 46 34.9738 36.4345
      vertex 46 36.1803 36.119
    endloop
  endfacet
  facet normal -2.66294e-07 -0.572422 -0.81996
    outer loop
      vertex 46 41.7557 33.5623
      vertex 54.2 42.7485 32.8692
      vertex 54.2 41.7557 33.5623
    endloop
  endfacet
  facet normal -0 -0.572423 -0.819958
    outer loop
      vertex 54.2 42.7485 32.8692
      vertex 46 41.7557 33.5623
      vertex 46 42.7485 32.8692
    endloop
  endfacet
  facet normal 0 0.798039 -0.602606
    outer loop
      vertex 54.2 13.1134 28.6449
      vertex 46 13.8197 29.5801
      vertex 54.2 13.8197 29.5801
    endloop
  endfacet
  facet normal 0 0.798039 -0.602606
    outer loop
      vertex 46 13.8197 29.5801
      vertex 54.2 13.1134 28.6449
      vertex 46 13.1134 28.6449
    endloop
  endfacet
  facet normal 0 0.928469 -0.37141
    outer loop
      vertex 54.2 10.9789 24.5623
      vertex 46 11.4045 25.6262
      vertex 54.2 11.4045 25.6262
    endloop
  endfacet
  facet normal 0 0.928469 -0.37141
    outer loop
      vertex 46 11.4045 25.6262
      vertex 54.2 10.9789 24.5623
      vertex 46 10.9789 24.5623
    endloop
  endfacet
  facet normal 0 0.521778 -0.853081
    outer loop
      vertex 46 18.2443 33.5623
      vertex 54.2 19.2835 34.1979
      vertex 54.2 18.2443 33.5623
    endloop
  endfacet
  facet normal 0 0.521778 -0.853081
    outer loop
      vertex 54.2 19.2835 34.1979
      vertex 46 18.2443 33.5623
      vertex 46 19.2835 34.1979
    endloop
  endfacet
  facet normal 0 0.416835 -0.908982
    outer loop
      vertex 46 20.3649 34.7735
      vertex 54.2 21.4844 35.2869
      vertex 54.2 20.3649 34.7735
    endloop
  endfacet
  facet normal 0 0.416835 -0.908982
    outer loop
      vertex 54.2 21.4844 35.2869
      vertex 46 20.3649 34.7735
      vertex 46 21.4844 35.2869
    endloop
  endfacet
  facet normal 0 0.141117 -0.989993
    outer loop
      vertex 46 26.2524 36.6812
      vertex 54.2 27.4933 36.8581
      vertex 54.2 26.2524 36.6812
    endloop
  endfacet
  facet normal 3.28243e-08 0.141117 -0.989993
    outer loop
      vertex 54.2 27.4933 36.8581
      vertex 46 26.2524 36.6812
      vertex 46 27.4933 36.8581
    endloop
  endfacet
  facet normal 0 -0.928468 -0.371411
    outer loop
      vertex 46 49.0211 24.5623
      vertex 54.2 48.5955 25.6262
      vertex 46 48.5955 25.6262
    endloop
  endfacet
  facet normal 0 -0.928468 -0.371411
    outer loop
      vertex 54.2 48.5955 25.6262
      vertex 46 49.0211 24.5623
      vertex 54.2 49.0211 24.5623
    endloop
  endfacet
  facet normal 0 -0.951646 -0.307198
    outer loop
      vertex 46 49.3717 23.4764
      vertex 54.2 49.0211 24.5623
      vertex 46 49.0211 24.5623
    endloop
  endfacet
  facet normal 0 -0.951646 -0.307198
    outer loop
      vertex 54.2 49.0211 24.5623
      vertex 46 49.3717 23.4764
      vertex 54.2 49.3717 23.4764
    endloop
  endfacet
  facet normal 0 -0.757485 -0.652853
    outer loop
      vertex 46 46.1803 29.5801
      vertex 54.2 45.4103 30.4736
      vertex 46 45.4103 30.4736
    endloop
  endfacet
  facet normal 0 -0.757485 -0.652853
    outer loop
      vertex 54.2 45.4103 30.4736
      vertex 46 46.1803 29.5801
      vertex 54.2 46.1803 29.5801
    endloop
  endfacet
  facet normal 0 -0.714364 -0.699774
    outer loop
      vertex 46 45.4103 30.4736
      vertex 54.2 44.5794 31.3218
      vertex 46 44.5794 31.3218
    endloop
  endfacet
  facet normal 0 -0.714364 -0.699774
    outer loop
      vertex 54.2 44.5794 31.3218
      vertex 46 45.4103 30.4736
      vertex 54.2 45.4103 30.4736
    endloop
  endfacet
  facet normal -9.17491e-08 -0.197222 -0.980359
    outer loop
      vertex 46 33.7476 36.6812
      vertex 54.2 34.9738 36.4345
      vertex 54.2 33.7476 36.6812
    endloop
  endfacet
  facet normal -0 -0.197223 -0.980359
    outer loop
      vertex 54.2 34.9738 36.4345
      vertex 46 33.7476 36.6812
      vertex 46 34.9738 36.4345
    endloop
  endfacet
  facet normal 0 -0.0847705 -0.996401
    outer loop
      vertex 46 31.2558 36.9645
      vertex 54.2 32.5067 36.8581
      vertex 54.2 31.2558 36.9645
    endloop
  endfacet
  facet normal -0 -0.0847705 -0.996401
    outer loop
      vertex 54.2 32.5067 36.8581
      vertex 46 31.2558 36.9645
      vertex 46 32.5067 36.8581
    endloop
  endfacet
  facet normal 0 -0.0282722 -0.9996
    outer loop
      vertex 46 30 37
      vertex 54.2 31.2558 36.9645
      vertex 54.2 30 37
    endloop
  endfacet
  facet normal -0 -0.0282722 -0.9996
    outer loop
      vertex 54.2 31.2558 36.9645
      vertex 46 30 37
      vertex 46 31.2558 36.9645
    endloop
  endfacet
  facet normal -1.93914e-07 -0.416835 -0.908982
    outer loop
      vertex 46 38.5156 35.2869
      vertex 54.2 39.6351 34.7735
      vertex 54.2 38.5156 35.2869
    endloop
  endfacet
  facet normal -0 -0.416836 -0.908982
    outer loop
      vertex 54.2 39.6351 34.7735
      vertex 46 38.5156 35.2869
      vertex 46 39.6351 34.7735
    endloop
  endfacet
  facet normal 0 -0.362913 -0.931823
    outer loop
      vertex 46 37.3625 35.736
      vertex 54.2 38.5156 35.2869
      vertex 54.2 37.3625 35.736
    endloop
  endfacet
  facet normal -1.68829e-07 -0.362912 -0.931824
    outer loop
      vertex 54.2 38.5156 35.2869
      vertex 46 37.3625 35.736
      vertex 46 38.5156 35.2869
    endloop
  endfacet
  facet normal 0 -0.621564 -0.783363
    outer loop
      vertex 46 42.7485 32.8692
      vertex 54.2 43.6909 32.1214
      vertex 54.2 42.7485 32.8692
    endloop
  endfacet
  facet normal -0 -0.621564 -0.783363
    outer loop
      vertex 54.2 43.6909 32.1214
      vertex 46 42.7485 32.8692
      vertex 46 43.6909 32.1214
    endloop
  endfacet
  facet normal 0 0.994529 -0.104456
    outer loop
      vertex 54.2 10.0395 20.1302
      vertex 46 10.1577 21.256
      vertex 54.2 10.1577 21.256
    endloop
  endfacet
  facet normal 0 0.994529 -0.104456
    outer loop
      vertex 46 10.1577 21.256
      vertex 54.2 10.0395 20.1302
      vertex 46 10.0395 20.1302
    endloop
  endfacet
  facet normal 0 0.757485 -0.652853
    outer loop
      vertex 54.2 13.8197 29.5801
      vertex 46 14.5897 30.4736
      vertex 54.2 14.5897 30.4736
    endloop
  endfacet
  facet normal 0 0.757485 -0.652853
    outer loop
      vertex 46 14.5897 30.4736
      vertex 54.2 13.8197 29.5801
      vertex 46 13.8197 29.5801
    endloop
  endfacet
  facet normal 0 0.835718 -0.549159
    outer loop
      vertex 54.2 12.4739 27.6716
      vertex 46 13.1134 28.6449
      vertex 54.2 13.1134 28.6449
    endloop
  endfacet
  facet normal 0 0.835718 -0.549159
    outer loop
      vertex 46 13.1134 28.6449
      vertex 54.2 12.4739 27.6716
      vertex 46 12.4739 27.6716
    endloop
  endfacet
  facet normal 0 0.951645 -0.307199
    outer loop
      vertex 54.2 10.6283 23.4764
      vertex 46 10.9789 24.5623
      vertex 54.2 10.9789 24.5623
    endloop
  endfacet
  facet normal 0 0.951645 -0.307199
    outer loop
      vertex 46 10.9789 24.5623
      vertex 54.2 10.6283 23.4764
      vertex 46 10.6283 23.4764
    endloop
  endfacet
  facet normal 0 0.572422 -0.819959
    outer loop
      vertex 46 17.2515 32.8692
      vertex 54.2 18.2443 33.5623
      vertex 54.2 17.2515 32.8692
    endloop
  endfacet
  facet normal 0 0.572422 -0.819959
    outer loop
      vertex 54.2 18.2443 33.5623
      vertex 46 17.2515 32.8692
      vertex 46 18.2443 33.5623
    endloop
  endfacet
  facet normal 0 0.621564 -0.783363
    outer loop
      vertex 46 16.3091 32.1214
      vertex 54.2 17.2515 32.8692
      vertex 54.2 16.3091 32.1214
    endloop
  endfacet
  facet normal 0 0.621564 -0.783363
    outer loop
      vertex 54.2 17.2515 32.8692
      vertex 46 16.3091 32.1214
      vertex 46 17.2515 32.8692
    endloop
  endfacet
  facet normal 5.88415e-08 0.252969 -0.967474
    outer loop
      vertex 46 23.8197 36.119
      vertex 54.2 25.0262 36.4345
      vertex 54.2 23.8197 36.119
    endloop
  endfacet
  facet normal 5.88415e-08 0.252969 -0.967474
    outer loop
      vertex 54.2 25.0262 36.4345
      vertex 46 23.8197 36.119
      vertex 46 25.0262 36.4345
    endloop
  endfacet
  facet normal 0 0.308244 -0.951307
    outer loop
      vertex 46 22.6375 35.736
      vertex 54.2 23.8197 36.119
      vertex 54.2 22.6375 35.736
    endloop
  endfacet
  facet normal 7.16984e-08 0.308243 -0.951308
    outer loop
      vertex 54.2 23.8197 36.119
      vertex 46 22.6375 35.736
      vertex 46 23.8197 36.119
    endloop
  endfacet
  facet normal 0 0.362912 -0.931824
    outer loop
      vertex 46 21.4844 35.2869
      vertex 54.2 22.6375 35.736
      vertex 54.2 21.4844 35.2869
    endloop
  endfacet
  facet normal 0 0.362912 -0.931824
    outer loop
      vertex 54.2 22.6375 35.736
      vertex 46 21.4844 35.2869
      vertex 46 22.6375 35.736
    endloop
  endfacet
  facet normal 1.97179e-08 0.0847705 -0.996401
    outer loop
      vertex 46 27.4933 36.8581
      vertex 54.2 28.7442 36.9645
      vertex 54.2 27.4933 36.8581
    endloop
  endfacet
  facet normal 1.97179e-08 0.0847705 -0.996401
    outer loop
      vertex 54.2 28.7442 36.9645
      vertex 46 27.4933 36.8581
      vertex 46 28.7442 36.9645
    endloop
  endfacet
  facet normal 0 -0.984866 -0.173319
    outer loop
      vertex 46 49.8423 21.256
      vertex 54.2 49.6457 22.3729
      vertex 46 49.6457 22.3729
    endloop
  endfacet
  facet normal 0 -0.984866 -0.173319
    outer loop
      vertex 54.2 49.6457 22.3729
      vertex 46 49.8423 21.256
      vertex 54.2 49.8423 21.256
    endloop
  endfacet
  facet normal 0 -0.835718 -0.549159
    outer loop
      vertex 46 47.5261 27.6716
      vertex 54.2 46.8866 28.6449
      vertex 46 46.8866 28.6449
    endloop
  endfacet
  facet normal 0 -0.835718 -0.549159
    outer loop
      vertex 54.2 46.8866 28.6449
      vertex 46 47.5261 27.6716
      vertex 54.2 47.5261 27.6716
    endloop
  endfacet
  facet normal 0 -0.798038 -0.602607
    outer loop
      vertex 46 46.8866 28.6449
      vertex 54.2 46.1803 29.5801
      vertex 46 46.1803 29.5801
    endloop
  endfacet
  facet normal 0 -0.798038 -0.602607
    outer loop
      vertex 54.2 46.1803 29.5801
      vertex 46 46.8866 28.6449
      vertex 54.2 46.8866 28.6449
    endloop
  endfacet
  facet normal -2.42735e-07 -0.521778 -0.853081
    outer loop
      vertex 46 40.7165 34.1979
      vertex 54.2 41.7557 33.5623
      vertex 54.2 40.7165 34.1979
    endloop
  endfacet
  facet normal -2.42735e-07 -0.521778 -0.853081
    outer loop
      vertex 54.2 41.7557 33.5623
      vertex 46 40.7165 34.1979
      vertex 46 41.7557 33.5623
    endloop
  endfacet
  facet normal 0 -0.46985 -0.882746
    outer loop
      vertex 46 39.6351 34.7735
      vertex 54.2 40.7165 34.1979
      vertex 54.2 39.6351 34.7735
    endloop
  endfacet
  facet normal -2.18577e-07 -0.469849 -0.882747
    outer loop
      vertex 54.2 40.7165 34.1979
      vertex 46 39.6351 34.7735
      vertex 46 40.7165 34.1979
    endloop
  endfacet
  facet normal 0 0.870219 -0.492665
    outer loop
      vertex 54.2 11.9035 26.664
      vertex 46 12.4739 27.6716
      vertex 54.2 12.4739 27.6716
    endloop
  endfacet
  facet normal 0 0.870219 -0.492665
    outer loop
      vertex 46 12.4739 27.6716
      vertex 54.2 11.9035 26.664
      vertex 46 11.9035 26.664
    endloop
  endfacet
  facet normal 0 0.970515 -0.241039
    outer loop
      vertex 54.2 10.3543 22.3729
      vertex 46 10.6283 23.4764
      vertex 54.2 10.6283 23.4764
    endloop
  endfacet
  facet normal 0 0.970515 -0.241039
    outer loop
      vertex 46 10.6283 23.4764
      vertex 54.2 10.3543 22.3729
      vertex 46 10.3543 22.3729
    endloop
  endfacet
  facet normal 0 0.984866 -0.173319
    outer loop
      vertex 54.2 10.1577 21.256
      vertex 46 10.3543 22.3729
      vertex 54.2 10.3543 22.3729
    endloop
  endfacet
  facet normal 0 0.984866 -0.173319
    outer loop
      vertex 46 10.3543 22.3729
      vertex 54.2 10.1577 21.256
      vertex 46 10.1577 21.256
    endloop
  endfacet
  facet normal 0 0.999391 -0.0348948
    outer loop
      vertex 54.2 10.0349 20
      vertex 46 10.0395 20.1302
      vertex 54.2 10.0395 20.1302
    endloop
  endfacet
  facet normal 0 0.999391 -0.0348948
    outer loop
      vertex 46 10.0395 20.1302
      vertex 54.2 10.0349 20
      vertex 46 10.0349 20
    endloop
  endfacet
  facet normal 0 0.46985 -0.882746
    outer loop
      vertex 46 19.2835 34.1979
      vertex 54.2 20.3649 34.7735
      vertex 54.2 19.2835 34.1979
    endloop
  endfacet
  facet normal 0 0.46985 -0.882746
    outer loop
      vertex 54.2 20.3649 34.7735
      vertex 46 19.2835 34.1979
      vertex 46 20.3649 34.7735
    endloop
  endfacet
endsolid OpenSCAD_Model
