solid OpenSCAD_Model
  facet normal 0 -1 0
    outer loop
      vertex 85.7 -1 11.59
      vertex 86.7 -1 12.59
      vertex 85.7 -1 12.59
    endloop
  endfacet
  facet normal 0 -1 -0
    outer loop
      vertex 86.7 -1 12.59
      vertex 85.7 -1 11.59
      vertex 86.7 -1 11.59
    endloop
  endfacet
  facet normal 0 -1 0
    outer loop
      vertex 75.5 -1 11.59
      vertex 76.5 -1 12.59
      vertex 75.5 -1 12.59
    endloop
  endfacet
  facet normal 0 -1 -0
    outer loop
      vertex 76.5 -1 12.59
      vertex 75.5 -1 11.59
      vertex 76.5 -1 11.59
    endloop
  endfacet
  facet normal 0 -1 0
    outer loop
      vertex 65.3 -1 11.59
      vertex 66.3 -1 12.59
      vertex 65.3 -1 12.59
    endloop
  endfacet
  facet normal 0 -1 -0
    outer loop
      vertex 66.3 -1 12.59
      vertex 65.3 -1 11.59
      vertex 66.3 -1 11.59
    endloop
  endfacet
  facet normal 0 -1 0
    outer loop
      vertex 74.0581 -1 40.4604
      vertex 75.9419 -1 40.4604
      vertex 75 -1 40.49
    endloop
  endfacet
  facet normal 0 -1 0
    outer loop
      vertex 73.12 -1 40.3717
      vertex 75.9419 -1 40.4604
      vertex 74.0581 -1 40.4604
    endloop
  endfacet
  facet normal 0 -1 0
    outer loop
      vertex 73.12 -1 40.3717
      vertex 76.88 -1 40.3717
      vertex 75.9419 -1 40.4604
    endloop
  endfacet
  facet normal 0 -1 0
    outer loop
      vertex 75.5 -1 12.59
      vertex 73.12 -1 40.3717
      vertex 72.1893 -1 40.2243
    endloop
  endfacet
  facet normal 0 -1 0
    outer loop
      vertex 73.12 -1 40.3717
      vertex 75.5 -1 12.59
      vertex 76.88 -1 40.3717
    endloop
  endfacet
  facet normal 0 -1 0
    outer loop
      vertex 75.5 -1 12.59
      vertex 72.1893 -1 40.2243
      vertex 71.2697 -1 40.0187
    endloop
  endfacet
  facet normal 0 -1 -0
    outer loop
      vertex 76.88 -1 40.3717
      vertex 75.5 -1 12.59
      vertex 77.8107 -1 40.2243
    endloop
  endfacet
  facet normal 0 -1 0
    outer loop
      vertex 75.5 -1 12.59
      vertex 71.2697 -1 40.0187
      vertex 70.3647 -1 39.7558
    endloop
  endfacet
  facet normal 0 -1 -0
    outer loop
      vertex 77.8107 -1 40.2243
      vertex 75.5 -1 12.59
      vertex 78.7303 -1 40.0187
    endloop
  endfacet
  facet normal 0 -1 0
    outer loop
      vertex 75.5 -1 12.59
      vertex 70.3647 -1 39.7558
      vertex 69.4781 -1 39.4366
    endloop
  endfacet
  facet normal 0 -1 -0
    outer loop
      vertex 78.7303 -1 40.0187
      vertex 75.5 -1 12.59
      vertex 79.6353 -1 39.7558
    endloop
  endfacet
  facet normal 0 -1 0
    outer loop
      vertex 75.5 -1 12.59
      vertex 69.4781 -1 39.4366
      vertex 68.6133 -1 39.0624
    endloop
  endfacet
  facet normal 0 -1 -0
    outer loop
      vertex 79.6353 -1 39.7558
      vertex 75.5 -1 12.59
      vertex 80.5219 -1 39.4366
    endloop
  endfacet
  facet normal 0 -1 0
    outer loop
      vertex 75.5 -1 12.59
      vertex 68.6133 -1 39.0624
      vertex 67.7737 -1 38.6346
    endloop
  endfacet
  facet normal 0 -1 -0
    outer loop
      vertex 80.5219 -1 39.4366
      vertex 75.5 -1 12.59
      vertex 81.3867 -1 39.0624
    endloop
  endfacet
  facet normal 0 -1 0
    outer loop
      vertex 75.5 -1 12.59
      vertex 67.7737 -1 38.6346
      vertex 66.9626 -1 38.1549
    endloop
  endfacet
  facet normal 0 -1 -0
    outer loop
      vertex 81.3867 -1 39.0624
      vertex 75.5 -1 12.59
      vertex 82.2263 -1 38.6346
    endloop
  endfacet
  facet normal 0 -1 0
    outer loop
      vertex 75.5 -1 12.59
      vertex 66.9626 -1 38.1549
      vertex 66.1832 -1 37.6253
    endloop
  endfacet
  facet normal 0 -1 -0
    outer loop
      vertex 82.2263 -1 38.6346
      vertex 75.5 -1 12.59
      vertex 83.0374 -1 38.1549
    endloop
  endfacet
  facet normal 0 -1 0
    outer loop
      vertex 75.5 -1 12.59
      vertex 66.1832 -1 37.6253
      vertex 65.4386 -1 37.0477
    endloop
  endfacet
  facet normal 0 -1 -0
    outer loop
      vertex 83.0374 -1 38.1549
      vertex 75.5 -1 12.59
      vertex 83.8168 -1 37.6253
    endloop
  endfacet
  facet normal 0 -1 0
    outer loop
      vertex 75.5 -1 12.59
      vertex 65.4386 -1 37.0477
      vertex 64.7318 -1 36.4245
    endloop
  endfacet
  facet normal 0 -1 -0
    outer loop
      vertex 83.8168 -1 37.6253
      vertex 75.5 -1 12.59
      vertex 84.5614 -1 37.0477
    endloop
  endfacet
  facet normal 0 -1 0
    outer loop
      vertex 75.5 -1 12.59
      vertex 64.7318 -1 36.4245
      vertex 64.0655 -1 35.7582
    endloop
  endfacet
  facet normal 0 -1 -0
    outer loop
      vertex 84.5614 -1 37.0477
      vertex 75.5 -1 12.59
      vertex 85.2682 -1 36.4245
    endloop
  endfacet
  facet normal 0 -1 0
    outer loop
      vertex 75.5 -1 12.59
      vertex 64.0655 -1 35.7582
      vertex 63.4423 -1 35.0514
    endloop
  endfacet
  facet normal 0 -1 -0
    outer loop
      vertex 85.2682 -1 36.4245
      vertex 75.5 -1 12.59
      vertex 85.9345 -1 35.7582
    endloop
  endfacet
  facet normal 0 -1 0
    outer loop
      vertex 75.5 -1 12.59
      vertex 63.4423 -1 35.0514
      vertex 62.8647 -1 34.3068
    endloop
  endfacet
  facet normal 0 -1 -0
    outer loop
      vertex 85.9345 -1 35.7582
      vertex 75.5 -1 12.59
      vertex 86.5577 -1 35.0514
    endloop
  endfacet
  facet normal 0 -1 0
    outer loop
      vertex 75.5 -1 12.59
      vertex 62.8647 -1 34.3068
      vertex 62.3351 -1 33.5274
    endloop
  endfacet
  facet normal 0 -1 -0
    outer loop
      vertex 86.5577 -1 35.0514
      vertex 75.5 -1 12.59
      vertex 87.1353 -1 34.3068
    endloop
  endfacet
  facet normal 0 -1 0
    outer loop
      vertex 75.5 -1 12.59
      vertex 62.3351 -1 33.5274
      vertex 61.8554 -1 32.7163
    endloop
  endfacet
  facet normal 0 -1 -0
    outer loop
      vertex 87.1353 -1 34.3068
      vertex 75.5 -1 12.59
      vertex 87.6649 -1 33.5274
    endloop
  endfacet
  facet normal 0 -1 0
    outer loop
      vertex 75.5 -1 12.59
      vertex 61.8554 -1 32.7163
      vertex 61.4276 -1 31.8767
    endloop
  endfacet
  facet normal 0 -1 0
    outer loop
      vertex 76.5 -1 12.59
      vertex 87.6649 -1 33.5274
      vertex 75.5 -1 12.59
    endloop
  endfacet
  facet normal 0 -1 0
    outer loop
      vertex 75.5 -1 12.59
      vertex 61.4276 -1 31.8767
      vertex 61.0534 -1 31.0119
    endloop
  endfacet
  facet normal 0 -1 -0
    outer loop
      vertex 87.6649 -1 33.5274
      vertex 76.5 -1 12.59
      vertex 88.1446 -1 32.7163
    endloop
  endfacet
  facet normal 0 -1 0
    outer loop
      vertex 75.5 -1 12.59
      vertex 61.0534 -1 31.0119
      vertex 60.7342 -1 30.1253
    endloop
  endfacet
  facet normal 0 -1 -0
    outer loop
      vertex 88.1446 -1 32.7163
      vertex 76.5 -1 12.59
      vertex 88.5724 -1 31.8767
    endloop
  endfacet
  facet normal 0 -1 0
    outer loop
      vertex 75.5 -1 12.59
      vertex 60.7342 -1 30.1253
      vertex 60.4713 -1 29.2203
    endloop
  endfacet
  facet normal 0 -1 -0
    outer loop
      vertex 88.5724 -1 31.8767
      vertex 76.5 -1 12.59
      vertex 88.9466 -1 31.0119
    endloop
  endfacet
  facet normal 0 -1 0
    outer loop
      vertex 75.5 -1 12.59
      vertex 60.4713 -1 29.2203
      vertex 60.2657 -1 28.3007
    endloop
  endfacet
  facet normal 0 -1 -0
    outer loop
      vertex 88.9466 -1 31.0119
      vertex 76.5 -1 12.59
      vertex 89.2658 -1 30.1253
    endloop
  endfacet
  facet normal 0 -1 0
    outer loop
      vertex 75.5 -1 12.59
      vertex 60.2657 -1 28.3007
      vertex 60.1183 -1 27.37
    endloop
  endfacet
  facet normal 0 -1 -0
    outer loop
      vertex 89.2658 -1 30.1253
      vertex 76.5 -1 12.59
      vertex 89.5287 -1 29.2203
    endloop
  endfacet
  facet normal 0 -1 0
    outer loop
      vertex 75.5 -1 12.59
      vertex 60.1183 -1 27.37
      vertex 60.0296 -1 26.4319
    endloop
  endfacet
  facet normal 0 -1 -0
    outer loop
      vertex 89.5287 -1 29.2203
      vertex 76.5 -1 12.59
      vertex 89.7343 -1 28.3007
    endloop
  endfacet
  facet normal 0 -1 0
    outer loop
      vertex 75.5 -1 12.59
      vertex 60.0296 -1 26.4319
      vertex 60 -1 25.49
    endloop
  endfacet
  facet normal 0 -1 -0
    outer loop
      vertex 89.7343 -1 28.3007
      vertex 76.5 -1 12.59
      vertex 89.8817 -1 27.37
    endloop
  endfacet
  facet normal 0 -1 0
    outer loop
      vertex 65.3 -1 12.59
      vertex 60 -1 25.49
      vertex 60 -1 12.59
    endloop
  endfacet
  facet normal 0 -1 0
    outer loop
      vertex 66.3 -1 12.59
      vertex 60 -1 25.49
      vertex 65.3 -1 12.59
    endloop
  endfacet
  facet normal 0 -1 0
    outer loop
      vertex 75.5 -1 12.59
      vertex 60 -1 25.49
      vertex 66.3 -1 12.59
    endloop
  endfacet
  facet normal 0 -1 -0
    outer loop
      vertex 89.8817 -1 27.37
      vertex 76.5 -1 12.59
      vertex 89.9704 -1 26.4319
    endloop
  endfacet
  facet normal 0 -1 -0
    outer loop
      vertex 89.9704 -1 26.4319
      vertex 76.5 -1 12.59
      vertex 90 -1 25.49
    endloop
  endfacet
  facet normal 0 -1 0
    outer loop
      vertex 85.7 -1 12.59
      vertex 90 -1 25.49
      vertex 76.5 -1 12.59
    endloop
  endfacet
  facet normal 0 -1 0
    outer loop
      vertex 86.7 -1 12.59
      vertex 90 -1 25.49
      vertex 85.7 -1 12.59
    endloop
  endfacet
  facet normal 0 -1 -0
    outer loop
      vertex 90 -1 25.49
      vertex 86.7 -1 12.59
      vertex 90 -1 12.59
    endloop
  endfacet
  facet normal -1 0 0
    outer loop
      vertex 65.3 -1 11.59
      vertex 65.3 11 12.59
      vertex 65.3 11 11.59
    endloop
  endfacet
  facet normal -1 -0 0
    outer loop
      vertex 65.3 11 12.59
      vertex 65.3 -1 11.59
      vertex 65.3 -1 12.59
    endloop
  endfacet
  facet normal 1 -0 0
    outer loop
      vertex 66.3 -1 12.59
      vertex 66.3 11 11.59
      vertex 66.3 11 12.59
    endloop
  endfacet
  facet normal 1 0 0
    outer loop
      vertex 66.3 11 11.59
      vertex 66.3 -1 12.59
      vertex 66.3 -1 11.59
    endloop
  endfacet
  facet normal -1 0 0
    outer loop
      vertex 75.5 -1 11.59
      vertex 75.5 11 12.59
      vertex 75.5 11 11.59
    endloop
  endfacet
  facet normal -1 -0 0
    outer loop
      vertex 75.5 11 12.59
      vertex 75.5 -1 11.59
      vertex 75.5 -1 12.59
    endloop
  endfacet
  facet normal 1 -0 0
    outer loop
      vertex 76.5 -1 12.59
      vertex 76.5 11 11.59
      vertex 76.5 11 12.59
    endloop
  endfacet
  facet normal 1 0 0
    outer loop
      vertex 76.5 11 11.59
      vertex 76.5 -1 12.59
      vertex 76.5 -1 11.59
    endloop
  endfacet
  facet normal -1 0 0
    outer loop
      vertex 85.7 -1 11.59
      vertex 85.7 11 12.59
      vertex 85.7 11 11.59
    endloop
  endfacet
  facet normal -1 -0 0
    outer loop
      vertex 85.7 11 12.59
      vertex 85.7 -1 11.59
      vertex 85.7 -1 12.59
    endloop
  endfacet
  facet normal 1 -0 0
    outer loop
      vertex 86.7 -1 12.59
      vertex 86.7 11 11.59
      vertex 86.7 11 12.59
    endloop
  endfacet
  facet normal 1 0 0
    outer loop
      vertex 86.7 11 11.59
      vertex 86.7 -1 12.59
      vertex 86.7 -1 11.59
    endloop
  endfacet
  facet normal -0.995562 0 0.0941082
    outer loop
      vertex 60.0296 -1 26.4319
      vertex 60.1183 11 27.37
      vertex 60.0296 11 26.4319
    endloop
  endfacet
  facet normal -0.995562 0 0.0941082
    outer loop
      vertex 60.1183 11 27.37
      vertex 60.0296 -1 26.4319
      vertex 60.1183 -1 27.37
    endloop
  endfacet
  facet normal 0.790158 -0 0.612904
    outer loop
      vertex 86.5577 -1 35.0514
      vertex 87.1353 11 34.3068
      vertex 86.5577 11 35.0514
    endloop
  endfacet
  facet normal 0.790158 0 0.612904
    outer loop
      vertex 87.1353 11 34.3068
      vertex 86.5577 -1 35.0514
      vertex 87.1353 -1 34.3068
    endloop
  endfacet
  facet normal -0.975917 0 0.218141
    outer loop
      vertex 60.2657 -1 28.3007
      vertex 60.4713 11 29.2203
      vertex 60.2657 11 28.3007
    endloop
  endfacet
  facet normal -0.975917 0 0.218141
    outer loop
      vertex 60.4713 11 29.2203
      vertex 60.2657 -1 28.3007
      vertex 60.4713 -1 29.2203
    endloop
  endfacet
  facet normal 0.156433 0 0.987689
    outer loop
      vertex 76.88 11 40.3717
      vertex 77.8107 -1 40.2243
      vertex 77.8107 11 40.2243
    endloop
  endfacet
  facet normal 0.156433 0 0.987689
    outer loop
      vertex 77.8107 -1 40.2243
      vertex 76.88 11 40.3717
      vertex 76.88 -1 40.3717
    endloop
  endfacet
  facet normal 0.75011 -0 0.661313
    outer loop
      vertex 85.9345 -1 35.7582
      vertex 86.5577 11 35.0514
      vertex 85.9345 11 35.7582
    endloop
  endfacet
  facet normal 0.75011 0 0.661313
    outer loop
      vertex 86.5577 11 35.0514
      vertex 85.9345 -1 35.7582
      vertex 86.5577 -1 35.0514
    endloop
  endfacet
  facet normal 0.827081 -0 0.562083
    outer loop
      vertex 87.1353 -1 34.3068
      vertex 87.6649 11 33.5274
      vertex 87.1353 11 34.3068
    endloop
  endfacet
  facet normal 0.827081 0 0.562083
    outer loop
      vertex 87.6649 11 33.5274
      vertex 87.1353 -1 34.3068
      vertex 87.6649 -1 33.5274
    endloop
  endfacet
  facet normal 0.0941082 0 0.995562
    outer loop
      vertex 75.9419 11 40.4604
      vertex 76.88 -1 40.3717
      vertex 76.88 11 40.3717
    endloop
  endfacet
  facet normal 0.0941082 0 0.995562
    outer loop
      vertex 76.88 -1 40.3717
      vertex 75.9419 11 40.4604
      vertex 75.9419 -1 40.4604
    endloop
  endfacet
  facet normal -2.54243e-08 1 1.13741e-07
    outer loop
      vertex 72.1893 11 40.2243
      vertex 60.4713 11 29.2203
      vertex 71.2697 11 40.0187
    endloop
  endfacet
  facet normal -0.33874 0 0.94088
    outer loop
      vertex 69.4781 11 39.4366
      vertex 70.3647 -1 39.7558
      vertex 70.3647 11 39.7558
    endloop
  endfacet
  facet normal -0.33874 0 0.94088
    outer loop
      vertex 70.3647 -1 39.7558
      vertex 69.4781 11 39.4366
      vertex 69.4781 -1 39.4366
    endloop
  endfacet
  facet normal 4.92352e-08 1 1.36755e-07
    outer loop
      vertex 89.5287 11 29.2203
      vertex 79.6353 11 39.7558
      vertex 80.5219 11 39.4366
    endloop
  endfacet
  facet normal 0.562081 0 0.827082
    outer loop
      vertex 83.0374 11 38.1549
      vertex 83.8168 -1 37.6253
      vertex 83.8168 11 37.6253
    endloop
  endfacet
  facet normal 0.562081 0 0.827082
    outer loop
      vertex 83.8168 -1 37.6253
      vertex 83.0374 11 38.1549
      vertex 83.0374 -1 38.1549
    endloop
  endfacet
  facet normal 1.65113e-08 1 1.04249e-07
    outer loop
      vertex 89.5287 11 29.2203
      vertex 76.88 11 40.3717
      vertex 77.8107 11 40.2243
    endloop
  endfacet
  facet normal 0 1 8.46232e-08
    outer loop
      vertex 89.5287 11 29.2203
      vertex 60.4713 11 29.2203
      vertex 75 11 40.49
    endloop
  endfacet
  facet normal -0.999507 0 0.0314099
    outer loop
      vertex 60.0296 -1 26.4319
      vertex 60 11 25.49
      vertex 60 -1 25.49
    endloop
  endfacet
  facet normal -2.43843e-07 1 2.76586e-07
    outer loop
      vertex 65.4386 11 37.0477
      vertex 60.4713 11 29.2203
      vertex 64.7318 11 36.4245
    endloop
  endfacet
  facet normal -9.05496e-09 1 9.57917e-08
    outer loop
      vertex 74.0581 11 40.4604
      vertex 60.4713 11 29.2203
      vertex 73.12 11 40.3717
    endloop
  endfacet
  facet normal 0.031414 0 0.999506
    outer loop
      vertex 75 11 40.49
      vertex 75.9419 -1 40.4604
      vertex 75.9419 11 40.4604
    endloop
  endfacet
  facet normal 0.031414 0 0.999506
    outer loop
      vertex 75.9419 -1 40.4604
      vertex 75 11 40.49
      vertex 75 -1 40.49
    endloop
  endfacet
  facet normal 3.23974e-07 1 3.23975e-07
    outer loop
      vertex 89.5287 11 29.2203
      vertex 85.2682 11 36.4245
      vertex 85.9345 11 35.7582
    endloop
  endfacet
  facet normal 1.51656e-05 1 5.45993e-06
    outer loop
      vertex 89.5287 11 29.2203
      vertex 88.9466 11 31.0119
      vertex 89.2658 11 30.1253
    endloop
  endfacet
  facet normal 0.960293 -0 0.278993
    outer loop
      vertex 89.2658 -1 30.1253
      vertex 89.5287 11 29.2203
      vertex 89.2658 11 30.1253
    endloop
  endfacet
  facet normal 0.960293 0 0.278993
    outer loop
      vertex 89.5287 11 29.2203
      vertex 89.2658 -1 30.1253
      vertex 89.5287 -1 29.2203
    endloop
  endfacet
  facet normal 0.61291 0 0.790153
    outer loop
      vertex 83.8168 11 37.6253
      vertex 84.5614 -1 37.0477
      vertex 84.5614 11 37.0477
    endloop
  endfacet
  facet normal 0.61291 0 0.790153
    outer loop
      vertex 84.5614 -1 37.0477
      vertex 83.8168 11 37.6253
      vertex 83.8168 -1 37.6253
    endloop
  endfacet
  facet normal 1.86138e-07 1 2.39965e-07
    outer loop
      vertex 89.5287 11 29.2203
      vertex 83.8168 11 37.6253
      vertex 84.5614 11 37.0477
    endloop
  endfacet
  facet normal 0.999506 -0 0.0314139
    outer loop
      vertex 89.9704 -1 26.4319
      vertex 90 11 25.49
      vertex 89.9704 11 26.4319
    endloop
  endfacet
  facet normal 0.999506 0 0.0314139
    outer loop
      vertex 90 11 25.49
      vertex 89.9704 -1 26.4319
      vertex 90 -1 25.49
    endloop
  endfacet
  facet normal -0.987688 0 0.156438
    outer loop
      vertex 60.1183 -1 27.37
      vertex 60.2657 11 28.3007
      vertex 60.1183 11 27.37
    endloop
  endfacet
  facet normal -0.987688 0 0.156438
    outer loop
      vertex 60.2657 11 28.3007
      vertex 60.1183 -1 27.37
      vertex 60.2657 -1 28.3007
    endloop
  endfacet
  facet normal -0.999507 0 0.0314099
    outer loop
      vertex 60.0296 11 26.4319
      vertex 60 11 25.49
      vertex 60.0296 -1 26.4319
    endloop
  endfacet
  facet normal -0.917754 0 0.39715
    outer loop
      vertex 61.0534 -1 31.0119
      vertex 61.4276 11 31.8767
      vertex 61.0534 11 31.0119
    endloop
  endfacet
  facet normal -0.917754 0 0.39715
    outer loop
      vertex 61.4276 11 31.8767
      vertex 61.0534 -1 31.0119
      vertex 61.4276 -1 31.8767
    endloop
  endfacet
  facet normal -1.65113e-08 1 1.04249e-07
    outer loop
      vertex 73.12 11 40.3717
      vertex 60.4713 11 29.2203
      vertex 72.1893 11 40.2243
    endloop
  endfacet
  facet normal -2.77198e-09 1 8.81968e-08
    outer loop
      vertex 75 11 40.49
      vertex 60.4713 11 29.2203
      vertex 74.0581 11 40.4604
    endloop
  endfacet
  facet normal 0.707105 0 0.707109
    outer loop
      vertex 85.2682 11 36.4245
      vertex 85.9345 -1 35.7582
      vertex 85.9345 11 35.7582
    endloop
  endfacet
  facet normal 0.707105 0 0.707109
    outer loop
      vertex 85.9345 -1 35.7582
      vertex 85.2682 11 36.4245
      vertex 85.2682 -1 36.4245
    endloop
  endfacet
  facet normal 1.39556e-06 1 8.25335e-07
    outer loop
      vertex 89.5287 11 29.2203
      vertex 87.6649 11 33.5274
      vertex 88.1446 11 32.7163
    endloop
  endfacet
  facet normal 4.39542e-07 1 3.8751e-07
    outer loop
      vertex 89.5287 11 29.2203
      vertex 85.9345 11 35.7582
      vertex 86.5577 11 35.0514
    endloop
  endfacet
  facet normal 8.96956e-07 1 6.0957e-07
    outer loop
      vertex 89.5287 11 29.2203
      vertex 87.1353 11 34.3068
      vertex 87.6649 11 33.5274
    endloop
  endfacet
  facet normal 0.940881 -0 0.338737
    outer loop
      vertex 88.9466 -1 31.0119
      vertex 89.2658 11 30.1253
      vertex 88.9466 11 31.0119
    endloop
  endfacet
  facet normal 0.940881 0 0.338737
    outer loop
      vertex 89.2658 11 30.1253
      vertex 88.9466 -1 31.0119
      vertex 89.2658 -1 30.1253
    endloop
  endfacet
  facet normal 0.917754 -0 0.39715
    outer loop
      vertex 88.5724 -1 31.8767
      vertex 88.9466 11 31.0119
      vertex 88.5724 11 31.8767
    endloop
  endfacet
  facet normal 0.917754 0 0.39715
    outer loop
      vertex 88.9466 11 31.0119
      vertex 88.5724 -1 31.8767
      vertex 88.9466 -1 31.0119
    endloop
  endfacet
  facet normal 0.891007 -0 0.453989
    outer loop
      vertex 88.1446 -1 32.7163
      vertex 88.5724 11 31.8767
      vertex 88.1446 11 32.7163
    endloop
  endfacet
  facet normal 0.891007 0 0.453989
    outer loop
      vertex 88.5724 11 31.8767
      vertex 88.1446 -1 32.7163
      vertex 88.5724 -1 31.8767
    endloop
  endfacet
  facet normal 0.975917 -0 0.218141
    outer loop
      vertex 89.5287 -1 29.2203
      vertex 89.7343 11 28.3007
      vertex 89.5287 11 29.2203
    endloop
  endfacet
  facet normal 0.975917 0 0.218141
    outer loop
      vertex 89.7343 11 28.3007
      vertex 89.5287 -1 29.2203
      vertex 89.7343 -1 28.3007
    endloop
  endfacet
  facet normal 1.4329e-07 1 2.10846e-07
    outer loop
      vertex 89.5287 11 29.2203
      vertex 83.0374 11 38.1549
      vertex 83.8168 11 37.6253
    endloop
  endfacet
  facet normal 0.397147 0 0.917755
    outer loop
      vertex 80.5219 11 39.4366
      vertex 81.3867 -1 39.0624
      vertex 81.3867 11 39.0624
    endloop
  endfacet
  facet normal 0.397147 0 0.917755
    outer loop
      vertex 81.3867 -1 39.0624
      vertex 80.5219 11 39.4366
      vertex 80.5219 -1 39.4366
    endloop
  endfacet
  facet normal 0.509043 0 0.860741
    outer loop
      vertex 82.2263 11 38.6346
      vertex 83.0374 -1 38.1549
      vertex 83.0374 11 38.1549
    endloop
  endfacet
  facet normal 0.509043 0 0.860741
    outer loop
      vertex 83.0374 -1 38.1549
      vertex 82.2263 11 38.6346
      vertex 82.2263 -1 38.6346
    endloop
  endfacet
  facet normal 9.05496e-09 1 9.57917e-08
    outer loop
      vertex 89.5287 11 29.2203
      vertex 75.9419 11 40.4604
      vertex 76.88 11 40.3717
    endloop
  endfacet
  facet normal 0.33874 0 0.94088
    outer loop
      vertex 79.6353 11 39.7558
      vertex 80.5219 -1 39.4366
      vertex 80.5219 11 39.4366
    endloop
  endfacet
  facet normal 0.33874 0 0.94088
    outer loop
      vertex 80.5219 -1 39.4366
      vertex 79.6353 11 39.7558
      vertex 79.6353 -1 39.7558
    endloop
  endfacet
  facet normal 0.278989 0 0.960294
    outer loop
      vertex 78.7303 11 40.0187
      vertex 79.6353 -1 39.7558
      vertex 79.6353 11 39.7558
    endloop
  endfacet
  facet normal 0.278989 0 0.960294
    outer loop
      vertex 79.6353 -1 39.7558
      vertex 78.7303 11 40.0187
      vertex 78.7303 -1 40.0187
    endloop
  endfacet
  facet normal 0.218145 0 0.975916
    outer loop
      vertex 77.8107 11 40.2243
      vertex 78.7303 -1 40.0187
      vertex 78.7303 11 40.0187
    endloop
  endfacet
  facet normal 0.218145 0 0.975916
    outer loop
      vertex 78.7303 -1 40.0187
      vertex 77.8107 11 40.2243
      vertex 77.8107 -1 40.2243
    endloop
  endfacet
  facet normal 0 1 -0
    outer loop
      vertex 66.3 11 11.59
      vertex 65.3 11 12.59
      vertex 66.3 11 12.59
    endloop
  endfacet
  facet normal 0 1 0
    outer loop
      vertex 65.3 11 12.59
      vertex 66.3 11 11.59
      vertex 65.3 11 11.59
    endloop
  endfacet
  facet normal 0 1 -0
    outer loop
      vertex 76.5 11 11.59
      vertex 75.5 11 12.59
      vertex 76.5 11 12.59
    endloop
  endfacet
  facet normal 0 1 0
    outer loop
      vertex 75.5 11 12.59
      vertex 76.5 11 11.59
      vertex 75.5 11 11.59
    endloop
  endfacet
  facet normal 0 1 -0
    outer loop
      vertex 86.7 11 11.59
      vertex 85.7 11 12.59
      vertex 86.7 11 12.59
    endloop
  endfacet
  facet normal 0 1 0
    outer loop
      vertex 85.7 11 12.59
      vertex 86.7 11 11.59
      vertex 85.7 11 11.59
    endloop
  endfacet
  facet normal 0 1 0
    outer loop
      vertex 76.5 11 12.59
      vertex 89.5287 11 29.2203
      vertex 89.7343 11 28.3007
    endloop
  endfacet
  facet normal 0 1 0
    outer loop
      vertex 89.5287 11 29.2203
      vertex 75.5 11 12.59
      vertex 60.4713 11 29.2203
    endloop
  endfacet
  facet normal 0 1 0
    outer loop
      vertex 76.5 11 12.59
      vertex 89.7343 11 28.3007
      vertex 89.8817 11 27.37
    endloop
  endfacet
  facet normal 0 1 0
    outer loop
      vertex 60.4713 11 29.2203
      vertex 75.5 11 12.59
      vertex 60.2657 11 28.3007
    endloop
  endfacet
  facet normal 0 1 0
    outer loop
      vertex 76.5 11 12.59
      vertex 89.8817 11 27.37
      vertex 89.9704 11 26.4319
    endloop
  endfacet
  facet normal 0 1 0
    outer loop
      vertex 60.2657 11 28.3007
      vertex 75.5 11 12.59
      vertex 60.1183 11 27.37
    endloop
  endfacet
  facet normal 0 1 0
    outer loop
      vertex 76.5 11 12.59
      vertex 89.9704 11 26.4319
      vertex 90 11 25.49
    endloop
  endfacet
  facet normal 0 1 0
    outer loop
      vertex 60.1183 11 27.37
      vertex 75.5 11 12.59
      vertex 60.0296 11 26.4319
    endloop
  endfacet
  facet normal 0 1 0
    outer loop
      vertex 86.7 11 12.59
      vertex 90 11 25.49
      vertex 90 11 12.59
    endloop
  endfacet
  facet normal 0 1 0
    outer loop
      vertex 85.7 11 12.59
      vertex 90 11 25.49
      vertex 86.7 11 12.59
    endloop
  endfacet
  facet normal 0 1 0
    outer loop
      vertex 76.5 11 12.59
      vertex 90 11 25.49
      vertex 85.7 11 12.59
    endloop
  endfacet
  facet normal 0 1 0
    outer loop
      vertex 89.5287 11 29.2203
      vertex 76.5 11 12.59
      vertex 75.5 11 12.59
    endloop
  endfacet
  facet normal 0 1 0
    outer loop
      vertex 60.0296 11 26.4319
      vertex 75.5 11 12.59
      vertex 60 11 25.49
    endloop
  endfacet
  facet normal 0 1 -0
    outer loop
      vertex 66.3 11 12.59
      vertex 60 11 25.49
      vertex 75.5 11 12.59
    endloop
  endfacet
  facet normal 0 1 -0
    outer loop
      vertex 65.3 11 12.59
      vertex 60 11 25.49
      vertex 66.3 11 12.59
    endloop
  endfacet
  facet normal 0 1 0
    outer loop
      vertex 60 11 25.49
      vertex 65.3 11 12.59
      vertex 60 11 12.59
    endloop
  endfacet
  facet normal 0.995562 -0 0.0941041
    outer loop
      vertex 89.8817 -1 27.37
      vertex 89.9704 11 26.4319
      vertex 89.8817 11 27.37
    endloop
  endfacet
  facet normal 0.995562 0 0.0941041
    outer loop
      vertex 89.9704 11 26.4319
      vertex 89.8817 -1 27.37
      vertex 89.9704 -1 26.4319
    endloop
  endfacet
  facet normal -1.39556e-06 1 8.25335e-07
    outer loop
      vertex 62.3351 11 33.5274
      vertex 60.4713 11 29.2203
      vertex 61.8554 11 32.7163
    endloop
  endfacet
  facet normal -0.750112 0 0.661311
    outer loop
      vertex 63.4423 -1 35.0514
      vertex 64.0655 11 35.7582
      vertex 63.4423 11 35.0514
    endloop
  endfacet
  facet normal -0.750112 0 0.661311
    outer loop
      vertex 64.0655 11 35.7582
      vertex 63.4423 -1 35.0514
      vertex 64.0655 -1 35.7582
    endloop
  endfacet
  facet normal -0.218145 0 0.975916
    outer loop
      vertex 71.2697 11 40.0187
      vertex 72.1893 -1 40.2243
      vertex 72.1893 11 40.2243
    endloop
  endfacet
  facet normal -0.218145 0 0.975916
    outer loop
      vertex 72.1893 -1 40.2243
      vertex 71.2697 11 40.0187
      vertex 71.2697 -1 40.0187
    endloop
  endfacet
  facet normal 6.14516e-07 1 4.76663e-07
    outer loop
      vertex 89.5287 11 29.2203
      vertex 86.5577 11 35.0514
      vertex 87.1353 11 34.3068
    endloop
  endfacet
  facet normal 2.77198e-09 1 8.81968e-08
    outer loop
      vertex 89.5287 11 29.2203
      vertex 75 11 40.49
      vertex 75.9419 11 40.4604
    endloop
  endfacet
  facet normal 3.61648e-08 1 1.24481e-07
    outer loop
      vertex 89.5287 11 29.2203
      vertex 78.7303 11 40.0187
      vertex 79.6353 11 39.7558
    endloop
  endfacet
  facet normal 2.54243e-08 1 1.13741e-07
    outer loop
      vertex 89.5287 11 29.2203
      vertex 77.8107 11 40.2243
      vertex 78.7303 11 40.0187
    endloop
  endfacet
  facet normal 1.10685e-07 1 1.87157e-07
    outer loop
      vertex 89.5287 11 29.2203
      vertex 82.2263 11 38.6346
      vertex 83.0374 11 38.1549
    endloop
  endfacet
  facet normal 0.453989 0 0.891007
    outer loop
      vertex 81.3867 11 39.0624
      vertex 82.2263 -1 38.6346
      vertex 82.2263 11 38.6346
    endloop
  endfacet
  facet normal 0.453989 0 0.891007
    outer loop
      vertex 82.2263 -1 38.6346
      vertex 81.3867 11 39.0624
      vertex 81.3867 -1 39.0624
    endloop
  endfacet
  facet normal 0.661311 0 0.750112
    outer loop
      vertex 84.5614 11 37.0477
      vertex 85.2682 -1 36.4245
      vertex 85.2682 11 36.4245
    endloop
  endfacet
  facet normal 0.661311 0 0.750112
    outer loop
      vertex 85.2682 -1 36.4245
      vertex 84.5614 11 37.0477
      vertex 84.5614 -1 37.0477
    endloop
  endfacet
  facet normal 2.43843e-07 1 2.76586e-07
    outer loop
      vertex 89.5287 11 29.2203
      vertex 84.5614 11 37.0477
      vertex 85.2682 11 36.4245
    endloop
  endfacet
  facet normal 4.93709e-06 1 2.13649e-06
    outer loop
      vertex 89.5287 11 29.2203
      vertex 88.5724 11 31.8767
      vertex 88.9466 11 31.0119
    endloop
  endfacet
  facet normal 2.40146e-06 1 1.2236e-06
    outer loop
      vertex 89.5287 11 29.2203
      vertex 88.1446 11 32.7163
      vertex 88.5724 11 31.8767
    endloop
  endfacet
  facet normal 0.987688 -0 0.156438
    outer loop
      vertex 89.7343 -1 28.3007
      vertex 89.8817 11 27.37
      vertex 89.7343 11 28.3007
    endloop
  endfacet
  facet normal 0.987688 0 0.156438
    outer loop
      vertex 89.8817 11 27.37
      vertex 89.7343 -1 28.3007
      vertex 89.8817 -1 27.37
    endloop
  endfacet
  facet normal -4.93709e-06 1 2.13649e-06
    outer loop
      vertex 61.4276 11 31.8767
      vertex 60.4713 11 29.2203
      vertex 61.0534 11 31.0119
    endloop
  endfacet
  facet normal -8.53464e-08 1 1.67503e-07
    outer loop
      vertex 68.6133 11 39.0624
      vertex 60.4713 11 29.2203
      vertex 67.7737 11 38.6346
    endloop
  endfacet
  facet normal -0.0941082 0 0.995562
    outer loop
      vertex 73.12 11 40.3717
      vertex 74.0581 -1 40.4604
      vertex 74.0581 11 40.4604
    endloop
  endfacet
  facet normal -0.0941082 0 0.995562
    outer loop
      vertex 74.0581 -1 40.4604
      vertex 73.12 11 40.3717
      vertex 73.12 -1 40.3717
    endloop
  endfacet
  facet normal 0.860741 -0 0.509043
    outer loop
      vertex 87.6649 -1 33.5274
      vertex 88.1446 11 32.7163
      vertex 87.6649 11 33.5274
    endloop
  endfacet
  facet normal 0.860741 0 0.509043
    outer loop
      vertex 88.1446 11 32.7163
      vertex 87.6649 -1 33.5274
      vertex 88.1446 -1 32.7163
    endloop
  endfacet
  facet normal 8.53464e-08 1 1.67503e-07
    outer loop
      vertex 89.5287 11 29.2203
      vertex 81.3867 11 39.0624
      vertex 82.2263 11 38.6346
    endloop
  endfacet
  facet normal 6.53127e-08 1 1.50929e-07
    outer loop
      vertex 89.5287 11 29.2203
      vertex 80.5219 11 39.4366
      vertex 81.3867 11 39.0624
    endloop
  endfacet
  facet normal -0.960293 0 0.278993
    outer loop
      vertex 60.4713 -1 29.2203
      vertex 60.7342 11 30.1253
      vertex 60.4713 11 29.2203
    endloop
  endfacet
  facet normal -0.960293 0 0.278993
    outer loop
      vertex 60.7342 11 30.1253
      vertex 60.4713 -1 29.2203
      vertex 60.7342 -1 30.1253
    endloop
  endfacet
  facet normal -0.940881 0 0.338737
    outer loop
      vertex 60.7342 -1 30.1253
      vertex 61.0534 11 31.0119
      vertex 60.7342 11 30.1253
    endloop
  endfacet
  facet normal -0.940881 0 0.338737
    outer loop
      vertex 61.0534 11 31.0119
      vertex 60.7342 -1 30.1253
      vertex 61.0534 -1 31.0119
    endloop
  endfacet
  facet normal -1.51656e-05 1 5.45993e-06
    outer loop
      vertex 61.0534 11 31.0119
      vertex 60.4713 11 29.2203
      vertex 60.7342 11 30.1253
    endloop
  endfacet
  facet normal -2.40146e-06 1 1.2236e-06
    outer loop
      vertex 61.8554 11 32.7163
      vertex 60.4713 11 29.2203
      vertex 61.4276 11 31.8767
    endloop
  endfacet
  facet normal -4.3955e-07 1 3.87514e-07
    outer loop
      vertex 64.0655 11 35.7582
      vertex 60.4713 11 29.2203
      vertex 63.4423 11 35.0514
    endloop
  endfacet
  facet normal -0.860741 0 0.509043
    outer loop
      vertex 61.8554 -1 32.7163
      vertex 62.3351 11 33.5274
      vertex 61.8554 11 32.7163
    endloop
  endfacet
  facet normal -0.860741 0 0.509043
    outer loop
      vertex 62.3351 11 33.5274
      vertex 61.8554 -1 32.7163
      vertex 62.3351 -1 33.5274
    endloop
  endfacet
  facet normal -0.891007 0 0.453989
    outer loop
      vertex 61.4276 -1 31.8767
      vertex 61.8554 11 32.7163
      vertex 61.4276 11 31.8767
    endloop
  endfacet
  facet normal -0.891007 0 0.453989
    outer loop
      vertex 61.8554 11 32.7163
      vertex 61.4276 -1 31.8767
      vertex 61.8554 -1 32.7163
    endloop
  endfacet
  facet normal -1.4329e-07 1 2.10846e-07
    outer loop
      vertex 66.9626 11 38.1549
      vertex 60.4713 11 29.2203
      vertex 66.1832 11 37.6253
    endloop
  endfacet
  facet normal -4.92352e-08 1 1.36755e-07
    outer loop
      vertex 70.3647 11 39.7558
      vertex 60.4713 11 29.2203
      vertex 69.4781 11 39.4366
    endloop
  endfacet
  facet normal -0.661311 0 0.750112
    outer loop
      vertex 64.7318 11 36.4245
      vertex 65.4386 -1 37.0477
      vertex 65.4386 11 37.0477
    endloop
  endfacet
  facet normal -0.661311 0 0.750112
    outer loop
      vertex 65.4386 -1 37.0477
      vertex 64.7318 11 36.4245
      vertex 64.7318 -1 36.4245
    endloop
  endfacet
  facet normal -0.156433 0 0.987689
    outer loop
      vertex 72.1893 11 40.2243
      vertex 73.12 -1 40.3717
      vertex 73.12 11 40.3717
    endloop
  endfacet
  facet normal -0.156433 0 0.987689
    outer loop
      vertex 73.12 -1 40.3717
      vertex 72.1893 11 40.2243
      vertex 72.1893 -1 40.2243
    endloop
  endfacet
  facet normal -0.031414 0 0.999506
    outer loop
      vertex 74.0581 11 40.4604
      vertex 75 -1 40.49
      vertex 75 11 40.49
    endloop
  endfacet
  facet normal -0.031414 0 0.999506
    outer loop
      vertex 75 -1 40.49
      vertex 74.0581 11 40.4604
      vertex 74.0581 -1 40.4604
    endloop
  endfacet
  facet normal -0.790156 0 0.612906
    outer loop
      vertex 62.8647 -1 34.3068
      vertex 63.4423 11 35.0514
      vertex 62.8647 11 34.3068
    endloop
  endfacet
  facet normal -0.790156 0 0.612906
    outer loop
      vertex 63.4423 11 35.0514
      vertex 62.8647 -1 34.3068
      vertex 63.4423 -1 35.0514
    endloop
  endfacet
  facet normal -6.14506e-07 1 4.76659e-07
    outer loop
      vertex 63.4423 11 35.0514
      vertex 60.4713 11 29.2203
      vertex 62.8647 11 34.3068
    endloop
  endfacet
  facet normal -0.707105 0 0.707109
    outer loop
      vertex 64.0655 11 35.7582
      vertex 64.7318 -1 36.4245
      vertex 64.7318 11 36.4245
    endloop
  endfacet
  facet normal -0.707105 0 0.707109
    outer loop
      vertex 64.7318 -1 36.4245
      vertex 64.0655 11 35.7582
      vertex 64.0655 -1 35.7582
    endloop
  endfacet
  facet normal -3.23974e-07 1 3.23975e-07
    outer loop
      vertex 64.7318 11 36.4245
      vertex 60.4713 11 29.2203
      vertex 64.0655 11 35.7582
    endloop
  endfacet
  facet normal -0.61291 0 0.790153
    outer loop
      vertex 65.4386 11 37.0477
      vertex 66.1832 -1 37.6253
      vertex 66.1832 11 37.6253
    endloop
  endfacet
  facet normal -0.61291 0 0.790153
    outer loop
      vertex 66.1832 -1 37.6253
      vertex 65.4386 11 37.0477
      vertex 65.4386 -1 37.0477
    endloop
  endfacet
  facet normal -1.86138e-07 1 2.39965e-07
    outer loop
      vertex 66.1832 11 37.6253
      vertex 60.4713 11 29.2203
      vertex 65.4386 11 37.0477
    endloop
  endfacet
  facet normal -1.10685e-07 1 1.87157e-07
    outer loop
      vertex 67.7737 11 38.6346
      vertex 60.4713 11 29.2203
      vertex 66.9626 11 38.1549
    endloop
  endfacet
  facet normal -0.453989 0 0.891007
    outer loop
      vertex 67.7737 11 38.6346
      vertex 68.6133 -1 39.0624
      vertex 68.6133 11 39.0624
    endloop
  endfacet
  facet normal -0.453989 0 0.891007
    outer loop
      vertex 68.6133 -1 39.0624
      vertex 67.7737 11 38.6346
      vertex 67.7737 -1 38.6346
    endloop
  endfacet
  facet normal -0.397147 0 0.917755
    outer loop
      vertex 68.6133 11 39.0624
      vertex 69.4781 -1 39.4366
      vertex 69.4781 11 39.4366
    endloop
  endfacet
  facet normal -0.397147 0 0.917755
    outer loop
      vertex 69.4781 -1 39.4366
      vertex 68.6133 11 39.0624
      vertex 68.6133 -1 39.0624
    endloop
  endfacet
  facet normal -6.53127e-08 1 1.50929e-07
    outer loop
      vertex 69.4781 11 39.4366
      vertex 60.4713 11 29.2203
      vertex 68.6133 11 39.0624
    endloop
  endfacet
  facet normal -0.278989 0 0.960294
    outer loop
      vertex 70.3647 11 39.7558
      vertex 71.2697 -1 40.0187
      vertex 71.2697 11 40.0187
    endloop
  endfacet
  facet normal -0.278989 0 0.960294
    outer loop
      vertex 71.2697 -1 40.0187
      vertex 70.3647 11 39.7558
      vertex 70.3647 -1 39.7558
    endloop
  endfacet
  facet normal -3.61648e-08 1 1.24481e-07
    outer loop
      vertex 71.2697 11 40.0187
      vertex 60.4713 11 29.2203
      vertex 70.3647 11 39.7558
    endloop
  endfacet
  facet normal -0.827081 0 0.562083
    outer loop
      vertex 62.3351 -1 33.5274
      vertex 62.8647 11 34.3068
      vertex 62.3351 11 33.5274
    endloop
  endfacet
  facet normal -0.827081 0 0.562083
    outer loop
      vertex 62.8647 11 34.3068
      vertex 62.3351 -1 33.5274
      vertex 62.8647 -1 34.3068
    endloop
  endfacet
  facet normal -8.96956e-07 1 6.0957e-07
    outer loop
      vertex 62.8647 11 34.3068
      vertex 60.4713 11 29.2203
      vertex 62.3351 11 33.5274
    endloop
  endfacet
  facet normal -0.509043 0 0.860741
    outer loop
      vertex 66.9626 11 38.1549
      vertex 67.7737 -1 38.6346
      vertex 67.7737 11 38.6346
    endloop
  endfacet
  facet normal -0.509043 0 0.860741
    outer loop
      vertex 67.7737 -1 38.6346
      vertex 66.9626 11 38.1549
      vertex 66.9626 -1 38.1549
    endloop
  endfacet
  facet normal -0.562081 0 0.827082
    outer loop
      vertex 66.1832 11 37.6253
      vertex 66.9626 -1 38.1549
      vertex 66.9626 11 38.1549
    endloop
  endfacet
  facet normal -0.562081 0 0.827082
    outer loop
      vertex 66.9626 -1 38.1549
      vertex 66.1832 11 37.6253
      vertex 66.1832 -1 37.6253
    endloop
  endfacet
  facet normal -1 0 0
    outer loop
      vertex 60 -1 12.59
      vertex 60 11 25.49
      vertex 60 11 12.59
    endloop
  endfacet
  facet normal -1 -0 0
    outer loop
      vertex 60 11 25.49
      vertex 60 -1 12.59
      vertex 60 -1 25.49
    endloop
  endfacet
  facet normal 1 -0 0
    outer loop
      vertex 90 -1 25.49
      vertex 90 11 12.59
      vertex 90 11 25.49
    endloop
  endfacet
  facet normal 1 0 0
    outer loop
      vertex 90 11 12.59
      vertex 90 -1 25.49
      vertex 90 -1 12.59
    endloop
  endfacet
  facet normal 0 0 -1
    outer loop
      vertex 60 -1 12.59
      vertex 65.3 11 12.59
      vertex 65.3 -1 12.59
    endloop
  endfacet
  facet normal -0 0 -1
    outer loop
      vertex 65.3 11 12.59
      vertex 60 -1 12.59
      vertex 60 11 12.59
    endloop
  endfacet
  facet normal 0 0 -1
    outer loop
      vertex 86.7 -1 12.59
      vertex 90 11 12.59
      vertex 90 -1 12.59
    endloop
  endfacet
  facet normal -0 0 -1
    outer loop
      vertex 90 11 12.59
      vertex 86.7 -1 12.59
      vertex 86.7 11 12.59
    endloop
  endfacet
  facet normal 0 0 -1
    outer loop
      vertex 66.3 -1 12.59
      vertex 75.5 11 12.59
      vertex 75.5 -1 12.59
    endloop
  endfacet
  facet normal -0 0 -1
    outer loop
      vertex 75.5 11 12.59
      vertex 66.3 -1 12.59
      vertex 66.3 11 12.59
    endloop
  endfacet
  facet normal 0 0 -1
    outer loop
      vertex 76.5 -1 12.59
      vertex 85.7 11 12.59
      vertex 85.7 -1 12.59
    endloop
  endfacet
  facet normal -0 0 -1
    outer loop
      vertex 85.7 11 12.59
      vertex 76.5 -1 12.59
      vertex 76.5 11 12.59
    endloop
  endfacet
  facet normal 0 0 -1
    outer loop
      vertex 65.3 -1 11.59
      vertex 66.3 11 11.59
      vertex 66.3 -1 11.59
    endloop
  endfacet
  facet normal -0 0 -1
    outer loop
      vertex 66.3 11 11.59
      vertex 65.3 -1 11.59
      vertex 65.3 11 11.59
    endloop
  endfacet
  facet normal 0 0 -1
    outer loop
      vertex 75.5 -1 11.59
      vertex 76.5 11 11.59
      vertex 76.5 -1 11.59
    endloop
  endfacet
  facet normal -0 0 -1
    outer loop
      vertex 76.5 11 11.59
      vertex 75.5 -1 11.59
      vertex 75.5 11 11.59
    endloop
  endfacet
  facet normal 0 0 -1
    outer loop
      vertex 85.7 -1 11.59
      vertex 86.7 11 11.59
      vertex 86.7 -1 11.59
    endloop
  endfacet
  facet normal -0 0 -1
    outer loop
      vertex 86.7 11 11.59
      vertex 85.7 -1 11.59
      vertex 85.7 11 11.59
    endloop
  endfacet
endsolid OpenSCAD_Model
