solid OpenSCAD_Model
  facet normal 0 -1 0
    outer loop
      vertex 95.9 -1 11.59
      vertex 96.9 -1 12.59
      vertex 95.9 -1 12.59
    endloop
  endfacet
  facet normal 0 -1 -0
    outer loop
      vertex 96.9 -1 12.59
      vertex 95.9 -1 11.59
      vertex 96.9 -1 11.59
    endloop
  endfacet
  facet normal 0 -1 0
    outer loop
      vertex 85.7 -1 11.59
      vertex 86.7 -1 12.59
      vertex 85.7 -1 12.59
    endloop
  endfacet
  facet normal 0 -1 -0
    outer loop
      vertex 86.7 -1 12.59
      vertex 85.7 -1 11.59
      vertex 86.7 -1 11.59
    endloop
  endfacet
  facet normal 0 -1 0
    outer loop
      vertex 92.8081 -1 40.4604
      vertex 94.6919 -1 40.4604
      vertex 93.75 -1 40.49
    endloop
  endfacet
  facet normal 0 -1 0
    outer loop
      vertex 91.87 -1 40.3717
      vertex 94.6919 -1 40.4604
      vertex 92.8081 -1 40.4604
    endloop
  endfacet
  facet normal 0 -1 0
    outer loop
      vertex 91.87 -1 40.3717
      vertex 95.63 -1 40.3717
      vertex 94.6919 -1 40.4604
    endloop
  endfacet
  facet normal 0 -1 0
    outer loop
      vertex 95.9 -1 12.59
      vertex 91.87 -1 40.3717
      vertex 90.9393 -1 40.2243
    endloop
  endfacet
  facet normal 0 -1 0
    outer loop
      vertex 91.87 -1 40.3717
      vertex 95.9 -1 12.59
      vertex 95.63 -1 40.3717
    endloop
  endfacet
  facet normal 0 -1 0
    outer loop
      vertex 95.9 -1 12.59
      vertex 90.9393 -1 40.2243
      vertex 90.0197 -1 40.0187
    endloop
  endfacet
  facet normal 0 -1 0
    outer loop
      vertex 95.63 -1 40.3717
      vertex 95.9 -1 12.59
      vertex 96.5607 -1 40.2243
    endloop
  endfacet
  facet normal 0 -1 0
    outer loop
      vertex 95.9 -1 12.59
      vertex 90.0197 -1 40.0187
      vertex 89.1147 -1 39.7558
    endloop
  endfacet
  facet normal 0 -1 -0
    outer loop
      vertex 96.5607 -1 40.2243
      vertex 95.9 -1 12.59
      vertex 97.4803 -1 40.0187
    endloop
  endfacet
  facet normal 0 -1 0
    outer loop
      vertex 95.9 -1 12.59
      vertex 89.1147 -1 39.7558
      vertex 88.2281 -1 39.4366
    endloop
  endfacet
  facet normal 0 -1 -0
    outer loop
      vertex 97.4803 -1 40.0187
      vertex 95.9 -1 12.59
      vertex 98.3853 -1 39.7558
    endloop
  endfacet
  facet normal 0 -1 0
    outer loop
      vertex 95.9 -1 12.59
      vertex 88.2281 -1 39.4366
      vertex 87.3633 -1 39.0624
    endloop
  endfacet
  facet normal 0 -1 -0
    outer loop
      vertex 98.3853 -1 39.7558
      vertex 95.9 -1 12.59
      vertex 99.2719 -1 39.4366
    endloop
  endfacet
  facet normal 0 -1 0
    outer loop
      vertex 95.9 -1 12.59
      vertex 87.3633 -1 39.0624
      vertex 86.5237 -1 38.6346
    endloop
  endfacet
  facet normal 0 -1 -0
    outer loop
      vertex 99.2719 -1 39.4366
      vertex 95.9 -1 12.59
      vertex 100.137 -1 39.0624
    endloop
  endfacet
  facet normal 0 -1 0
    outer loop
      vertex 95.9 -1 12.59
      vertex 86.5237 -1 38.6346
      vertex 85.7126 -1 38.1549
    endloop
  endfacet
  facet normal 0 -1 -0
    outer loop
      vertex 100.137 -1 39.0624
      vertex 95.9 -1 12.59
      vertex 100.976 -1 38.6346
    endloop
  endfacet
  facet normal 0 -1 0
    outer loop
      vertex 95.9 -1 12.59
      vertex 85.7126 -1 38.1549
      vertex 84.9332 -1 37.6253
    endloop
  endfacet
  facet normal 0 -1 -0
    outer loop
      vertex 100.976 -1 38.6346
      vertex 95.9 -1 12.59
      vertex 101.787 -1 38.1549
    endloop
  endfacet
  facet normal 0 -1 0
    outer loop
      vertex 95.9 -1 12.59
      vertex 84.9332 -1 37.6253
      vertex 84.1886 -1 37.0477
    endloop
  endfacet
  facet normal 0 -1 -0
    outer loop
      vertex 101.787 -1 38.1549
      vertex 95.9 -1 12.59
      vertex 102.567 -1 37.6253
    endloop
  endfacet
  facet normal 0 -1 0
    outer loop
      vertex 95.9 -1 12.59
      vertex 84.1886 -1 37.0477
      vertex 83.4818 -1 36.4245
    endloop
  endfacet
  facet normal 0 -1 -0
    outer loop
      vertex 102.567 -1 37.6253
      vertex 95.9 -1 12.59
      vertex 103.311 -1 37.0477
    endloop
  endfacet
  facet normal 0 -1 0
    outer loop
      vertex 95.9 -1 12.59
      vertex 83.4818 -1 36.4245
      vertex 82.8155 -1 35.7582
    endloop
  endfacet
  facet normal 0 -1 -0
    outer loop
      vertex 103.311 -1 37.0477
      vertex 95.9 -1 12.59
      vertex 104.018 -1 36.4245
    endloop
  endfacet
  facet normal 0 -1 0
    outer loop
      vertex 95.9 -1 12.59
      vertex 82.8155 -1 35.7582
      vertex 82.1923 -1 35.0514
    endloop
  endfacet
  facet normal 0 -1 -0
    outer loop
      vertex 104.018 -1 36.4245
      vertex 95.9 -1 12.59
      vertex 104.685 -1 35.7582
    endloop
  endfacet
  facet normal 0 -1 0
    outer loop
      vertex 95.9 -1 12.59
      vertex 82.1923 -1 35.0514
      vertex 81.6147 -1 34.3068
    endloop
  endfacet
  facet normal 0 -1 -0
    outer loop
      vertex 104.685 -1 35.7582
      vertex 95.9 -1 12.59
      vertex 105.308 -1 35.0514
    endloop
  endfacet
  facet normal 0 -1 0
    outer loop
      vertex 95.9 -1 12.59
      vertex 81.6147 -1 34.3068
      vertex 81.0851 -1 33.5274
    endloop
  endfacet
  facet normal 0 -1 -0
    outer loop
      vertex 105.308 -1 35.0514
      vertex 95.9 -1 12.59
      vertex 105.885 -1 34.3068
    endloop
  endfacet
  facet normal 0 -1 0
    outer loop
      vertex 95.9 -1 12.59
      vertex 81.0851 -1 33.5274
      vertex 80.6054 -1 32.7163
    endloop
  endfacet
  facet normal 0 -1 -0
    outer loop
      vertex 105.885 -1 34.3068
      vertex 95.9 -1 12.59
      vertex 106.415 -1 33.5274
    endloop
  endfacet
  facet normal 0 -1 0
    outer loop
      vertex 95.9 -1 12.59
      vertex 80.6054 -1 32.7163
      vertex 80.1776 -1 31.8767
    endloop
  endfacet
  facet normal 0 -1 -0
    outer loop
      vertex 106.415 -1 33.5274
      vertex 95.9 -1 12.59
      vertex 106.895 -1 32.7163
    endloop
  endfacet
  facet normal 0 -1 0
    outer loop
      vertex 95.9 -1 12.59
      vertex 80.1776 -1 31.8767
      vertex 79.8034 -1 31.0119
    endloop
  endfacet
  facet normal 0 -1 -0
    outer loop
      vertex 106.895 -1 32.7163
      vertex 95.9 -1 12.59
      vertex 107.322 -1 31.8767
    endloop
  endfacet
  facet normal 0 -1 0
    outer loop
      vertex 95.9 -1 12.59
      vertex 79.8034 -1 31.0119
      vertex 79.4842 -1 30.1253
    endloop
  endfacet
  facet normal 0 -1 -0
    outer loop
      vertex 107.322 -1 31.8767
      vertex 95.9 -1 12.59
      vertex 107.697 -1 31.0119
    endloop
  endfacet
  facet normal 0 -1 0
    outer loop
      vertex 95.9 -1 12.59
      vertex 79.4842 -1 30.1253
      vertex 79.2213 -1 29.2203
    endloop
  endfacet
  facet normal 0 -1 -0
    outer loop
      vertex 107.697 -1 31.0119
      vertex 95.9 -1 12.59
      vertex 108.016 -1 30.1253
    endloop
  endfacet
  facet normal 0 -1 0
    outer loop
      vertex 95.9 -1 12.59
      vertex 79.2213 -1 29.2203
      vertex 79.0157 -1 28.3007
    endloop
  endfacet
  facet normal 0 -1 -0
    outer loop
      vertex 108.016 -1 30.1253
      vertex 95.9 -1 12.59
      vertex 108.279 -1 29.2203
    endloop
  endfacet
  facet normal 0 -1 0
    outer loop
      vertex 95.9 -1 12.59
      vertex 79.0157 -1 28.3007
      vertex 78.8683 -1 27.37
    endloop
  endfacet
  facet normal 0 -1 -0
    outer loop
      vertex 108.279 -1 29.2203
      vertex 95.9 -1 12.59
      vertex 108.484 -1 28.3007
    endloop
  endfacet
  facet normal 0 -1 0
    outer loop
      vertex 95.9 -1 12.59
      vertex 78.8683 -1 27.37
      vertex 78.7796 -1 26.4319
    endloop
  endfacet
  facet normal 0 -1 -0
    outer loop
      vertex 108.484 -1 28.3007
      vertex 95.9 -1 12.59
      vertex 108.632 -1 27.37
    endloop
  endfacet
  facet normal 0 -1 0
    outer loop
      vertex 95.9 -1 12.59
      vertex 78.7796 -1 26.4319
      vertex 78.75 -1 25.49
    endloop
  endfacet
  facet normal 0 -1 -0
    outer loop
      vertex 108.632 -1 27.37
      vertex 95.9 -1 12.59
      vertex 108.72 -1 26.4319
    endloop
  endfacet
  facet normal 0 -1 0
    outer loop
      vertex 85.7 -1 12.59
      vertex 78.75 -1 25.49
      vertex 78.75 -1 12.59
    endloop
  endfacet
  facet normal 0 -1 0
    outer loop
      vertex 86.7 -1 12.59
      vertex 78.75 -1 25.49
      vertex 85.7 -1 12.59
    endloop
  endfacet
  facet normal 0 -1 0
    outer loop
      vertex 95.9 -1 12.59
      vertex 78.75 -1 25.49
      vertex 86.7 -1 12.59
    endloop
  endfacet
  facet normal 0 -1 -0
    outer loop
      vertex 108.72 -1 26.4319
      vertex 95.9 -1 12.59
      vertex 108.75 -1 25.49
    endloop
  endfacet
  facet normal 0 -1 0
    outer loop
      vertex 96.9 -1 12.59
      vertex 108.75 -1 25.49
      vertex 95.9 -1 12.59
    endloop
  endfacet
  facet normal 0 -1 -0
    outer loop
      vertex 108.75 -1 25.49
      vertex 96.9 -1 12.59
      vertex 108.75 -1 12.59
    endloop
  endfacet
  facet normal -1 0 0
    outer loop
      vertex 85.7 -1 11.59
      vertex 85.7 11 12.59
      vertex 85.7 11 11.59
    endloop
  endfacet
  facet normal -1 -0 0
    outer loop
      vertex 85.7 11 12.59
      vertex 85.7 -1 11.59
      vertex 85.7 -1 12.59
    endloop
  endfacet
  facet normal 1 -0 0
    outer loop
      vertex 86.7 -1 12.59
      vertex 86.7 11 11.59
      vertex 86.7 11 12.59
    endloop
  endfacet
  facet normal 1 0 0
    outer loop
      vertex 86.7 11 11.59
      vertex 86.7 -1 12.59
      vertex 86.7 -1 11.59
    endloop
  endfacet
  facet normal -1 0 0
    outer loop
      vertex 95.9 -1 11.59
      vertex 95.9 11 12.59
      vertex 95.9 11 11.59
    endloop
  endfacet
  facet normal -1 -0 0
    outer loop
      vertex 95.9 11 12.59
      vertex 95.9 -1 11.59
      vertex 95.9 -1 12.59
    endloop
  endfacet
  facet normal 1 -0 0
    outer loop
      vertex 96.9 -1 12.59
      vertex 96.9 11 11.59
      vertex 96.9 11 12.59
    endloop
  endfacet
  facet normal 1 0 0
    outer loop
      vertex 96.9 11 11.59
      vertex 96.9 -1 12.59
      vertex 96.9 -1 11.59
    endloop
  endfacet
  facet normal -0.999506 0 0.0314139
    outer loop
      vertex 78.7796 -1 26.4319
      vertex 78.75 11 25.49
      vertex 78.75 -1 25.49
    endloop
  endfacet
  facet normal 0.0941082 0 0.995562
    outer loop
      vertex 94.6919 11 40.4604
      vertex 95.63 -1 40.3717
      vertex 95.63 11 40.3717
    endloop
  endfacet
  facet normal 0.0941082 0 0.995562
    outer loop
      vertex 95.63 -1 40.3717
      vertex 94.6919 11 40.4604
      vertex 94.6919 -1 40.4604
    endloop
  endfacet
  facet normal 0 1 8.46232e-08
    outer loop
      vertex 108.279 11 29.2203
      vertex 79.2213 11 29.2203
      vertex 93.75 11 40.49
    endloop
  endfacet
  facet normal -2.77198e-09 1 8.81968e-08
    outer loop
      vertex 93.75 11 40.49
      vertex 79.2213 11 29.2203
      vertex 92.8081 11 40.4604
    endloop
  endfacet
  facet normal -0.999506 0 0.0314139
    outer loop
      vertex 78.7796 11 26.4319
      vertex 78.75 11 25.49
      vertex 78.7796 -1 26.4319
    endloop
  endfacet
  facet normal -0.156433 0 0.987689
    outer loop
      vertex 90.9393 11 40.2243
      vertex 91.87 -1 40.3717
      vertex 91.87 11 40.3717
    endloop
  endfacet
  facet normal -0.156433 0 0.987689
    outer loop
      vertex 91.87 -1 40.3717
      vertex 90.9393 11 40.2243
      vertex 90.9393 -1 40.2243
    endloop
  endfacet
  facet normal -0.509043 0 0.860741
    outer loop
      vertex 85.7126 11 38.1549
      vertex 86.5237 -1 38.6346
      vertex 86.5237 11 38.6346
    endloop
  endfacet
  facet normal -0.509043 0 0.860741
    outer loop
      vertex 86.5237 -1 38.6346
      vertex 85.7126 11 38.1549
      vertex 85.7126 -1 38.1549
    endloop
  endfacet
  facet normal -0.0941082 0 0.995562
    outer loop
      vertex 91.87 11 40.3717
      vertex 92.8081 -1 40.4604
      vertex 92.8081 11 40.4604
    endloop
  endfacet
  facet normal -0.0941082 0 0.995562
    outer loop
      vertex 92.8081 -1 40.4604
      vertex 91.87 11 40.3717
      vertex 91.87 -1 40.3717
    endloop
  endfacet
  facet normal -1.65113e-08 1 1.04249e-07
    outer loop
      vertex 91.87 11 40.3717
      vertex 79.2213 11 29.2203
      vertex 90.9393 11 40.2243
    endloop
  endfacet
  facet normal -0.860741 0 0.509043
    outer loop
      vertex 80.6054 -1 32.7163
      vertex 81.0851 11 33.5274
      vertex 80.6054 11 32.7163
    endloop
  endfacet
  facet normal -0.860741 0 0.509043
    outer loop
      vertex 81.0851 11 33.5274
      vertex 80.6054 -1 32.7163
      vertex 81.0851 -1 33.5274
    endloop
  endfacet
  facet normal 0.397147 0 0.917755
    outer loop
      vertex 99.2719 11 39.4366
      vertex 100.137 -1 39.0624
      vertex 100.137 11 39.0624
    endloop
  endfacet
  facet normal 0.397147 0 0.917755
    outer loop
      vertex 100.137 -1 39.0624
      vertex 99.2719 11 39.4366
      vertex 99.2719 -1 39.4366
    endloop
  endfacet
  facet normal 0.031414 0 0.999506
    outer loop
      vertex 93.75 11 40.49
      vertex 94.6919 -1 40.4604
      vertex 94.6919 11 40.4604
    endloop
  endfacet
  facet normal 0.031414 0 0.999506
    outer loop
      vertex 94.6919 -1 40.4604
      vertex 93.75 11 40.49
      vertex 93.75 -1 40.49
    endloop
  endfacet
  facet normal 0.995562 -0 0.0941041
    outer loop
      vertex 108.632 -1 27.37
      vertex 108.72 11 26.4319
      vertex 108.632 11 27.37
    endloop
  endfacet
  facet normal 0.995562 0 0.0941041
    outer loop
      vertex 108.72 11 26.4319
      vertex 108.632 -1 27.37
      vertex 108.72 -1 26.4319
    endloop
  endfacet
  facet normal 0.975917 -0 0.218141
    outer loop
      vertex 108.279 -1 29.2203
      vertex 108.484 11 28.3007
      vertex 108.279 11 29.2203
    endloop
  endfacet
  facet normal 0.975917 0 0.218141
    outer loop
      vertex 108.484 11 28.3007
      vertex 108.279 -1 29.2203
      vertex 108.484 -1 28.3007
    endloop
  endfacet
  facet normal 0.987688 -0 0.156438
    outer loop
      vertex 108.484 -1 28.3007
      vertex 108.632 11 27.37
      vertex 108.484 11 28.3007
    endloop
  endfacet
  facet normal 0.987688 0 0.156438
    outer loop
      vertex 108.632 11 27.37
      vertex 108.484 -1 28.3007
      vertex 108.632 -1 27.37
    endloop
  endfacet
  facet normal 1.4329e-07 1 2.10846e-07
    outer loop
      vertex 108.279 11 29.2203
      vertex 101.787 11 38.1549
      vertex 102.567 11 37.6253
    endloop
  endfacet
  facet normal 0.827081 -0 0.562083
    outer loop
      vertex 105.885 -1 34.3068
      vertex 106.415 11 33.5274
      vertex 105.885 11 34.3068
    endloop
  endfacet
  facet normal 0.827081 0 0.562083
    outer loop
      vertex 106.415 11 33.5274
      vertex 105.885 -1 34.3068
      vertex 106.415 -1 33.5274
    endloop
  endfacet
  facet normal 0.891007 -0 0.453989
    outer loop
      vertex 106.895 -1 32.7163
      vertex 107.322 11 31.8767
      vertex 106.895 11 32.7163
    endloop
  endfacet
  facet normal 0.891007 0 0.453989
    outer loop
      vertex 107.322 11 31.8767
      vertex 106.895 -1 32.7163
      vertex 107.322 -1 31.8767
    endloop
  endfacet
  facet normal 8.96956e-07 1 6.0957e-07
    outer loop
      vertex 108.279 11 29.2203
      vertex 105.885 11 34.3068
      vertex 106.415 11 33.5274
    endloop
  endfacet
  facet normal 6.14516e-07 1 4.76663e-07
    outer loop
      vertex 108.279 11 29.2203
      vertex 105.308 11 35.0514
      vertex 105.885 11 34.3068
    endloop
  endfacet
  facet normal -0.995562 0 0.0941041
    outer loop
      vertex 78.7796 -1 26.4319
      vertex 78.8683 11 27.37
      vertex 78.7796 11 26.4319
    endloop
  endfacet
  facet normal -0.995562 0 0.0941041
    outer loop
      vertex 78.8683 11 27.37
      vertex 78.7796 -1 26.4319
      vertex 78.8683 -1 27.37
    endloop
  endfacet
  facet normal -0.987688 0 0.156438
    outer loop
      vertex 78.8683 -1 27.37
      vertex 79.0157 11 28.3007
      vertex 78.8683 11 27.37
    endloop
  endfacet
  facet normal -0.987688 0 0.156438
    outer loop
      vertex 79.0157 11 28.3007
      vertex 78.8683 -1 27.37
      vertex 79.0157 -1 28.3007
    endloop
  endfacet
  facet normal -0.975917 0 0.218141
    outer loop
      vertex 79.0157 -1 28.3007
      vertex 79.2213 11 29.2203
      vertex 79.0157 11 28.3007
    endloop
  endfacet
  facet normal -0.975917 0 0.218141
    outer loop
      vertex 79.2213 11 29.2203
      vertex 79.0157 -1 28.3007
      vertex 79.2213 -1 29.2203
    endloop
  endfacet
  facet normal -9.05496e-09 1 9.57917e-08
    outer loop
      vertex 92.8081 11 40.4604
      vertex 79.2213 11 29.2203
      vertex 91.87 11 40.3717
    endloop
  endfacet
  facet normal -2.54243e-08 1 1.13741e-07
    outer loop
      vertex 90.9393 11 40.2243
      vertex 79.2213 11 29.2203
      vertex 90.0197 11 40.0187
    endloop
  endfacet
  facet normal -0.33874 0 0.94088
    outer loop
      vertex 88.2281 11 39.4366
      vertex 89.1147 -1 39.7558
      vertex 89.1147 11 39.7558
    endloop
  endfacet
  facet normal -0.33874 0 0.94088
    outer loop
      vertex 89.1147 -1 39.7558
      vertex 88.2281 11 39.4366
      vertex 88.2281 -1 39.4366
    endloop
  endfacet
  facet normal -0.218145 0 0.975916
    outer loop
      vertex 90.0197 11 40.0187
      vertex 90.9393 -1 40.2243
      vertex 90.9393 11 40.2243
    endloop
  endfacet
  facet normal -0.218145 0 0.975916
    outer loop
      vertex 90.9393 -1 40.2243
      vertex 90.0197 11 40.0187
      vertex 90.0197 -1 40.0187
    endloop
  endfacet
  facet normal -2.40146e-06 1 1.2236e-06
    outer loop
      vertex 80.6054 11 32.7163
      vertex 79.2213 11 29.2203
      vertex 80.1776 11 31.8767
    endloop
  endfacet
  facet normal -1.10685e-07 1 1.87157e-07
    outer loop
      vertex 86.5237 11 38.6346
      vertex 79.2213 11 29.2203
      vertex 85.7126 11 38.1549
    endloop
  endfacet
  facet normal -0.960293 0 0.278993
    outer loop
      vertex 79.2213 -1 29.2203
      vertex 79.4842 11 30.1253
      vertex 79.2213 11 29.2203
    endloop
  endfacet
  facet normal -0.960293 0 0.278993
    outer loop
      vertex 79.4842 11 30.1253
      vertex 79.2213 -1 29.2203
      vertex 79.4842 -1 30.1253
    endloop
  endfacet
  facet normal 2.54243e-08 1 1.13741e-07
    outer loop
      vertex 108.279 11 29.2203
      vertex 96.5607 11 40.2243
      vertex 97.4803 11 40.0187
    endloop
  endfacet
  facet normal 0.218145 0 0.975916
    outer loop
      vertex 96.5607 11 40.2243
      vertex 97.4803 -1 40.0187
      vertex 97.4803 11 40.0187
    endloop
  endfacet
  facet normal 0.218145 0 0.975916
    outer loop
      vertex 97.4803 -1 40.0187
      vertex 96.5607 11 40.2243
      vertex 96.5607 -1 40.2243
    endloop
  endfacet
  facet normal 0.156433 0 0.987689
    outer loop
      vertex 95.63 11 40.3717
      vertex 96.5607 -1 40.2243
      vertex 96.5607 11 40.2243
    endloop
  endfacet
  facet normal 0.156433 0 0.987689
    outer loop
      vertex 96.5607 -1 40.2243
      vertex 95.63 11 40.3717
      vertex 95.63 -1 40.3717
    endloop
  endfacet
  facet normal 0.661311 0 0.750112
    outer loop
      vertex 103.311 11 37.0477
      vertex 104.018 -1 36.4245
      vertex 104.018 11 36.4245
    endloop
  endfacet
  facet normal 0.661311 0 0.750112
    outer loop
      vertex 104.018 -1 36.4245
      vertex 103.311 11 37.0477
      vertex 103.311 -1 37.0477
    endloop
  endfacet
  facet normal 0.999506 -0 0.0314139
    outer loop
      vertex 108.72 -1 26.4319
      vertex 108.75 11 25.49
      vertex 108.72 11 26.4319
    endloop
  endfacet
  facet normal 0.999506 0 0.0314139
    outer loop
      vertex 108.75 11 25.49
      vertex 108.72 -1 26.4319
      vertex 108.75 -1 25.49
    endloop
  endfacet
  facet normal 0.960293 -0 0.278993
    outer loop
      vertex 108.016 -1 30.1253
      vertex 108.279 11 29.2203
      vertex 108.016 11 30.1253
    endloop
  endfacet
  facet normal 0.960293 0 0.278993
    outer loop
      vertex 108.279 11 29.2203
      vertex 108.016 -1 30.1253
      vertex 108.279 -1 29.2203
    endloop
  endfacet
  facet normal 1.51656e-05 1 5.45993e-06
    outer loop
      vertex 108.279 11 29.2203
      vertex 107.697 11 31.0119
      vertex 108.016 11 30.1253
    endloop
  endfacet
  facet normal 1.39556e-06 1 8.25335e-07
    outer loop
      vertex 108.279 11 29.2203
      vertex 106.415 11 33.5274
      vertex 106.895 11 32.7163
    endloop
  endfacet
  facet normal 0.940881 -0 0.338737
    outer loop
      vertex 107.697 -1 31.0119
      vertex 108.016 11 30.1253
      vertex 107.697 11 31.0119
    endloop
  endfacet
  facet normal 0.940881 0 0.338737
    outer loop
      vertex 108.016 11 30.1253
      vertex 107.697 -1 31.0119
      vertex 108.016 -1 30.1253
    endloop
  endfacet
  facet normal 0.75011 -0 0.661313
    outer loop
      vertex 104.685 -1 35.7582
      vertex 105.308 11 35.0514
      vertex 104.685 11 35.7582
    endloop
  endfacet
  facet normal 0.75011 0 0.661313
    outer loop
      vertex 105.308 11 35.0514
      vertex 104.685 -1 35.7582
      vertex 105.308 -1 35.0514
    endloop
  endfacet
  facet normal 0 1 -0
    outer loop
      vertex 86.7 11 11.59
      vertex 85.7 11 12.59
      vertex 86.7 11 12.59
    endloop
  endfacet
  facet normal 0 1 0
    outer loop
      vertex 85.7 11 12.59
      vertex 86.7 11 11.59
      vertex 85.7 11 11.59
    endloop
  endfacet
  facet normal 0 1 -0
    outer loop
      vertex 96.9 11 11.59
      vertex 95.9 11 12.59
      vertex 96.9 11 12.59
    endloop
  endfacet
  facet normal 0 1 0
    outer loop
      vertex 95.9 11 12.59
      vertex 96.9 11 11.59
      vertex 95.9 11 11.59
    endloop
  endfacet
  facet normal 0 1 0
    outer loop
      vertex 95.9 11 12.59
      vertex 108.279 11 29.2203
      vertex 108.484 11 28.3007
    endloop
  endfacet
  facet normal 0 1 0
    outer loop
      vertex 108.279 11 29.2203
      vertex 95.9 11 12.59
      vertex 79.2213 11 29.2203
    endloop
  endfacet
  facet normal 0 1 0
    outer loop
      vertex 95.9 11 12.59
      vertex 108.484 11 28.3007
      vertex 108.632 11 27.37
    endloop
  endfacet
  facet normal 0 1 0
    outer loop
      vertex 79.2213 11 29.2203
      vertex 95.9 11 12.59
      vertex 79.0157 11 28.3007
    endloop
  endfacet
  facet normal 0 1 0
    outer loop
      vertex 95.9 11 12.59
      vertex 108.632 11 27.37
      vertex 108.72 11 26.4319
    endloop
  endfacet
  facet normal 0 1 0
    outer loop
      vertex 79.0157 11 28.3007
      vertex 95.9 11 12.59
      vertex 78.8683 11 27.37
    endloop
  endfacet
  facet normal 0 1 0
    outer loop
      vertex 95.9 11 12.59
      vertex 108.72 11 26.4319
      vertex 108.75 11 25.49
    endloop
  endfacet
  facet normal 0 1 0
    outer loop
      vertex 78.8683 11 27.37
      vertex 95.9 11 12.59
      vertex 78.7796 11 26.4319
    endloop
  endfacet
  facet normal 0 1 0
    outer loop
      vertex 96.9 11 12.59
      vertex 108.75 11 25.49
      vertex 108.75 11 12.59
    endloop
  endfacet
  facet normal 0 1 0
    outer loop
      vertex 95.9 11 12.59
      vertex 108.75 11 25.49
      vertex 96.9 11 12.59
    endloop
  endfacet
  facet normal 0 1 0
    outer loop
      vertex 78.7796 11 26.4319
      vertex 95.9 11 12.59
      vertex 78.75 11 25.49
    endloop
  endfacet
  facet normal 0 1 -0
    outer loop
      vertex 86.7 11 12.59
      vertex 78.75 11 25.49
      vertex 95.9 11 12.59
    endloop
  endfacet
  facet normal 0 1 -0
    outer loop
      vertex 85.7 11 12.59
      vertex 78.75 11 25.49
      vertex 86.7 11 12.59
    endloop
  endfacet
  facet normal 0 1 0
    outer loop
      vertex 78.75 11 25.49
      vertex 85.7 11 12.59
      vertex 78.75 11 12.59
    endloop
  endfacet
  facet normal -0.031414 0 0.999506
    outer loop
      vertex 92.8081 11 40.4604
      vertex 93.75 -1 40.49
      vertex 93.75 11 40.49
    endloop
  endfacet
  facet normal -0.031414 0 0.999506
    outer loop
      vertex 93.75 -1 40.49
      vertex 92.8081 11 40.4604
      vertex 92.8081 -1 40.4604
    endloop
  endfacet
  facet normal -1.86138e-07 1 2.39965e-07
    outer loop
      vertex 84.9332 11 37.6253
      vertex 79.2213 11 29.2203
      vertex 84.1886 11 37.0477
    endloop
  endfacet
  facet normal -2.43843e-07 1 2.76586e-07
    outer loop
      vertex 84.1886 11 37.0477
      vertex 79.2213 11 29.2203
      vertex 83.4818 11 36.4245
    endloop
  endfacet
  facet normal -0.940881 0 0.338737
    outer loop
      vertex 79.4842 -1 30.1253
      vertex 79.8034 11 31.0119
      vertex 79.4842 11 30.1253
    endloop
  endfacet
  facet normal -0.940881 0 0.338737
    outer loop
      vertex 79.8034 11 31.0119
      vertex 79.4842 -1 30.1253
      vertex 79.8034 -1 31.0119
    endloop
  endfacet
  facet normal 2.77198e-09 1 8.81968e-08
    outer loop
      vertex 108.279 11 29.2203
      vertex 93.75 11 40.49
      vertex 94.6919 11 40.4604
    endloop
  endfacet
  facet normal 0.33874 0 0.94088
    outer loop
      vertex 98.3853 11 39.7558
      vertex 99.2719 -1 39.4366
      vertex 99.2719 11 39.4366
    endloop
  endfacet
  facet normal 0.33874 0 0.94088
    outer loop
      vertex 99.2719 -1 39.4366
      vertex 98.3853 11 39.7558
      vertex 98.3853 -1 39.7558
    endloop
  endfacet
  facet normal 8.53464e-08 1 1.67503e-07
    outer loop
      vertex 108.279 11 29.2203
      vertex 100.137 11 39.0624
      vertex 100.976 11 38.6346
    endloop
  endfacet
  facet normal 6.53127e-08 1 1.50929e-07
    outer loop
      vertex 108.279 11 29.2203
      vertex 99.2719 11 39.4366
      vertex 100.137 11 39.0624
    endloop
  endfacet
  facet normal 0.562081 0 0.827082
    outer loop
      vertex 101.787 11 38.1549
      vertex 102.567 -1 37.6253
      vertex 102.567 11 37.6253
    endloop
  endfacet
  facet normal 0.562081 0 0.827082
    outer loop
      vertex 102.567 -1 37.6253
      vertex 101.787 11 38.1549
      vertex 101.787 -1 38.1549
    endloop
  endfacet
  facet normal 0.61291 0 0.790153
    outer loop
      vertex 102.567 11 37.6253
      vertex 103.311 -1 37.0477
      vertex 103.311 11 37.0477
    endloop
  endfacet
  facet normal 0.61291 0 0.790153
    outer loop
      vertex 103.311 -1 37.0477
      vertex 102.567 11 37.6253
      vertex 102.567 -1 37.6253
    endloop
  endfacet
  facet normal 4.39542e-07 1 3.8751e-07
    outer loop
      vertex 108.279 11 29.2203
      vertex 104.685 11 35.7582
      vertex 105.308 11 35.0514
    endloop
  endfacet
  facet normal 0.790158 -0 0.612904
    outer loop
      vertex 105.308 -1 35.0514
      vertex 105.885 11 34.3068
      vertex 105.308 11 35.0514
    endloop
  endfacet
  facet normal 0.790158 0 0.612904
    outer loop
      vertex 105.885 11 34.3068
      vertex 105.308 -1 35.0514
      vertex 105.885 -1 34.3068
    endloop
  endfacet
  facet normal 0.860741 -0 0.509043
    outer loop
      vertex 106.415 -1 33.5274
      vertex 106.895 11 32.7163
      vertex 106.415 11 33.5274
    endloop
  endfacet
  facet normal 0.860741 0 0.509043
    outer loop
      vertex 106.895 11 32.7163
      vertex 106.415 -1 33.5274
      vertex 106.895 -1 32.7163
    endloop
  endfacet
  facet normal 0.917754 -0 0.39715
    outer loop
      vertex 107.322 -1 31.8767
      vertex 107.697 11 31.0119
      vertex 107.322 11 31.8767
    endloop
  endfacet
  facet normal 0.917754 0 0.39715
    outer loop
      vertex 107.697 11 31.0119
      vertex 107.322 -1 31.8767
      vertex 107.697 -1 31.0119
    endloop
  endfacet
  facet normal -0.278989 0 0.960294
    outer loop
      vertex 89.1147 11 39.7558
      vertex 90.0197 -1 40.0187
      vertex 90.0197 11 40.0187
    endloop
  endfacet
  facet normal -0.278989 0 0.960294
    outer loop
      vertex 90.0197 -1 40.0187
      vertex 89.1147 11 39.7558
      vertex 89.1147 -1 39.7558
    endloop
  endfacet
  facet normal -3.61648e-08 1 1.24481e-07
    outer loop
      vertex 90.0197 11 40.0187
      vertex 79.2213 11 29.2203
      vertex 89.1147 11 39.7558
    endloop
  endfacet
  facet normal -1.4329e-07 1 2.10846e-07
    outer loop
      vertex 85.7126 11 38.1549
      vertex 79.2213 11 29.2203
      vertex 84.9332 11 37.6253
    endloop
  endfacet
  facet normal -8.96956e-07 1 6.0957e-07
    outer loop
      vertex 81.6147 11 34.3068
      vertex 79.2213 11 29.2203
      vertex 81.0851 11 33.5274
    endloop
  endfacet
  facet normal -4.93709e-06 1 2.13649e-06
    outer loop
      vertex 80.1776 11 31.8767
      vertex 79.2213 11 29.2203
      vertex 79.8034 11 31.0119
    endloop
  endfacet
  facet normal 1.65113e-08 1 1.04249e-07
    outer loop
      vertex 108.279 11 29.2203
      vertex 95.63 11 40.3717
      vertex 96.5607 11 40.2243
    endloop
  endfacet
  facet normal 9.05496e-09 1 9.57917e-08
    outer loop
      vertex 108.279 11 29.2203
      vertex 94.6919 11 40.4604
      vertex 95.63 11 40.3717
    endloop
  endfacet
  facet normal 4.92352e-08 1 1.36755e-07
    outer loop
      vertex 108.279 11 29.2203
      vertex 98.3853 11 39.7558
      vertex 99.2719 11 39.4366
    endloop
  endfacet
  facet normal 3.61648e-08 1 1.24481e-07
    outer loop
      vertex 108.279 11 29.2203
      vertex 97.4803 11 40.0187
      vertex 98.3853 11 39.7558
    endloop
  endfacet
  facet normal 0.278989 0 0.960294
    outer loop
      vertex 97.4803 11 40.0187
      vertex 98.3853 -1 39.7558
      vertex 98.3853 11 39.7558
    endloop
  endfacet
  facet normal 0.278989 0 0.960294
    outer loop
      vertex 98.3853 -1 39.7558
      vertex 97.4803 11 40.0187
      vertex 97.4803 -1 40.0187
    endloop
  endfacet
  facet normal 0.453989 0 0.891007
    outer loop
      vertex 100.137 11 39.0624
      vertex 100.976 -1 38.6346
      vertex 100.976 11 38.6346
    endloop
  endfacet
  facet normal 0.453989 0 0.891007
    outer loop
      vertex 100.976 -1 38.6346
      vertex 100.137 11 39.0624
      vertex 100.137 -1 39.0624
    endloop
  endfacet
  facet normal 1.10685e-07 1 1.87157e-07
    outer loop
      vertex 108.279 11 29.2203
      vertex 100.976 11 38.6346
      vertex 101.787 11 38.1549
    endloop
  endfacet
  facet normal 0.509043 0 0.860741
    outer loop
      vertex 100.976 11 38.6346
      vertex 101.787 -1 38.1549
      vertex 101.787 11 38.1549
    endloop
  endfacet
  facet normal 0.509043 0 0.860741
    outer loop
      vertex 101.787 -1 38.1549
      vertex 100.976 11 38.6346
      vertex 100.976 -1 38.6346
    endloop
  endfacet
  facet normal 0.707105 0 0.707109
    outer loop
      vertex 104.018 11 36.4245
      vertex 104.685 -1 35.7582
      vertex 104.685 11 35.7582
    endloop
  endfacet
  facet normal 0.707105 0 0.707109
    outer loop
      vertex 104.685 -1 35.7582
      vertex 104.018 11 36.4245
      vertex 104.018 -1 36.4245
    endloop
  endfacet
  facet normal 1.86138e-07 1 2.39965e-07
    outer loop
      vertex 108.279 11 29.2203
      vertex 102.567 11 37.6253
      vertex 103.311 11 37.0477
    endloop
  endfacet
  facet normal 4.93709e-06 1 2.13649e-06
    outer loop
      vertex 108.279 11 29.2203
      vertex 107.322 11 31.8767
      vertex 107.697 11 31.0119
    endloop
  endfacet
  facet normal 2.40146e-06 1 1.2236e-06
    outer loop
      vertex 108.279 11 29.2203
      vertex 106.895 11 32.7163
      vertex 107.322 11 31.8767
    endloop
  endfacet
  facet normal -6.53127e-08 1 1.50929e-07
    outer loop
      vertex 88.2281 11 39.4366
      vertex 79.2213 11 29.2203
      vertex 87.3633 11 39.0624
    endloop
  endfacet
  facet normal -8.53464e-08 1 1.67503e-07
    outer loop
      vertex 87.3633 11 39.0624
      vertex 79.2213 11 29.2203
      vertex 86.5237 11 38.6346
    endloop
  endfacet
  facet normal -4.92352e-08 1 1.36755e-07
    outer loop
      vertex 89.1147 11 39.7558
      vertex 79.2213 11 29.2203
      vertex 88.2281 11 39.4366
    endloop
  endfacet
  facet normal -0.661311 0 0.750112
    outer loop
      vertex 83.4818 11 36.4245
      vertex 84.1886 -1 37.0477
      vertex 84.1886 11 37.0477
    endloop
  endfacet
  facet normal -0.661311 0 0.750112
    outer loop
      vertex 84.1886 -1 37.0477
      vertex 83.4818 11 36.4245
      vertex 83.4818 -1 36.4245
    endloop
  endfacet
  facet normal -0.453989 0 0.891007
    outer loop
      vertex 86.5237 11 38.6346
      vertex 87.3633 -1 39.0624
      vertex 87.3633 11 39.0624
    endloop
  endfacet
  facet normal -0.453989 0 0.891007
    outer loop
      vertex 87.3633 -1 39.0624
      vertex 86.5237 11 38.6346
      vertex 86.5237 -1 38.6346
    endloop
  endfacet
  facet normal -0.827081 0 0.562083
    outer loop
      vertex 81.0851 -1 33.5274
      vertex 81.6147 11 34.3068
      vertex 81.0851 11 33.5274
    endloop
  endfacet
  facet normal -0.827081 0 0.562083
    outer loop
      vertex 81.6147 11 34.3068
      vertex 81.0851 -1 33.5274
      vertex 81.6147 -1 34.3068
    endloop
  endfacet
  facet normal -0.707105 0 0.707109
    outer loop
      vertex 82.8155 11 35.7582
      vertex 83.4818 -1 36.4245
      vertex 83.4818 11 36.4245
    endloop
  endfacet
  facet normal -0.707105 0 0.707109
    outer loop
      vertex 83.4818 -1 36.4245
      vertex 82.8155 11 35.7582
      vertex 82.8155 -1 35.7582
    endloop
  endfacet
  facet normal -6.14516e-07 1 4.76663e-07
    outer loop
      vertex 82.1923 11 35.0514
      vertex 79.2213 11 29.2203
      vertex 81.6147 11 34.3068
    endloop
  endfacet
  facet normal -0.891007 0 0.453989
    outer loop
      vertex 80.1776 -1 31.8767
      vertex 80.6054 11 32.7163
      vertex 80.1776 11 31.8767
    endloop
  endfacet
  facet normal -0.891007 0 0.453989
    outer loop
      vertex 80.6054 11 32.7163
      vertex 80.1776 -1 31.8767
      vertex 80.6054 -1 32.7163
    endloop
  endfacet
  facet normal -1.51656e-05 1 5.45993e-06
    outer loop
      vertex 79.8034 11 31.0119
      vertex 79.2213 11 29.2203
      vertex 79.4842 11 30.1253
    endloop
  endfacet
  facet normal -0.917754 0 0.39715
    outer loop
      vertex 79.8034 -1 31.0119
      vertex 80.1776 11 31.8767
      vertex 79.8034 11 31.0119
    endloop
  endfacet
  facet normal -0.917754 0 0.39715
    outer loop
      vertex 80.1776 11 31.8767
      vertex 79.8034 -1 31.0119
      vertex 80.1776 -1 31.8767
    endloop
  endfacet
  facet normal 3.23974e-07 1 3.23975e-07
    outer loop
      vertex 108.279 11 29.2203
      vertex 104.018 11 36.4245
      vertex 104.685 11 35.7582
    endloop
  endfacet
  facet normal 2.43843e-07 1 2.76586e-07
    outer loop
      vertex 108.279 11 29.2203
      vertex 103.311 11 37.0477
      vertex 104.018 11 36.4245
    endloop
  endfacet
  facet normal -0.790158 0 0.612904
    outer loop
      vertex 81.6147 -1 34.3068
      vertex 82.1923 11 35.0514
      vertex 81.6147 11 34.3068
    endloop
  endfacet
  facet normal -0.790158 0 0.612904
    outer loop
      vertex 82.1923 11 35.0514
      vertex 81.6147 -1 34.3068
      vertex 82.1923 -1 35.0514
    endloop
  endfacet
  facet normal -1.39556e-06 1 8.25335e-07
    outer loop
      vertex 81.0851 11 33.5274
      vertex 79.2213 11 29.2203
      vertex 80.6054 11 32.7163
    endloop
  endfacet
  facet normal -3.23974e-07 1 3.23975e-07
    outer loop
      vertex 83.4818 11 36.4245
      vertex 79.2213 11 29.2203
      vertex 82.8155 11 35.7582
    endloop
  endfacet
  facet normal -4.39542e-07 1 3.8751e-07
    outer loop
      vertex 82.8155 11 35.7582
      vertex 79.2213 11 29.2203
      vertex 82.1923 11 35.0514
    endloop
  endfacet
  facet normal -0.562081 0 0.827082
    outer loop
      vertex 84.9332 11 37.6253
      vertex 85.7126 -1 38.1549
      vertex 85.7126 11 38.1549
    endloop
  endfacet
  facet normal -0.562081 0 0.827082
    outer loop
      vertex 85.7126 -1 38.1549
      vertex 84.9332 11 37.6253
      vertex 84.9332 -1 37.6253
    endloop
  endfacet
  facet normal -0.397147 0 0.917755
    outer loop
      vertex 87.3633 11 39.0624
      vertex 88.2281 -1 39.4366
      vertex 88.2281 11 39.4366
    endloop
  endfacet
  facet normal -0.397147 0 0.917755
    outer loop
      vertex 88.2281 -1 39.4366
      vertex 87.3633 11 39.0624
      vertex 87.3633 -1 39.0624
    endloop
  endfacet
  facet normal -0.75011 0 0.661313
    outer loop
      vertex 82.1923 -1 35.0514
      vertex 82.8155 11 35.7582
      vertex 82.1923 11 35.0514
    endloop
  endfacet
  facet normal -0.75011 0 0.661313
    outer loop
      vertex 82.8155 11 35.7582
      vertex 82.1923 -1 35.0514
      vertex 82.8155 -1 35.7582
    endloop
  endfacet
  facet normal -0.61291 0 0.790153
    outer loop
      vertex 84.1886 11 37.0477
      vertex 84.9332 -1 37.6253
      vertex 84.9332 11 37.6253
    endloop
  endfacet
  facet normal -0.61291 0 0.790153
    outer loop
      vertex 84.9332 -1 37.6253
      vertex 84.1886 11 37.0477
      vertex 84.1886 -1 37.0477
    endloop
  endfacet
  facet normal -1 0 0
    outer loop
      vertex 78.75 -1 12.59
      vertex 78.75 11 25.49
      vertex 78.75 11 12.59
    endloop
  endfacet
  facet normal -1 -0 0
    outer loop
      vertex 78.75 11 25.49
      vertex 78.75 -1 12.59
      vertex 78.75 -1 25.49
    endloop
  endfacet
  facet normal 1 -0 0
    outer loop
      vertex 108.75 -1 25.49
      vertex 108.75 11 12.59
      vertex 108.75 11 25.49
    endloop
  endfacet
  facet normal 1 0 0
    outer loop
      vertex 108.75 11 12.59
      vertex 108.75 -1 25.49
      vertex 108.75 -1 12.59
    endloop
  endfacet
  facet normal 0 0 -1
    outer loop
      vertex 78.75 -1 12.59
      vertex 85.7 11 12.59
      vertex 85.7 -1 12.59
    endloop
  endfacet
  facet normal -0 0 -1
    outer loop
      vertex 85.7 11 12.59
      vertex 78.75 -1 12.59
      vertex 78.75 11 12.59
    endloop
  endfacet
  facet normal 0 0 -1
    outer loop
      vertex 96.9 -1 12.59
      vertex 108.75 11 12.59
      vertex 108.75 -1 12.59
    endloop
  endfacet
  facet normal -0 0 -1
    outer loop
      vertex 108.75 11 12.59
      vertex 96.9 -1 12.59
      vertex 96.9 11 12.59
    endloop
  endfacet
  facet normal 0 0 -1
    outer loop
      vertex 86.7 -1 12.59
      vertex 95.9 11 12.59
      vertex 95.9 -1 12.59
    endloop
  endfacet
  facet normal -0 0 -1
    outer loop
      vertex 95.9 11 12.59
      vertex 86.7 -1 12.59
      vertex 86.7 11 12.59
    endloop
  endfacet
  facet normal 0 0 -1
    outer loop
      vertex 85.7 -1 11.59
      vertex 86.7 11 11.59
      vertex 86.7 -1 11.59
    endloop
  endfacet
  facet normal -0 0 -1
    outer loop
      vertex 86.7 11 11.59
      vertex 85.7 -1 11.59
      vertex 85.7 11 11.59
    endloop
  endfacet
  facet normal 0 0 -1
    outer loop
      vertex 95.9 -1 11.59
      vertex 96.9 11 11.59
      vertex 96.9 -1 11.59
    endloop
  endfacet
  facet normal -0 0 -1
    outer loop
      vertex 96.9 11 11.59
      vertex 95.9 -1 11.59
      vertex 95.9 11 11.59
    endloop
  endfacet
endsolid OpenSCAD_Model
