solid OpenSCAD_Model
  facet normal -0.995562 0 0.0941092
    outer loop
      vertex 10.0296 -1 26.4319
      vertex 10.1183 11 27.37
      vertex 10.0296 11 26.4319
    endloop
  endfacet
  facet normal -0.995562 0 0.0941092
    outer loop
      vertex 10.1183 11 27.37
      vertex 10.0296 -1 26.4319
      vertex 10.1183 -1 27.37
    endloop
  endfacet
  facet normal -0.975917 0 0.218144
    outer loop
      vertex 10.2657 -1 28.3007
      vertex 10.4713 11 29.2203
      vertex 10.2657 11 28.3007
    endloop
  endfacet
  facet normal -0.975917 0 0.218144
    outer loop
      vertex 10.4713 11 29.2203
      vertex 10.2657 -1 28.3007
      vertex 10.4713 -1 29.2203
    endloop
  endfacet
  facet normal 0.156434 0 0.987688
    outer loop
      vertex 26.88 11 40.3717
      vertex 27.8107 -1 40.2243
      vertex 27.8107 11 40.2243
    endloop
  endfacet
  facet normal 0.156434 0 0.987688
    outer loop
      vertex 27.8107 -1 40.2243
      vertex 26.88 11 40.3717
      vertex 26.88 -1 40.3717
    endloop
  endfacet
  facet normal 0.827081 -0 0.562083
    outer loop
      vertex 37.1353 -1 34.3068
      vertex 37.6649 11 33.5274
      vertex 37.1353 11 34.3068
    endloop
  endfacet
  facet normal 0.827081 0 0.562083
    outer loop
      vertex 37.6649 11 33.5274
      vertex 37.1353 -1 34.3068
      vertex 37.6649 -1 33.5274
    endloop
  endfacet
  facet normal -2.54242e-08 1 1.1374e-07
    outer loop
      vertex 22.1893 11 40.2243
      vertex 10.4713 11 29.2203
      vertex 21.2697 11 40.0187
    endloop
  endfacet
  facet normal -0.33874 0 0.94088
    outer loop
      vertex 19.4781 11 39.4366
      vertex 20.3647 -1 39.7558
      vertex 20.3647 11 39.7558
    endloop
  endfacet
  facet normal -0.33874 0 0.94088
    outer loop
      vertex 20.3647 -1 39.7558
      vertex 19.4781 11 39.4366
      vertex 19.4781 -1 39.4366
    endloop
  endfacet
  facet normal 4.92351e-08 1 1.36755e-07
    outer loop
      vertex 39.5287 11 29.2203
      vertex 29.6353 11 39.7558
      vertex 30.5219 11 39.4366
    endloop
  endfacet
  facet normal 0.562081 0 0.827082
    outer loop
      vertex 33.0374 11 38.1549
      vertex 33.8168 -1 37.6253
      vertex 33.8168 11 37.6253
    endloop
  endfacet
  facet normal 0.562081 0 0.827082
    outer loop
      vertex 33.8168 -1 37.6253
      vertex 33.0374 11 38.1549
      vertex 33.0374 -1 38.1549
    endloop
  endfacet
  facet normal 0.0941082 0 0.995562
    outer loop
      vertex 25.9419 11 40.4604
      vertex 26.88 -1 40.3717
      vertex 26.88 11 40.3717
    endloop
  endfacet
  facet normal 0.0941082 0 0.995562
    outer loop
      vertex 26.88 -1 40.3717
      vertex 25.9419 11 40.4604
      vertex 25.9419 -1 40.4604
    endloop
  endfacet
  facet normal 0 1 8.46232e-08
    outer loop
      vertex 39.5287 11 29.2203
      vertex 10.4713 11 29.2203
      vertex 25 11 40.49
    endloop
  endfacet
  facet normal -0.999507 0 0.0314109
    outer loop
      vertex 10.0296 -1 26.4319
      vertex 10 11 25.49
      vertex 10 -1 25.49
    endloop
  endfacet
  facet normal 0 -1 0
    outer loop
      vertex 34.7 -1 11.59
      vertex 35.7 -1 12.59
      vertex 34.7 -1 12.59
    endloop
  endfacet
  facet normal 0 -1 -0
    outer loop
      vertex 35.7 -1 12.59
      vertex 34.7 -1 11.59
      vertex 35.7 -1 11.59
    endloop
  endfacet
  facet normal 0 -1 0
    outer loop
      vertex 24.5 -1 11.59
      vertex 25.5 -1 12.59
      vertex 24.5 -1 12.59
    endloop
  endfacet
  facet normal 0 -1 -0
    outer loop
      vertex 25.5 -1 12.59
      vertex 24.5 -1 11.59
      vertex 25.5 -1 11.59
    endloop
  endfacet
  facet normal 0 -1 0
    outer loop
      vertex 14.3 -1 11.59
      vertex 15.3 -1 12.59
      vertex 14.3 -1 12.59
    endloop
  endfacet
  facet normal 0 -1 -0
    outer loop
      vertex 15.3 -1 12.59
      vertex 14.3 -1 11.59
      vertex 15.3 -1 11.59
    endloop
  endfacet
  facet normal 0 -1 0
    outer loop
      vertex 24.0581 -1 40.4604
      vertex 25.9419 -1 40.4604
      vertex 25 -1 40.49
    endloop
  endfacet
  facet normal 0 -1 0
    outer loop
      vertex 23.12 -1 40.3717
      vertex 25.9419 -1 40.4604
      vertex 24.0581 -1 40.4604
    endloop
  endfacet
  facet normal 0 -1 0
    outer loop
      vertex 23.12 -1 40.3717
      vertex 26.88 -1 40.3717
      vertex 25.9419 -1 40.4604
    endloop
  endfacet
  facet normal 0 -1 0
    outer loop
      vertex 24.5 -1 12.59
      vertex 23.12 -1 40.3717
      vertex 22.1893 -1 40.2243
    endloop
  endfacet
  facet normal 0 -1 0
    outer loop
      vertex 23.12 -1 40.3717
      vertex 24.5 -1 12.59
      vertex 26.88 -1 40.3717
    endloop
  endfacet
  facet normal 0 -1 0
    outer loop
      vertex 24.5 -1 12.59
      vertex 22.1893 -1 40.2243
      vertex 21.2697 -1 40.0187
    endloop
  endfacet
  facet normal 0 -1 0
    outer loop
      vertex 25.5 -1 12.59
      vertex 26.88 -1 40.3717
      vertex 24.5 -1 12.59
    endloop
  endfacet
  facet normal 0 -1 0
    outer loop
      vertex 24.5 -1 12.59
      vertex 21.2697 -1 40.0187
      vertex 20.3647 -1 39.7558
    endloop
  endfacet
  facet normal 0 -1 -0
    outer loop
      vertex 26.88 -1 40.3717
      vertex 25.5 -1 12.59
      vertex 27.8107 -1 40.2243
    endloop
  endfacet
  facet normal 0 -1 0
    outer loop
      vertex 24.5 -1 12.59
      vertex 20.3647 -1 39.7558
      vertex 19.4781 -1 39.4366
    endloop
  endfacet
  facet normal 0 -1 -0
    outer loop
      vertex 27.8107 -1 40.2243
      vertex 25.5 -1 12.59
      vertex 28.7303 -1 40.0187
    endloop
  endfacet
  facet normal 0 -1 0
    outer loop
      vertex 24.5 -1 12.59
      vertex 19.4781 -1 39.4366
      vertex 18.6133 -1 39.0624
    endloop
  endfacet
  facet normal 0 -1 -0
    outer loop
      vertex 28.7303 -1 40.0187
      vertex 25.5 -1 12.59
      vertex 29.6353 -1 39.7558
    endloop
  endfacet
  facet normal 0 -1 0
    outer loop
      vertex 24.5 -1 12.59
      vertex 18.6133 -1 39.0624
      vertex 17.7737 -1 38.6346
    endloop
  endfacet
  facet normal 0 -1 -0
    outer loop
      vertex 29.6353 -1 39.7558
      vertex 25.5 -1 12.59
      vertex 30.5219 -1 39.4366
    endloop
  endfacet
  facet normal 0 -1 0
    outer loop
      vertex 24.5 -1 12.59
      vertex 17.7737 -1 38.6346
      vertex 16.9626 -1 38.1549
    endloop
  endfacet
  facet normal 0 -1 -0
    outer loop
      vertex 30.5219 -1 39.4366
      vertex 25.5 -1 12.59
      vertex 31.3867 -1 39.0624
    endloop
  endfacet
  facet normal 0 -1 0
    outer loop
      vertex 24.5 -1 12.59
      vertex 16.9626 -1 38.1549
      vertex 16.1832 -1 37.6253
    endloop
  endfacet
  facet normal 0 -1 -0
    outer loop
      vertex 31.3867 -1 39.0624
      vertex 25.5 -1 12.59
      vertex 32.2263 -1 38.6346
    endloop
  endfacet
  facet normal 0 -1 0
    outer loop
      vertex 24.5 -1 12.59
      vertex 16.1832 -1 37.6253
      vertex 15.4386 -1 37.0477
    endloop
  endfacet
  facet normal 0 -1 -0
    outer loop
      vertex 32.2263 -1 38.6346
      vertex 25.5 -1 12.59
      vertex 33.0374 -1 38.1549
    endloop
  endfacet
  facet normal 0 -1 0
    outer loop
      vertex 24.5 -1 12.59
      vertex 15.4386 -1 37.0477
      vertex 14.7318 -1 36.4245
    endloop
  endfacet
  facet normal 0 -1 -0
    outer loop
      vertex 33.0374 -1 38.1549
      vertex 25.5 -1 12.59
      vertex 33.8168 -1 37.6253
    endloop
  endfacet
  facet normal 0 -1 0
    outer loop
      vertex 24.5 -1 12.59
      vertex 14.7318 -1 36.4245
      vertex 14.0655 -1 35.7582
    endloop
  endfacet
  facet normal 0 -1 -0
    outer loop
      vertex 33.8168 -1 37.6253
      vertex 25.5 -1 12.59
      vertex 34.5614 -1 37.0477
    endloop
  endfacet
  facet normal 0 -1 0
    outer loop
      vertex 24.5 -1 12.59
      vertex 14.0655 -1 35.7582
      vertex 13.4423 -1 35.0514
    endloop
  endfacet
  facet normal 0 -1 -0
    outer loop
      vertex 34.5614 -1 37.0477
      vertex 25.5 -1 12.59
      vertex 35.2682 -1 36.4245
    endloop
  endfacet
  facet normal 0 -1 0
    outer loop
      vertex 24.5 -1 12.59
      vertex 13.4423 -1 35.0514
      vertex 12.8647 -1 34.3068
    endloop
  endfacet
  facet normal 0 -1 -0
    outer loop
      vertex 35.2682 -1 36.4245
      vertex 25.5 -1 12.59
      vertex 35.9345 -1 35.7582
    endloop
  endfacet
  facet normal 0 -1 0
    outer loop
      vertex 24.5 -1 12.59
      vertex 12.8647 -1 34.3068
      vertex 12.3351 -1 33.5274
    endloop
  endfacet
  facet normal 0 -1 -0
    outer loop
      vertex 35.9345 -1 35.7582
      vertex 25.5 -1 12.59
      vertex 36.5577 -1 35.0514
    endloop
  endfacet
  facet normal 0 -1 0
    outer loop
      vertex 24.5 -1 12.59
      vertex 12.3351 -1 33.5274
      vertex 11.8554 -1 32.7163
    endloop
  endfacet
  facet normal 0 -1 -0
    outer loop
      vertex 36.5577 -1 35.0514
      vertex 25.5 -1 12.59
      vertex 37.1353 -1 34.3068
    endloop
  endfacet
  facet normal 0 -1 0
    outer loop
      vertex 24.5 -1 12.59
      vertex 11.8554 -1 32.7163
      vertex 11.4276 -1 31.8767
    endloop
  endfacet
  facet normal 0 -1 -0
    outer loop
      vertex 37.1353 -1 34.3068
      vertex 25.5 -1 12.59
      vertex 37.6649 -1 33.5274
    endloop
  endfacet
  facet normal 0 -1 0
    outer loop
      vertex 24.5 -1 12.59
      vertex 11.4276 -1 31.8767
      vertex 11.0534 -1 31.0119
    endloop
  endfacet
  facet normal 0 -1 -0
    outer loop
      vertex 37.6649 -1 33.5274
      vertex 25.5 -1 12.59
      vertex 38.1446 -1 32.7163
    endloop
  endfacet
  facet normal 0 -1 0
    outer loop
      vertex 24.5 -1 12.59
      vertex 11.0534 -1 31.0119
      vertex 10.7342 -1 30.1253
    endloop
  endfacet
  facet normal 0 -1 -0
    outer loop
      vertex 38.1446 -1 32.7163
      vertex 25.5 -1 12.59
      vertex 38.5724 -1 31.8767
    endloop
  endfacet
  facet normal 0 -1 0
    outer loop
      vertex 24.5 -1 12.59
      vertex 10.7342 -1 30.1253
      vertex 10.4713 -1 29.2203
    endloop
  endfacet
  facet normal 0 -1 -0
    outer loop
      vertex 38.5724 -1 31.8767
      vertex 25.5 -1 12.59
      vertex 38.9466 -1 31.0119
    endloop
  endfacet
  facet normal 0 -1 0
    outer loop
      vertex 24.5 -1 12.59
      vertex 10.4713 -1 29.2203
      vertex 10.2657 -1 28.3007
    endloop
  endfacet
  facet normal 0 -1 -0
    outer loop
      vertex 38.9466 -1 31.0119
      vertex 25.5 -1 12.59
      vertex 39.2658 -1 30.1253
    endloop
  endfacet
  facet normal 0 -1 0
    outer loop
      vertex 24.5 -1 12.59
      vertex 10.2657 -1 28.3007
      vertex 10.1183 -1 27.37
    endloop
  endfacet
  facet normal 0 -1 -0
    outer loop
      vertex 39.2658 -1 30.1253
      vertex 25.5 -1 12.59
      vertex 39.5287 -1 29.2203
    endloop
  endfacet
  facet normal 0 -1 0
    outer loop
      vertex 24.5 -1 12.59
      vertex 10.1183 -1 27.37
      vertex 10.0296 -1 26.4319
    endloop
  endfacet
  facet normal 0 -1 -0
    outer loop
      vertex 39.5287 -1 29.2203
      vertex 25.5 -1 12.59
      vertex 39.7343 -1 28.3007
    endloop
  endfacet
  facet normal 0 -1 0
    outer loop
      vertex 24.5 -1 12.59
      vertex 10.0296 -1 26.4319
      vertex 10 -1 25.49
    endloop
  endfacet
  facet normal 0 -1 -0
    outer loop
      vertex 39.7343 -1 28.3007
      vertex 25.5 -1 12.59
      vertex 39.8817 -1 27.37
    endloop
  endfacet
  facet normal 0 -1 0
    outer loop
      vertex 14.3 -1 12.59
      vertex 10 -1 25.49
      vertex 10 -1 12.59
    endloop
  endfacet
  facet normal 0 -1 0
    outer loop
      vertex 15.3 -1 12.59
      vertex 10 -1 25.49
      vertex 14.3 -1 12.59
    endloop
  endfacet
  facet normal 0 -1 0
    outer loop
      vertex 24.5 -1 12.59
      vertex 10 -1 25.49
      vertex 15.3 -1 12.59
    endloop
  endfacet
  facet normal 0 -1 -0
    outer loop
      vertex 39.8817 -1 27.37
      vertex 25.5 -1 12.59
      vertex 39.9704 -1 26.4319
    endloop
  endfacet
  facet normal 0 -1 -0
    outer loop
      vertex 39.9704 -1 26.4319
      vertex 25.5 -1 12.59
      vertex 40 -1 25.49
    endloop
  endfacet
  facet normal 0 -1 0
    outer loop
      vertex 34.7 -1 12.59
      vertex 40 -1 25.49
      vertex 25.5 -1 12.59
    endloop
  endfacet
  facet normal 0 -1 0
    outer loop
      vertex 35.7 -1 12.59
      vertex 40 -1 25.49
      vertex 34.7 -1 12.59
    endloop
  endfacet
  facet normal 0 -1 -0
    outer loop
      vertex 40 -1 25.49
      vertex 35.7 -1 12.59
      vertex 40 -1 12.59
    endloop
  endfacet
  facet normal -2.43844e-07 1 2.76587e-07
    outer loop
      vertex 15.4386 11 37.0477
      vertex 10.4713 11 29.2203
      vertex 14.7318 11 36.4245
    endloop
  endfacet
  facet normal -9.05496e-09 1 9.57917e-08
    outer loop
      vertex 24.0581 11 40.4604
      vertex 10.4713 11 29.2203
      vertex 23.12 11 40.3717
    endloop
  endfacet
  facet normal 0.031414 0 0.999506
    outer loop
      vertex 25 11 40.49
      vertex 25.9419 -1 40.4604
      vertex 25.9419 11 40.4604
    endloop
  endfacet
  facet normal 0.031414 0 0.999506
    outer loop
      vertex 25.9419 -1 40.4604
      vertex 25 11 40.49
      vertex 25 -1 40.49
    endloop
  endfacet
  facet normal 3.23978e-07 1 3.23978e-07
    outer loop
      vertex 39.5287 11 29.2203
      vertex 35.2682 11 36.4245
      vertex 35.9345 11 35.7582
    endloop
  endfacet
  facet normal 1.51656e-05 1 5.45993e-06
    outer loop
      vertex 39.5287 11 29.2203
      vertex 38.9466 11 31.0119
      vertex 39.2658 11 30.1253
    endloop
  endfacet
  facet normal 0.960293 -0 0.278993
    outer loop
      vertex 39.2658 -1 30.1253
      vertex 39.5287 11 29.2203
      vertex 39.2658 11 30.1253
    endloop
  endfacet
  facet normal 0.960293 0 0.278993
    outer loop
      vertex 39.5287 11 29.2203
      vertex 39.2658 -1 30.1253
      vertex 39.5287 -1 29.2203
    endloop
  endfacet
  facet normal 0.612908 0 0.790154
    outer loop
      vertex 33.8168 11 37.6253
      vertex 34.5614 -1 37.0477
      vertex 34.5614 11 37.0477
    endloop
  endfacet
  facet normal 0.612908 0 0.790154
    outer loop
      vertex 34.5614 -1 37.0477
      vertex 33.8168 11 37.6253
      vertex 33.8168 -1 37.6253
    endloop
  endfacet
  facet normal 1.86136e-07 1 2.39964e-07
    outer loop
      vertex 39.5287 11 29.2203
      vertex 33.8168 11 37.6253
      vertex 34.5614 11 37.0477
    endloop
  endfacet
  facet normal 0 1 -0
    outer loop
      vertex 15.3 11 11.59
      vertex 14.3 11 12.59
      vertex 15.3 11 12.59
    endloop
  endfacet
  facet normal 0 1 0
    outer loop
      vertex 14.3 11 12.59
      vertex 15.3 11 11.59
      vertex 14.3 11 11.59
    endloop
  endfacet
  facet normal 0 1 -0
    outer loop
      vertex 25.5 11 11.59
      vertex 24.5 11 12.59
      vertex 25.5 11 12.59
    endloop
  endfacet
  facet normal 0 1 0
    outer loop
      vertex 24.5 11 12.59
      vertex 25.5 11 11.59
      vertex 24.5 11 11.59
    endloop
  endfacet
  facet normal 0 1 -0
    outer loop
      vertex 35.7 11 11.59
      vertex 34.7 11 12.59
      vertex 35.7 11 12.59
    endloop
  endfacet
  facet normal 0 1 0
    outer loop
      vertex 34.7 11 12.59
      vertex 35.7 11 11.59
      vertex 34.7 11 11.59
    endloop
  endfacet
  facet normal 0 1 0
    outer loop
      vertex 25.5 11 12.59
      vertex 39.5287 11 29.2203
      vertex 39.7343 11 28.3007
    endloop
  endfacet
  facet normal 0 1 0
    outer loop
      vertex 39.5287 11 29.2203
      vertex 25.5 11 12.59
      vertex 10.4713 11 29.2203
    endloop
  endfacet
  facet normal 0 1 0
    outer loop
      vertex 25.5 11 12.59
      vertex 39.7343 11 28.3007
      vertex 39.8817 11 27.37
    endloop
  endfacet
  facet normal 0 1 -0
    outer loop
      vertex 24.5 11 12.59
      vertex 10.4713 11 29.2203
      vertex 25.5 11 12.59
    endloop
  endfacet
  facet normal 0 1 0
    outer loop
      vertex 25.5 11 12.59
      vertex 39.8817 11 27.37
      vertex 39.9704 11 26.4319
    endloop
  endfacet
  facet normal 0 1 0
    outer loop
      vertex 10.4713 11 29.2203
      vertex 24.5 11 12.59
      vertex 10.2657 11 28.3007
    endloop
  endfacet
  facet normal 0 1 0
    outer loop
      vertex 25.5 11 12.59
      vertex 39.9704 11 26.4319
      vertex 40 11 25.49
    endloop
  endfacet
  facet normal 0 1 0
    outer loop
      vertex 10.2657 11 28.3007
      vertex 24.5 11 12.59
      vertex 10.1183 11 27.37
    endloop
  endfacet
  facet normal 0 1 0
    outer loop
      vertex 35.7 11 12.59
      vertex 40 11 25.49
      vertex 40 11 12.59
    endloop
  endfacet
  facet normal 0 1 0
    outer loop
      vertex 34.7 11 12.59
      vertex 40 11 25.49
      vertex 35.7 11 12.59
    endloop
  endfacet
  facet normal 0 1 0
    outer loop
      vertex 25.5 11 12.59
      vertex 40 11 25.49
      vertex 34.7 11 12.59
    endloop
  endfacet
  facet normal 0 1 0
    outer loop
      vertex 10.1183 11 27.37
      vertex 24.5 11 12.59
      vertex 10.0296 11 26.4319
    endloop
  endfacet
  facet normal 0 1 0
    outer loop
      vertex 10.0296 11 26.4319
      vertex 24.5 11 12.59
      vertex 10 11 25.49
    endloop
  endfacet
  facet normal 0 1 -0
    outer loop
      vertex 15.3 11 12.59
      vertex 10 11 25.49
      vertex 24.5 11 12.59
    endloop
  endfacet
  facet normal 0 1 -0
    outer loop
      vertex 14.3 11 12.59
      vertex 10 11 25.49
      vertex 15.3 11 12.59
    endloop
  endfacet
  facet normal 0 1 0
    outer loop
      vertex 10 11 25.49
      vertex 14.3 11 12.59
      vertex 10 11 12.59
    endloop
  endfacet
  facet normal 0.999507 -0 0.0314099
    outer loop
      vertex 39.9704 -1 26.4319
      vertex 40 11 25.49
      vertex 39.9704 11 26.4319
    endloop
  endfacet
  facet normal 0.999507 0 0.0314099
    outer loop
      vertex 40 11 25.49
      vertex 39.9704 -1 26.4319
      vertex 40 -1 25.49
    endloop
  endfacet
  facet normal -0.987688 0 0.156434
    outer loop
      vertex 10.1183 -1 27.37
      vertex 10.2657 11 28.3007
      vertex 10.1183 11 27.37
    endloop
  endfacet
  facet normal -0.987688 0 0.156434
    outer loop
      vertex 10.2657 11 28.3007
      vertex 10.1183 -1 27.37
      vertex 10.2657 -1 28.3007
    endloop
  endfacet
  facet normal -0.999507 0 0.0314109
    outer loop
      vertex 10.0296 11 26.4319
      vertex 10 11 25.49
      vertex 10.0296 -1 26.4319
    endloop
  endfacet
  facet normal -0.917755 0 0.397148
    outer loop
      vertex 11.0534 -1 31.0119
      vertex 11.4276 11 31.8767
      vertex 11.0534 11 31.0119
    endloop
  endfacet
  facet normal -0.917755 0 0.397148
    outer loop
      vertex 11.4276 11 31.8767
      vertex 11.0534 -1 31.0119
      vertex 11.4276 -1 31.8767
    endloop
  endfacet
  facet normal -1.65114e-08 1 1.04249e-07
    outer loop
      vertex 23.12 11 40.3717
      vertex 10.4713 11 29.2203
      vertex 22.1893 11 40.2243
    endloop
  endfacet
  facet normal -2.77198e-09 1 8.81968e-08
    outer loop
      vertex 25 11 40.49
      vertex 10.4713 11 29.2203
      vertex 24.0581 11 40.4604
    endloop
  endfacet
  facet normal 0.707107 -0 0.707107
    outer loop
      vertex 35.2682 -1 36.4245
      vertex 35.9345 11 35.7582
      vertex 35.2682 11 36.4245
    endloop
  endfacet
  facet normal 0.707107 0 0.707107
    outer loop
      vertex 35.9345 11 35.7582
      vertex 35.2682 -1 36.4245
      vertex 35.9345 -1 35.7582
    endloop
  endfacet
  facet normal 1.39556e-06 1 8.25335e-07
    outer loop
      vertex 39.5287 11 29.2203
      vertex 37.6649 11 33.5274
      vertex 38.1446 11 32.7163
    endloop
  endfacet
  facet normal 4.39543e-07 1 3.87511e-07
    outer loop
      vertex 39.5287 11 29.2203
      vertex 35.9345 11 35.7582
      vertex 36.5577 11 35.0514
    endloop
  endfacet
  facet normal 8.96956e-07 1 6.0957e-07
    outer loop
      vertex 39.5287 11 29.2203
      vertex 37.1353 11 34.3068
      vertex 37.6649 11 33.5274
    endloop
  endfacet
  facet normal 0.940881 -0 0.338737
    outer loop
      vertex 38.9466 -1 31.0119
      vertex 39.2658 11 30.1253
      vertex 38.9466 11 31.0119
    endloop
  endfacet
  facet normal 0.940881 0 0.338737
    outer loop
      vertex 39.2658 11 30.1253
      vertex 38.9466 -1 31.0119
      vertex 39.2658 -1 30.1253
    endloop
  endfacet
  facet normal 0.917754 -0 0.39715
    outer loop
      vertex 38.5724 -1 31.8767
      vertex 38.9466 11 31.0119
      vertex 38.5724 11 31.8767
    endloop
  endfacet
  facet normal 0.917754 0 0.39715
    outer loop
      vertex 38.9466 11 31.0119
      vertex 38.5724 -1 31.8767
      vertex 38.9466 -1 31.0119
    endloop
  endfacet
  facet normal 0.891007 -0 0.453989
    outer loop
      vertex 38.1446 -1 32.7163
      vertex 38.5724 11 31.8767
      vertex 38.1446 11 32.7163
    endloop
  endfacet
  facet normal 0.891007 0 0.453989
    outer loop
      vertex 38.5724 11 31.8767
      vertex 38.1446 -1 32.7163
      vertex 38.5724 -1 31.8767
    endloop
  endfacet
  facet normal 0.975917 -0 0.218141
    outer loop
      vertex 39.5287 -1 29.2203
      vertex 39.7343 11 28.3007
      vertex 39.5287 11 29.2203
    endloop
  endfacet
  facet normal 0.975917 0 0.218141
    outer loop
      vertex 39.7343 11 28.3007
      vertex 39.5287 -1 29.2203
      vertex 39.7343 -1 28.3007
    endloop
  endfacet
  facet normal 1.4329e-07 1 2.10846e-07
    outer loop
      vertex 39.5287 11 29.2203
      vertex 33.0374 11 38.1549
      vertex 33.8168 11 37.6253
    endloop
  endfacet
  facet normal 0.397148 0 0.917755
    outer loop
      vertex 30.5219 11 39.4366
      vertex 31.3867 -1 39.0624
      vertex 31.3867 11 39.0624
    endloop
  endfacet
  facet normal 0.397148 0 0.917755
    outer loop
      vertex 31.3867 -1 39.0624
      vertex 30.5219 11 39.4366
      vertex 30.5219 -1 39.4366
    endloop
  endfacet
  facet normal 0.509043 0 0.860741
    outer loop
      vertex 32.2263 11 38.6346
      vertex 33.0374 -1 38.1549
      vertex 33.0374 11 38.1549
    endloop
  endfacet
  facet normal 0.509043 0 0.860741
    outer loop
      vertex 33.0374 -1 38.1549
      vertex 32.2263 11 38.6346
      vertex 32.2263 -1 38.6346
    endloop
  endfacet
  facet normal 1.65114e-08 1 1.04249e-07
    outer loop
      vertex 39.5287 11 29.2203
      vertex 26.88 11 40.3717
      vertex 27.8107 11 40.2243
    endloop
  endfacet
  facet normal 0.33874 0 0.94088
    outer loop
      vertex 29.6353 11 39.7558
      vertex 30.5219 -1 39.4366
      vertex 30.5219 11 39.4366
    endloop
  endfacet
  facet normal 0.33874 0 0.94088
    outer loop
      vertex 30.5219 -1 39.4366
      vertex 29.6353 11 39.7558
      vertex 29.6353 -1 39.7558
    endloop
  endfacet
  facet normal 0.278989 0 0.960294
    outer loop
      vertex 28.7303 11 40.0187
      vertex 29.6353 -1 39.7558
      vertex 29.6353 11 39.7558
    endloop
  endfacet
  facet normal 0.278989 0 0.960294
    outer loop
      vertex 29.6353 -1 39.7558
      vertex 28.7303 11 40.0187
      vertex 28.7303 -1 40.0187
    endloop
  endfacet
  facet normal 0.218145 0 0.975916
    outer loop
      vertex 27.8107 11 40.2243
      vertex 28.7303 -1 40.0187
      vertex 28.7303 11 40.0187
    endloop
  endfacet
  facet normal 0.218145 0 0.975916
    outer loop
      vertex 28.7303 -1 40.0187
      vertex 27.8107 11 40.2243
      vertex 27.8107 -1 40.2243
    endloop
  endfacet
  facet normal 0.995562 -0 0.0941082
    outer loop
      vertex 39.8817 -1 27.37
      vertex 39.9704 11 26.4319
      vertex 39.8817 11 27.37
    endloop
  endfacet
  facet normal 0.995562 0 0.0941082
    outer loop
      vertex 39.9704 11 26.4319
      vertex 39.8817 -1 27.37
      vertex 39.9704 -1 26.4319
    endloop
  endfacet
  facet normal -1.39557e-06 1 8.25337e-07
    outer loop
      vertex 12.3351 11 33.5274
      vertex 10.4713 11 29.2203
      vertex 11.8554 11 32.7163
    endloop
  endfacet
  facet normal -0.75011 0 0.661313
    outer loop
      vertex 13.4423 -1 35.0514
      vertex 14.0655 11 35.7582
      vertex 13.4423 11 35.0514
    endloop
  endfacet
  facet normal -0.75011 0 0.661313
    outer loop
      vertex 14.0655 11 35.7582
      vertex 13.4423 -1 35.0514
      vertex 14.0655 -1 35.7582
    endloop
  endfacet
  facet normal -0.218145 0 0.975916
    outer loop
      vertex 21.2697 11 40.0187
      vertex 22.1893 -1 40.2243
      vertex 22.1893 11 40.2243
    endloop
  endfacet
  facet normal -0.218145 0 0.975916
    outer loop
      vertex 22.1893 -1 40.2243
      vertex 21.2697 11 40.0187
      vertex 21.2697 -1 40.0187
    endloop
  endfacet
  facet normal 0.790156 -0 0.612906
    outer loop
      vertex 36.5577 -1 35.0514
      vertex 37.1353 11 34.3068
      vertex 36.5577 11 35.0514
    endloop
  endfacet
  facet normal 0.790156 0 0.612906
    outer loop
      vertex 37.1353 11 34.3068
      vertex 36.5577 -1 35.0514
      vertex 37.1353 -1 34.3068
    endloop
  endfacet
  facet normal 0.75011 -0 0.661313
    outer loop
      vertex 35.9345 -1 35.7582
      vertex 36.5577 11 35.0514
      vertex 35.9345 11 35.7582
    endloop
  endfacet
  facet normal 0.75011 0 0.661313
    outer loop
      vertex 36.5577 11 35.0514
      vertex 35.9345 -1 35.7582
      vertex 36.5577 -1 35.0514
    endloop
  endfacet
  facet normal 6.14506e-07 1 4.76659e-07
    outer loop
      vertex 39.5287 11 29.2203
      vertex 36.5577 11 35.0514
      vertex 37.1353 11 34.3068
    endloop
  endfacet
  facet normal 9.05496e-09 1 9.57917e-08
    outer loop
      vertex 39.5287 11 29.2203
      vertex 25.9419 11 40.4604
      vertex 26.88 11 40.3717
    endloop
  endfacet
  facet normal 2.77198e-09 1 8.81968e-08
    outer loop
      vertex 39.5287 11 29.2203
      vertex 25 11 40.49
      vertex 25.9419 11 40.4604
    endloop
  endfacet
  facet normal 3.61648e-08 1 1.24481e-07
    outer loop
      vertex 39.5287 11 29.2203
      vertex 28.7303 11 40.0187
      vertex 29.6353 11 39.7558
    endloop
  endfacet
  facet normal 2.54242e-08 1 1.1374e-07
    outer loop
      vertex 39.5287 11 29.2203
      vertex 27.8107 11 40.2243
      vertex 28.7303 11 40.0187
    endloop
  endfacet
  facet normal 1.10685e-07 1 1.87157e-07
    outer loop
      vertex 39.5287 11 29.2203
      vertex 32.2263 11 38.6346
      vertex 33.0374 11 38.1549
    endloop
  endfacet
  facet normal 0.453989 0 0.891007
    outer loop
      vertex 31.3867 11 39.0624
      vertex 32.2263 -1 38.6346
      vertex 32.2263 11 38.6346
    endloop
  endfacet
  facet normal 0.453989 0 0.891007
    outer loop
      vertex 32.2263 -1 38.6346
      vertex 31.3867 11 39.0624
      vertex 31.3867 -1 39.0624
    endloop
  endfacet
  facet normal 0.661313 0 0.75011
    outer loop
      vertex 34.5614 11 37.0477
      vertex 35.2682 -1 36.4245
      vertex 35.2682 11 36.4245
    endloop
  endfacet
  facet normal 0.661313 0 0.75011
    outer loop
      vertex 35.2682 -1 36.4245
      vertex 34.5614 11 37.0477
      vertex 34.5614 -1 37.0477
    endloop
  endfacet
  facet normal 2.43846e-07 1 2.76588e-07
    outer loop
      vertex 39.5287 11 29.2203
      vertex 34.5614 11 37.0477
      vertex 35.2682 11 36.4245
    endloop
  endfacet
  facet normal 4.93709e-06 1 2.13649e-06
    outer loop
      vertex 39.5287 11 29.2203
      vertex 38.5724 11 31.8767
      vertex 38.9466 11 31.0119
    endloop
  endfacet
  facet normal 2.40146e-06 1 1.2236e-06
    outer loop
      vertex 39.5287 11 29.2203
      vertex 38.1446 11 32.7163
      vertex 38.5724 11 31.8767
    endloop
  endfacet
  facet normal 0.987688 -0 0.156438
    outer loop
      vertex 39.7343 -1 28.3007
      vertex 39.8817 11 27.37
      vertex 39.7343 11 28.3007
    endloop
  endfacet
  facet normal 0.987688 0 0.156438
    outer loop
      vertex 39.8817 11 27.37
      vertex 39.7343 -1 28.3007
      vertex 39.8817 -1 27.37
    endloop
  endfacet
  facet normal -4.93725e-06 1 2.13654e-06
    outer loop
      vertex 11.4276 11 31.8767
      vertex 10.4713 11 29.2203
      vertex 11.0534 11 31.0119
    endloop
  endfacet
  facet normal -8.53461e-08 1 1.67502e-07
    outer loop
      vertex 18.6133 11 39.0624
      vertex 10.4713 11 29.2203
      vertex 17.7737 11 38.6346
    endloop
  endfacet
  facet normal -0.031414 0 0.999506
    outer loop
      vertex 24.0581 11 40.4604
      vertex 25 -1 40.49
      vertex 25 11 40.49
    endloop
  endfacet
  facet normal -0.031414 0 0.999506
    outer loop
      vertex 25 -1 40.49
      vertex 24.0581 11 40.4604
      vertex 24.0581 -1 40.4604
    endloop
  endfacet
  facet normal -0.0941082 0 0.995562
    outer loop
      vertex 23.12 11 40.3717
      vertex 24.0581 -1 40.4604
      vertex 24.0581 11 40.4604
    endloop
  endfacet
  facet normal -0.0941082 0 0.995562
    outer loop
      vertex 24.0581 -1 40.4604
      vertex 23.12 11 40.3717
      vertex 23.12 -1 40.3717
    endloop
  endfacet
  facet normal 0.860741 -0 0.509043
    outer loop
      vertex 37.6649 -1 33.5274
      vertex 38.1446 11 32.7163
      vertex 37.6649 11 33.5274
    endloop
  endfacet
  facet normal 0.860741 0 0.509043
    outer loop
      vertex 38.1446 11 32.7163
      vertex 37.6649 -1 33.5274
      vertex 38.1446 -1 32.7163
    endloop
  endfacet
  facet normal 8.53464e-08 1 1.67503e-07
    outer loop
      vertex 39.5287 11 29.2203
      vertex 31.3867 11 39.0624
      vertex 32.2263 11 38.6346
    endloop
  endfacet
  facet normal 6.53129e-08 1 1.50929e-07
    outer loop
      vertex 39.5287 11 29.2203
      vertex 30.5219 11 39.4366
      vertex 31.3867 11 39.0624
    endloop
  endfacet
  facet normal -0.960294 0 0.278991
    outer loop
      vertex 10.4713 -1 29.2203
      vertex 10.7342 11 30.1253
      vertex 10.4713 11 29.2203
    endloop
  endfacet
  facet normal -0.960294 0 0.278991
    outer loop
      vertex 10.7342 11 30.1253
      vertex 10.4713 -1 29.2203
      vertex 10.7342 -1 30.1253
    endloop
  endfacet
  facet normal -0.940881 0 0.338738
    outer loop
      vertex 10.7342 -1 30.1253
      vertex 11.0534 11 31.0119
      vertex 10.7342 11 30.1253
    endloop
  endfacet
  facet normal -0.940881 0 0.338738
    outer loop
      vertex 11.0534 11 31.0119
      vertex 10.7342 -1 30.1253
      vertex 11.0534 -1 31.0119
    endloop
  endfacet
  facet normal -1.51647e-05 1 5.45963e-06
    outer loop
      vertex 11.0534 11 31.0119
      vertex 10.4713 11 29.2203
      vertex 10.7342 11 30.1253
    endloop
  endfacet
  facet normal -0.891007 0 0.45399
    outer loop
      vertex 11.4276 -1 31.8767
      vertex 11.8554 11 32.7163
      vertex 11.4276 11 31.8767
    endloop
  endfacet
  facet normal -0.891007 0 0.45399
    outer loop
      vertex 11.8554 11 32.7163
      vertex 11.4276 -1 31.8767
      vertex 11.8554 -1 32.7163
    endloop
  endfacet
  facet normal -2.40141e-06 1 1.22358e-06
    outer loop
      vertex 11.8554 11 32.7163
      vertex 10.4713 11 29.2203
      vertex 11.4276 11 31.8767
    endloop
  endfacet
  facet normal -4.39543e-07 1 3.8751e-07
    outer loop
      vertex 14.0655 11 35.7582
      vertex 10.4713 11 29.2203
      vertex 13.4423 11 35.0514
    endloop
  endfacet
  facet normal -0.860742 0 0.509042
    outer loop
      vertex 11.8554 -1 32.7163
      vertex 12.3351 11 33.5274
      vertex 11.8554 11 32.7163
    endloop
  endfacet
  facet normal -0.860742 0 0.509042
    outer loop
      vertex 12.3351 11 33.5274
      vertex 11.8554 -1 32.7163
      vertex 12.3351 -1 33.5274
    endloop
  endfacet
  facet normal -1.43291e-07 1 2.10847e-07
    outer loop
      vertex 16.9626 11 38.1549
      vertex 10.4713 11 29.2203
      vertex 16.1832 11 37.6253
    endloop
  endfacet
  facet normal -0.562083 0 0.827081
    outer loop
      vertex 16.1832 11 37.6253
      vertex 16.9626 -1 38.1549
      vertex 16.9626 11 38.1549
    endloop
  endfacet
  facet normal -0.562083 0 0.827081
    outer loop
      vertex 16.9626 -1 38.1549
      vertex 16.1832 11 37.6253
      vertex 16.1832 -1 37.6253
    endloop
  endfacet
  facet normal -4.92351e-08 1 1.36755e-07
    outer loop
      vertex 20.3647 11 39.7558
      vertex 10.4713 11 29.2203
      vertex 19.4781 11 39.4366
    endloop
  endfacet
  facet normal -0.661312 0 0.750111
    outer loop
      vertex 14.7318 11 36.4245
      vertex 15.4386 -1 37.0477
      vertex 15.4386 11 37.0477
    endloop
  endfacet
  facet normal -0.661312 0 0.750111
    outer loop
      vertex 15.4386 -1 37.0477
      vertex 14.7318 11 36.4245
      vertex 14.7318 -1 36.4245
    endloop
  endfacet
  facet normal -0.156434 0 0.987688
    outer loop
      vertex 22.1893 11 40.2243
      vertex 23.12 -1 40.3717
      vertex 23.12 11 40.3717
    endloop
  endfacet
  facet normal -0.156434 0 0.987688
    outer loop
      vertex 23.12 -1 40.3717
      vertex 22.1893 11 40.2243
      vertex 22.1893 -1 40.2243
    endloop
  endfacet
  facet normal -0.790156 0 0.612906
    outer loop
      vertex 12.8647 -1 34.3068
      vertex 13.4423 11 35.0514
      vertex 12.8647 11 34.3068
    endloop
  endfacet
  facet normal -0.790156 0 0.612906
    outer loop
      vertex 13.4423 11 35.0514
      vertex 12.8647 -1 34.3068
      vertex 13.4423 -1 35.0514
    endloop
  endfacet
  facet normal -6.14505e-07 1 4.76658e-07
    outer loop
      vertex 13.4423 11 35.0514
      vertex 10.4713 11 29.2203
      vertex 12.8647 11 34.3068
    endloop
  endfacet
  facet normal -0.707107 0 0.707106
    outer loop
      vertex 14.0655 -1 35.7582
      vertex 14.7318 11 36.4245
      vertex 14.0655 11 35.7582
    endloop
  endfacet
  facet normal -0.707107 0 0.707106
    outer loop
      vertex 14.7318 11 36.4245
      vertex 14.0655 -1 35.7582
      vertex 14.7318 -1 36.4245
    endloop
  endfacet
  facet normal -3.23979e-07 1 3.23978e-07
    outer loop
      vertex 14.7318 11 36.4245
      vertex 10.4713 11 29.2203
      vertex 14.0655 11 35.7582
    endloop
  endfacet
  facet normal -0.612907 0 0.790155
    outer loop
      vertex 15.4386 11 37.0477
      vertex 16.1832 -1 37.6253
      vertex 16.1832 11 37.6253
    endloop
  endfacet
  facet normal -0.612907 0 0.790155
    outer loop
      vertex 16.1832 -1 37.6253
      vertex 15.4386 11 37.0477
      vertex 15.4386 -1 37.0477
    endloop
  endfacet
  facet normal -1.86135e-07 1 2.39963e-07
    outer loop
      vertex 16.1832 11 37.6253
      vertex 10.4713 11 29.2203
      vertex 15.4386 11 37.0477
    endloop
  endfacet
  facet normal -1.10685e-07 1 1.87157e-07
    outer loop
      vertex 17.7737 11 38.6346
      vertex 10.4713 11 29.2203
      vertex 16.9626 11 38.1549
    endloop
  endfacet
  facet normal -0.453988 0 0.891008
    outer loop
      vertex 17.7737 11 38.6346
      vertex 18.6133 -1 39.0624
      vertex 18.6133 11 39.0624
    endloop
  endfacet
  facet normal -0.453988 0 0.891008
    outer loop
      vertex 18.6133 -1 39.0624
      vertex 17.7737 11 38.6346
      vertex 17.7737 -1 38.6346
    endloop
  endfacet
  facet normal -0.397148 0 0.917755
    outer loop
      vertex 18.6133 11 39.0624
      vertex 19.4781 -1 39.4366
      vertex 19.4781 11 39.4366
    endloop
  endfacet
  facet normal -0.397148 0 0.917755
    outer loop
      vertex 19.4781 -1 39.4366
      vertex 18.6133 11 39.0624
      vertex 18.6133 -1 39.0624
    endloop
  endfacet
  facet normal -6.53129e-08 1 1.50929e-07
    outer loop
      vertex 19.4781 11 39.4366
      vertex 10.4713 11 29.2203
      vertex 18.6133 11 39.0624
    endloop
  endfacet
  facet normal -0.278989 0 0.960294
    outer loop
      vertex 20.3647 11 39.7558
      vertex 21.2697 -1 40.0187
      vertex 21.2697 11 40.0187
    endloop
  endfacet
  facet normal -0.278989 0 0.960294
    outer loop
      vertex 21.2697 -1 40.0187
      vertex 20.3647 11 39.7558
      vertex 20.3647 -1 39.7558
    endloop
  endfacet
  facet normal -3.61648e-08 1 1.24481e-07
    outer loop
      vertex 21.2697 11 40.0187
      vertex 10.4713 11 29.2203
      vertex 20.3647 11 39.7558
    endloop
  endfacet
  facet normal -0.827081 0 0.562083
    outer loop
      vertex 12.3351 -1 33.5274
      vertex 12.8647 11 34.3068
      vertex 12.3351 11 33.5274
    endloop
  endfacet
  facet normal -0.827081 0 0.562083
    outer loop
      vertex 12.8647 11 34.3068
      vertex 12.3351 -1 33.5274
      vertex 12.8647 -1 34.3068
    endloop
  endfacet
  facet normal -8.96955e-07 1 6.09569e-07
    outer loop
      vertex 12.8647 11 34.3068
      vertex 10.4713 11 29.2203
      vertex 12.3351 11 33.5274
    endloop
  endfacet
  facet normal -0.509043 0 0.860741
    outer loop
      vertex 16.9626 11 38.1549
      vertex 17.7737 -1 38.6346
      vertex 17.7737 11 38.6346
    endloop
  endfacet
  facet normal -0.509043 0 0.860741
    outer loop
      vertex 17.7737 -1 38.6346
      vertex 16.9626 11 38.1549
      vertex 16.9626 -1 38.1549
    endloop
  endfacet
  facet normal -1 0 0
    outer loop
      vertex 10 -1 12.59
      vertex 10 11 25.49
      vertex 10 11 12.59
    endloop
  endfacet
  facet normal -1 -0 0
    outer loop
      vertex 10 11 25.49
      vertex 10 -1 12.59
      vertex 10 -1 25.49
    endloop
  endfacet
  facet normal 1 -0 0
    outer loop
      vertex 40 -1 25.49
      vertex 40 11 12.59
      vertex 40 11 25.49
    endloop
  endfacet
  facet normal 1 0 0
    outer loop
      vertex 40 11 12.59
      vertex 40 -1 25.49
      vertex 40 -1 12.59
    endloop
  endfacet
  facet normal 0 0 -1
    outer loop
      vertex 10 -1 12.59
      vertex 14.3 11 12.59
      vertex 14.3 -1 12.59
    endloop
  endfacet
  facet normal -0 0 -1
    outer loop
      vertex 14.3 11 12.59
      vertex 10 -1 12.59
      vertex 10 11 12.59
    endloop
  endfacet
  facet normal 0 0 -1
    outer loop
      vertex 35.7 -1 12.59
      vertex 40 11 12.59
      vertex 40 -1 12.59
    endloop
  endfacet
  facet normal -0 0 -1
    outer loop
      vertex 40 11 12.59
      vertex 35.7 -1 12.59
      vertex 35.7 11 12.59
    endloop
  endfacet
  facet normal 0 0 -1
    outer loop
      vertex 15.3 -1 12.59
      vertex 24.5 11 12.59
      vertex 24.5 -1 12.59
    endloop
  endfacet
  facet normal -0 0 -1
    outer loop
      vertex 24.5 11 12.59
      vertex 15.3 -1 12.59
      vertex 15.3 11 12.59
    endloop
  endfacet
  facet normal 0 0 -1
    outer loop
      vertex 25.5 -1 12.59
      vertex 34.7 11 12.59
      vertex 34.7 -1 12.59
    endloop
  endfacet
  facet normal -0 0 -1
    outer loop
      vertex 34.7 11 12.59
      vertex 25.5 -1 12.59
      vertex 25.5 11 12.59
    endloop
  endfacet
  facet normal -1 0 0
    outer loop
      vertex 14.3 -1 11.59
      vertex 14.3 11 12.59
      vertex 14.3 11 11.59
    endloop
  endfacet
  facet normal -1 -0 0
    outer loop
      vertex 14.3 11 12.59
      vertex 14.3 -1 11.59
      vertex 14.3 -1 12.59
    endloop
  endfacet
  facet normal 1 -0 0
    outer loop
      vertex 15.3 -1 12.59
      vertex 15.3 11 11.59
      vertex 15.3 11 12.59
    endloop
  endfacet
  facet normal 1 0 0
    outer loop
      vertex 15.3 11 11.59
      vertex 15.3 -1 12.59
      vertex 15.3 -1 11.59
    endloop
  endfacet
  facet normal -1 0 0
    outer loop
      vertex 24.5 -1 11.59
      vertex 24.5 11 12.59
      vertex 24.5 11 11.59
    endloop
  endfacet
  facet normal -1 -0 0
    outer loop
      vertex 24.5 11 12.59
      vertex 24.5 -1 11.59
      vertex 24.5 -1 12.59
    endloop
  endfacet
  facet normal 1 -0 0
    outer loop
      vertex 25.5 -1 12.59
      vertex 25.5 11 11.59
      vertex 25.5 11 12.59
    endloop
  endfacet
  facet normal 1 0 0
    outer loop
      vertex 25.5 11 11.59
      vertex 25.5 -1 12.59
      vertex 25.5 -1 11.59
    endloop
  endfacet
  facet normal -1 0 0
    outer loop
      vertex 34.7 -1 11.59
      vertex 34.7 11 12.59
      vertex 34.7 11 11.59
    endloop
  endfacet
  facet normal -1 -0 0
    outer loop
      vertex 34.7 11 12.59
      vertex 34.7 -1 11.59
      vertex 34.7 -1 12.59
    endloop
  endfacet
  facet normal 1 -0 0
    outer loop
      vertex 35.7 -1 12.59
      vertex 35.7 11 11.59
      vertex 35.7 11 12.59
    endloop
  endfacet
  facet normal 1 0 0
    outer loop
      vertex 35.7 11 11.59
      vertex 35.7 -1 12.59
      vertex 35.7 -1 11.59
    endloop
  endfacet
  facet normal 0 0 -1
    outer loop
      vertex 14.3 -1 11.59
      vertex 15.3 11 11.59
      vertex 15.3 -1 11.59
    endloop
  endfacet
  facet normal -0 0 -1
    outer loop
      vertex 15.3 11 11.59
      vertex 14.3 -1 11.59
      vertex 14.3 11 11.59
    endloop
  endfacet
  facet normal 0 0 -1
    outer loop
      vertex 24.5 -1 11.59
      vertex 25.5 11 11.59
      vertex 25.5 -1 11.59
    endloop
  endfacet
  facet normal -0 0 -1
    outer loop
      vertex 25.5 11 11.59
      vertex 24.5 -1 11.59
      vertex 24.5 11 11.59
    endloop
  endfacet
  facet normal 0 0 -1
    outer loop
      vertex 34.7 -1 11.59
      vertex 35.7 11 11.59
      vertex 35.7 -1 11.59
    endloop
  endfacet
  facet normal -0 0 -1
    outer loop
      vertex 35.7 11 11.59
      vertex 34.7 -1 11.59
      vertex 34.7 11 11.59
    endloop
  endfacet
endsolid OpenSCAD_Model
