solid OpenSCAD_Model
  facet normal 0 -1 0
    outer loop
      vertex 85.7 -1 11.59
      vertex 86.7 -1 12.59
      vertex 85.7 -1 12.59
    endloop
  endfacet
  facet normal 0 -1 -0
    outer loop
      vertex 86.7 -1 12.59
      vertex 85.7 -1 11.59
      vertex 86.7 -1 11.59
    endloop
  endfacet
  facet normal 0 -1 0
    outer loop
      vertex 75.5 -1 11.59
      vertex 76.5 -1 12.59
      vertex 75.5 -1 12.59
    endloop
  endfacet
  facet normal 0 -1 -0
    outer loop
      vertex 76.5 -1 12.59
      vertex 75.5 -1 11.59
      vertex 76.5 -1 11.59
    endloop
  endfacet
  facet normal 0 -1 0
    outer loop
      vertex 80.3081 -1 40.4604
      vertex 82.1919 -1 40.4604
      vertex 81.25 -1 40.49
    endloop
  endfacet
  facet normal 0 -1 0
    outer loop
      vertex 79.37 -1 40.3717
      vertex 82.1919 -1 40.4604
      vertex 80.3081 -1 40.4604
    endloop
  endfacet
  facet normal 0 -1 0
    outer loop
      vertex 79.37 -1 40.3717
      vertex 83.13 -1 40.3717
      vertex 82.1919 -1 40.4604
    endloop
  endfacet
  facet normal 0 -1 0
    outer loop
      vertex 78.4393 -1 40.2243
      vertex 83.13 -1 40.3717
      vertex 79.37 -1 40.3717
    endloop
  endfacet
  facet normal 0 -1 0
    outer loop
      vertex 78.4393 -1 40.2243
      vertex 84.0607 -1 40.2243
      vertex 83.13 -1 40.3717
    endloop
  endfacet
  facet normal 0 -1 0
    outer loop
      vertex 85.7 -1 12.59
      vertex 78.4393 -1 40.2243
      vertex 77.5197 -1 40.0187
    endloop
  endfacet
  facet normal 0 -1 0
    outer loop
      vertex 78.4393 -1 40.2243
      vertex 85.7 -1 12.59
      vertex 84.0607 -1 40.2243
    endloop
  endfacet
  facet normal 0 -1 0
    outer loop
      vertex 85.7 -1 12.59
      vertex 77.5197 -1 40.0187
      vertex 76.6147 -1 39.7558
    endloop
  endfacet
  facet normal 0 -1 0
    outer loop
      vertex 84.0607 -1 40.2243
      vertex 85.7 -1 12.59
      vertex 84.9803 -1 40.0187
    endloop
  endfacet
  facet normal 0 -1 0
    outer loop
      vertex 85.7 -1 12.59
      vertex 76.6147 -1 39.7558
      vertex 75.7281 -1 39.4366
    endloop
  endfacet
  facet normal 0 -1 0
    outer loop
      vertex 84.9803 -1 40.0187
      vertex 85.7 -1 12.59
      vertex 85.8853 -1 39.7558
    endloop
  endfacet
  facet normal 0 -1 0
    outer loop
      vertex 85.7 -1 12.59
      vertex 75.7281 -1 39.4366
      vertex 74.8633 -1 39.0624
    endloop
  endfacet
  facet normal 0 -1 -0
    outer loop
      vertex 85.8853 -1 39.7558
      vertex 85.7 -1 12.59
      vertex 86.7719 -1 39.4366
    endloop
  endfacet
  facet normal 0 -1 0
    outer loop
      vertex 76.5 -1 12.59
      vertex 74.8633 -1 39.0624
      vertex 74.0237 -1 38.6346
    endloop
  endfacet
  facet normal 0 -1 -0
    outer loop
      vertex 86.7719 -1 39.4366
      vertex 85.7 -1 12.59
      vertex 87.6367 -1 39.0624
    endloop
  endfacet
  facet normal 0 -1 0
    outer loop
      vertex 76.5 -1 12.59
      vertex 74.0237 -1 38.6346
      vertex 73.2126 -1 38.1549
    endloop
  endfacet
  facet normal 0 -1 -0
    outer loop
      vertex 87.6367 -1 39.0624
      vertex 85.7 -1 12.59
      vertex 88.4763 -1 38.6346
    endloop
  endfacet
  facet normal 0 -1 0
    outer loop
      vertex 76.5 -1 12.59
      vertex 73.2126 -1 38.1549
      vertex 72.4332 -1 37.6253
    endloop
  endfacet
  facet normal 0 -1 -0
    outer loop
      vertex 88.4763 -1 38.6346
      vertex 85.7 -1 12.59
      vertex 89.2874 -1 38.1549
    endloop
  endfacet
  facet normal 0 -1 0
    outer loop
      vertex 76.5 -1 12.59
      vertex 72.4332 -1 37.6253
      vertex 71.6886 -1 37.0477
    endloop
  endfacet
  facet normal 0 -1 -0
    outer loop
      vertex 89.2874 -1 38.1549
      vertex 85.7 -1 12.59
      vertex 90.0668 -1 37.6253
    endloop
  endfacet
  facet normal 0 -1 0
    outer loop
      vertex 76.5 -1 12.59
      vertex 71.6886 -1 37.0477
      vertex 70.9818 -1 36.4245
    endloop
  endfacet
  facet normal 0 -1 -0
    outer loop
      vertex 90.0668 -1 37.6253
      vertex 85.7 -1 12.59
      vertex 90.8114 -1 37.0477
    endloop
  endfacet
  facet normal 0 -1 0
    outer loop
      vertex 76.5 -1 12.59
      vertex 70.9818 -1 36.4245
      vertex 70.3155 -1 35.7582
    endloop
  endfacet
  facet normal 0 -1 -0
    outer loop
      vertex 90.8114 -1 37.0477
      vertex 85.7 -1 12.59
      vertex 91.5182 -1 36.4245
    endloop
  endfacet
  facet normal 0 -1 0
    outer loop
      vertex 76.5 -1 12.59
      vertex 70.3155 -1 35.7582
      vertex 69.6923 -1 35.0514
    endloop
  endfacet
  facet normal 0 -1 -0
    outer loop
      vertex 91.5182 -1 36.4245
      vertex 85.7 -1 12.59
      vertex 92.1845 -1 35.7582
    endloop
  endfacet
  facet normal 0 -1 0
    outer loop
      vertex 76.5 -1 12.59
      vertex 69.6923 -1 35.0514
      vertex 69.1147 -1 34.3068
    endloop
  endfacet
  facet normal 0 -1 -0
    outer loop
      vertex 92.1845 -1 35.7582
      vertex 85.7 -1 12.59
      vertex 92.8077 -1 35.0514
    endloop
  endfacet
  facet normal 0 -1 0
    outer loop
      vertex 76.5 -1 12.59
      vertex 69.1147 -1 34.3068
      vertex 68.5851 -1 33.5274
    endloop
  endfacet
  facet normal 0 -1 -0
    outer loop
      vertex 92.8077 -1 35.0514
      vertex 85.7 -1 12.59
      vertex 93.3853 -1 34.3068
    endloop
  endfacet
  facet normal 0 -1 0
    outer loop
      vertex 76.5 -1 12.59
      vertex 68.5851 -1 33.5274
      vertex 68.1054 -1 32.7163
    endloop
  endfacet
  facet normal 0 -1 -0
    outer loop
      vertex 93.3853 -1 34.3068
      vertex 85.7 -1 12.59
      vertex 93.9149 -1 33.5274
    endloop
  endfacet
  facet normal 0 -1 0
    outer loop
      vertex 76.5 -1 12.59
      vertex 68.1054 -1 32.7163
      vertex 67.6776 -1 31.8767
    endloop
  endfacet
  facet normal 0 -1 -0
    outer loop
      vertex 93.9149 -1 33.5274
      vertex 85.7 -1 12.59
      vertex 94.3946 -1 32.7163
    endloop
  endfacet
  facet normal 0 -1 0
    outer loop
      vertex 76.5 -1 12.59
      vertex 67.6776 -1 31.8767
      vertex 67.3034 -1 31.0119
    endloop
  endfacet
  facet normal 0 -1 -0
    outer loop
      vertex 94.3946 -1 32.7163
      vertex 85.7 -1 12.59
      vertex 94.8224 -1 31.8767
    endloop
  endfacet
  facet normal 0 -1 0
    outer loop
      vertex 76.5 -1 12.59
      vertex 67.3034 -1 31.0119
      vertex 66.9842 -1 30.1253
    endloop
  endfacet
  facet normal 0 -1 -0
    outer loop
      vertex 94.8224 -1 31.8767
      vertex 85.7 -1 12.59
      vertex 95.1966 -1 31.0119
    endloop
  endfacet
  facet normal 0 -1 0
    outer loop
      vertex 76.5 -1 12.59
      vertex 66.9842 -1 30.1253
      vertex 66.7213 -1 29.2203
    endloop
  endfacet
  facet normal 0 -1 -0
    outer loop
      vertex 95.1966 -1 31.0119
      vertex 85.7 -1 12.59
      vertex 95.5158 -1 30.1253
    endloop
  endfacet
  facet normal 0 -1 0
    outer loop
      vertex 76.5 -1 12.59
      vertex 66.7213 -1 29.2203
      vertex 66.5157 -1 28.3007
    endloop
  endfacet
  facet normal 0 -1 -0
    outer loop
      vertex 95.5158 -1 30.1253
      vertex 85.7 -1 12.59
      vertex 95.7787 -1 29.2203
    endloop
  endfacet
  facet normal 0 -1 0
    outer loop
      vertex 76.5 -1 12.59
      vertex 66.5157 -1 28.3007
      vertex 66.3683 -1 27.37
    endloop
  endfacet
  facet normal 0 -1 -0
    outer loop
      vertex 95.7787 -1 29.2203
      vertex 85.7 -1 12.59
      vertex 95.9843 -1 28.3007
    endloop
  endfacet
  facet normal 0 -1 0
    outer loop
      vertex 76.5 -1 12.59
      vertex 66.3683 -1 27.37
      vertex 66.2796 -1 26.4319
    endloop
  endfacet
  facet normal 0 -1 -0
    outer loop
      vertex 95.9843 -1 28.3007
      vertex 85.7 -1 12.59
      vertex 96.1317 -1 27.37
    endloop
  endfacet
  facet normal 0 -1 0
    outer loop
      vertex 76.5 -1 12.59
      vertex 66.2796 -1 26.4319
      vertex 66.25 -1 25.49
    endloop
  endfacet
  facet normal 0 -1 -0
    outer loop
      vertex 96.1317 -1 27.37
      vertex 85.7 -1 12.59
      vertex 96.2204 -1 26.4319
    endloop
  endfacet
  facet normal 0 -1 0
    outer loop
      vertex 75.5 -1 12.59
      vertex 66.25 -1 25.49
      vertex 66.3 -1 12.59
    endloop
  endfacet
  facet normal 0 -1 0
    outer loop
      vertex 66.25 -1 11.59
      vertex 66.3 -1 12.59
      vertex 66.25 -1 25.49
    endloop
  endfacet
  facet normal 0 -1 -0
    outer loop
      vertex 66.3 -1 12.59
      vertex 66.25 -1 11.59
      vertex 66.3 -1 11.59
    endloop
  endfacet
  facet normal 0 -1 0
    outer loop
      vertex 76.5 -1 12.59
      vertex 66.25 -1 25.49
      vertex 75.5 -1 12.59
    endloop
  endfacet
  facet normal 0 -1 0
    outer loop
      vertex 74.8633 -1 39.0624
      vertex 76.5 -1 12.59
      vertex 85.7 -1 12.59
    endloop
  endfacet
  facet normal 0 -1 -0
    outer loop
      vertex 96.2204 -1 26.4319
      vertex 85.7 -1 12.59
      vertex 96.25 -1 25.49
    endloop
  endfacet
  facet normal 0 -1 0
    outer loop
      vertex 86.7 -1 12.59
      vertex 96.25 -1 25.49
      vertex 85.7 -1 12.59
    endloop
  endfacet
  facet normal 0 -1 0
    outer loop
      vertex 95.9 -1 12.59
      vertex 96.25 -1 25.49
      vertex 86.7 -1 12.59
    endloop
  endfacet
  facet normal 0 -1 0
    outer loop
      vertex 96.25 -1 11.59
      vertex 95.9 -1 12.59
      vertex 95.9 -1 11.59
    endloop
  endfacet
  facet normal 0 -1 0
    outer loop
      vertex 95.9 -1 12.59
      vertex 96.25 -1 11.59
      vertex 96.25 -1 25.49
    endloop
  endfacet
  facet normal 1 -0 0
    outer loop
      vertex 66.3 -1 12.59
      vertex 66.3 11 11.59
      vertex 66.3 11 12.59
    endloop
  endfacet
  facet normal 1 0 0
    outer loop
      vertex 66.3 11 11.59
      vertex 66.3 -1 12.59
      vertex 66.3 -1 11.59
    endloop
  endfacet
  facet normal -1 0 0
    outer loop
      vertex 75.5 -1 11.59
      vertex 75.5 11 12.59
      vertex 75.5 11 11.59
    endloop
  endfacet
  facet normal -1 -0 0
    outer loop
      vertex 75.5 11 12.59
      vertex 75.5 -1 11.59
      vertex 75.5 -1 12.59
    endloop
  endfacet
  facet normal 1 -0 0
    outer loop
      vertex 76.5 -1 12.59
      vertex 76.5 11 11.59
      vertex 76.5 11 12.59
    endloop
  endfacet
  facet normal 1 0 0
    outer loop
      vertex 76.5 11 11.59
      vertex 76.5 -1 12.59
      vertex 76.5 -1 11.59
    endloop
  endfacet
  facet normal -1 0 0
    outer loop
      vertex 85.7 -1 11.59
      vertex 85.7 11 12.59
      vertex 85.7 11 11.59
    endloop
  endfacet
  facet normal -1 -0 0
    outer loop
      vertex 85.7 11 12.59
      vertex 85.7 -1 11.59
      vertex 85.7 -1 12.59
    endloop
  endfacet
  facet normal 1 -0 0
    outer loop
      vertex 86.7 -1 12.59
      vertex 86.7 11 11.59
      vertex 86.7 11 12.59
    endloop
  endfacet
  facet normal 1 0 0
    outer loop
      vertex 86.7 11 11.59
      vertex 86.7 -1 12.59
      vertex 86.7 -1 11.59
    endloop
  endfacet
  facet normal -1 0 0
    outer loop
      vertex 95.9 -1 11.59
      vertex 95.9 11 12.59
      vertex 95.9 11 11.59
    endloop
  endfacet
  facet normal -1 -0 0
    outer loop
      vertex 95.9 11 12.59
      vertex 95.9 -1 11.59
      vertex 95.9 -1 12.59
    endloop
  endfacet
  facet normal -0.995562 0 0.0941041
    outer loop
      vertex 66.2796 -1 26.4319
      vertex 66.3683 11 27.37
      vertex 66.2796 11 26.4319
    endloop
  endfacet
  facet normal -0.995562 0 0.0941041
    outer loop
      vertex 66.3683 11 27.37
      vertex 66.2796 -1 26.4319
      vertex 66.3683 -1 27.37
    endloop
  endfacet
  facet normal 0.790158 -0 0.612904
    outer loop
      vertex 92.8077 -1 35.0514
      vertex 93.3853 11 34.3068
      vertex 92.8077 11 35.0514
    endloop
  endfacet
  facet normal 0.790158 0 0.612904
    outer loop
      vertex 93.3853 11 34.3068
      vertex 92.8077 -1 35.0514
      vertex 93.3853 -1 34.3068
    endloop
  endfacet
  facet normal -0.975917 0 0.218141
    outer loop
      vertex 66.5157 -1 28.3007
      vertex 66.7213 11 29.2203
      vertex 66.5157 11 28.3007
    endloop
  endfacet
  facet normal -0.975917 0 0.218141
    outer loop
      vertex 66.7213 11 29.2203
      vertex 66.5157 -1 28.3007
      vertex 66.7213 -1 29.2203
    endloop
  endfacet
  facet normal 0.75011 -0 0.661313
    outer loop
      vertex 92.1845 -1 35.7582
      vertex 92.8077 11 35.0514
      vertex 92.1845 11 35.7582
    endloop
  endfacet
  facet normal 0.75011 0 0.661313
    outer loop
      vertex 92.8077 11 35.0514
      vertex 92.1845 -1 35.7582
      vertex 92.8077 -1 35.0514
    endloop
  endfacet
  facet normal 6.14516e-07 1 4.76663e-07
    outer loop
      vertex 95.7787 11 29.2203
      vertex 92.8077 11 35.0514
      vertex 93.3853 11 34.3068
    endloop
  endfacet
  facet normal 2.77198e-09 1 8.81968e-08
    outer loop
      vertex 95.7787 11 29.2203
      vertex 81.25 11 40.49
      vertex 82.1919 11 40.4604
    endloop
  endfacet
  facet normal -2.54243e-08 1 1.13741e-07
    outer loop
      vertex 78.4393 11 40.2243
      vertex 66.7213 11 29.2203
      vertex 77.5197 11 40.0187
    endloop
  endfacet
  facet normal -0.33874 0 0.94088
    outer loop
      vertex 75.7281 11 39.4366
      vertex 76.6147 -1 39.7558
      vertex 76.6147 11 39.7558
    endloop
  endfacet
  facet normal -0.33874 0 0.94088
    outer loop
      vertex 76.6147 -1 39.7558
      vertex 75.7281 11 39.4366
      vertex 75.7281 -1 39.4366
    endloop
  endfacet
  facet normal 4.92352e-08 1 1.36755e-07
    outer loop
      vertex 95.7787 11 29.2203
      vertex 85.8853 11 39.7558
      vertex 86.7719 11 39.4366
    endloop
  endfacet
  facet normal 2.40146e-06 1 1.2236e-06
    outer loop
      vertex 95.7787 11 29.2203
      vertex 94.3946 11 32.7163
      vertex 94.8224 11 31.8767
    endloop
  endfacet
  facet normal 2.54243e-08 1 1.13741e-07
    outer loop
      vertex 95.7787 11 29.2203
      vertex 84.0607 11 40.2243
      vertex 84.9803 11 40.0187
    endloop
  endfacet
  facet normal 0 1 8.46232e-08
    outer loop
      vertex 95.7787 11 29.2203
      vertex 66.7213 11 29.2203
      vertex 81.25 11 40.49
    endloop
  endfacet
  facet normal -0.999506 0 0.0314139
    outer loop
      vertex 66.2796 -1 26.4319
      vertex 66.25 11 25.49
      vertex 66.25 -1 25.49
    endloop
  endfacet
  facet normal -2.43843e-07 1 2.76586e-07
    outer loop
      vertex 71.6886 11 37.0477
      vertex 66.7213 11 29.2203
      vertex 70.9818 11 36.4245
    endloop
  endfacet
  facet normal -9.05496e-09 1 9.57917e-08
    outer loop
      vertex 80.3081 11 40.4604
      vertex 66.7213 11 29.2203
      vertex 79.37 11 40.3717
    endloop
  endfacet
  facet normal 0.031414 0 0.999506
    outer loop
      vertex 81.25 11 40.49
      vertex 82.1919 -1 40.4604
      vertex 82.1919 11 40.4604
    endloop
  endfacet
  facet normal 0.031414 0 0.999506
    outer loop
      vertex 82.1919 -1 40.4604
      vertex 81.25 11 40.49
      vertex 81.25 -1 40.49
    endloop
  endfacet
  facet normal 3.23974e-07 1 3.23975e-07
    outer loop
      vertex 95.7787 11 29.2203
      vertex 91.5182 11 36.4245
      vertex 92.1845 11 35.7582
    endloop
  endfacet
  facet normal 1.51656e-05 1 5.45993e-06
    outer loop
      vertex 95.7787 11 29.2203
      vertex 95.1966 11 31.0119
      vertex 95.5158 11 30.1253
    endloop
  endfacet
  facet normal 0.960293 -0 0.278993
    outer loop
      vertex 95.5158 -1 30.1253
      vertex 95.7787 11 29.2203
      vertex 95.5158 11 30.1253
    endloop
  endfacet
  facet normal 0.960293 0 0.278993
    outer loop
      vertex 95.7787 11 29.2203
      vertex 95.5158 -1 30.1253
      vertex 95.7787 -1 29.2203
    endloop
  endfacet
  facet normal 0.61291 0 0.790153
    outer loop
      vertex 90.0668 11 37.6253
      vertex 90.8114 -1 37.0477
      vertex 90.8114 11 37.0477
    endloop
  endfacet
  facet normal 0.61291 0 0.790153
    outer loop
      vertex 90.8114 -1 37.0477
      vertex 90.0668 11 37.6253
      vertex 90.0668 -1 37.6253
    endloop
  endfacet
  facet normal 1.86138e-07 1 2.39965e-07
    outer loop
      vertex 95.7787 11 29.2203
      vertex 90.0668 11 37.6253
      vertex 90.8114 11 37.0477
    endloop
  endfacet
  facet normal 0.999506 -0 0.0314139
    outer loop
      vertex 96.2204 -1 26.4319
      vertex 96.25 11 25.49
      vertex 96.2204 11 26.4319
    endloop
  endfacet
  facet normal 0.999506 0 0.0314139
    outer loop
      vertex 96.25 11 25.49
      vertex 96.2204 -1 26.4319
      vertex 96.25 -1 25.49
    endloop
  endfacet
  facet normal -0.987688 0 0.156438
    outer loop
      vertex 66.3683 -1 27.37
      vertex 66.5157 11 28.3007
      vertex 66.3683 11 27.37
    endloop
  endfacet
  facet normal -0.987688 0 0.156438
    outer loop
      vertex 66.5157 11 28.3007
      vertex 66.3683 -1 27.37
      vertex 66.5157 -1 28.3007
    endloop
  endfacet
  facet normal -0.999506 0 0.0314139
    outer loop
      vertex 66.2796 11 26.4319
      vertex 66.25 11 25.49
      vertex 66.2796 -1 26.4319
    endloop
  endfacet
  facet normal -1.65113e-08 1 1.04249e-07
    outer loop
      vertex 79.37 11 40.3717
      vertex 66.7213 11 29.2203
      vertex 78.4393 11 40.2243
    endloop
  endfacet
  facet normal -2.77198e-09 1 8.81968e-08
    outer loop
      vertex 81.25 11 40.49
      vertex 66.7213 11 29.2203
      vertex 80.3081 11 40.4604
    endloop
  endfacet
  facet normal 0.707105 0 0.707109
    outer loop
      vertex 91.5182 11 36.4245
      vertex 92.1845 -1 35.7582
      vertex 92.1845 11 35.7582
    endloop
  endfacet
  facet normal 0.707105 0 0.707109
    outer loop
      vertex 92.1845 -1 35.7582
      vertex 91.5182 11 36.4245
      vertex 91.5182 -1 36.4245
    endloop
  endfacet
  facet normal 4.39542e-07 1 3.8751e-07
    outer loop
      vertex 95.7787 11 29.2203
      vertex 92.1845 11 35.7582
      vertex 92.8077 11 35.0514
    endloop
  endfacet
  facet normal 0.827081 -0 0.562083
    outer loop
      vertex 93.3853 -1 34.3068
      vertex 93.9149 11 33.5274
      vertex 93.3853 11 34.3068
    endloop
  endfacet
  facet normal 0.827081 0 0.562083
    outer loop
      vertex 93.9149 11 33.5274
      vertex 93.3853 -1 34.3068
      vertex 93.9149 -1 33.5274
    endloop
  endfacet
  facet normal 0.940881 -0 0.338737
    outer loop
      vertex 95.1966 -1 31.0119
      vertex 95.5158 11 30.1253
      vertex 95.1966 11 31.0119
    endloop
  endfacet
  facet normal 0.940881 0 0.338737
    outer loop
      vertex 95.5158 11 30.1253
      vertex 95.1966 -1 31.0119
      vertex 95.5158 -1 30.1253
    endloop
  endfacet
  facet normal 0.891007 -0 0.453989
    outer loop
      vertex 94.3946 -1 32.7163
      vertex 94.8224 11 31.8767
      vertex 94.3946 11 32.7163
    endloop
  endfacet
  facet normal 0.891007 0 0.453989
    outer loop
      vertex 94.8224 11 31.8767
      vertex 94.3946 -1 32.7163
      vertex 94.8224 -1 31.8767
    endloop
  endfacet
  facet normal 0.975917 -0 0.218141
    outer loop
      vertex 95.7787 -1 29.2203
      vertex 95.9843 11 28.3007
      vertex 95.7787 11 29.2203
    endloop
  endfacet
  facet normal 0.975917 0 0.218141
    outer loop
      vertex 95.9843 11 28.3007
      vertex 95.7787 -1 29.2203
      vertex 95.9843 -1 28.3007
    endloop
  endfacet
  facet normal 1.10685e-07 1 1.87157e-07
    outer loop
      vertex 95.7787 11 29.2203
      vertex 88.4763 11 38.6346
      vertex 89.2874 11 38.1549
    endloop
  endfacet
  facet normal 0.397147 0 0.917755
    outer loop
      vertex 86.7719 11 39.4366
      vertex 87.6367 -1 39.0624
      vertex 87.6367 11 39.0624
    endloop
  endfacet
  facet normal 0.397147 0 0.917755
    outer loop
      vertex 87.6367 -1 39.0624
      vertex 86.7719 11 39.4366
      vertex 86.7719 -1 39.4366
    endloop
  endfacet
  facet normal 0.509043 0 0.860741
    outer loop
      vertex 88.4763 11 38.6346
      vertex 89.2874 -1 38.1549
      vertex 89.2874 11 38.1549
    endloop
  endfacet
  facet normal 0.509043 0 0.860741
    outer loop
      vertex 89.2874 -1 38.1549
      vertex 88.4763 11 38.6346
      vertex 88.4763 -1 38.6346
    endloop
  endfacet
  facet normal 0.0941082 0 0.995562
    outer loop
      vertex 82.1919 11 40.4604
      vertex 83.13 -1 40.3717
      vertex 83.13 11 40.3717
    endloop
  endfacet
  facet normal 0.0941082 0 0.995562
    outer loop
      vertex 83.13 -1 40.3717
      vertex 82.1919 11 40.4604
      vertex 82.1919 -1 40.4604
    endloop
  endfacet
  facet normal 0.33874 0 0.94088
    outer loop
      vertex 85.8853 11 39.7558
      vertex 86.7719 -1 39.4366
      vertex 86.7719 11 39.4366
    endloop
  endfacet
  facet normal 0.33874 0 0.94088
    outer loop
      vertex 86.7719 -1 39.4366
      vertex 85.8853 11 39.7558
      vertex 85.8853 -1 39.7558
    endloop
  endfacet
  facet normal 0.218145 0 0.975916
    outer loop
      vertex 84.0607 11 40.2243
      vertex 84.9803 -1 40.0187
      vertex 84.9803 11 40.0187
    endloop
  endfacet
  facet normal 0.218145 0 0.975916
    outer loop
      vertex 84.9803 -1 40.0187
      vertex 84.0607 11 40.2243
      vertex 84.0607 -1 40.2243
    endloop
  endfacet
  facet normal 0 1 -0
    outer loop
      vertex 76.5 11 11.59
      vertex 75.5 11 12.59
      vertex 76.5 11 12.59
    endloop
  endfacet
  facet normal 0 1 0
    outer loop
      vertex 75.5 11 12.59
      vertex 76.5 11 11.59
      vertex 75.5 11 11.59
    endloop
  endfacet
  facet normal 0 1 -0
    outer loop
      vertex 86.7 11 11.59
      vertex 85.7 11 12.59
      vertex 86.7 11 12.59
    endloop
  endfacet
  facet normal 0 1 0
    outer loop
      vertex 85.7 11 12.59
      vertex 86.7 11 11.59
      vertex 85.7 11 11.59
    endloop
  endfacet
  facet normal 0 1 0
    outer loop
      vertex 85.7 11 12.59
      vertex 95.7787 11 29.2203
      vertex 95.9843 11 28.3007
    endloop
  endfacet
  facet normal 0 1 0
    outer loop
      vertex 95.7787 11 29.2203
      vertex 85.7 11 12.59
      vertex 66.7213 11 29.2203
    endloop
  endfacet
  facet normal 0 1 0
    outer loop
      vertex 85.7 11 12.59
      vertex 95.9843 11 28.3007
      vertex 96.1317 11 27.37
    endloop
  endfacet
  facet normal 0 1 -0
    outer loop
      vertex 76.5 11 12.59
      vertex 66.7213 11 29.2203
      vertex 85.7 11 12.59
    endloop
  endfacet
  facet normal 0 1 0
    outer loop
      vertex 85.7 11 12.59
      vertex 96.1317 11 27.37
      vertex 96.2204 11 26.4319
    endloop
  endfacet
  facet normal 0 1 0
    outer loop
      vertex 66.7213 11 29.2203
      vertex 76.5 11 12.59
      vertex 66.5157 11 28.3007
    endloop
  endfacet
  facet normal 0 1 0
    outer loop
      vertex 85.7 11 12.59
      vertex 96.2204 11 26.4319
      vertex 96.25 11 25.49
    endloop
  endfacet
  facet normal 0 1 0
    outer loop
      vertex 66.5157 11 28.3007
      vertex 76.5 11 12.59
      vertex 66.3683 11 27.37
    endloop
  endfacet
  facet normal 0 1 0
    outer loop
      vertex 86.7 11 12.59
      vertex 96.25 11 25.49
      vertex 95.9 11 12.59
    endloop
  endfacet
  facet normal 0 1 -0
    outer loop
      vertex 96.25 11 11.59
      vertex 95.9 11 12.59
      vertex 96.25 11 25.49
    endloop
  endfacet
  facet normal 0 1 0
    outer loop
      vertex 95.9 11 12.59
      vertex 96.25 11 11.59
      vertex 95.9 11 11.59
    endloop
  endfacet
  facet normal 0 1 0
    outer loop
      vertex 85.7 11 12.59
      vertex 96.25 11 25.49
      vertex 86.7 11 12.59
    endloop
  endfacet
  facet normal 0 1 0
    outer loop
      vertex 66.3683 11 27.37
      vertex 76.5 11 12.59
      vertex 66.2796 11 26.4319
    endloop
  endfacet
  facet normal 0 1 0
    outer loop
      vertex 66.2796 11 26.4319
      vertex 76.5 11 12.59
      vertex 66.25 11 25.49
    endloop
  endfacet
  facet normal 0 1 -0
    outer loop
      vertex 75.5 11 12.59
      vertex 66.25 11 25.49
      vertex 76.5 11 12.59
    endloop
  endfacet
  facet normal 0 1 -0
    outer loop
      vertex 66.3 11 12.59
      vertex 66.25 11 25.49
      vertex 75.5 11 12.59
    endloop
  endfacet
  facet normal 0 1 0
    outer loop
      vertex 66.25 11 11.59
      vertex 66.3 11 12.59
      vertex 66.3 11 11.59
    endloop
  endfacet
  facet normal 0 1 0
    outer loop
      vertex 66.3 11 12.59
      vertex 66.25 11 11.59
      vertex 66.25 11 25.49
    endloop
  endfacet
  facet normal 0.995562 -0 0.0941041
    outer loop
      vertex 96.1317 -1 27.37
      vertex 96.2204 11 26.4319
      vertex 96.1317 11 27.37
    endloop
  endfacet
  facet normal 0.995562 0 0.0941041
    outer loop
      vertex 96.2204 11 26.4319
      vertex 96.1317 -1 27.37
      vertex 96.2204 -1 26.4319
    endloop
  endfacet
  facet normal -1.39556e-06 1 8.25335e-07
    outer loop
      vertex 68.5851 11 33.5274
      vertex 66.7213 11 29.2203
      vertex 68.1054 11 32.7163
    endloop
  endfacet
  facet normal -0.75011 0 0.661313
    outer loop
      vertex 69.6923 -1 35.0514
      vertex 70.3155 11 35.7582
      vertex 69.6923 11 35.0514
    endloop
  endfacet
  facet normal -0.75011 0 0.661313
    outer loop
      vertex 70.3155 11 35.7582
      vertex 69.6923 -1 35.0514
      vertex 70.3155 -1 35.7582
    endloop
  endfacet
  facet normal -0.218145 0 0.975916
    outer loop
      vertex 77.5197 11 40.0187
      vertex 78.4393 -1 40.2243
      vertex 78.4393 11 40.2243
    endloop
  endfacet
  facet normal -0.218145 0 0.975916
    outer loop
      vertex 78.4393 -1 40.2243
      vertex 77.5197 11 40.0187
      vertex 77.5197 -1 40.0187
    endloop
  endfacet
  facet normal 8.96956e-07 1 6.0957e-07
    outer loop
      vertex 95.7787 11 29.2203
      vertex 93.3853 11 34.3068
      vertex 93.9149 11 33.5274
    endloop
  endfacet
  facet normal 9.05496e-09 1 9.57917e-08
    outer loop
      vertex 95.7787 11 29.2203
      vertex 82.1919 11 40.4604
      vertex 83.13 11 40.3717
    endloop
  endfacet
  facet normal 0.278989 0 0.960294
    outer loop
      vertex 84.9803 11 40.0187
      vertex 85.8853 -1 39.7558
      vertex 85.8853 11 39.7558
    endloop
  endfacet
  facet normal 0.278989 0 0.960294
    outer loop
      vertex 85.8853 -1 39.7558
      vertex 84.9803 11 40.0187
      vertex 84.9803 -1 40.0187
    endloop
  endfacet
  facet normal 3.61648e-08 1 1.24481e-07
    outer loop
      vertex 95.7787 11 29.2203
      vertex 84.9803 11 40.0187
      vertex 85.8853 11 39.7558
    endloop
  endfacet
  facet normal 0.453989 0 0.891007
    outer loop
      vertex 87.6367 11 39.0624
      vertex 88.4763 -1 38.6346
      vertex 88.4763 11 38.6346
    endloop
  endfacet
  facet normal 0.453989 0 0.891007
    outer loop
      vertex 88.4763 -1 38.6346
      vertex 87.6367 11 39.0624
      vertex 87.6367 -1 39.0624
    endloop
  endfacet
  facet normal 0.661311 0 0.750112
    outer loop
      vertex 90.8114 11 37.0477
      vertex 91.5182 -1 36.4245
      vertex 91.5182 11 36.4245
    endloop
  endfacet
  facet normal 0.661311 0 0.750112
    outer loop
      vertex 91.5182 -1 36.4245
      vertex 90.8114 11 37.0477
      vertex 90.8114 -1 37.0477
    endloop
  endfacet
  facet normal 2.43843e-07 1 2.76586e-07
    outer loop
      vertex 95.7787 11 29.2203
      vertex 90.8114 11 37.0477
      vertex 91.5182 11 36.4245
    endloop
  endfacet
  facet normal 0.917754 -0 0.39715
    outer loop
      vertex 94.8224 -1 31.8767
      vertex 95.1966 11 31.0119
      vertex 94.8224 11 31.8767
    endloop
  endfacet
  facet normal 0.917754 0 0.39715
    outer loop
      vertex 95.1966 11 31.0119
      vertex 94.8224 -1 31.8767
      vertex 95.1966 -1 31.0119
    endloop
  endfacet
  facet normal 4.93709e-06 1 2.13649e-06
    outer loop
      vertex 95.7787 11 29.2203
      vertex 94.8224 11 31.8767
      vertex 95.1966 11 31.0119
    endloop
  endfacet
  facet normal 0.987688 -0 0.156438
    outer loop
      vertex 95.9843 -1 28.3007
      vertex 96.1317 11 27.37
      vertex 95.9843 11 28.3007
    endloop
  endfacet
  facet normal 0.987688 0 0.156438
    outer loop
      vertex 96.1317 11 27.37
      vertex 95.9843 -1 28.3007
      vertex 96.1317 -1 27.37
    endloop
  endfacet
  facet normal -4.93709e-06 1 2.13649e-06
    outer loop
      vertex 67.6776 11 31.8767
      vertex 66.7213 11 29.2203
      vertex 67.3034 11 31.0119
    endloop
  endfacet
  facet normal -8.53464e-08 1 1.67503e-07
    outer loop
      vertex 74.8633 11 39.0624
      vertex 66.7213 11 29.2203
      vertex 74.0237 11 38.6346
    endloop
  endfacet
  facet normal -0.0941082 0 0.995562
    outer loop
      vertex 79.37 11 40.3717
      vertex 80.3081 -1 40.4604
      vertex 80.3081 11 40.4604
    endloop
  endfacet
  facet normal -0.0941082 0 0.995562
    outer loop
      vertex 80.3081 -1 40.4604
      vertex 79.37 11 40.3717
      vertex 79.37 -1 40.3717
    endloop
  endfacet
  facet normal 0.860741 -0 0.509043
    outer loop
      vertex 93.9149 -1 33.5274
      vertex 94.3946 11 32.7163
      vertex 93.9149 11 33.5274
    endloop
  endfacet
  facet normal 0.860741 0 0.509043
    outer loop
      vertex 94.3946 11 32.7163
      vertex 93.9149 -1 33.5274
      vertex 94.3946 -1 32.7163
    endloop
  endfacet
  facet normal 1.39556e-06 1 8.25335e-07
    outer loop
      vertex 95.7787 11 29.2203
      vertex 93.9149 11 33.5274
      vertex 94.3946 11 32.7163
    endloop
  endfacet
  facet normal 0.156433 0 0.987689
    outer loop
      vertex 83.13 11 40.3717
      vertex 84.0607 -1 40.2243
      vertex 84.0607 11 40.2243
    endloop
  endfacet
  facet normal 0.156433 0 0.987689
    outer loop
      vertex 84.0607 -1 40.2243
      vertex 83.13 11 40.3717
      vertex 83.13 -1 40.3717
    endloop
  endfacet
  facet normal 1.65113e-08 1 1.04249e-07
    outer loop
      vertex 95.7787 11 29.2203
      vertex 83.13 11 40.3717
      vertex 84.0607 11 40.2243
    endloop
  endfacet
  facet normal 8.53464e-08 1 1.67503e-07
    outer loop
      vertex 95.7787 11 29.2203
      vertex 87.6367 11 39.0624
      vertex 88.4763 11 38.6346
    endloop
  endfacet
  facet normal 6.53127e-08 1 1.50929e-07
    outer loop
      vertex 95.7787 11 29.2203
      vertex 86.7719 11 39.4366
      vertex 87.6367 11 39.0624
    endloop
  endfacet
  facet normal 0.562081 0 0.827082
    outer loop
      vertex 89.2874 11 38.1549
      vertex 90.0668 -1 37.6253
      vertex 90.0668 11 37.6253
    endloop
  endfacet
  facet normal 0.562081 0 0.827082
    outer loop
      vertex 90.0668 -1 37.6253
      vertex 89.2874 11 38.1549
      vertex 89.2874 -1 38.1549
    endloop
  endfacet
  facet normal 1.4329e-07 1 2.10846e-07
    outer loop
      vertex 95.7787 11 29.2203
      vertex 89.2874 11 38.1549
      vertex 90.0668 11 37.6253
    endloop
  endfacet
  facet normal -0.960293 0 0.278993
    outer loop
      vertex 66.7213 -1 29.2203
      vertex 66.9842 11 30.1253
      vertex 66.7213 11 29.2203
    endloop
  endfacet
  facet normal -0.960293 0 0.278993
    outer loop
      vertex 66.9842 11 30.1253
      vertex 66.7213 -1 29.2203
      vertex 66.9842 -1 30.1253
    endloop
  endfacet
  facet normal -0.940881 0 0.338737
    outer loop
      vertex 66.9842 -1 30.1253
      vertex 67.3034 11 31.0119
      vertex 66.9842 11 30.1253
    endloop
  endfacet
  facet normal -0.940881 0 0.338737
    outer loop
      vertex 67.3034 11 31.0119
      vertex 66.9842 -1 30.1253
      vertex 67.3034 -1 31.0119
    endloop
  endfacet
  facet normal -1.51656e-05 1 5.45993e-06
    outer loop
      vertex 67.3034 11 31.0119
      vertex 66.7213 11 29.2203
      vertex 66.9842 11 30.1253
    endloop
  endfacet
  facet normal -0.917754 0 0.39715
    outer loop
      vertex 67.3034 -1 31.0119
      vertex 67.6776 11 31.8767
      vertex 67.3034 11 31.0119
    endloop
  endfacet
  facet normal -0.917754 0 0.39715
    outer loop
      vertex 67.6776 11 31.8767
      vertex 67.3034 -1 31.0119
      vertex 67.6776 -1 31.8767
    endloop
  endfacet
  facet normal -0.891007 0 0.453989
    outer loop
      vertex 67.6776 -1 31.8767
      vertex 68.1054 11 32.7163
      vertex 67.6776 11 31.8767
    endloop
  endfacet
  facet normal -0.891007 0 0.453989
    outer loop
      vertex 68.1054 11 32.7163
      vertex 67.6776 -1 31.8767
      vertex 68.1054 -1 32.7163
    endloop
  endfacet
  facet normal -2.40146e-06 1 1.2236e-06
    outer loop
      vertex 68.1054 11 32.7163
      vertex 66.7213 11 29.2203
      vertex 67.6776 11 31.8767
    endloop
  endfacet
  facet normal -4.39542e-07 1 3.8751e-07
    outer loop
      vertex 70.3155 11 35.7582
      vertex 66.7213 11 29.2203
      vertex 69.6923 11 35.0514
    endloop
  endfacet
  facet normal -1.4329e-07 1 2.10846e-07
    outer loop
      vertex 73.2126 11 38.1549
      vertex 66.7213 11 29.2203
      vertex 72.4332 11 37.6253
    endloop
  endfacet
  facet normal -0.562081 0 0.827082
    outer loop
      vertex 72.4332 11 37.6253
      vertex 73.2126 -1 38.1549
      vertex 73.2126 11 38.1549
    endloop
  endfacet
  facet normal -0.562081 0 0.827082
    outer loop
      vertex 73.2126 -1 38.1549
      vertex 72.4332 11 37.6253
      vertex 72.4332 -1 37.6253
    endloop
  endfacet
  facet normal -0.509043 0 0.860741
    outer loop
      vertex 73.2126 11 38.1549
      vertex 74.0237 -1 38.6346
      vertex 74.0237 11 38.6346
    endloop
  endfacet
  facet normal -0.509043 0 0.860741
    outer loop
      vertex 74.0237 -1 38.6346
      vertex 73.2126 11 38.1549
      vertex 73.2126 -1 38.1549
    endloop
  endfacet
  facet normal -4.92352e-08 1 1.36755e-07
    outer loop
      vertex 76.6147 11 39.7558
      vertex 66.7213 11 29.2203
      vertex 75.7281 11 39.4366
    endloop
  endfacet
  facet normal -0.661311 0 0.750112
    outer loop
      vertex 70.9818 11 36.4245
      vertex 71.6886 -1 37.0477
      vertex 71.6886 11 37.0477
    endloop
  endfacet
  facet normal -0.661311 0 0.750112
    outer loop
      vertex 71.6886 -1 37.0477
      vertex 70.9818 11 36.4245
      vertex 70.9818 -1 36.4245
    endloop
  endfacet
  facet normal -0.156433 0 0.987689
    outer loop
      vertex 78.4393 11 40.2243
      vertex 79.37 -1 40.3717
      vertex 79.37 11 40.3717
    endloop
  endfacet
  facet normal -0.156433 0 0.987689
    outer loop
      vertex 79.37 -1 40.3717
      vertex 78.4393 11 40.2243
      vertex 78.4393 -1 40.2243
    endloop
  endfacet
  facet normal -0.031414 0 0.999506
    outer loop
      vertex 80.3081 11 40.4604
      vertex 81.25 -1 40.49
      vertex 81.25 11 40.49
    endloop
  endfacet
  facet normal -0.031414 0 0.999506
    outer loop
      vertex 81.25 -1 40.49
      vertex 80.3081 11 40.4604
      vertex 80.3081 -1 40.4604
    endloop
  endfacet
  facet normal -0.790158 0 0.612904
    outer loop
      vertex 69.1147 -1 34.3068
      vertex 69.6923 11 35.0514
      vertex 69.1147 11 34.3068
    endloop
  endfacet
  facet normal -0.790158 0 0.612904
    outer loop
      vertex 69.6923 11 35.0514
      vertex 69.1147 -1 34.3068
      vertex 69.6923 -1 35.0514
    endloop
  endfacet
  facet normal -6.14516e-07 1 4.76663e-07
    outer loop
      vertex 69.6923 11 35.0514
      vertex 66.7213 11 29.2203
      vertex 69.1147 11 34.3068
    endloop
  endfacet
  facet normal -0.707105 0 0.707109
    outer loop
      vertex 70.3155 11 35.7582
      vertex 70.9818 -1 36.4245
      vertex 70.9818 11 36.4245
    endloop
  endfacet
  facet normal -0.707105 0 0.707109
    outer loop
      vertex 70.9818 -1 36.4245
      vertex 70.3155 11 35.7582
      vertex 70.3155 -1 35.7582
    endloop
  endfacet
  facet normal -3.23974e-07 1 3.23975e-07
    outer loop
      vertex 70.9818 11 36.4245
      vertex 66.7213 11 29.2203
      vertex 70.3155 11 35.7582
    endloop
  endfacet
  facet normal -0.860741 0 0.509043
    outer loop
      vertex 68.1054 -1 32.7163
      vertex 68.5851 11 33.5274
      vertex 68.1054 11 32.7163
    endloop
  endfacet
  facet normal -0.860741 0 0.509043
    outer loop
      vertex 68.5851 11 33.5274
      vertex 68.1054 -1 32.7163
      vertex 68.5851 -1 33.5274
    endloop
  endfacet
  facet normal -0.61291 0 0.790153
    outer loop
      vertex 71.6886 11 37.0477
      vertex 72.4332 -1 37.6253
      vertex 72.4332 11 37.6253
    endloop
  endfacet
  facet normal -0.61291 0 0.790153
    outer loop
      vertex 72.4332 -1 37.6253
      vertex 71.6886 11 37.0477
      vertex 71.6886 -1 37.0477
    endloop
  endfacet
  facet normal -1.86138e-07 1 2.39965e-07
    outer loop
      vertex 72.4332 11 37.6253
      vertex 66.7213 11 29.2203
      vertex 71.6886 11 37.0477
    endloop
  endfacet
  facet normal -1.10685e-07 1 1.87157e-07
    outer loop
      vertex 74.0237 11 38.6346
      vertex 66.7213 11 29.2203
      vertex 73.2126 11 38.1549
    endloop
  endfacet
  facet normal -0.453989 0 0.891007
    outer loop
      vertex 74.0237 11 38.6346
      vertex 74.8633 -1 39.0624
      vertex 74.8633 11 39.0624
    endloop
  endfacet
  facet normal -0.453989 0 0.891007
    outer loop
      vertex 74.8633 -1 39.0624
      vertex 74.0237 11 38.6346
      vertex 74.0237 -1 38.6346
    endloop
  endfacet
  facet normal -0.397147 0 0.917755
    outer loop
      vertex 74.8633 11 39.0624
      vertex 75.7281 -1 39.4366
      vertex 75.7281 11 39.4366
    endloop
  endfacet
  facet normal -0.397147 0 0.917755
    outer loop
      vertex 75.7281 -1 39.4366
      vertex 74.8633 11 39.0624
      vertex 74.8633 -1 39.0624
    endloop
  endfacet
  facet normal -6.53127e-08 1 1.50929e-07
    outer loop
      vertex 75.7281 11 39.4366
      vertex 66.7213 11 29.2203
      vertex 74.8633 11 39.0624
    endloop
  endfacet
  facet normal -0.278989 0 0.960294
    outer loop
      vertex 76.6147 11 39.7558
      vertex 77.5197 -1 40.0187
      vertex 77.5197 11 40.0187
    endloop
  endfacet
  facet normal -0.278989 0 0.960294
    outer loop
      vertex 77.5197 -1 40.0187
      vertex 76.6147 11 39.7558
      vertex 76.6147 -1 39.7558
    endloop
  endfacet
  facet normal -3.61648e-08 1 1.24481e-07
    outer loop
      vertex 77.5197 11 40.0187
      vertex 66.7213 11 29.2203
      vertex 76.6147 11 39.7558
    endloop
  endfacet
  facet normal -0.827081 0 0.562083
    outer loop
      vertex 68.5851 -1 33.5274
      vertex 69.1147 11 34.3068
      vertex 68.5851 11 33.5274
    endloop
  endfacet
  facet normal -0.827081 0 0.562083
    outer loop
      vertex 69.1147 11 34.3068
      vertex 68.5851 -1 33.5274
      vertex 69.1147 -1 34.3068
    endloop
  endfacet
  facet normal -8.96956e-07 1 6.0957e-07
    outer loop
      vertex 69.1147 11 34.3068
      vertex 66.7213 11 29.2203
      vertex 68.5851 11 33.5274
    endloop
  endfacet
  facet normal -1 0 0
    outer loop
      vertex 66.25 -1 11.59
      vertex 66.25 11 25.49
      vertex 66.25 11 11.59
    endloop
  endfacet
  facet normal -1 -0 0
    outer loop
      vertex 66.25 11 25.49
      vertex 66.25 -1 11.59
      vertex 66.25 -1 25.49
    endloop
  endfacet
  facet normal 1 -0 0
    outer loop
      vertex 96.25 -1 25.49
      vertex 96.25 11 11.59
      vertex 96.25 11 25.49
    endloop
  endfacet
  facet normal 1 0 0
    outer loop
      vertex 96.25 11 11.59
      vertex 96.25 -1 25.49
      vertex 96.25 -1 11.59
    endloop
  endfacet
  facet normal 0 0 -1
    outer loop
      vertex 66.3 -1 12.59
      vertex 75.5 11 12.59
      vertex 75.5 -1 12.59
    endloop
  endfacet
  facet normal -0 0 -1
    outer loop
      vertex 75.5 11 12.59
      vertex 66.3 -1 12.59
      vertex 66.3 11 12.59
    endloop
  endfacet
  facet normal 0 0 -1
    outer loop
      vertex 76.5 -1 12.59
      vertex 85.7 11 12.59
      vertex 85.7 -1 12.59
    endloop
  endfacet
  facet normal -0 0 -1
    outer loop
      vertex 85.7 11 12.59
      vertex 76.5 -1 12.59
      vertex 76.5 11 12.59
    endloop
  endfacet
  facet normal 0 0 -1
    outer loop
      vertex 86.7 -1 12.59
      vertex 95.9 11 12.59
      vertex 95.9 -1 12.59
    endloop
  endfacet
  facet normal -0 0 -1
    outer loop
      vertex 95.9 11 12.59
      vertex 86.7 -1 12.59
      vertex 86.7 11 12.59
    endloop
  endfacet
  facet normal 0 0 -1
    outer loop
      vertex 66.25 -1 11.59
      vertex 66.3 11 11.59
      vertex 66.3 -1 11.59
    endloop
  endfacet
  facet normal -0 0 -1
    outer loop
      vertex 66.3 11 11.59
      vertex 66.25 -1 11.59
      vertex 66.25 11 11.59
    endloop
  endfacet
  facet normal 0 0 -1
    outer loop
      vertex 95.9 -1 11.59
      vertex 96.25 11 11.59
      vertex 96.25 -1 11.59
    endloop
  endfacet
  facet normal -0 0 -1
    outer loop
      vertex 96.25 11 11.59
      vertex 95.9 -1 11.59
      vertex 95.9 11 11.59
    endloop
  endfacet
  facet normal 0 0 -1
    outer loop
      vertex 75.5 -1 11.59
      vertex 76.5 11 11.59
      vertex 76.5 -1 11.59
    endloop
  endfacet
  facet normal -0 0 -1
    outer loop
      vertex 76.5 11 11.59
      vertex 75.5 -1 11.59
      vertex 75.5 11 11.59
    endloop
  endfacet
  facet normal 0 0 -1
    outer loop
      vertex 85.7 -1 11.59
      vertex 86.7 11 11.59
      vertex 86.7 -1 11.59
    endloop
  endfacet
  facet normal -0 0 -1
    outer loop
      vertex 86.7 11 11.59
      vertex 85.7 -1 11.59
      vertex 85.7 11 11.59
    endloop
  endfacet
endsolid OpenSCAD_Model
