solid OpenSCAD_Model
  facet normal 0 -1 0
    outer loop
      vertex 44.9 -1 11.59
      vertex 45.9 -1 12.59
      vertex 44.9 -1 12.59
    endloop
  endfacet
  facet normal 0 -1 -0
    outer loop
      vertex 45.9 -1 12.59
      vertex 44.9 -1 11.59
      vertex 45.9 -1 11.59
    endloop
  endfacet
  facet normal 0 -1 0
    outer loop
      vertex 34.7 -1 11.59
      vertex 35.7 -1 12.59
      vertex 34.7 -1 12.59
    endloop
  endfacet
  facet normal 0 -1 -0
    outer loop
      vertex 35.7 -1 12.59
      vertex 34.7 -1 11.59
      vertex 35.7 -1 11.59
    endloop
  endfacet
  facet normal 0 -1 0
    outer loop
      vertex 24.5 -1 11.59
      vertex 25.5 -1 12.59
      vertex 24.5 -1 12.59
    endloop
  endfacet
  facet normal 0 -1 -0
    outer loop
      vertex 25.5 -1 12.59
      vertex 24.5 -1 11.59
      vertex 25.5 -1 11.59
    endloop
  endfacet
  facet normal 0 -1 0
    outer loop
      vertex 30.3081 -1 40.4604
      vertex 32.1919 -1 40.4604
      vertex 31.25 -1 40.49
    endloop
  endfacet
  facet normal 0 -1 0
    outer loop
      vertex 29.37 -1 40.3717
      vertex 32.1919 -1 40.4604
      vertex 30.3081 -1 40.4604
    endloop
  endfacet
  facet normal 0 -1 0
    outer loop
      vertex 29.37 -1 40.3717
      vertex 33.13 -1 40.3717
      vertex 32.1919 -1 40.4604
    endloop
  endfacet
  facet normal 0 -1 0
    outer loop
      vertex 28.4393 -1 40.2243
      vertex 33.13 -1 40.3717
      vertex 29.37 -1 40.3717
    endloop
  endfacet
  facet normal 0 -1 0
    outer loop
      vertex 34.7 -1 12.59
      vertex 33.13 -1 40.3717
      vertex 28.4393 -1 40.2243
    endloop
  endfacet
  facet normal 0 -1 0
    outer loop
      vertex 34.7 -1 12.59
      vertex 28.4393 -1 40.2243
      vertex 27.5197 -1 40.0187
    endloop
  endfacet
  facet normal 0 -1 0
    outer loop
      vertex 33.13 -1 40.3717
      vertex 34.7 -1 12.59
      vertex 34.0607 -1 40.2243
    endloop
  endfacet
  facet normal 0 -1 0
    outer loop
      vertex 34.7 -1 12.59
      vertex 27.5197 -1 40.0187
      vertex 26.6147 -1 39.7558
    endloop
  endfacet
  facet normal 0 -1 0
    outer loop
      vertex 34.0607 -1 40.2243
      vertex 34.7 -1 12.59
      vertex 34.9803 -1 40.0187
    endloop
  endfacet
  facet normal 0 -1 0
    outer loop
      vertex 34.7 -1 12.59
      vertex 26.6147 -1 39.7558
      vertex 25.7281 -1 39.4366
    endloop
  endfacet
  facet normal 0 -1 -0
    outer loop
      vertex 34.9803 -1 40.0187
      vertex 34.7 -1 12.59
      vertex 35.8853 -1 39.7558
    endloop
  endfacet
  facet normal 0 -1 0
    outer loop
      vertex 34.7 -1 12.59
      vertex 25.7281 -1 39.4366
      vertex 24.8633 -1 39.0624
    endloop
  endfacet
  facet normal 0 -1 -0
    outer loop
      vertex 35.8853 -1 39.7558
      vertex 34.7 -1 12.59
      vertex 36.7719 -1 39.4366
    endloop
  endfacet
  facet normal 0 -1 0
    outer loop
      vertex 34.7 -1 12.59
      vertex 24.8633 -1 39.0624
      vertex 24.0237 -1 38.6346
    endloop
  endfacet
  facet normal 0 -1 -0
    outer loop
      vertex 36.7719 -1 39.4366
      vertex 34.7 -1 12.59
      vertex 37.6367 -1 39.0624
    endloop
  endfacet
  facet normal 0 -1 0
    outer loop
      vertex 34.7 -1 12.59
      vertex 24.0237 -1 38.6346
      vertex 23.2126 -1 38.1549
    endloop
  endfacet
  facet normal 0 -1 -0
    outer loop
      vertex 37.6367 -1 39.0624
      vertex 34.7 -1 12.59
      vertex 38.4763 -1 38.6346
    endloop
  endfacet
  facet normal 0 -1 0
    outer loop
      vertex 34.7 -1 12.59
      vertex 23.2126 -1 38.1549
      vertex 22.4332 -1 37.6253
    endloop
  endfacet
  facet normal 0 -1 -0
    outer loop
      vertex 38.4763 -1 38.6346
      vertex 34.7 -1 12.59
      vertex 39.2874 -1 38.1549
    endloop
  endfacet
  facet normal 0 -1 0
    outer loop
      vertex 34.7 -1 12.59
      vertex 22.4332 -1 37.6253
      vertex 21.6886 -1 37.0477
    endloop
  endfacet
  facet normal 0 -1 -0
    outer loop
      vertex 39.2874 -1 38.1549
      vertex 34.7 -1 12.59
      vertex 40.0668 -1 37.6253
    endloop
  endfacet
  facet normal 0 -1 0
    outer loop
      vertex 34.7 -1 12.59
      vertex 21.6886 -1 37.0477
      vertex 20.9818 -1 36.4245
    endloop
  endfacet
  facet normal 0 -1 -0
    outer loop
      vertex 40.0668 -1 37.6253
      vertex 34.7 -1 12.59
      vertex 40.8114 -1 37.0477
    endloop
  endfacet
  facet normal 0 -1 0
    outer loop
      vertex 34.7 -1 12.59
      vertex 20.9818 -1 36.4245
      vertex 20.3155 -1 35.7582
    endloop
  endfacet
  facet normal 0 -1 -0
    outer loop
      vertex 40.8114 -1 37.0477
      vertex 34.7 -1 12.59
      vertex 41.5182 -1 36.4245
    endloop
  endfacet
  facet normal 0 -1 0
    outer loop
      vertex 34.7 -1 12.59
      vertex 20.3155 -1 35.7582
      vertex 19.6923 -1 35.0514
    endloop
  endfacet
  facet normal 0 -1 -0
    outer loop
      vertex 41.5182 -1 36.4245
      vertex 34.7 -1 12.59
      vertex 42.1845 -1 35.7582
    endloop
  endfacet
  facet normal 0 -1 0
    outer loop
      vertex 34.7 -1 12.59
      vertex 19.6923 -1 35.0514
      vertex 19.1147 -1 34.3068
    endloop
  endfacet
  facet normal 0 -1 -0
    outer loop
      vertex 42.1845 -1 35.7582
      vertex 34.7 -1 12.59
      vertex 42.8077 -1 35.0514
    endloop
  endfacet
  facet normal 0 -1 0
    outer loop
      vertex 34.7 -1 12.59
      vertex 19.1147 -1 34.3068
      vertex 18.5851 -1 33.5274
    endloop
  endfacet
  facet normal 0 -1 -0
    outer loop
      vertex 42.8077 -1 35.0514
      vertex 34.7 -1 12.59
      vertex 43.3853 -1 34.3068
    endloop
  endfacet
  facet normal 0 -1 0
    outer loop
      vertex 34.7 -1 12.59
      vertex 18.5851 -1 33.5274
      vertex 18.1054 -1 32.7163
    endloop
  endfacet
  facet normal 0 -1 -0
    outer loop
      vertex 43.3853 -1 34.3068
      vertex 34.7 -1 12.59
      vertex 43.9149 -1 33.5274
    endloop
  endfacet
  facet normal 0 -1 0
    outer loop
      vertex 34.7 -1 12.59
      vertex 18.1054 -1 32.7163
      vertex 17.6776 -1 31.8767
    endloop
  endfacet
  facet normal 0 -1 -0
    outer loop
      vertex 43.9149 -1 33.5274
      vertex 34.7 -1 12.59
      vertex 44.3946 -1 32.7163
    endloop
  endfacet
  facet normal 0 -1 0
    outer loop
      vertex 34.7 -1 12.59
      vertex 17.6776 -1 31.8767
      vertex 17.3034 -1 31.0119
    endloop
  endfacet
  facet normal 0 -1 -0
    outer loop
      vertex 44.3946 -1 32.7163
      vertex 34.7 -1 12.59
      vertex 44.8224 -1 31.8767
    endloop
  endfacet
  facet normal 0 -1 0
    outer loop
      vertex 34.7 -1 12.59
      vertex 17.3034 -1 31.0119
      vertex 16.9842 -1 30.1253
    endloop
  endfacet
  facet normal 0 -1 -0
    outer loop
      vertex 44.8224 -1 31.8767
      vertex 34.7 -1 12.59
      vertex 45.1966 -1 31.0119
    endloop
  endfacet
  facet normal 0 -1 0
    outer loop
      vertex 34.7 -1 12.59
      vertex 16.9842 -1 30.1253
      vertex 16.7213 -1 29.2203
    endloop
  endfacet
  facet normal 0 -1 -0
    outer loop
      vertex 45.1966 -1 31.0119
      vertex 34.7 -1 12.59
      vertex 45.5158 -1 30.1253
    endloop
  endfacet
  facet normal 0 -1 0
    outer loop
      vertex 34.7 -1 12.59
      vertex 16.7213 -1 29.2203
      vertex 16.5157 -1 28.3007
    endloop
  endfacet
  facet normal 0 -1 -0
    outer loop
      vertex 45.5158 -1 30.1253
      vertex 34.7 -1 12.59
      vertex 45.7787 -1 29.2203
    endloop
  endfacet
  facet normal 0 -1 0
    outer loop
      vertex 34.7 -1 12.59
      vertex 16.5157 -1 28.3007
      vertex 16.3683 -1 27.37
    endloop
  endfacet
  facet normal 0 -1 -0
    outer loop
      vertex 45.7787 -1 29.2203
      vertex 34.7 -1 12.59
      vertex 45.9843 -1 28.3007
    endloop
  endfacet
  facet normal 0 -1 0
    outer loop
      vertex 34.7 -1 12.59
      vertex 16.3683 -1 27.37
      vertex 16.2796 -1 26.4319
    endloop
  endfacet
  facet normal 0 -1 -0
    outer loop
      vertex 45.9843 -1 28.3007
      vertex 34.7 -1 12.59
      vertex 46.1317 -1 27.37
    endloop
  endfacet
  facet normal 0 -1 0
    outer loop
      vertex 34.7 -1 12.59
      vertex 16.2796 -1 26.4319
      vertex 16.25 -1 25.49
    endloop
  endfacet
  facet normal 0 -1 -0
    outer loop
      vertex 46.1317 -1 27.37
      vertex 34.7 -1 12.59
      vertex 46.2204 -1 26.4319
    endloop
  endfacet
  facet normal 0 -1 0
    outer loop
      vertex 24.5 -1 12.59
      vertex 16.25 -1 25.49
      vertex 16.25 -1 12.59
    endloop
  endfacet
  facet normal 0 -1 0
    outer loop
      vertex 25.5 -1 12.59
      vertex 16.25 -1 25.49
      vertex 24.5 -1 12.59
    endloop
  endfacet
  facet normal 0 -1 0
    outer loop
      vertex 34.7 -1 12.59
      vertex 16.25 -1 25.49
      vertex 25.5 -1 12.59
    endloop
  endfacet
  facet normal 0 -1 -0
    outer loop
      vertex 46.2204 -1 26.4319
      vertex 34.7 -1 12.59
      vertex 46.25 -1 25.49
    endloop
  endfacet
  facet normal 0 -1 0
    outer loop
      vertex 35.7 -1 12.59
      vertex 46.25 -1 25.49
      vertex 34.7 -1 12.59
    endloop
  endfacet
  facet normal 0 -1 0
    outer loop
      vertex 44.9 -1 12.59
      vertex 46.25 -1 25.49
      vertex 35.7 -1 12.59
    endloop
  endfacet
  facet normal 0 -1 0
    outer loop
      vertex 45.9 -1 12.59
      vertex 46.25 -1 25.49
      vertex 44.9 -1 12.59
    endloop
  endfacet
  facet normal 0 -1 -0
    outer loop
      vertex 46.25 -1 25.49
      vertex 45.9 -1 12.59
      vertex 46.25 -1 12.59
    endloop
  endfacet
  facet normal -1 0 0
    outer loop
      vertex 24.5 -1 11.59
      vertex 24.5 11 12.59
      vertex 24.5 11 11.59
    endloop
  endfacet
  facet normal -1 -0 0
    outer loop
      vertex 24.5 11 12.59
      vertex 24.5 -1 11.59
      vertex 24.5 -1 12.59
    endloop
  endfacet
  facet normal 1 -0 0
    outer loop
      vertex 25.5 -1 12.59
      vertex 25.5 11 11.59
      vertex 25.5 11 12.59
    endloop
  endfacet
  facet normal 1 0 0
    outer loop
      vertex 25.5 11 11.59
      vertex 25.5 -1 12.59
      vertex 25.5 -1 11.59
    endloop
  endfacet
  facet normal -1 0 0
    outer loop
      vertex 34.7 -1 11.59
      vertex 34.7 11 12.59
      vertex 34.7 11 11.59
    endloop
  endfacet
  facet normal -1 -0 0
    outer loop
      vertex 34.7 11 12.59
      vertex 34.7 -1 11.59
      vertex 34.7 -1 12.59
    endloop
  endfacet
  facet normal 1 -0 0
    outer loop
      vertex 35.7 -1 12.59
      vertex 35.7 11 11.59
      vertex 35.7 11 12.59
    endloop
  endfacet
  facet normal 1 0 0
    outer loop
      vertex 35.7 11 11.59
      vertex 35.7 -1 12.59
      vertex 35.7 -1 11.59
    endloop
  endfacet
  facet normal -1 0 0
    outer loop
      vertex 44.9 -1 11.59
      vertex 44.9 11 12.59
      vertex 44.9 11 11.59
    endloop
  endfacet
  facet normal -1 -0 0
    outer loop
      vertex 44.9 11 12.59
      vertex 44.9 -1 11.59
      vertex 44.9 -1 12.59
    endloop
  endfacet
  facet normal 1 -0 0
    outer loop
      vertex 45.9 -1 12.59
      vertex 45.9 11 11.59
      vertex 45.9 11 12.59
    endloop
  endfacet
  facet normal 1 0 0
    outer loop
      vertex 45.9 11 11.59
      vertex 45.9 -1 12.59
      vertex 45.9 -1 11.59
    endloop
  endfacet
  facet normal -0.995562 0 0.0941102
    outer loop
      vertex 16.2796 -1 26.4319
      vertex 16.3683 11 27.37
      vertex 16.2796 11 26.4319
    endloop
  endfacet
  facet normal -0.995562 0 0.0941102
    outer loop
      vertex 16.3683 11 27.37
      vertex 16.2796 -1 26.4319
      vertex 16.3683 -1 27.37
    endloop
  endfacet
  facet normal -0.975917 0 0.218143
    outer loop
      vertex 16.5157 -1 28.3007
      vertex 16.7213 11 29.2203
      vertex 16.5157 11 28.3007
    endloop
  endfacet
  facet normal -0.975917 0 0.218143
    outer loop
      vertex 16.7213 11 29.2203
      vertex 16.5157 -1 28.3007
      vertex 16.7213 -1 29.2203
    endloop
  endfacet
  facet normal 0.156434 0 0.987688
    outer loop
      vertex 33.13 11 40.3717
      vertex 34.0607 -1 40.2243
      vertex 34.0607 11 40.2243
    endloop
  endfacet
  facet normal 0.156434 0 0.987688
    outer loop
      vertex 34.0607 -1 40.2243
      vertex 33.13 11 40.3717
      vertex 33.13 -1 40.3717
    endloop
  endfacet
  facet normal 0.827081 -0 0.562083
    outer loop
      vertex 43.3853 -1 34.3068
      vertex 43.9149 11 33.5274
      vertex 43.3853 11 34.3068
    endloop
  endfacet
  facet normal 0.827081 0 0.562083
    outer loop
      vertex 43.9149 11 33.5274
      vertex 43.3853 -1 34.3068
      vertex 43.9149 -1 33.5274
    endloop
  endfacet
  facet normal -2.54242e-08 1 1.1374e-07
    outer loop
      vertex 28.4393 11 40.2243
      vertex 16.7213 11 29.2203
      vertex 27.5197 11 40.0187
    endloop
  endfacet
  facet normal -0.33874 0 0.94088
    outer loop
      vertex 25.7281 11 39.4366
      vertex 26.6147 -1 39.7558
      vertex 26.6147 11 39.7558
    endloop
  endfacet
  facet normal -0.33874 0 0.94088
    outer loop
      vertex 26.6147 -1 39.7558
      vertex 25.7281 11 39.4366
      vertex 25.7281 -1 39.4366
    endloop
  endfacet
  facet normal 4.92352e-08 1 1.36755e-07
    outer loop
      vertex 45.7787 11 29.2203
      vertex 35.8853 11 39.7558
      vertex 36.7719 11 39.4366
    endloop
  endfacet
  facet normal 0.562081 0 0.827082
    outer loop
      vertex 39.2874 11 38.1549
      vertex 40.0668 -1 37.6253
      vertex 40.0668 11 37.6253
    endloop
  endfacet
  facet normal 0.562081 0 0.827082
    outer loop
      vertex 40.0668 -1 37.6253
      vertex 39.2874 11 38.1549
      vertex 39.2874 -1 38.1549
    endloop
  endfacet
  facet normal 0.0941082 0 0.995562
    outer loop
      vertex 32.1919 11 40.4604
      vertex 33.13 -1 40.3717
      vertex 33.13 11 40.3717
    endloop
  endfacet
  facet normal 0.0941082 0 0.995562
    outer loop
      vertex 33.13 -1 40.3717
      vertex 32.1919 11 40.4604
      vertex 32.1919 -1 40.4604
    endloop
  endfacet
  facet normal 0 1 8.46232e-08
    outer loop
      vertex 45.7787 11 29.2203
      vertex 16.7213 11 29.2203
      vertex 31.25 11 40.49
    endloop
  endfacet
  facet normal -0.999507 0 0.0314099
    outer loop
      vertex 16.2796 -1 26.4319
      vertex 16.25 11 25.49
      vertex 16.25 -1 25.49
    endloop
  endfacet
  facet normal -2.43844e-07 1 2.76587e-07
    outer loop
      vertex 21.6886 11 37.0477
      vertex 16.7213 11 29.2203
      vertex 20.9818 11 36.4245
    endloop
  endfacet
  facet normal -9.05496e-09 1 9.57917e-08
    outer loop
      vertex 30.3081 11 40.4604
      vertex 16.7213 11 29.2203
      vertex 29.37 11 40.3717
    endloop
  endfacet
  facet normal 0.031414 0 0.999506
    outer loop
      vertex 31.25 11 40.49
      vertex 32.1919 -1 40.4604
      vertex 32.1919 11 40.4604
    endloop
  endfacet
  facet normal 0.031414 0 0.999506
    outer loop
      vertex 32.1919 -1 40.4604
      vertex 31.25 11 40.49
      vertex 31.25 -1 40.49
    endloop
  endfacet
  facet normal 3.23978e-07 1 3.23978e-07
    outer loop
      vertex 45.7787 11 29.2203
      vertex 41.5182 11 36.4245
      vertex 42.1845 11 35.7582
    endloop
  endfacet
  facet normal 1.51656e-05 1 5.45993e-06
    outer loop
      vertex 45.7787 11 29.2203
      vertex 45.1966 11 31.0119
      vertex 45.5158 11 30.1253
    endloop
  endfacet
  facet normal 0.960293 -0 0.278993
    outer loop
      vertex 45.5158 -1 30.1253
      vertex 45.7787 11 29.2203
      vertex 45.5158 11 30.1253
    endloop
  endfacet
  facet normal 0.960293 0 0.278993
    outer loop
      vertex 45.7787 11 29.2203
      vertex 45.5158 -1 30.1253
      vertex 45.7787 -1 29.2203
    endloop
  endfacet
  facet normal 0.612908 0 0.790154
    outer loop
      vertex 40.0668 11 37.6253
      vertex 40.8114 -1 37.0477
      vertex 40.8114 11 37.0477
    endloop
  endfacet
  facet normal 0.612908 0 0.790154
    outer loop
      vertex 40.8114 -1 37.0477
      vertex 40.0668 11 37.6253
      vertex 40.0668 -1 37.6253
    endloop
  endfacet
  facet normal 1.86136e-07 1 2.39964e-07
    outer loop
      vertex 45.7787 11 29.2203
      vertex 40.0668 11 37.6253
      vertex 40.8114 11 37.0477
    endloop
  endfacet
  facet normal 0 1 -0
    outer loop
      vertex 25.5 11 11.59
      vertex 24.5 11 12.59
      vertex 25.5 11 12.59
    endloop
  endfacet
  facet normal 0 1 0
    outer loop
      vertex 24.5 11 12.59
      vertex 25.5 11 11.59
      vertex 24.5 11 11.59
    endloop
  endfacet
  facet normal 0 1 -0
    outer loop
      vertex 35.7 11 11.59
      vertex 34.7 11 12.59
      vertex 35.7 11 12.59
    endloop
  endfacet
  facet normal 0 1 0
    outer loop
      vertex 34.7 11 12.59
      vertex 35.7 11 11.59
      vertex 34.7 11 11.59
    endloop
  endfacet
  facet normal 0 1 -0
    outer loop
      vertex 45.9 11 11.59
      vertex 44.9 11 12.59
      vertex 45.9 11 12.59
    endloop
  endfacet
  facet normal 0 1 0
    outer loop
      vertex 44.9 11 12.59
      vertex 45.9 11 11.59
      vertex 44.9 11 11.59
    endloop
  endfacet
  facet normal 0 1 0
    outer loop
      vertex 34.7 11 12.59
      vertex 45.7787 11 29.2203
      vertex 45.9843 11 28.3007
    endloop
  endfacet
  facet normal 0 1 0
    outer loop
      vertex 45.7787 11 29.2203
      vertex 34.7 11 12.59
      vertex 16.7213 11 29.2203
    endloop
  endfacet
  facet normal 0 1 0
    outer loop
      vertex 34.7 11 12.59
      vertex 45.9843 11 28.3007
      vertex 46.1317 11 27.37
    endloop
  endfacet
  facet normal 0 1 0
    outer loop
      vertex 16.7213 11 29.2203
      vertex 34.7 11 12.59
      vertex 16.5157 11 28.3007
    endloop
  endfacet
  facet normal 0 1 0
    outer loop
      vertex 34.7 11 12.59
      vertex 46.1317 11 27.37
      vertex 46.2204 11 26.4319
    endloop
  endfacet
  facet normal 0 1 0
    outer loop
      vertex 16.5157 11 28.3007
      vertex 34.7 11 12.59
      vertex 16.3683 11 27.37
    endloop
  endfacet
  facet normal 0 1 0
    outer loop
      vertex 34.7 11 12.59
      vertex 46.2204 11 26.4319
      vertex 46.25 11 25.49
    endloop
  endfacet
  facet normal 0 1 0
    outer loop
      vertex 16.3683 11 27.37
      vertex 34.7 11 12.59
      vertex 16.2796 11 26.4319
    endloop
  endfacet
  facet normal 0 1 0
    outer loop
      vertex 45.9 11 12.59
      vertex 46.25 11 25.49
      vertex 46.25 11 12.59
    endloop
  endfacet
  facet normal 0 1 0
    outer loop
      vertex 44.9 11 12.59
      vertex 46.25 11 25.49
      vertex 45.9 11 12.59
    endloop
  endfacet
  facet normal 0 1 0
    outer loop
      vertex 35.7 11 12.59
      vertex 46.25 11 25.49
      vertex 44.9 11 12.59
    endloop
  endfacet
  facet normal 0 1 0
    outer loop
      vertex 34.7 11 12.59
      vertex 46.25 11 25.49
      vertex 35.7 11 12.59
    endloop
  endfacet
  facet normal 0 1 0
    outer loop
      vertex 16.2796 11 26.4319
      vertex 34.7 11 12.59
      vertex 16.25 11 25.49
    endloop
  endfacet
  facet normal 0 1 -0
    outer loop
      vertex 25.5 11 12.59
      vertex 16.25 11 25.49
      vertex 34.7 11 12.59
    endloop
  endfacet
  facet normal 0 1 -0
    outer loop
      vertex 24.5 11 12.59
      vertex 16.25 11 25.49
      vertex 25.5 11 12.59
    endloop
  endfacet
  facet normal 0 1 0
    outer loop
      vertex 16.25 11 25.49
      vertex 24.5 11 12.59
      vertex 16.25 11 12.59
    endloop
  endfacet
  facet normal 0.999507 -0 0.0314099
    outer loop
      vertex 46.2204 -1 26.4319
      vertex 46.25 11 25.49
      vertex 46.2204 11 26.4319
    endloop
  endfacet
  facet normal 0.999507 0 0.0314099
    outer loop
      vertex 46.25 11 25.49
      vertex 46.2204 -1 26.4319
      vertex 46.25 -1 25.49
    endloop
  endfacet
  facet normal -0.987688 0 0.156434
    outer loop
      vertex 16.3683 -1 27.37
      vertex 16.5157 11 28.3007
      vertex 16.3683 11 27.37
    endloop
  endfacet
  facet normal -0.987688 0 0.156434
    outer loop
      vertex 16.5157 11 28.3007
      vertex 16.3683 -1 27.37
      vertex 16.5157 -1 28.3007
    endloop
  endfacet
  facet normal -0.999507 0 0.0314099
    outer loop
      vertex 16.2796 11 26.4319
      vertex 16.25 11 25.49
      vertex 16.2796 -1 26.4319
    endloop
  endfacet
  facet normal -0.917754 0 0.397149
    outer loop
      vertex 17.3034 -1 31.0119
      vertex 17.6776 11 31.8767
      vertex 17.3034 11 31.0119
    endloop
  endfacet
  facet normal -0.917754 0 0.397149
    outer loop
      vertex 17.6776 11 31.8767
      vertex 17.3034 -1 31.0119
      vertex 17.6776 -1 31.8767
    endloop
  endfacet
  facet normal -1.65114e-08 1 1.04249e-07
    outer loop
      vertex 29.37 11 40.3717
      vertex 16.7213 11 29.2203
      vertex 28.4393 11 40.2243
    endloop
  endfacet
  facet normal -2.77198e-09 1 8.81968e-08
    outer loop
      vertex 31.25 11 40.49
      vertex 16.7213 11 29.2203
      vertex 30.3081 11 40.4604
    endloop
  endfacet
  facet normal 0.707107 -0 0.707107
    outer loop
      vertex 41.5182 -1 36.4245
      vertex 42.1845 11 35.7582
      vertex 41.5182 11 36.4245
    endloop
  endfacet
  facet normal 0.707107 0 0.707107
    outer loop
      vertex 42.1845 11 35.7582
      vertex 41.5182 -1 36.4245
      vertex 42.1845 -1 35.7582
    endloop
  endfacet
  facet normal 1.39556e-06 1 8.25335e-07
    outer loop
      vertex 45.7787 11 29.2203
      vertex 43.9149 11 33.5274
      vertex 44.3946 11 32.7163
    endloop
  endfacet
  facet normal 4.39543e-07 1 3.87511e-07
    outer loop
      vertex 45.7787 11 29.2203
      vertex 42.1845 11 35.7582
      vertex 42.8077 11 35.0514
    endloop
  endfacet
  facet normal 8.96956e-07 1 6.0957e-07
    outer loop
      vertex 45.7787 11 29.2203
      vertex 43.3853 11 34.3068
      vertex 43.9149 11 33.5274
    endloop
  endfacet
  facet normal 0.940881 -0 0.338737
    outer loop
      vertex 45.1966 -1 31.0119
      vertex 45.5158 11 30.1253
      vertex 45.1966 11 31.0119
    endloop
  endfacet
  facet normal 0.940881 0 0.338737
    outer loop
      vertex 45.5158 11 30.1253
      vertex 45.1966 -1 31.0119
      vertex 45.5158 -1 30.1253
    endloop
  endfacet
  facet normal 0.917754 -0 0.39715
    outer loop
      vertex 44.8224 -1 31.8767
      vertex 45.1966 11 31.0119
      vertex 44.8224 11 31.8767
    endloop
  endfacet
  facet normal 0.917754 0 0.39715
    outer loop
      vertex 45.1966 11 31.0119
      vertex 44.8224 -1 31.8767
      vertex 45.1966 -1 31.0119
    endloop
  endfacet
  facet normal 0.891007 -0 0.453989
    outer loop
      vertex 44.3946 -1 32.7163
      vertex 44.8224 11 31.8767
      vertex 44.3946 11 32.7163
    endloop
  endfacet
  facet normal 0.891007 0 0.453989
    outer loop
      vertex 44.8224 11 31.8767
      vertex 44.3946 -1 32.7163
      vertex 44.8224 -1 31.8767
    endloop
  endfacet
  facet normal 0.975917 -0 0.218141
    outer loop
      vertex 45.7787 -1 29.2203
      vertex 45.9843 11 28.3007
      vertex 45.7787 11 29.2203
    endloop
  endfacet
  facet normal 0.975917 0 0.218141
    outer loop
      vertex 45.9843 11 28.3007
      vertex 45.7787 -1 29.2203
      vertex 45.9843 -1 28.3007
    endloop
  endfacet
  facet normal 1.4329e-07 1 2.10846e-07
    outer loop
      vertex 45.7787 11 29.2203
      vertex 39.2874 11 38.1549
      vertex 40.0668 11 37.6253
    endloop
  endfacet
  facet normal 0.397147 0 0.917755
    outer loop
      vertex 36.7719 11 39.4366
      vertex 37.6367 -1 39.0624
      vertex 37.6367 11 39.0624
    endloop
  endfacet
  facet normal 0.397147 0 0.917755
    outer loop
      vertex 37.6367 -1 39.0624
      vertex 36.7719 11 39.4366
      vertex 36.7719 -1 39.4366
    endloop
  endfacet
  facet normal 0.509043 0 0.860741
    outer loop
      vertex 38.4763 11 38.6346
      vertex 39.2874 -1 38.1549
      vertex 39.2874 11 38.1549
    endloop
  endfacet
  facet normal 0.509043 0 0.860741
    outer loop
      vertex 39.2874 -1 38.1549
      vertex 38.4763 11 38.6346
      vertex 38.4763 -1 38.6346
    endloop
  endfacet
  facet normal 1.65114e-08 1 1.04249e-07
    outer loop
      vertex 45.7787 11 29.2203
      vertex 33.13 11 40.3717
      vertex 34.0607 11 40.2243
    endloop
  endfacet
  facet normal 0.33874 0 0.94088
    outer loop
      vertex 35.8853 11 39.7558
      vertex 36.7719 -1 39.4366
      vertex 36.7719 11 39.4366
    endloop
  endfacet
  facet normal 0.33874 0 0.94088
    outer loop
      vertex 36.7719 -1 39.4366
      vertex 35.8853 11 39.7558
      vertex 35.8853 -1 39.7558
    endloop
  endfacet
  facet normal 0.278989 0 0.960294
    outer loop
      vertex 34.9803 11 40.0187
      vertex 35.8853 -1 39.7558
      vertex 35.8853 11 39.7558
    endloop
  endfacet
  facet normal 0.278989 0 0.960294
    outer loop
      vertex 35.8853 -1 39.7558
      vertex 34.9803 11 40.0187
      vertex 34.9803 -1 40.0187
    endloop
  endfacet
  facet normal 0.218145 0 0.975916
    outer loop
      vertex 34.0607 11 40.2243
      vertex 34.9803 -1 40.0187
      vertex 34.9803 11 40.0187
    endloop
  endfacet
  facet normal 0.218145 0 0.975916
    outer loop
      vertex 34.9803 -1 40.0187
      vertex 34.0607 11 40.2243
      vertex 34.0607 -1 40.2243
    endloop
  endfacet
  facet normal 0.995562 -0 0.0941082
    outer loop
      vertex 46.1317 -1 27.37
      vertex 46.2204 11 26.4319
      vertex 46.1317 11 27.37
    endloop
  endfacet
  facet normal 0.995562 0 0.0941082
    outer loop
      vertex 46.2204 11 26.4319
      vertex 46.1317 -1 27.37
      vertex 46.2204 -1 26.4319
    endloop
  endfacet
  facet normal -1.39556e-06 1 8.25335e-07
    outer loop
      vertex 18.5851 11 33.5274
      vertex 16.7213 11 29.2203
      vertex 18.1054 11 32.7163
    endloop
  endfacet
  facet normal -0.75011 0 0.661313
    outer loop
      vertex 19.6923 -1 35.0514
      vertex 20.3155 11 35.7582
      vertex 19.6923 11 35.0514
    endloop
  endfacet
  facet normal -0.75011 0 0.661313
    outer loop
      vertex 20.3155 11 35.7582
      vertex 19.6923 -1 35.0514
      vertex 20.3155 -1 35.7582
    endloop
  endfacet
  facet normal -0.218145 0 0.975916
    outer loop
      vertex 27.5197 11 40.0187
      vertex 28.4393 -1 40.2243
      vertex 28.4393 11 40.2243
    endloop
  endfacet
  facet normal -0.218145 0 0.975916
    outer loop
      vertex 28.4393 -1 40.2243
      vertex 27.5197 11 40.0187
      vertex 27.5197 -1 40.0187
    endloop
  endfacet
  facet normal 0.790156 -0 0.612906
    outer loop
      vertex 42.8077 -1 35.0514
      vertex 43.3853 11 34.3068
      vertex 42.8077 11 35.0514
    endloop
  endfacet
  facet normal 0.790156 0 0.612906
    outer loop
      vertex 43.3853 11 34.3068
      vertex 42.8077 -1 35.0514
      vertex 43.3853 -1 34.3068
    endloop
  endfacet
  facet normal 0.75011 -0 0.661313
    outer loop
      vertex 42.1845 -1 35.7582
      vertex 42.8077 11 35.0514
      vertex 42.1845 11 35.7582
    endloop
  endfacet
  facet normal 0.75011 0 0.661313
    outer loop
      vertex 42.8077 11 35.0514
      vertex 42.1845 -1 35.7582
      vertex 42.8077 -1 35.0514
    endloop
  endfacet
  facet normal 6.14506e-07 1 4.76659e-07
    outer loop
      vertex 45.7787 11 29.2203
      vertex 42.8077 11 35.0514
      vertex 43.3853 11 34.3068
    endloop
  endfacet
  facet normal 9.05496e-09 1 9.57917e-08
    outer loop
      vertex 45.7787 11 29.2203
      vertex 32.1919 11 40.4604
      vertex 33.13 11 40.3717
    endloop
  endfacet
  facet normal 2.77198e-09 1 8.81968e-08
    outer loop
      vertex 45.7787 11 29.2203
      vertex 31.25 11 40.49
      vertex 32.1919 11 40.4604
    endloop
  endfacet
  facet normal 3.61648e-08 1 1.24481e-07
    outer loop
      vertex 45.7787 11 29.2203
      vertex 34.9803 11 40.0187
      vertex 35.8853 11 39.7558
    endloop
  endfacet
  facet normal 2.54242e-08 1 1.1374e-07
    outer loop
      vertex 45.7787 11 29.2203
      vertex 34.0607 11 40.2243
      vertex 34.9803 11 40.0187
    endloop
  endfacet
  facet normal 1.10685e-07 1 1.87157e-07
    outer loop
      vertex 45.7787 11 29.2203
      vertex 38.4763 11 38.6346
      vertex 39.2874 11 38.1549
    endloop
  endfacet
  facet normal 0.453989 0 0.891007
    outer loop
      vertex 37.6367 11 39.0624
      vertex 38.4763 -1 38.6346
      vertex 38.4763 11 38.6346
    endloop
  endfacet
  facet normal 0.453989 0 0.891007
    outer loop
      vertex 38.4763 -1 38.6346
      vertex 37.6367 11 39.0624
      vertex 37.6367 -1 39.0624
    endloop
  endfacet
  facet normal 0.661313 0 0.75011
    outer loop
      vertex 40.8114 11 37.0477
      vertex 41.5182 -1 36.4245
      vertex 41.5182 11 36.4245
    endloop
  endfacet
  facet normal 0.661313 0 0.75011
    outer loop
      vertex 41.5182 -1 36.4245
      vertex 40.8114 11 37.0477
      vertex 40.8114 -1 37.0477
    endloop
  endfacet
  facet normal 2.43846e-07 1 2.76588e-07
    outer loop
      vertex 45.7787 11 29.2203
      vertex 40.8114 11 37.0477
      vertex 41.5182 11 36.4245
    endloop
  endfacet
  facet normal 4.93709e-06 1 2.13649e-06
    outer loop
      vertex 45.7787 11 29.2203
      vertex 44.8224 11 31.8767
      vertex 45.1966 11 31.0119
    endloop
  endfacet
  facet normal 2.40146e-06 1 1.2236e-06
    outer loop
      vertex 45.7787 11 29.2203
      vertex 44.3946 11 32.7163
      vertex 44.8224 11 31.8767
    endloop
  endfacet
  facet normal 0.987688 -0 0.156438
    outer loop
      vertex 45.9843 -1 28.3007
      vertex 46.1317 11 27.37
      vertex 45.9843 11 28.3007
    endloop
  endfacet
  facet normal 0.987688 0 0.156438
    outer loop
      vertex 46.1317 11 27.37
      vertex 45.9843 -1 28.3007
      vertex 46.1317 -1 27.37
    endloop
  endfacet
  facet normal -4.9372e-06 1 2.13652e-06
    outer loop
      vertex 17.6776 11 31.8767
      vertex 16.7213 11 29.2203
      vertex 17.3034 11 31.0119
    endloop
  endfacet
  facet normal -8.53461e-08 1 1.67502e-07
    outer loop
      vertex 24.8633 11 39.0624
      vertex 16.7213 11 29.2203
      vertex 24.0237 11 38.6346
    endloop
  endfacet
  facet normal -0.031414 0 0.999506
    outer loop
      vertex 30.3081 11 40.4604
      vertex 31.25 -1 40.49
      vertex 31.25 11 40.49
    endloop
  endfacet
  facet normal -0.031414 0 0.999506
    outer loop
      vertex 31.25 -1 40.49
      vertex 30.3081 11 40.4604
      vertex 30.3081 -1 40.4604
    endloop
  endfacet
  facet normal -0.0941082 0 0.995562
    outer loop
      vertex 29.37 11 40.3717
      vertex 30.3081 -1 40.4604
      vertex 30.3081 11 40.4604
    endloop
  endfacet
  facet normal -0.0941082 0 0.995562
    outer loop
      vertex 30.3081 -1 40.4604
      vertex 29.37 11 40.3717
      vertex 29.37 -1 40.3717
    endloop
  endfacet
  facet normal 0.860741 -0 0.509043
    outer loop
      vertex 43.9149 -1 33.5274
      vertex 44.3946 11 32.7163
      vertex 43.9149 11 33.5274
    endloop
  endfacet
  facet normal 0.860741 0 0.509043
    outer loop
      vertex 44.3946 11 32.7163
      vertex 43.9149 -1 33.5274
      vertex 44.3946 -1 32.7163
    endloop
  endfacet
  facet normal 8.53464e-08 1 1.67503e-07
    outer loop
      vertex 45.7787 11 29.2203
      vertex 37.6367 11 39.0624
      vertex 38.4763 11 38.6346
    endloop
  endfacet
  facet normal 6.53127e-08 1 1.50929e-07
    outer loop
      vertex 45.7787 11 29.2203
      vertex 36.7719 11 39.4366
      vertex 37.6367 11 39.0624
    endloop
  endfacet
  facet normal -0.960293 0 0.278993
    outer loop
      vertex 16.7213 -1 29.2203
      vertex 16.9842 11 30.1253
      vertex 16.7213 11 29.2203
    endloop
  endfacet
  facet normal -0.960293 0 0.278993
    outer loop
      vertex 16.9842 11 30.1253
      vertex 16.7213 -1 29.2203
      vertex 16.9842 -1 30.1253
    endloop
  endfacet
  facet normal -0.940881 0 0.338737
    outer loop
      vertex 16.9842 -1 30.1253
      vertex 17.3034 11 31.0119
      vertex 16.9842 11 30.1253
    endloop
  endfacet
  facet normal -0.940881 0 0.338737
    outer loop
      vertex 17.3034 11 31.0119
      vertex 16.9842 -1 30.1253
      vertex 17.3034 -1 31.0119
    endloop
  endfacet
  facet normal -1.51656e-05 1 5.45993e-06
    outer loop
      vertex 17.3034 11 31.0119
      vertex 16.7213 11 29.2203
      vertex 16.9842 11 30.1253
    endloop
  endfacet
  facet normal -2.40141e-06 1 1.22358e-06
    outer loop
      vertex 18.1054 11 32.7163
      vertex 16.7213 11 29.2203
      vertex 17.6776 11 31.8767
    endloop
  endfacet
  facet normal -4.39543e-07 1 3.87511e-07
    outer loop
      vertex 20.3155 11 35.7582
      vertex 16.7213 11 29.2203
      vertex 19.6923 11 35.0514
    endloop
  endfacet
  facet normal -0.860741 0 0.509043
    outer loop
      vertex 18.1054 -1 32.7163
      vertex 18.5851 11 33.5274
      vertex 18.1054 11 32.7163
    endloop
  endfacet
  facet normal -0.860741 0 0.509043
    outer loop
      vertex 18.5851 11 33.5274
      vertex 18.1054 -1 32.7163
      vertex 18.5851 -1 33.5274
    endloop
  endfacet
  facet normal -0.891007 0 0.45399
    outer loop
      vertex 17.6776 -1 31.8767
      vertex 18.1054 11 32.7163
      vertex 17.6776 11 31.8767
    endloop
  endfacet
  facet normal -0.891007 0 0.45399
    outer loop
      vertex 18.1054 11 32.7163
      vertex 17.6776 -1 31.8767
      vertex 18.1054 -1 32.7163
    endloop
  endfacet
  facet normal -1.43291e-07 1 2.10847e-07
    outer loop
      vertex 23.2126 11 38.1549
      vertex 16.7213 11 29.2203
      vertex 22.4332 11 37.6253
    endloop
  endfacet
  facet normal -4.92351e-08 1 1.36755e-07
    outer loop
      vertex 26.6147 11 39.7558
      vertex 16.7213 11 29.2203
      vertex 25.7281 11 39.4366
    endloop
  endfacet
  facet normal -0.661312 0 0.750111
    outer loop
      vertex 20.9818 11 36.4245
      vertex 21.6886 -1 37.0477
      vertex 21.6886 11 37.0477
    endloop
  endfacet
  facet normal -0.661312 0 0.750111
    outer loop
      vertex 21.6886 -1 37.0477
      vertex 20.9818 11 36.4245
      vertex 20.9818 -1 36.4245
    endloop
  endfacet
  facet normal -0.156434 0 0.987688
    outer loop
      vertex 28.4393 11 40.2243
      vertex 29.37 -1 40.3717
      vertex 29.37 11 40.3717
    endloop
  endfacet
  facet normal -0.156434 0 0.987688
    outer loop
      vertex 29.37 -1 40.3717
      vertex 28.4393 11 40.2243
      vertex 28.4393 -1 40.2243
    endloop
  endfacet
  facet normal -0.790156 0 0.612906
    outer loop
      vertex 19.1147 -1 34.3068
      vertex 19.6923 11 35.0514
      vertex 19.1147 11 34.3068
    endloop
  endfacet
  facet normal -0.790156 0 0.612906
    outer loop
      vertex 19.6923 11 35.0514
      vertex 19.1147 -1 34.3068
      vertex 19.6923 -1 35.0514
    endloop
  endfacet
  facet normal -6.14506e-07 1 4.76659e-07
    outer loop
      vertex 19.6923 11 35.0514
      vertex 16.7213 11 29.2203
      vertex 19.1147 11 34.3068
    endloop
  endfacet
  facet normal -0.707108 0 0.707106
    outer loop
      vertex 20.3155 -1 35.7582
      vertex 20.9818 11 36.4245
      vertex 20.3155 11 35.7582
    endloop
  endfacet
  facet normal -0.707108 0 0.707106
    outer loop
      vertex 20.9818 11 36.4245
      vertex 20.3155 -1 35.7582
      vertex 20.9818 -1 36.4245
    endloop
  endfacet
  facet normal -3.2398e-07 1 3.23979e-07
    outer loop
      vertex 20.9818 11 36.4245
      vertex 16.7213 11 29.2203
      vertex 20.3155 11 35.7582
    endloop
  endfacet
  facet normal -0.612907 0 0.790155
    outer loop
      vertex 21.6886 11 37.0477
      vertex 22.4332 -1 37.6253
      vertex 22.4332 11 37.6253
    endloop
  endfacet
  facet normal -0.612907 0 0.790155
    outer loop
      vertex 22.4332 -1 37.6253
      vertex 21.6886 11 37.0477
      vertex 21.6886 -1 37.0477
    endloop
  endfacet
  facet normal -1.86135e-07 1 2.39963e-07
    outer loop
      vertex 22.4332 11 37.6253
      vertex 16.7213 11 29.2203
      vertex 21.6886 11 37.0477
    endloop
  endfacet
  facet normal -1.10685e-07 1 1.87157e-07
    outer loop
      vertex 24.0237 11 38.6346
      vertex 16.7213 11 29.2203
      vertex 23.2126 11 38.1549
    endloop
  endfacet
  facet normal -0.453988 0 0.891008
    outer loop
      vertex 24.0237 11 38.6346
      vertex 24.8633 -1 39.0624
      vertex 24.8633 11 39.0624
    endloop
  endfacet
  facet normal -0.453988 0 0.891008
    outer loop
      vertex 24.8633 -1 39.0624
      vertex 24.0237 11 38.6346
      vertex 24.0237 -1 38.6346
    endloop
  endfacet
  facet normal -0.397148 0 0.917755
    outer loop
      vertex 24.8633 11 39.0624
      vertex 25.7281 -1 39.4366
      vertex 25.7281 11 39.4366
    endloop
  endfacet
  facet normal -0.397148 0 0.917755
    outer loop
      vertex 25.7281 -1 39.4366
      vertex 24.8633 11 39.0624
      vertex 24.8633 -1 39.0624
    endloop
  endfacet
  facet normal -6.53129e-08 1 1.50929e-07
    outer loop
      vertex 25.7281 11 39.4366
      vertex 16.7213 11 29.2203
      vertex 24.8633 11 39.0624
    endloop
  endfacet
  facet normal -0.278989 0 0.960294
    outer loop
      vertex 26.6147 11 39.7558
      vertex 27.5197 -1 40.0187
      vertex 27.5197 11 40.0187
    endloop
  endfacet
  facet normal -0.278989 0 0.960294
    outer loop
      vertex 27.5197 -1 40.0187
      vertex 26.6147 11 39.7558
      vertex 26.6147 -1 39.7558
    endloop
  endfacet
  facet normal -3.61648e-08 1 1.24481e-07
    outer loop
      vertex 27.5197 11 40.0187
      vertex 16.7213 11 29.2203
      vertex 26.6147 11 39.7558
    endloop
  endfacet
  facet normal -0.827081 0 0.562083
    outer loop
      vertex 18.5851 -1 33.5274
      vertex 19.1147 11 34.3068
      vertex 18.5851 11 33.5274
    endloop
  endfacet
  facet normal -0.827081 0 0.562083
    outer loop
      vertex 19.1147 11 34.3068
      vertex 18.5851 -1 33.5274
      vertex 19.1147 -1 34.3068
    endloop
  endfacet
  facet normal -8.96956e-07 1 6.0957e-07
    outer loop
      vertex 19.1147 11 34.3068
      vertex 16.7213 11 29.2203
      vertex 18.5851 11 33.5274
    endloop
  endfacet
  facet normal -0.509043 0 0.860741
    outer loop
      vertex 23.2126 11 38.1549
      vertex 24.0237 -1 38.6346
      vertex 24.0237 11 38.6346
    endloop
  endfacet
  facet normal -0.509043 0 0.860741
    outer loop
      vertex 24.0237 -1 38.6346
      vertex 23.2126 11 38.1549
      vertex 23.2126 -1 38.1549
    endloop
  endfacet
  facet normal -0.562083 0 0.827081
    outer loop
      vertex 22.4332 11 37.6253
      vertex 23.2126 -1 38.1549
      vertex 23.2126 11 38.1549
    endloop
  endfacet
  facet normal -0.562083 0 0.827081
    outer loop
      vertex 23.2126 -1 38.1549
      vertex 22.4332 11 37.6253
      vertex 22.4332 -1 37.6253
    endloop
  endfacet
  facet normal -1 0 0
    outer loop
      vertex 16.25 -1 12.59
      vertex 16.25 11 25.49
      vertex 16.25 11 12.59
    endloop
  endfacet
  facet normal -1 -0 0
    outer loop
      vertex 16.25 11 25.49
      vertex 16.25 -1 12.59
      vertex 16.25 -1 25.49
    endloop
  endfacet
  facet normal 1 -0 0
    outer loop
      vertex 46.25 -1 25.49
      vertex 46.25 11 12.59
      vertex 46.25 11 25.49
    endloop
  endfacet
  facet normal 1 0 0
    outer loop
      vertex 46.25 11 12.59
      vertex 46.25 -1 25.49
      vertex 46.25 -1 12.59
    endloop
  endfacet
  facet normal 0 0 -1
    outer loop
      vertex 16.25 -1 12.59
      vertex 24.5 11 12.59
      vertex 24.5 -1 12.59
    endloop
  endfacet
  facet normal -0 0 -1
    outer loop
      vertex 24.5 11 12.59
      vertex 16.25 -1 12.59
      vertex 16.25 11 12.59
    endloop
  endfacet
  facet normal 0 0 -1
    outer loop
      vertex 45.9 -1 12.59
      vertex 46.25 11 12.59
      vertex 46.25 -1 12.59
    endloop
  endfacet
  facet normal -0 0 -1
    outer loop
      vertex 46.25 11 12.59
      vertex 45.9 -1 12.59
      vertex 45.9 11 12.59
    endloop
  endfacet
  facet normal 0 0 -1
    outer loop
      vertex 25.5 -1 12.59
      vertex 34.7 11 12.59
      vertex 34.7 -1 12.59
    endloop
  endfacet
  facet normal -0 0 -1
    outer loop
      vertex 34.7 11 12.59
      vertex 25.5 -1 12.59
      vertex 25.5 11 12.59
    endloop
  endfacet
  facet normal 0 0 -1
    outer loop
      vertex 35.7 -1 12.59
      vertex 44.9 11 12.59
      vertex 44.9 -1 12.59
    endloop
  endfacet
  facet normal -0 0 -1
    outer loop
      vertex 44.9 11 12.59
      vertex 35.7 -1 12.59
      vertex 35.7 11 12.59
    endloop
  endfacet
  facet normal 0 0 -1
    outer loop
      vertex 24.5 -1 11.59
      vertex 25.5 11 11.59
      vertex 25.5 -1 11.59
    endloop
  endfacet
  facet normal -0 0 -1
    outer loop
      vertex 25.5 11 11.59
      vertex 24.5 -1 11.59
      vertex 24.5 11 11.59
    endloop
  endfacet
  facet normal 0 0 -1
    outer loop
      vertex 34.7 -1 11.59
      vertex 35.7 11 11.59
      vertex 35.7 -1 11.59
    endloop
  endfacet
  facet normal -0 0 -1
    outer loop
      vertex 35.7 11 11.59
      vertex 34.7 -1 11.59
      vertex 34.7 11 11.59
    endloop
  endfacet
  facet normal 0 0 -1
    outer loop
      vertex 44.9 -1 11.59
      vertex 45.9 11 11.59
      vertex 45.9 -1 11.59
    endloop
  endfacet
  facet normal -0 0 -1
    outer loop
      vertex 45.9 11 11.59
      vertex 44.9 -1 11.59
      vertex 44.9 11 11.59
    endloop
  endfacet
endsolid OpenSCAD_Model
