solid OpenSCAD_Model
  facet normal 0 -1 0
    outer loop
      vertex 55.1 -1 11.59
      vertex 56.1 -1 12.59
      vertex 55.1 -1 12.59
    endloop
  endfacet
  facet normal 0 -1 -0
    outer loop
      vertex 56.1 -1 12.59
      vertex 55.1 -1 11.59
      vertex 56.1 -1 11.59
    endloop
  endfacet
  facet normal 0 -1 0
    outer loop
      vertex 44.9 -1 11.59
      vertex 45.9 -1 12.59
      vertex 44.9 -1 12.59
    endloop
  endfacet
  facet normal 0 -1 -0
    outer loop
      vertex 45.9 -1 12.59
      vertex 44.9 -1 11.59
      vertex 45.9 -1 11.59
    endloop
  endfacet
  facet normal 0 -1 0
    outer loop
      vertex 34.7 -1 11.59
      vertex 35.7 -1 12.59
      vertex 34.7 -1 12.59
    endloop
  endfacet
  facet normal 0 -1 -0
    outer loop
      vertex 35.7 -1 12.59
      vertex 34.7 -1 11.59
      vertex 35.7 -1 11.59
    endloop
  endfacet
  facet normal 0 -1 0
    outer loop
      vertex 42.8081 -1 40.4604
      vertex 44.6919 -1 40.4604
      vertex 43.75 -1 40.49
    endloop
  endfacet
  facet normal 0 -1 0
    outer loop
      vertex 41.87 -1 40.3717
      vertex 44.6919 -1 40.4604
      vertex 42.8081 -1 40.4604
    endloop
  endfacet
  facet normal 0 -1 0
    outer loop
      vertex 41.87 -1 40.3717
      vertex 45.63 -1 40.3717
      vertex 44.6919 -1 40.4604
    endloop
  endfacet
  facet normal 0 -1 0
    outer loop
      vertex 44.9 -1 12.59
      vertex 41.87 -1 40.3717
      vertex 40.9393 -1 40.2243
    endloop
  endfacet
  facet normal 0 -1 0
    outer loop
      vertex 41.87 -1 40.3717
      vertex 44.9 -1 12.59
      vertex 45.63 -1 40.3717
    endloop
  endfacet
  facet normal 0 -1 0
    outer loop
      vertex 44.9 -1 12.59
      vertex 40.9393 -1 40.2243
      vertex 40.0197 -1 40.0187
    endloop
  endfacet
  facet normal 0 -1 -0
    outer loop
      vertex 45.63 -1 40.3717
      vertex 44.9 -1 12.59
      vertex 46.5607 -1 40.2243
    endloop
  endfacet
  facet normal 0 -1 0
    outer loop
      vertex 44.9 -1 12.59
      vertex 40.0197 -1 40.0187
      vertex 39.1147 -1 39.7558
    endloop
  endfacet
  facet normal 0 -1 -0
    outer loop
      vertex 46.5607 -1 40.2243
      vertex 44.9 -1 12.59
      vertex 47.4803 -1 40.0187
    endloop
  endfacet
  facet normal 0 -1 0
    outer loop
      vertex 44.9 -1 12.59
      vertex 39.1147 -1 39.7558
      vertex 38.2281 -1 39.4366
    endloop
  endfacet
  facet normal 0 -1 -0
    outer loop
      vertex 47.4803 -1 40.0187
      vertex 44.9 -1 12.59
      vertex 48.3853 -1 39.7558
    endloop
  endfacet
  facet normal 0 -1 0
    outer loop
      vertex 44.9 -1 12.59
      vertex 38.2281 -1 39.4366
      vertex 37.3633 -1 39.0624
    endloop
  endfacet
  facet normal 0 -1 -0
    outer loop
      vertex 48.3853 -1 39.7558
      vertex 44.9 -1 12.59
      vertex 49.2719 -1 39.4366
    endloop
  endfacet
  facet normal 0 -1 0
    outer loop
      vertex 44.9 -1 12.59
      vertex 37.3633 -1 39.0624
      vertex 36.5237 -1 38.6346
    endloop
  endfacet
  facet normal 0 -1 -0
    outer loop
      vertex 49.2719 -1 39.4366
      vertex 44.9 -1 12.59
      vertex 50.1367 -1 39.0624
    endloop
  endfacet
  facet normal 0 -1 0
    outer loop
      vertex 44.9 -1 12.59
      vertex 36.5237 -1 38.6346
      vertex 35.7126 -1 38.1549
    endloop
  endfacet
  facet normal 0 -1 -0
    outer loop
      vertex 50.1367 -1 39.0624
      vertex 44.9 -1 12.59
      vertex 50.9763 -1 38.6346
    endloop
  endfacet
  facet normal 0 -1 0
    outer loop
      vertex 44.9 -1 12.59
      vertex 35.7126 -1 38.1549
      vertex 34.9332 -1 37.6253
    endloop
  endfacet
  facet normal 0 -1 -0
    outer loop
      vertex 50.9763 -1 38.6346
      vertex 44.9 -1 12.59
      vertex 51.7874 -1 38.1549
    endloop
  endfacet
  facet normal 0 -1 0
    outer loop
      vertex 44.9 -1 12.59
      vertex 34.9332 -1 37.6253
      vertex 34.1886 -1 37.0477
    endloop
  endfacet
  facet normal 0 -1 -0
    outer loop
      vertex 51.7874 -1 38.1549
      vertex 44.9 -1 12.59
      vertex 52.5668 -1 37.6253
    endloop
  endfacet
  facet normal 0 -1 0
    outer loop
      vertex 44.9 -1 12.59
      vertex 34.1886 -1 37.0477
      vertex 33.4818 -1 36.4245
    endloop
  endfacet
  facet normal 0 -1 -0
    outer loop
      vertex 52.5668 -1 37.6253
      vertex 44.9 -1 12.59
      vertex 53.3114 -1 37.0477
    endloop
  endfacet
  facet normal 0 -1 0
    outer loop
      vertex 44.9 -1 12.59
      vertex 33.4818 -1 36.4245
      vertex 32.8155 -1 35.7582
    endloop
  endfacet
  facet normal 0 -1 -0
    outer loop
      vertex 53.3114 -1 37.0477
      vertex 44.9 -1 12.59
      vertex 54.0182 -1 36.4245
    endloop
  endfacet
  facet normal 0 -1 0
    outer loop
      vertex 44.9 -1 12.59
      vertex 32.8155 -1 35.7582
      vertex 32.1923 -1 35.0514
    endloop
  endfacet
  facet normal 0 -1 -0
    outer loop
      vertex 54.0182 -1 36.4245
      vertex 44.9 -1 12.59
      vertex 54.6845 -1 35.7582
    endloop
  endfacet
  facet normal 0 -1 0
    outer loop
      vertex 44.9 -1 12.59
      vertex 32.1923 -1 35.0514
      vertex 31.6147 -1 34.3068
    endloop
  endfacet
  facet normal 0 -1 -0
    outer loop
      vertex 54.6845 -1 35.7582
      vertex 44.9 -1 12.59
      vertex 55.3077 -1 35.0514
    endloop
  endfacet
  facet normal 0 -1 0
    outer loop
      vertex 44.9 -1 12.59
      vertex 31.6147 -1 34.3068
      vertex 31.0851 -1 33.5274
    endloop
  endfacet
  facet normal 0 -1 -0
    outer loop
      vertex 55.3077 -1 35.0514
      vertex 44.9 -1 12.59
      vertex 55.8853 -1 34.3068
    endloop
  endfacet
  facet normal 0 -1 0
    outer loop
      vertex 44.9 -1 12.59
      vertex 31.0851 -1 33.5274
      vertex 30.6054 -1 32.7163
    endloop
  endfacet
  facet normal 0 -1 -0
    outer loop
      vertex 55.8853 -1 34.3068
      vertex 44.9 -1 12.59
      vertex 56.4149 -1 33.5274
    endloop
  endfacet
  facet normal 0 -1 0
    outer loop
      vertex 44.9 -1 12.59
      vertex 30.6054 -1 32.7163
      vertex 30.1776 -1 31.8767
    endloop
  endfacet
  facet normal 0 -1 -0
    outer loop
      vertex 56.4149 -1 33.5274
      vertex 44.9 -1 12.59
      vertex 56.8946 -1 32.7163
    endloop
  endfacet
  facet normal 0 -1 0
    outer loop
      vertex 44.9 -1 12.59
      vertex 30.1776 -1 31.8767
      vertex 29.8034 -1 31.0119
    endloop
  endfacet
  facet normal 0 -1 -0
    outer loop
      vertex 56.8946 -1 32.7163
      vertex 44.9 -1 12.59
      vertex 57.3224 -1 31.8767
    endloop
  endfacet
  facet normal 0 -1 0
    outer loop
      vertex 44.9 -1 12.59
      vertex 29.8034 -1 31.0119
      vertex 29.4842 -1 30.1253
    endloop
  endfacet
  facet normal 0 -1 -0
    outer loop
      vertex 57.3224 -1 31.8767
      vertex 44.9 -1 12.59
      vertex 57.6966 -1 31.0119
    endloop
  endfacet
  facet normal 0 -1 0
    outer loop
      vertex 44.9 -1 12.59
      vertex 29.4842 -1 30.1253
      vertex 29.2213 -1 29.2203
    endloop
  endfacet
  facet normal 0 -1 -0
    outer loop
      vertex 57.6966 -1 31.0119
      vertex 44.9 -1 12.59
      vertex 58.0158 -1 30.1253
    endloop
  endfacet
  facet normal 0 -1 0
    outer loop
      vertex 44.9 -1 12.59
      vertex 29.2213 -1 29.2203
      vertex 29.0157 -1 28.3007
    endloop
  endfacet
  facet normal 0 -1 -0
    outer loop
      vertex 58.0158 -1 30.1253
      vertex 44.9 -1 12.59
      vertex 58.2787 -1 29.2203
    endloop
  endfacet
  facet normal 0 -1 0
    outer loop
      vertex 44.9 -1 12.59
      vertex 29.0157 -1 28.3007
      vertex 28.8683 -1 27.37
    endloop
  endfacet
  facet normal 0 -1 -0
    outer loop
      vertex 58.2787 -1 29.2203
      vertex 44.9 -1 12.59
      vertex 58.4843 -1 28.3007
    endloop
  endfacet
  facet normal 0 -1 0
    outer loop
      vertex 44.9 -1 12.59
      vertex 28.8683 -1 27.37
      vertex 28.7796 -1 26.4319
    endloop
  endfacet
  facet normal 0 -1 0
    outer loop
      vertex 45.9 -1 12.59
      vertex 58.4843 -1 28.3007
      vertex 44.9 -1 12.59
    endloop
  endfacet
  facet normal 0 -1 0
    outer loop
      vertex 44.9 -1 12.59
      vertex 28.7796 -1 26.4319
      vertex 28.75 -1 25.49
    endloop
  endfacet
  facet normal 0 -1 -0
    outer loop
      vertex 58.4843 -1 28.3007
      vertex 45.9 -1 12.59
      vertex 58.6317 -1 27.37
    endloop
  endfacet
  facet normal 0 -1 0
    outer loop
      vertex 34.7 -1 12.59
      vertex 28.75 -1 25.49
      vertex 28.75 -1 12.59
    endloop
  endfacet
  facet normal 0 -1 0
    outer loop
      vertex 35.7 -1 12.59
      vertex 28.75 -1 25.49
      vertex 34.7 -1 12.59
    endloop
  endfacet
  facet normal 0 -1 0
    outer loop
      vertex 44.9 -1 12.59
      vertex 28.75 -1 25.49
      vertex 35.7 -1 12.59
    endloop
  endfacet
  facet normal 0 -1 -0
    outer loop
      vertex 58.6317 -1 27.37
      vertex 45.9 -1 12.59
      vertex 58.7204 -1 26.4319
    endloop
  endfacet
  facet normal 0 -1 -0
    outer loop
      vertex 58.7204 -1 26.4319
      vertex 45.9 -1 12.59
      vertex 58.75 -1 25.49
    endloop
  endfacet
  facet normal 0 -1 0
    outer loop
      vertex 55.1 -1 12.59
      vertex 58.75 -1 25.49
      vertex 45.9 -1 12.59
    endloop
  endfacet
  facet normal 0 -1 0
    outer loop
      vertex 56.1 -1 12.59
      vertex 58.75 -1 25.49
      vertex 55.1 -1 12.59
    endloop
  endfacet
  facet normal 0 -1 -0
    outer loop
      vertex 58.75 -1 25.49
      vertex 56.1 -1 12.59
      vertex 58.75 -1 12.59
    endloop
  endfacet
  facet normal -1 0 0
    outer loop
      vertex 34.7 -1 11.59
      vertex 34.7 11 12.59
      vertex 34.7 11 11.59
    endloop
  endfacet
  facet normal -1 -0 0
    outer loop
      vertex 34.7 11 12.59
      vertex 34.7 -1 11.59
      vertex 34.7 -1 12.59
    endloop
  endfacet
  facet normal 1 -0 0
    outer loop
      vertex 35.7 -1 12.59
      vertex 35.7 11 11.59
      vertex 35.7 11 12.59
    endloop
  endfacet
  facet normal 1 0 0
    outer loop
      vertex 35.7 11 11.59
      vertex 35.7 -1 12.59
      vertex 35.7 -1 11.59
    endloop
  endfacet
  facet normal -1 0 0
    outer loop
      vertex 44.9 -1 11.59
      vertex 44.9 11 12.59
      vertex 44.9 11 11.59
    endloop
  endfacet
  facet normal -1 -0 0
    outer loop
      vertex 44.9 11 12.59
      vertex 44.9 -1 11.59
      vertex 44.9 -1 12.59
    endloop
  endfacet
  facet normal 1 -0 0
    outer loop
      vertex 45.9 -1 12.59
      vertex 45.9 11 11.59
      vertex 45.9 11 12.59
    endloop
  endfacet
  facet normal 1 0 0
    outer loop
      vertex 45.9 11 11.59
      vertex 45.9 -1 12.59
      vertex 45.9 -1 11.59
    endloop
  endfacet
  facet normal -1 0 0
    outer loop
      vertex 55.1 -1 11.59
      vertex 55.1 11 12.59
      vertex 55.1 11 11.59
    endloop
  endfacet
  facet normal -1 -0 0
    outer loop
      vertex 55.1 11 12.59
      vertex 55.1 -1 11.59
      vertex 55.1 -1 12.59
    endloop
  endfacet
  facet normal 1 -0 0
    outer loop
      vertex 56.1 -1 12.59
      vertex 56.1 11 11.59
      vertex 56.1 11 12.59
    endloop
  endfacet
  facet normal 1 0 0
    outer loop
      vertex 56.1 11 11.59
      vertex 56.1 -1 12.59
      vertex 56.1 -1 11.59
    endloop
  endfacet
  facet normal -0.999507 0 0.0314099
    outer loop
      vertex 28.7796 -1 26.4319
      vertex 28.75 11 25.49
      vertex 28.75 -1 25.49
    endloop
  endfacet
  facet normal 0.0941082 0 0.995562
    outer loop
      vertex 44.6919 11 40.4604
      vertex 45.63 -1 40.3717
      vertex 45.63 11 40.3717
    endloop
  endfacet
  facet normal 0.0941082 0 0.995562
    outer loop
      vertex 45.63 -1 40.3717
      vertex 44.6919 11 40.4604
      vertex 44.6919 -1 40.4604
    endloop
  endfacet
  facet normal 0 1 8.46232e-08
    outer loop
      vertex 58.2787 11 29.2203
      vertex 29.2213 11 29.2203
      vertex 43.75 11 40.49
    endloop
  endfacet
  facet normal 0.960293 -0 0.278993
    outer loop
      vertex 58.0158 -1 30.1253
      vertex 58.2787 11 29.2203
      vertex 58.0158 11 30.1253
    endloop
  endfacet
  facet normal 0.960293 0 0.278993
    outer loop
      vertex 58.2787 11 29.2203
      vertex 58.0158 -1 30.1253
      vertex 58.2787 -1 29.2203
    endloop
  endfacet
  facet normal -2.77198e-09 1 8.81968e-08
    outer loop
      vertex 43.75 11 40.49
      vertex 29.2213 11 29.2203
      vertex 42.8081 11 40.4604
    endloop
  endfacet
  facet normal -0.999507 0 0.0314099
    outer loop
      vertex 28.7796 11 26.4319
      vertex 28.75 11 25.49
      vertex 28.7796 -1 26.4319
    endloop
  endfacet
  facet normal -0.0941082 0 0.995562
    outer loop
      vertex 41.87 11 40.3717
      vertex 42.8081 -1 40.4604
      vertex 42.8081 11 40.4604
    endloop
  endfacet
  facet normal -0.0941082 0 0.995562
    outer loop
      vertex 42.8081 -1 40.4604
      vertex 41.87 11 40.3717
      vertex 41.87 -1 40.3717
    endloop
  endfacet
  facet normal -0.509043 0 0.860741
    outer loop
      vertex 35.7126 11 38.1549
      vertex 36.5237 -1 38.6346
      vertex 36.5237 11 38.6346
    endloop
  endfacet
  facet normal -0.509043 0 0.860741
    outer loop
      vertex 36.5237 -1 38.6346
      vertex 35.7126 11 38.1549
      vertex 35.7126 -1 38.1549
    endloop
  endfacet
  facet normal -1.65114e-08 1 1.04249e-07
    outer loop
      vertex 41.87 11 40.3717
      vertex 29.2213 11 29.2203
      vertex 40.9393 11 40.2243
    endloop
  endfacet
  facet normal -0.860741 0 0.509043
    outer loop
      vertex 30.6054 -1 32.7163
      vertex 31.0851 11 33.5274
      vertex 30.6054 11 32.7163
    endloop
  endfacet
  facet normal -0.860741 0 0.509043
    outer loop
      vertex 31.0851 11 33.5274
      vertex 30.6054 -1 32.7163
      vertex 31.0851 -1 33.5274
    endloop
  endfacet
  facet normal 0.397147 0 0.917755
    outer loop
      vertex 49.2719 11 39.4366
      vertex 50.1367 -1 39.0624
      vertex 50.1367 11 39.0624
    endloop
  endfacet
  facet normal 0.397147 0 0.917755
    outer loop
      vertex 50.1367 -1 39.0624
      vertex 49.2719 11 39.4366
      vertex 49.2719 -1 39.4366
    endloop
  endfacet
  facet normal 2.54242e-08 1 1.1374e-07
    outer loop
      vertex 58.2787 11 29.2203
      vertex 46.5607 11 40.2243
      vertex 47.4803 11 40.0187
    endloop
  endfacet
  facet normal 0.031414 0 0.999506
    outer loop
      vertex 43.75 11 40.49
      vertex 44.6919 -1 40.4604
      vertex 44.6919 11 40.4604
    endloop
  endfacet
  facet normal 0.031414 0 0.999506
    outer loop
      vertex 44.6919 -1 40.4604
      vertex 43.75 11 40.49
      vertex 43.75 -1 40.49
    endloop
  endfacet
  facet normal 0.987688 -0 0.156438
    outer loop
      vertex 58.4843 -1 28.3007
      vertex 58.6317 11 27.37
      vertex 58.4843 11 28.3007
    endloop
  endfacet
  facet normal 0.987688 0 0.156438
    outer loop
      vertex 58.6317 11 27.37
      vertex 58.4843 -1 28.3007
      vertex 58.6317 -1 27.37
    endloop
  endfacet
  facet normal 0.995562 -0 0.0941082
    outer loop
      vertex 58.6317 -1 27.37
      vertex 58.7204 11 26.4319
      vertex 58.6317 11 27.37
    endloop
  endfacet
  facet normal 0.995562 0 0.0941082
    outer loop
      vertex 58.7204 11 26.4319
      vertex 58.6317 -1 27.37
      vertex 58.7204 -1 26.4319
    endloop
  endfacet
  facet normal 1.4329e-07 1 2.10846e-07
    outer loop
      vertex 58.2787 11 29.2203
      vertex 51.7874 11 38.1549
      vertex 52.5668 11 37.6253
    endloop
  endfacet
  facet normal 0.940881 -0 0.338737
    outer loop
      vertex 57.6966 -1 31.0119
      vertex 58.0158 11 30.1253
      vertex 57.6966 11 31.0119
    endloop
  endfacet
  facet normal 0.940881 0 0.338737
    outer loop
      vertex 58.0158 11 30.1253
      vertex 57.6966 -1 31.0119
      vertex 58.0158 -1 30.1253
    endloop
  endfacet
  facet normal 8.96956e-07 1 6.0957e-07
    outer loop
      vertex 58.2787 11 29.2203
      vertex 55.8853 11 34.3068
      vertex 56.4149 11 33.5274
    endloop
  endfacet
  facet normal 0 1 -0
    outer loop
      vertex 35.7 11 11.59
      vertex 34.7 11 12.59
      vertex 35.7 11 12.59
    endloop
  endfacet
  facet normal 0 1 0
    outer loop
      vertex 34.7 11 12.59
      vertex 35.7 11 11.59
      vertex 34.7 11 11.59
    endloop
  endfacet
  facet normal 0 1 -0
    outer loop
      vertex 45.9 11 11.59
      vertex 44.9 11 12.59
      vertex 45.9 11 12.59
    endloop
  endfacet
  facet normal 0 1 0
    outer loop
      vertex 44.9 11 12.59
      vertex 45.9 11 11.59
      vertex 44.9 11 11.59
    endloop
  endfacet
  facet normal 0 1 -0
    outer loop
      vertex 56.1 11 11.59
      vertex 55.1 11 12.59
      vertex 56.1 11 12.59
    endloop
  endfacet
  facet normal 0 1 0
    outer loop
      vertex 55.1 11 12.59
      vertex 56.1 11 11.59
      vertex 55.1 11 11.59
    endloop
  endfacet
  facet normal 0 1 0
    outer loop
      vertex 44.9 11 12.59
      vertex 58.2787 11 29.2203
      vertex 58.4843 11 28.3007
    endloop
  endfacet
  facet normal 0 1 0
    outer loop
      vertex 58.2787 11 29.2203
      vertex 44.9 11 12.59
      vertex 29.2213 11 29.2203
    endloop
  endfacet
  facet normal 0 1 0
    outer loop
      vertex 45.9 11 12.59
      vertex 58.4843 11 28.3007
      vertex 58.6317 11 27.37
    endloop
  endfacet
  facet normal 0 1 0
    outer loop
      vertex 29.2213 11 29.2203
      vertex 44.9 11 12.59
      vertex 29.0157 11 28.3007
    endloop
  endfacet
  facet normal 0 1 0
    outer loop
      vertex 45.9 11 12.59
      vertex 58.6317 11 27.37
      vertex 58.7204 11 26.4319
    endloop
  endfacet
  facet normal 0 1 0
    outer loop
      vertex 29.0157 11 28.3007
      vertex 44.9 11 12.59
      vertex 28.8683 11 27.37
    endloop
  endfacet
  facet normal 0 1 0
    outer loop
      vertex 45.9 11 12.59
      vertex 58.7204 11 26.4319
      vertex 58.75 11 25.49
    endloop
  endfacet
  facet normal 0 1 0
    outer loop
      vertex 28.8683 11 27.37
      vertex 44.9 11 12.59
      vertex 28.7796 11 26.4319
    endloop
  endfacet
  facet normal 0 1 0
    outer loop
      vertex 56.1 11 12.59
      vertex 58.75 11 25.49
      vertex 58.75 11 12.59
    endloop
  endfacet
  facet normal 0 1 0
    outer loop
      vertex 55.1 11 12.59
      vertex 58.75 11 25.49
      vertex 56.1 11 12.59
    endloop
  endfacet
  facet normal 0 1 0
    outer loop
      vertex 45.9 11 12.59
      vertex 58.75 11 25.49
      vertex 55.1 11 12.59
    endloop
  endfacet
  facet normal 0 1 0
    outer loop
      vertex 58.4843 11 28.3007
      vertex 45.9 11 12.59
      vertex 44.9 11 12.59
    endloop
  endfacet
  facet normal 0 1 0
    outer loop
      vertex 28.7796 11 26.4319
      vertex 44.9 11 12.59
      vertex 28.75 11 25.49
    endloop
  endfacet
  facet normal 0 1 -0
    outer loop
      vertex 35.7 11 12.59
      vertex 28.75 11 25.49
      vertex 44.9 11 12.59
    endloop
  endfacet
  facet normal 0 1 -0
    outer loop
      vertex 34.7 11 12.59
      vertex 28.75 11 25.49
      vertex 35.7 11 12.59
    endloop
  endfacet
  facet normal 0 1 0
    outer loop
      vertex 28.75 11 25.49
      vertex 34.7 11 12.59
      vertex 28.75 11 12.59
    endloop
  endfacet
  facet normal -0.995562 0 0.0941102
    outer loop
      vertex 28.7796 -1 26.4319
      vertex 28.8683 11 27.37
      vertex 28.7796 11 26.4319
    endloop
  endfacet
  facet normal -0.995562 0 0.0941102
    outer loop
      vertex 28.8683 11 27.37
      vertex 28.7796 -1 26.4319
      vertex 28.8683 -1 27.37
    endloop
  endfacet
  facet normal -0.987688 0 0.156434
    outer loop
      vertex 28.8683 -1 27.37
      vertex 29.0157 11 28.3007
      vertex 28.8683 11 27.37
    endloop
  endfacet
  facet normal -0.987688 0 0.156434
    outer loop
      vertex 29.0157 11 28.3007
      vertex 28.8683 -1 27.37
      vertex 29.0157 -1 28.3007
    endloop
  endfacet
  facet normal -0.975917 0 0.218143
    outer loop
      vertex 29.0157 -1 28.3007
      vertex 29.2213 11 29.2203
      vertex 29.0157 11 28.3007
    endloop
  endfacet
  facet normal -0.975917 0 0.218143
    outer loop
      vertex 29.2213 11 29.2203
      vertex 29.0157 -1 28.3007
      vertex 29.2213 -1 29.2203
    endloop
  endfacet
  facet normal -9.05496e-09 1 9.57917e-08
    outer loop
      vertex 42.8081 11 40.4604
      vertex 29.2213 11 29.2203
      vertex 41.87 11 40.3717
    endloop
  endfacet
  facet normal -0.031414 0 0.999506
    outer loop
      vertex 42.8081 11 40.4604
      vertex 43.75 -1 40.49
      vertex 43.75 11 40.49
    endloop
  endfacet
  facet normal -0.031414 0 0.999506
    outer loop
      vertex 43.75 -1 40.49
      vertex 42.8081 11 40.4604
      vertex 42.8081 -1 40.4604
    endloop
  endfacet
  facet normal -2.54242e-08 1 1.1374e-07
    outer loop
      vertex 40.9393 11 40.2243
      vertex 29.2213 11 29.2203
      vertex 40.0197 11 40.0187
    endloop
  endfacet
  facet normal -0.278989 0 0.960294
    outer loop
      vertex 39.1147 11 39.7558
      vertex 40.0197 -1 40.0187
      vertex 40.0197 11 40.0187
    endloop
  endfacet
  facet normal -0.278989 0 0.960294
    outer loop
      vertex 40.0197 -1 40.0187
      vertex 39.1147 11 39.7558
      vertex 39.1147 -1 39.7558
    endloop
  endfacet
  facet normal -2.40141e-06 1 1.22358e-06
    outer loop
      vertex 30.6054 11 32.7163
      vertex 29.2213 11 29.2203
      vertex 30.1776 11 31.8767
    endloop
  endfacet
  facet normal -1.10685e-07 1 1.87157e-07
    outer loop
      vertex 36.5237 11 38.6346
      vertex 29.2213 11 29.2203
      vertex 35.7126 11 38.1549
    endloop
  endfacet
  facet normal -0.960293 0 0.278993
    outer loop
      vertex 29.2213 -1 29.2203
      vertex 29.4842 11 30.1253
      vertex 29.2213 11 29.2203
    endloop
  endfacet
  facet normal -0.960293 0 0.278993
    outer loop
      vertex 29.4842 11 30.1253
      vertex 29.2213 -1 29.2203
      vertex 29.4842 -1 30.1253
    endloop
  endfacet
  facet normal 0.218145 0 0.975916
    outer loop
      vertex 46.5607 11 40.2243
      vertex 47.4803 -1 40.0187
      vertex 47.4803 11 40.0187
    endloop
  endfacet
  facet normal 0.218145 0 0.975916
    outer loop
      vertex 47.4803 -1 40.0187
      vertex 46.5607 11 40.2243
      vertex 46.5607 -1 40.2243
    endloop
  endfacet
  facet normal 0.661313 0 0.75011
    outer loop
      vertex 53.3114 11 37.0477
      vertex 54.0182 -1 36.4245
      vertex 54.0182 11 36.4245
    endloop
  endfacet
  facet normal 0.661313 0 0.75011
    outer loop
      vertex 54.0182 -1 36.4245
      vertex 53.3114 11 37.0477
      vertex 53.3114 -1 37.0477
    endloop
  endfacet
  facet normal 0.975917 -0 0.218141
    outer loop
      vertex 58.2787 -1 29.2203
      vertex 58.4843 11 28.3007
      vertex 58.2787 11 29.2203
    endloop
  endfacet
  facet normal 0.975917 0 0.218141
    outer loop
      vertex 58.4843 11 28.3007
      vertex 58.2787 -1 29.2203
      vertex 58.4843 -1 28.3007
    endloop
  endfacet
  facet normal 0.999507 -0 0.0314099
    outer loop
      vertex 58.7204 -1 26.4319
      vertex 58.75 11 25.49
      vertex 58.7204 11 26.4319
    endloop
  endfacet
  facet normal 0.999507 0 0.0314099
    outer loop
      vertex 58.75 11 25.49
      vertex 58.7204 -1 26.4319
      vertex 58.75 -1 25.49
    endloop
  endfacet
  facet normal 1.51656e-05 1 5.45993e-06
    outer loop
      vertex 58.2787 11 29.2203
      vertex 57.6966 11 31.0119
      vertex 58.0158 11 30.1253
    endloop
  endfacet
  facet normal 1.39556e-06 1 8.25335e-07
    outer loop
      vertex 58.2787 11 29.2203
      vertex 56.4149 11 33.5274
      vertex 56.8946 11 32.7163
    endloop
  endfacet
  facet normal 0.891007 -0 0.453989
    outer loop
      vertex 56.8946 -1 32.7163
      vertex 57.3224 11 31.8767
      vertex 56.8946 11 32.7163
    endloop
  endfacet
  facet normal 0.891007 0 0.453989
    outer loop
      vertex 57.3224 11 31.8767
      vertex 56.8946 -1 32.7163
      vertex 57.3224 -1 31.8767
    endloop
  endfacet
  facet normal 6.14506e-07 1 4.76659e-07
    outer loop
      vertex 58.2787 11 29.2203
      vertex 55.3077 11 35.0514
      vertex 55.8853 11 34.3068
    endloop
  endfacet
  facet normal 0.75011 -0 0.661313
    outer loop
      vertex 54.6845 -1 35.7582
      vertex 55.3077 11 35.0514
      vertex 54.6845 11 35.7582
    endloop
  endfacet
  facet normal 0.75011 0 0.661313
    outer loop
      vertex 55.3077 11 35.0514
      vertex 54.6845 -1 35.7582
      vertex 55.3077 -1 35.0514
    endloop
  endfacet
  facet normal -0.156434 0 0.987688
    outer loop
      vertex 40.9393 11 40.2243
      vertex 41.87 -1 40.3717
      vertex 41.87 11 40.3717
    endloop
  endfacet
  facet normal -0.156434 0 0.987688
    outer loop
      vertex 41.87 -1 40.3717
      vertex 40.9393 11 40.2243
      vertex 40.9393 -1 40.2243
    endloop
  endfacet
  facet normal -1.86136e-07 1 2.39964e-07
    outer loop
      vertex 34.9332 11 37.6253
      vertex 29.2213 11 29.2203
      vertex 34.1886 11 37.0477
    endloop
  endfacet
  facet normal -2.43846e-07 1 2.76588e-07
    outer loop
      vertex 34.1886 11 37.0477
      vertex 29.2213 11 29.2203
      vertex 33.4818 11 36.4245
    endloop
  endfacet
  facet normal -0.940881 0 0.338737
    outer loop
      vertex 29.4842 -1 30.1253
      vertex 29.8034 11 31.0119
      vertex 29.4842 11 30.1253
    endloop
  endfacet
  facet normal -0.940881 0 0.338737
    outer loop
      vertex 29.8034 11 31.0119
      vertex 29.4842 -1 30.1253
      vertex 29.8034 -1 31.0119
    endloop
  endfacet
  facet normal 0.156434 0 0.987688
    outer loop
      vertex 45.63 11 40.3717
      vertex 46.5607 -1 40.2243
      vertex 46.5607 11 40.2243
    endloop
  endfacet
  facet normal 0.156434 0 0.987688
    outer loop
      vertex 46.5607 -1 40.2243
      vertex 45.63 11 40.3717
      vertex 45.63 -1 40.3717
    endloop
  endfacet
  facet normal 2.77198e-09 1 8.81968e-08
    outer loop
      vertex 58.2787 11 29.2203
      vertex 43.75 11 40.49
      vertex 44.6919 11 40.4604
    endloop
  endfacet
  facet normal 0.33874 0 0.94088
    outer loop
      vertex 48.3853 11 39.7558
      vertex 49.2719 -1 39.4366
      vertex 49.2719 11 39.4366
    endloop
  endfacet
  facet normal 0.33874 0 0.94088
    outer loop
      vertex 49.2719 -1 39.4366
      vertex 48.3853 11 39.7558
      vertex 48.3853 -1 39.7558
    endloop
  endfacet
  facet normal 8.53464e-08 1 1.67503e-07
    outer loop
      vertex 58.2787 11 29.2203
      vertex 50.1367 11 39.0624
      vertex 50.9763 11 38.6346
    endloop
  endfacet
  facet normal 6.53127e-08 1 1.50929e-07
    outer loop
      vertex 58.2787 11 29.2203
      vertex 49.2719 11 39.4366
      vertex 50.1367 11 39.0624
    endloop
  endfacet
  facet normal 0.562081 0 0.827082
    outer loop
      vertex 51.7874 11 38.1549
      vertex 52.5668 -1 37.6253
      vertex 52.5668 11 37.6253
    endloop
  endfacet
  facet normal 0.562081 0 0.827082
    outer loop
      vertex 52.5668 -1 37.6253
      vertex 51.7874 11 38.1549
      vertex 51.7874 -1 38.1549
    endloop
  endfacet
  facet normal 0.612908 0 0.790154
    outer loop
      vertex 52.5668 11 37.6253
      vertex 53.3114 -1 37.0477
      vertex 53.3114 11 37.0477
    endloop
  endfacet
  facet normal 0.612908 0 0.790154
    outer loop
      vertex 53.3114 -1 37.0477
      vertex 52.5668 11 37.6253
      vertex 52.5668 -1 37.6253
    endloop
  endfacet
  facet normal 4.39543e-07 1 3.87511e-07
    outer loop
      vertex 58.2787 11 29.2203
      vertex 54.6845 11 35.7582
      vertex 55.3077 11 35.0514
    endloop
  endfacet
  facet normal 0.790156 -0 0.612906
    outer loop
      vertex 55.3077 -1 35.0514
      vertex 55.8853 11 34.3068
      vertex 55.3077 11 35.0514
    endloop
  endfacet
  facet normal 0.790156 0 0.612906
    outer loop
      vertex 55.8853 11 34.3068
      vertex 55.3077 -1 35.0514
      vertex 55.8853 -1 34.3068
    endloop
  endfacet
  facet normal 0.860741 -0 0.509043
    outer loop
      vertex 56.4149 -1 33.5274
      vertex 56.8946 11 32.7163
      vertex 56.4149 11 33.5274
    endloop
  endfacet
  facet normal 0.860741 0 0.509043
    outer loop
      vertex 56.8946 11 32.7163
      vertex 56.4149 -1 33.5274
      vertex 56.8946 -1 32.7163
    endloop
  endfacet
  facet normal 0.827081 -0 0.562083
    outer loop
      vertex 55.8853 -1 34.3068
      vertex 56.4149 11 33.5274
      vertex 55.8853 11 34.3068
    endloop
  endfacet
  facet normal 0.827081 0 0.562083
    outer loop
      vertex 56.4149 11 33.5274
      vertex 55.8853 -1 34.3068
      vertex 56.4149 -1 33.5274
    endloop
  endfacet
  facet normal 0.917754 -0 0.39715
    outer loop
      vertex 57.3224 -1 31.8767
      vertex 57.6966 11 31.0119
      vertex 57.3224 11 31.8767
    endloop
  endfacet
  facet normal 0.917754 0 0.39715
    outer loop
      vertex 57.6966 11 31.0119
      vertex 57.3224 -1 31.8767
      vertex 57.6966 -1 31.0119
    endloop
  endfacet
  facet normal -3.61648e-08 1 1.24481e-07
    outer loop
      vertex 40.0197 11 40.0187
      vertex 29.2213 11 29.2203
      vertex 39.1147 11 39.7558
    endloop
  endfacet
  facet normal -1.4329e-07 1 2.10846e-07
    outer loop
      vertex 35.7126 11 38.1549
      vertex 29.2213 11 29.2203
      vertex 34.9332 11 37.6253
    endloop
  endfacet
  facet normal -8.96956e-07 1 6.0957e-07
    outer loop
      vertex 31.6147 11 34.3068
      vertex 29.2213 11 29.2203
      vertex 31.0851 11 33.5274
    endloop
  endfacet
  facet normal -4.9372e-06 1 2.13652e-06
    outer loop
      vertex 30.1776 11 31.8767
      vertex 29.2213 11 29.2203
      vertex 29.8034 11 31.0119
    endloop
  endfacet
  facet normal 1.65114e-08 1 1.04249e-07
    outer loop
      vertex 58.2787 11 29.2203
      vertex 45.63 11 40.3717
      vertex 46.5607 11 40.2243
    endloop
  endfacet
  facet normal 9.05496e-09 1 9.57917e-08
    outer loop
      vertex 58.2787 11 29.2203
      vertex 44.6919 11 40.4604
      vertex 45.63 11 40.3717
    endloop
  endfacet
  facet normal 4.92352e-08 1 1.36755e-07
    outer loop
      vertex 58.2787 11 29.2203
      vertex 48.3853 11 39.7558
      vertex 49.2719 11 39.4366
    endloop
  endfacet
  facet normal 3.61648e-08 1 1.24481e-07
    outer loop
      vertex 58.2787 11 29.2203
      vertex 47.4803 11 40.0187
      vertex 48.3853 11 39.7558
    endloop
  endfacet
  facet normal 0.278989 0 0.960294
    outer loop
      vertex 47.4803 11 40.0187
      vertex 48.3853 -1 39.7558
      vertex 48.3853 11 39.7558
    endloop
  endfacet
  facet normal 0.278989 0 0.960294
    outer loop
      vertex 48.3853 -1 39.7558
      vertex 47.4803 11 40.0187
      vertex 47.4803 -1 40.0187
    endloop
  endfacet
  facet normal 0.453989 0 0.891007
    outer loop
      vertex 50.1367 11 39.0624
      vertex 50.9763 -1 38.6346
      vertex 50.9763 11 38.6346
    endloop
  endfacet
  facet normal 0.453989 0 0.891007
    outer loop
      vertex 50.9763 -1 38.6346
      vertex 50.1367 11 39.0624
      vertex 50.1367 -1 39.0624
    endloop
  endfacet
  facet normal 1.10685e-07 1 1.87157e-07
    outer loop
      vertex 58.2787 11 29.2203
      vertex 50.9763 11 38.6346
      vertex 51.7874 11 38.1549
    endloop
  endfacet
  facet normal 0.509043 0 0.860741
    outer loop
      vertex 50.9763 11 38.6346
      vertex 51.7874 -1 38.1549
      vertex 51.7874 11 38.1549
    endloop
  endfacet
  facet normal 0.509043 0 0.860741
    outer loop
      vertex 51.7874 -1 38.1549
      vertex 50.9763 11 38.6346
      vertex 50.9763 -1 38.6346
    endloop
  endfacet
  facet normal 0.707107 -0 0.707107
    outer loop
      vertex 54.0182 -1 36.4245
      vertex 54.6845 11 35.7582
      vertex 54.0182 11 36.4245
    endloop
  endfacet
  facet normal 0.707107 0 0.707107
    outer loop
      vertex 54.6845 11 35.7582
      vertex 54.0182 -1 36.4245
      vertex 54.6845 -1 35.7582
    endloop
  endfacet
  facet normal 1.86136e-07 1 2.39964e-07
    outer loop
      vertex 58.2787 11 29.2203
      vertex 52.5668 11 37.6253
      vertex 53.3114 11 37.0477
    endloop
  endfacet
  facet normal 4.93709e-06 1 2.13649e-06
    outer loop
      vertex 58.2787 11 29.2203
      vertex 57.3224 11 31.8767
      vertex 57.6966 11 31.0119
    endloop
  endfacet
  facet normal 2.40146e-06 1 1.2236e-06
    outer loop
      vertex 58.2787 11 29.2203
      vertex 56.8946 11 32.7163
      vertex 57.3224 11 31.8767
    endloop
  endfacet
  facet normal -0.33874 0 0.94088
    outer loop
      vertex 38.2281 11 39.4366
      vertex 39.1147 -1 39.7558
      vertex 39.1147 11 39.7558
    endloop
  endfacet
  facet normal -0.33874 0 0.94088
    outer loop
      vertex 39.1147 -1 39.7558
      vertex 38.2281 11 39.4366
      vertex 38.2281 -1 39.4366
    endloop
  endfacet
  facet normal -6.53127e-08 1 1.50929e-07
    outer loop
      vertex 38.2281 11 39.4366
      vertex 29.2213 11 29.2203
      vertex 37.3633 11 39.0624
    endloop
  endfacet
  facet normal -8.53464e-08 1 1.67503e-07
    outer loop
      vertex 37.3633 11 39.0624
      vertex 29.2213 11 29.2203
      vertex 36.5237 11 38.6346
    endloop
  endfacet
  facet normal -0.661313 0 0.75011
    outer loop
      vertex 33.4818 11 36.4245
      vertex 34.1886 -1 37.0477
      vertex 34.1886 11 37.0477
    endloop
  endfacet
  facet normal -0.661313 0 0.75011
    outer loop
      vertex 34.1886 -1 37.0477
      vertex 33.4818 11 36.4245
      vertex 33.4818 -1 36.4245
    endloop
  endfacet
  facet normal -0.453989 0 0.891007
    outer loop
      vertex 36.5237 11 38.6346
      vertex 37.3633 -1 39.0624
      vertex 37.3633 11 39.0624
    endloop
  endfacet
  facet normal -0.453989 0 0.891007
    outer loop
      vertex 37.3633 -1 39.0624
      vertex 36.5237 11 38.6346
      vertex 36.5237 -1 38.6346
    endloop
  endfacet
  facet normal -0.827081 0 0.562083
    outer loop
      vertex 31.0851 -1 33.5274
      vertex 31.6147 11 34.3068
      vertex 31.0851 11 33.5274
    endloop
  endfacet
  facet normal -0.827081 0 0.562083
    outer loop
      vertex 31.6147 11 34.3068
      vertex 31.0851 -1 33.5274
      vertex 31.6147 -1 34.3068
    endloop
  endfacet
  facet normal -0.707107 0 0.707107
    outer loop
      vertex 32.8155 -1 35.7582
      vertex 33.4818 11 36.4245
      vertex 32.8155 11 35.7582
    endloop
  endfacet
  facet normal -0.707107 0 0.707107
    outer loop
      vertex 33.4818 11 36.4245
      vertex 32.8155 -1 35.7582
      vertex 33.4818 -1 36.4245
    endloop
  endfacet
  facet normal -6.14506e-07 1 4.76659e-07
    outer loop
      vertex 32.1923 11 35.0514
      vertex 29.2213 11 29.2203
      vertex 31.6147 11 34.3068
    endloop
  endfacet
  facet normal -0.891007 0 0.45399
    outer loop
      vertex 30.1776 -1 31.8767
      vertex 30.6054 11 32.7163
      vertex 30.1776 11 31.8767
    endloop
  endfacet
  facet normal -0.891007 0 0.45399
    outer loop
      vertex 30.6054 11 32.7163
      vertex 30.1776 -1 31.8767
      vertex 30.6054 -1 32.7163
    endloop
  endfacet
  facet normal -1.51656e-05 1 5.45993e-06
    outer loop
      vertex 29.8034 11 31.0119
      vertex 29.2213 11 29.2203
      vertex 29.4842 11 30.1253
    endloop
  endfacet
  facet normal -0.917754 0 0.397149
    outer loop
      vertex 29.8034 -1 31.0119
      vertex 30.1776 11 31.8767
      vertex 29.8034 11 31.0119
    endloop
  endfacet
  facet normal -0.917754 0 0.397149
    outer loop
      vertex 30.1776 11 31.8767
      vertex 29.8034 -1 31.0119
      vertex 30.1776 -1 31.8767
    endloop
  endfacet
  facet normal 3.23978e-07 1 3.23978e-07
    outer loop
      vertex 58.2787 11 29.2203
      vertex 54.0182 11 36.4245
      vertex 54.6845 11 35.7582
    endloop
  endfacet
  facet normal 2.43846e-07 1 2.76588e-07
    outer loop
      vertex 58.2787 11 29.2203
      vertex 53.3114 11 37.0477
      vertex 54.0182 11 36.4245
    endloop
  endfacet
  facet normal -0.218145 0 0.975916
    outer loop
      vertex 40.0197 11 40.0187
      vertex 40.9393 -1 40.2243
      vertex 40.9393 11 40.2243
    endloop
  endfacet
  facet normal -0.218145 0 0.975916
    outer loop
      vertex 40.9393 -1 40.2243
      vertex 40.0197 11 40.0187
      vertex 40.0197 -1 40.0187
    endloop
  endfacet
  facet normal -4.92352e-08 1 1.36755e-07
    outer loop
      vertex 39.1147 11 39.7558
      vertex 29.2213 11 29.2203
      vertex 38.2281 11 39.4366
    endloop
  endfacet
  facet normal -0.790156 0 0.612906
    outer loop
      vertex 31.6147 -1 34.3068
      vertex 32.1923 11 35.0514
      vertex 31.6147 11 34.3068
    endloop
  endfacet
  facet normal -0.790156 0 0.612906
    outer loop
      vertex 32.1923 11 35.0514
      vertex 31.6147 -1 34.3068
      vertex 32.1923 -1 35.0514
    endloop
  endfacet
  facet normal -1.39556e-06 1 8.25335e-07
    outer loop
      vertex 31.0851 11 33.5274
      vertex 29.2213 11 29.2203
      vertex 30.6054 11 32.7163
    endloop
  endfacet
  facet normal -3.23978e-07 1 3.23978e-07
    outer loop
      vertex 33.4818 11 36.4245
      vertex 29.2213 11 29.2203
      vertex 32.8155 11 35.7582
    endloop
  endfacet
  facet normal -4.39543e-07 1 3.87511e-07
    outer loop
      vertex 32.8155 11 35.7582
      vertex 29.2213 11 29.2203
      vertex 32.1923 11 35.0514
    endloop
  endfacet
  facet normal -0.562081 0 0.827082
    outer loop
      vertex 34.9332 11 37.6253
      vertex 35.7126 -1 38.1549
      vertex 35.7126 11 38.1549
    endloop
  endfacet
  facet normal -0.562081 0 0.827082
    outer loop
      vertex 35.7126 -1 38.1549
      vertex 34.9332 11 37.6253
      vertex 34.9332 -1 37.6253
    endloop
  endfacet
  facet normal -0.397147 0 0.917755
    outer loop
      vertex 37.3633 11 39.0624
      vertex 38.2281 -1 39.4366
      vertex 38.2281 11 39.4366
    endloop
  endfacet
  facet normal -0.397147 0 0.917755
    outer loop
      vertex 38.2281 -1 39.4366
      vertex 37.3633 11 39.0624
      vertex 37.3633 -1 39.0624
    endloop
  endfacet
  facet normal -0.75011 0 0.661313
    outer loop
      vertex 32.1923 -1 35.0514
      vertex 32.8155 11 35.7582
      vertex 32.1923 11 35.0514
    endloop
  endfacet
  facet normal -0.75011 0 0.661313
    outer loop
      vertex 32.8155 11 35.7582
      vertex 32.1923 -1 35.0514
      vertex 32.8155 -1 35.7582
    endloop
  endfacet
  facet normal -0.612908 0 0.790154
    outer loop
      vertex 34.1886 11 37.0477
      vertex 34.9332 -1 37.6253
      vertex 34.9332 11 37.6253
    endloop
  endfacet
  facet normal -0.612908 0 0.790154
    outer loop
      vertex 34.9332 -1 37.6253
      vertex 34.1886 11 37.0477
      vertex 34.1886 -1 37.0477
    endloop
  endfacet
  facet normal -1 0 0
    outer loop
      vertex 28.75 -1 12.59
      vertex 28.75 11 25.49
      vertex 28.75 11 12.59
    endloop
  endfacet
  facet normal -1 -0 0
    outer loop
      vertex 28.75 11 25.49
      vertex 28.75 -1 12.59
      vertex 28.75 -1 25.49
    endloop
  endfacet
  facet normal 1 -0 0
    outer loop
      vertex 58.75 -1 25.49
      vertex 58.75 11 12.59
      vertex 58.75 11 25.49
    endloop
  endfacet
  facet normal 1 0 0
    outer loop
      vertex 58.75 11 12.59
      vertex 58.75 -1 25.49
      vertex 58.75 -1 12.59
    endloop
  endfacet
  facet normal 0 0 -1
    outer loop
      vertex 28.75 -1 12.59
      vertex 34.7 11 12.59
      vertex 34.7 -1 12.59
    endloop
  endfacet
  facet normal -0 0 -1
    outer loop
      vertex 34.7 11 12.59
      vertex 28.75 -1 12.59
      vertex 28.75 11 12.59
    endloop
  endfacet
  facet normal 0 0 -1
    outer loop
      vertex 56.1 -1 12.59
      vertex 58.75 11 12.59
      vertex 58.75 -1 12.59
    endloop
  endfacet
  facet normal -0 0 -1
    outer loop
      vertex 58.75 11 12.59
      vertex 56.1 -1 12.59
      vertex 56.1 11 12.59
    endloop
  endfacet
  facet normal 0 0 -1
    outer loop
      vertex 35.7 -1 12.59
      vertex 44.9 11 12.59
      vertex 44.9 -1 12.59
    endloop
  endfacet
  facet normal -0 0 -1
    outer loop
      vertex 44.9 11 12.59
      vertex 35.7 -1 12.59
      vertex 35.7 11 12.59
    endloop
  endfacet
  facet normal 0 0 -1
    outer loop
      vertex 45.9 -1 12.59
      vertex 55.1 11 12.59
      vertex 55.1 -1 12.59
    endloop
  endfacet
  facet normal -0 0 -1
    outer loop
      vertex 55.1 11 12.59
      vertex 45.9 -1 12.59
      vertex 45.9 11 12.59
    endloop
  endfacet
  facet normal 0 0 -1
    outer loop
      vertex 34.7 -1 11.59
      vertex 35.7 11 11.59
      vertex 35.7 -1 11.59
    endloop
  endfacet
  facet normal -0 0 -1
    outer loop
      vertex 35.7 11 11.59
      vertex 34.7 -1 11.59
      vertex 34.7 11 11.59
    endloop
  endfacet
  facet normal 0 0 -1
    outer loop
      vertex 44.9 -1 11.59
      vertex 45.9 11 11.59
      vertex 45.9 -1 11.59
    endloop
  endfacet
  facet normal -0 0 -1
    outer loop
      vertex 45.9 11 11.59
      vertex 44.9 -1 11.59
      vertex 44.9 11 11.59
    endloop
  endfacet
  facet normal 0 0 -1
    outer loop
      vertex 55.1 -1 11.59
      vertex 56.1 11 11.59
      vertex 56.1 -1 11.59
    endloop
  endfacet
  facet normal -0 0 -1
    outer loop
      vertex 56.1 11 11.59
      vertex 55.1 -1 11.59
      vertex 55.1 11 11.59
    endloop
  endfacet
endsolid OpenSCAD_Model
