solid OpenSCAD_Model
  facet normal 0 -1 0
    outer loop
      vertex 95.9 -1 11.59
      vertex 96.9 -1 12.59
      vertex 95.9 -1 12.59
    endloop
  endfacet
  facet normal 0 -1 -0
    outer loop
      vertex 96.9 -1 12.59
      vertex 95.9 -1 11.59
      vertex 96.9 -1 11.59
    endloop
  endfacet
  facet normal 0 -1 0
    outer loop
      vertex 85.7 -1 11.59
      vertex 86.7 -1 12.59
      vertex 85.7 -1 12.59
    endloop
  endfacet
  facet normal 0 -1 -0
    outer loop
      vertex 86.7 -1 12.59
      vertex 85.7 -1 11.59
      vertex 86.7 -1 11.59
    endloop
  endfacet
  facet normal 0 -1 0
    outer loop
      vertex 75.5 -1 11.59
      vertex 76.5 -1 12.59
      vertex 75.5 -1 12.59
    endloop
  endfacet
  facet normal 0 -1 -0
    outer loop
      vertex 76.5 -1 12.59
      vertex 75.5 -1 11.59
      vertex 76.5 -1 11.59
    endloop
  endfacet
  facet normal 0 -1 0
    outer loop
      vertex 86.5581 -1 40.4604
      vertex 88.4419 -1 40.4604
      vertex 87.5 -1 40.49
    endloop
  endfacet
  facet normal 0 -1 0
    outer loop
      vertex 85.62 -1 40.3717
      vertex 88.4419 -1 40.4604
      vertex 86.5581 -1 40.4604
    endloop
  endfacet
  facet normal 0 -1 0
    outer loop
      vertex 85.62 -1 40.3717
      vertex 89.38 -1 40.3717
      vertex 88.4419 -1 40.4604
    endloop
  endfacet
  facet normal 0 -1 0
    outer loop
      vertex 86.7 -1 12.59
      vertex 85.62 -1 40.3717
      vertex 84.6893 -1 40.2243
    endloop
  endfacet
  facet normal 0 -1 0
    outer loop
      vertex 85.62 -1 40.3717
      vertex 86.7 -1 12.59
      vertex 89.38 -1 40.3717
    endloop
  endfacet
  facet normal 0 -1 0
    outer loop
      vertex 86.7 -1 12.59
      vertex 84.6893 -1 40.2243
      vertex 83.7697 -1 40.0187
    endloop
  endfacet
  facet normal 0 -1 -0
    outer loop
      vertex 89.38 -1 40.3717
      vertex 86.7 -1 12.59
      vertex 90.3107 -1 40.2243
    endloop
  endfacet
  facet normal 0 -1 0
    outer loop
      vertex 86.7 -1 12.59
      vertex 83.7697 -1 40.0187
      vertex 82.8647 -1 39.7558
    endloop
  endfacet
  facet normal 0 -1 -0
    outer loop
      vertex 90.3107 -1 40.2243
      vertex 86.7 -1 12.59
      vertex 91.2303 -1 40.0187
    endloop
  endfacet
  facet normal 0 -1 0
    outer loop
      vertex 86.7 -1 12.59
      vertex 82.8647 -1 39.7558
      vertex 81.9781 -1 39.4366
    endloop
  endfacet
  facet normal 0 -1 -0
    outer loop
      vertex 91.2303 -1 40.0187
      vertex 86.7 -1 12.59
      vertex 92.1353 -1 39.7558
    endloop
  endfacet
  facet normal 0 -1 0
    outer loop
      vertex 86.7 -1 12.59
      vertex 81.9781 -1 39.4366
      vertex 81.1133 -1 39.0624
    endloop
  endfacet
  facet normal 0 -1 -0
    outer loop
      vertex 92.1353 -1 39.7558
      vertex 86.7 -1 12.59
      vertex 93.0219 -1 39.4366
    endloop
  endfacet
  facet normal 0 -1 0
    outer loop
      vertex 86.7 -1 12.59
      vertex 81.1133 -1 39.0624
      vertex 80.2737 -1 38.6346
    endloop
  endfacet
  facet normal 0 -1 -0
    outer loop
      vertex 93.0219 -1 39.4366
      vertex 86.7 -1 12.59
      vertex 93.8867 -1 39.0624
    endloop
  endfacet
  facet normal 0 -1 0
    outer loop
      vertex 86.7 -1 12.59
      vertex 80.2737 -1 38.6346
      vertex 79.4626 -1 38.1549
    endloop
  endfacet
  facet normal 0 -1 -0
    outer loop
      vertex 93.8867 -1 39.0624
      vertex 86.7 -1 12.59
      vertex 94.7263 -1 38.6346
    endloop
  endfacet
  facet normal 0 -1 0
    outer loop
      vertex 86.7 -1 12.59
      vertex 79.4626 -1 38.1549
      vertex 78.6832 -1 37.6253
    endloop
  endfacet
  facet normal 0 -1 -0
    outer loop
      vertex 94.7263 -1 38.6346
      vertex 86.7 -1 12.59
      vertex 95.5374 -1 38.1549
    endloop
  endfacet
  facet normal 0 -1 0
    outer loop
      vertex 86.7 -1 12.59
      vertex 78.6832 -1 37.6253
      vertex 77.9386 -1 37.0477
    endloop
  endfacet
  facet normal 0 -1 -0
    outer loop
      vertex 95.5374 -1 38.1549
      vertex 86.7 -1 12.59
      vertex 96.3168 -1 37.6253
    endloop
  endfacet
  facet normal 0 -1 0
    outer loop
      vertex 86.7 -1 12.59
      vertex 77.9386 -1 37.0477
      vertex 77.2318 -1 36.4245
    endloop
  endfacet
  facet normal 0 -1 -0
    outer loop
      vertex 96.3168 -1 37.6253
      vertex 86.7 -1 12.59
      vertex 97.0614 -1 37.0477
    endloop
  endfacet
  facet normal 0 -1 0
    outer loop
      vertex 86.7 -1 12.59
      vertex 77.2318 -1 36.4245
      vertex 76.5655 -1 35.7582
    endloop
  endfacet
  facet normal 0 -1 -0
    outer loop
      vertex 97.0614 -1 37.0477
      vertex 86.7 -1 12.59
      vertex 97.7682 -1 36.4245
    endloop
  endfacet
  facet normal 0 -1 0
    outer loop
      vertex 86.7 -1 12.59
      vertex 76.5655 -1 35.7582
      vertex 75.9423 -1 35.0514
    endloop
  endfacet
  facet normal 0 -1 -0
    outer loop
      vertex 97.7682 -1 36.4245
      vertex 86.7 -1 12.59
      vertex 98.4345 -1 35.7582
    endloop
  endfacet
  facet normal 0 -1 0
    outer loop
      vertex 86.7 -1 12.59
      vertex 75.9423 -1 35.0514
      vertex 75.3647 -1 34.3068
    endloop
  endfacet
  facet normal 0 -1 -0
    outer loop
      vertex 98.4345 -1 35.7582
      vertex 86.7 -1 12.59
      vertex 99.0577 -1 35.0514
    endloop
  endfacet
  facet normal 0 -1 0
    outer loop
      vertex 86.7 -1 12.59
      vertex 75.3647 -1 34.3068
      vertex 74.8351 -1 33.5274
    endloop
  endfacet
  facet normal 0 -1 -0
    outer loop
      vertex 99.0577 -1 35.0514
      vertex 86.7 -1 12.59
      vertex 99.6353 -1 34.3068
    endloop
  endfacet
  facet normal 0 -1 0
    outer loop
      vertex 86.7 -1 12.59
      vertex 74.8351 -1 33.5274
      vertex 74.3554 -1 32.7163
    endloop
  endfacet
  facet normal 0 -1 -0
    outer loop
      vertex 99.6353 -1 34.3068
      vertex 86.7 -1 12.59
      vertex 100.165 -1 33.5274
    endloop
  endfacet
  facet normal 0 -1 0
    outer loop
      vertex 86.7 -1 12.59
      vertex 74.3554 -1 32.7163
      vertex 73.9276 -1 31.8767
    endloop
  endfacet
  facet normal 0 -1 -0
    outer loop
      vertex 100.165 -1 33.5274
      vertex 86.7 -1 12.59
      vertex 100.645 -1 32.7163
    endloop
  endfacet
  facet normal 0 -1 0
    outer loop
      vertex 86.7 -1 12.59
      vertex 73.9276 -1 31.8767
      vertex 73.5534 -1 31.0119
    endloop
  endfacet
  facet normal 0 -1 -0
    outer loop
      vertex 100.645 -1 32.7163
      vertex 86.7 -1 12.59
      vertex 101.072 -1 31.8767
    endloop
  endfacet
  facet normal 0 -1 0
    outer loop
      vertex 85.7 -1 12.59
      vertex 73.5534 -1 31.0119
      vertex 73.2342 -1 30.1253
    endloop
  endfacet
  facet normal 0 -1 -0
    outer loop
      vertex 101.072 -1 31.8767
      vertex 86.7 -1 12.59
      vertex 101.447 -1 31.0119
    endloop
  endfacet
  facet normal 0 -1 0
    outer loop
      vertex 85.7 -1 12.59
      vertex 73.2342 -1 30.1253
      vertex 72.9713 -1 29.2203
    endloop
  endfacet
  facet normal 0 -1 -0
    outer loop
      vertex 101.447 -1 31.0119
      vertex 86.7 -1 12.59
      vertex 101.766 -1 30.1253
    endloop
  endfacet
  facet normal 0 -1 0
    outer loop
      vertex 85.7 -1 12.59
      vertex 72.9713 -1 29.2203
      vertex 72.7657 -1 28.3007
    endloop
  endfacet
  facet normal 0 -1 -0
    outer loop
      vertex 101.766 -1 30.1253
      vertex 86.7 -1 12.59
      vertex 102.029 -1 29.2203
    endloop
  endfacet
  facet normal 0 -1 0
    outer loop
      vertex 85.7 -1 12.59
      vertex 72.7657 -1 28.3007
      vertex 72.6183 -1 27.37
    endloop
  endfacet
  facet normal 0 -1 -0
    outer loop
      vertex 102.029 -1 29.2203
      vertex 86.7 -1 12.59
      vertex 102.234 -1 28.3007
    endloop
  endfacet
  facet normal 0 -1 0
    outer loop
      vertex 85.7 -1 12.59
      vertex 72.6183 -1 27.37
      vertex 72.5296 -1 26.4319
    endloop
  endfacet
  facet normal 0 -1 -0
    outer loop
      vertex 102.234 -1 28.3007
      vertex 86.7 -1 12.59
      vertex 102.382 -1 27.37
    endloop
  endfacet
  facet normal 0 -1 0
    outer loop
      vertex 85.7 -1 12.59
      vertex 72.5296 -1 26.4319
      vertex 72.5 -1 25.49
    endloop
  endfacet
  facet normal 0 -1 -0
    outer loop
      vertex 102.382 -1 27.37
      vertex 86.7 -1 12.59
      vertex 102.47 -1 26.4319
    endloop
  endfacet
  facet normal 0 -1 0
    outer loop
      vertex 75.5 -1 12.59
      vertex 72.5 -1 25.49
      vertex 72.5 -1 12.59
    endloop
  endfacet
  facet normal 0 -1 0
    outer loop
      vertex 76.5 -1 12.59
      vertex 72.5 -1 25.49
      vertex 75.5 -1 12.59
    endloop
  endfacet
  facet normal 0 -1 0
    outer loop
      vertex 85.7 -1 12.59
      vertex 72.5 -1 25.49
      vertex 76.5 -1 12.59
    endloop
  endfacet
  facet normal 0 -1 0
    outer loop
      vertex 73.5534 -1 31.0119
      vertex 85.7 -1 12.59
      vertex 86.7 -1 12.59
    endloop
  endfacet
  facet normal 0 -1 -0
    outer loop
      vertex 102.47 -1 26.4319
      vertex 86.7 -1 12.59
      vertex 102.5 -1 25.49
    endloop
  endfacet
  facet normal 0 -1 0
    outer loop
      vertex 95.9 -1 12.59
      vertex 102.5 -1 25.49
      vertex 86.7 -1 12.59
    endloop
  endfacet
  facet normal 0 -1 0
    outer loop
      vertex 96.9 -1 12.59
      vertex 102.5 -1 25.49
      vertex 95.9 -1 12.59
    endloop
  endfacet
  facet normal 0 -1 -0
    outer loop
      vertex 102.5 -1 25.49
      vertex 96.9 -1 12.59
      vertex 102.5 -1 12.59
    endloop
  endfacet
  facet normal -1 0 0
    outer loop
      vertex 75.5 -1 11.59
      vertex 75.5 11 12.59
      vertex 75.5 11 11.59
    endloop
  endfacet
  facet normal -1 -0 0
    outer loop
      vertex 75.5 11 12.59
      vertex 75.5 -1 11.59
      vertex 75.5 -1 12.59
    endloop
  endfacet
  facet normal 1 -0 0
    outer loop
      vertex 76.5 -1 12.59
      vertex 76.5 11 11.59
      vertex 76.5 11 12.59
    endloop
  endfacet
  facet normal 1 0 0
    outer loop
      vertex 76.5 11 11.59
      vertex 76.5 -1 12.59
      vertex 76.5 -1 11.59
    endloop
  endfacet
  facet normal -1 0 0
    outer loop
      vertex 85.7 -1 11.59
      vertex 85.7 11 12.59
      vertex 85.7 11 11.59
    endloop
  endfacet
  facet normal -1 -0 0
    outer loop
      vertex 85.7 11 12.59
      vertex 85.7 -1 11.59
      vertex 85.7 -1 12.59
    endloop
  endfacet
  facet normal 1 -0 0
    outer loop
      vertex 86.7 -1 12.59
      vertex 86.7 11 11.59
      vertex 86.7 11 12.59
    endloop
  endfacet
  facet normal 1 0 0
    outer loop
      vertex 86.7 11 11.59
      vertex 86.7 -1 12.59
      vertex 86.7 -1 11.59
    endloop
  endfacet
  facet normal -1 0 0
    outer loop
      vertex 95.9 -1 11.59
      vertex 95.9 11 12.59
      vertex 95.9 11 11.59
    endloop
  endfacet
  facet normal -1 -0 0
    outer loop
      vertex 95.9 11 12.59
      vertex 95.9 -1 11.59
      vertex 95.9 -1 12.59
    endloop
  endfacet
  facet normal 1 -0 0
    outer loop
      vertex 96.9 -1 12.59
      vertex 96.9 11 11.59
      vertex 96.9 11 12.59
    endloop
  endfacet
  facet normal 1 0 0
    outer loop
      vertex 96.9 11 11.59
      vertex 96.9 -1 12.59
      vertex 96.9 -1 11.59
    endloop
  endfacet
  facet normal -0.999506 0 0.0314139
    outer loop
      vertex 72.5296 -1 26.4319
      vertex 72.5 11 25.49
      vertex 72.5 -1 25.49
    endloop
  endfacet
  facet normal 0.0941082 0 0.995562
    outer loop
      vertex 88.4419 11 40.4604
      vertex 89.38 -1 40.3717
      vertex 89.38 11 40.3717
    endloop
  endfacet
  facet normal 0.0941082 0 0.995562
    outer loop
      vertex 89.38 -1 40.3717
      vertex 88.4419 11 40.4604
      vertex 88.4419 -1 40.4604
    endloop
  endfacet
  facet normal 0 1 8.46232e-08
    outer loop
      vertex 102.029 11 29.2203
      vertex 72.9713 11 29.2203
      vertex 87.5 11 40.49
    endloop
  endfacet
  facet normal 0.960293 -0 0.278993
    outer loop
      vertex 101.766 -1 30.1253
      vertex 102.029 11 29.2203
      vertex 101.766 11 30.1253
    endloop
  endfacet
  facet normal 0.960293 0 0.278993
    outer loop
      vertex 102.029 11 29.2203
      vertex 101.766 -1 30.1253
      vertex 102.029 -1 29.2203
    endloop
  endfacet
  facet normal -2.77198e-09 1 8.81968e-08
    outer loop
      vertex 87.5 11 40.49
      vertex 72.9713 11 29.2203
      vertex 86.5581 11 40.4604
    endloop
  endfacet
  facet normal -0.999506 0 0.0314139
    outer loop
      vertex 72.5296 11 26.4319
      vertex 72.5 11 25.49
      vertex 72.5296 -1 26.4319
    endloop
  endfacet
  facet normal -0.0941082 0 0.995562
    outer loop
      vertex 85.62 11 40.3717
      vertex 86.5581 -1 40.4604
      vertex 86.5581 11 40.4604
    endloop
  endfacet
  facet normal -0.0941082 0 0.995562
    outer loop
      vertex 86.5581 -1 40.4604
      vertex 85.62 11 40.3717
      vertex 85.62 -1 40.3717
    endloop
  endfacet
  facet normal 6.14516e-07 1 4.76663e-07
    outer loop
      vertex 102.029 11 29.2203
      vertex 99.0577 11 35.0514
      vertex 99.6353 11 34.3068
    endloop
  endfacet
  facet normal -1.65113e-08 1 1.04249e-07
    outer loop
      vertex 85.62 11 40.3717
      vertex 72.9713 11 29.2203
      vertex 84.6893 11 40.2243
    endloop
  endfacet
  facet normal -0.960293 0 0.278993
    outer loop
      vertex 72.9713 -1 29.2203
      vertex 73.2342 11 30.1253
      vertex 72.9713 11 29.2203
    endloop
  endfacet
  facet normal -0.960293 0 0.278993
    outer loop
      vertex 73.2342 11 30.1253
      vertex 72.9713 -1 29.2203
      vertex 73.2342 -1 30.1253
    endloop
  endfacet
  facet normal 0.031414 0 0.999506
    outer loop
      vertex 87.5 11 40.49
      vertex 88.4419 -1 40.4604
      vertex 88.4419 11 40.4604
    endloop
  endfacet
  facet normal 0.031414 0 0.999506
    outer loop
      vertex 88.4419 -1 40.4604
      vertex 87.5 11 40.49
      vertex 87.5 -1 40.49
    endloop
  endfacet
  facet normal 1.4329e-07 1 2.10846e-07
    outer loop
      vertex 102.029 11 29.2203
      vertex 95.5374 11 38.1549
      vertex 96.3168 11 37.6253
    endloop
  endfacet
  facet normal 0.995562 -0 0.0941041
    outer loop
      vertex 102.382 -1 27.37
      vertex 102.47 11 26.4319
      vertex 102.382 11 27.37
    endloop
  endfacet
  facet normal 0.995562 0 0.0941041
    outer loop
      vertex 102.47 11 26.4319
      vertex 102.382 -1 27.37
      vertex 102.47 -1 26.4319
    endloop
  endfacet
  facet normal 0.860741 -0 0.509043
    outer loop
      vertex 100.165 -1 33.5274
      vertex 100.645 11 32.7163
      vertex 100.165 11 33.5274
    endloop
  endfacet
  facet normal 0.860741 0 0.509043
    outer loop
      vertex 100.645 11 32.7163
      vertex 100.165 -1 33.5274
      vertex 100.645 -1 32.7163
    endloop
  endfacet
  facet normal 0.940881 -0 0.338737
    outer loop
      vertex 101.447 -1 31.0119
      vertex 101.766 11 30.1253
      vertex 101.447 11 31.0119
    endloop
  endfacet
  facet normal 0.940881 0 0.338737
    outer loop
      vertex 101.766 11 30.1253
      vertex 101.447 -1 31.0119
      vertex 101.766 -1 30.1253
    endloop
  endfacet
  facet normal 1.39556e-06 1 8.25335e-07
    outer loop
      vertex 102.029 11 29.2203
      vertex 100.165 11 33.5274
      vertex 100.645 11 32.7163
    endloop
  endfacet
  facet normal 0 1 -0
    outer loop
      vertex 76.5 11 11.59
      vertex 75.5 11 12.59
      vertex 76.5 11 12.59
    endloop
  endfacet
  facet normal 0 1 0
    outer loop
      vertex 75.5 11 12.59
      vertex 76.5 11 11.59
      vertex 75.5 11 11.59
    endloop
  endfacet
  facet normal 0 1 -0
    outer loop
      vertex 86.7 11 11.59
      vertex 85.7 11 12.59
      vertex 86.7 11 12.59
    endloop
  endfacet
  facet normal 0 1 0
    outer loop
      vertex 85.7 11 12.59
      vertex 86.7 11 11.59
      vertex 85.7 11 11.59
    endloop
  endfacet
  facet normal 0 1 -0
    outer loop
      vertex 96.9 11 11.59
      vertex 95.9 11 12.59
      vertex 96.9 11 12.59
    endloop
  endfacet
  facet normal 0 1 0
    outer loop
      vertex 95.9 11 12.59
      vertex 96.9 11 11.59
      vertex 95.9 11 11.59
    endloop
  endfacet
  facet normal 0 1 0
    outer loop
      vertex 86.7 11 12.59
      vertex 102.029 11 29.2203
      vertex 102.234 11 28.3007
    endloop
  endfacet
  facet normal 0 1 0
    outer loop
      vertex 102.029 11 29.2203
      vertex 86.7 11 12.59
      vertex 72.9713 11 29.2203
    endloop
  endfacet
  facet normal 0 1 0
    outer loop
      vertex 86.7 11 12.59
      vertex 102.234 11 28.3007
      vertex 102.382 11 27.37
    endloop
  endfacet
  facet normal 0 1 -0
    outer loop
      vertex 85.7 11 12.59
      vertex 72.9713 11 29.2203
      vertex 86.7 11 12.59
    endloop
  endfacet
  facet normal 0 1 0
    outer loop
      vertex 86.7 11 12.59
      vertex 102.382 11 27.37
      vertex 102.47 11 26.4319
    endloop
  endfacet
  facet normal 0 1 0
    outer loop
      vertex 72.9713 11 29.2203
      vertex 85.7 11 12.59
      vertex 72.7657 11 28.3007
    endloop
  endfacet
  facet normal 0 1 0
    outer loop
      vertex 86.7 11 12.59
      vertex 102.47 11 26.4319
      vertex 102.5 11 25.49
    endloop
  endfacet
  facet normal 0 1 0
    outer loop
      vertex 72.7657 11 28.3007
      vertex 85.7 11 12.59
      vertex 72.6183 11 27.37
    endloop
  endfacet
  facet normal 0 1 0
    outer loop
      vertex 96.9 11 12.59
      vertex 102.5 11 25.49
      vertex 102.5 11 12.59
    endloop
  endfacet
  facet normal 0 1 0
    outer loop
      vertex 95.9 11 12.59
      vertex 102.5 11 25.49
      vertex 96.9 11 12.59
    endloop
  endfacet
  facet normal 0 1 0
    outer loop
      vertex 86.7 11 12.59
      vertex 102.5 11 25.49
      vertex 95.9 11 12.59
    endloop
  endfacet
  facet normal 0 1 0
    outer loop
      vertex 72.6183 11 27.37
      vertex 85.7 11 12.59
      vertex 72.5296 11 26.4319
    endloop
  endfacet
  facet normal 0 1 0
    outer loop
      vertex 72.5296 11 26.4319
      vertex 85.7 11 12.59
      vertex 72.5 11 25.49
    endloop
  endfacet
  facet normal 0 1 -0
    outer loop
      vertex 76.5 11 12.59
      vertex 72.5 11 25.49
      vertex 85.7 11 12.59
    endloop
  endfacet
  facet normal 0 1 -0
    outer loop
      vertex 75.5 11 12.59
      vertex 72.5 11 25.49
      vertex 76.5 11 12.59
    endloop
  endfacet
  facet normal 0 1 0
    outer loop
      vertex 72.5 11 25.49
      vertex 75.5 11 12.59
      vertex 72.5 11 12.59
    endloop
  endfacet
  facet normal 0.999506 -0 0.0314139
    outer loop
      vertex 102.47 -1 26.4319
      vertex 102.5 11 25.49
      vertex 102.47 11 26.4319
    endloop
  endfacet
  facet normal 0.999506 0 0.0314139
    outer loop
      vertex 102.5 11 25.49
      vertex 102.47 -1 26.4319
      vertex 102.5 -1 25.49
    endloop
  endfacet
  facet normal -0.995562 0 0.0941041
    outer loop
      vertex 72.5296 -1 26.4319
      vertex 72.6183 11 27.37
      vertex 72.5296 11 26.4319
    endloop
  endfacet
  facet normal -0.995562 0 0.0941041
    outer loop
      vertex 72.6183 11 27.37
      vertex 72.5296 -1 26.4319
      vertex 72.6183 -1 27.37
    endloop
  endfacet
  facet normal -0.987688 0 0.156438
    outer loop
      vertex 72.6183 -1 27.37
      vertex 72.7657 11 28.3007
      vertex 72.6183 11 27.37
    endloop
  endfacet
  facet normal -0.987688 0 0.156438
    outer loop
      vertex 72.7657 11 28.3007
      vertex 72.6183 -1 27.37
      vertex 72.7657 -1 28.3007
    endloop
  endfacet
  facet normal -0.975917 0 0.218141
    outer loop
      vertex 72.7657 -1 28.3007
      vertex 72.9713 11 29.2203
      vertex 72.7657 11 28.3007
    endloop
  endfacet
  facet normal -0.975917 0 0.218141
    outer loop
      vertex 72.9713 11 29.2203
      vertex 72.7657 -1 28.3007
      vertex 72.9713 -1 29.2203
    endloop
  endfacet
  facet normal -9.05496e-09 1 9.57917e-08
    outer loop
      vertex 86.5581 11 40.4604
      vertex 72.9713 11 29.2203
      vertex 85.62 11 40.3717
    endloop
  endfacet
  facet normal -0.031414 0 0.999506
    outer loop
      vertex 86.5581 11 40.4604
      vertex 87.5 -1 40.49
      vertex 87.5 11 40.49
    endloop
  endfacet
  facet normal -0.031414 0 0.999506
    outer loop
      vertex 87.5 -1 40.49
      vertex 86.5581 11 40.4604
      vertex 86.5581 -1 40.4604
    endloop
  endfacet
  facet normal -2.54243e-08 1 1.13741e-07
    outer loop
      vertex 84.6893 11 40.2243
      vertex 72.9713 11 29.2203
      vertex 83.7697 11 40.0187
    endloop
  endfacet
  facet normal -0.61291 0 0.790153
    outer loop
      vertex 77.9386 11 37.0477
      vertex 78.6832 -1 37.6253
      vertex 78.6832 11 37.6253
    endloop
  endfacet
  facet normal -0.61291 0 0.790153
    outer loop
      vertex 78.6832 -1 37.6253
      vertex 77.9386 11 37.0477
      vertex 77.9386 -1 37.0477
    endloop
  endfacet
  facet normal -0.33874 0 0.94088
    outer loop
      vertex 81.9781 11 39.4366
      vertex 82.8647 -1 39.7558
      vertex 82.8647 11 39.7558
    endloop
  endfacet
  facet normal -0.33874 0 0.94088
    outer loop
      vertex 82.8647 -1 39.7558
      vertex 81.9781 11 39.4366
      vertex 81.9781 -1 39.4366
    endloop
  endfacet
  facet normal -8.96956e-07 1 6.0957e-07
    outer loop
      vertex 75.3647 11 34.3068
      vertex 72.9713 11 29.2203
      vertex 74.8351 11 33.5274
    endloop
  endfacet
  facet normal -2.40146e-06 1 1.2236e-06
    outer loop
      vertex 74.3554 11 32.7163
      vertex 72.9713 11 29.2203
      vertex 73.9276 11 31.8767
    endloop
  endfacet
  facet normal 0.33874 0 0.94088
    outer loop
      vertex 92.1353 11 39.7558
      vertex 93.0219 -1 39.4366
      vertex 93.0219 11 39.4366
    endloop
  endfacet
  facet normal 0.33874 0 0.94088
    outer loop
      vertex 93.0219 -1 39.4366
      vertex 92.1353 11 39.7558
      vertex 92.1353 -1 39.7558
    endloop
  endfacet
  facet normal 8.53464e-08 1 1.67503e-07
    outer loop
      vertex 102.029 11 29.2203
      vertex 93.8867 11 39.0624
      vertex 94.7263 11 38.6346
    endloop
  endfacet
  facet normal 0.975917 -0 0.218141
    outer loop
      vertex 102.029 -1 29.2203
      vertex 102.234 11 28.3007
      vertex 102.029 11 29.2203
    endloop
  endfacet
  facet normal 0.975917 0 0.218141
    outer loop
      vertex 102.234 11 28.3007
      vertex 102.029 -1 29.2203
      vertex 102.234 -1 28.3007
    endloop
  endfacet
  facet normal 0.987688 -0 0.156438
    outer loop
      vertex 102.234 -1 28.3007
      vertex 102.382 11 27.37
      vertex 102.234 11 28.3007
    endloop
  endfacet
  facet normal 0.987688 0 0.156438
    outer loop
      vertex 102.382 11 27.37
      vertex 102.234 -1 28.3007
      vertex 102.382 -1 27.37
    endloop
  endfacet
  facet normal 1.51656e-05 1 5.45993e-06
    outer loop
      vertex 102.029 11 29.2203
      vertex 101.447 11 31.0119
      vertex 101.766 11 30.1253
    endloop
  endfacet
  facet normal 0.891007 -0 0.453989
    outer loop
      vertex 100.645 -1 32.7163
      vertex 101.072 11 31.8767
      vertex 100.645 11 32.7163
    endloop
  endfacet
  facet normal 0.891007 0 0.453989
    outer loop
      vertex 101.072 11 31.8767
      vertex 100.645 -1 32.7163
      vertex 101.072 -1 31.8767
    endloop
  endfacet
  facet normal 0.827081 -0 0.562083
    outer loop
      vertex 99.6353 -1 34.3068
      vertex 100.165 11 33.5274
      vertex 99.6353 11 34.3068
    endloop
  endfacet
  facet normal 0.827081 0 0.562083
    outer loop
      vertex 100.165 11 33.5274
      vertex 99.6353 -1 34.3068
      vertex 100.165 -1 33.5274
    endloop
  endfacet
  facet normal 0.75011 -0 0.661313
    outer loop
      vertex 98.4345 -1 35.7582
      vertex 99.0577 11 35.0514
      vertex 98.4345 11 35.7582
    endloop
  endfacet
  facet normal 0.75011 0 0.661313
    outer loop
      vertex 99.0577 11 35.0514
      vertex 98.4345 -1 35.7582
      vertex 99.0577 -1 35.0514
    endloop
  endfacet
  facet normal -0.156433 0 0.987689
    outer loop
      vertex 84.6893 11 40.2243
      vertex 85.62 -1 40.3717
      vertex 85.62 11 40.3717
    endloop
  endfacet
  facet normal -0.156433 0 0.987689
    outer loop
      vertex 85.62 -1 40.3717
      vertex 84.6893 11 40.2243
      vertex 84.6893 -1 40.2243
    endloop
  endfacet
  facet normal -0.790158 0 0.612904
    outer loop
      vertex 75.3647 -1 34.3068
      vertex 75.9423 11 35.0514
      vertex 75.3647 11 34.3068
    endloop
  endfacet
  facet normal -0.790158 0 0.612904
    outer loop
      vertex 75.9423 11 35.0514
      vertex 75.3647 -1 34.3068
      vertex 75.9423 -1 35.0514
    endloop
  endfacet
  facet normal 0.156433 0 0.987689
    outer loop
      vertex 89.38 11 40.3717
      vertex 90.3107 -1 40.2243
      vertex 90.3107 11 40.2243
    endloop
  endfacet
  facet normal 0.156433 0 0.987689
    outer loop
      vertex 90.3107 -1 40.2243
      vertex 89.38 11 40.3717
      vertex 89.38 -1 40.3717
    endloop
  endfacet
  facet normal 2.77198e-09 1 8.81968e-08
    outer loop
      vertex 102.029 11 29.2203
      vertex 87.5 11 40.49
      vertex 88.4419 11 40.4604
    endloop
  endfacet
  facet normal 2.54243e-08 1 1.13741e-07
    outer loop
      vertex 102.029 11 29.2203
      vertex 90.3107 11 40.2243
      vertex 91.2303 11 40.0187
    endloop
  endfacet
  facet normal 0.218145 0 0.975916
    outer loop
      vertex 90.3107 11 40.2243
      vertex 91.2303 -1 40.0187
      vertex 91.2303 11 40.0187
    endloop
  endfacet
  facet normal 0.218145 0 0.975916
    outer loop
      vertex 91.2303 -1 40.0187
      vertex 90.3107 11 40.2243
      vertex 90.3107 -1 40.2243
    endloop
  endfacet
  facet normal 6.53127e-08 1 1.50929e-07
    outer loop
      vertex 102.029 11 29.2203
      vertex 93.0219 11 39.4366
      vertex 93.8867 11 39.0624
    endloop
  endfacet
  facet normal 0.61291 0 0.790153
    outer loop
      vertex 96.3168 11 37.6253
      vertex 97.0614 -1 37.0477
      vertex 97.0614 11 37.0477
    endloop
  endfacet
  facet normal 0.61291 0 0.790153
    outer loop
      vertex 97.0614 -1 37.0477
      vertex 96.3168 11 37.6253
      vertex 96.3168 -1 37.6253
    endloop
  endfacet
  facet normal 0.661311 0 0.750112
    outer loop
      vertex 97.0614 11 37.0477
      vertex 97.7682 -1 36.4245
      vertex 97.7682 11 36.4245
    endloop
  endfacet
  facet normal 0.661311 0 0.750112
    outer loop
      vertex 97.7682 -1 36.4245
      vertex 97.0614 11 37.0477
      vertex 97.0614 -1 37.0477
    endloop
  endfacet
  facet normal 0.397147 0 0.917755
    outer loop
      vertex 93.0219 11 39.4366
      vertex 93.8867 -1 39.0624
      vertex 93.8867 11 39.0624
    endloop
  endfacet
  facet normal 0.397147 0 0.917755
    outer loop
      vertex 93.8867 -1 39.0624
      vertex 93.0219 11 39.4366
      vertex 93.0219 -1 39.4366
    endloop
  endfacet
  facet normal 0.453989 0 0.891007
    outer loop
      vertex 93.8867 11 39.0624
      vertex 94.7263 -1 38.6346
      vertex 94.7263 11 38.6346
    endloop
  endfacet
  facet normal 0.453989 0 0.891007
    outer loop
      vertex 94.7263 -1 38.6346
      vertex 93.8867 11 39.0624
      vertex 93.8867 -1 39.0624
    endloop
  endfacet
  facet normal 8.96956e-07 1 6.0957e-07
    outer loop
      vertex 102.029 11 29.2203
      vertex 99.6353 11 34.3068
      vertex 100.165 11 33.5274
    endloop
  endfacet
  facet normal 4.39542e-07 1 3.8751e-07
    outer loop
      vertex 102.029 11 29.2203
      vertex 98.4345 11 35.7582
      vertex 99.0577 11 35.0514
    endloop
  endfacet
  facet normal 0.917754 -0 0.39715
    outer loop
      vertex 101.072 -1 31.8767
      vertex 101.447 11 31.0119
      vertex 101.072 11 31.8767
    endloop
  endfacet
  facet normal 0.917754 0 0.39715
    outer loop
      vertex 101.447 11 31.0119
      vertex 101.072 -1 31.8767
      vertex 101.447 -1 31.0119
    endloop
  endfacet
  facet normal -0.218145 0 0.975916
    outer loop
      vertex 83.7697 11 40.0187
      vertex 84.6893 -1 40.2243
      vertex 84.6893 11 40.2243
    endloop
  endfacet
  facet normal -0.218145 0 0.975916
    outer loop
      vertex 84.6893 -1 40.2243
      vertex 83.7697 11 40.0187
      vertex 83.7697 -1 40.0187
    endloop
  endfacet
  facet normal -0.509043 0 0.860741
    outer loop
      vertex 79.4626 11 38.1549
      vertex 80.2737 -1 38.6346
      vertex 80.2737 11 38.6346
    endloop
  endfacet
  facet normal -0.509043 0 0.860741
    outer loop
      vertex 80.2737 -1 38.6346
      vertex 79.4626 11 38.1549
      vertex 79.4626 -1 38.1549
    endloop
  endfacet
  facet normal -1.4329e-07 1 2.10846e-07
    outer loop
      vertex 79.4626 11 38.1549
      vertex 72.9713 11 29.2203
      vertex 78.6832 11 37.6253
    endloop
  endfacet
  facet normal -0.661311 0 0.750112
    outer loop
      vertex 77.2318 11 36.4245
      vertex 77.9386 -1 37.0477
      vertex 77.9386 11 37.0477
    endloop
  endfacet
  facet normal -0.661311 0 0.750112
    outer loop
      vertex 77.9386 -1 37.0477
      vertex 77.2318 11 36.4245
      vertex 77.2318 -1 36.4245
    endloop
  endfacet
  facet normal -0.707105 0 0.707109
    outer loop
      vertex 76.5655 11 35.7582
      vertex 77.2318 -1 36.4245
      vertex 77.2318 11 36.4245
    endloop
  endfacet
  facet normal -0.707105 0 0.707109
    outer loop
      vertex 77.2318 -1 36.4245
      vertex 76.5655 11 35.7582
      vertex 76.5655 -1 35.7582
    endloop
  endfacet
  facet normal -6.14516e-07 1 4.76663e-07
    outer loop
      vertex 75.9423 11 35.0514
      vertex 72.9713 11 29.2203
      vertex 75.3647 11 34.3068
    endloop
  endfacet
  facet normal 1.65113e-08 1 1.04249e-07
    outer loop
      vertex 102.029 11 29.2203
      vertex 89.38 11 40.3717
      vertex 90.3107 11 40.2243
    endloop
  endfacet
  facet normal 9.05496e-09 1 9.57917e-08
    outer loop
      vertex 102.029 11 29.2203
      vertex 88.4419 11 40.4604
      vertex 89.38 11 40.3717
    endloop
  endfacet
  facet normal 0.278989 0 0.960294
    outer loop
      vertex 91.2303 11 40.0187
      vertex 92.1353 -1 39.7558
      vertex 92.1353 11 39.7558
    endloop
  endfacet
  facet normal 0.278989 0 0.960294
    outer loop
      vertex 92.1353 -1 39.7558
      vertex 91.2303 11 40.0187
      vertex 91.2303 -1 40.0187
    endloop
  endfacet
  facet normal 4.92352e-08 1 1.36755e-07
    outer loop
      vertex 102.029 11 29.2203
      vertex 92.1353 11 39.7558
      vertex 93.0219 11 39.4366
    endloop
  endfacet
  facet normal 3.61648e-08 1 1.24481e-07
    outer loop
      vertex 102.029 11 29.2203
      vertex 91.2303 11 40.0187
      vertex 92.1353 11 39.7558
    endloop
  endfacet
  facet normal 1.10685e-07 1 1.87157e-07
    outer loop
      vertex 102.029 11 29.2203
      vertex 94.7263 11 38.6346
      vertex 95.5374 11 38.1549
    endloop
  endfacet
  facet normal 0.509043 0 0.860741
    outer loop
      vertex 94.7263 11 38.6346
      vertex 95.5374 -1 38.1549
      vertex 95.5374 11 38.1549
    endloop
  endfacet
  facet normal 0.509043 0 0.860741
    outer loop
      vertex 95.5374 -1 38.1549
      vertex 94.7263 11 38.6346
      vertex 94.7263 -1 38.6346
    endloop
  endfacet
  facet normal 0.707105 0 0.707109
    outer loop
      vertex 97.7682 11 36.4245
      vertex 98.4345 -1 35.7582
      vertex 98.4345 11 35.7582
    endloop
  endfacet
  facet normal 0.707105 0 0.707109
    outer loop
      vertex 98.4345 -1 35.7582
      vertex 97.7682 11 36.4245
      vertex 97.7682 -1 36.4245
    endloop
  endfacet
  facet normal 1.86138e-07 1 2.39965e-07
    outer loop
      vertex 102.029 11 29.2203
      vertex 96.3168 11 37.6253
      vertex 97.0614 11 37.0477
    endloop
  endfacet
  facet normal 0.562081 0 0.827082
    outer loop
      vertex 95.5374 11 38.1549
      vertex 96.3168 -1 37.6253
      vertex 96.3168 11 37.6253
    endloop
  endfacet
  facet normal 0.562081 0 0.827082
    outer loop
      vertex 96.3168 -1 37.6253
      vertex 95.5374 11 38.1549
      vertex 95.5374 -1 38.1549
    endloop
  endfacet
  facet normal 0.790158 -0 0.612904
    outer loop
      vertex 99.0577 -1 35.0514
      vertex 99.6353 11 34.3068
      vertex 99.0577 11 35.0514
    endloop
  endfacet
  facet normal 0.790158 0 0.612904
    outer loop
      vertex 99.6353 11 34.3068
      vertex 99.0577 -1 35.0514
      vertex 99.6353 -1 34.3068
    endloop
  endfacet
  facet normal 4.93709e-06 1 2.13649e-06
    outer loop
      vertex 102.029 11 29.2203
      vertex 101.072 11 31.8767
      vertex 101.447 11 31.0119
    endloop
  endfacet
  facet normal 2.40146e-06 1 1.2236e-06
    outer loop
      vertex 102.029 11 29.2203
      vertex 100.645 11 32.7163
      vertex 101.072 11 31.8767
    endloop
  endfacet
  facet normal -0.278989 0 0.960294
    outer loop
      vertex 82.8647 11 39.7558
      vertex 83.7697 -1 40.0187
      vertex 83.7697 11 40.0187
    endloop
  endfacet
  facet normal -0.278989 0 0.960294
    outer loop
      vertex 83.7697 -1 40.0187
      vertex 82.8647 11 39.7558
      vertex 82.8647 -1 39.7558
    endloop
  endfacet
  facet normal -0.453989 0 0.891007
    outer loop
      vertex 80.2737 11 38.6346
      vertex 81.1133 -1 39.0624
      vertex 81.1133 11 39.0624
    endloop
  endfacet
  facet normal -0.453989 0 0.891007
    outer loop
      vertex 81.1133 -1 39.0624
      vertex 80.2737 11 38.6346
      vertex 80.2737 -1 38.6346
    endloop
  endfacet
  facet normal -3.61648e-08 1 1.24481e-07
    outer loop
      vertex 83.7697 11 40.0187
      vertex 72.9713 11 29.2203
      vertex 82.8647 11 39.7558
    endloop
  endfacet
  facet normal -0.397147 0 0.917755
    outer loop
      vertex 81.1133 11 39.0624
      vertex 81.9781 -1 39.4366
      vertex 81.9781 11 39.4366
    endloop
  endfacet
  facet normal -0.397147 0 0.917755
    outer loop
      vertex 81.9781 -1 39.4366
      vertex 81.1133 11 39.0624
      vertex 81.1133 -1 39.0624
    endloop
  endfacet
  facet normal -1.86138e-07 1 2.39965e-07
    outer loop
      vertex 78.6832 11 37.6253
      vertex 72.9713 11 29.2203
      vertex 77.9386 11 37.0477
    endloop
  endfacet
  facet normal -0.917754 0 0.39715
    outer loop
      vertex 73.5534 -1 31.0119
      vertex 73.9276 11 31.8767
      vertex 73.5534 11 31.0119
    endloop
  endfacet
  facet normal -0.917754 0 0.39715
    outer loop
      vertex 73.9276 11 31.8767
      vertex 73.5534 -1 31.0119
      vertex 73.9276 -1 31.8767
    endloop
  endfacet
  facet normal -0.940881 0 0.338737
    outer loop
      vertex 73.2342 -1 30.1253
      vertex 73.5534 11 31.0119
      vertex 73.2342 11 30.1253
    endloop
  endfacet
  facet normal -0.940881 0 0.338737
    outer loop
      vertex 73.5534 11 31.0119
      vertex 73.2342 -1 30.1253
      vertex 73.5534 -1 31.0119
    endloop
  endfacet
  facet normal -0.827081 0 0.562083
    outer loop
      vertex 74.8351 -1 33.5274
      vertex 75.3647 11 34.3068
      vertex 74.8351 11 33.5274
    endloop
  endfacet
  facet normal -0.827081 0 0.562083
    outer loop
      vertex 75.3647 11 34.3068
      vertex 74.8351 -1 33.5274
      vertex 75.3647 -1 34.3068
    endloop
  endfacet
  facet normal -1.39556e-06 1 8.25335e-07
    outer loop
      vertex 74.8351 11 33.5274
      vertex 72.9713 11 29.2203
      vertex 74.3554 11 32.7163
    endloop
  endfacet
  facet normal -0.75011 0 0.661313
    outer loop
      vertex 75.9423 -1 35.0514
      vertex 76.5655 11 35.7582
      vertex 75.9423 11 35.0514
    endloop
  endfacet
  facet normal -0.75011 0 0.661313
    outer loop
      vertex 76.5655 11 35.7582
      vertex 75.9423 -1 35.0514
      vertex 76.5655 -1 35.7582
    endloop
  endfacet
  facet normal -3.23974e-07 1 3.23975e-07
    outer loop
      vertex 77.2318 11 36.4245
      vertex 72.9713 11 29.2203
      vertex 76.5655 11 35.7582
    endloop
  endfacet
  facet normal -4.39542e-07 1 3.8751e-07
    outer loop
      vertex 76.5655 11 35.7582
      vertex 72.9713 11 29.2203
      vertex 75.9423 11 35.0514
    endloop
  endfacet
  facet normal 3.23974e-07 1 3.23975e-07
    outer loop
      vertex 102.029 11 29.2203
      vertex 97.7682 11 36.4245
      vertex 98.4345 11 35.7582
    endloop
  endfacet
  facet normal 2.43843e-07 1 2.76586e-07
    outer loop
      vertex 102.029 11 29.2203
      vertex 97.0614 11 37.0477
      vertex 97.7682 11 36.4245
    endloop
  endfacet
  facet normal -1.10685e-07 1 1.87157e-07
    outer loop
      vertex 80.2737 11 38.6346
      vertex 72.9713 11 29.2203
      vertex 79.4626 11 38.1549
    endloop
  endfacet
  facet normal -0.562081 0 0.827082
    outer loop
      vertex 78.6832 11 37.6253
      vertex 79.4626 -1 38.1549
      vertex 79.4626 11 38.1549
    endloop
  endfacet
  facet normal -0.562081 0 0.827082
    outer loop
      vertex 79.4626 -1 38.1549
      vertex 78.6832 11 37.6253
      vertex 78.6832 -1 37.6253
    endloop
  endfacet
  facet normal -4.92352e-08 1 1.36755e-07
    outer loop
      vertex 82.8647 11 39.7558
      vertex 72.9713 11 29.2203
      vertex 81.9781 11 39.4366
    endloop
  endfacet
  facet normal -2.43843e-07 1 2.76586e-07
    outer loop
      vertex 77.9386 11 37.0477
      vertex 72.9713 11 29.2203
      vertex 77.2318 11 36.4245
    endloop
  endfacet
  facet normal -0.860741 0 0.509043
    outer loop
      vertex 74.3554 -1 32.7163
      vertex 74.8351 11 33.5274
      vertex 74.3554 11 32.7163
    endloop
  endfacet
  facet normal -0.860741 0 0.509043
    outer loop
      vertex 74.8351 11 33.5274
      vertex 74.3554 -1 32.7163
      vertex 74.8351 -1 33.5274
    endloop
  endfacet
  facet normal -4.93709e-06 1 2.13649e-06
    outer loop
      vertex 73.9276 11 31.8767
      vertex 72.9713 11 29.2203
      vertex 73.5534 11 31.0119
    endloop
  endfacet
  facet normal -1.51656e-05 1 5.45993e-06
    outer loop
      vertex 73.5534 11 31.0119
      vertex 72.9713 11 29.2203
      vertex 73.2342 11 30.1253
    endloop
  endfacet
  facet normal -0.891007 0 0.453989
    outer loop
      vertex 73.9276 -1 31.8767
      vertex 74.3554 11 32.7163
      vertex 73.9276 11 31.8767
    endloop
  endfacet
  facet normal -0.891007 0 0.453989
    outer loop
      vertex 74.3554 11 32.7163
      vertex 73.9276 -1 31.8767
      vertex 74.3554 -1 32.7163
    endloop
  endfacet
  facet normal -6.53127e-08 1 1.50929e-07
    outer loop
      vertex 81.9781 11 39.4366
      vertex 72.9713 11 29.2203
      vertex 81.1133 11 39.0624
    endloop
  endfacet
  facet normal -8.53464e-08 1 1.67503e-07
    outer loop
      vertex 81.1133 11 39.0624
      vertex 72.9713 11 29.2203
      vertex 80.2737 11 38.6346
    endloop
  endfacet
  facet normal -1 0 0
    outer loop
      vertex 72.5 -1 12.59
      vertex 72.5 11 25.49
      vertex 72.5 11 12.59
    endloop
  endfacet
  facet normal -1 -0 0
    outer loop
      vertex 72.5 11 25.49
      vertex 72.5 -1 12.59
      vertex 72.5 -1 25.49
    endloop
  endfacet
  facet normal 1 -0 0
    outer loop
      vertex 102.5 -1 25.49
      vertex 102.5 11 12.59
      vertex 102.5 11 25.49
    endloop
  endfacet
  facet normal 1 0 0
    outer loop
      vertex 102.5 11 12.59
      vertex 102.5 -1 25.49
      vertex 102.5 -1 12.59
    endloop
  endfacet
  facet normal 0 0 -1
    outer loop
      vertex 72.5 -1 12.59
      vertex 75.5 11 12.59
      vertex 75.5 -1 12.59
    endloop
  endfacet
  facet normal -0 0 -1
    outer loop
      vertex 75.5 11 12.59
      vertex 72.5 -1 12.59
      vertex 72.5 11 12.59
    endloop
  endfacet
  facet normal 0 0 -1
    outer loop
      vertex 96.9 -1 12.59
      vertex 102.5 11 12.59
      vertex 102.5 -1 12.59
    endloop
  endfacet
  facet normal -0 0 -1
    outer loop
      vertex 102.5 11 12.59
      vertex 96.9 -1 12.59
      vertex 96.9 11 12.59
    endloop
  endfacet
  facet normal 0 0 -1
    outer loop
      vertex 76.5 -1 12.59
      vertex 85.7 11 12.59
      vertex 85.7 -1 12.59
    endloop
  endfacet
  facet normal -0 0 -1
    outer loop
      vertex 85.7 11 12.59
      vertex 76.5 -1 12.59
      vertex 76.5 11 12.59
    endloop
  endfacet
  facet normal 0 0 -1
    outer loop
      vertex 86.7 -1 12.59
      vertex 95.9 11 12.59
      vertex 95.9 -1 12.59
    endloop
  endfacet
  facet normal -0 0 -1
    outer loop
      vertex 95.9 11 12.59
      vertex 86.7 -1 12.59
      vertex 86.7 11 12.59
    endloop
  endfacet
  facet normal 0 0 -1
    outer loop
      vertex 75.5 -1 11.59
      vertex 76.5 11 11.59
      vertex 76.5 -1 11.59
    endloop
  endfacet
  facet normal -0 0 -1
    outer loop
      vertex 76.5 11 11.59
      vertex 75.5 -1 11.59
      vertex 75.5 11 11.59
    endloop
  endfacet
  facet normal 0 0 -1
    outer loop
      vertex 85.7 -1 11.59
      vertex 86.7 11 11.59
      vertex 86.7 -1 11.59
    endloop
  endfacet
  facet normal -0 0 -1
    outer loop
      vertex 86.7 11 11.59
      vertex 85.7 -1 11.59
      vertex 85.7 11 11.59
    endloop
  endfacet
  facet normal 0 0 -1
    outer loop
      vertex 95.9 -1 11.59
      vertex 96.9 11 11.59
      vertex 96.9 -1 11.59
    endloop
  endfacet
  facet normal -0 0 -1
    outer loop
      vertex 96.9 11 11.59
      vertex 95.9 -1 11.59
      vertex 95.9 11 11.59
    endloop
  endfacet
endsolid OpenSCAD_Model
