solid OpenSCAD_Model
  facet normal 0 -1 0
    outer loop
      vertex 55.1 -1 11.59
      vertex 56.1 -1 12.59
      vertex 55.1 -1 12.59
    endloop
  endfacet
  facet normal 0 -1 -0
    outer loop
      vertex 56.1 -1 12.59
      vertex 55.1 -1 11.59
      vertex 56.1 -1 11.59
    endloop
  endfacet
  facet normal 0 -1 0
    outer loop
      vertex 44.9 -1 11.59
      vertex 45.9 -1 12.59
      vertex 44.9 -1 12.59
    endloop
  endfacet
  facet normal 0 -1 -0
    outer loop
      vertex 45.9 -1 12.59
      vertex 44.9 -1 11.59
      vertex 45.9 -1 11.59
    endloop
  endfacet
  facet normal 0 -1 0
    outer loop
      vertex 49.0581 -1 40.4604
      vertex 50.9419 -1 40.4604
      vertex 50 -1 40.49
    endloop
  endfacet
  facet normal 0 -1 0
    outer loop
      vertex 48.12 -1 40.3717
      vertex 50.9419 -1 40.4604
      vertex 49.0581 -1 40.4604
    endloop
  endfacet
  facet normal 0 -1 0
    outer loop
      vertex 48.12 -1 40.3717
      vertex 51.88 -1 40.3717
      vertex 50.9419 -1 40.4604
    endloop
  endfacet
  facet normal 0 -1 0
    outer loop
      vertex 47.1893 -1 40.2243
      vertex 51.88 -1 40.3717
      vertex 48.12 -1 40.3717
    endloop
  endfacet
  facet normal 0 -1 0
    outer loop
      vertex 47.1893 -1 40.2243
      vertex 52.8107 -1 40.2243
      vertex 51.88 -1 40.3717
    endloop
  endfacet
  facet normal 0 -1 0
    outer loop
      vertex 45.9 -1 12.59
      vertex 47.1893 -1 40.2243
      vertex 46.2697 -1 40.0187
    endloop
  endfacet
  facet normal 0 -1 -0
    outer loop
      vertex 47.1893 -1 40.2243
      vertex 45.9 -1 12.59
      vertex 52.8107 -1 40.2243
    endloop
  endfacet
  facet normal 0 -1 0
    outer loop
      vertex 45.9 -1 12.59
      vertex 46.2697 -1 40.0187
      vertex 45.3647 -1 39.7558
    endloop
  endfacet
  facet normal 0 -1 -0
    outer loop
      vertex 52.8107 -1 40.2243
      vertex 45.9 -1 12.59
      vertex 53.7303 -1 40.0187
    endloop
  endfacet
  facet normal 0 -1 0
    outer loop
      vertex 45.9 -1 12.59
      vertex 45.3647 -1 39.7558
      vertex 44.4781 -1 39.4366
    endloop
  endfacet
  facet normal 0 -1 -0
    outer loop
      vertex 53.7303 -1 40.0187
      vertex 45.9 -1 12.59
      vertex 54.6353 -1 39.7558
    endloop
  endfacet
  facet normal 0 -1 0
    outer loop
      vertex 45.9 -1 12.59
      vertex 44.4781 -1 39.4366
      vertex 43.6133 -1 39.0624
    endloop
  endfacet
  facet normal 0 -1 -0
    outer loop
      vertex 54.6353 -1 39.7558
      vertex 45.9 -1 12.59
      vertex 55.5219 -1 39.4366
    endloop
  endfacet
  facet normal 0 -1 0
    outer loop
      vertex 45.9 -1 12.59
      vertex 43.6133 -1 39.0624
      vertex 42.7737 -1 38.6346
    endloop
  endfacet
  facet normal 0 -1 -0
    outer loop
      vertex 55.5219 -1 39.4366
      vertex 45.9 -1 12.59
      vertex 56.3867 -1 39.0624
    endloop
  endfacet
  facet normal 0 -1 0
    outer loop
      vertex 45.9 -1 12.59
      vertex 42.7737 -1 38.6346
      vertex 41.9626 -1 38.1549
    endloop
  endfacet
  facet normal 0 -1 -0
    outer loop
      vertex 56.3867 -1 39.0624
      vertex 45.9 -1 12.59
      vertex 57.2263 -1 38.6346
    endloop
  endfacet
  facet normal 0 -1 0
    outer loop
      vertex 45.9 -1 12.59
      vertex 41.9626 -1 38.1549
      vertex 41.1832 -1 37.6253
    endloop
  endfacet
  facet normal 0 -1 -0
    outer loop
      vertex 57.2263 -1 38.6346
      vertex 45.9 -1 12.59
      vertex 58.0374 -1 38.1549
    endloop
  endfacet
  facet normal 0 -1 0
    outer loop
      vertex 45.9 -1 12.59
      vertex 41.1832 -1 37.6253
      vertex 40.4386 -1 37.0477
    endloop
  endfacet
  facet normal 0 -1 -0
    outer loop
      vertex 58.0374 -1 38.1549
      vertex 45.9 -1 12.59
      vertex 58.8168 -1 37.6253
    endloop
  endfacet
  facet normal 0 -1 0
    outer loop
      vertex 45.9 -1 12.59
      vertex 40.4386 -1 37.0477
      vertex 39.7318 -1 36.4245
    endloop
  endfacet
  facet normal 0 -1 -0
    outer loop
      vertex 58.8168 -1 37.6253
      vertex 45.9 -1 12.59
      vertex 59.5614 -1 37.0477
    endloop
  endfacet
  facet normal 0 -1 0
    outer loop
      vertex 45.9 -1 12.59
      vertex 39.7318 -1 36.4245
      vertex 39.0655 -1 35.7582
    endloop
  endfacet
  facet normal 0 -1 -0
    outer loop
      vertex 59.5614 -1 37.0477
      vertex 45.9 -1 12.59
      vertex 60.2682 -1 36.4245
    endloop
  endfacet
  facet normal 0 -1 0
    outer loop
      vertex 45.9 -1 12.59
      vertex 39.0655 -1 35.7582
      vertex 38.4423 -1 35.0514
    endloop
  endfacet
  facet normal 0 -1 -0
    outer loop
      vertex 60.2682 -1 36.4245
      vertex 45.9 -1 12.59
      vertex 60.9345 -1 35.7582
    endloop
  endfacet
  facet normal 0 -1 0
    outer loop
      vertex 45.9 -1 12.59
      vertex 38.4423 -1 35.0514
      vertex 37.8647 -1 34.3068
    endloop
  endfacet
  facet normal 0 -1 -0
    outer loop
      vertex 60.9345 -1 35.7582
      vertex 45.9 -1 12.59
      vertex 61.5577 -1 35.0514
    endloop
  endfacet
  facet normal 0 -1 0
    outer loop
      vertex 45.9 -1 12.59
      vertex 37.8647 -1 34.3068
      vertex 37.3351 -1 33.5274
    endloop
  endfacet
  facet normal 0 -1 0
    outer loop
      vertex 55.1 -1 12.59
      vertex 61.5577 -1 35.0514
      vertex 45.9 -1 12.59
    endloop
  endfacet
  facet normal 0 -1 0
    outer loop
      vertex 45.9 -1 12.59
      vertex 37.3351 -1 33.5274
      vertex 36.8554 -1 32.7163
    endloop
  endfacet
  facet normal 0 -1 -0
    outer loop
      vertex 61.5577 -1 35.0514
      vertex 55.1 -1 12.59
      vertex 62.1353 -1 34.3068
    endloop
  endfacet
  facet normal 0 -1 0
    outer loop
      vertex 45.9 -1 12.59
      vertex 36.8554 -1 32.7163
      vertex 36.4276 -1 31.8767
    endloop
  endfacet
  facet normal 0 -1 -0
    outer loop
      vertex 62.1353 -1 34.3068
      vertex 55.1 -1 12.59
      vertex 62.6649 -1 33.5274
    endloop
  endfacet
  facet normal 0 -1 0
    outer loop
      vertex 45.9 -1 12.59
      vertex 36.4276 -1 31.8767
      vertex 36.0534 -1 31.0119
    endloop
  endfacet
  facet normal 0 -1 -0
    outer loop
      vertex 62.6649 -1 33.5274
      vertex 55.1 -1 12.59
      vertex 63.1446 -1 32.7163
    endloop
  endfacet
  facet normal 0 -1 0
    outer loop
      vertex 45.9 -1 12.59
      vertex 36.0534 -1 31.0119
      vertex 35.7342 -1 30.1253
    endloop
  endfacet
  facet normal 0 -1 -0
    outer loop
      vertex 63.1446 -1 32.7163
      vertex 55.1 -1 12.59
      vertex 63.5724 -1 31.8767
    endloop
  endfacet
  facet normal 0 -1 0
    outer loop
      vertex 45.9 -1 12.59
      vertex 35.7342 -1 30.1253
      vertex 35.4713 -1 29.2203
    endloop
  endfacet
  facet normal 0 -1 -0
    outer loop
      vertex 63.5724 -1 31.8767
      vertex 55.1 -1 12.59
      vertex 63.9466 -1 31.0119
    endloop
  endfacet
  facet normal 0 -1 0
    outer loop
      vertex 45.9 -1 12.59
      vertex 35.4713 -1 29.2203
      vertex 35.2657 -1 28.3007
    endloop
  endfacet
  facet normal 0 -1 -0
    outer loop
      vertex 63.9466 -1 31.0119
      vertex 55.1 -1 12.59
      vertex 64.2658 -1 30.1253
    endloop
  endfacet
  facet normal 0 -1 0
    outer loop
      vertex 45.9 -1 12.59
      vertex 35.2657 -1 28.3007
      vertex 35.1183 -1 27.37
    endloop
  endfacet
  facet normal 0 -1 -0
    outer loop
      vertex 64.2658 -1 30.1253
      vertex 55.1 -1 12.59
      vertex 64.5287 -1 29.2203
    endloop
  endfacet
  facet normal 0 -1 0
    outer loop
      vertex 45.9 -1 12.59
      vertex 35.1183 -1 27.37
      vertex 35.0296 -1 26.4319
    endloop
  endfacet
  facet normal 0 -1 -0
    outer loop
      vertex 64.5287 -1 29.2203
      vertex 55.1 -1 12.59
      vertex 64.7343 -1 28.3007
    endloop
  endfacet
  facet normal 0 -1 0
    outer loop
      vertex 45.9 -1 12.59
      vertex 35.0296 -1 26.4319
      vertex 35 -1 25.49
    endloop
  endfacet
  facet normal 0 -1 -0
    outer loop
      vertex 64.7343 -1 28.3007
      vertex 55.1 -1 12.59
      vertex 64.8817 -1 27.37
    endloop
  endfacet
  facet normal 0 -1 0
    outer loop
      vertex 44.9 -1 12.59
      vertex 35 -1 25.49
      vertex 35.7 -1 12.59
    endloop
  endfacet
  facet normal 0 -1 0
    outer loop
      vertex 35 -1 11.59
      vertex 35.7 -1 12.59
      vertex 35 -1 25.49
    endloop
  endfacet
  facet normal 0 -1 -0
    outer loop
      vertex 35.7 -1 12.59
      vertex 35 -1 11.59
      vertex 35.7 -1 11.59
    endloop
  endfacet
  facet normal 0 -1 0
    outer loop
      vertex 45.9 -1 12.59
      vertex 35 -1 25.49
      vertex 44.9 -1 12.59
    endloop
  endfacet
  facet normal 0 -1 -0
    outer loop
      vertex 64.8817 -1 27.37
      vertex 55.1 -1 12.59
      vertex 64.9704 -1 26.4319
    endloop
  endfacet
  facet normal 0 -1 -0
    outer loop
      vertex 64.9704 -1 26.4319
      vertex 55.1 -1 12.59
      vertex 65 -1 25.49
    endloop
  endfacet
  facet normal 0 -1 0
    outer loop
      vertex 56.1 -1 12.59
      vertex 65 -1 25.49
      vertex 55.1 -1 12.59
    endloop
  endfacet
  facet normal 0 -1 -0
    outer loop
      vertex 65 -1 25.49
      vertex 56.1 -1 12.59
      vertex 65 -1 12.59
    endloop
  endfacet
  facet normal 1 -0 0
    outer loop
      vertex 35.7 -1 12.59
      vertex 35.7 11 11.59
      vertex 35.7 11 12.59
    endloop
  endfacet
  facet normal 1 0 0
    outer loop
      vertex 35.7 11 11.59
      vertex 35.7 -1 12.59
      vertex 35.7 -1 11.59
    endloop
  endfacet
  facet normal -1 0 0
    outer loop
      vertex 44.9 -1 11.59
      vertex 44.9 11 12.59
      vertex 44.9 11 11.59
    endloop
  endfacet
  facet normal -1 -0 0
    outer loop
      vertex 44.9 11 12.59
      vertex 44.9 -1 11.59
      vertex 44.9 -1 12.59
    endloop
  endfacet
  facet normal 1 -0 0
    outer loop
      vertex 45.9 -1 12.59
      vertex 45.9 11 11.59
      vertex 45.9 11 12.59
    endloop
  endfacet
  facet normal 1 0 0
    outer loop
      vertex 45.9 11 11.59
      vertex 45.9 -1 12.59
      vertex 45.9 -1 11.59
    endloop
  endfacet
  facet normal -1 0 0
    outer loop
      vertex 55.1 -1 11.59
      vertex 55.1 11 12.59
      vertex 55.1 11 11.59
    endloop
  endfacet
  facet normal -1 -0 0
    outer loop
      vertex 55.1 11 12.59
      vertex 55.1 -1 11.59
      vertex 55.1 -1 12.59
    endloop
  endfacet
  facet normal 1 -0 0
    outer loop
      vertex 56.1 -1 12.59
      vertex 56.1 11 11.59
      vertex 56.1 11 12.59
    endloop
  endfacet
  facet normal 1 0 0
    outer loop
      vertex 56.1 11 11.59
      vertex 56.1 -1 12.59
      vertex 56.1 -1 11.59
    endloop
  endfacet
  facet normal -0.995562 0 0.0941082
    outer loop
      vertex 35.0296 -1 26.4319
      vertex 35.1183 11 27.37
      vertex 35.0296 11 26.4319
    endloop
  endfacet
  facet normal -0.995562 0 0.0941082
    outer loop
      vertex 35.1183 11 27.37
      vertex 35.0296 -1 26.4319
      vertex 35.1183 -1 27.37
    endloop
  endfacet
  facet normal 1.86136e-07 1 2.39964e-07
    outer loop
      vertex 64.5287 11 29.2203
      vertex 58.8168 11 37.6253
      vertex 59.5614 11 37.0477
    endloop
  endfacet
  facet normal 0.827081 -0 0.562083
    outer loop
      vertex 62.1353 -1 34.3068
      vertex 62.6649 11 33.5274
      vertex 62.1353 11 34.3068
    endloop
  endfacet
  facet normal 0.827081 0 0.562083
    outer loop
      vertex 62.6649 11 33.5274
      vertex 62.1353 -1 34.3068
      vertex 62.6649 -1 33.5274
    endloop
  endfacet
  facet normal 0.661313 0 0.75011
    outer loop
      vertex 59.5614 11 37.0477
      vertex 60.2682 -1 36.4245
      vertex 60.2682 11 36.4245
    endloop
  endfacet
  facet normal 0.661313 0 0.75011
    outer loop
      vertex 60.2682 -1 36.4245
      vertex 59.5614 11 37.0477
      vertex 59.5614 -1 37.0477
    endloop
  endfacet
  facet normal 1.51656e-05 1 5.45993e-06
    outer loop
      vertex 64.5287 11 29.2203
      vertex 63.9466 11 31.0119
      vertex 64.2658 11 30.1253
    endloop
  endfacet
  facet normal 0.33874 0 0.94088
    outer loop
      vertex 54.6353 11 39.7558
      vertex 55.5219 -1 39.4366
      vertex 55.5219 11 39.4366
    endloop
  endfacet
  facet normal 0.33874 0 0.94088
    outer loop
      vertex 55.5219 -1 39.4366
      vertex 54.6353 11 39.7558
      vertex 54.6353 -1 39.7558
    endloop
  endfacet
  facet normal 1.4329e-07 1 2.10846e-07
    outer loop
      vertex 64.5287 11 29.2203
      vertex 58.0374 11 38.1549
      vertex 58.8168 11 37.6253
    endloop
  endfacet
  facet normal 0.891007 -0 0.453989
    outer loop
      vertex 63.1446 -1 32.7163
      vertex 63.5724 11 31.8767
      vertex 63.1446 11 32.7163
    endloop
  endfacet
  facet normal 0.891007 0 0.453989
    outer loop
      vertex 63.5724 11 31.8767
      vertex 63.1446 -1 32.7163
      vertex 63.5724 -1 31.8767
    endloop
  endfacet
  facet normal 0.218145 0 0.975916
    outer loop
      vertex 52.8107 11 40.2243
      vertex 53.7303 -1 40.0187
      vertex 53.7303 11 40.0187
    endloop
  endfacet
  facet normal 0.218145 0 0.975916
    outer loop
      vertex 53.7303 -1 40.0187
      vertex 52.8107 11 40.2243
      vertex 52.8107 -1 40.2243
    endloop
  endfacet
  facet normal 0.940881 -0 0.338737
    outer loop
      vertex 63.9466 -1 31.0119
      vertex 64.2658 11 30.1253
      vertex 63.9466 11 31.0119
    endloop
  endfacet
  facet normal 0.940881 0 0.338737
    outer loop
      vertex 64.2658 11 30.1253
      vertex 63.9466 -1 31.0119
      vertex 64.2658 -1 30.1253
    endloop
  endfacet
  facet normal -0.999507 0 0.0314099
    outer loop
      vertex 35.0296 -1 26.4319
      vertex 35 11 25.49
      vertex 35 -1 25.49
    endloop
  endfacet
  facet normal -0.278989 0 0.960294
    outer loop
      vertex 45.3647 11 39.7558
      vertex 46.2697 -1 40.0187
      vertex 46.2697 11 40.0187
    endloop
  endfacet
  facet normal -0.278989 0 0.960294
    outer loop
      vertex 46.2697 -1 40.0187
      vertex 45.3647 11 39.7558
      vertex 45.3647 -1 39.7558
    endloop
  endfacet
  facet normal -9.05496e-09 1 9.57917e-08
    outer loop
      vertex 49.0581 11 40.4604
      vertex 35.4713 11 29.2203
      vertex 48.12 11 40.3717
    endloop
  endfacet
  facet normal -0.156434 0 0.987688
    outer loop
      vertex 47.1893 11 40.2243
      vertex 48.12 -1 40.3717
      vertex 48.12 11 40.3717
    endloop
  endfacet
  facet normal -0.156434 0 0.987688
    outer loop
      vertex 48.12 -1 40.3717
      vertex 47.1893 11 40.2243
      vertex 47.1893 -1 40.2243
    endloop
  endfacet
  facet normal 0.031414 0 0.999506
    outer loop
      vertex 50 11 40.49
      vertex 50.9419 -1 40.4604
      vertex 50.9419 11 40.4604
    endloop
  endfacet
  facet normal 0.031414 0 0.999506
    outer loop
      vertex 50.9419 -1 40.4604
      vertex 50 11 40.49
      vertex 50 -1 40.49
    endloop
  endfacet
  facet normal 1.39556e-06 1 8.25335e-07
    outer loop
      vertex 64.5287 11 29.2203
      vertex 62.6649 11 33.5274
      vertex 63.1446 11 32.7163
    endloop
  endfacet
  facet normal 0.975917 -0 0.218141
    outer loop
      vertex 64.5287 -1 29.2203
      vertex 64.7343 11 28.3007
      vertex 64.5287 11 29.2203
    endloop
  endfacet
  facet normal 0.975917 0 0.218141
    outer loop
      vertex 64.7343 11 28.3007
      vertex 64.5287 -1 29.2203
      vertex 64.7343 -1 28.3007
    endloop
  endfacet
  facet normal 3.23978e-07 1 3.23978e-07
    outer loop
      vertex 64.5287 11 29.2203
      vertex 60.2682 11 36.4245
      vertex 60.9345 11 35.7582
    endloop
  endfacet
  facet normal 4.92352e-08 1 1.36755e-07
    outer loop
      vertex 64.5287 11 29.2203
      vertex 54.6353 11 39.7558
      vertex 55.5219 11 39.4366
    endloop
  endfacet
  facet normal 0.612908 0 0.790154
    outer loop
      vertex 58.8168 11 37.6253
      vertex 59.5614 -1 37.0477
      vertex 59.5614 11 37.0477
    endloop
  endfacet
  facet normal 0.612908 0 0.790154
    outer loop
      vertex 59.5614 -1 37.0477
      vertex 58.8168 11 37.6253
      vertex 58.8168 -1 37.6253
    endloop
  endfacet
  facet normal 0.509043 0 0.860741
    outer loop
      vertex 57.2263 11 38.6346
      vertex 58.0374 -1 38.1549
      vertex 58.0374 11 38.1549
    endloop
  endfacet
  facet normal 0.509043 0 0.860741
    outer loop
      vertex 58.0374 -1 38.1549
      vertex 57.2263 11 38.6346
      vertex 57.2263 -1 38.6346
    endloop
  endfacet
  facet normal 0.999506 -0 0.0314139
    outer loop
      vertex 64.9704 -1 26.4319
      vertex 65 11 25.49
      vertex 64.9704 11 26.4319
    endloop
  endfacet
  facet normal 0.999506 0 0.0314139
    outer loop
      vertex 65 11 25.49
      vertex 64.9704 -1 26.4319
      vertex 65 -1 25.49
    endloop
  endfacet
  facet normal 0.707107 -0 0.707107
    outer loop
      vertex 60.2682 -1 36.4245
      vertex 60.9345 11 35.7582
      vertex 60.2682 11 36.4245
    endloop
  endfacet
  facet normal 0.707107 0 0.707107
    outer loop
      vertex 60.9345 11 35.7582
      vertex 60.2682 -1 36.4245
      vertex 60.9345 -1 35.7582
    endloop
  endfacet
  facet normal 0 1 8.46232e-08
    outer loop
      vertex 64.5287 11 29.2203
      vertex 35.4713 11 29.2203
      vertex 50 11 40.49
    endloop
  endfacet
  facet normal -0.987688 0 0.156438
    outer loop
      vertex 35.1183 -1 27.37
      vertex 35.2657 11 28.3007
      vertex 35.1183 11 27.37
    endloop
  endfacet
  facet normal -0.987688 0 0.156438
    outer loop
      vertex 35.2657 11 28.3007
      vertex 35.1183 -1 27.37
      vertex 35.2657 -1 28.3007
    endloop
  endfacet
  facet normal -0.999507 0 0.0314099
    outer loop
      vertex 35.0296 11 26.4319
      vertex 35 11 25.49
      vertex 35.0296 -1 26.4319
    endloop
  endfacet
  facet normal -0.33874 0 0.94088
    outer loop
      vertex 44.4781 11 39.4366
      vertex 45.3647 -1 39.7558
      vertex 45.3647 11 39.7558
    endloop
  endfacet
  facet normal -0.33874 0 0.94088
    outer loop
      vertex 45.3647 -1 39.7558
      vertex 44.4781 11 39.4366
      vertex 44.4781 -1 39.4366
    endloop
  endfacet
  facet normal -1.65114e-08 1 1.04249e-07
    outer loop
      vertex 48.12 11 40.3717
      vertex 35.4713 11 29.2203
      vertex 47.1893 11 40.2243
    endloop
  endfacet
  facet normal -3.23978e-07 1 3.23978e-07
    outer loop
      vertex 39.7318 11 36.4245
      vertex 35.4713 11 29.2203
      vertex 39.0655 11 35.7582
    endloop
  endfacet
  facet normal -2.54242e-08 1 1.1374e-07
    outer loop
      vertex 47.1893 11 40.2243
      vertex 35.4713 11 29.2203
      vertex 46.2697 11 40.0187
    endloop
  endfacet
  facet normal -2.77198e-09 1 8.81968e-08
    outer loop
      vertex 50 11 40.49
      vertex 35.4713 11 29.2203
      vertex 49.0581 11 40.4604
    endloop
  endfacet
  facet normal 0.0941082 0 0.995562
    outer loop
      vertex 50.9419 11 40.4604
      vertex 51.88 -1 40.3717
      vertex 51.88 11 40.3717
    endloop
  endfacet
  facet normal 0.0941082 0 0.995562
    outer loop
      vertex 51.88 -1 40.3717
      vertex 50.9419 11 40.4604
      vertex 50.9419 -1 40.4604
    endloop
  endfacet
  facet normal 0.75011 -0 0.661313
    outer loop
      vertex 60.9345 -1 35.7582
      vertex 61.5577 11 35.0514
      vertex 60.9345 11 35.7582
    endloop
  endfacet
  facet normal 0.75011 0 0.661313
    outer loop
      vertex 61.5577 11 35.0514
      vertex 60.9345 -1 35.7582
      vertex 61.5577 -1 35.0514
    endloop
  endfacet
  facet normal 0.790156 -0 0.612906
    outer loop
      vertex 61.5577 -1 35.0514
      vertex 62.1353 11 34.3068
      vertex 61.5577 11 35.0514
    endloop
  endfacet
  facet normal 0.790156 0 0.612906
    outer loop
      vertex 62.1353 11 34.3068
      vertex 61.5577 -1 35.0514
      vertex 62.1353 -1 34.3068
    endloop
  endfacet
  facet normal 0.987688 -0 0.156438
    outer loop
      vertex 64.7343 -1 28.3007
      vertex 64.8817 11 27.37
      vertex 64.7343 11 28.3007
    endloop
  endfacet
  facet normal 0.987688 0 0.156438
    outer loop
      vertex 64.8817 11 27.37
      vertex 64.7343 -1 28.3007
      vertex 64.8817 -1 27.37
    endloop
  endfacet
  facet normal 2.40146e-06 1 1.2236e-06
    outer loop
      vertex 64.5287 11 29.2203
      vertex 63.1446 11 32.7163
      vertex 63.5724 11 31.8767
    endloop
  endfacet
  facet normal 0.917754 -0 0.39715
    outer loop
      vertex 63.5724 -1 31.8767
      vertex 63.9466 11 31.0119
      vertex 63.5724 11 31.8767
    endloop
  endfacet
  facet normal 0.917754 0 0.39715
    outer loop
      vertex 63.9466 11 31.0119
      vertex 63.5724 -1 31.8767
      vertex 63.9466 -1 31.0119
    endloop
  endfacet
  facet normal 0.960293 -0 0.278993
    outer loop
      vertex 64.2658 -1 30.1253
      vertex 64.5287 11 29.2203
      vertex 64.2658 11 30.1253
    endloop
  endfacet
  facet normal 0.960293 0 0.278993
    outer loop
      vertex 64.5287 11 29.2203
      vertex 64.2658 -1 30.1253
      vertex 64.5287 -1 29.2203
    endloop
  endfacet
  facet normal 0.397147 0 0.917755
    outer loop
      vertex 55.5219 11 39.4366
      vertex 56.3867 -1 39.0624
      vertex 56.3867 11 39.0624
    endloop
  endfacet
  facet normal 0.397147 0 0.917755
    outer loop
      vertex 56.3867 -1 39.0624
      vertex 55.5219 11 39.4366
      vertex 55.5219 -1 39.4366
    endloop
  endfacet
  facet normal 1.65114e-08 1 1.04249e-07
    outer loop
      vertex 64.5287 11 29.2203
      vertex 51.88 11 40.3717
      vertex 52.8107 11 40.2243
    endloop
  endfacet
  facet normal 0.562081 0 0.827082
    outer loop
      vertex 58.0374 11 38.1549
      vertex 58.8168 -1 37.6253
      vertex 58.8168 11 37.6253
    endloop
  endfacet
  facet normal 0.562081 0 0.827082
    outer loop
      vertex 58.8168 -1 37.6253
      vertex 58.0374 11 38.1549
      vertex 58.0374 -1 38.1549
    endloop
  endfacet
  facet normal 0.278989 0 0.960294
    outer loop
      vertex 53.7303 11 40.0187
      vertex 54.6353 -1 39.7558
      vertex 54.6353 11 39.7558
    endloop
  endfacet
  facet normal 0.278989 0 0.960294
    outer loop
      vertex 54.6353 -1 39.7558
      vertex 53.7303 11 40.0187
      vertex 53.7303 -1 40.0187
    endloop
  endfacet
  facet normal 4.39543e-07 1 3.87511e-07
    outer loop
      vertex 64.5287 11 29.2203
      vertex 60.9345 11 35.7582
      vertex 61.5577 11 35.0514
    endloop
  endfacet
  facet normal 9.05496e-09 1 9.57917e-08
    outer loop
      vertex 64.5287 11 29.2203
      vertex 50.9419 11 40.4604
      vertex 51.88 11 40.3717
    endloop
  endfacet
  facet normal 0.453989 0 0.891007
    outer loop
      vertex 56.3867 11 39.0624
      vertex 57.2263 -1 38.6346
      vertex 57.2263 11 38.6346
    endloop
  endfacet
  facet normal 0.453989 0 0.891007
    outer loop
      vertex 57.2263 -1 38.6346
      vertex 56.3867 11 39.0624
      vertex 56.3867 -1 39.0624
    endloop
  endfacet
  facet normal 1.10685e-07 1 1.87157e-07
    outer loop
      vertex 64.5287 11 29.2203
      vertex 57.2263 11 38.6346
      vertex 58.0374 11 38.1549
    endloop
  endfacet
  facet normal 0 1 -0
    outer loop
      vertex 45.9 11 11.59
      vertex 44.9 11 12.59
      vertex 45.9 11 12.59
    endloop
  endfacet
  facet normal 0 1 0
    outer loop
      vertex 44.9 11 12.59
      vertex 45.9 11 11.59
      vertex 44.9 11 11.59
    endloop
  endfacet
  facet normal 0 1 -0
    outer loop
      vertex 56.1 11 11.59
      vertex 55.1 11 12.59
      vertex 56.1 11 12.59
    endloop
  endfacet
  facet normal 0 1 0
    outer loop
      vertex 55.1 11 12.59
      vertex 56.1 11 11.59
      vertex 55.1 11 11.59
    endloop
  endfacet
  facet normal 0 1 0
    outer loop
      vertex 55.1 11 12.59
      vertex 64.5287 11 29.2203
      vertex 64.7343 11 28.3007
    endloop
  endfacet
  facet normal 0 1 0
    outer loop
      vertex 64.5287 11 29.2203
      vertex 45.9 11 12.59
      vertex 35.4713 11 29.2203
    endloop
  endfacet
  facet normal 0 1 0
    outer loop
      vertex 55.1 11 12.59
      vertex 64.7343 11 28.3007
      vertex 64.8817 11 27.37
    endloop
  endfacet
  facet normal 0 1 0
    outer loop
      vertex 35.4713 11 29.2203
      vertex 45.9 11 12.59
      vertex 35.2657 11 28.3007
    endloop
  endfacet
  facet normal 0 1 0
    outer loop
      vertex 55.1 11 12.59
      vertex 64.8817 11 27.37
      vertex 64.9704 11 26.4319
    endloop
  endfacet
  facet normal 0 1 0
    outer loop
      vertex 35.2657 11 28.3007
      vertex 45.9 11 12.59
      vertex 35.1183 11 27.37
    endloop
  endfacet
  facet normal 0 1 0
    outer loop
      vertex 55.1 11 12.59
      vertex 64.9704 11 26.4319
      vertex 65 11 25.49
    endloop
  endfacet
  facet normal 0 1 0
    outer loop
      vertex 35.1183 11 27.37
      vertex 45.9 11 12.59
      vertex 35.0296 11 26.4319
    endloop
  endfacet
  facet normal 0 1 0
    outer loop
      vertex 56.1 11 12.59
      vertex 65 11 25.49
      vertex 65 11 12.59
    endloop
  endfacet
  facet normal 0 1 0
    outer loop
      vertex 55.1 11 12.59
      vertex 65 11 25.49
      vertex 56.1 11 12.59
    endloop
  endfacet
  facet normal 0 1 0
    outer loop
      vertex 64.5287 11 29.2203
      vertex 55.1 11 12.59
      vertex 45.9 11 12.59
    endloop
  endfacet
  facet normal 0 1 0
    outer loop
      vertex 35.0296 11 26.4319
      vertex 45.9 11 12.59
      vertex 35 11 25.49
    endloop
  endfacet
  facet normal 0 1 -0
    outer loop
      vertex 44.9 11 12.59
      vertex 35 11 25.49
      vertex 45.9 11 12.59
    endloop
  endfacet
  facet normal 0 1 -0
    outer loop
      vertex 35.7 11 12.59
      vertex 35 11 25.49
      vertex 44.9 11 12.59
    endloop
  endfacet
  facet normal 0 1 0
    outer loop
      vertex 35 11 11.59
      vertex 35.7 11 12.59
      vertex 35.7 11 11.59
    endloop
  endfacet
  facet normal 0 1 0
    outer loop
      vertex 35.7 11 12.59
      vertex 35 11 11.59
      vertex 35 11 25.49
    endloop
  endfacet
  facet normal 8.53464e-08 1 1.67503e-07
    outer loop
      vertex 64.5287 11 29.2203
      vertex 56.3867 11 39.0624
      vertex 57.2263 11 38.6346
    endloop
  endfacet
  facet normal -6.14506e-07 1 4.76659e-07
    outer loop
      vertex 38.4423 11 35.0514
      vertex 35.4713 11 29.2203
      vertex 37.8647 11 34.3068
    endloop
  endfacet
  facet normal -8.96956e-07 1 6.0957e-07
    outer loop
      vertex 37.8647 11 34.3068
      vertex 35.4713 11 29.2203
      vertex 37.3351 11 33.5274
    endloop
  endfacet
  facet normal 4.93709e-06 1 2.13649e-06
    outer loop
      vertex 64.5287 11 29.2203
      vertex 63.5724 11 31.8767
      vertex 63.9466 11 31.0119
    endloop
  endfacet
  facet normal 6.14506e-07 1 4.76659e-07
    outer loop
      vertex 64.5287 11 29.2203
      vertex 61.5577 11 35.0514
      vertex 62.1353 11 34.3068
    endloop
  endfacet
  facet normal 8.96956e-07 1 6.0957e-07
    outer loop
      vertex 64.5287 11 29.2203
      vertex 62.1353 11 34.3068
      vertex 62.6649 11 33.5274
    endloop
  endfacet
  facet normal 2.43846e-07 1 2.76588e-07
    outer loop
      vertex 64.5287 11 29.2203
      vertex 59.5614 11 37.0477
      vertex 60.2682 11 36.4245
    endloop
  endfacet
  facet normal 0.156434 0 0.987688
    outer loop
      vertex 51.88 11 40.3717
      vertex 52.8107 -1 40.2243
      vertex 52.8107 11 40.2243
    endloop
  endfacet
  facet normal 0.156434 0 0.987688
    outer loop
      vertex 52.8107 -1 40.2243
      vertex 51.88 11 40.3717
      vertex 51.88 -1 40.3717
    endloop
  endfacet
  facet normal 3.61648e-08 1 1.24481e-07
    outer loop
      vertex 64.5287 11 29.2203
      vertex 53.7303 11 40.0187
      vertex 54.6353 11 39.7558
    endloop
  endfacet
  facet normal 2.54242e-08 1 1.1374e-07
    outer loop
      vertex 64.5287 11 29.2203
      vertex 52.8107 11 40.2243
      vertex 53.7303 11 40.0187
    endloop
  endfacet
  facet normal -0.960293 0 0.278993
    outer loop
      vertex 35.4713 -1 29.2203
      vertex 35.7342 11 30.1253
      vertex 35.4713 11 29.2203
    endloop
  endfacet
  facet normal -0.960293 0 0.278993
    outer loop
      vertex 35.7342 11 30.1253
      vertex 35.4713 -1 29.2203
      vertex 35.7342 -1 30.1253
    endloop
  endfacet
  facet normal -0.975917 0 0.218141
    outer loop
      vertex 35.2657 -1 28.3007
      vertex 35.4713 11 29.2203
      vertex 35.2657 11 28.3007
    endloop
  endfacet
  facet normal -0.975917 0 0.218141
    outer loop
      vertex 35.4713 11 29.2203
      vertex 35.2657 -1 28.3007
      vertex 35.4713 -1 29.2203
    endloop
  endfacet
  facet normal -1.51656e-05 1 5.45993e-06
    outer loop
      vertex 36.0534 11 31.0119
      vertex 35.4713 11 29.2203
      vertex 35.7342 11 30.1253
    endloop
  endfacet
  facet normal -0.790156 0 0.612906
    outer loop
      vertex 37.8647 -1 34.3068
      vertex 38.4423 11 35.0514
      vertex 37.8647 11 34.3068
    endloop
  endfacet
  facet normal -0.790156 0 0.612906
    outer loop
      vertex 38.4423 11 35.0514
      vertex 37.8647 -1 34.3068
      vertex 38.4423 -1 35.0514
    endloop
  endfacet
  facet normal -1.39556e-06 1 8.25335e-07
    outer loop
      vertex 37.3351 11 33.5274
      vertex 35.4713 11 29.2203
      vertex 36.8554 11 32.7163
    endloop
  endfacet
  facet normal -4.39543e-07 1 3.87511e-07
    outer loop
      vertex 39.0655 11 35.7582
      vertex 35.4713 11 29.2203
      vertex 38.4423 11 35.0514
    endloop
  endfacet
  facet normal -8.53464e-08 1 1.67503e-07
    outer loop
      vertex 43.6133 11 39.0624
      vertex 35.4713 11 29.2203
      vertex 42.7737 11 38.6346
    endloop
  endfacet
  facet normal -0.031414 0 0.999506
    outer loop
      vertex 49.0581 11 40.4604
      vertex 50 -1 40.49
      vertex 50 11 40.49
    endloop
  endfacet
  facet normal -0.031414 0 0.999506
    outer loop
      vertex 50 -1 40.49
      vertex 49.0581 11 40.4604
      vertex 49.0581 -1 40.4604
    endloop
  endfacet
  facet normal -0.218145 0 0.975916
    outer loop
      vertex 46.2697 11 40.0187
      vertex 47.1893 -1 40.2243
      vertex 47.1893 11 40.2243
    endloop
  endfacet
  facet normal -0.218145 0 0.975916
    outer loop
      vertex 47.1893 -1 40.2243
      vertex 46.2697 11 40.0187
      vertex 46.2697 -1 40.0187
    endloop
  endfacet
  facet normal -3.61648e-08 1 1.24481e-07
    outer loop
      vertex 46.2697 11 40.0187
      vertex 35.4713 11 29.2203
      vertex 45.3647 11 39.7558
    endloop
  endfacet
  facet normal 0.860741 -0 0.509043
    outer loop
      vertex 62.6649 -1 33.5274
      vertex 63.1446 11 32.7163
      vertex 62.6649 11 33.5274
    endloop
  endfacet
  facet normal 0.860741 0 0.509043
    outer loop
      vertex 63.1446 11 32.7163
      vertex 62.6649 -1 33.5274
      vertex 63.1446 -1 32.7163
    endloop
  endfacet
  facet normal 2.77198e-09 1 8.81968e-08
    outer loop
      vertex 64.5287 11 29.2203
      vertex 50 11 40.49
      vertex 50.9419 11 40.4604
    endloop
  endfacet
  facet normal 6.53127e-08 1 1.50929e-07
    outer loop
      vertex 64.5287 11 29.2203
      vertex 55.5219 11 39.4366
      vertex 56.3867 11 39.0624
    endloop
  endfacet
  facet normal -0.891007 0 0.453989
    outer loop
      vertex 36.4276 -1 31.8767
      vertex 36.8554 11 32.7163
      vertex 36.4276 11 31.8767
    endloop
  endfacet
  facet normal -0.891007 0 0.453989
    outer loop
      vertex 36.8554 11 32.7163
      vertex 36.4276 -1 31.8767
      vertex 36.8554 -1 32.7163
    endloop
  endfacet
  facet normal -2.40146e-06 1 1.2236e-06
    outer loop
      vertex 36.8554 11 32.7163
      vertex 35.4713 11 29.2203
      vertex 36.4276 11 31.8767
    endloop
  endfacet
  facet normal -0.940881 0 0.338737
    outer loop
      vertex 35.7342 -1 30.1253
      vertex 36.0534 11 31.0119
      vertex 35.7342 11 30.1253
    endloop
  endfacet
  facet normal -0.940881 0 0.338737
    outer loop
      vertex 36.0534 11 31.0119
      vertex 35.7342 -1 30.1253
      vertex 36.0534 -1 31.0119
    endloop
  endfacet
  facet normal -0.707107 0 0.707107
    outer loop
      vertex 39.0655 -1 35.7582
      vertex 39.7318 11 36.4245
      vertex 39.0655 11 35.7582
    endloop
  endfacet
  facet normal -0.707107 0 0.707107
    outer loop
      vertex 39.7318 11 36.4245
      vertex 39.0655 -1 35.7582
      vertex 39.7318 -1 36.4245
    endloop
  endfacet
  facet normal -0.75011 0 0.661313
    outer loop
      vertex 38.4423 -1 35.0514
      vertex 39.0655 11 35.7582
      vertex 38.4423 11 35.0514
    endloop
  endfacet
  facet normal -0.75011 0 0.661313
    outer loop
      vertex 39.0655 11 35.7582
      vertex 38.4423 -1 35.0514
      vertex 39.0655 -1 35.7582
    endloop
  endfacet
  facet normal -6.53127e-08 1 1.50929e-07
    outer loop
      vertex 44.4781 11 39.4366
      vertex 35.4713 11 29.2203
      vertex 43.6133 11 39.0624
    endloop
  endfacet
  facet normal -0.612908 0 0.790154
    outer loop
      vertex 40.4386 11 37.0477
      vertex 41.1832 -1 37.6253
      vertex 41.1832 11 37.6253
    endloop
  endfacet
  facet normal -0.612908 0 0.790154
    outer loop
      vertex 41.1832 -1 37.6253
      vertex 40.4386 11 37.0477
      vertex 40.4386 -1 37.0477
    endloop
  endfacet
  facet normal -1.10685e-07 1 1.87157e-07
    outer loop
      vertex 42.7737 11 38.6346
      vertex 35.4713 11 29.2203
      vertex 41.9626 11 38.1549
    endloop
  endfacet
  facet normal -0.661313 0 0.75011
    outer loop
      vertex 39.7318 11 36.4245
      vertex 40.4386 -1 37.0477
      vertex 40.4386 11 37.0477
    endloop
  endfacet
  facet normal -0.661313 0 0.75011
    outer loop
      vertex 40.4386 -1 37.0477
      vertex 39.7318 11 36.4245
      vertex 39.7318 -1 36.4245
    endloop
  endfacet
  facet normal -0.0941082 0 0.995562
    outer loop
      vertex 48.12 11 40.3717
      vertex 49.0581 -1 40.4604
      vertex 49.0581 11 40.4604
    endloop
  endfacet
  facet normal -0.0941082 0 0.995562
    outer loop
      vertex 49.0581 -1 40.4604
      vertex 48.12 11 40.3717
      vertex 48.12 -1 40.3717
    endloop
  endfacet
  facet normal 0.995562 -0 0.0941041
    outer loop
      vertex 64.8817 -1 27.37
      vertex 64.9704 11 26.4319
      vertex 64.8817 11 27.37
    endloop
  endfacet
  facet normal 0.995562 0 0.0941041
    outer loop
      vertex 64.9704 11 26.4319
      vertex 64.8817 -1 27.37
      vertex 64.9704 -1 26.4319
    endloop
  endfacet
  facet normal -0.860741 0 0.509043
    outer loop
      vertex 36.8554 -1 32.7163
      vertex 37.3351 11 33.5274
      vertex 36.8554 11 32.7163
    endloop
  endfacet
  facet normal -0.860741 0 0.509043
    outer loop
      vertex 37.3351 11 33.5274
      vertex 36.8554 -1 32.7163
      vertex 37.3351 -1 33.5274
    endloop
  endfacet
  facet normal -0.827081 0 0.562083
    outer loop
      vertex 37.3351 -1 33.5274
      vertex 37.8647 11 34.3068
      vertex 37.3351 11 33.5274
    endloop
  endfacet
  facet normal -0.827081 0 0.562083
    outer loop
      vertex 37.8647 11 34.3068
      vertex 37.3351 -1 33.5274
      vertex 37.8647 -1 34.3068
    endloop
  endfacet
  facet normal -0.917754 0 0.39715
    outer loop
      vertex 36.0534 -1 31.0119
      vertex 36.4276 11 31.8767
      vertex 36.0534 11 31.0119
    endloop
  endfacet
  facet normal -0.917754 0 0.39715
    outer loop
      vertex 36.4276 11 31.8767
      vertex 36.0534 -1 31.0119
      vertex 36.4276 -1 31.8767
    endloop
  endfacet
  facet normal -4.92352e-08 1 1.36755e-07
    outer loop
      vertex 45.3647 11 39.7558
      vertex 35.4713 11 29.2203
      vertex 44.4781 11 39.4366
    endloop
  endfacet
  facet normal -0.453989 0 0.891007
    outer loop
      vertex 42.7737 11 38.6346
      vertex 43.6133 -1 39.0624
      vertex 43.6133 11 39.0624
    endloop
  endfacet
  facet normal -0.453989 0 0.891007
    outer loop
      vertex 43.6133 -1 39.0624
      vertex 42.7737 11 38.6346
      vertex 42.7737 -1 38.6346
    endloop
  endfacet
  facet normal -0.397147 0 0.917755
    outer loop
      vertex 43.6133 11 39.0624
      vertex 44.4781 -1 39.4366
      vertex 44.4781 11 39.4366
    endloop
  endfacet
  facet normal -0.397147 0 0.917755
    outer loop
      vertex 44.4781 -1 39.4366
      vertex 43.6133 11 39.0624
      vertex 43.6133 -1 39.0624
    endloop
  endfacet
  facet normal -1.86136e-07 1 2.39964e-07
    outer loop
      vertex 41.1832 11 37.6253
      vertex 35.4713 11 29.2203
      vertex 40.4386 11 37.0477
    endloop
  endfacet
  facet normal -2.43846e-07 1 2.76588e-07
    outer loop
      vertex 40.4386 11 37.0477
      vertex 35.4713 11 29.2203
      vertex 39.7318 11 36.4245
    endloop
  endfacet
  facet normal -1.4329e-07 1 2.10846e-07
    outer loop
      vertex 41.9626 11 38.1549
      vertex 35.4713 11 29.2203
      vertex 41.1832 11 37.6253
    endloop
  endfacet
  facet normal -4.93709e-06 1 2.13649e-06
    outer loop
      vertex 36.4276 11 31.8767
      vertex 35.4713 11 29.2203
      vertex 36.0534 11 31.0119
    endloop
  endfacet
  facet normal -0.509043 0 0.860741
    outer loop
      vertex 41.9626 11 38.1549
      vertex 42.7737 -1 38.6346
      vertex 42.7737 11 38.6346
    endloop
  endfacet
  facet normal -0.509043 0 0.860741
    outer loop
      vertex 42.7737 -1 38.6346
      vertex 41.9626 11 38.1549
      vertex 41.9626 -1 38.1549
    endloop
  endfacet
  facet normal -0.562081 0 0.827082
    outer loop
      vertex 41.1832 11 37.6253
      vertex 41.9626 -1 38.1549
      vertex 41.9626 11 38.1549
    endloop
  endfacet
  facet normal -0.562081 0 0.827082
    outer loop
      vertex 41.9626 -1 38.1549
      vertex 41.1832 11 37.6253
      vertex 41.1832 -1 37.6253
    endloop
  endfacet
  facet normal -1 0 0
    outer loop
      vertex 35 -1 11.59
      vertex 35 11 25.49
      vertex 35 11 11.59
    endloop
  endfacet
  facet normal -1 -0 0
    outer loop
      vertex 35 11 25.49
      vertex 35 -1 11.59
      vertex 35 -1 25.49
    endloop
  endfacet
  facet normal 1 -0 0
    outer loop
      vertex 65 -1 25.49
      vertex 65 11 12.59
      vertex 65 11 25.49
    endloop
  endfacet
  facet normal 1 0 0
    outer loop
      vertex 65 11 12.59
      vertex 65 -1 25.49
      vertex 65 -1 12.59
    endloop
  endfacet
  facet normal 0 0 -1
    outer loop
      vertex 56.1 -1 12.59
      vertex 65 11 12.59
      vertex 65 -1 12.59
    endloop
  endfacet
  facet normal -0 0 -1
    outer loop
      vertex 65 11 12.59
      vertex 56.1 -1 12.59
      vertex 56.1 11 12.59
    endloop
  endfacet
  facet normal 0 0 -1
    outer loop
      vertex 35.7 -1 12.59
      vertex 44.9 11 12.59
      vertex 44.9 -1 12.59
    endloop
  endfacet
  facet normal -0 0 -1
    outer loop
      vertex 44.9 11 12.59
      vertex 35.7 -1 12.59
      vertex 35.7 11 12.59
    endloop
  endfacet
  facet normal 0 0 -1
    outer loop
      vertex 45.9 -1 12.59
      vertex 55.1 11 12.59
      vertex 55.1 -1 12.59
    endloop
  endfacet
  facet normal -0 0 -1
    outer loop
      vertex 55.1 11 12.59
      vertex 45.9 -1 12.59
      vertex 45.9 11 12.59
    endloop
  endfacet
  facet normal 0 0 -1
    outer loop
      vertex 35 -1 11.59
      vertex 35.7 11 11.59
      vertex 35.7 -1 11.59
    endloop
  endfacet
  facet normal -0 0 -1
    outer loop
      vertex 35.7 11 11.59
      vertex 35 -1 11.59
      vertex 35 11 11.59
    endloop
  endfacet
  facet normal 0 0 -1
    outer loop
      vertex 44.9 -1 11.59
      vertex 45.9 11 11.59
      vertex 45.9 -1 11.59
    endloop
  endfacet
  facet normal -0 0 -1
    outer loop
      vertex 45.9 11 11.59
      vertex 44.9 -1 11.59
      vertex 44.9 11 11.59
    endloop
  endfacet
  facet normal 0 0 -1
    outer loop
      vertex 55.1 -1 11.59
      vertex 56.1 11 11.59
      vertex 56.1 -1 11.59
    endloop
  endfacet
  facet normal -0 0 -1
    outer loop
      vertex 56.1 11 11.59
      vertex 55.1 -1 11.59
      vertex 55.1 11 11.59
    endloop
  endfacet
endsolid OpenSCAD_Model
