solid OpenSCAD_Model
  facet normal 0 -1 0
    outer loop
      vertex 75.5 -1 11.59
      vertex 76.5 -1 12.59
      vertex 75.5 -1 12.59
    endloop
  endfacet
  facet normal 0 -1 -0
    outer loop
      vertex 76.5 -1 12.59
      vertex 75.5 -1 11.59
      vertex 76.5 -1 11.59
    endloop
  endfacet
  facet normal 0 -1 0
    outer loop
      vertex 65.3 -1 11.59
      vertex 66.3 -1 12.59
      vertex 65.3 -1 12.59
    endloop
  endfacet
  facet normal 0 -1 -0
    outer loop
      vertex 66.3 -1 12.59
      vertex 65.3 -1 11.59
      vertex 66.3 -1 11.59
    endloop
  endfacet
  facet normal 0 -1 0
    outer loop
      vertex 55.1 -1 11.59
      vertex 56.1 -1 12.59
      vertex 55.1 -1 12.59
    endloop
  endfacet
  facet normal 0 -1 -0
    outer loop
      vertex 56.1 -1 12.59
      vertex 55.1 -1 11.59
      vertex 56.1 -1 11.59
    endloop
  endfacet
  facet normal 0 -1 0
    outer loop
      vertex 61.5581 -1 40.4604
      vertex 63.4419 -1 40.4604
      vertex 62.5 -1 40.49
    endloop
  endfacet
  facet normal 0 -1 0
    outer loop
      vertex 60.62 -1 40.3717
      vertex 63.4419 -1 40.4604
      vertex 61.5581 -1 40.4604
    endloop
  endfacet
  facet normal 0 -1 0
    outer loop
      vertex 60.62 -1 40.3717
      vertex 64.38 -1 40.3717
      vertex 63.4419 -1 40.4604
    endloop
  endfacet
  facet normal 0 -1 0
    outer loop
      vertex 65.3 -1 12.59
      vertex 60.62 -1 40.3717
      vertex 59.6893 -1 40.2243
    endloop
  endfacet
  facet normal 0 -1 0
    outer loop
      vertex 60.62 -1 40.3717
      vertex 65.3 -1 12.59
      vertex 64.38 -1 40.3717
    endloop
  endfacet
  facet normal 0 -1 0
    outer loop
      vertex 65.3 -1 12.59
      vertex 59.6893 -1 40.2243
      vertex 58.7697 -1 40.0187
    endloop
  endfacet
  facet normal 0 -1 0
    outer loop
      vertex 64.38 -1 40.3717
      vertex 65.3 -1 12.59
      vertex 65.3107 -1 40.2243
    endloop
  endfacet
  facet normal 0 -1 0
    outer loop
      vertex 65.3 -1 12.59
      vertex 58.7697 -1 40.0187
      vertex 57.8647 -1 39.7558
    endloop
  endfacet
  facet normal 0 -1 -0
    outer loop
      vertex 65.3107 -1 40.2243
      vertex 65.3 -1 12.59
      vertex 66.2303 -1 40.0187
    endloop
  endfacet
  facet normal 0 -1 0
    outer loop
      vertex 65.3 -1 12.59
      vertex 57.8647 -1 39.7558
      vertex 56.9781 -1 39.4366
    endloop
  endfacet
  facet normal 0 -1 -0
    outer loop
      vertex 66.2303 -1 40.0187
      vertex 65.3 -1 12.59
      vertex 67.1353 -1 39.7558
    endloop
  endfacet
  facet normal 0 -1 0
    outer loop
      vertex 65.3 -1 12.59
      vertex 56.9781 -1 39.4366
      vertex 56.1133 -1 39.0624
    endloop
  endfacet
  facet normal 0 -1 -0
    outer loop
      vertex 67.1353 -1 39.7558
      vertex 65.3 -1 12.59
      vertex 68.0219 -1 39.4366
    endloop
  endfacet
  facet normal 0 -1 0
    outer loop
      vertex 65.3 -1 12.59
      vertex 56.1133 -1 39.0624
      vertex 55.2737 -1 38.6346
    endloop
  endfacet
  facet normal 0 -1 -0
    outer loop
      vertex 68.0219 -1 39.4366
      vertex 65.3 -1 12.59
      vertex 68.8867 -1 39.0624
    endloop
  endfacet
  facet normal 0 -1 0
    outer loop
      vertex 65.3 -1 12.59
      vertex 55.2737 -1 38.6346
      vertex 54.4626 -1 38.1549
    endloop
  endfacet
  facet normal 0 -1 -0
    outer loop
      vertex 68.8867 -1 39.0624
      vertex 65.3 -1 12.59
      vertex 69.7263 -1 38.6346
    endloop
  endfacet
  facet normal 0 -1 0
    outer loop
      vertex 65.3 -1 12.59
      vertex 54.4626 -1 38.1549
      vertex 53.6832 -1 37.6253
    endloop
  endfacet
  facet normal 0 -1 -0
    outer loop
      vertex 69.7263 -1 38.6346
      vertex 65.3 -1 12.59
      vertex 70.5374 -1 38.1549
    endloop
  endfacet
  facet normal 0 -1 0
    outer loop
      vertex 65.3 -1 12.59
      vertex 53.6832 -1 37.6253
      vertex 52.9386 -1 37.0477
    endloop
  endfacet
  facet normal 0 -1 -0
    outer loop
      vertex 70.5374 -1 38.1549
      vertex 65.3 -1 12.59
      vertex 71.3168 -1 37.6253
    endloop
  endfacet
  facet normal 0 -1 0
    outer loop
      vertex 65.3 -1 12.59
      vertex 52.9386 -1 37.0477
      vertex 52.2318 -1 36.4245
    endloop
  endfacet
  facet normal 0 -1 -0
    outer loop
      vertex 71.3168 -1 37.6253
      vertex 65.3 -1 12.59
      vertex 72.0614 -1 37.0477
    endloop
  endfacet
  facet normal 0 -1 0
    outer loop
      vertex 65.3 -1 12.59
      vertex 52.2318 -1 36.4245
      vertex 51.5655 -1 35.7582
    endloop
  endfacet
  facet normal 0 -1 -0
    outer loop
      vertex 72.0614 -1 37.0477
      vertex 65.3 -1 12.59
      vertex 72.7682 -1 36.4245
    endloop
  endfacet
  facet normal 0 -1 0
    outer loop
      vertex 65.3 -1 12.59
      vertex 51.5655 -1 35.7582
      vertex 50.9423 -1 35.0514
    endloop
  endfacet
  facet normal 0 -1 -0
    outer loop
      vertex 72.7682 -1 36.4245
      vertex 65.3 -1 12.59
      vertex 73.4345 -1 35.7582
    endloop
  endfacet
  facet normal 0 -1 0
    outer loop
      vertex 65.3 -1 12.59
      vertex 50.9423 -1 35.0514
      vertex 50.3647 -1 34.3068
    endloop
  endfacet
  facet normal 0 -1 -0
    outer loop
      vertex 73.4345 -1 35.7582
      vertex 65.3 -1 12.59
      vertex 74.0577 -1 35.0514
    endloop
  endfacet
  facet normal 0 -1 0
    outer loop
      vertex 65.3 -1 12.59
      vertex 50.3647 -1 34.3068
      vertex 49.8351 -1 33.5274
    endloop
  endfacet
  facet normal 0 -1 -0
    outer loop
      vertex 74.0577 -1 35.0514
      vertex 65.3 -1 12.59
      vertex 74.6353 -1 34.3068
    endloop
  endfacet
  facet normal 0 -1 0
    outer loop
      vertex 65.3 -1 12.59
      vertex 49.8351 -1 33.5274
      vertex 49.3554 -1 32.7163
    endloop
  endfacet
  facet normal 0 -1 -0
    outer loop
      vertex 74.6353 -1 34.3068
      vertex 65.3 -1 12.59
      vertex 75.1649 -1 33.5274
    endloop
  endfacet
  facet normal 0 -1 0
    outer loop
      vertex 65.3 -1 12.59
      vertex 49.3554 -1 32.7163
      vertex 48.9276 -1 31.8767
    endloop
  endfacet
  facet normal 0 -1 -0
    outer loop
      vertex 75.1649 -1 33.5274
      vertex 65.3 -1 12.59
      vertex 75.6446 -1 32.7163
    endloop
  endfacet
  facet normal 0 -1 0
    outer loop
      vertex 65.3 -1 12.59
      vertex 48.9276 -1 31.8767
      vertex 48.5534 -1 31.0119
    endloop
  endfacet
  facet normal 0 -1 -0
    outer loop
      vertex 75.6446 -1 32.7163
      vertex 65.3 -1 12.59
      vertex 76.0724 -1 31.8767
    endloop
  endfacet
  facet normal 0 -1 0
    outer loop
      vertex 65.3 -1 12.59
      vertex 48.5534 -1 31.0119
      vertex 48.2342 -1 30.1253
    endloop
  endfacet
  facet normal 0 -1 -0
    outer loop
      vertex 76.0724 -1 31.8767
      vertex 65.3 -1 12.59
      vertex 76.4466 -1 31.0119
    endloop
  endfacet
  facet normal 0 -1 0
    outer loop
      vertex 65.3 -1 12.59
      vertex 48.2342 -1 30.1253
      vertex 47.9713 -1 29.2203
    endloop
  endfacet
  facet normal 0 -1 -0
    outer loop
      vertex 76.4466 -1 31.0119
      vertex 65.3 -1 12.59
      vertex 76.7658 -1 30.1253
    endloop
  endfacet
  facet normal 0 -1 0
    outer loop
      vertex 65.3 -1 12.59
      vertex 47.9713 -1 29.2203
      vertex 47.7657 -1 28.3007
    endloop
  endfacet
  facet normal 0 -1 -0
    outer loop
      vertex 76.7658 -1 30.1253
      vertex 65.3 -1 12.59
      vertex 77.0287 -1 29.2203
    endloop
  endfacet
  facet normal 0 -1 0
    outer loop
      vertex 65.3 -1 12.59
      vertex 47.7657 -1 28.3007
      vertex 47.6183 -1 27.37
    endloop
  endfacet
  facet normal 0 -1 -0
    outer loop
      vertex 77.0287 -1 29.2203
      vertex 65.3 -1 12.59
      vertex 77.2343 -1 28.3007
    endloop
  endfacet
  facet normal 0 -1 0
    outer loop
      vertex 65.3 -1 12.59
      vertex 47.6183 -1 27.37
      vertex 47.5296 -1 26.4319
    endloop
  endfacet
  facet normal 0 -1 -0
    outer loop
      vertex 77.2343 -1 28.3007
      vertex 65.3 -1 12.59
      vertex 77.3817 -1 27.37
    endloop
  endfacet
  facet normal 0 -1 0
    outer loop
      vertex 65.3 -1 12.59
      vertex 47.5296 -1 26.4319
      vertex 47.5 -1 25.49
    endloop
  endfacet
  facet normal 0 -1 -0
    outer loop
      vertex 77.3817 -1 27.37
      vertex 65.3 -1 12.59
      vertex 77.4704 -1 26.4319
    endloop
  endfacet
  facet normal 0 -1 0
    outer loop
      vertex 55.1 -1 12.59
      vertex 47.5 -1 25.49
      vertex 47.5 -1 12.59
    endloop
  endfacet
  facet normal 0 -1 0
    outer loop
      vertex 56.1 -1 12.59
      vertex 47.5 -1 25.49
      vertex 55.1 -1 12.59
    endloop
  endfacet
  facet normal 0 -1 0
    outer loop
      vertex 65.3 -1 12.59
      vertex 47.5 -1 25.49
      vertex 56.1 -1 12.59
    endloop
  endfacet
  facet normal 0 -1 -0
    outer loop
      vertex 77.4704 -1 26.4319
      vertex 65.3 -1 12.59
      vertex 77.5 -1 25.49
    endloop
  endfacet
  facet normal 0 -1 0
    outer loop
      vertex 66.3 -1 12.59
      vertex 77.5 -1 25.49
      vertex 65.3 -1 12.59
    endloop
  endfacet
  facet normal 0 -1 0
    outer loop
      vertex 75.5 -1 12.59
      vertex 77.5 -1 25.49
      vertex 66.3 -1 12.59
    endloop
  endfacet
  facet normal 0 -1 0
    outer loop
      vertex 76.5 -1 12.59
      vertex 77.5 -1 25.49
      vertex 75.5 -1 12.59
    endloop
  endfacet
  facet normal 0 -1 -0
    outer loop
      vertex 77.5 -1 25.49
      vertex 76.5 -1 12.59
      vertex 77.5 -1 12.59
    endloop
  endfacet
  facet normal -1 0 0
    outer loop
      vertex 55.1 -1 11.59
      vertex 55.1 11 12.59
      vertex 55.1 11 11.59
    endloop
  endfacet
  facet normal -1 -0 0
    outer loop
      vertex 55.1 11 12.59
      vertex 55.1 -1 11.59
      vertex 55.1 -1 12.59
    endloop
  endfacet
  facet normal 1 -0 0
    outer loop
      vertex 56.1 -1 12.59
      vertex 56.1 11 11.59
      vertex 56.1 11 12.59
    endloop
  endfacet
  facet normal 1 0 0
    outer loop
      vertex 56.1 11 11.59
      vertex 56.1 -1 12.59
      vertex 56.1 -1 11.59
    endloop
  endfacet
  facet normal -1 0 0
    outer loop
      vertex 65.3 -1 11.59
      vertex 65.3 11 12.59
      vertex 65.3 11 11.59
    endloop
  endfacet
  facet normal -1 -0 0
    outer loop
      vertex 65.3 11 12.59
      vertex 65.3 -1 11.59
      vertex 65.3 -1 12.59
    endloop
  endfacet
  facet normal 1 -0 0
    outer loop
      vertex 66.3 -1 12.59
      vertex 66.3 11 11.59
      vertex 66.3 11 12.59
    endloop
  endfacet
  facet normal 1 0 0
    outer loop
      vertex 66.3 11 11.59
      vertex 66.3 -1 12.59
      vertex 66.3 -1 11.59
    endloop
  endfacet
  facet normal -1 0 0
    outer loop
      vertex 75.5 -1 11.59
      vertex 75.5 11 12.59
      vertex 75.5 11 11.59
    endloop
  endfacet
  facet normal -1 -0 0
    outer loop
      vertex 75.5 11 12.59
      vertex 75.5 -1 11.59
      vertex 75.5 -1 12.59
    endloop
  endfacet
  facet normal 1 -0 0
    outer loop
      vertex 76.5 -1 12.59
      vertex 76.5 11 11.59
      vertex 76.5 11 12.59
    endloop
  endfacet
  facet normal 1 0 0
    outer loop
      vertex 76.5 11 11.59
      vertex 76.5 -1 12.59
      vertex 76.5 -1 11.59
    endloop
  endfacet
  facet normal -0.995562 0 0.0941082
    outer loop
      vertex 47.5296 -1 26.4319
      vertex 47.6183 11 27.37
      vertex 47.5296 11 26.4319
    endloop
  endfacet
  facet normal -0.995562 0 0.0941082
    outer loop
      vertex 47.6183 11 27.37
      vertex 47.5296 -1 26.4319
      vertex 47.6183 -1 27.37
    endloop
  endfacet
  facet normal -0.975917 0 0.218141
    outer loop
      vertex 47.7657 -1 28.3007
      vertex 47.9713 11 29.2203
      vertex 47.7657 11 28.3007
    endloop
  endfacet
  facet normal -0.975917 0 0.218141
    outer loop
      vertex 47.9713 11 29.2203
      vertex 47.7657 -1 28.3007
      vertex 47.9713 -1 29.2203
    endloop
  endfacet
  facet normal 0.75011 -0 0.661313
    outer loop
      vertex 73.4345 -1 35.7582
      vertex 74.0577 11 35.0514
      vertex 73.4345 11 35.7582
    endloop
  endfacet
  facet normal 0.75011 0 0.661313
    outer loop
      vertex 74.0577 11 35.0514
      vertex 73.4345 -1 35.7582
      vertex 74.0577 -1 35.0514
    endloop
  endfacet
  facet normal 6.14516e-07 1 4.76663e-07
    outer loop
      vertex 77.0287 11 29.2203
      vertex 74.0577 11 35.0514
      vertex 74.6353 11 34.3068
    endloop
  endfacet
  facet normal 2.77198e-09 1 8.81968e-08
    outer loop
      vertex 77.0287 11 29.2203
      vertex 62.5 11 40.49
      vertex 63.4419 11 40.4604
    endloop
  endfacet
  facet normal -2.54242e-08 1 1.1374e-07
    outer loop
      vertex 59.6893 11 40.2243
      vertex 47.9713 11 29.2203
      vertex 58.7697 11 40.0187
    endloop
  endfacet
  facet normal -0.33874 0 0.94088
    outer loop
      vertex 56.9781 11 39.4366
      vertex 57.8647 -1 39.7558
      vertex 57.8647 11 39.7558
    endloop
  endfacet
  facet normal -0.33874 0 0.94088
    outer loop
      vertex 57.8647 -1 39.7558
      vertex 56.9781 11 39.4366
      vertex 56.9781 -1 39.4366
    endloop
  endfacet
  facet normal 4.92352e-08 1 1.36755e-07
    outer loop
      vertex 77.0287 11 29.2203
      vertex 67.1353 11 39.7558
      vertex 68.0219 11 39.4366
    endloop
  endfacet
  facet normal 2.40146e-06 1 1.2236e-06
    outer loop
      vertex 77.0287 11 29.2203
      vertex 75.6446 11 32.7163
      vertex 76.0724 11 31.8767
    endloop
  endfacet
  facet normal 2.54243e-08 1 1.13741e-07
    outer loop
      vertex 77.0287 11 29.2203
      vertex 65.3107 11 40.2243
      vertex 66.2303 11 40.0187
    endloop
  endfacet
  facet normal 0 1 8.46232e-08
    outer loop
      vertex 77.0287 11 29.2203
      vertex 47.9713 11 29.2203
      vertex 62.5 11 40.49
    endloop
  endfacet
  facet normal -0.999507 0 0.0314099
    outer loop
      vertex 47.5296 -1 26.4319
      vertex 47.5 11 25.49
      vertex 47.5 -1 25.49
    endloop
  endfacet
  facet normal -2.43846e-07 1 2.76588e-07
    outer loop
      vertex 52.9386 11 37.0477
      vertex 47.9713 11 29.2203
      vertex 52.2318 11 36.4245
    endloop
  endfacet
  facet normal -9.05496e-09 1 9.57917e-08
    outer loop
      vertex 61.5581 11 40.4604
      vertex 47.9713 11 29.2203
      vertex 60.62 11 40.3717
    endloop
  endfacet
  facet normal 0.031414 0 0.999506
    outer loop
      vertex 62.5 11 40.49
      vertex 63.4419 -1 40.4604
      vertex 63.4419 11 40.4604
    endloop
  endfacet
  facet normal 0.031414 0 0.999506
    outer loop
      vertex 63.4419 -1 40.4604
      vertex 62.5 11 40.49
      vertex 62.5 -1 40.49
    endloop
  endfacet
  facet normal 0.940881 -0 0.338737
    outer loop
      vertex 76.4466 -1 31.0119
      vertex 76.7658 11 30.1253
      vertex 76.4466 11 31.0119
    endloop
  endfacet
  facet normal 0.940881 0 0.338737
    outer loop
      vertex 76.7658 11 30.1253
      vertex 76.4466 -1 31.0119
      vertex 76.7658 -1 30.1253
    endloop
  endfacet
  facet normal 3.23974e-07 1 3.23975e-07
    outer loop
      vertex 77.0287 11 29.2203
      vertex 72.7682 11 36.4245
      vertex 73.4345 11 35.7582
    endloop
  endfacet
  facet normal 1.51656e-05 1 5.45993e-06
    outer loop
      vertex 77.0287 11 29.2203
      vertex 76.4466 11 31.0119
      vertex 76.7658 11 30.1253
    endloop
  endfacet
  facet normal 0.960293 -0 0.278993
    outer loop
      vertex 76.7658 -1 30.1253
      vertex 77.0287 11 29.2203
      vertex 76.7658 11 30.1253
    endloop
  endfacet
  facet normal 0.960293 0 0.278993
    outer loop
      vertex 77.0287 11 29.2203
      vertex 76.7658 -1 30.1253
      vertex 77.0287 -1 29.2203
    endloop
  endfacet
  facet normal 0.61291 0 0.790153
    outer loop
      vertex 71.3168 11 37.6253
      vertex 72.0614 -1 37.0477
      vertex 72.0614 11 37.0477
    endloop
  endfacet
  facet normal 0.61291 0 0.790153
    outer loop
      vertex 72.0614 -1 37.0477
      vertex 71.3168 11 37.6253
      vertex 71.3168 -1 37.6253
    endloop
  endfacet
  facet normal 1.86138e-07 1 2.39965e-07
    outer loop
      vertex 77.0287 11 29.2203
      vertex 71.3168 11 37.6253
      vertex 72.0614 11 37.0477
    endloop
  endfacet
  facet normal 0 1 -0
    outer loop
      vertex 56.1 11 11.59
      vertex 55.1 11 12.59
      vertex 56.1 11 12.59
    endloop
  endfacet
  facet normal 0 1 0
    outer loop
      vertex 55.1 11 12.59
      vertex 56.1 11 11.59
      vertex 55.1 11 11.59
    endloop
  endfacet
  facet normal 0 1 -0
    outer loop
      vertex 66.3 11 11.59
      vertex 65.3 11 12.59
      vertex 66.3 11 12.59
    endloop
  endfacet
  facet normal 0 1 0
    outer loop
      vertex 65.3 11 12.59
      vertex 66.3 11 11.59
      vertex 65.3 11 11.59
    endloop
  endfacet
  facet normal 0 1 -0
    outer loop
      vertex 76.5 11 11.59
      vertex 75.5 11 12.59
      vertex 76.5 11 12.59
    endloop
  endfacet
  facet normal 0 1 0
    outer loop
      vertex 75.5 11 12.59
      vertex 76.5 11 11.59
      vertex 75.5 11 11.59
    endloop
  endfacet
  facet normal 0 1 0
    outer loop
      vertex 65.3 11 12.59
      vertex 77.0287 11 29.2203
      vertex 77.2343 11 28.3007
    endloop
  endfacet
  facet normal 0 1 0
    outer loop
      vertex 77.0287 11 29.2203
      vertex 65.3 11 12.59
      vertex 47.9713 11 29.2203
    endloop
  endfacet
  facet normal 0 1 0
    outer loop
      vertex 65.3 11 12.59
      vertex 77.2343 11 28.3007
      vertex 77.3817 11 27.37
    endloop
  endfacet
  facet normal 0 1 0
    outer loop
      vertex 47.9713 11 29.2203
      vertex 65.3 11 12.59
      vertex 47.7657 11 28.3007
    endloop
  endfacet
  facet normal 0 1 0
    outer loop
      vertex 65.3 11 12.59
      vertex 77.3817 11 27.37
      vertex 77.4704 11 26.4319
    endloop
  endfacet
  facet normal 0 1 0
    outer loop
      vertex 47.7657 11 28.3007
      vertex 65.3 11 12.59
      vertex 47.6183 11 27.37
    endloop
  endfacet
  facet normal 0 1 0
    outer loop
      vertex 65.3 11 12.59
      vertex 77.4704 11 26.4319
      vertex 77.5 11 25.49
    endloop
  endfacet
  facet normal 0 1 0
    outer loop
      vertex 47.6183 11 27.37
      vertex 65.3 11 12.59
      vertex 47.5296 11 26.4319
    endloop
  endfacet
  facet normal 0 1 0
    outer loop
      vertex 76.5 11 12.59
      vertex 77.5 11 25.49
      vertex 77.5 11 12.59
    endloop
  endfacet
  facet normal 0 1 0
    outer loop
      vertex 75.5 11 12.59
      vertex 77.5 11 25.49
      vertex 76.5 11 12.59
    endloop
  endfacet
  facet normal 0 1 0
    outer loop
      vertex 66.3 11 12.59
      vertex 77.5 11 25.49
      vertex 75.5 11 12.59
    endloop
  endfacet
  facet normal 0 1 0
    outer loop
      vertex 65.3 11 12.59
      vertex 77.5 11 25.49
      vertex 66.3 11 12.59
    endloop
  endfacet
  facet normal 0 1 0
    outer loop
      vertex 47.5296 11 26.4319
      vertex 65.3 11 12.59
      vertex 47.5 11 25.49
    endloop
  endfacet
  facet normal 0 1 -0
    outer loop
      vertex 56.1 11 12.59
      vertex 47.5 11 25.49
      vertex 65.3 11 12.59
    endloop
  endfacet
  facet normal 0 1 -0
    outer loop
      vertex 55.1 11 12.59
      vertex 47.5 11 25.49
      vertex 56.1 11 12.59
    endloop
  endfacet
  facet normal 0 1 0
    outer loop
      vertex 47.5 11 25.49
      vertex 55.1 11 12.59
      vertex 47.5 11 12.59
    endloop
  endfacet
  facet normal 0.999506 -0 0.0314139
    outer loop
      vertex 77.4704 -1 26.4319
      vertex 77.5 11 25.49
      vertex 77.4704 11 26.4319
    endloop
  endfacet
  facet normal 0.999506 0 0.0314139
    outer loop
      vertex 77.5 11 25.49
      vertex 77.4704 -1 26.4319
      vertex 77.5 -1 25.49
    endloop
  endfacet
  facet normal -0.987688 0 0.156438
    outer loop
      vertex 47.6183 -1 27.37
      vertex 47.7657 11 28.3007
      vertex 47.6183 11 27.37
    endloop
  endfacet
  facet normal -0.987688 0 0.156438
    outer loop
      vertex 47.7657 11 28.3007
      vertex 47.6183 -1 27.37
      vertex 47.7657 -1 28.3007
    endloop
  endfacet
  facet normal -0.999507 0 0.0314099
    outer loop
      vertex 47.5296 11 26.4319
      vertex 47.5 11 25.49
      vertex 47.5296 -1 26.4319
    endloop
  endfacet
  facet normal -1.65114e-08 1 1.04249e-07
    outer loop
      vertex 60.62 11 40.3717
      vertex 47.9713 11 29.2203
      vertex 59.6893 11 40.2243
    endloop
  endfacet
  facet normal -2.77198e-09 1 8.81968e-08
    outer loop
      vertex 62.5 11 40.49
      vertex 47.9713 11 29.2203
      vertex 61.5581 11 40.4604
    endloop
  endfacet
  facet normal 0.707105 0 0.707109
    outer loop
      vertex 72.7682 11 36.4245
      vertex 73.4345 -1 35.7582
      vertex 73.4345 11 35.7582
    endloop
  endfacet
  facet normal 0.707105 0 0.707109
    outer loop
      vertex 73.4345 -1 35.7582
      vertex 72.7682 11 36.4245
      vertex 72.7682 -1 36.4245
    endloop
  endfacet
  facet normal 4.39542e-07 1 3.8751e-07
    outer loop
      vertex 77.0287 11 29.2203
      vertex 73.4345 11 35.7582
      vertex 74.0577 11 35.0514
    endloop
  endfacet
  facet normal 0.827081 -0 0.562083
    outer loop
      vertex 74.6353 -1 34.3068
      vertex 75.1649 11 33.5274
      vertex 74.6353 11 34.3068
    endloop
  endfacet
  facet normal 0.827081 0 0.562083
    outer loop
      vertex 75.1649 11 33.5274
      vertex 74.6353 -1 34.3068
      vertex 75.1649 -1 33.5274
    endloop
  endfacet
  facet normal 0.891007 -0 0.453989
    outer loop
      vertex 75.6446 -1 32.7163
      vertex 76.0724 11 31.8767
      vertex 75.6446 11 32.7163
    endloop
  endfacet
  facet normal 0.891007 0 0.453989
    outer loop
      vertex 76.0724 11 31.8767
      vertex 75.6446 -1 32.7163
      vertex 76.0724 -1 31.8767
    endloop
  endfacet
  facet normal 0.975917 -0 0.218141
    outer loop
      vertex 77.0287 -1 29.2203
      vertex 77.2343 11 28.3007
      vertex 77.0287 11 29.2203
    endloop
  endfacet
  facet normal 0.975917 0 0.218141
    outer loop
      vertex 77.2343 11 28.3007
      vertex 77.0287 -1 29.2203
      vertex 77.2343 -1 28.3007
    endloop
  endfacet
  facet normal 1.10685e-07 1 1.87157e-07
    outer loop
      vertex 77.0287 11 29.2203
      vertex 69.7263 11 38.6346
      vertex 70.5374 11 38.1549
    endloop
  endfacet
  facet normal 0.397147 0 0.917755
    outer loop
      vertex 68.0219 11 39.4366
      vertex 68.8867 -1 39.0624
      vertex 68.8867 11 39.0624
    endloop
  endfacet
  facet normal 0.397147 0 0.917755
    outer loop
      vertex 68.8867 -1 39.0624
      vertex 68.0219 11 39.4366
      vertex 68.0219 -1 39.4366
    endloop
  endfacet
  facet normal 0.509043 0 0.860741
    outer loop
      vertex 69.7263 11 38.6346
      vertex 70.5374 -1 38.1549
      vertex 70.5374 11 38.1549
    endloop
  endfacet
  facet normal 0.509043 0 0.860741
    outer loop
      vertex 70.5374 -1 38.1549
      vertex 69.7263 11 38.6346
      vertex 69.7263 -1 38.6346
    endloop
  endfacet
  facet normal 0.0941082 0 0.995562
    outer loop
      vertex 63.4419 11 40.4604
      vertex 64.38 -1 40.3717
      vertex 64.38 11 40.3717
    endloop
  endfacet
  facet normal 0.0941082 0 0.995562
    outer loop
      vertex 64.38 -1 40.3717
      vertex 63.4419 11 40.4604
      vertex 63.4419 -1 40.4604
    endloop
  endfacet
  facet normal 0.33874 0 0.94088
    outer loop
      vertex 67.1353 11 39.7558
      vertex 68.0219 -1 39.4366
      vertex 68.0219 11 39.4366
    endloop
  endfacet
  facet normal 0.33874 0 0.94088
    outer loop
      vertex 68.0219 -1 39.4366
      vertex 67.1353 11 39.7558
      vertex 67.1353 -1 39.7558
    endloop
  endfacet
  facet normal 0.218145 0 0.975916
    outer loop
      vertex 65.3107 11 40.2243
      vertex 66.2303 -1 40.0187
      vertex 66.2303 11 40.0187
    endloop
  endfacet
  facet normal 0.218145 0 0.975916
    outer loop
      vertex 66.2303 -1 40.0187
      vertex 65.3107 11 40.2243
      vertex 65.3107 -1 40.2243
    endloop
  endfacet
  facet normal 0.995562 -0 0.0941041
    outer loop
      vertex 77.3817 -1 27.37
      vertex 77.4704 11 26.4319
      vertex 77.3817 11 27.37
    endloop
  endfacet
  facet normal 0.995562 0 0.0941041
    outer loop
      vertex 77.4704 11 26.4319
      vertex 77.3817 -1 27.37
      vertex 77.4704 -1 26.4319
    endloop
  endfacet
  facet normal -1.39556e-06 1 8.25335e-07
    outer loop
      vertex 49.8351 11 33.5274
      vertex 47.9713 11 29.2203
      vertex 49.3554 11 32.7163
    endloop
  endfacet
  facet normal -0.75011 0 0.661313
    outer loop
      vertex 50.9423 -1 35.0514
      vertex 51.5655 11 35.7582
      vertex 50.9423 11 35.0514
    endloop
  endfacet
  facet normal -0.75011 0 0.661313
    outer loop
      vertex 51.5655 11 35.7582
      vertex 50.9423 -1 35.0514
      vertex 51.5655 -1 35.7582
    endloop
  endfacet
  facet normal -0.218145 0 0.975916
    outer loop
      vertex 58.7697 11 40.0187
      vertex 59.6893 -1 40.2243
      vertex 59.6893 11 40.2243
    endloop
  endfacet
  facet normal -0.218145 0 0.975916
    outer loop
      vertex 59.6893 -1 40.2243
      vertex 58.7697 11 40.0187
      vertex 58.7697 -1 40.0187
    endloop
  endfacet
  facet normal 0.790158 -0 0.612904
    outer loop
      vertex 74.0577 -1 35.0514
      vertex 74.6353 11 34.3068
      vertex 74.0577 11 35.0514
    endloop
  endfacet
  facet normal 0.790158 0 0.612904
    outer loop
      vertex 74.6353 11 34.3068
      vertex 74.0577 -1 35.0514
      vertex 74.6353 -1 34.3068
    endloop
  endfacet
  facet normal 8.96956e-07 1 6.0957e-07
    outer loop
      vertex 77.0287 11 29.2203
      vertex 74.6353 11 34.3068
      vertex 75.1649 11 33.5274
    endloop
  endfacet
  facet normal 9.05496e-09 1 9.57917e-08
    outer loop
      vertex 77.0287 11 29.2203
      vertex 63.4419 11 40.4604
      vertex 64.38 11 40.3717
    endloop
  endfacet
  facet normal 0.278989 0 0.960294
    outer loop
      vertex 66.2303 11 40.0187
      vertex 67.1353 -1 39.7558
      vertex 67.1353 11 39.7558
    endloop
  endfacet
  facet normal 0.278989 0 0.960294
    outer loop
      vertex 67.1353 -1 39.7558
      vertex 66.2303 11 40.0187
      vertex 66.2303 -1 40.0187
    endloop
  endfacet
  facet normal 3.61648e-08 1 1.24481e-07
    outer loop
      vertex 77.0287 11 29.2203
      vertex 66.2303 11 40.0187
      vertex 67.1353 11 39.7558
    endloop
  endfacet
  facet normal 0.453989 0 0.891007
    outer loop
      vertex 68.8867 11 39.0624
      vertex 69.7263 -1 38.6346
      vertex 69.7263 11 38.6346
    endloop
  endfacet
  facet normal 0.453989 0 0.891007
    outer loop
      vertex 69.7263 -1 38.6346
      vertex 68.8867 11 39.0624
      vertex 68.8867 -1 39.0624
    endloop
  endfacet
  facet normal 0.661311 0 0.750112
    outer loop
      vertex 72.0614 11 37.0477
      vertex 72.7682 -1 36.4245
      vertex 72.7682 11 36.4245
    endloop
  endfacet
  facet normal 0.661311 0 0.750112
    outer loop
      vertex 72.7682 -1 36.4245
      vertex 72.0614 11 37.0477
      vertex 72.0614 -1 37.0477
    endloop
  endfacet
  facet normal 2.43843e-07 1 2.76586e-07
    outer loop
      vertex 77.0287 11 29.2203
      vertex 72.0614 11 37.0477
      vertex 72.7682 11 36.4245
    endloop
  endfacet
  facet normal 0.917754 -0 0.39715
    outer loop
      vertex 76.0724 -1 31.8767
      vertex 76.4466 11 31.0119
      vertex 76.0724 11 31.8767
    endloop
  endfacet
  facet normal 0.917754 0 0.39715
    outer loop
      vertex 76.4466 11 31.0119
      vertex 76.0724 -1 31.8767
      vertex 76.4466 -1 31.0119
    endloop
  endfacet
  facet normal 4.93709e-06 1 2.13649e-06
    outer loop
      vertex 77.0287 11 29.2203
      vertex 76.0724 11 31.8767
      vertex 76.4466 11 31.0119
    endloop
  endfacet
  facet normal 0.987688 -0 0.156438
    outer loop
      vertex 77.2343 -1 28.3007
      vertex 77.3817 11 27.37
      vertex 77.2343 11 28.3007
    endloop
  endfacet
  facet normal 0.987688 0 0.156438
    outer loop
      vertex 77.3817 11 27.37
      vertex 77.2343 -1 28.3007
      vertex 77.3817 -1 27.37
    endloop
  endfacet
  facet normal -4.93709e-06 1 2.13649e-06
    outer loop
      vertex 48.9276 11 31.8767
      vertex 47.9713 11 29.2203
      vertex 48.5534 11 31.0119
    endloop
  endfacet
  facet normal -8.53464e-08 1 1.67503e-07
    outer loop
      vertex 56.1133 11 39.0624
      vertex 47.9713 11 29.2203
      vertex 55.2737 11 38.6346
    endloop
  endfacet
  facet normal -0.0941082 0 0.995562
    outer loop
      vertex 60.62 11 40.3717
      vertex 61.5581 -1 40.4604
      vertex 61.5581 11 40.4604
    endloop
  endfacet
  facet normal -0.0941082 0 0.995562
    outer loop
      vertex 61.5581 -1 40.4604
      vertex 60.62 11 40.3717
      vertex 60.62 -1 40.3717
    endloop
  endfacet
  facet normal 0.860741 -0 0.509043
    outer loop
      vertex 75.1649 -1 33.5274
      vertex 75.6446 11 32.7163
      vertex 75.1649 11 33.5274
    endloop
  endfacet
  facet normal 0.860741 0 0.509043
    outer loop
      vertex 75.6446 11 32.7163
      vertex 75.1649 -1 33.5274
      vertex 75.6446 -1 32.7163
    endloop
  endfacet
  facet normal 1.39556e-06 1 8.25335e-07
    outer loop
      vertex 77.0287 11 29.2203
      vertex 75.1649 11 33.5274
      vertex 75.6446 11 32.7163
    endloop
  endfacet
  facet normal 0.156433 0 0.987689
    outer loop
      vertex 64.38 11 40.3717
      vertex 65.3107 -1 40.2243
      vertex 65.3107 11 40.2243
    endloop
  endfacet
  facet normal 0.156433 0 0.987689
    outer loop
      vertex 65.3107 -1 40.2243
      vertex 64.38 11 40.3717
      vertex 64.38 -1 40.3717
    endloop
  endfacet
  facet normal 1.65113e-08 1 1.04249e-07
    outer loop
      vertex 77.0287 11 29.2203
      vertex 64.38 11 40.3717
      vertex 65.3107 11 40.2243
    endloop
  endfacet
  facet normal 8.53464e-08 1 1.67503e-07
    outer loop
      vertex 77.0287 11 29.2203
      vertex 68.8867 11 39.0624
      vertex 69.7263 11 38.6346
    endloop
  endfacet
  facet normal 6.53127e-08 1 1.50929e-07
    outer loop
      vertex 77.0287 11 29.2203
      vertex 68.0219 11 39.4366
      vertex 68.8867 11 39.0624
    endloop
  endfacet
  facet normal 0.562081 0 0.827082
    outer loop
      vertex 70.5374 11 38.1549
      vertex 71.3168 -1 37.6253
      vertex 71.3168 11 37.6253
    endloop
  endfacet
  facet normal 0.562081 0 0.827082
    outer loop
      vertex 71.3168 -1 37.6253
      vertex 70.5374 11 38.1549
      vertex 70.5374 -1 38.1549
    endloop
  endfacet
  facet normal 1.4329e-07 1 2.10846e-07
    outer loop
      vertex 77.0287 11 29.2203
      vertex 70.5374 11 38.1549
      vertex 71.3168 11 37.6253
    endloop
  endfacet
  facet normal -0.960293 0 0.278993
    outer loop
      vertex 47.9713 -1 29.2203
      vertex 48.2342 11 30.1253
      vertex 47.9713 11 29.2203
    endloop
  endfacet
  facet normal -0.960293 0 0.278993
    outer loop
      vertex 48.2342 11 30.1253
      vertex 47.9713 -1 29.2203
      vertex 48.2342 -1 30.1253
    endloop
  endfacet
  facet normal -0.940881 0 0.338737
    outer loop
      vertex 48.2342 -1 30.1253
      vertex 48.5534 11 31.0119
      vertex 48.2342 11 30.1253
    endloop
  endfacet
  facet normal -0.940881 0 0.338737
    outer loop
      vertex 48.5534 11 31.0119
      vertex 48.2342 -1 30.1253
      vertex 48.5534 -1 31.0119
    endloop
  endfacet
  facet normal -1.51656e-05 1 5.45993e-06
    outer loop
      vertex 48.5534 11 31.0119
      vertex 47.9713 11 29.2203
      vertex 48.2342 11 30.1253
    endloop
  endfacet
  facet normal -0.917754 0 0.39715
    outer loop
      vertex 48.5534 -1 31.0119
      vertex 48.9276 11 31.8767
      vertex 48.5534 11 31.0119
    endloop
  endfacet
  facet normal -0.917754 0 0.39715
    outer loop
      vertex 48.9276 11 31.8767
      vertex 48.5534 -1 31.0119
      vertex 48.9276 -1 31.8767
    endloop
  endfacet
  facet normal -0.891007 0 0.453989
    outer loop
      vertex 48.9276 -1 31.8767
      vertex 49.3554 11 32.7163
      vertex 48.9276 11 31.8767
    endloop
  endfacet
  facet normal -0.891007 0 0.453989
    outer loop
      vertex 49.3554 11 32.7163
      vertex 48.9276 -1 31.8767
      vertex 49.3554 -1 32.7163
    endloop
  endfacet
  facet normal -2.40146e-06 1 1.2236e-06
    outer loop
      vertex 49.3554 11 32.7163
      vertex 47.9713 11 29.2203
      vertex 48.9276 11 31.8767
    endloop
  endfacet
  facet normal -4.39543e-07 1 3.87511e-07
    outer loop
      vertex 51.5655 11 35.7582
      vertex 47.9713 11 29.2203
      vertex 50.9423 11 35.0514
    endloop
  endfacet
  facet normal -0.860741 0 0.509043
    outer loop
      vertex 49.3554 -1 32.7163
      vertex 49.8351 11 33.5274
      vertex 49.3554 11 32.7163
    endloop
  endfacet
  facet normal -0.860741 0 0.509043
    outer loop
      vertex 49.8351 11 33.5274
      vertex 49.3554 -1 32.7163
      vertex 49.8351 -1 33.5274
    endloop
  endfacet
  facet normal -1.4329e-07 1 2.10846e-07
    outer loop
      vertex 54.4626 11 38.1549
      vertex 47.9713 11 29.2203
      vertex 53.6832 11 37.6253
    endloop
  endfacet
  facet normal -0.562081 0 0.827082
    outer loop
      vertex 53.6832 11 37.6253
      vertex 54.4626 -1 38.1549
      vertex 54.4626 11 38.1549
    endloop
  endfacet
  facet normal -0.562081 0 0.827082
    outer loop
      vertex 54.4626 -1 38.1549
      vertex 53.6832 11 37.6253
      vertex 53.6832 -1 37.6253
    endloop
  endfacet
  facet normal -0.453989 0 0.891007
    outer loop
      vertex 55.2737 11 38.6346
      vertex 56.1133 -1 39.0624
      vertex 56.1133 11 39.0624
    endloop
  endfacet
  facet normal -0.453989 0 0.891007
    outer loop
      vertex 56.1133 -1 39.0624
      vertex 55.2737 11 38.6346
      vertex 55.2737 -1 38.6346
    endloop
  endfacet
  facet normal -4.92352e-08 1 1.36755e-07
    outer loop
      vertex 57.8647 11 39.7558
      vertex 47.9713 11 29.2203
      vertex 56.9781 11 39.4366
    endloop
  endfacet
  facet normal -0.661313 0 0.75011
    outer loop
      vertex 52.2318 11 36.4245
      vertex 52.9386 -1 37.0477
      vertex 52.9386 11 37.0477
    endloop
  endfacet
  facet normal -0.661313 0 0.75011
    outer loop
      vertex 52.9386 -1 37.0477
      vertex 52.2318 11 36.4245
      vertex 52.2318 -1 36.4245
    endloop
  endfacet
  facet normal -0.156434 0 0.987688
    outer loop
      vertex 59.6893 11 40.2243
      vertex 60.62 -1 40.3717
      vertex 60.62 11 40.3717
    endloop
  endfacet
  facet normal -0.156434 0 0.987688
    outer loop
      vertex 60.62 -1 40.3717
      vertex 59.6893 11 40.2243
      vertex 59.6893 -1 40.2243
    endloop
  endfacet
  facet normal -0.031414 0 0.999506
    outer loop
      vertex 61.5581 11 40.4604
      vertex 62.5 -1 40.49
      vertex 62.5 11 40.49
    endloop
  endfacet
  facet normal -0.031414 0 0.999506
    outer loop
      vertex 62.5 -1 40.49
      vertex 61.5581 11 40.4604
      vertex 61.5581 -1 40.4604
    endloop
  endfacet
  facet normal -0.790156 0 0.612906
    outer loop
      vertex 50.3647 -1 34.3068
      vertex 50.9423 11 35.0514
      vertex 50.3647 11 34.3068
    endloop
  endfacet
  facet normal -0.790156 0 0.612906
    outer loop
      vertex 50.9423 11 35.0514
      vertex 50.3647 -1 34.3068
      vertex 50.9423 -1 35.0514
    endloop
  endfacet
  facet normal -6.14506e-07 1 4.76659e-07
    outer loop
      vertex 50.9423 11 35.0514
      vertex 47.9713 11 29.2203
      vertex 50.3647 11 34.3068
    endloop
  endfacet
  facet normal -0.707107 0 0.707107
    outer loop
      vertex 51.5655 -1 35.7582
      vertex 52.2318 11 36.4245
      vertex 51.5655 11 35.7582
    endloop
  endfacet
  facet normal -0.707107 0 0.707107
    outer loop
      vertex 52.2318 11 36.4245
      vertex 51.5655 -1 35.7582
      vertex 52.2318 -1 36.4245
    endloop
  endfacet
  facet normal -3.23978e-07 1 3.23978e-07
    outer loop
      vertex 52.2318 11 36.4245
      vertex 47.9713 11 29.2203
      vertex 51.5655 11 35.7582
    endloop
  endfacet
  facet normal -0.612908 0 0.790154
    outer loop
      vertex 52.9386 11 37.0477
      vertex 53.6832 -1 37.6253
      vertex 53.6832 11 37.6253
    endloop
  endfacet
  facet normal -0.612908 0 0.790154
    outer loop
      vertex 53.6832 -1 37.6253
      vertex 52.9386 11 37.0477
      vertex 52.9386 -1 37.0477
    endloop
  endfacet
  facet normal -1.86136e-07 1 2.39964e-07
    outer loop
      vertex 53.6832 11 37.6253
      vertex 47.9713 11 29.2203
      vertex 52.9386 11 37.0477
    endloop
  endfacet
  facet normal -1.10685e-07 1 1.87157e-07
    outer loop
      vertex 55.2737 11 38.6346
      vertex 47.9713 11 29.2203
      vertex 54.4626 11 38.1549
    endloop
  endfacet
  facet normal -0.397147 0 0.917755
    outer loop
      vertex 56.1133 11 39.0624
      vertex 56.9781 -1 39.4366
      vertex 56.9781 11 39.4366
    endloop
  endfacet
  facet normal -0.397147 0 0.917755
    outer loop
      vertex 56.9781 -1 39.4366
      vertex 56.1133 11 39.0624
      vertex 56.1133 -1 39.0624
    endloop
  endfacet
  facet normal -6.53127e-08 1 1.50929e-07
    outer loop
      vertex 56.9781 11 39.4366
      vertex 47.9713 11 29.2203
      vertex 56.1133 11 39.0624
    endloop
  endfacet
  facet normal -0.278989 0 0.960294
    outer loop
      vertex 57.8647 11 39.7558
      vertex 58.7697 -1 40.0187
      vertex 58.7697 11 40.0187
    endloop
  endfacet
  facet normal -0.278989 0 0.960294
    outer loop
      vertex 58.7697 -1 40.0187
      vertex 57.8647 11 39.7558
      vertex 57.8647 -1 39.7558
    endloop
  endfacet
  facet normal -3.61648e-08 1 1.24481e-07
    outer loop
      vertex 58.7697 11 40.0187
      vertex 47.9713 11 29.2203
      vertex 57.8647 11 39.7558
    endloop
  endfacet
  facet normal -0.827081 0 0.562083
    outer loop
      vertex 49.8351 -1 33.5274
      vertex 50.3647 11 34.3068
      vertex 49.8351 11 33.5274
    endloop
  endfacet
  facet normal -0.827081 0 0.562083
    outer loop
      vertex 50.3647 11 34.3068
      vertex 49.8351 -1 33.5274
      vertex 50.3647 -1 34.3068
    endloop
  endfacet
  facet normal -8.96956e-07 1 6.0957e-07
    outer loop
      vertex 50.3647 11 34.3068
      vertex 47.9713 11 29.2203
      vertex 49.8351 11 33.5274
    endloop
  endfacet
  facet normal -0.509043 0 0.860741
    outer loop
      vertex 54.4626 11 38.1549
      vertex 55.2737 -1 38.6346
      vertex 55.2737 11 38.6346
    endloop
  endfacet
  facet normal -0.509043 0 0.860741
    outer loop
      vertex 55.2737 -1 38.6346
      vertex 54.4626 11 38.1549
      vertex 54.4626 -1 38.1549
    endloop
  endfacet
  facet normal -1 0 0
    outer loop
      vertex 47.5 -1 12.59
      vertex 47.5 11 25.49
      vertex 47.5 11 12.59
    endloop
  endfacet
  facet normal -1 -0 0
    outer loop
      vertex 47.5 11 25.49
      vertex 47.5 -1 12.59
      vertex 47.5 -1 25.49
    endloop
  endfacet
  facet normal 1 -0 0
    outer loop
      vertex 77.5 -1 25.49
      vertex 77.5 11 12.59
      vertex 77.5 11 25.49
    endloop
  endfacet
  facet normal 1 0 0
    outer loop
      vertex 77.5 11 12.59
      vertex 77.5 -1 25.49
      vertex 77.5 -1 12.59
    endloop
  endfacet
  facet normal 0 0 -1
    outer loop
      vertex 47.5 -1 12.59
      vertex 55.1 11 12.59
      vertex 55.1 -1 12.59
    endloop
  endfacet
  facet normal -0 0 -1
    outer loop
      vertex 55.1 11 12.59
      vertex 47.5 -1 12.59
      vertex 47.5 11 12.59
    endloop
  endfacet
  facet normal 0 0 -1
    outer loop
      vertex 76.5 -1 12.59
      vertex 77.5 11 12.59
      vertex 77.5 -1 12.59
    endloop
  endfacet
  facet normal -0 0 -1
    outer loop
      vertex 77.5 11 12.59
      vertex 76.5 -1 12.59
      vertex 76.5 11 12.59
    endloop
  endfacet
  facet normal 0 0 -1
    outer loop
      vertex 56.1 -1 12.59
      vertex 65.3 11 12.59
      vertex 65.3 -1 12.59
    endloop
  endfacet
  facet normal -0 0 -1
    outer loop
      vertex 65.3 11 12.59
      vertex 56.1 -1 12.59
      vertex 56.1 11 12.59
    endloop
  endfacet
  facet normal 0 0 -1
    outer loop
      vertex 66.3 -1 12.59
      vertex 75.5 11 12.59
      vertex 75.5 -1 12.59
    endloop
  endfacet
  facet normal -0 0 -1
    outer loop
      vertex 75.5 11 12.59
      vertex 66.3 -1 12.59
      vertex 66.3 11 12.59
    endloop
  endfacet
  facet normal 0 0 -1
    outer loop
      vertex 55.1 -1 11.59
      vertex 56.1 11 11.59
      vertex 56.1 -1 11.59
    endloop
  endfacet
  facet normal -0 0 -1
    outer loop
      vertex 56.1 11 11.59
      vertex 55.1 -1 11.59
      vertex 55.1 11 11.59
    endloop
  endfacet
  facet normal 0 0 -1
    outer loop
      vertex 65.3 -1 11.59
      vertex 66.3 11 11.59
      vertex 66.3 -1 11.59
    endloop
  endfacet
  facet normal -0 0 -1
    outer loop
      vertex 66.3 11 11.59
      vertex 65.3 -1 11.59
      vertex 65.3 11 11.59
    endloop
  endfacet
  facet normal 0 0 -1
    outer loop
      vertex 75.5 -1 11.59
      vertex 76.5 11 11.59
      vertex 76.5 -1 11.59
    endloop
  endfacet
  facet normal -0 0 -1
    outer loop
      vertex 76.5 11 11.59
      vertex 75.5 -1 11.59
      vertex 75.5 11 11.59
    endloop
  endfacet
endsolid OpenSCAD_Model
