solid OpenSCAD_Model
  facet normal 1 -0 0
    outer loop
      vertex 11 40.8 5.2
      vertex 11 48.4 1.5
      vertex 11 48.4 5.2
    endloop
  endfacet
  facet normal 1 0 0
    outer loop
      vertex 11 48.4 1.5
      vertex 11 40.8 5.2
      vertex 11 40.8 1.5
    endloop
  endfacet
  facet normal -1 0 0
    outer loop
      vertex 64 40.8 1.5
      vertex 64 48.4 5.2
      vertex 64 48.4 1.5
    endloop
  endfacet
  facet normal -1 -0 0
    outer loop
      vertex 64 48.4 5.2
      vertex 64 40.8 1.5
      vertex 64 40.8 5.2
    endloop
  endfacet
  facet normal 0 -1 0
    outer loop
      vertex 11 48.4 1.5
      vertex 13 48.4 5.2
      vertex 11 48.4 5.2
    endloop
  endfacet
  facet normal 0 -1 -0
    outer loop
      vertex 13 48.4 5.2
      vertex 11 48.4 1.5
      vertex 13 48.4 1.5
    endloop
  endfacet
  facet normal 0 -1 0
    outer loop
      vertex 62 48.4 1.5
      vertex 64 48.4 5.2
      vertex 62 48.4 5.2
    endloop
  endfacet
  facet normal 0 -1 -0
    outer loop
      vertex 64 48.4 5.2
      vertex 62 48.4 1.5
      vertex 64 48.4 1.5
    endloop
  endfacet
  facet normal 1 -0 0
    outer loop
      vertex 13 48.4 5.2
      vertex 13 49 1.5
      vertex 13 49 5.2
    endloop
  endfacet
  facet normal 1 0 0
    outer loop
      vertex 13 49 1.5
      vertex 13 48.4 5.2
      vertex 13 48.4 1.5
    endloop
  endfacet
  facet normal -1 0 0
    outer loop
      vertex 62 48.4 1.5
      vertex 62 49 5.2
      vertex 62 49 1.5
    endloop
  endfacet
  facet normal -1 -0 0
    outer loop
      vertex 62 49 5.2
      vertex 62 48.4 1.5
      vertex 62 48.4 5.2
    endloop
  endfacet
  facet normal -1 0 0
    outer loop
      vertex 1 40.8 1.5
      vertex 1 49 5.2
      vertex 1 49 1.5
    endloop
  endfacet
  facet normal -1 -0 0
    outer loop
      vertex 1 49 5.2
      vertex 1 40.8 1.5
      vertex 1 40.8 5.2
    endloop
  endfacet
  facet normal 0 0 1
    outer loop
      vertex 13 49 5.2
      vertex 11 48.4 5.2
      vertex 13 48.4 5.2
    endloop
  endfacet
  facet normal -0 0 1
    outer loop
      vertex 1 49 5.2
      vertex 11 48.4 5.2
      vertex 13 49 5.2
    endloop
  endfacet
  facet normal 0 0 1
    outer loop
      vertex 1 40.8 5.2
      vertex 11 48.4 5.2
      vertex 1 49 5.2
    endloop
  endfacet
  facet normal 0 0 1
    outer loop
      vertex 11 48.4 5.2
      vertex 1 40.8 5.2
      vertex 11 40.8 5.2
    endloop
  endfacet
  facet normal 0 0 1
    outer loop
      vertex 74 49 5.2
      vertex 64 48.4 5.2
      vertex 74 40.8 5.2
    endloop
  endfacet
  facet normal -0 0 1
    outer loop
      vertex 62 49 5.2
      vertex 64 48.4 5.2
      vertex 74 49 5.2
    endloop
  endfacet
  facet normal 0 0 1
    outer loop
      vertex 64 48.4 5.2
      vertex 62 49 5.2
      vertex 62 48.4 5.2
    endloop
  endfacet
  facet normal 0 0 1
    outer loop
      vertex 74 40.8 5.2
      vertex 64 48.4 5.2
      vertex 64 40.8 5.2
    endloop
  endfacet
  facet normal 1 -0 0
    outer loop
      vertex 74 40.8 5.2
      vertex 74 49 1.5
      vertex 74 49 5.2
    endloop
  endfacet
  facet normal 1 0 0
    outer loop
      vertex 74 49 1.5
      vertex 74 40.8 5.2
      vertex 74 40.8 1.5
    endloop
  endfacet
  facet normal 0 1 -0
    outer loop
      vertex 74 49 1.5
      vertex 62 49 5.2
      vertex 74 49 5.2
    endloop
  endfacet
  facet normal 0 1 0
    outer loop
      vertex 62 49 5.2
      vertex 74 49 1.5
      vertex 62 49 1.5
    endloop
  endfacet
  facet normal 0 1 -0
    outer loop
      vertex 13 49 1.5
      vertex 1 49 5.2
      vertex 13 49 5.2
    endloop
  endfacet
  facet normal 0 1 0
    outer loop
      vertex 1 49 5.2
      vertex 13 49 1.5
      vertex 1 49 1.5
    endloop
  endfacet
  facet normal 0 0 -1
    outer loop
      vertex 11 40.8 1.5
      vertex 1 40.8 1.5
      vertex 11 48.4 1.5
    endloop
  endfacet
  facet normal 0 0 -1
    outer loop
      vertex 11 48.4 1.5
      vertex 13 49 1.5
      vertex 13 48.4 1.5
    endloop
  endfacet
  facet normal 0 0 -1
    outer loop
      vertex 11 48.4 1.5
      vertex 1 49 1.5
      vertex 13 49 1.5
    endloop
  endfacet
  facet normal 0 0 -1
    outer loop
      vertex 1 49 1.5
      vertex 11 48.4 1.5
      vertex 1 40.8 1.5
    endloop
  endfacet
  facet normal 0 0 -1
    outer loop
      vertex 64 48.4 1.5
      vertex 74 40.8 1.5
      vertex 64 40.8 1.5
    endloop
  endfacet
  facet normal 0 0 -1
    outer loop
      vertex 74 40.8 1.5
      vertex 64 48.4 1.5
      vertex 74 49 1.5
    endloop
  endfacet
  facet normal 0 0 -1
    outer loop
      vertex 62 49 1.5
      vertex 64 48.4 1.5
      vertex 62 48.4 1.5
    endloop
  endfacet
  facet normal 0 0 -1
    outer loop
      vertex 64 48.4 1.5
      vertex 62 49 1.5
      vertex 74 49 1.5
    endloop
  endfacet
  facet normal 0 -1 0
    outer loop
      vertex 1 40.8 1.5
      vertex 11 40.8 5.2
      vertex 1 40.8 5.2
    endloop
  endfacet
  facet normal 0 -1 -0
    outer loop
      vertex 11 40.8 5.2
      vertex 1 40.8 1.5
      vertex 11 40.8 1.5
    endloop
  endfacet
  facet normal 0 -1 0
    outer loop
      vertex 64 40.8 1.5
      vertex 74 40.8 5.2
      vertex 64 40.8 5.2
    endloop
  endfacet
  facet normal 0 -1 -0
    outer loop
      vertex 74 40.8 5.2
      vertex 64 40.8 1.5
      vertex 74 40.8 1.5
    endloop
  endfacet
endsolid OpenSCAD_Model
