solid OpenSCAD_Model
  facet normal -1 0 0
    outer loop
      vertex 9.2 -16 5.05
      vertex 9.2 6.51429 6.05
      vertex 9.2 6.51429 5.05
    endloop
  endfacet
  facet normal -1 -0 0
    outer loop
      vertex 9.2 6.51429 6.05
      vertex 9.2 -16 5.05
      vertex 9.2 -16 6.05
    endloop
  endfacet
  facet normal 1 -0 0
    outer loop
      vertex 10.2 -16 6.05
      vertex 10.2 7.65714 5.05
      vertex 10.2 7.65714 6.05
    endloop
  endfacet
  facet normal 1 0 0
    outer loop
      vertex 10.2 7.65714 5.05
      vertex 10.2 -16 6.05
      vertex 10.2 -16 5.05
    endloop
  endfacet
  facet normal 0 -1 0
    outer loop
      vertex 34.5 -16 33.15
      vertex 34.5 -16 32.25
      vertex 34.7 -16 33.15
    endloop
  endfacet
  facet normal 0 -1 0
    outer loop
      vertex 34.7 -16 33.15
      vertex 35.5 -16 39.3
      vertex 34.7 -16 39.3
    endloop
  endfacet
  facet normal 0 -1 0
    outer loop
      vertex 34.7 -16 33.15
      vertex 35.5 -16 32.25
      vertex 35.5 -16 39.3
    endloop
  endfacet
  facet normal 0 -1 0
    outer loop
      vertex 35.5 -16 32.25
      vertex 34.7 -16 33.15
      vertex 34.5 -16 32.25
    endloop
  endfacet
  facet normal 0 -1 0
    outer loop
      vertex 34.5 -16 20.05
      vertex 34.5 -16 19.15
      vertex 34.7 -16 20.05
    endloop
  endfacet
  facet normal 0 -1 0
    outer loop
      vertex 34.7 -16 25.7
      vertex 34.5 -16 26.6
      vertex 34.5 -16 25.7
    endloop
  endfacet
  facet normal 0 -1 0
    outer loop
      vertex 34.5 -16 26.6
      vertex 34.7 -16 25.7
      vertex 35.5 -16 26.6
    endloop
  endfacet
  facet normal 0 -1 0
    outer loop
      vertex 34.7 -16 20.05
      vertex 35.5 -16 26.6
      vertex 34.7 -16 25.7
    endloop
  endfacet
  facet normal 0 -1 0
    outer loop
      vertex 34.7 -16 20.05
      vertex 35.5 -16 19.15
      vertex 35.5 -16 26.6
    endloop
  endfacet
  facet normal 0 -1 0
    outer loop
      vertex 35.5 -16 19.15
      vertex 34.7 -16 20.05
      vertex 34.5 -16 19.15
    endloop
  endfacet
  facet normal 0 -1 0
    outer loop
      vertex 34.5 -16 6.95
      vertex 34.5 -16 6.05
      vertex 34.7 -16 6.95
    endloop
  endfacet
  facet normal 0 -1 0
    outer loop
      vertex 34.7 -16 12.6
      vertex 34.5 -16 13.5
      vertex 34.5 -16 12.6
    endloop
  endfacet
  facet normal 0 -1 0
    outer loop
      vertex 34.5 -16 13.5
      vertex 34.7 -16 12.6
      vertex 35.5 -16 13.5
    endloop
  endfacet
  facet normal 0 -1 0
    outer loop
      vertex 34.7 -16 6.95
      vertex 35.5 -16 13.5
      vertex 34.7 -16 12.6
    endloop
  endfacet
  facet normal 0 -1 0
    outer loop
      vertex 0 -16 6.05
      vertex 9.2 -16 6.05
      vertex 34.5 -16 6.05
    endloop
  endfacet
  facet normal 0 -1 0
    outer loop
      vertex 10.2 -16 6.05
      vertex 34.5 -16 6.05
      vertex 9.2 -16 6.05
    endloop
  endfacet
  facet normal 0 -1 0
    outer loop
      vertex 19.4 -16 6.05
      vertex 34.5 -16 6.05
      vertex 10.2 -16 6.05
    endloop
  endfacet
  facet normal 0 -1 0
    outer loop
      vertex 20.4 -16 6.05
      vertex 34.5 -16 6.05
      vertex 19.4 -16 6.05
    endloop
  endfacet
  facet normal 0 -1 0
    outer loop
      vertex 29.6 -16 6.05
      vertex 34.5 -16 6.05
      vertex 20.4 -16 6.05
    endloop
  endfacet
  facet normal 0 -1 0
    outer loop
      vertex 30.6 -16 6.05
      vertex 34.5 -16 6.05
      vertex 29.6 -16 6.05
    endloop
  endfacet
  facet normal 0 -1 0
    outer loop
      vertex 34.7 -16 6.95
      vertex 35.5 -16 6.05
      vertex 35.5 -16 13.5
    endloop
  endfacet
  facet normal 0 -1 0
    outer loop
      vertex 34.5 -16 6.05
      vertex 35.5 -16 6.05
      vertex 34.7 -16 6.95
    endloop
  endfacet
  facet normal 0 -1 0
    outer loop
      vertex 35.5 -16 6.05
      vertex 34.5 -16 6.05
      vertex 30.6 -16 6.05
    endloop
  endfacet
  facet normal 0 -1 0
    outer loop
      vertex 29.6 -16 5.05
      vertex 30.6 -16 6.05
      vertex 29.6 -16 6.05
    endloop
  endfacet
  facet normal 0 -1 -0
    outer loop
      vertex 30.6 -16 6.05
      vertex 29.6 -16 5.05
      vertex 30.6 -16 5.05
    endloop
  endfacet
  facet normal 0 -1 0
    outer loop
      vertex 19.4 -16 5.05
      vertex 20.4 -16 6.05
      vertex 19.4 -16 6.05
    endloop
  endfacet
  facet normal 0 -1 -0
    outer loop
      vertex 20.4 -16 6.05
      vertex 19.4 -16 5.05
      vertex 20.4 -16 5.05
    endloop
  endfacet
  facet normal 0 -1 0
    outer loop
      vertex 9.2 -16 5.05
      vertex 10.2 -16 6.05
      vertex 9.2 -16 6.05
    endloop
  endfacet
  facet normal 0 -1 -0
    outer loop
      vertex 10.2 -16 6.05
      vertex 9.2 -16 5.05
      vertex 10.2 -16 5.05
    endloop
  endfacet
  facet normal 0 1 0
    outer loop
      vertex 14.5 8 26.6
      vertex 14.3 8 25.7
      vertex 13.5 8 26.6
    endloop
  endfacet
  facet normal 0 1 0
    outer loop
      vertex 14.5 8 26.6
      vertex 14.3 8 20.05
      vertex 14.3 8 25.7
    endloop
  endfacet
  facet normal 0 1 -0
    outer loop
      vertex 14.5 8 19.15
      vertex 14.3 8 20.05
      vertex 14.5 8 26.6
    endloop
  endfacet
  facet normal 0 1 0
    outer loop
      vertex 13.5 8 19.15
      vertex 14.3 8 20.05
      vertex 14.5 8 19.15
    endloop
  endfacet
  facet normal 0 1 0
    outer loop
      vertex 14.3 8 20.05
      vertex 13.5 8 19.15
      vertex 13.5 8 20.05
    endloop
  endfacet
  facet normal 0 1 0
    outer loop
      vertex 13.5 8 26.6
      vertex 14.3 8 25.7
      vertex 13.5 8 25.7
    endloop
  endfacet
  facet normal 0 1 0
    outer loop
      vertex 14.5 8 13.5
      vertex 14.3 8 12.6
      vertex 13.5 8 13.5
    endloop
  endfacet
  facet normal 0 1 0
    outer loop
      vertex 14.5 8 13.5
      vertex 14.3 8 6.95
      vertex 14.3 8 12.6
    endloop
  endfacet
  facet normal 0 1 0
    outer loop
      vertex 14.3 8 6.95
      vertex 13.5 8 6.05
      vertex 13.5 8 6.95
    endloop
  endfacet
  facet normal 0 1 0
    outer loop
      vertex 13.5 8 6.05
      vertex 14.5 8 6.05
      vertex 11.5 8 6.05
    endloop
  endfacet
  facet normal 0 1 0
    outer loop
      vertex 14.3 8 6.95
      vertex 14.5 8 6.05
      vertex 13.5 8 6.05
    endloop
  endfacet
  facet normal 0 1 -0
    outer loop
      vertex 14.5 8 6.05
      vertex 14.3 8 6.95
      vertex 14.5 8 13.5
    endloop
  endfacet
  facet normal 0 1 0
    outer loop
      vertex 13.5 8 13.5
      vertex 14.3 8 12.6
      vertex 13.5 8 12.6
    endloop
  endfacet
  facet normal 0 1 -0
    outer loop
      vertex 11.5 8 6.05
      vertex 10.5 8 6.95
      vertex 11.5 8 6.95
    endloop
  endfacet
  facet normal 0 1 0
    outer loop
      vertex 11.5 8 6.05
      vertex 10.5 8 6.05
      vertex 10.5 8 6.95
    endloop
  endfacet
  facet normal 0 1 0
    outer loop
      vertex 10.5 8 6.05
      vertex 11.5 8 6.05
      vertex 14.5 8 6.05
    endloop
  endfacet
  facet normal 0 1 -0
    outer loop
      vertex 11.5 8 12.6
      vertex 10.5 8 13.5
      vertex 11.5 8 13.5
    endloop
  endfacet
  facet normal 0 1 0
    outer loop
      vertex 10.5 8 13.5
      vertex 11.5 8 12.6
      vertex 10.5 8 12.6
    endloop
  endfacet
  facet normal 0 1 -0
    outer loop
      vertex 11.5 8 19.15
      vertex 10.5 8 20.05
      vertex 11.5 8 20.05
    endloop
  endfacet
  facet normal 0 1 0
    outer loop
      vertex 10.5 8 20.05
      vertex 11.5 8 19.15
      vertex 10.5 8 19.15
    endloop
  endfacet
  facet normal 0 1 -0
    outer loop
      vertex 11.5 8 25.7
      vertex 10.5 8 26.6
      vertex 11.5 8 26.6
    endloop
  endfacet
  facet normal 0 1 0
    outer loop
      vertex 10.5 8 26.6
      vertex 11.5 8 25.7
      vertex 10.5 8 25.7
    endloop
  endfacet
  facet normal -1 0 0
    outer loop
      vertex 19.4 -16 5.05
      vertex 19.4 2.4 6.05
      vertex 19.4 2.4 5.05
    endloop
  endfacet
  facet normal -1 -0 0
    outer loop
      vertex 19.4 2.4 6.05
      vertex 19.4 -16 5.05
      vertex 19.4 -16 6.05
    endloop
  endfacet
  facet normal 1 -0 0
    outer loop
      vertex 20.4 -16 6.05
      vertex 20.4 1.25714 5.05
      vertex 20.4 1.25714 6.05
    endloop
  endfacet
  facet normal 1 0 0
    outer loop
      vertex 20.4 1.25714 5.05
      vertex 20.4 -16 6.05
      vertex 20.4 -16 5.05
    endloop
  endfacet
  facet normal -1 0 0
    outer loop
      vertex 29.6 -16 5.05
      vertex 29.6 -9.25714 6.05
      vertex 29.6 -9.25714 5.05
    endloop
  endfacet
  facet normal -1 -0 0
    outer loop
      vertex 29.6 -9.25714 6.05
      vertex 29.6 -16 5.05
      vertex 29.6 -16 6.05
    endloop
  endfacet
  facet normal 1 -0 0
    outer loop
      vertex 30.6 -16 6.05
      vertex 30.6 -10.4 5.05
      vertex 30.6 -10.4 6.05
    endloop
  endfacet
  facet normal 1 0 0
    outer loop
      vertex 30.6 -10.4 5.05
      vertex 30.6 -16 6.05
      vertex 30.6 -16 5.05
    endloop
  endfacet
  facet normal -1 0 0
    outer loop
      vertex 4.1 -0.457144 6.95
      vertex 4.1 0.685714 12.6
      vertex 4.1 0.685714 6.95
    endloop
  endfacet
  facet normal -1 -0 0
    outer loop
      vertex 4.1 0.685714 12.6
      vertex 4.1 -0.457144 6.95
      vertex 4.1 -0.457144 12.6
    endloop
  endfacet
  facet normal 1 -0 0
    outer loop
      vertex 5.1 0.685714 12.6
      vertex 5.1 1.82857 6.95
      vertex 5.1 1.82857 12.6
    endloop
  endfacet
  facet normal 1 0 0
    outer loop
      vertex 5.1 1.82857 6.95
      vertex 5.1 0.685714 12.6
      vertex 5.1 0.685714 6.95
    endloop
  endfacet
  facet normal -1 0 0
    outer loop
      vertex 14.3 7.08572 6.95
      vertex 14.3 8 12.6
      vertex 14.3 8 6.95
    endloop
  endfacet
  facet normal -1 -0 0
    outer loop
      vertex 14.3 8 12.6
      vertex 14.3 7.08572 6.95
      vertex 14.3 7.08572 12.6
    endloop
  endfacet
  facet normal 1 -0 0
    outer loop
      vertex 15.3 5.94286 12.6
      vertex 15.3 7.08572 6.95
      vertex 15.3 7.08572 12.6
    endloop
  endfacet
  facet normal 1 0 0
    outer loop
      vertex 15.3 7.08572 6.95
      vertex 15.3 5.94286 12.6
      vertex 15.3 5.94286 6.95
    endloop
  endfacet
  facet normal -1 0 0
    outer loop
      vertex 24.5 -4.57143 6.95
      vertex 24.5 -3.42857 12.6
      vertex 24.5 -3.42857 6.95
    endloop
  endfacet
  facet normal -1 -0 0
    outer loop
      vertex 24.5 -3.42857 12.6
      vertex 24.5 -4.57143 6.95
      vertex 24.5 -4.57143 12.6
    endloop
  endfacet
  facet normal 1 -0 0
    outer loop
      vertex 25.5 -5.71429 12.6
      vertex 25.5 -4.57143 6.95
      vertex 25.5 -4.57143 12.6
    endloop
  endfacet
  facet normal 1 0 0
    outer loop
      vertex 25.5 -4.57143 6.95
      vertex 25.5 -5.71429 12.6
      vertex 25.5 -5.71429 6.95
    endloop
  endfacet
  facet normal -1 0 0
    outer loop
      vertex 34.7 -16 6.95
      vertex 34.7 -15.0857 12.6
      vertex 34.7 -15.0857 6.95
    endloop
  endfacet
  facet normal -1 -0 0
    outer loop
      vertex 34.7 -15.0857 12.6
      vertex 34.7 -16 6.95
      vertex 34.7 -16 12.6
    endloop
  endfacet
  facet normal -1 0 0
    outer loop
      vertex 9.2 5.37143 13.5
      vertex 9.2 6.51429 19.15
      vertex 9.2 6.51429 13.5
    endloop
  endfacet
  facet normal -1 -0 0
    outer loop
      vertex 9.2 6.51429 19.15
      vertex 9.2 5.37143 13.5
      vertex 9.2 5.37143 19.15
    endloop
  endfacet
  facet normal 1 -0 0
    outer loop
      vertex 10.2 6.51429 19.15
      vertex 10.2 7.65714 13.5
      vertex 10.2 7.65714 19.15
    endloop
  endfacet
  facet normal 1 0 0
    outer loop
      vertex 10.2 7.65714 13.5
      vertex 10.2 6.51429 19.15
      vertex 10.2 6.51429 13.5
    endloop
  endfacet
  facet normal -1 0 0
    outer loop
      vertex 19.4 1.25714 13.5
      vertex 19.4 2.4 19.15
      vertex 19.4 2.4 13.5
    endloop
  endfacet
  facet normal -1 -0 0
    outer loop
      vertex 19.4 2.4 19.15
      vertex 19.4 1.25714 13.5
      vertex 19.4 1.25714 19.15
    endloop
  endfacet
  facet normal 1 -0 0
    outer loop
      vertex 20.4 0.114286 19.15
      vertex 20.4 1.25714 13.5
      vertex 20.4 1.25714 19.15
    endloop
  endfacet
  facet normal 1 0 0
    outer loop
      vertex 20.4 1.25714 13.5
      vertex 20.4 0.114286 19.15
      vertex 20.4 0.114286 13.5
    endloop
  endfacet
  facet normal -1 0 0
    outer loop
      vertex 29.6 -10.4 13.5
      vertex 29.6 -9.25714 19.15
      vertex 29.6 -9.25714 13.5
    endloop
  endfacet
  facet normal -1 -0 0
    outer loop
      vertex 29.6 -9.25714 19.15
      vertex 29.6 -10.4 13.5
      vertex 29.6 -10.4 19.15
    endloop
  endfacet
  facet normal 1 -0 0
    outer loop
      vertex 30.6 -11.5429 19.15
      vertex 30.6 -10.4 13.5
      vertex 30.6 -10.4 19.15
    endloop
  endfacet
  facet normal 1 0 0
    outer loop
      vertex 30.6 -10.4 13.5
      vertex 30.6 -11.5429 19.15
      vertex 30.6 -11.5429 13.5
    endloop
  endfacet
  facet normal -1 0 0
    outer loop
      vertex 4.1 -0.457144 20.05
      vertex 4.1 0.685714 25.7
      vertex 4.1 0.685714 20.05
    endloop
  endfacet
  facet normal -1 -0 0
    outer loop
      vertex 4.1 0.685714 25.7
      vertex 4.1 -0.457144 20.05
      vertex 4.1 -0.457144 25.7
    endloop
  endfacet
  facet normal 1 -0 0
    outer loop
      vertex 5.1 0.685714 25.7
      vertex 5.1 1.82857 20.05
      vertex 5.1 1.82857 25.7
    endloop
  endfacet
  facet normal 1 0 0
    outer loop
      vertex 5.1 1.82857 20.05
      vertex 5.1 0.685714 25.7
      vertex 5.1 0.685714 20.05
    endloop
  endfacet
  facet normal -1 0 0
    outer loop
      vertex 14.3 7.08572 20.05
      vertex 14.3 8 25.7
      vertex 14.3 8 20.05
    endloop
  endfacet
  facet normal -1 -0 0
    outer loop
      vertex 14.3 8 25.7
      vertex 14.3 7.08572 20.05
      vertex 14.3 7.08572 25.7
    endloop
  endfacet
  facet normal 1 -0 0
    outer loop
      vertex 15.3 5.94286 25.7
      vertex 15.3 7.08572 20.05
      vertex 15.3 7.08572 25.7
    endloop
  endfacet
  facet normal 1 0 0
    outer loop
      vertex 15.3 7.08572 20.05
      vertex 15.3 5.94286 25.7
      vertex 15.3 5.94286 20.05
    endloop
  endfacet
  facet normal -1 0 0
    outer loop
      vertex 24.5 -4.57143 20.05
      vertex 24.5 -3.42857 25.7
      vertex 24.5 -3.42857 20.05
    endloop
  endfacet
  facet normal -1 -0 0
    outer loop
      vertex 24.5 -3.42857 25.7
      vertex 24.5 -4.57143 20.05
      vertex 24.5 -4.57143 25.7
    endloop
  endfacet
  facet normal 1 -0 0
    outer loop
      vertex 25.5 -5.71429 25.7
      vertex 25.5 -4.57143 20.05
      vertex 25.5 -4.57143 25.7
    endloop
  endfacet
  facet normal 1 0 0
    outer loop
      vertex 25.5 -4.57143 20.05
      vertex 25.5 -5.71429 25.7
      vertex 25.5 -5.71429 20.05
    endloop
  endfacet
  facet normal -1 0 0
    outer loop
      vertex 34.7 -16 20.05
      vertex 34.7 -15.0857 25.7
      vertex 34.7 -15.0857 20.05
    endloop
  endfacet
  facet normal -1 -0 0
    outer loop
      vertex 34.7 -15.0857 25.7
      vertex 34.7 -16 20.05
      vertex 34.7 -16 25.7
    endloop
  endfacet
  facet normal -1 0 0
    outer loop
      vertex 9.2 5.37143 31.5833
      vertex 9.2 6.51429 31.9167
      vertex 9.2 6.51429 26.6
    endloop
  endfacet
  facet normal -1 0 0
    outer loop
      vertex 9.2 5.37143 31.5833
      vertex 9.2 6.51429 26.6
      vertex 9.2 5.37143 26.6
    endloop
  endfacet
  facet normal -1 -0 0
    outer loop
      vertex 9.2 6.51429 31.9167
      vertex 9.2 5.37143 31.5833
      vertex 9.2 5.94286 32.25
    endloop
  endfacet
  facet normal -1 -0 0
    outer loop
      vertex 9.2 5.94286 32.25
      vertex 9.2 5.37143 31.5833
      vertex 9.2 4.22857 32.25
    endloop
  endfacet
  facet normal 1 0 0
    outer loop
      vertex 10.2 7.65714 31.25
      vertex 10.2 6.51429 30.9167
      vertex 10.2 7.65714 26.6
    endloop
  endfacet
  facet normal 1 0 0
    outer loop
      vertex 10.2 5.94286 32.25
      vertex 10.2 6.51429 30.9167
      vertex 10.2 7.65714 31.25
    endloop
  endfacet
  facet normal 1 0 0
    outer loop
      vertex 10.2 6.51429 30.9167
      vertex 10.2 5.94286 32.25
      vertex 10.2 4.22857 32.25
    endloop
  endfacet
  facet normal 1 0 0
    outer loop
      vertex 10.2 7.65714 26.6
      vertex 10.2 6.51429 30.9167
      vertex 10.2 6.51429 26.6
    endloop
  endfacet
  facet normal -1 0 0
    outer loop
      vertex 19.4 1.25714 26.6
      vertex 19.4 2.4 32.25
      vertex 19.4 2.4 26.6
    endloop
  endfacet
  facet normal -1 -0 0
    outer loop
      vertex 19.4 2.4 32.25
      vertex 19.4 1.25714 26.6
      vertex 19.4 1.25714 32.25
    endloop
  endfacet
  facet normal 1 -0 0
    outer loop
      vertex 20.4 0.114286 32.25
      vertex 20.4 1.25714 26.6
      vertex 20.4 1.25714 32.25
    endloop
  endfacet
  facet normal 1 0 0
    outer loop
      vertex 20.4 1.25714 26.6
      vertex 20.4 0.114286 32.25
      vertex 20.4 0.114286 26.6
    endloop
  endfacet
  facet normal -1 0 0
    outer loop
      vertex 29.6 -10.4 26.6
      vertex 29.6 -9.25714 32.25
      vertex 29.6 -9.25714 26.6
    endloop
  endfacet
  facet normal -1 -0 0
    outer loop
      vertex 29.6 -9.25714 32.25
      vertex 29.6 -10.4 26.6
      vertex 29.6 -10.4 32.25
    endloop
  endfacet
  facet normal 1 -0 0
    outer loop
      vertex 30.6 -11.5429 32.25
      vertex 30.6 -10.4 26.6
      vertex 30.6 -10.4 32.25
    endloop
  endfacet
  facet normal 1 0 0
    outer loop
      vertex 30.6 -10.4 26.6
      vertex 30.6 -11.5429 32.25
      vertex 30.6 -11.5429 26.6
    endloop
  endfacet
  facet normal -1 0 0
    outer loop
      vertex 4.1 -0.457144 34.9833
      vertex 4.1 0.685714 33.15
      vertex 4.1 -0.457144 33.15
    endloop
  endfacet
  facet normal -1 0 0
    outer loop
      vertex 4.1 0.685714 33.15
      vertex 4.1 -0.457144 34.9833
      vertex 4.1 0.685714 35.3167
    endloop
  endfacet
  facet normal -1 0 0
    outer loop
      vertex 4.1 -0.457144 34.9833
      vertex 4.1 -6.14286 39.3
      vertex 4.1 0.685714 35.3167
    endloop
  endfacet
  facet normal -1 -0 -0
    outer loop
      vertex 4.1 -6.14286 39.3
      vertex 4.1 -0.457144 34.9833
      vertex 4.1 -7.85714 39.3
    endloop
  endfacet
  facet normal -0 0 1
    outer loop
      vertex 4.1 -6.14286 39.3
      vertex 5.1 -7.85714 39.3
      vertex 5.1 -6.14286 39.3
    endloop
  endfacet
  facet normal 0 0 1
    outer loop
      vertex 5.1 -7.85714 39.3
      vertex 4.1 -6.14286 39.3
      vertex 4.1 -7.85714 39.3
    endloop
  endfacet
  facet normal 1 0 0
    outer loop
      vertex 5.1 1.82857 34.65
      vertex 5.1 0.685714 34.3167
      vertex 5.1 1.82857 33.15
    endloop
  endfacet
  facet normal 1 0 0
    outer loop
      vertex 5.1 -6.14286 39.3
      vertex 5.1 0.685714 34.3167
      vertex 5.1 1.82857 34.65
    endloop
  endfacet
  facet normal 1 0 0
    outer loop
      vertex 5.1 0.685714 34.3167
      vertex 5.1 -6.14286 39.3
      vertex 5.1 -7.85714 39.3
    endloop
  endfacet
  facet normal 1 0 0
    outer loop
      vertex 5.1 1.82857 33.15
      vertex 5.1 0.685714 34.3167
      vertex 5.1 0.685714 33.15
    endloop
  endfacet
  facet normal -1 0 0
    outer loop
      vertex 14.3 2.68571 33.15
      vertex 14.3 -6.14286 39.3
      vertex 14.3 4.4 33.15
    endloop
  endfacet
  facet normal -1 -0 -0
    outer loop
      vertex 14.3 -6.14286 39.3
      vertex 14.3 2.68571 33.15
      vertex 14.3 -7.85714 39.3
    endloop
  endfacet
  facet normal -0 0 1
    outer loop
      vertex 14.3 -6.14286 39.3
      vertex 15.3 -7.85714 39.3
      vertex 15.3 -6.14286 39.3
    endloop
  endfacet
  facet normal 0 0 1
    outer loop
      vertex 15.3 -7.85714 39.3
      vertex 14.3 -6.14286 39.3
      vertex 14.3 -7.85714 39.3
    endloop
  endfacet
  facet normal 1 0 0
    outer loop
      vertex 15.3 -6.14286 39.3
      vertex 15.3 2.68571 33.15
      vertex 15.3 4.4 33.15
    endloop
  endfacet
  facet normal 1 0 0
    outer loop
      vertex 15.3 2.68571 33.15
      vertex 15.3 -6.14286 39.3
      vertex 15.3 -7.85714 39.3
    endloop
  endfacet
  facet normal -1 0 0
    outer loop
      vertex 24.5 -4.57143 37.3833
      vertex 24.5 -3.42857 33.15
      vertex 24.5 -4.57143 33.15
    endloop
  endfacet
  facet normal -1 0 0
    outer loop
      vertex 24.5 -3.42857 33.15
      vertex 24.5 -4.57143 37.3833
      vertex 24.5 -3.42857 37.7167
    endloop
  endfacet
  facet normal -1 0 0
    outer loop
      vertex 24.5 -4.57143 37.3833
      vertex 24.5 -6.14286 39.3
      vertex 24.5 -3.42857 37.7167
    endloop
  endfacet
  facet normal -1 -0 -0
    outer loop
      vertex 24.5 -6.14286 39.3
      vertex 24.5 -4.57143 37.3833
      vertex 24.5 -7.85714 39.3
    endloop
  endfacet
  facet normal -0 0 1
    outer loop
      vertex 24.5 -6.14286 39.3
      vertex 25.5 -7.85714 39.3
      vertex 25.5 -6.14286 39.3
    endloop
  endfacet
  facet normal 0 0 1
    outer loop
      vertex 25.5 -7.85714 39.3
      vertex 24.5 -6.14286 39.3
      vertex 24.5 -7.85714 39.3
    endloop
  endfacet
  facet normal 1 0 0
    outer loop
      vertex 25.5 -4.57143 38.3833
      vertex 25.5 -5.71429 38.05
      vertex 25.5 -4.57143 33.15
    endloop
  endfacet
  facet normal 1 0 0
    outer loop
      vertex 25.5 -6.14286 39.3
      vertex 25.5 -5.71429 38.05
      vertex 25.5 -4.57143 38.3833
    endloop
  endfacet
  facet normal 1 0 0
    outer loop
      vertex 25.5 -5.71429 38.05
      vertex 25.5 -6.14286 39.3
      vertex 25.5 -7.85714 39.3
    endloop
  endfacet
  facet normal 1 0 0
    outer loop
      vertex 25.5 -4.57143 33.15
      vertex 25.5 -5.71429 38.05
      vertex 25.5 -5.71429 33.15
    endloop
  endfacet
  facet normal -1 0 0
    outer loop
      vertex 34.7 -16 33.15
      vertex 34.7 -15.0857 39.3
      vertex 34.7 -15.0857 33.15
    endloop
  endfacet
  facet normal -1 -0 0
    outer loop
      vertex 34.7 -15.0857 39.3
      vertex 34.7 -16 33.15
      vertex 34.7 -16 39.3
    endloop
  endfacet
  facet normal 0 0 1
    outer loop
      vertex 34.7 -15.0857 39.3
      vertex 34.7 -16 39.3
      vertex 35.5 -16 39.3
    endloop
  endfacet
  facet normal -1 0 0
    outer loop
      vertex 0 -4 6.05
      vertex 0 -5.14286 6.05
      vertex 0 -4 6.95
    endloop
  endfacet
  facet normal -1 0 0
    outer loop
      vertex 0 -16 6.05
      vertex 0 -5.14286 6.05
      vertex 0 -4 6.05
    endloop
  endfacet
  facet normal -1 -0 0
    outer loop
      vertex 0 -4 6.95
      vertex 0 -5.14286 6.05
      vertex 0 -5.14286 6.95
    endloop
  endfacet
  facet normal 0 0 1
    outer loop
      vertex 34.7 -15.0857 6.95
      vertex 34.5 -16 6.95
      vertex 34.7 -16 6.95
    endloop
  endfacet
  facet normal -0 0 1
    outer loop
      vertex 25.5 -5.71429 6.95
      vertex 34.7 -15.0857 6.95
      vertex 25.5 -4.57143 6.95
    endloop
  endfacet
  facet normal 0 0 1
    outer loop
      vertex 34.7 -15.0857 6.95
      vertex 25.5 -5.71429 6.95
      vertex 34.5 -16 6.95
    endloop
  endfacet
  facet normal 0 0 1
    outer loop
      vertex 14.3 8 6.95
      vertex 13.5 8 6.95
      vertex 14.3 7.08572 6.95
    endloop
  endfacet
  facet normal 0 0 1
    outer loop
      vertex 5.1 1.82857 6.95
      vertex 11.5 8 6.95
      vertex 10.5 8 6.95
    endloop
  endfacet
  facet normal 0 0 1
    outer loop
      vertex 11.5 8 6.95
      vertex 5.1 1.82857 6.95
      vertex 5.1 0.685714 6.95
    endloop
  endfacet
  facet normal 0 0 1
    outer loop
      vertex 0 -4 6.95
      vertex 4.1 -0.457144 6.95
      vertex 4.1 0.685714 6.95
    endloop
  endfacet
  facet normal 0 0 1
    outer loop
      vertex 4.1 -0.457144 6.95
      vertex 0 -4 6.95
      vertex 0 -5.14286 6.95
    endloop
  endfacet
  facet normal -0 0 1
    outer loop
      vertex 15.3 5.94286 6.95
      vertex 24.5 -3.42857 6.95
      vertex 15.3 7.08572 6.95
    endloop
  endfacet
  facet normal 0 0 1
    outer loop
      vertex 24.5 -3.42857 6.95
      vertex 15.3 5.94286 6.95
      vertex 24.5 -4.57143 6.95
    endloop
  endfacet
  facet normal 0 0 -1
    outer loop
      vertex 0 -4 6.05
      vertex 9.2 -16 6.05
      vertex 0 -16 6.05
    endloop
  endfacet
  facet normal 0 0 -1
    outer loop
      vertex 9.2 -16 6.05
      vertex 0 -4 6.05
      vertex 9.2 6.51429 6.05
    endloop
  endfacet
  facet normal 0 0 -1
    outer loop
      vertex 10.2 -16 6.05
      vertex 19.4 2.4 6.05
      vertex 19.4 -16 6.05
    endloop
  endfacet
  facet normal 0 0 -1
    outer loop
      vertex 10.2 7.65714 6.05
      vertex 19.4 2.4 6.05
      vertex 10.2 -16 6.05
    endloop
  endfacet
  facet normal 0 0 -1
    outer loop
      vertex 19.4 2.4 6.05
      vertex 10.2 7.65714 6.05
      vertex 14.5 8 6.05
    endloop
  endfacet
  facet normal -0 0 -1
    outer loop
      vertex 14.5 8 6.05
      vertex 10.2 7.65714 6.05
      vertex 10.5 8 6.05
    endloop
  endfacet
  facet normal 0 0 -1
    outer loop
      vertex 20.4 -16 6.05
      vertex 29.6 -9.25714 6.05
      vertex 29.6 -16 6.05
    endloop
  endfacet
  facet normal -0 0 -1
    outer loop
      vertex 29.6 -9.25714 6.05
      vertex 20.4 -16 6.05
      vertex 20.4 1.25714 6.05
    endloop
  endfacet
  facet normal 0 0 -1
    outer loop
      vertex 35.5 -16 6.05
      vertex 30.6 -16 6.05
      vertex 30.6 -10.4 6.05
    endloop
  endfacet
  facet normal -1 0 0
    outer loop
      vertex 0 -5.14286 12.6
      vertex 0 -4 13.5
      vertex 0 -4 12.6
    endloop
  endfacet
  facet normal -1 -0 0
    outer loop
      vertex 0 -4 13.5
      vertex 0 -5.14286 12.6
      vertex 0 -5.14286 13.5
    endloop
  endfacet
  facet normal 0 0 1
    outer loop
      vertex 10.2 7.65714 13.5
      vertex 11.5 8 13.5
      vertex 10.5 8 13.5
    endloop
  endfacet
  facet normal 0 0 1
    outer loop
      vertex 11.5 8 13.5
      vertex 10.2 7.65714 13.5
      vertex 10.2 6.51429 13.5
    endloop
  endfacet
  facet normal -0 0 1
    outer loop
      vertex 13.5 8 13.5
      vertex 19.4 2.4 13.5
      vertex 14.5 8 13.5
    endloop
  endfacet
  facet normal 0 0 1
    outer loop
      vertex 19.4 2.4 13.5
      vertex 13.5 8 13.5
      vertex 19.4 1.25714 13.5
    endloop
  endfacet
  facet normal -0 0 1
    outer loop
      vertex 30.6 -11.5429 13.5
      vertex 35.5 -16 13.5
      vertex 30.6 -10.4 13.5
    endloop
  endfacet
  facet normal 0 0 1
    outer loop
      vertex 35.5 -16 13.5
      vertex 30.6 -11.5429 13.5
      vertex 34.5 -16 13.5
    endloop
  endfacet
  facet normal 0 0 1
    outer loop
      vertex 0 -4 13.5
      vertex 9.2 5.37143 13.5
      vertex 9.2 6.51429 13.5
    endloop
  endfacet
  facet normal 0 0 1
    outer loop
      vertex 9.2 5.37143 13.5
      vertex 0 -4 13.5
      vertex 0 -5.14286 13.5
    endloop
  endfacet
  facet normal -0 0 1
    outer loop
      vertex 20.4 0.114286 13.5
      vertex 29.6 -9.25714 13.5
      vertex 20.4 1.25714 13.5
    endloop
  endfacet
  facet normal 0 0 1
    outer loop
      vertex 29.6 -9.25714 13.5
      vertex 20.4 0.114286 13.5
      vertex 29.6 -10.4 13.5
    endloop
  endfacet
  facet normal 0 0 -1
    outer loop
      vertex 34.5 -16 12.6
      vertex 34.7 -15.0857 12.6
      vertex 34.7 -16 12.6
    endloop
  endfacet
  facet normal 0 0 -1
    outer loop
      vertex 25.5 -5.71429 12.6
      vertex 34.7 -15.0857 12.6
      vertex 34.5 -16 12.6
    endloop
  endfacet
  facet normal 0 0 -1
    outer loop
      vertex 34.7 -15.0857 12.6
      vertex 25.5 -5.71429 12.6
      vertex 25.5 -4.57143 12.6
    endloop
  endfacet
  facet normal 0 0 -1
    outer loop
      vertex 14.3 7.08572 12.6
      vertex 13.5 8 12.6
      vertex 14.3 8 12.6
    endloop
  endfacet
  facet normal 0 0 -1
    outer loop
      vertex 5.1 1.82857 12.6
      vertex 11.5 8 12.6
      vertex 5.1 0.685714 12.6
    endloop
  endfacet
  facet normal -0 0 -1
    outer loop
      vertex 11.5 8 12.6
      vertex 5.1 1.82857 12.6
      vertex 10.5 8 12.6
    endloop
  endfacet
  facet normal 0 0 -1
    outer loop
      vertex 0 -4 12.6
      vertex 4.1 -0.457144 12.6
      vertex 0 -5.14286 12.6
    endloop
  endfacet
  facet normal -0 0 -1
    outer loop
      vertex 4.1 -0.457144 12.6
      vertex 0 -4 12.6
      vertex 4.1 0.685714 12.6
    endloop
  endfacet
  facet normal 0 0 -1
    outer loop
      vertex 15.3 5.94286 12.6
      vertex 24.5 -3.42857 12.6
      vertex 24.5 -4.57143 12.6
    endloop
  endfacet
  facet normal 0 0 -1
    outer loop
      vertex 24.5 -3.42857 12.6
      vertex 15.3 5.94286 12.6
      vertex 15.3 7.08572 12.6
    endloop
  endfacet
  facet normal -1 0 0
    outer loop
      vertex 0 -5.14286 19.15
      vertex 0 -4 20.05
      vertex 0 -4 19.15
    endloop
  endfacet
  facet normal -1 -0 0
    outer loop
      vertex 0 -4 20.05
      vertex 0 -5.14286 19.15
      vertex 0 -5.14286 20.05
    endloop
  endfacet
  facet normal 0 0 1
    outer loop
      vertex 34.7 -15.0857 20.05
      vertex 34.5 -16 20.05
      vertex 34.7 -16 20.05
    endloop
  endfacet
  facet normal -0 0 1
    outer loop
      vertex 25.5 -5.71429 20.05
      vertex 34.7 -15.0857 20.05
      vertex 25.5 -4.57143 20.05
    endloop
  endfacet
  facet normal 0 0 1
    outer loop
      vertex 34.7 -15.0857 20.05
      vertex 25.5 -5.71429 20.05
      vertex 34.5 -16 20.05
    endloop
  endfacet
  facet normal 0 0 1
    outer loop
      vertex 14.3 8 20.05
      vertex 13.5 8 20.05
      vertex 14.3 7.08572 20.05
    endloop
  endfacet
  facet normal 0 0 1
    outer loop
      vertex 5.1 1.82857 20.05
      vertex 11.5 8 20.05
      vertex 10.5 8 20.05
    endloop
  endfacet
  facet normal 0 0 1
    outer loop
      vertex 11.5 8 20.05
      vertex 5.1 1.82857 20.05
      vertex 5.1 0.685714 20.05
    endloop
  endfacet
  facet normal 0 0 1
    outer loop
      vertex 0 -4 20.05
      vertex 4.1 -0.457144 20.05
      vertex 4.1 0.685714 20.05
    endloop
  endfacet
  facet normal 0 0 1
    outer loop
      vertex 4.1 -0.457144 20.05
      vertex 0 -4 20.05
      vertex 0 -5.14286 20.05
    endloop
  endfacet
  facet normal -0 0 1
    outer loop
      vertex 15.3 5.94286 20.05
      vertex 24.5 -3.42857 20.05
      vertex 15.3 7.08572 20.05
    endloop
  endfacet
  facet normal 0 0 1
    outer loop
      vertex 24.5 -3.42857 20.05
      vertex 15.3 5.94286 20.05
      vertex 24.5 -4.57143 20.05
    endloop
  endfacet
  facet normal 0 0 -1
    outer loop
      vertex 10.2 7.65714 19.15
      vertex 11.5 8 19.15
      vertex 10.2 6.51429 19.15
    endloop
  endfacet
  facet normal -0 0 -1
    outer loop
      vertex 11.5 8 19.15
      vertex 10.2 7.65714 19.15
      vertex 10.5 8 19.15
    endloop
  endfacet
  facet normal 0 0 -1
    outer loop
      vertex 13.5 8 19.15
      vertex 19.4 2.4 19.15
      vertex 19.4 1.25714 19.15
    endloop
  endfacet
  facet normal 0 0 -1
    outer loop
      vertex 19.4 2.4 19.15
      vertex 13.5 8 19.15
      vertex 14.5 8 19.15
    endloop
  endfacet
  facet normal 0 0 -1
    outer loop
      vertex 30.6 -11.5429 19.15
      vertex 35.5 -16 19.15
      vertex 34.5 -16 19.15
    endloop
  endfacet
  facet normal 0 0 -1
    outer loop
      vertex 35.5 -16 19.15
      vertex 30.6 -11.5429 19.15
      vertex 30.6 -10.4 19.15
    endloop
  endfacet
  facet normal 0 0 -1
    outer loop
      vertex 0 -4 19.15
      vertex 9.2 5.37143 19.15
      vertex 0 -5.14286 19.15
    endloop
  endfacet
  facet normal -0 0 -1
    outer loop
      vertex 9.2 5.37143 19.15
      vertex 0 -4 19.15
      vertex 9.2 6.51429 19.15
    endloop
  endfacet
  facet normal 0 0 -1
    outer loop
      vertex 20.4 0.114286 19.15
      vertex 29.6 -9.25714 19.15
      vertex 29.6 -10.4 19.15
    endloop
  endfacet
  facet normal 0 0 -1
    outer loop
      vertex 29.6 -9.25714 19.15
      vertex 20.4 0.114286 19.15
      vertex 20.4 1.25714 19.15
    endloop
  endfacet
  facet normal -1 0 0
    outer loop
      vertex 0 -5.14286 25.7
      vertex 0 -4 26.6
      vertex 0 -4 25.7
    endloop
  endfacet
  facet normal -1 -0 0
    outer loop
      vertex 0 -4 26.6
      vertex 0 -5.14286 25.7
      vertex 0 -5.14286 26.6
    endloop
  endfacet
  facet normal 0 0 1
    outer loop
      vertex 10.2 7.65714 26.6
      vertex 11.5 8 26.6
      vertex 10.5 8 26.6
    endloop
  endfacet
  facet normal 0 0 1
    outer loop
      vertex 11.5 8 26.6
      vertex 10.2 7.65714 26.6
      vertex 10.2 6.51429 26.6
    endloop
  endfacet
  facet normal -0 0 1
    outer loop
      vertex 13.5 8 26.6
      vertex 19.4 2.4 26.6
      vertex 14.5 8 26.6
    endloop
  endfacet
  facet normal 0 0 1
    outer loop
      vertex 19.4 2.4 26.6
      vertex 13.5 8 26.6
      vertex 19.4 1.25714 26.6
    endloop
  endfacet
  facet normal -0 0 1
    outer loop
      vertex 30.6 -11.5429 26.6
      vertex 35.5 -16 26.6
      vertex 30.6 -10.4 26.6
    endloop
  endfacet
  facet normal 0 0 1
    outer loop
      vertex 35.5 -16 26.6
      vertex 30.6 -11.5429 26.6
      vertex 34.5 -16 26.6
    endloop
  endfacet
  facet normal 0 0 1
    outer loop
      vertex 0 -4 26.6
      vertex 9.2 5.37143 26.6
      vertex 9.2 6.51429 26.6
    endloop
  endfacet
  facet normal 0 0 1
    outer loop
      vertex 9.2 5.37143 26.6
      vertex 0 -4 26.6
      vertex 0 -5.14286 26.6
    endloop
  endfacet
  facet normal -0 0 1
    outer loop
      vertex 20.4 0.114286 26.6
      vertex 29.6 -9.25714 26.6
      vertex 20.4 1.25714 26.6
    endloop
  endfacet
  facet normal 0 0 1
    outer loop
      vertex 29.6 -9.25714 26.6
      vertex 20.4 0.114286 26.6
      vertex 29.6 -10.4 26.6
    endloop
  endfacet
  facet normal 0 0 -1
    outer loop
      vertex 14.3 7.08572 25.7
      vertex 13.5 8 25.7
      vertex 14.3 8 25.7
    endloop
  endfacet
  facet normal 0 0 -1
    outer loop
      vertex 34.5 -16 25.7
      vertex 34.7 -15.0857 25.7
      vertex 34.7 -16 25.7
    endloop
  endfacet
  facet normal 0 0 -1
    outer loop
      vertex 25.5 -5.71429 25.7
      vertex 34.7 -15.0857 25.7
      vertex 34.5 -16 25.7
    endloop
  endfacet
  facet normal 0 0 -1
    outer loop
      vertex 34.7 -15.0857 25.7
      vertex 25.5 -5.71429 25.7
      vertex 25.5 -4.57143 25.7
    endloop
  endfacet
  facet normal 0 0 -1
    outer loop
      vertex 5.1 1.82857 25.7
      vertex 11.5 8 25.7
      vertex 5.1 0.685714 25.7
    endloop
  endfacet
  facet normal -0 0 -1
    outer loop
      vertex 11.5 8 25.7
      vertex 5.1 1.82857 25.7
      vertex 10.5 8 25.7
    endloop
  endfacet
  facet normal 0 0 -1
    outer loop
      vertex 0 -4 25.7
      vertex 4.1 -0.457144 25.7
      vertex 0 -5.14286 25.7
    endloop
  endfacet
  facet normal -0 0 -1
    outer loop
      vertex 4.1 -0.457144 25.7
      vertex 0 -4 25.7
      vertex 4.1 0.685714 25.7
    endloop
  endfacet
  facet normal 0 0 -1
    outer loop
      vertex 15.3 5.94286 25.7
      vertex 24.5 -3.42857 25.7
      vertex 24.5 -4.57143 25.7
    endloop
  endfacet
  facet normal 0 0 -1
    outer loop
      vertex 24.5 -3.42857 25.7
      vertex 15.3 5.94286 25.7
      vertex 15.3 7.08572 25.7
    endloop
  endfacet
  facet normal -1 0 0
    outer loop
      vertex 0 -5.14286 32.25
      vertex 0 -4 33.15
      vertex 0 -4 32.25
    endloop
  endfacet
  facet normal -1 -0 0
    outer loop
      vertex 0 -4 33.15
      vertex 0 -5.14286 32.25
      vertex 0 -5.14286 33.15
    endloop
  endfacet
  facet normal 0 0 1
    outer loop
      vertex 34.7 -15.0857 33.15
      vertex 34.5 -16 33.15
      vertex 34.7 -16 33.15
    endloop
  endfacet
  facet normal -0 0 1
    outer loop
      vertex 25.5 -5.71429 33.15
      vertex 34.7 -15.0857 33.15
      vertex 25.5 -4.57143 33.15
    endloop
  endfacet
  facet normal 0 0 1
    outer loop
      vertex 34.7 -15.0857 33.15
      vertex 25.5 -5.71429 33.15
      vertex 34.5 -16 33.15
    endloop
  endfacet
  facet normal -0 0 1
    outer loop
      vertex 7.35 4.4 33.15
      vertex 14.3 2.68571 33.15
      vertex 14.3 4.4 33.15
    endloop
  endfacet
  facet normal 0 0 1
    outer loop
      vertex 7.35 4.4 33.15
      vertex 6.85 2.68571 33.15
      vertex 14.3 2.68571 33.15
    endloop
  endfacet
  facet normal 0 0 1
    outer loop
      vertex 5.1 1.82857 33.15
      vertex 6.85 2.68571 33.15
      vertex 7.35 4.4 33.15
    endloop
  endfacet
  facet normal 0 0 1
    outer loop
      vertex 6.85 2.68571 33.15
      vertex 5.1 1.82857 33.15
      vertex 5.1 0.685714 33.15
    endloop
  endfacet
  facet normal 0 0 1
    outer loop
      vertex 24.5 -3.42857 33.15
      vertex 18.15 2.68571 33.15
      vertex 24.5 -4.57143 33.15
    endloop
  endfacet
  facet normal 0 0 1
    outer loop
      vertex 17.65 4.4 33.15
      vertex 18.15 2.68571 33.15
      vertex 24.5 -3.42857 33.15
    endloop
  endfacet
  facet normal 0 0 1
    outer loop
      vertex 15.3 2.68571 33.15
      vertex 17.65 4.4 33.15
      vertex 15.3 4.4 33.15
    endloop
  endfacet
  facet normal 0 0 1
    outer loop
      vertex 17.65 4.4 33.15
      vertex 15.3 2.68571 33.15
      vertex 18.15 2.68571 33.15
    endloop
  endfacet
  facet normal 0 0 1
    outer loop
      vertex 0 -4 33.15
      vertex 4.1 -0.457144 33.15
      vertex 4.1 0.685714 33.15
    endloop
  endfacet
  facet normal 0 0 1
    outer loop
      vertex 4.1 -0.457144 33.15
      vertex 0 -4 33.15
      vertex 0 -5.14286 33.15
    endloop
  endfacet
  facet normal 0 0 -1
    outer loop
      vertex 30.6 -11.5429 32.25
      vertex 35.5 -16 32.25
      vertex 34.5 -16 32.25
    endloop
  endfacet
  facet normal 0 0 -1
    outer loop
      vertex 35.5 -16 32.25
      vertex 30.6 -11.5429 32.25
      vertex 30.6 -10.4 32.25
    endloop
  endfacet
  facet normal 0 0 -1
    outer loop
      vertex 9.2 4.22857 32.25
      vertex 8.7 5.94286 32.25
      vertex 9.2 5.94286 32.25
    endloop
  endfacet
  facet normal 0 0 -1
    outer loop
      vertex 8.2 4.22857 32.25
      vertex 8.7 5.94286 32.25
      vertex 9.2 4.22857 32.25
    endloop
  endfacet
  facet normal 0 0 -1
    outer loop
      vertex 0 -4 32.25
      vertex 8.2 4.22857 32.25
      vertex 0 -5.14286 32.25
    endloop
  endfacet
  facet normal -0 0 -1
    outer loop
      vertex 8.2 4.22857 32.25
      vertex 0 -4 32.25
      vertex 8.7 5.94286 32.25
    endloop
  endfacet
  facet normal 0 0 -1
    outer loop
      vertex 16.8 4.22857 32.25
      vertex 19.4 2.4 32.25
      vertex 19.4 1.25714 32.25
    endloop
  endfacet
  facet normal 0 0 -1
    outer loop
      vertex 16.8 4.22857 32.25
      vertex 16.3 5.94286 32.25
      vertex 19.4 2.4 32.25
    endloop
  endfacet
  facet normal 0 0 -1
    outer loop
      vertex 10.2 4.22857 32.25
      vertex 16.3 5.94286 32.25
      vertex 16.8 4.22857 32.25
    endloop
  endfacet
  facet normal -0 0 -1
    outer loop
      vertex 16.3 5.94286 32.25
      vertex 10.2 4.22857 32.25
      vertex 10.2 5.94286 32.25
    endloop
  endfacet
  facet normal 0 0 -1
    outer loop
      vertex 20.4 0.114286 32.25
      vertex 29.6 -9.25714 32.25
      vertex 29.6 -10.4 32.25
    endloop
  endfacet
  facet normal 0 0 -1
    outer loop
      vertex 29.6 -9.25714 32.25
      vertex 20.4 0.114286 32.25
      vertex 20.4 1.25714 32.25
    endloop
  endfacet
  facet normal 0 -1 0
    outer loop
      vertex -9.5 -17 6.05
      vertex 34.5 -17 44.05
      vertex -9.5 -17 44.05
    endloop
  endfacet
  facet normal 0 -1 -0
    outer loop
      vertex 34.5 -17 44.05
      vertex -9.5 -17 6.05
      vertex 34.5 -17 6.05
    endloop
  endfacet
  facet normal -0 0 1
    outer loop
      vertex -9.5 -16 44.05
      vertex 34.5 -17 44.05
      vertex 34.5 -16 44.05
    endloop
  endfacet
  facet normal 0 0 1
    outer loop
      vertex 34.5 -17 44.05
      vertex -9.5 -16 44.05
      vertex -9.5 -17 44.05
    endloop
  endfacet
  facet normal 0 0 -1
    outer loop
      vertex 11.5 8 6.05
      vertex 13.5 14 6.05
      vertex 13.5 8 6.05
    endloop
  endfacet
  facet normal -0 0 -1
    outer loop
      vertex 13.5 14 6.05
      vertex 11.5 8 6.05
      vertex 11.5 14 6.05
    endloop
  endfacet
  facet normal 0 0 -1
    outer loop
      vertex 34.5 -17 6.05
      vertex 0 -16 6.05
      vertex 34.5 -16 6.05
    endloop
  endfacet
  facet normal 0 0 -1
    outer loop
      vertex -9.5 -17 6.05
      vertex 0 -16 6.05
      vertex 34.5 -17 6.05
    endloop
  endfacet
  facet normal 0 0 -1
    outer loop
      vertex -9.5 -16 6.05
      vertex 0 -16 6.05
      vertex -9.5 -17 6.05
    endloop
  endfacet
  facet normal 0 0 -1
    outer loop
      vertex 0 -16 6.05
      vertex -9.5 -16 6.05
      vertex 0 -5.14286 6.05
    endloop
  endfacet
  facet normal 1 -0 0
    outer loop
      vertex 34.5 -17 44.05
      vertex 34.5 -16 33.15
      vertex 34.5 -16 44.05
    endloop
  endfacet
  facet normal 1 0 0
    outer loop
      vertex 34.5 -16 33.15
      vertex 34.5 -17 44.05
      vertex 34.5 -16 32.25
    endloop
  endfacet
  facet normal 1 0 0
    outer loop
      vertex 34.5 -16 32.25
      vertex 34.5 -17 44.05
      vertex 34.5 -16 26.6
    endloop
  endfacet
  facet normal 1 0 0
    outer loop
      vertex 34.5 -16 26.6
      vertex 34.5 -17 44.05
      vertex 34.5 -16 25.7
    endloop
  endfacet
  facet normal 1 0 0
    outer loop
      vertex 34.5 -17 6.05
      vertex 34.5 -16 25.7
      vertex 34.5 -17 44.05
    endloop
  endfacet
  facet normal 1 0 0
    outer loop
      vertex 34.5 -16 25.7
      vertex 34.5 -17 6.05
      vertex 34.5 -16 20.05
    endloop
  endfacet
  facet normal 1 0 0
    outer loop
      vertex 34.5 -16 20.05
      vertex 34.5 -17 6.05
      vertex 34.5 -16 19.15
    endloop
  endfacet
  facet normal 1 0 0
    outer loop
      vertex 34.5 -16 19.15
      vertex 34.5 -17 6.05
      vertex 34.5 -16 13.5
    endloop
  endfacet
  facet normal 1 0 0
    outer loop
      vertex 34.5 -16 13.5
      vertex 34.5 -17 6.05
      vertex 34.5 -16 12.6
    endloop
  endfacet
  facet normal 1 0 0
    outer loop
      vertex 34.5 -16 12.6
      vertex 34.5 -17 6.05
      vertex 34.5 -16 6.95
    endloop
  endfacet
  facet normal 1 0 0
    outer loop
      vertex 34.5 -16 6.95
      vertex 34.5 -17 6.05
      vertex 34.5 -16 6.05
    endloop
  endfacet
  facet normal -6.17579e-08 0.503871 0.863779
    outer loop
      vertex 4.1 -0.457144 34.9833
      vertex -9.5 -16 44.05
      vertex 4.1 -7.85714 39.3
    endloop
  endfacet
  facet normal 0 0.50387 0.86378
    outer loop
      vertex 5.1 0.685714 34.3167
      vertex 14.3 2.68571 33.15
      vertex 6.85 2.68571 33.15
    endloop
  endfacet
  facet normal -1.08178e-07 0.503871 0.863779
    outer loop
      vertex 15.3 -7.85714 39.3
      vertex 24.5 -4.57143 37.3833
      vertex 18.15 2.68571 33.15
    endloop
  endfacet
  facet normal 3.95102e-07 0.503871 0.863779
    outer loop
      vertex 25.5 -7.85714 39.3
      vertex 34.5 -16 44.05
      vertex 25.5 -5.71429 38.05
    endloop
  endfacet
  facet normal -0 0.503871 0.863779
    outer loop
      vertex 24.5 -7.85714 39.3
      vertex 34.5 -16 44.05
      vertex 25.5 -7.85714 39.3
    endloop
  endfacet
  facet normal 0 0.503871 0.863779
    outer loop
      vertex 15.3 -7.85714 39.3
      vertex 18.15 2.68571 33.15
      vertex 15.3 2.68571 33.15
    endloop
  endfacet
  facet normal 0 0.503871 0.863779
    outer loop
      vertex 24.5 -4.57143 37.3833
      vertex 15.3 -7.85714 39.3
      vertex 24.5 -7.85714 39.3
    endloop
  endfacet
  facet normal -0 0.503871 0.863779
    outer loop
      vertex 15.3 -7.85714 39.3
      vertex 34.5 -16 44.05
      vertex 24.5 -7.85714 39.3
    endloop
  endfacet
  facet normal -0 0.503871 0.863779
    outer loop
      vertex 14.3 -7.85714 39.3
      vertex 34.5 -16 44.05
      vertex 15.3 -7.85714 39.3
    endloop
  endfacet
  facet normal -2.76973e-07 0.503871 0.863779
    outer loop
      vertex 14.3 2.68571 33.15
      vertex 5.1 0.685714 34.3167
      vertex 14.3 -7.85714 39.3
    endloop
  endfacet
  facet normal -0 0.503871 0.863779
    outer loop
      vertex 5.1 -7.85714 39.3
      vertex 14.3 -7.85714 39.3
      vertex 5.1 0.685714 34.3167
    endloop
  endfacet
  facet normal 0 0.503871 0.863779
    outer loop
      vertex -9.5 -16 44.05
      vertex 14.3 -7.85714 39.3
      vertex 5.1 -7.85714 39.3
    endloop
  endfacet
  facet normal 0 0.503871 0.863779
    outer loop
      vertex -9.5 -16 44.05
      vertex 5.1 -7.85714 39.3
      vertex 4.1 -7.85714 39.3
    endloop
  endfacet
  facet normal 0 0.503871 0.863779
    outer loop
      vertex 14.3 -7.85714 39.3
      vertex -9.5 -16 44.05
      vertex 34.5 -16 44.05
    endloop
  endfacet
  facet normal 0 0.503871 0.863779
    outer loop
      vertex 10.2 6.51429 30.9167
      vertex 13.5 8 30.05
      vertex 11.5 8 30.05
    endloop
  endfacet
  facet normal -1.11291e-07 0.503871 0.863779
    outer loop
      vertex 13.5 8 30.05
      vertex 10.2 6.51429 30.9167
      vertex 10.2 4.22857 32.25
    endloop
  endfacet
  facet normal 0 0.503871 0.863779
    outer loop
      vertex 13.5 8 30.05
      vertex 10.2 4.22857 32.25
      vertex 16.8 4.22857 32.25
    endloop
  endfacet
  facet normal 0 0.503871 0.863779
    outer loop
      vertex 9.2 5.37143 31.5833
      vertex 8.2 4.22857 32.25
      vertex 9.2 4.22857 32.25
    endloop
  endfacet
  facet normal -0.752577 0.658505 0
    outer loop
      vertex -9.5 -16 6.05
      vertex 0 -5.14286 6.95
      vertex 0 -5.14286 6.05
    endloop
  endfacet
  facet normal -0.752577 0.658505 0
    outer loop
      vertex 0 -5.14286 6.95
      vertex -9.5 -16 6.05
      vertex 0 -5.14286 12.6
    endloop
  endfacet
  facet normal -0.752577 0.658505 0
    outer loop
      vertex 0 -5.14286 12.6
      vertex -9.5 -16 6.05
      vertex 0 -5.14286 13.5
    endloop
  endfacet
  facet normal -0.752577 0.658505 0
    outer loop
      vertex 0 -5.14286 13.5
      vertex -9.5 -16 6.05
      vertex 0 -5.14286 19.15
    endloop
  endfacet
  facet normal -0.752577 0.658505 0
    outer loop
      vertex 0 -5.14286 19.15
      vertex -9.5 -16 6.05
      vertex 0 -5.14286 20.05
    endloop
  endfacet
  facet normal -0.752577 0.658505 0
    outer loop
      vertex 0 -5.14286 20.05
      vertex -9.5 -16 6.05
      vertex 0 -5.14286 25.7
    endloop
  endfacet
  facet normal -0.752577 0.658505 0
    outer loop
      vertex -9.5 -16 44.05
      vertex 0 -5.14286 25.7
      vertex -9.5 -16 6.05
    endloop
  endfacet
  facet normal -0.752577 0.658505 0
    outer loop
      vertex 0 -5.14286 25.7
      vertex -9.5 -16 44.05
      vertex 0 -5.14286 26.6
    endloop
  endfacet
  facet normal -0.752577 0.658505 0
    outer loop
      vertex 0 -5.14286 26.6
      vertex -9.5 -16 44.05
      vertex 0 -5.14286 32.25
    endloop
  endfacet
  facet normal -0.752577 0.658505 0
    outer loop
      vertex 0 -5.14286 6.95
      vertex 4.1 -0.457144 12.6
      vertex 4.1 -0.457144 6.95
    endloop
  endfacet
  facet normal -0.752577 0.658505 0
    outer loop
      vertex 4.1 -0.457144 12.6
      vertex 0 -5.14286 6.95
      vertex 0 -5.14286 12.6
    endloop
  endfacet
  facet normal -0.752577 0.658505 0
    outer loop
      vertex 0 -5.14286 13.5
      vertex 9.2 5.37143 19.15
      vertex 9.2 5.37143 13.5
    endloop
  endfacet
  facet normal -0.752577 0.658505 0
    outer loop
      vertex 9.2 5.37143 19.15
      vertex 0 -5.14286 13.5
      vertex 0 -5.14286 19.15
    endloop
  endfacet
  facet normal -0.752577 0.658505 0
    outer loop
      vertex 0 -5.14286 20.05
      vertex 4.1 -0.457144 25.7
      vertex 4.1 -0.457144 20.05
    endloop
  endfacet
  facet normal -0.752577 0.658505 0
    outer loop
      vertex 4.1 -0.457144 25.7
      vertex 0 -5.14286 20.05
      vertex 0 -5.14286 25.7
    endloop
  endfacet
  facet normal -0.752577 0.658505 0
    outer loop
      vertex 9.2 5.37143 26.6
      vertex 8.2 4.22857 32.25
      vertex 9.2 5.37143 31.5833
    endloop
  endfacet
  facet normal -0.752577 0.658505 -8.80227e-09
    outer loop
      vertex 0 -5.14286 26.6
      vertex 8.2 4.22857 32.25
      vertex 9.2 5.37143 26.6
    endloop
  endfacet
  facet normal -0.752577 0.658505 0
    outer loop
      vertex 8.2 4.22857 32.25
      vertex 0 -5.14286 26.6
      vertex 0 -5.14286 32.25
    endloop
  endfacet
  facet normal -0.752577 0.658505 0
    outer loop
      vertex 0 -5.14286 33.15
      vertex 4.1 -0.457144 34.9833
      vertex 4.1 -0.457144 33.15
    endloop
  endfacet
  facet normal -0.752577 0.658505 1.02516e-08
    outer loop
      vertex 0 -5.14286 33.15
      vertex -9.5 -16 44.05
      vertex 4.1 -0.457144 34.9833
    endloop
  endfacet
  facet normal -0.752577 0.658505 0
    outer loop
      vertex 0 -5.14286 32.25
      vertex -9.5 -16 44.05
      vertex 0 -5.14286 33.15
    endloop
  endfacet
  facet normal -0.752577 0.658505 0
    outer loop
      vertex 10.2 6.51429 26.6
      vertex 11.5 8 30.05
      vertex 11.5 8 26.6
    endloop
  endfacet
  facet normal -0.752577 0.658505 0
    outer loop
      vertex 11.5 8 30.05
      vertex 10.2 6.51429 26.6
      vertex 10.2 6.51429 30.9167
    endloop
  endfacet
  facet normal -0.752577 0.658505 0
    outer loop
      vertex 5.1 0.685714 6.95
      vertex 11.5 8 12.6
      vertex 11.5 8 6.95
    endloop
  endfacet
  facet normal -0.752577 0.658505 0
    outer loop
      vertex 11.5 8 12.6
      vertex 5.1 0.685714 6.95
      vertex 5.1 0.685714 12.6
    endloop
  endfacet
  facet normal -0.752577 0.658505 0
    outer loop
      vertex 5.1 0.685714 20.05
      vertex 11.5 8 25.7
      vertex 11.5 8 20.05
    endloop
  endfacet
  facet normal -0.752577 0.658505 0
    outer loop
      vertex 11.5 8 25.7
      vertex 5.1 0.685714 20.05
      vertex 5.1 0.685714 25.7
    endloop
  endfacet
  facet normal -0.752577 0.658505 0
    outer loop
      vertex 10.2 6.51429 13.5
      vertex 11.5 8 19.15
      vertex 11.5 8 13.5
    endloop
  endfacet
  facet normal -0.752577 0.658505 0
    outer loop
      vertex 11.5 8 19.15
      vertex 10.2 6.51429 13.5
      vertex 10.2 6.51429 19.15
    endloop
  endfacet
  facet normal -0.752577 0.658505 0
    outer loop
      vertex 6.85 2.68571 33.15
      vertex 5.1 0.685714 33.15
      vertex 5.1 0.685714 34.3167
    endloop
  endfacet
  facet normal -1 0 0
    outer loop
      vertex -9.5 -17 6.05
      vertex -9.5 -16 44.05
      vertex -9.5 -16 6.05
    endloop
  endfacet
  facet normal -1 -0 0
    outer loop
      vertex -9.5 -16 44.05
      vertex -9.5 -17 6.05
      vertex -9.5 -17 44.05
    endloop
  endfacet
  facet normal 0.752577 0.658505 -0
    outer loop
      vertex 34.5 -16 33.15
      vertex 25.5 -5.71429 38.05
      vertex 34.5 -16 44.05
    endloop
  endfacet
  facet normal 0.752577 0.658505 0
    outer loop
      vertex 25.5 -5.71429 38.05
      vertex 34.5 -16 33.15
      vertex 25.5 -5.71429 33.15
    endloop
  endfacet
  facet normal 0.752577 0.658505 1.3817e-07
    outer loop
      vertex 19.4 1.25714 26.6
      vertex 13.5 8 30.05
      vertex 16.8 4.22857 32.25
    endloop
  endfacet
  facet normal 0.752577 0.658505 -0
    outer loop
      vertex 19.4 1.25714 26.6
      vertex 16.8 4.22857 32.25
      vertex 19.4 1.25714 32.25
    endloop
  endfacet
  facet normal 0.752577 0.658505 0
    outer loop
      vertex 13.5 8 30.05
      vertex 19.4 1.25714 26.6
      vertex 13.5 8 26.6
    endloop
  endfacet
  facet normal 0.752577 0.658505 0
    outer loop
      vertex 14.3 7.08572 12.6
      vertex 13.5 8 6.95
      vertex 13.5 8 12.6
    endloop
  endfacet
  facet normal 0.752577 0.658505 0
    outer loop
      vertex 13.5 8 6.95
      vertex 14.3 7.08572 12.6
      vertex 14.3 7.08572 6.95
    endloop
  endfacet
  facet normal 0.752577 0.658505 0
    outer loop
      vertex 34.5 -16 12.6
      vertex 25.5 -5.71429 6.95
      vertex 25.5 -5.71429 12.6
    endloop
  endfacet
  facet normal 0.752577 0.658505 0
    outer loop
      vertex 25.5 -5.71429 6.95
      vertex 34.5 -16 12.6
      vertex 34.5 -16 6.95
    endloop
  endfacet
  facet normal 0.752577 0.658505 0
    outer loop
      vertex 14.3 7.08572 25.7
      vertex 13.5 8 20.05
      vertex 13.5 8 25.7
    endloop
  endfacet
  facet normal 0.752577 0.658505 0
    outer loop
      vertex 13.5 8 20.05
      vertex 14.3 7.08572 25.7
      vertex 14.3 7.08572 20.05
    endloop
  endfacet
  facet normal 0.752577 0.658505 0
    outer loop
      vertex 19.4 1.25714 19.15
      vertex 13.5 8 13.5
      vertex 13.5 8 19.15
    endloop
  endfacet
  facet normal 0.752577 0.658505 0
    outer loop
      vertex 13.5 8 13.5
      vertex 19.4 1.25714 19.15
      vertex 19.4 1.25714 13.5
    endloop
  endfacet
  facet normal 0.752577 0.658505 0
    outer loop
      vertex 34.5 -16 25.7
      vertex 25.5 -5.71429 20.05
      vertex 25.5 -5.71429 25.7
    endloop
  endfacet
  facet normal 0.752577 0.658505 0
    outer loop
      vertex 25.5 -5.71429 20.05
      vertex 34.5 -16 25.7
      vertex 34.5 -16 20.05
    endloop
  endfacet
  facet normal 0.752577 0.658505 0
    outer loop
      vertex 34.5 -16 19.15
      vertex 30.6 -11.5429 13.5
      vertex 30.6 -11.5429 19.15
    endloop
  endfacet
  facet normal 0.752577 0.658505 0
    outer loop
      vertex 30.6 -11.5429 13.5
      vertex 34.5 -16 19.15
      vertex 34.5 -16 13.5
    endloop
  endfacet
  facet normal 0.752577 0.658505 0
    outer loop
      vertex 34.5 -16 32.25
      vertex 30.6 -11.5429 26.6
      vertex 30.6 -11.5429 32.25
    endloop
  endfacet
  facet normal 0.752577 0.658505 0
    outer loop
      vertex 30.6 -11.5429 26.6
      vertex 34.5 -16 32.25
      vertex 34.5 -16 26.6
    endloop
  endfacet
  facet normal 0.752577 0.658505 0
    outer loop
      vertex 24.5 -4.57143 12.6
      vertex 15.3 5.94286 6.95
      vertex 15.3 5.94286 12.6
    endloop
  endfacet
  facet normal 0.752577 0.658505 0
    outer loop
      vertex 15.3 5.94286 6.95
      vertex 24.5 -4.57143 12.6
      vertex 24.5 -4.57143 6.95
    endloop
  endfacet
  facet normal 0.752577 0.658505 0
    outer loop
      vertex 24.5 -4.57143 25.7
      vertex 15.3 5.94286 20.05
      vertex 15.3 5.94286 25.7
    endloop
  endfacet
  facet normal 0.752577 0.658505 0
    outer loop
      vertex 15.3 5.94286 20.05
      vertex 24.5 -4.57143 25.7
      vertex 24.5 -4.57143 20.05
    endloop
  endfacet
  facet normal 0.752577 0.658505 0
    outer loop
      vertex 29.6 -10.4 19.15
      vertex 20.4 0.114286 13.5
      vertex 20.4 0.114286 19.15
    endloop
  endfacet
  facet normal 0.752577 0.658505 0
    outer loop
      vertex 20.4 0.114286 13.5
      vertex 29.6 -10.4 19.15
      vertex 29.6 -10.4 13.5
    endloop
  endfacet
  facet normal 0.752577 0.658505 0
    outer loop
      vertex 29.6 -10.4 32.25
      vertex 20.4 0.114286 26.6
      vertex 20.4 0.114286 32.25
    endloop
  endfacet
  facet normal 0.752577 0.658505 0
    outer loop
      vertex 20.4 0.114286 26.6
      vertex 29.6 -10.4 32.25
      vertex 29.6 -10.4 26.6
    endloop
  endfacet
  facet normal 0.752577 0.658505 -0
    outer loop
      vertex 24.5 -4.57143 33.15
      vertex 18.15 2.68571 33.15
      vertex 24.5 -4.57143 37.3833
    endloop
  endfacet
  facet normal -1 0 0
    outer loop
      vertex 11.5 8 6.95
      vertex 11.5 14 6.05
      vertex 11.5 8 6.05
    endloop
  endfacet
  facet normal -1 0 0
    outer loop
      vertex 11.5 8 12.6
      vertex 11.5 14 6.05
      vertex 11.5 8 6.95
    endloop
  endfacet
  facet normal -1 0 0
    outer loop
      vertex 11.5 8 13.5
      vertex 11.5 14 6.05
      vertex 11.5 8 12.6
    endloop
  endfacet
  facet normal -1 0 0
    outer loop
      vertex 11.5 8 19.15
      vertex 11.5 14 6.05
      vertex 11.5 8 13.5
    endloop
  endfacet
  facet normal -1 0 0
    outer loop
      vertex 11.5 14 6.05
      vertex 11.5 8 19.15
      vertex 11.5 14 30.05
    endloop
  endfacet
  facet normal -1 0 0
    outer loop
      vertex 11.5 8 20.05
      vertex 11.5 14 30.05
      vertex 11.5 8 19.15
    endloop
  endfacet
  facet normal -1 0 0
    outer loop
      vertex 11.5 8 25.7
      vertex 11.5 14 30.05
      vertex 11.5 8 20.05
    endloop
  endfacet
  facet normal -1 0 0
    outer loop
      vertex 11.5 8 26.6
      vertex 11.5 14 30.05
      vertex 11.5 8 25.7
    endloop
  endfacet
  facet normal -1 -0 0
    outer loop
      vertex 11.5 14 30.05
      vertex 11.5 8 26.6
      vertex 11.5 8 30.05
    endloop
  endfacet
  facet normal -0 0 1
    outer loop
      vertex 11.5 14 30.05
      vertex 13.5 8 30.05
      vertex 13.5 14 30.05
    endloop
  endfacet
  facet normal 0 0 1
    outer loop
      vertex 13.5 8 30.05
      vertex 11.5 14 30.05
      vertex 11.5 8 30.05
    endloop
  endfacet
  facet normal 1 0 0
    outer loop
      vertex 13.5 8 26.6
      vertex 13.5 14 30.05
      vertex 13.5 8 30.05
    endloop
  endfacet
  facet normal 1 0 0
    outer loop
      vertex 13.5 8 25.7
      vertex 13.5 14 30.05
      vertex 13.5 8 26.6
    endloop
  endfacet
  facet normal 1 0 0
    outer loop
      vertex 13.5 8 20.05
      vertex 13.5 14 30.05
      vertex 13.5 8 25.7
    endloop
  endfacet
  facet normal 1 0 0
    outer loop
      vertex 13.5 8 19.15
      vertex 13.5 14 30.05
      vertex 13.5 8 20.05
    endloop
  endfacet
  facet normal 1 0 0
    outer loop
      vertex 13.5 14 30.05
      vertex 13.5 8 19.15
      vertex 13.5 14 6.05
    endloop
  endfacet
  facet normal 1 -0 0
    outer loop
      vertex 13.5 8 13.5
      vertex 13.5 14 6.05
      vertex 13.5 8 19.15
    endloop
  endfacet
  facet normal 1 -0 0
    outer loop
      vertex 13.5 8 12.6
      vertex 13.5 14 6.05
      vertex 13.5 8 13.5
    endloop
  endfacet
  facet normal 1 -0 0
    outer loop
      vertex 13.5 8 6.95
      vertex 13.5 14 6.05
      vertex 13.5 8 12.6
    endloop
  endfacet
  facet normal 1 0 0
    outer loop
      vertex 13.5 14 6.05
      vertex 13.5 8 6.95
      vertex 13.5 8 6.05
    endloop
  endfacet
  facet normal 0 1 -0
    outer loop
      vertex 13.5 14 6.05
      vertex 11.5 14 30.05
      vertex 13.5 14 30.05
    endloop
  endfacet
  facet normal 0 1 0
    outer loop
      vertex 11.5 14 30.05
      vertex 13.5 14 6.05
      vertex 11.5 14 6.05
    endloop
  endfacet
  facet normal 0 0 -1
    outer loop
      vertex 9.2 6.51429 5.05
      vertex 10.2 -16 5.05
      vertex 9.2 -16 5.05
    endloop
  endfacet
  facet normal 0 0 -1
    outer loop
      vertex 10.2 -16 5.05
      vertex 9.2 6.51429 5.05
      vertex 10.2 7.65714 5.05
    endloop
  endfacet
  facet normal 0 0 -1
    outer loop
      vertex 19.4 -16 5.05
      vertex 20.4 1.25714 5.05
      vertex 20.4 -16 5.05
    endloop
  endfacet
  facet normal -0 0 -1
    outer loop
      vertex 20.4 1.25714 5.05
      vertex 19.4 -16 5.05
      vertex 19.4 2.4 5.05
    endloop
  endfacet
  facet normal 0 0 -1
    outer loop
      vertex 29.6 -16 5.05
      vertex 30.6 -10.4 5.05
      vertex 30.6 -16 5.05
    endloop
  endfacet
  facet normal -0 0 -1
    outer loop
      vertex 30.6 -10.4 5.05
      vertex 29.6 -16 5.05
      vertex 29.6 -9.25714 5.05
    endloop
  endfacet
  facet normal -1.48735e-07 0.503871 0.863779
    outer loop
      vertex 10.2 7.65714 31.25
      vertex 9.2 6.51429 31.9167
      vertex 10.2 5.94286 32.25
    endloop
  endfacet
  facet normal 0 0.503872 0.863778
    outer loop
      vertex 16.3 5.94286 32.25
      vertex 15.3 4.4 33.15
      vertex 17.65 4.4 33.15
    endloop
  endfacet
  facet normal 0 0.503871 0.863779
    outer loop
      vertex 15.3 4.4 33.15
      vertex 14.3 4.4 33.15
      vertex 15.3 -6.14286 39.3
    endloop
  endfacet
  facet normal 0 0.503872 0.863778
    outer loop
      vertex 16.3 5.94286 32.25
      vertex 14.3 4.4 33.15
      vertex 15.3 4.4 33.15
    endloop
  endfacet
  facet normal -0 0.503872 0.863778
    outer loop
      vertex 10.2 5.94286 32.25
      vertex 14.3 4.4 33.15
      vertex 16.3 5.94286 32.25
    endloop
  endfacet
  facet normal -0 0.503871 0.863779
    outer loop
      vertex 9.2 5.94286 32.25
      vertex 10.2 5.94286 32.25
      vertex 9.2 6.51429 31.9167
    endloop
  endfacet
  facet normal 0 0.503872 0.863778
    outer loop
      vertex 7.35 4.4 33.15
      vertex 10.2 5.94286 32.25
      vertex 9.2 5.94286 32.25
    endloop
  endfacet
  facet normal 0 0.503872 0.863778
    outer loop
      vertex 7.35 4.4 33.15
      vertex 9.2 5.94286 32.25
      vertex 8.7 5.94286 32.25
    endloop
  endfacet
  facet normal 0 0.503872 0.863778
    outer loop
      vertex 10.2 5.94286 32.25
      vertex 7.35 4.4 33.15
      vertex 14.3 4.4 33.15
    endloop
  endfacet
  facet normal 0 0.503871 0.863779
    outer loop
      vertex 15.3 -6.14286 39.3
      vertex 14.3 4.4 33.15
      vertex 14.3 -6.14286 39.3
    endloop
  endfacet
  facet normal -1.93479e-06 0.503871 0.863779
    outer loop
      vertex 4.1 0.685714 35.3167
      vertex 5.1 -6.14286 39.3
      vertex 5.1 1.82857 34.65
    endloop
  endfacet
  facet normal 0 0.503871 0.863779
    outer loop
      vertex 5.1 -6.14286 39.3
      vertex 4.1 0.685714 35.3167
      vertex 4.1 -6.14286 39.3
    endloop
  endfacet
  facet normal 1.84173e-06 0.503871 0.863779
    outer loop
      vertex 24.5 -6.14286 39.3
      vertex 25.5 -4.57143 38.3833
      vertex 24.5 -3.42857 37.7167
    endloop
  endfacet
  facet normal 0 0.503872 0.863779
    outer loop
      vertex 25.5 -4.57143 38.3833
      vertex 24.5 -6.14286 39.3
      vertex 25.5 -6.14286 39.3
    endloop
  endfacet
  facet normal -0.752577 0.658505 0
    outer loop
      vertex 10.5 8 12.6
      vertex 10.2 7.65714 13.5
      vertex 10.5 8 13.5
    endloop
  endfacet
  facet normal -0.752577 0.658505 0
    outer loop
      vertex 10.2 7.65714 13.5
      vertex 9.2 6.51429 13.5
      vertex 10.2 7.65714 19.15
    endloop
  endfacet
  facet normal -0.752577 0.658505 1.49524e-08
    outer loop
      vertex 10.5 8 12.6
      vertex 9.2 6.51429 13.5
      vertex 10.2 7.65714 13.5
    endloop
  endfacet
  facet normal -0.752577 0.658505 -5.88403e-08
    outer loop
      vertex 5.1 1.82857 12.6
      vertex 9.2 6.51429 13.5
      vertex 10.5 8 12.6
    endloop
  endfacet
  facet normal -0.752577 0.658505 0
    outer loop
      vertex 4.1 0.685714 12.6
      vertex 5.1 1.82857 12.6
      vertex 4.1 0.685714 6.95
    endloop
  endfacet
  facet normal -0.752577 0.658505 -2.91571e-07
    outer loop
      vertex 4.1 0.685714 12.6
      vertex 9.2 6.51429 13.5
      vertex 5.1 1.82857 12.6
    endloop
  endfacet
  facet normal -0.752577 0.658505 0
    outer loop
      vertex 0 -4 13.5
      vertex 4.1 0.685714 12.6
      vertex 0 -4 12.6
    endloop
  endfacet
  facet normal -0.752577 0.658505 -9.75153e-09
    outer loop
      vertex 4.1 0.685714 12.6
      vertex 0 -4 13.5
      vertex 9.2 6.51429 13.5
    endloop
  endfacet
  facet normal -0.752577 0.658505 0
    outer loop
      vertex 10.2 7.65714 5.05
      vertex 9.2 6.51429 5.05
      vertex 10.2 7.65714 6.05
    endloop
  endfacet
  facet normal -0.752577 0.658505 0
    outer loop
      vertex 10.2 7.65714 6.05
      vertex 10.5 8 6.95
      vertex 10.5 8 6.05
    endloop
  endfacet
  facet normal -0.752577 0.658505 0
    outer loop
      vertex 9.2 6.51429 6.05
      vertex 10.2 7.65714 6.05
      vertex 9.2 6.51429 5.05
    endloop
  endfacet
  facet normal -0.752577 0.658505 -1.49524e-08
    outer loop
      vertex 10.2 7.65714 6.05
      vertex 9.2 6.51429 6.05
      vertex 10.5 8 6.95
    endloop
  endfacet
  facet normal -0.752577 0.658505 5.88403e-08
    outer loop
      vertex 9.2 6.51429 6.05
      vertex 5.1 1.82857 6.95
      vertex 10.5 8 6.95
    endloop
  endfacet
  facet normal -0.752577 0.658505 0
    outer loop
      vertex 5.1 1.82857 6.95
      vertex 4.1 0.685714 6.95
      vertex 5.1 1.82857 12.6
    endloop
  endfacet
  facet normal -0.752577 0.658505 2.91571e-07
    outer loop
      vertex 9.2 6.51429 6.05
      vertex 4.1 0.685714 6.95
      vertex 5.1 1.82857 6.95
    endloop
  endfacet
  facet normal -0.752577 0.658505 9.75153e-09
    outer loop
      vertex 0 -4 6.05
      vertex 4.1 0.685714 6.95
      vertex 9.2 6.51429 6.05
    endloop
  endfacet
  facet normal -0.752577 0.658505 0
    outer loop
      vertex 4.1 0.685714 6.95
      vertex 0 -4 6.05
      vertex 0 -4 6.95
    endloop
  endfacet
  facet normal -0.752577 0.658505 0
    outer loop
      vertex 10.2 7.65714 19.15
      vertex 10.5 8 20.05
      vertex 10.5 8 19.15
    endloop
  endfacet
  facet normal -0.752577 0.658505 0
    outer loop
      vertex 9.2 6.51429 19.15
      vertex 10.2 7.65714 19.15
      vertex 9.2 6.51429 13.5
    endloop
  endfacet
  facet normal -0.752577 0.658505 -1.49524e-08
    outer loop
      vertex 9.2 6.51429 19.15
      vertex 10.5 8 20.05
      vertex 10.2 7.65714 19.15
    endloop
  endfacet
  facet normal -0.752577 0.658505 5.88403e-08
    outer loop
      vertex 9.2 6.51429 19.15
      vertex 5.1 1.82857 20.05
      vertex 10.5 8 20.05
    endloop
  endfacet
  facet normal -0.752577 0.658505 0
    outer loop
      vertex 5.1 1.82857 20.05
      vertex 4.1 0.685714 20.05
      vertex 5.1 1.82857 25.7
    endloop
  endfacet
  facet normal -0.752577 0.658505 2.91571e-07
    outer loop
      vertex 9.2 6.51429 19.15
      vertex 4.1 0.685714 20.05
      vertex 5.1 1.82857 20.05
    endloop
  endfacet
  facet normal -0.752577 0.658505 9.75154e-09
    outer loop
      vertex 0 -4 19.15
      vertex 4.1 0.685714 20.05
      vertex 9.2 6.51429 19.15
    endloop
  endfacet
  facet normal -0.752577 0.658505 0
    outer loop
      vertex 4.1 0.685714 20.05
      vertex 0 -4 19.15
      vertex 0 -4 20.05
    endloop
  endfacet
  facet normal -0.752577 0.658505 0
    outer loop
      vertex 10.5 8 25.7
      vertex 10.2 7.65714 26.6
      vertex 10.5 8 26.6
    endloop
  endfacet
  facet normal -0.752577 0.658505 0
    outer loop
      vertex 10.2 7.65714 26.6
      vertex 9.2 6.51429 26.6
      vertex 10.2 7.65714 31.25
    endloop
  endfacet
  facet normal -0.752577 0.658505 1.49524e-08
    outer loop
      vertex 10.5 8 25.7
      vertex 9.2 6.51429 26.6
      vertex 10.2 7.65714 26.6
    endloop
  endfacet
  facet normal -0.752577 0.658505 -5.88404e-08
    outer loop
      vertex 5.1 1.82857 25.7
      vertex 9.2 6.51429 26.6
      vertex 10.5 8 25.7
    endloop
  endfacet
  facet normal -0.752577 0.658505 0
    outer loop
      vertex 4.1 0.685714 25.7
      vertex 5.1 1.82857 25.7
      vertex 4.1 0.685714 20.05
    endloop
  endfacet
  facet normal -0.752577 0.658505 -2.91572e-07
    outer loop
      vertex 4.1 0.685714 25.7
      vertex 9.2 6.51429 26.6
      vertex 5.1 1.82857 25.7
    endloop
  endfacet
  facet normal -0.752577 0.658505 0
    outer loop
      vertex 0 -4 26.6
      vertex 4.1 0.685714 25.7
      vertex 0 -4 25.7
    endloop
  endfacet
  facet normal -0.752577 0.658505 -9.75156e-09
    outer loop
      vertex 4.1 0.685714 25.7
      vertex 0 -4 26.6
      vertex 9.2 6.51429 26.6
    endloop
  endfacet
  facet normal -0.752577 0.658505 0
    outer loop
      vertex 10.2 7.65714 31.25
      vertex 9.2 6.51429 26.6
      vertex 9.2 6.51429 31.9167
    endloop
  endfacet
  facet normal -0.752577 0.658505 2.16809e-07
    outer loop
      vertex 8.7 5.94286 32.25
      vertex 5.1 1.82857 33.15
      vertex 7.35 4.4 33.15
    endloop
  endfacet
  facet normal -0.752577 0.658505 0
    outer loop
      vertex 5.1 1.82857 33.15
      vertex 4.1 0.685714 33.15
      vertex 5.1 1.82857 34.65
    endloop
  endfacet
  facet normal -0.752577 0.658505 2.16809e-07
    outer loop
      vertex 8.7 5.94286 32.25
      vertex 4.1 0.685714 33.15
      vertex 5.1 1.82857 33.15
    endloop
  endfacet
  facet normal -0.752577 0.658505 -1.24603e-08
    outer loop
      vertex 0 -4 32.25
      vertex 4.1 0.685714 33.15
      vertex 8.7 5.94286 32.25
    endloop
  endfacet
  facet normal -0.752577 0.658505 0
    outer loop
      vertex 4.1 0.685714 33.15
      vertex 0 -4 32.25
      vertex 0 -4 33.15
    endloop
  endfacet
  facet normal -0.752577 0.658505 0
    outer loop
      vertex 5.1 1.82857 34.65
      vertex 4.1 0.685714 33.15
      vertex 4.1 0.685714 35.3167
    endloop
  endfacet
  facet normal 0.752577 0.658504 0
    outer loop
      vertex 34.7 -15.0857 39.3
      vertex 35.5 -16 39.3
      vertex 34.7 -15.0857 33.15
    endloop
  endfacet
  facet normal 0.752577 0.658505 -0
    outer loop
      vertex 25.5 -4.57143 33.15
      vertex 24.5 -3.42857 37.7167
      vertex 25.5 -4.57143 38.3833
    endloop
  endfacet
  facet normal 0.752577 0.658505 -6.80492e-07
    outer loop
      vertex 17.65 4.4 33.15
      vertex 19.4 2.4 32.25
      vertex 16.3 5.94286 32.25
    endloop
  endfacet
  facet normal 0.752577 0.658505 0
    outer loop
      vertex 19.4 2.4 32.25
      vertex 20.4 1.25714 32.25
      vertex 19.4 2.4 26.6
    endloop
  endfacet
  facet normal 0.752577 0.658505 -8.09918e-07
    outer loop
      vertex 17.65 4.4 33.15
      vertex 20.4 1.25714 32.25
      vertex 19.4 2.4 32.25
    endloop
  endfacet
  facet normal 0.752577 0.658505 -4.02731e-07
    outer loop
      vertex 24.5 -3.42857 33.15
      vertex 20.4 1.25714 32.25
      vertex 17.65 4.4 33.15
    endloop
  endfacet
  facet normal 0.752577 0.658505 0
    outer loop
      vertex 24.5 -3.42857 37.7167
      vertex 25.5 -4.57143 33.15
      vertex 24.5 -3.42857 33.15
    endloop
  endfacet
  facet normal 0.752577 0.658505 -5.10871e-07
    outer loop
      vertex 25.5 -4.57143 33.15
      vertex 20.4 1.25714 32.25
      vertex 24.5 -3.42857 33.15
    endloop
  endfacet
  facet normal 0.752577 0.658505 -2.48393e-07
    outer loop
      vertex 25.5 -4.57143 33.15
      vertex 29.6 -9.25714 32.25
      vertex 20.4 1.25714 32.25
    endloop
  endfacet
  facet normal 0.752577 0.658504 0
    outer loop
      vertex 29.6 -9.25714 32.25
      vertex 30.6 -10.4 32.25
      vertex 29.6 -9.25714 26.6
    endloop
  endfacet
  facet normal 0.752577 0.658504 6.77838e-07
    outer loop
      vertex 25.5 -4.57143 33.15
      vertex 30.6 -10.4 32.25
      vertex 29.6 -9.25714 32.25
    endloop
  endfacet
  facet normal 0.752577 0.658505 -1.26174e-06
    outer loop
      vertex 34.7 -15.0857 33.15
      vertex 30.6 -10.4 32.25
      vertex 25.5 -4.57143 33.15
    endloop
  endfacet
  facet normal 0.752577 0.658505 -7.6084e-07
    outer loop
      vertex 34.7 -15.0857 33.15
      vertex 35.5 -16 32.25
      vertex 30.6 -10.4 32.25
    endloop
  endfacet
  facet normal 0.752577 0.658504 -0
    outer loop
      vertex 35.5 -16 32.25
      vertex 34.7 -15.0857 33.15
      vertex 35.5 -16 39.3
    endloop
  endfacet
  facet normal 0.752577 0.658505 0
    outer loop
      vertex 14.5 8 26.6
      vertex 15.3 7.08572 25.7
      vertex 14.5 8 19.15
    endloop
  endfacet
  facet normal 0.752577 0.658505 1.11889e-07
    outer loop
      vertex 19.4 2.4 26.6
      vertex 15.3 7.08572 25.7
      vertex 14.5 8 26.6
    endloop
  endfacet
  facet normal 0.752577 0.658505 -0
    outer loop
      vertex 20.4 1.25714 26.6
      vertex 19.4 2.4 26.6
      vertex 20.4 1.25714 32.25
    endloop
  endfacet
  facet normal 0.752577 0.658505 3.78794e-07
    outer loop
      vertex 20.4 1.25714 26.6
      vertex 15.3 7.08572 25.7
      vertex 19.4 2.4 26.6
    endloop
  endfacet
  facet normal 0.752577 0.658505 5.55297e-08
    outer loop
      vertex 20.4 1.25714 26.6
      vertex 24.5 -3.42857 25.7
      vertex 15.3 7.08572 25.7
    endloop
  endfacet
  facet normal 0.752577 0.658505 0
    outer loop
      vertex 24.5 -3.42857 25.7
      vertex 25.5 -4.57143 25.7
      vertex 24.5 -3.42857 20.05
    endloop
  endfacet
  facet normal 0.752577 0.658505 5.10873e-07
    outer loop
      vertex 20.4 1.25714 26.6
      vertex 25.5 -4.57143 25.7
      vertex 24.5 -3.42857 25.7
    endloop
  endfacet
  facet normal 0.752577 0.658505 2.48394e-07
    outer loop
      vertex 29.6 -9.25714 26.6
      vertex 25.5 -4.57143 25.7
      vertex 20.4 1.25714 26.6
    endloop
  endfacet
  facet normal 0.752577 0.658504 -0
    outer loop
      vertex 30.6 -10.4 26.6
      vertex 29.6 -9.25714 26.6
      vertex 30.6 -10.4 32.25
    endloop
  endfacet
  facet normal 0.752577 0.658504 -6.77841e-07
    outer loop
      vertex 30.6 -10.4 26.6
      vertex 25.5 -4.57143 25.7
      vertex 29.6 -9.25714 26.6
    endloop
  endfacet
  facet normal 0.752577 0.658505 1.26174e-06
    outer loop
      vertex 30.6 -10.4 26.6
      vertex 34.7 -15.0857 25.7
      vertex 25.5 -4.57143 25.7
    endloop
  endfacet
  facet normal 0.752577 0.658504 0
    outer loop
      vertex 34.7 -15.0857 25.7
      vertex 35.5 -16 26.6
      vertex 34.7 -15.0857 20.05
    endloop
  endfacet
  facet normal 0.752577 0.658505 7.60843e-07
    outer loop
      vertex 35.5 -16 26.6
      vertex 34.7 -15.0857 25.7
      vertex 30.6 -10.4 26.6
    endloop
  endfacet
  facet normal 0.752577 0.658505 -0
    outer loop
      vertex 15.3 7.08572 20.05
      vertex 14.5 8 19.15
      vertex 15.3 7.08572 25.7
    endloop
  endfacet
  facet normal 0.752577 0.658505 -1.11888e-07
    outer loop
      vertex 15.3 7.08572 20.05
      vertex 19.4 2.4 19.15
      vertex 14.5 8 19.15
    endloop
  endfacet
  facet normal 0.752577 0.658505 0
    outer loop
      vertex 19.4 2.4 19.15
      vertex 20.4 1.25714 19.15
      vertex 19.4 2.4 13.5
    endloop
  endfacet
  facet normal 0.752577 0.658505 -3.78793e-07
    outer loop
      vertex 15.3 7.08572 20.05
      vertex 20.4 1.25714 19.15
      vertex 19.4 2.4 19.15
    endloop
  endfacet
  facet normal 0.752577 0.658505 -5.55296e-08
    outer loop
      vertex 24.5 -3.42857 20.05
      vertex 20.4 1.25714 19.15
      vertex 15.3 7.08572 20.05
    endloop
  endfacet
  facet normal 0.752577 0.658505 -0
    outer loop
      vertex 25.5 -4.57143 20.05
      vertex 24.5 -3.42857 20.05
      vertex 25.5 -4.57143 25.7
    endloop
  endfacet
  facet normal 0.752577 0.658505 -5.10872e-07
    outer loop
      vertex 25.5 -4.57143 20.05
      vertex 20.4 1.25714 19.15
      vertex 24.5 -3.42857 20.05
    endloop
  endfacet
  facet normal 0.752577 0.658505 -2.48393e-07
    outer loop
      vertex 25.5 -4.57143 20.05
      vertex 29.6 -9.25714 19.15
      vertex 20.4 1.25714 19.15
    endloop
  endfacet
  facet normal 0.752577 0.658504 0
    outer loop
      vertex 29.6 -9.25714 19.15
      vertex 30.6 -10.4 19.15
      vertex 29.6 -9.25714 13.5
    endloop
  endfacet
  facet normal 0.752577 0.658504 6.7784e-07
    outer loop
      vertex 25.5 -4.57143 20.05
      vertex 30.6 -10.4 19.15
      vertex 29.6 -9.25714 19.15
    endloop
  endfacet
  facet normal 0.752577 0.658505 -1.26174e-06
    outer loop
      vertex 34.7 -15.0857 20.05
      vertex 30.6 -10.4 19.15
      vertex 25.5 -4.57143 20.05
    endloop
  endfacet
  facet normal 0.752577 0.658505 -7.60841e-07
    outer loop
      vertex 34.7 -15.0857 20.05
      vertex 35.5 -16 19.15
      vertex 30.6 -10.4 19.15
    endloop
  endfacet
  facet normal 0.752577 0.658504 -0
    outer loop
      vertex 35.5 -16 19.15
      vertex 34.7 -15.0857 20.05
      vertex 35.5 -16 26.6
    endloop
  endfacet
  facet normal 0.752577 0.658505 0
    outer loop
      vertex 14.5 8 13.5
      vertex 15.3 7.08572 12.6
      vertex 14.5 8 6.05
    endloop
  endfacet
  facet normal 0.752577 0.658505 1.11888e-07
    outer loop
      vertex 19.4 2.4 13.5
      vertex 15.3 7.08572 12.6
      vertex 14.5 8 13.5
    endloop
  endfacet
  facet normal 0.752577 0.658505 -0
    outer loop
      vertex 20.4 1.25714 13.5
      vertex 19.4 2.4 13.5
      vertex 20.4 1.25714 19.15
    endloop
  endfacet
  facet normal 0.752577 0.658505 3.78793e-07
    outer loop
      vertex 20.4 1.25714 13.5
      vertex 15.3 7.08572 12.6
      vertex 19.4 2.4 13.5
    endloop
  endfacet
  facet normal 0.752577 0.658505 5.55295e-08
    outer loop
      vertex 20.4 1.25714 13.5
      vertex 24.5 -3.42857 12.6
      vertex 15.3 7.08572 12.6
    endloop
  endfacet
  facet normal 0.752577 0.658505 0
    outer loop
      vertex 24.5 -3.42857 12.6
      vertex 25.5 -4.57143 12.6
      vertex 24.5 -3.42857 6.95
    endloop
  endfacet
  facet normal 0.752577 0.658505 5.10872e-07
    outer loop
      vertex 20.4 1.25714 13.5
      vertex 25.5 -4.57143 12.6
      vertex 24.5 -3.42857 12.6
    endloop
  endfacet
  facet normal 0.752577 0.658505 2.48393e-07
    outer loop
      vertex 29.6 -9.25714 13.5
      vertex 25.5 -4.57143 12.6
      vertex 20.4 1.25714 13.5
    endloop
  endfacet
  facet normal 0.752577 0.658504 -0
    outer loop
      vertex 30.6 -10.4 13.5
      vertex 29.6 -9.25714 13.5
      vertex 30.6 -10.4 19.15
    endloop
  endfacet
  facet normal 0.752577 0.658504 -6.77839e-07
    outer loop
      vertex 30.6 -10.4 13.5
      vertex 25.5 -4.57143 12.6
      vertex 29.6 -9.25714 13.5
    endloop
  endfacet
  facet normal 0.752577 0.658505 1.26174e-06
    outer loop
      vertex 30.6 -10.4 13.5
      vertex 34.7 -15.0857 12.6
      vertex 25.5 -4.57143 12.6
    endloop
  endfacet
  facet normal 0.752577 0.658504 0
    outer loop
      vertex 34.7 -15.0857 12.6
      vertex 35.5 -16 13.5
      vertex 34.7 -15.0857 6.95
    endloop
  endfacet
  facet normal 0.752577 0.658505 7.6084e-07
    outer loop
      vertex 35.5 -16 13.5
      vertex 34.7 -15.0857 12.6
      vertex 30.6 -10.4 13.5
    endloop
  endfacet
  facet normal 0.752577 0.658505 -0
    outer loop
      vertex 15.3 7.08572 6.95
      vertex 14.5 8 6.05
      vertex 15.3 7.08572 12.6
    endloop
  endfacet
  facet normal 0.752577 0.658505 -1.11888e-07
    outer loop
      vertex 15.3 7.08572 6.95
      vertex 19.4 2.4 6.05
      vertex 14.5 8 6.05
    endloop
  endfacet
  facet normal 0.752577 0.658505 0
    outer loop
      vertex 19.4 2.4 6.05
      vertex 20.4 1.25714 6.05
      vertex 19.4 2.4 5.05
    endloop
  endfacet
  facet normal 0.752577 0.658505 -3.78793e-07
    outer loop
      vertex 15.3 7.08572 6.95
      vertex 20.4 1.25714 6.05
      vertex 19.4 2.4 6.05
    endloop
  endfacet
  facet normal 0.752577 0.658505 -5.55295e-08
    outer loop
      vertex 24.5 -3.42857 6.95
      vertex 20.4 1.25714 6.05
      vertex 15.3 7.08572 6.95
    endloop
  endfacet
  facet normal 0.752577 0.658505 -0
    outer loop
      vertex 25.5 -4.57143 6.95
      vertex 24.5 -3.42857 6.95
      vertex 25.5 -4.57143 12.6
    endloop
  endfacet
  facet normal 0.752577 0.658505 -5.10872e-07
    outer loop
      vertex 25.5 -4.57143 6.95
      vertex 20.4 1.25714 6.05
      vertex 24.5 -3.42857 6.95
    endloop
  endfacet
  facet normal 0.752577 0.658505 -2.48393e-07
    outer loop
      vertex 25.5 -4.57143 6.95
      vertex 29.6 -9.25714 6.05
      vertex 20.4 1.25714 6.05
    endloop
  endfacet
  facet normal 0.752577 0.658504 0
    outer loop
      vertex 29.6 -9.25714 6.05
      vertex 30.6 -10.4 6.05
      vertex 29.6 -9.25714 5.05
    endloop
  endfacet
  facet normal 0.752577 0.658504 6.77839e-07
    outer loop
      vertex 25.5 -4.57143 6.95
      vertex 30.6 -10.4 6.05
      vertex 29.6 -9.25714 6.05
    endloop
  endfacet
  facet normal 0.752577 0.658505 -1.26174e-06
    outer loop
      vertex 34.7 -15.0857 6.95
      vertex 30.6 -10.4 6.05
      vertex 25.5 -4.57143 6.95
    endloop
  endfacet
  facet normal 0.752577 0.658505 -7.6084e-07
    outer loop
      vertex 34.7 -15.0857 6.95
      vertex 35.5 -16 6.05
      vertex 30.6 -10.4 6.05
    endloop
  endfacet
  facet normal 0.752577 0.658504 -0
    outer loop
      vertex 35.5 -16 6.05
      vertex 34.7 -15.0857 6.95
      vertex 35.5 -16 13.5
    endloop
  endfacet
  facet normal 0.752577 0.658505 0
    outer loop
      vertex 19.4 2.4 5.05
      vertex 20.4 1.25714 6.05
      vertex 20.4 1.25714 5.05
    endloop
  endfacet
  facet normal 0.752577 0.658504 0
    outer loop
      vertex 29.6 -9.25714 5.05
      vertex 30.6 -10.4 6.05
      vertex 30.6 -10.4 5.05
    endloop
  endfacet
endsolid OpenSCAD_Model
