solid OpenSCAD_Model
  facet normal 0 -1 0
    outer loop
      vertex 27 -16 6.95
      vertex 28 -16 6.05
      vertex 28 -16 6.95
    endloop
  endfacet
  facet normal 0 -1 0
    outer loop
      vertex 29.6 -16 6.05
      vertex 28 -16 6.05
      vertex 27 -16 6.05
    endloop
  endfacet
  facet normal 0 -1 0
    outer loop
      vertex 27 -16 6.05
      vertex 28 -16 6.05
      vertex 27 -16 6.95
    endloop
  endfacet
  facet normal 0 -1 0
    outer loop
      vertex 72 -16 6.05
      vertex 73 -16 6.95
      vertex 72 -16 6.95
    endloop
  endfacet
  facet normal 0 -1 0
    outer loop
      vertex 28 -16 6.05
      vertex 29.6 -16 6.05
      vertex 72 -16 6.05
    endloop
  endfacet
  facet normal 0 -1 0
    outer loop
      vertex 30.6 -16 6.05
      vertex 72 -16 6.05
      vertex 29.6 -16 6.05
    endloop
  endfacet
  facet normal 0 -1 0
    outer loop
      vertex 39.8 -16 6.05
      vertex 72 -16 6.05
      vertex 30.6 -16 6.05
    endloop
  endfacet
  facet normal 0 -1 0
    outer loop
      vertex 40.8 -16 6.05
      vertex 72 -16 6.05
      vertex 39.8 -16 6.05
    endloop
  endfacet
  facet normal 0 -1 0
    outer loop
      vertex 50 -16 6.05
      vertex 72 -16 6.05
      vertex 40.8 -16 6.05
    endloop
  endfacet
  facet normal 0 -1 0
    outer loop
      vertex 51 -16 6.05
      vertex 72 -16 6.05
      vertex 50 -16 6.05
    endloop
  endfacet
  facet normal 0 -1 0
    outer loop
      vertex 60.2 -16 6.05
      vertex 72 -16 6.05
      vertex 51 -16 6.05
    endloop
  endfacet
  facet normal 0 -1 0
    outer loop
      vertex 61.2 -16 6.05
      vertex 72 -16 6.05
      vertex 60.2 -16 6.05
    endloop
  endfacet
  facet normal 0 -1 0
    outer loop
      vertex 70.4 -16 6.05
      vertex 72 -16 6.05
      vertex 61.2 -16 6.05
    endloop
  endfacet
  facet normal 0 -1 0
    outer loop
      vertex 71.4 -16 6.05
      vertex 72 -16 6.05
      vertex 70.4 -16 6.05
    endloop
  endfacet
  facet normal 0 -1 0
    outer loop
      vertex 72 -16 6.05
      vertex 73 -16 6.05
      vertex 73 -16 6.95
    endloop
  endfacet
  facet normal 0 -1 0
    outer loop
      vertex 73 -16 6.05
      vertex 72 -16 6.05
      vertex 71.4 -16 6.05
    endloop
  endfacet
  facet normal 0 -1 0
    outer loop
      vertex 70.4 -16 5.05
      vertex 71.4 -16 6.05
      vertex 70.4 -16 6.05
    endloop
  endfacet
  facet normal 0 -1 -0
    outer loop
      vertex 71.4 -16 6.05
      vertex 70.4 -16 5.05
      vertex 71.4 -16 5.05
    endloop
  endfacet
  facet normal 0 -1 0
    outer loop
      vertex 60.2 -16 5.05
      vertex 61.2 -16 6.05
      vertex 60.2 -16 6.05
    endloop
  endfacet
  facet normal 0 -1 -0
    outer loop
      vertex 61.2 -16 6.05
      vertex 60.2 -16 5.05
      vertex 61.2 -16 5.05
    endloop
  endfacet
  facet normal 0 -1 0
    outer loop
      vertex 50 -16 5.05
      vertex 51 -16 6.05
      vertex 50 -16 6.05
    endloop
  endfacet
  facet normal 0 -1 -0
    outer loop
      vertex 51 -16 6.05
      vertex 50 -16 5.05
      vertex 51 -16 5.05
    endloop
  endfacet
  facet normal 0 -1 0
    outer loop
      vertex 39.8 -16 5.05
      vertex 40.8 -16 6.05
      vertex 39.8 -16 6.05
    endloop
  endfacet
  facet normal 0 -1 -0
    outer loop
      vertex 40.8 -16 6.05
      vertex 39.8 -16 5.05
      vertex 40.8 -16 5.05
    endloop
  endfacet
  facet normal 0 -1 0
    outer loop
      vertex 29.6 -16 5.05
      vertex 30.6 -16 6.05
      vertex 29.6 -16 6.05
    endloop
  endfacet
  facet normal 0 -1 -0
    outer loop
      vertex 30.6 -16 6.05
      vertex 29.6 -16 5.05
      vertex 30.6 -16 5.05
    endloop
  endfacet
  facet normal 0 -1 0
    outer loop
      vertex 27 -16 12.6
      vertex 28 -16 13.5
      vertex 27 -16 13.5
    endloop
  endfacet
  facet normal 0 -1 -0
    outer loop
      vertex 28 -16 13.5
      vertex 27 -16 12.6
      vertex 28 -16 12.6
    endloop
  endfacet
  facet normal 0 -1 0
    outer loop
      vertex 27 -16 19.15
      vertex 28 -16 20.05
      vertex 27 -16 20.05
    endloop
  endfacet
  facet normal 0 -1 -0
    outer loop
      vertex 28 -16 20.05
      vertex 27 -16 19.15
      vertex 28 -16 19.15
    endloop
  endfacet
  facet normal 0 -1 0
    outer loop
      vertex 72 -16 12.6
      vertex 73 -16 13.5
      vertex 72 -16 13.5
    endloop
  endfacet
  facet normal 0 -1 -0
    outer loop
      vertex 73 -16 13.5
      vertex 72 -16 12.6
      vertex 73 -16 12.6
    endloop
  endfacet
  facet normal 0 -1 0
    outer loop
      vertex 72 -16 19.15
      vertex 73 -16 20.05
      vertex 72 -16 20.05
    endloop
  endfacet
  facet normal 0 -1 -0
    outer loop
      vertex 73 -16 20.05
      vertex 72 -16 19.15
      vertex 73 -16 19.15
    endloop
  endfacet
  facet normal 0 -1 0
    outer loop
      vertex 27 -16 25.7
      vertex 28 -16 26.6
      vertex 27 -16 26.6
    endloop
  endfacet
  facet normal 0 -1 -0
    outer loop
      vertex 28 -16 26.6
      vertex 27 -16 25.7
      vertex 28 -16 25.7
    endloop
  endfacet
  facet normal 0 -1 0
    outer loop
      vertex 72 -16 25.7
      vertex 73 -16 26.6
      vertex 72 -16 26.6
    endloop
  endfacet
  facet normal 0 -1 -0
    outer loop
      vertex 73 -16 26.6
      vertex 72 -16 25.7
      vertex 73 -16 25.7
    endloop
  endfacet
  facet normal 0 -1 0
    outer loop
      vertex 27 -16 32.25
      vertex 28 -16 33.15
      vertex 27 -16 33.15
    endloop
  endfacet
  facet normal 0 -1 -0
    outer loop
      vertex 28 -16 33.15
      vertex 27 -16 32.25
      vertex 28 -16 32.25
    endloop
  endfacet
  facet normal 0 -1 0
    outer loop
      vertex 72 -16 32.25
      vertex 73 -16 33.15
      vertex 72 -16 33.15
    endloop
  endfacet
  facet normal 0 -1 -0
    outer loop
      vertex 73 -16 33.15
      vertex 72 -16 32.25
      vertex 73 -16 32.25
    endloop
  endfacet
  facet normal 0 1 -0
    outer loop
      vertex 52 8 25.7
      vertex 51 8 26.6
      vertex 52 8 26.6
    endloop
  endfacet
  facet normal 0 1 0
    outer loop
      vertex 51 8 26.6
      vertex 52 8 25.7
      vertex 51 8 25.7
    endloop
  endfacet
  facet normal 0 1 -0
    outer loop
      vertex 52 8 12.6
      vertex 51 8 13.5
      vertex 52 8 13.5
    endloop
  endfacet
  facet normal 0 1 0
    outer loop
      vertex 51 8 13.5
      vertex 52 8 12.6
      vertex 51 8 12.6
    endloop
  endfacet
  facet normal 0 1 -0
    outer loop
      vertex 52 8 19.15
      vertex 51 8 20.05
      vertex 52 8 20.05
    endloop
  endfacet
  facet normal 0 1 0
    outer loop
      vertex 51 8 20.05
      vertex 52 8 19.15
      vertex 51 8 19.15
    endloop
  endfacet
  facet normal 0 1 0
    outer loop
      vertex 52 8 6.95
      vertex 51 8 6.05
      vertex 51 8 6.95
    endloop
  endfacet
  facet normal 0 1 -0
    outer loop
      vertex 52 8 6.05
      vertex 51 8 6.05
      vertex 52 8 6.95
    endloop
  endfacet
  facet normal 0 1 -0
    outer loop
      vertex 49 8 6.05
      vertex 48 8 6.95
      vertex 49 8 6.95
    endloop
  endfacet
  facet normal 0 1 0
    outer loop
      vertex 51 8 6.05
      vertex 50 8 6.05
      vertex 49 8 6.05
    endloop
  endfacet
  facet normal 0 1 0
    outer loop
      vertex 49 8 6.05
      vertex 48 8 6.05
      vertex 48 8 6.95
    endloop
  endfacet
  facet normal 0 1 0
    outer loop
      vertex 48 8 6.05
      vertex 49 8 6.05
      vertex 50 8 6.05
    endloop
  endfacet
  facet normal 0 1 -0
    outer loop
      vertex 51 8 5.05
      vertex 50 8 6.05
      vertex 51 8 6.05
    endloop
  endfacet
  facet normal 0 1 0
    outer loop
      vertex 50 8 6.05
      vertex 51 8 5.05
      vertex 50 8 5.05
    endloop
  endfacet
  facet normal 0 1 -0
    outer loop
      vertex 51 8 30.05
      vertex 50 8 31.05
      vertex 51 8 31.05
    endloop
  endfacet
  facet normal 0 1 0
    outer loop
      vertex 50 8 31.05
      vertex 51 8 30.05
      vertex 50 8 30.05
    endloop
  endfacet
  facet normal 0 1 -0
    outer loop
      vertex 49 8 12.6
      vertex 48 8 13.5
      vertex 49 8 13.5
    endloop
  endfacet
  facet normal 0 1 0
    outer loop
      vertex 48 8 13.5
      vertex 49 8 12.6
      vertex 48 8 12.6
    endloop
  endfacet
  facet normal 0 1 -0
    outer loop
      vertex 49 8 19.15
      vertex 48 8 20.05
      vertex 49 8 20.05
    endloop
  endfacet
  facet normal 0 1 0
    outer loop
      vertex 48 8 20.05
      vertex 49 8 19.15
      vertex 48 8 19.15
    endloop
  endfacet
  facet normal 0 1 -0
    outer loop
      vertex 49 8 25.7
      vertex 48 8 26.6
      vertex 49 8 26.6
    endloop
  endfacet
  facet normal 0 1 0
    outer loop
      vertex 48 8 26.6
      vertex 49 8 25.7
      vertex 48 8 25.7
    endloop
  endfacet
  facet normal -1 0 0
    outer loop
      vertex 29.6 -16 5.05
      vertex 29.6 -13.0286 6.05
      vertex 29.6 -13.0286 5.05
    endloop
  endfacet
  facet normal -1 -0 0
    outer loop
      vertex 29.6 -13.0286 6.05
      vertex 29.6 -16 5.05
      vertex 29.6 -16 6.05
    endloop
  endfacet
  facet normal 1 -0 0
    outer loop
      vertex 30.6 -16 6.05
      vertex 30.6 -11.8857 5.05
      vertex 30.6 -11.8857 6.05
    endloop
  endfacet
  facet normal 1 0 0
    outer loop
      vertex 30.6 -11.8857 5.05
      vertex 30.6 -16 6.05
      vertex 30.6 -16 5.05
    endloop
  endfacet
  facet normal -1 0 0
    outer loop
      vertex 39.8 -16 5.05
      vertex 39.8 -1.37143 6.05
      vertex 39.8 -1.37143 5.05
    endloop
  endfacet
  facet normal -1 -0 0
    outer loop
      vertex 39.8 -1.37143 6.05
      vertex 39.8 -16 5.05
      vertex 39.8 -16 6.05
    endloop
  endfacet
  facet normal 1 -0 0
    outer loop
      vertex 40.8 -16 6.05
      vertex 40.8 -0.228572 5.05
      vertex 40.8 -0.228572 6.05
    endloop
  endfacet
  facet normal 1 0 0
    outer loop
      vertex 40.8 -0.228572 5.05
      vertex 40.8 -16 6.05
      vertex 40.8 -16 5.05
    endloop
  endfacet
  facet normal -1 0 0
    outer loop
      vertex 50 -16 5.05
      vertex 50 8 6.05
      vertex 50 8 5.05
    endloop
  endfacet
  facet normal -1 -0 0
    outer loop
      vertex 50 8 6.05
      vertex 50 -16 5.05
      vertex 50 -16 6.05
    endloop
  endfacet
  facet normal 1 -0 0
    outer loop
      vertex 51 -16 6.05
      vertex 51 8 5.05
      vertex 51 8 6.05
    endloop
  endfacet
  facet normal 1 0 0
    outer loop
      vertex 51 8 5.05
      vertex 51 -16 6.05
      vertex 51 -16 5.05
    endloop
  endfacet
  facet normal -1 0 0
    outer loop
      vertex 60.2 -16 5.05
      vertex 60.2 -1.37143 6.05
      vertex 60.2 -1.37143 5.05
    endloop
  endfacet
  facet normal -1 -0 0
    outer loop
      vertex 60.2 -1.37143 6.05
      vertex 60.2 -16 5.05
      vertex 60.2 -16 6.05
    endloop
  endfacet
  facet normal 1 -0 0
    outer loop
      vertex 61.2 -16 6.05
      vertex 61.2 -2.51429 5.05
      vertex 61.2 -2.51429 6.05
    endloop
  endfacet
  facet normal 1 0 0
    outer loop
      vertex 61.2 -2.51429 5.05
      vertex 61.2 -16 6.05
      vertex 61.2 -16 5.05
    endloop
  endfacet
  facet normal -1 0 0
    outer loop
      vertex 70.4 -16 5.05
      vertex 70.4 -13.0286 6.05
      vertex 70.4 -13.0286 5.05
    endloop
  endfacet
  facet normal -1 -0 0
    outer loop
      vertex 70.4 -13.0286 6.05
      vertex 70.4 -16 5.05
      vertex 70.4 -16 6.05
    endloop
  endfacet
  facet normal 1 -0 0
    outer loop
      vertex 71.4 -16 6.05
      vertex 71.4 -14.1714 5.05
      vertex 71.4 -14.1714 6.05
    endloop
  endfacet
  facet normal 1 0 0
    outer loop
      vertex 71.4 -14.1714 5.05
      vertex 71.4 -16 6.05
      vertex 71.4 -16 5.05
    endloop
  endfacet
  facet normal -1 0 0
    outer loop
      vertex 34.7 -8.34286 6.95
      vertex 34.7 -7.2 12.6
      vertex 34.7 -7.2 6.95
    endloop
  endfacet
  facet normal -1 -0 0
    outer loop
      vertex 34.7 -7.2 12.6
      vertex 34.7 -8.34286 6.95
      vertex 34.7 -8.34286 12.6
    endloop
  endfacet
  facet normal 1 -0 0
    outer loop
      vertex 35.7 -7.2 12.6
      vertex 35.7 -6.05714 6.95
      vertex 35.7 -6.05714 12.6
    endloop
  endfacet
  facet normal 1 0 0
    outer loop
      vertex 35.7 -6.05714 6.95
      vertex 35.7 -7.2 12.6
      vertex 35.7 -7.2 6.95
    endloop
  endfacet
  facet normal -1 0 0
    outer loop
      vertex 44.9 3.31429 6.95
      vertex 44.9 4.45714 12.6
      vertex 44.9 4.45714 6.95
    endloop
  endfacet
  facet normal -1 -0 0
    outer loop
      vertex 44.9 4.45714 12.6
      vertex 44.9 3.31429 6.95
      vertex 44.9 3.31429 12.6
    endloop
  endfacet
  facet normal 1 -0 0
    outer loop
      vertex 45.9 4.45714 12.6
      vertex 45.9 5.6 6.95
      vertex 45.9 5.6 12.6
    endloop
  endfacet
  facet normal 1 0 0
    outer loop
      vertex 45.9 5.6 6.95
      vertex 45.9 4.45714 12.6
      vertex 45.9 4.45714 6.95
    endloop
  endfacet
  facet normal -1 0 0
    outer loop
      vertex 55.1 3.31429 6.95
      vertex 55.1 4.45714 12.6
      vertex 55.1 4.45714 6.95
    endloop
  endfacet
  facet normal -1 -0 0
    outer loop
      vertex 55.1 4.45714 12.6
      vertex 55.1 3.31429 6.95
      vertex 55.1 3.31429 12.6
    endloop
  endfacet
  facet normal 1 -0 0
    outer loop
      vertex 56.1 2.17143 12.6
      vertex 56.1 3.31429 6.95
      vertex 56.1 3.31429 12.6
    endloop
  endfacet
  facet normal 1 0 0
    outer loop
      vertex 56.1 3.31429 6.95
      vertex 56.1 2.17143 12.6
      vertex 56.1 2.17143 6.95
    endloop
  endfacet
  facet normal -1 0 0
    outer loop
      vertex 65.3 -8.34286 6.95
      vertex 65.3 -7.2 12.6
      vertex 65.3 -7.2 6.95
    endloop
  endfacet
  facet normal -1 -0 0
    outer loop
      vertex 65.3 -7.2 12.6
      vertex 65.3 -8.34286 6.95
      vertex 65.3 -8.34286 12.6
    endloop
  endfacet
  facet normal 1 -0 0
    outer loop
      vertex 66.3 -9.48571 12.6
      vertex 66.3 -8.34286 6.95
      vertex 66.3 -8.34286 12.6
    endloop
  endfacet
  facet normal 1 0 0
    outer loop
      vertex 66.3 -8.34286 6.95
      vertex 66.3 -9.48571 12.6
      vertex 66.3 -9.48571 6.95
    endloop
  endfacet
  facet normal -1 0 0
    outer loop
      vertex 29.6 -14.1714 13.5
      vertex 29.6 -13.0286 19.15
      vertex 29.6 -13.0286 13.5
    endloop
  endfacet
  facet normal -1 -0 0
    outer loop
      vertex 29.6 -13.0286 19.15
      vertex 29.6 -14.1714 13.5
      vertex 29.6 -14.1714 19.15
    endloop
  endfacet
  facet normal 1 -0 0
    outer loop
      vertex 30.6 -13.0286 19.15
      vertex 30.6 -11.8857 13.5
      vertex 30.6 -11.8857 19.15
    endloop
  endfacet
  facet normal 1 0 0
    outer loop
      vertex 30.6 -11.8857 13.5
      vertex 30.6 -13.0286 19.15
      vertex 30.6 -13.0286 13.5
    endloop
  endfacet
  facet normal -1 0 0
    outer loop
      vertex 39.8 -2.51429 13.5
      vertex 39.8 -1.37143 19.15
      vertex 39.8 -1.37143 13.5
    endloop
  endfacet
  facet normal -1 -0 0
    outer loop
      vertex 39.8 -1.37143 19.15
      vertex 39.8 -2.51429 13.5
      vertex 39.8 -2.51429 19.15
    endloop
  endfacet
  facet normal 1 -0 0
    outer loop
      vertex 40.8 -1.37143 19.15
      vertex 40.8 -0.228572 13.5
      vertex 40.8 -0.228572 19.15
    endloop
  endfacet
  facet normal 1 0 0
    outer loop
      vertex 40.8 -0.228572 13.5
      vertex 40.8 -1.37143 19.15
      vertex 40.8 -1.37143 13.5
    endloop
  endfacet
  facet normal -1 0 0
    outer loop
      vertex 60.2 -2.51429 13.5
      vertex 60.2 -1.37143 19.15
      vertex 60.2 -1.37143 13.5
    endloop
  endfacet
  facet normal -1 -0 0
    outer loop
      vertex 60.2 -1.37143 19.15
      vertex 60.2 -2.51429 13.5
      vertex 60.2 -2.51429 19.15
    endloop
  endfacet
  facet normal 1 -0 0
    outer loop
      vertex 61.2 -3.65714 19.15
      vertex 61.2 -2.51429 13.5
      vertex 61.2 -2.51429 19.15
    endloop
  endfacet
  facet normal 1 0 0
    outer loop
      vertex 61.2 -2.51429 13.5
      vertex 61.2 -3.65714 19.15
      vertex 61.2 -3.65714 13.5
    endloop
  endfacet
  facet normal -1 0 0
    outer loop
      vertex 70.4 -14.1714 13.5
      vertex 70.4 -13.0286 19.15
      vertex 70.4 -13.0286 13.5
    endloop
  endfacet
  facet normal -1 -0 0
    outer loop
      vertex 70.4 -13.0286 19.15
      vertex 70.4 -14.1714 13.5
      vertex 70.4 -14.1714 19.15
    endloop
  endfacet
  facet normal 1 -0 0
    outer loop
      vertex 71.4 -15.3143 19.15
      vertex 71.4 -14.1714 13.5
      vertex 71.4 -14.1714 19.15
    endloop
  endfacet
  facet normal 1 0 0
    outer loop
      vertex 71.4 -14.1714 13.5
      vertex 71.4 -15.3143 19.15
      vertex 71.4 -15.3143 13.5
    endloop
  endfacet
  facet normal -1 0 0
    outer loop
      vertex 34.7 -8.34286 20.05
      vertex 34.7 -7.2 25.7
      vertex 34.7 -7.2 20.05
    endloop
  endfacet
  facet normal -1 -0 0
    outer loop
      vertex 34.7 -7.2 25.7
      vertex 34.7 -8.34286 20.05
      vertex 34.7 -8.34286 25.7
    endloop
  endfacet
  facet normal 1 -0 0
    outer loop
      vertex 35.7 -7.2 25.7
      vertex 35.7 -6.05714 20.05
      vertex 35.7 -6.05714 25.7
    endloop
  endfacet
  facet normal 1 0 0
    outer loop
      vertex 35.7 -6.05714 20.05
      vertex 35.7 -7.2 25.7
      vertex 35.7 -7.2 20.05
    endloop
  endfacet
  facet normal -1 0 0
    outer loop
      vertex 44.9 3.31429 20.05
      vertex 44.9 4.45714 25.7
      vertex 44.9 4.45714 20.05
    endloop
  endfacet
  facet normal -1 -0 0
    outer loop
      vertex 44.9 4.45714 25.7
      vertex 44.9 3.31429 20.05
      vertex 44.9 3.31429 25.7
    endloop
  endfacet
  facet normal 1 -0 0
    outer loop
      vertex 45.9 4.45714 25.7
      vertex 45.9 5.6 20.05
      vertex 45.9 5.6 25.7
    endloop
  endfacet
  facet normal 1 0 0
    outer loop
      vertex 45.9 5.6 20.05
      vertex 45.9 4.45714 25.7
      vertex 45.9 4.45714 20.05
    endloop
  endfacet
  facet normal -1 0 0
    outer loop
      vertex 55.1 3.31429 20.05
      vertex 55.1 4.45714 25.7
      vertex 55.1 4.45714 20.05
    endloop
  endfacet
  facet normal -1 -0 0
    outer loop
      vertex 55.1 4.45714 25.7
      vertex 55.1 3.31429 20.05
      vertex 55.1 3.31429 25.7
    endloop
  endfacet
  facet normal 1 -0 0
    outer loop
      vertex 56.1 2.17143 25.7
      vertex 56.1 3.31429 20.05
      vertex 56.1 3.31429 25.7
    endloop
  endfacet
  facet normal 1 0 0
    outer loop
      vertex 56.1 3.31429 20.05
      vertex 56.1 2.17143 25.7
      vertex 56.1 2.17143 20.05
    endloop
  endfacet
  facet normal -1 0 0
    outer loop
      vertex 65.3 -8.34286 20.05
      vertex 65.3 -7.2 25.7
      vertex 65.3 -7.2 20.05
    endloop
  endfacet
  facet normal -1 -0 0
    outer loop
      vertex 65.3 -7.2 25.7
      vertex 65.3 -8.34286 20.05
      vertex 65.3 -8.34286 25.7
    endloop
  endfacet
  facet normal 1 -0 0
    outer loop
      vertex 66.3 -9.48571 25.7
      vertex 66.3 -8.34286 20.05
      vertex 66.3 -8.34286 25.7
    endloop
  endfacet
  facet normal 1 0 0
    outer loop
      vertex 66.3 -8.34286 20.05
      vertex 66.3 -9.48571 25.7
      vertex 66.3 -9.48571 20.05
    endloop
  endfacet
  facet normal -1 0 0
    outer loop
      vertex 29.6 -14.1714 26.6
      vertex 29.6 -13.0286 32.25
      vertex 29.6 -13.0286 26.6
    endloop
  endfacet
  facet normal -1 -0 0
    outer loop
      vertex 29.6 -13.0286 32.25
      vertex 29.6 -14.1714 26.6
      vertex 29.6 -14.1714 32.25
    endloop
  endfacet
  facet normal 1 -0 0
    outer loop
      vertex 30.6 -13.0286 32.25
      vertex 30.6 -11.8857 26.6
      vertex 30.6 -11.8857 32.25
    endloop
  endfacet
  facet normal 1 0 0
    outer loop
      vertex 30.6 -11.8857 26.6
      vertex 30.6 -13.0286 32.25
      vertex 30.6 -13.0286 26.6
    endloop
  endfacet
  facet normal -1 0 0
    outer loop
      vertex 39.8 -2.51429 26.6
      vertex 39.8 -1.37143 32.25
      vertex 39.8 -1.37143 26.6
    endloop
  endfacet
  facet normal -1 -0 0
    outer loop
      vertex 39.8 -1.37143 32.25
      vertex 39.8 -2.51429 26.6
      vertex 39.8 -2.51429 32.25
    endloop
  endfacet
  facet normal 1 -0 0
    outer loop
      vertex 40.8 -1.37143 32.25
      vertex 40.8 -0.228572 26.6
      vertex 40.8 -0.228572 32.25
    endloop
  endfacet
  facet normal 1 0 0
    outer loop
      vertex 40.8 -0.228572 26.6
      vertex 40.8 -1.37143 32.25
      vertex 40.8 -1.37143 26.6
    endloop
  endfacet
  facet normal -1 0 0
    outer loop
      vertex 50 8 30.05
      vertex 50 5.94286 32.25
      vertex 50 8 31.05
    endloop
  endfacet
  facet normal -1 -0 -0
    outer loop
      vertex 50 5.94286 32.25
      vertex 50 8 30.05
      vertex 50 4.22857 32.25
    endloop
  endfacet
  facet normal 1 0 0
    outer loop
      vertex 51 5.94286 32.25
      vertex 51 8 30.05
      vertex 51 8 31.05
    endloop
  endfacet
  facet normal 1 0 0
    outer loop
      vertex 51 8 30.05
      vertex 51 5.94286 32.25
      vertex 51 4.22857 32.25
    endloop
  endfacet
  facet normal -1 0 0
    outer loop
      vertex 60.2 -2.51429 26.6
      vertex 60.2 -1.37143 32.25
      vertex 60.2 -1.37143 26.6
    endloop
  endfacet
  facet normal -1 -0 0
    outer loop
      vertex 60.2 -1.37143 32.25
      vertex 60.2 -2.51429 26.6
      vertex 60.2 -2.51429 32.25
    endloop
  endfacet
  facet normal 1 -0 0
    outer loop
      vertex 61.2 -3.65714 32.25
      vertex 61.2 -2.51429 26.6
      vertex 61.2 -2.51429 32.25
    endloop
  endfacet
  facet normal 1 0 0
    outer loop
      vertex 61.2 -2.51429 26.6
      vertex 61.2 -3.65714 32.25
      vertex 61.2 -3.65714 26.6
    endloop
  endfacet
  facet normal -1 0 0
    outer loop
      vertex 70.4 -14.1714 26.6
      vertex 70.4 -13.0286 32.25
      vertex 70.4 -13.0286 26.6
    endloop
  endfacet
  facet normal -1 -0 0
    outer loop
      vertex 70.4 -13.0286 32.25
      vertex 70.4 -14.1714 26.6
      vertex 70.4 -14.1714 32.25
    endloop
  endfacet
  facet normal 1 -0 0
    outer loop
      vertex 71.4 -15.3143 32.25
      vertex 71.4 -14.1714 26.6
      vertex 71.4 -14.1714 32.25
    endloop
  endfacet
  facet normal 1 0 0
    outer loop
      vertex 71.4 -14.1714 26.6
      vertex 71.4 -15.3143 32.25
      vertex 71.4 -15.3143 26.6
    endloop
  endfacet
  facet normal -1 0 0
    outer loop
      vertex 34.7 -8.34286 33.15
      vertex 34.7 -7.2 39.3
      vertex 34.7 -7.2 33.15
    endloop
  endfacet
  facet normal -1 -0 0
    outer loop
      vertex 34.7 -7.2 39.3
      vertex 34.7 -8.34286 33.15
      vertex 34.7 -8.34286 39.3
    endloop
  endfacet
  facet normal -0 0 1
    outer loop
      vertex 35.625 -6.14286 39.3
      vertex 35.7 -7.85714 39.3
      vertex 35.7 -6.14286 39.3
    endloop
  endfacet
  facet normal -0 0 1
    outer loop
      vertex 34.7 -7.2 39.3
      vertex 35.7 -7.85714 39.3
      vertex 35.625 -6.14286 39.3
    endloop
  endfacet
  facet normal 0 0 1
    outer loop
      vertex 35.7 -7.85714 39.3
      vertex 34.7 -7.2 39.3
      vertex 35.125 -7.85714 39.3
    endloop
  endfacet
  facet normal 0 0 1
    outer loop
      vertex 35.125 -7.85714 39.3
      vertex 34.7 -7.2 39.3
      vertex 34.7 -8.34286 39.3
    endloop
  endfacet
  facet normal 1 0 0
    outer loop
      vertex 35.7 -6.14286 39.3
      vertex 35.7 -7.85714 39.3
      vertex 35.7 -7.2 38.9167
    endloop
  endfacet
  facet normal 1 0 0
    outer loop
      vertex 35.7 -7.2 38.9167
      vertex 35.7 -6.05714 39.25
      vertex 35.7 -6.14286 39.3
    endloop
  endfacet
  facet normal 1 0 0
    outer loop
      vertex 35.7 -6.05714 39.25
      vertex 35.7 -7.2 38.9167
      vertex 35.7 -6.05714 33.15
    endloop
  endfacet
  facet normal 1 0 0
    outer loop
      vertex 35.7 -6.05714 33.15
      vertex 35.7 -7.2 38.9167
      vertex 35.7 -7.2 33.15
    endloop
  endfacet
  facet normal -1 0 0
    outer loop
      vertex 44.9 2.68571 33.15
      vertex 44.9 -6.14286 39.3
      vertex 44.9 4.4 33.15
    endloop
  endfacet
  facet normal -1 -0 -0
    outer loop
      vertex 44.9 -6.14286 39.3
      vertex 44.9 2.68571 33.15
      vertex 44.9 -7.85714 39.3
    endloop
  endfacet
  facet normal -0 0 1
    outer loop
      vertex 44.9 -6.14286 39.3
      vertex 45.9 -7.85714 39.3
      vertex 45.9 -6.14286 39.3
    endloop
  endfacet
  facet normal 0 0 1
    outer loop
      vertex 45.9 -7.85714 39.3
      vertex 44.9 -6.14286 39.3
      vertex 44.9 -7.85714 39.3
    endloop
  endfacet
  facet normal 1 0 0
    outer loop
      vertex 45.9 -6.14286 39.3
      vertex 45.9 2.68571 33.15
      vertex 45.9 4.4 33.15
    endloop
  endfacet
  facet normal 1 0 0
    outer loop
      vertex 45.9 2.68571 33.15
      vertex 45.9 -6.14286 39.3
      vertex 45.9 -7.85714 39.3
    endloop
  endfacet
  facet normal -1 0 0
    outer loop
      vertex 55.1 2.68571 33.15
      vertex 55.1 -6.14286 39.3
      vertex 55.1 4.4 33.15
    endloop
  endfacet
  facet normal -1 -0 -0
    outer loop
      vertex 55.1 -6.14286 39.3
      vertex 55.1 2.68571 33.15
      vertex 55.1 -7.85714 39.3
    endloop
  endfacet
  facet normal -0 0 1
    outer loop
      vertex 55.1 -6.14286 39.3
      vertex 56.1 -7.85714 39.3
      vertex 56.1 -6.14286 39.3
    endloop
  endfacet
  facet normal 0 0 1
    outer loop
      vertex 56.1 -7.85714 39.3
      vertex 55.1 -6.14286 39.3
      vertex 55.1 -7.85714 39.3
    endloop
  endfacet
  facet normal 1 0 0
    outer loop
      vertex 56.1 3.31429 33.7833
      vertex 56.1 2.17143 33.45
      vertex 56.1 3.31429 33.15
    endloop
  endfacet
  facet normal 1 0 0
    outer loop
      vertex 56.1 -6.14286 39.3
      vertex 56.1 2.17143 33.45
      vertex 56.1 3.31429 33.7833
    endloop
  endfacet
  facet normal 1 0 0
    outer loop
      vertex 56.1 2.17143 33.45
      vertex 56.1 -6.14286 39.3
      vertex 56.1 -7.85714 39.3
    endloop
  endfacet
  facet normal 1 0 0
    outer loop
      vertex 56.1 3.31429 33.15
      vertex 56.1 2.17143 33.45
      vertex 56.1 2.17143 33.15
    endloop
  endfacet
  facet normal -1 0 0
    outer loop
      vertex 65.3 -8.34286 33.15
      vertex 65.3 -7.2 39.3
      vertex 65.3 -7.2 33.15
    endloop
  endfacet
  facet normal -1 -0 0
    outer loop
      vertex 65.3 -7.2 39.3
      vertex 65.3 -8.34286 33.15
      vertex 65.3 -8.34286 39.3
    endloop
  endfacet
  facet normal 0 0 1
    outer loop
      vertex 65.3 -8.34286 39.3
      vertex 66.3 -8.34286 39.3
      vertex 65.3 -7.2 39.3
    endloop
  endfacet
  facet normal 0 0 1
    outer loop
      vertex 66.3 -8.34286 39.3
      vertex 65.3 -8.34286 39.3
      vertex 66.3 -9.48571 39.3
    endloop
  endfacet
  facet normal 1 -0 0
    outer loop
      vertex 66.3 -9.48571 39.3
      vertex 66.3 -8.34286 33.15
      vertex 66.3 -8.34286 39.3
    endloop
  endfacet
  facet normal 1 0 0
    outer loop
      vertex 66.3 -8.34286 33.15
      vertex 66.3 -9.48571 39.3
      vertex 66.3 -9.48571 33.15
    endloop
  endfacet
  facet normal 0 0 1
    outer loop
      vertex 27 -16 6.95
      vertex 34.7 -8.34286 6.95
      vertex 34.7 -7.2 6.95
    endloop
  endfacet
  facet normal 0 0 1
    outer loop
      vertex 34.7 -8.34286 6.95
      vertex 27 -16 6.95
      vertex 28 -16 6.95
    endloop
  endfacet
  facet normal 0 0 1
    outer loop
      vertex 45.9 5.6 6.95
      vertex 49 8 6.95
      vertex 48 8 6.95
    endloop
  endfacet
  facet normal 0 0 1
    outer loop
      vertex 49 8 6.95
      vertex 45.9 5.6 6.95
      vertex 45.9 4.45714 6.95
    endloop
  endfacet
  facet normal -0 0 1
    outer loop
      vertex 51 8 6.95
      vertex 55.1 4.45714 6.95
      vertex 52 8 6.95
    endloop
  endfacet
  facet normal 0 0 1
    outer loop
      vertex 55.1 4.45714 6.95
      vertex 51 8 6.95
      vertex 55.1 3.31429 6.95
    endloop
  endfacet
  facet normal -0 0 1
    outer loop
      vertex 66.3 -9.48571 6.95
      vertex 73 -16 6.95
      vertex 66.3 -8.34286 6.95
    endloop
  endfacet
  facet normal 0 0 1
    outer loop
      vertex 73 -16 6.95
      vertex 66.3 -9.48571 6.95
      vertex 72 -16 6.95
    endloop
  endfacet
  facet normal 0 0 1
    outer loop
      vertex 35.7 -6.05714 6.95
      vertex 44.9 3.31429 6.95
      vertex 44.9 4.45714 6.95
    endloop
  endfacet
  facet normal 0 0 1
    outer loop
      vertex 44.9 3.31429 6.95
      vertex 35.7 -6.05714 6.95
      vertex 35.7 -7.2 6.95
    endloop
  endfacet
  facet normal -0 0 1
    outer loop
      vertex 56.1 2.17143 6.95
      vertex 65.3 -7.2 6.95
      vertex 56.1 3.31429 6.95
    endloop
  endfacet
  facet normal 0 0 1
    outer loop
      vertex 65.3 -7.2 6.95
      vertex 56.1 2.17143 6.95
      vertex 65.3 -8.34286 6.95
    endloop
  endfacet
  facet normal 0 0 -1
    outer loop
      vertex 29.6 -16 6.05
      vertex 27 -16 6.05
      vertex 29.6 -13.0286 6.05
    endloop
  endfacet
  facet normal 0 0 -1
    outer loop
      vertex 30.6 -11.8857 6.05
      vertex 39.8 -16 6.05
      vertex 30.6 -16 6.05
    endloop
  endfacet
  facet normal 0 0 -1
    outer loop
      vertex 39.8 -16 6.05
      vertex 30.6 -11.8857 6.05
      vertex 39.8 -1.37143 6.05
    endloop
  endfacet
  facet normal 0 0 -1
    outer loop
      vertex 40.8 -0.228572 6.05
      vertex 50 8 6.05
      vertex 50 -16 6.05
    endloop
  endfacet
  facet normal 0 0 -1
    outer loop
      vertex 40.8 -0.228572 6.05
      vertex 50 -16 6.05
      vertex 40.8 -16 6.05
    endloop
  endfacet
  facet normal -0 0 -1
    outer loop
      vertex 50 8 6.05
      vertex 40.8 -0.228572 6.05
      vertex 48 8 6.05
    endloop
  endfacet
  facet normal 0 0 -1
    outer loop
      vertex 51 -16 6.05
      vertex 60.2 -1.37143 6.05
      vertex 60.2 -16 6.05
    endloop
  endfacet
  facet normal 0 0 -1
    outer loop
      vertex 51 8 6.05
      vertex 60.2 -1.37143 6.05
      vertex 51 -16 6.05
    endloop
  endfacet
  facet normal 0 0 -1
    outer loop
      vertex 60.2 -1.37143 6.05
      vertex 51 8 6.05
      vertex 52 8 6.05
    endloop
  endfacet
  facet normal 0 0 -1
    outer loop
      vertex 61.2 -16 6.05
      vertex 70.4 -13.0286 6.05
      vertex 70.4 -16 6.05
    endloop
  endfacet
  facet normal -0 0 -1
    outer loop
      vertex 70.4 -13.0286 6.05
      vertex 61.2 -16 6.05
      vertex 61.2 -2.51429 6.05
    endloop
  endfacet
  facet normal 0 0 -1
    outer loop
      vertex 73 -16 6.05
      vertex 71.4 -16 6.05
      vertex 71.4 -14.1714 6.05
    endloop
  endfacet
  facet normal -0 0 1
    outer loop
      vertex 51 8 13.5
      vertex 60.2 -1.37143 13.5
      vertex 52 8 13.5
    endloop
  endfacet
  facet normal 0 0 1
    outer loop
      vertex 60.2 -1.37143 13.5
      vertex 51 8 13.5
      vertex 60.2 -2.51429 13.5
    endloop
  endfacet
  facet normal 0 0 1
    outer loop
      vertex 27 -16 13.5
      vertex 29.6 -14.1714 13.5
      vertex 29.6 -13.0286 13.5
    endloop
  endfacet
  facet normal 0 0 1
    outer loop
      vertex 29.6 -14.1714 13.5
      vertex 27 -16 13.5
      vertex 28 -16 13.5
    endloop
  endfacet
  facet normal 0 0 1
    outer loop
      vertex 40.8 -0.228572 13.5
      vertex 49 8 13.5
      vertex 48 8 13.5
    endloop
  endfacet
  facet normal 0 0 1
    outer loop
      vertex 49 8 13.5
      vertex 40.8 -0.228572 13.5
      vertex 40.8 -1.37143 13.5
    endloop
  endfacet
  facet normal -0 0 1
    outer loop
      vertex 71.4 -15.3143 13.5
      vertex 73 -16 13.5
      vertex 71.4 -14.1714 13.5
    endloop
  endfacet
  facet normal 0 0 1
    outer loop
      vertex 73 -16 13.5
      vertex 71.4 -15.3143 13.5
      vertex 72 -16 13.5
    endloop
  endfacet
  facet normal 0 0 1
    outer loop
      vertex 30.6 -11.8857 13.5
      vertex 39.8 -2.51429 13.5
      vertex 39.8 -1.37143 13.5
    endloop
  endfacet
  facet normal 0 0 1
    outer loop
      vertex 39.8 -2.51429 13.5
      vertex 30.6 -11.8857 13.5
      vertex 30.6 -13.0286 13.5
    endloop
  endfacet
  facet normal -0 0 1
    outer loop
      vertex 61.2 -3.65714 13.5
      vertex 70.4 -13.0286 13.5
      vertex 61.2 -2.51429 13.5
    endloop
  endfacet
  facet normal 0 0 1
    outer loop
      vertex 70.4 -13.0286 13.5
      vertex 61.2 -3.65714 13.5
      vertex 70.4 -14.1714 13.5
    endloop
  endfacet
  facet normal 0 0 -1
    outer loop
      vertex 27 -16 12.6
      vertex 34.7 -8.34286 12.6
      vertex 28 -16 12.6
    endloop
  endfacet
  facet normal -0 0 -1
    outer loop
      vertex 34.7 -8.34286 12.6
      vertex 27 -16 12.6
      vertex 34.7 -7.2 12.6
    endloop
  endfacet
  facet normal 0 0 -1
    outer loop
      vertex 45.9 5.6 12.6
      vertex 49 8 12.6
      vertex 45.9 4.45714 12.6
    endloop
  endfacet
  facet normal -0 0 -1
    outer loop
      vertex 49 8 12.6
      vertex 45.9 5.6 12.6
      vertex 48 8 12.6
    endloop
  endfacet
  facet normal 0 0 -1
    outer loop
      vertex 51 8 12.6
      vertex 55.1 4.45714 12.6
      vertex 55.1 3.31429 12.6
    endloop
  endfacet
  facet normal 0 0 -1
    outer loop
      vertex 55.1 4.45714 12.6
      vertex 51 8 12.6
      vertex 52 8 12.6
    endloop
  endfacet
  facet normal 0 0 -1
    outer loop
      vertex 66.3 -9.48571 12.6
      vertex 73 -16 12.6
      vertex 72 -16 12.6
    endloop
  endfacet
  facet normal 0 0 -1
    outer loop
      vertex 73 -16 12.6
      vertex 66.3 -9.48571 12.6
      vertex 66.3 -8.34286 12.6
    endloop
  endfacet
  facet normal 0 0 -1
    outer loop
      vertex 35.7 -6.05714 12.6
      vertex 44.9 3.31429 12.6
      vertex 35.7 -7.2 12.6
    endloop
  endfacet
  facet normal -0 0 -1
    outer loop
      vertex 44.9 3.31429 12.6
      vertex 35.7 -6.05714 12.6
      vertex 44.9 4.45714 12.6
    endloop
  endfacet
  facet normal 0 0 -1
    outer loop
      vertex 56.1 2.17143 12.6
      vertex 65.3 -7.2 12.6
      vertex 65.3 -8.34286 12.6
    endloop
  endfacet
  facet normal 0 0 -1
    outer loop
      vertex 65.3 -7.2 12.6
      vertex 56.1 2.17143 12.6
      vertex 56.1 3.31429 12.6
    endloop
  endfacet
  facet normal 0 0 1
    outer loop
      vertex 27 -16 20.05
      vertex 34.7 -8.34286 20.05
      vertex 34.7 -7.2 20.05
    endloop
  endfacet
  facet normal 0 0 1
    outer loop
      vertex 34.7 -8.34286 20.05
      vertex 27 -16 20.05
      vertex 28 -16 20.05
    endloop
  endfacet
  facet normal 0 0 1
    outer loop
      vertex 45.9 5.6 20.05
      vertex 49 8 20.05
      vertex 48 8 20.05
    endloop
  endfacet
  facet normal 0 0 1
    outer loop
      vertex 49 8 20.05
      vertex 45.9 5.6 20.05
      vertex 45.9 4.45714 20.05
    endloop
  endfacet
  facet normal -0 0 1
    outer loop
      vertex 51 8 20.05
      vertex 55.1 4.45714 20.05
      vertex 52 8 20.05
    endloop
  endfacet
  facet normal 0 0 1
    outer loop
      vertex 55.1 4.45714 20.05
      vertex 51 8 20.05
      vertex 55.1 3.31429 20.05
    endloop
  endfacet
  facet normal -0 0 1
    outer loop
      vertex 66.3 -9.48571 20.05
      vertex 73 -16 20.05
      vertex 66.3 -8.34286 20.05
    endloop
  endfacet
  facet normal 0 0 1
    outer loop
      vertex 73 -16 20.05
      vertex 66.3 -9.48571 20.05
      vertex 72 -16 20.05
    endloop
  endfacet
  facet normal 0 0 1
    outer loop
      vertex 35.7 -6.05714 20.05
      vertex 44.9 3.31429 20.05
      vertex 44.9 4.45714 20.05
    endloop
  endfacet
  facet normal 0 0 1
    outer loop
      vertex 44.9 3.31429 20.05
      vertex 35.7 -6.05714 20.05
      vertex 35.7 -7.2 20.05
    endloop
  endfacet
  facet normal -0 0 1
    outer loop
      vertex 56.1 2.17143 20.05
      vertex 65.3 -7.2 20.05
      vertex 56.1 3.31429 20.05
    endloop
  endfacet
  facet normal 0 0 1
    outer loop
      vertex 65.3 -7.2 20.05
      vertex 56.1 2.17143 20.05
      vertex 65.3 -8.34286 20.05
    endloop
  endfacet
  facet normal 0 0 -1
    outer loop
      vertex 51 8 19.15
      vertex 60.2 -1.37143 19.15
      vertex 60.2 -2.51429 19.15
    endloop
  endfacet
  facet normal 0 0 -1
    outer loop
      vertex 60.2 -1.37143 19.15
      vertex 51 8 19.15
      vertex 52 8 19.15
    endloop
  endfacet
  facet normal 0 0 -1
    outer loop
      vertex 27 -16 19.15
      vertex 29.6 -14.1714 19.15
      vertex 28 -16 19.15
    endloop
  endfacet
  facet normal -0 0 -1
    outer loop
      vertex 29.6 -14.1714 19.15
      vertex 27 -16 19.15
      vertex 29.6 -13.0286 19.15
    endloop
  endfacet
  facet normal 0 0 -1
    outer loop
      vertex 40.8 -0.228572 19.15
      vertex 49 8 19.15
      vertex 40.8 -1.37143 19.15
    endloop
  endfacet
  facet normal -0 0 -1
    outer loop
      vertex 49 8 19.15
      vertex 40.8 -0.228572 19.15
      vertex 48 8 19.15
    endloop
  endfacet
  facet normal 0 0 -1
    outer loop
      vertex 71.4 -15.3143 19.15
      vertex 73 -16 19.15
      vertex 72 -16 19.15
    endloop
  endfacet
  facet normal 0 0 -1
    outer loop
      vertex 73 -16 19.15
      vertex 71.4 -15.3143 19.15
      vertex 71.4 -14.1714 19.15
    endloop
  endfacet
  facet normal 0 0 -1
    outer loop
      vertex 30.6 -11.8857 19.15
      vertex 39.8 -2.51429 19.15
      vertex 30.6 -13.0286 19.15
    endloop
  endfacet
  facet normal -0 0 -1
    outer loop
      vertex 39.8 -2.51429 19.15
      vertex 30.6 -11.8857 19.15
      vertex 39.8 -1.37143 19.15
    endloop
  endfacet
  facet normal 0 0 -1
    outer loop
      vertex 61.2 -3.65714 19.15
      vertex 70.4 -13.0286 19.15
      vertex 70.4 -14.1714 19.15
    endloop
  endfacet
  facet normal 0 0 -1
    outer loop
      vertex 70.4 -13.0286 19.15
      vertex 61.2 -3.65714 19.15
      vertex 61.2 -2.51429 19.15
    endloop
  endfacet
  facet normal -0 0 1
    outer loop
      vertex 51 8 26.6
      vertex 60.2 -1.37143 26.6
      vertex 52 8 26.6
    endloop
  endfacet
  facet normal 0 0 1
    outer loop
      vertex 60.2 -1.37143 26.6
      vertex 51 8 26.6
      vertex 60.2 -2.51429 26.6
    endloop
  endfacet
  facet normal 0 0 1
    outer loop
      vertex 27 -16 26.6
      vertex 29.6 -14.1714 26.6
      vertex 29.6 -13.0286 26.6
    endloop
  endfacet
  facet normal 0 0 1
    outer loop
      vertex 29.6 -14.1714 26.6
      vertex 27 -16 26.6
      vertex 28 -16 26.6
    endloop
  endfacet
  facet normal 0 0 1
    outer loop
      vertex 40.8 -0.228572 26.6
      vertex 49 8 26.6
      vertex 48 8 26.6
    endloop
  endfacet
  facet normal 0 0 1
    outer loop
      vertex 49 8 26.6
      vertex 40.8 -0.228572 26.6
      vertex 40.8 -1.37143 26.6
    endloop
  endfacet
  facet normal -0 0 1
    outer loop
      vertex 71.4 -15.3143 26.6
      vertex 73 -16 26.6
      vertex 71.4 -14.1714 26.6
    endloop
  endfacet
  facet normal 0 0 1
    outer loop
      vertex 73 -16 26.6
      vertex 71.4 -15.3143 26.6
      vertex 72 -16 26.6
    endloop
  endfacet
  facet normal 0 0 1
    outer loop
      vertex 30.6 -11.8857 26.6
      vertex 39.8 -2.51429 26.6
      vertex 39.8 -1.37143 26.6
    endloop
  endfacet
  facet normal 0 0 1
    outer loop
      vertex 39.8 -2.51429 26.6
      vertex 30.6 -11.8857 26.6
      vertex 30.6 -13.0286 26.6
    endloop
  endfacet
  facet normal -0 0 1
    outer loop
      vertex 61.2 -3.65714 26.6
      vertex 70.4 -13.0286 26.6
      vertex 61.2 -2.51429 26.6
    endloop
  endfacet
  facet normal 0 0 1
    outer loop
      vertex 70.4 -13.0286 26.6
      vertex 61.2 -3.65714 26.6
      vertex 70.4 -14.1714 26.6
    endloop
  endfacet
  facet normal 0 0 -1
    outer loop
      vertex 27 -16 25.7
      vertex 34.7 -8.34286 25.7
      vertex 28 -16 25.7
    endloop
  endfacet
  facet normal -0 0 -1
    outer loop
      vertex 34.7 -8.34286 25.7
      vertex 27 -16 25.7
      vertex 34.7 -7.2 25.7
    endloop
  endfacet
  facet normal 0 0 -1
    outer loop
      vertex 45.9 5.6 25.7
      vertex 49 8 25.7
      vertex 45.9 4.45714 25.7
    endloop
  endfacet
  facet normal -0 0 -1
    outer loop
      vertex 49 8 25.7
      vertex 45.9 5.6 25.7
      vertex 48 8 25.7
    endloop
  endfacet
  facet normal 0 0 -1
    outer loop
      vertex 51 8 25.7
      vertex 55.1 4.45714 25.7
      vertex 55.1 3.31429 25.7
    endloop
  endfacet
  facet normal 0 0 -1
    outer loop
      vertex 55.1 4.45714 25.7
      vertex 51 8 25.7
      vertex 52 8 25.7
    endloop
  endfacet
  facet normal 0 0 -1
    outer loop
      vertex 66.3 -9.48571 25.7
      vertex 73 -16 25.7
      vertex 72 -16 25.7
    endloop
  endfacet
  facet normal 0 0 -1
    outer loop
      vertex 73 -16 25.7
      vertex 66.3 -9.48571 25.7
      vertex 66.3 -8.34286 25.7
    endloop
  endfacet
  facet normal 0 0 -1
    outer loop
      vertex 35.7 -6.05714 25.7
      vertex 44.9 3.31429 25.7
      vertex 35.7 -7.2 25.7
    endloop
  endfacet
  facet normal -0 0 -1
    outer loop
      vertex 44.9 3.31429 25.7
      vertex 35.7 -6.05714 25.7
      vertex 44.9 4.45714 25.7
    endloop
  endfacet
  facet normal 0 0 -1
    outer loop
      vertex 56.1 2.17143 25.7
      vertex 65.3 -7.2 25.7
      vertex 65.3 -8.34286 25.7
    endloop
  endfacet
  facet normal 0 0 -1
    outer loop
      vertex 65.3 -7.2 25.7
      vertex 56.1 2.17143 25.7
      vertex 56.1 3.31429 25.7
    endloop
  endfacet
  facet normal 0 0 1
    outer loop
      vertex 27 -16 33.15
      vertex 34.7 -8.34286 33.15
      vertex 34.7 -7.2 33.15
    endloop
  endfacet
  facet normal 0 0 1
    outer loop
      vertex 34.7 -8.34286 33.15
      vertex 27 -16 33.15
      vertex 28 -16 33.15
    endloop
  endfacet
  facet normal -0 0 1
    outer loop
      vertex 66.3 -9.48571 33.15
      vertex 73 -16 33.15
      vertex 66.3 -8.34286 33.15
    endloop
  endfacet
  facet normal 0 0 1
    outer loop
      vertex 73 -16 33.15
      vertex 66.3 -9.48571 33.15
      vertex 72 -16 33.15
    endloop
  endfacet
  facet normal -0 0 1
    outer loop
      vertex 44.85 4.4 33.15
      vertex 44.9 2.68571 33.15
      vertex 44.9 4.4 33.15
    endloop
  endfacet
  facet normal 0 0 1
    outer loop
      vertex 44.85 4.4 33.15
      vertex 44.35 2.68571 33.15
      vertex 44.9 2.68571 33.15
    endloop
  endfacet
  facet normal 0 0 1
    outer loop
      vertex 35.7 -6.05714 33.15
      vertex 44.35 2.68571 33.15
      vertex 44.85 4.4 33.15
    endloop
  endfacet
  facet normal 0 0 1
    outer loop
      vertex 44.35 2.68571 33.15
      vertex 35.7 -6.05714 33.15
      vertex 35.7 -7.2 33.15
    endloop
  endfacet
  facet normal -0 0 1
    outer loop
      vertex 45.9 4.4 33.15
      vertex 55.1 2.68571 33.15
      vertex 55.1 4.4 33.15
    endloop
  endfacet
  facet normal 0 0 1
    outer loop
      vertex 55.1 2.68571 33.15
      vertex 45.9 4.4 33.15
      vertex 45.9 2.68571 33.15
    endloop
  endfacet
  facet normal -0 0 1
    outer loop
      vertex 56.1 2.17143 33.15
      vertex 65.3 -7.2 33.15
      vertex 56.1 3.31429 33.15
    endloop
  endfacet
  facet normal 0 0 1
    outer loop
      vertex 65.3 -7.2 33.15
      vertex 56.1 2.17143 33.15
      vertex 65.3 -8.34286 33.15
    endloop
  endfacet
  facet normal 0 0 -1
    outer loop
      vertex 27 -16 32.25
      vertex 29.6 -14.1714 32.25
      vertex 28 -16 32.25
    endloop
  endfacet
  facet normal -0 0 -1
    outer loop
      vertex 29.6 -14.1714 32.25
      vertex 27 -16 32.25
      vertex 29.6 -13.0286 32.25
    endloop
  endfacet
  facet normal 0 0 -1
    outer loop
      vertex 71.4 -15.3143 32.25
      vertex 73 -16 32.25
      vertex 72 -16 32.25
    endloop
  endfacet
  facet normal 0 0 -1
    outer loop
      vertex 73 -16 32.25
      vertex 71.4 -15.3143 32.25
      vertex 71.4 -14.1714 32.25
    endloop
  endfacet
  facet normal 0 0 -1
    outer loop
      vertex 50 4.22857 32.25
      vertex 46.2 5.94286 32.25
      vertex 50 5.94286 32.25
    endloop
  endfacet
  facet normal 0 0 -1
    outer loop
      vertex 45.7 4.22857 32.25
      vertex 46.2 5.94286 32.25
      vertex 50 4.22857 32.25
    endloop
  endfacet
  facet normal 0 0 -1
    outer loop
      vertex 40.8 -0.228572 32.25
      vertex 45.7 4.22857 32.25
      vertex 40.8 -1.37143 32.25
    endloop
  endfacet
  facet normal -0 0 -1
    outer loop
      vertex 45.7 4.22857 32.25
      vertex 40.8 -0.228572 32.25
      vertex 46.2 5.94286 32.25
    endloop
  endfacet
  facet normal 0 0 -1
    outer loop
      vertex 54.3 4.22857 32.25
      vertex 60.2 -1.37143 32.25
      vertex 60.2 -2.51429 32.25
    endloop
  endfacet
  facet normal 0 0 -1
    outer loop
      vertex 54.3 4.22857 32.25
      vertex 53.8 5.94286 32.25
      vertex 60.2 -1.37143 32.25
    endloop
  endfacet
  facet normal 0 0 -1
    outer loop
      vertex 51 4.22857 32.25
      vertex 53.8 5.94286 32.25
      vertex 54.3 4.22857 32.25
    endloop
  endfacet
  facet normal -0 0 -1
    outer loop
      vertex 53.8 5.94286 32.25
      vertex 51 4.22857 32.25
      vertex 51 5.94286 32.25
    endloop
  endfacet
  facet normal 0 0 -1
    outer loop
      vertex 30.6 -11.8857 32.25
      vertex 39.8 -2.51429 32.25
      vertex 30.6 -13.0286 32.25
    endloop
  endfacet
  facet normal -0 0 -1
    outer loop
      vertex 39.8 -2.51429 32.25
      vertex 30.6 -11.8857 32.25
      vertex 39.8 -1.37143 32.25
    endloop
  endfacet
  facet normal 0 0 -1
    outer loop
      vertex 61.2 -3.65714 32.25
      vertex 70.4 -13.0286 32.25
      vertex 70.4 -14.1714 32.25
    endloop
  endfacet
  facet normal 0 0 -1
    outer loop
      vertex 70.4 -13.0286 32.25
      vertex 61.2 -3.65714 32.25
      vertex 61.2 -2.51429 32.25
    endloop
  endfacet
  facet normal 0 -1 0
    outer loop
      vertex 28 -17 6.05
      vertex 72 -17 44.05
      vertex 28 -17 44.05
    endloop
  endfacet
  facet normal 0 -1 -0
    outer loop
      vertex 72 -17 44.05
      vertex 28 -17 6.05
      vertex 72 -17 6.05
    endloop
  endfacet
  facet normal -0 0 1
    outer loop
      vertex 28 -16 44.05
      vertex 72 -17 44.05
      vertex 72 -16 44.05
    endloop
  endfacet
  facet normal 0 0 1
    outer loop
      vertex 72 -17 44.05
      vertex 28 -16 44.05
      vertex 28 -17 44.05
    endloop
  endfacet
  facet normal 0 0 -1
    outer loop
      vertex 49 8 6.05
      vertex 51 14 6.05
      vertex 51 8 6.05
    endloop
  endfacet
  facet normal -0 0 -1
    outer loop
      vertex 51 14 6.05
      vertex 49 8 6.05
      vertex 49 14 6.05
    endloop
  endfacet
  facet normal 0 0 -1
    outer loop
      vertex 28 -17 6.05
      vertex 72 -16 6.05
      vertex 72 -17 6.05
    endloop
  endfacet
  facet normal -0 0 -1
    outer loop
      vertex 72 -16 6.05
      vertex 28 -17 6.05
      vertex 28 -16 6.05
    endloop
  endfacet
  facet normal 1 -0 0
    outer loop
      vertex 72 -17 44.05
      vertex 72 -16 33.15
      vertex 72 -16 44.05
    endloop
  endfacet
  facet normal 1 0 0
    outer loop
      vertex 72 -16 33.15
      vertex 72 -17 44.05
      vertex 72 -16 32.25
    endloop
  endfacet
  facet normal 1 0 0
    outer loop
      vertex 72 -16 32.25
      vertex 72 -17 44.05
      vertex 72 -16 26.6
    endloop
  endfacet
  facet normal 1 0 0
    outer loop
      vertex 72 -16 26.6
      vertex 72 -17 44.05
      vertex 72 -16 25.7
    endloop
  endfacet
  facet normal 1 0 0
    outer loop
      vertex 72 -17 6.05
      vertex 72 -16 25.7
      vertex 72 -17 44.05
    endloop
  endfacet
  facet normal 1 0 0
    outer loop
      vertex 72 -16 25.7
      vertex 72 -17 6.05
      vertex 72 -16 20.05
    endloop
  endfacet
  facet normal 1 0 0
    outer loop
      vertex 72 -16 20.05
      vertex 72 -17 6.05
      vertex 72 -16 19.15
    endloop
  endfacet
  facet normal 1 0 0
    outer loop
      vertex 72 -16 19.15
      vertex 72 -17 6.05
      vertex 72 -16 13.5
    endloop
  endfacet
  facet normal 1 0 0
    outer loop
      vertex 72 -16 13.5
      vertex 72 -17 6.05
      vertex 72 -16 12.6
    endloop
  endfacet
  facet normal 1 0 0
    outer loop
      vertex 72 -16 12.6
      vertex 72 -17 6.05
      vertex 72 -16 6.95
    endloop
  endfacet
  facet normal 1 0 0
    outer loop
      vertex 72 -16 6.95
      vertex 72 -17 6.05
      vertex 72 -16 6.05
    endloop
  endfacet
  facet normal 0 0.503871 0.863779
    outer loop
      vertex 44.9 2.68571 33.15
      vertex 44.35 2.68571 33.15
      vertex 44.9 -7.85714 39.3
    endloop
  endfacet
  facet normal 0 0.503871 0.863779
    outer loop
      vertex 55.1 2.68571 33.15
      vertex 45.9 2.68571 33.15
      vertex 55.1 -7.85714 39.3
    endloop
  endfacet
  facet normal -4.15138e-09 0.503871 0.863779
    outer loop
      vertex 56.1 -7.85714 39.3
      vertex 72 -16 44.05
      vertex 56.1 2.17143 33.45
    endloop
  endfacet
  facet normal -0 0.503871 0.863779
    outer loop
      vertex 55.1 -7.85714 39.3
      vertex 72 -16 44.05
      vertex 56.1 -7.85714 39.3
    endloop
  endfacet
  facet normal -0 0.503871 0.863779
    outer loop
      vertex 45.9 -7.85714 39.3
      vertex 55.1 -7.85714 39.3
      vertex 45.9 2.68571 33.15
    endloop
  endfacet
  facet normal -0 0.503871 0.863779
    outer loop
      vertex 45.9 -7.85714 39.3
      vertex 72 -16 44.05
      vertex 55.1 -7.85714 39.3
    endloop
  endfacet
  facet normal 0 0.503871 0.863779
    outer loop
      vertex 28 -16 44.05
      vertex 45.9 -7.85714 39.3
      vertex 44.9 -7.85714 39.3
    endloop
  endfacet
  facet normal 9.00216e-08 0.503871 0.863779
    outer loop
      vertex 35.7 -7.2 38.9167
      vertex 44.9 -7.85714 39.3
      vertex 44.35 2.68571 33.15
    endloop
  endfacet
  facet normal -0 0.50387 0.86378
    outer loop
      vertex 35.7 -7.85714 39.3
      vertex 44.9 -7.85714 39.3
      vertex 35.7 -7.2 38.9167
    endloop
  endfacet
  facet normal 0 0.503871 0.863779
    outer loop
      vertex 28 -16 44.05
      vertex 44.9 -7.85714 39.3
      vertex 35.7 -7.85714 39.3
    endloop
  endfacet
  facet normal 0 0.503871 0.863779
    outer loop
      vertex 28 -16 44.05
      vertex 35.7 -7.85714 39.3
      vertex 35.125 -7.85714 39.3
    endloop
  endfacet
  facet normal 0 0.503871 0.863779
    outer loop
      vertex 45.9 -7.85714 39.3
      vertex 28 -16 44.05
      vertex 72 -16 44.05
    endloop
  endfacet
  facet normal -0 0.503871 0.863779
    outer loop
      vertex 49 8 30.05
      vertex 50 4.22857 32.25
      vertex 50 8 30.05
    endloop
  endfacet
  facet normal 0 0.503871 0.863779
    outer loop
      vertex 50 4.22857 32.25
      vertex 49 8 30.05
      vertex 45.7 4.22857 32.25
    endloop
  endfacet
  facet normal 0 0.503871 0.863779
    outer loop
      vertex 51 8 30.05
      vertex 51 4.22857 32.25
      vertex 54.3 4.22857 32.25
    endloop
  endfacet
  facet normal -0.752577 0.658505 0
    outer loop
      vertex 34.7 -8.34286 33.15
      vertex 28 -16 33.15
      vertex 34.7 -8.34286 39.3
    endloop
  endfacet
  facet normal -0.752578 0.658503 -5.51061e-06
    outer loop
      vertex 34.7 -8.34286 39.3
      vertex 28 -16 44.05
      vertex 35.125 -7.85714 39.3
    endloop
  endfacet
  facet normal -0.752577 0.658505 0
    outer loop
      vertex 28 -16 44.05
      vertex 34.7 -8.34286 39.3
      vertex 28 -16 33.15
    endloop
  endfacet
  facet normal -0.752577 0.658505 0
    outer loop
      vertex 49 8 26.6
      vertex 45.7 4.22857 32.25
      vertex 49 8 30.05
    endloop
  endfacet
  facet normal -0.752577 0.658505 1.03211e-07
    outer loop
      vertex 40.8 -1.37143 26.6
      vertex 45.7 4.22857 32.25
      vertex 49 8 26.6
    endloop
  endfacet
  facet normal -0.752577 0.658505 0
    outer loop
      vertex 45.7 4.22857 32.25
      vertex 40.8 -1.37143 26.6
      vertex 40.8 -1.37143 32.25
    endloop
  endfacet
  facet normal -0.752577 0.658505 0
    outer loop
      vertex 28 -16 6.95
      vertex 34.7 -8.34286 12.6
      vertex 34.7 -8.34286 6.95
    endloop
  endfacet
  facet normal -0.752577 0.658505 0
    outer loop
      vertex 34.7 -8.34286 12.6
      vertex 28 -16 6.95
      vertex 28 -16 12.6
    endloop
  endfacet
  facet normal -0.752577 0.658504 0
    outer loop
      vertex 45.9 4.45714 6.95
      vertex 49 8 12.6
      vertex 49 8 6.95
    endloop
  endfacet
  facet normal -0.752577 0.658504 0
    outer loop
      vertex 49 8 12.6
      vertex 45.9 4.45714 6.95
      vertex 45.9 4.45714 12.6
    endloop
  endfacet
  facet normal -0.752577 0.658504 0
    outer loop
      vertex 28 -16 26.6
      vertex 29.6 -14.1714 32.25
      vertex 29.6 -14.1714 26.6
    endloop
  endfacet
  facet normal -0.752577 0.658504 0
    outer loop
      vertex 29.6 -14.1714 32.25
      vertex 28 -16 26.6
      vertex 28 -16 32.25
    endloop
  endfacet
  facet normal -0.752577 0.658505 0
    outer loop
      vertex 28 -16 20.05
      vertex 34.7 -8.34286 25.7
      vertex 34.7 -8.34286 20.05
    endloop
  endfacet
  facet normal -0.752577 0.658505 0
    outer loop
      vertex 34.7 -8.34286 25.7
      vertex 28 -16 20.05
      vertex 28 -16 25.7
    endloop
  endfacet
  facet normal -0.752577 0.658504 0
    outer loop
      vertex 28 -16 13.5
      vertex 29.6 -14.1714 19.15
      vertex 29.6 -14.1714 13.5
    endloop
  endfacet
  facet normal -0.752577 0.658504 0
    outer loop
      vertex 29.6 -14.1714 19.15
      vertex 28 -16 13.5
      vertex 28 -16 19.15
    endloop
  endfacet
  facet normal -0.752577 0.658505 0
    outer loop
      vertex 40.8 -1.37143 13.5
      vertex 49 8 19.15
      vertex 49 8 13.5
    endloop
  endfacet
  facet normal -0.752577 0.658505 0
    outer loop
      vertex 49 8 19.15
      vertex 40.8 -1.37143 13.5
      vertex 40.8 -1.37143 19.15
    endloop
  endfacet
  facet normal -0.752577 0.658504 0
    outer loop
      vertex 45.9 4.45714 20.05
      vertex 49 8 25.7
      vertex 49 8 20.05
    endloop
  endfacet
  facet normal -0.752577 0.658504 0
    outer loop
      vertex 49 8 25.7
      vertex 45.9 4.45714 20.05
      vertex 45.9 4.45714 25.7
    endloop
  endfacet
  facet normal -0.752577 0.658505 0
    outer loop
      vertex 35.7 -7.2 6.95
      vertex 44.9 3.31429 12.6
      vertex 44.9 3.31429 6.95
    endloop
  endfacet
  facet normal -0.752577 0.658505 0
    outer loop
      vertex 44.9 3.31429 12.6
      vertex 35.7 -7.2 6.95
      vertex 35.7 -7.2 12.6
    endloop
  endfacet
  facet normal -0.752577 0.658505 0
    outer loop
      vertex 30.6 -13.0286 26.6
      vertex 39.8 -2.51429 32.25
      vertex 39.8 -2.51429 26.6
    endloop
  endfacet
  facet normal -0.752577 0.658505 0
    outer loop
      vertex 39.8 -2.51429 32.25
      vertex 30.6 -13.0286 26.6
      vertex 30.6 -13.0286 32.25
    endloop
  endfacet
  facet normal -0.752577 0.658505 0
    outer loop
      vertex 30.6 -13.0286 13.5
      vertex 39.8 -2.51429 19.15
      vertex 39.8 -2.51429 13.5
    endloop
  endfacet
  facet normal -0.752577 0.658505 0
    outer loop
      vertex 39.8 -2.51429 19.15
      vertex 30.6 -13.0286 13.5
      vertex 30.6 -13.0286 19.15
    endloop
  endfacet
  facet normal -0.752577 0.658505 0
    outer loop
      vertex 35.7 -7.2 20.05
      vertex 44.9 3.31429 25.7
      vertex 44.9 3.31429 20.05
    endloop
  endfacet
  facet normal -0.752577 0.658505 0
    outer loop
      vertex 44.9 3.31429 25.7
      vertex 35.7 -7.2 20.05
      vertex 35.7 -7.2 25.7
    endloop
  endfacet
  facet normal -0.752577 0.658505 0
    outer loop
      vertex 44.35 2.68571 33.15
      vertex 35.7 -7.2 33.15
      vertex 35.7 -7.2 38.9167
    endloop
  endfacet
  facet normal -1 0 0
    outer loop
      vertex 28 -17 6.05
      vertex 28 -16 6.95
      vertex 28 -16 6.05
    endloop
  endfacet
  facet normal -1 -0 0
    outer loop
      vertex 28 -16 6.95
      vertex 28 -17 6.05
      vertex 28 -16 12.6
    endloop
  endfacet
  facet normal -1 -0 0
    outer loop
      vertex 28 -16 12.6
      vertex 28 -17 6.05
      vertex 28 -16 13.5
    endloop
  endfacet
  facet normal -1 -0 0
    outer loop
      vertex 28 -16 13.5
      vertex 28 -17 6.05
      vertex 28 -16 19.15
    endloop
  endfacet
  facet normal -1 -0 0
    outer loop
      vertex 28 -16 19.15
      vertex 28 -17 6.05
      vertex 28 -16 20.05
    endloop
  endfacet
  facet normal -1 -0 0
    outer loop
      vertex 28 -16 20.05
      vertex 28 -17 6.05
      vertex 28 -16 25.7
    endloop
  endfacet
  facet normal -1 -0 0
    outer loop
      vertex 28 -16 25.7
      vertex 28 -17 6.05
      vertex 28 -16 26.6
    endloop
  endfacet
  facet normal -1 0 0
    outer loop
      vertex 28 -17 44.05
      vertex 28 -16 26.6
      vertex 28 -17 6.05
    endloop
  endfacet
  facet normal -1 0 0
    outer loop
      vertex 28 -16 26.6
      vertex 28 -17 44.05
      vertex 28 -16 32.25
    endloop
  endfacet
  facet normal -1 0 0
    outer loop
      vertex 28 -16 32.25
      vertex 28 -17 44.05
      vertex 28 -16 33.15
    endloop
  endfacet
  facet normal -1 0 0
    outer loop
      vertex 28 -16 33.15
      vertex 28 -17 44.05
      vertex 28 -16 44.05
    endloop
  endfacet
  facet normal 0.752577 0.658505 0
    outer loop
      vertex 54.3 4.22857 32.25
      vertex 51 8 26.6
      vertex 51 8 30.05
    endloop
  endfacet
  facet normal 0.752577 0.658505 -0
    outer loop
      vertex 60.2 -2.51429 26.6
      vertex 54.3 4.22857 32.25
      vertex 60.2 -2.51429 32.25
    endloop
  endfacet
  facet normal 0.752577 0.658505 1.45928e-07
    outer loop
      vertex 54.3 4.22857 32.25
      vertex 60.2 -2.51429 26.6
      vertex 51 8 26.6
    endloop
  endfacet
  facet normal 0.752577 0.658505 0
    outer loop
      vertex 60.2 -2.51429 19.15
      vertex 51 8 13.5
      vertex 51 8 19.15
    endloop
  endfacet
  facet normal 0.752577 0.658505 0
    outer loop
      vertex 51 8 13.5
      vertex 60.2 -2.51429 19.15
      vertex 60.2 -2.51429 13.5
    endloop
  endfacet
  facet normal 0.752577 0.658505 -0
    outer loop
      vertex 65.3 -8.34286 33.15
      vertex 56.1 2.17143 33.45
      vertex 65.3 -8.34286 39.3
    endloop
  endfacet
  facet normal 0.752574 0.658508 1.09498e-05
    outer loop
      vertex 72 -16 44.05
      vertex 65.3 -8.34286 39.3
      vertex 56.1 2.17143 33.45
    endloop
  endfacet
  facet normal 0.752577 0.658505 1.09168e-06
    outer loop
      vertex 72 -16 44.05
      vertex 66.3 -9.48571 39.3
      vertex 65.3 -8.34286 39.3
    endloop
  endfacet
  facet normal 0.752577 0.658504 -0
    outer loop
      vertex 72 -16 33.15
      vertex 66.3 -9.48571 39.3
      vertex 72 -16 44.05
    endloop
  endfacet
  facet normal 0.752577 0.658504 0
    outer loop
      vertex 66.3 -9.48571 39.3
      vertex 72 -16 33.15
      vertex 66.3 -9.48571 33.15
    endloop
  endfacet
  facet normal 0.752577 0.658505 0
    outer loop
      vertex 56.1 2.17143 33.45
      vertex 65.3 -8.34286 33.15
      vertex 56.1 2.17143 33.15
    endloop
  endfacet
  facet normal 0.752577 0.658505 0
    outer loop
      vertex 55.1 3.31429 12.6
      vertex 51 8 6.95
      vertex 51 8 12.6
    endloop
  endfacet
  facet normal 0.752577 0.658505 0
    outer loop
      vertex 51 8 6.95
      vertex 55.1 3.31429 12.6
      vertex 55.1 3.31429 6.95
    endloop
  endfacet
  facet normal 0.752577 0.658504 0
    outer loop
      vertex 72 -16 12.6
      vertex 66.3 -9.48571 6.95
      vertex 66.3 -9.48571 12.6
    endloop
  endfacet
  facet normal 0.752577 0.658504 0
    outer loop
      vertex 66.3 -9.48571 6.95
      vertex 72 -16 12.6
      vertex 72 -16 6.95
    endloop
  endfacet
  facet normal 0.752577 0.658504 0
    outer loop
      vertex 72 -16 25.7
      vertex 66.3 -9.48571 20.05
      vertex 66.3 -9.48571 25.7
    endloop
  endfacet
  facet normal 0.752577 0.658504 0
    outer loop
      vertex 66.3 -9.48571 20.05
      vertex 72 -16 25.7
      vertex 72 -16 20.05
    endloop
  endfacet
  facet normal 0.752578 0.658503 0
    outer loop
      vertex 72 -16 32.25
      vertex 71.4 -15.3143 26.6
      vertex 71.4 -15.3143 32.25
    endloop
  endfacet
  facet normal 0.752578 0.658503 0
    outer loop
      vertex 71.4 -15.3143 26.6
      vertex 72 -16 32.25
      vertex 72 -16 26.6
    endloop
  endfacet
  facet normal 0.752578 0.658503 0
    outer loop
      vertex 72 -16 19.15
      vertex 71.4 -15.3143 13.5
      vertex 71.4 -15.3143 19.15
    endloop
  endfacet
  facet normal 0.752578 0.658503 0
    outer loop
      vertex 71.4 -15.3143 13.5
      vertex 72 -16 19.15
      vertex 72 -16 13.5
    endloop
  endfacet
  facet normal 0.752577 0.658505 0
    outer loop
      vertex 55.1 3.31429 25.7
      vertex 51 8 20.05
      vertex 51 8 25.7
    endloop
  endfacet
  facet normal 0.752577 0.658505 0
    outer loop
      vertex 51 8 20.05
      vertex 55.1 3.31429 25.7
      vertex 55.1 3.31429 20.05
    endloop
  endfacet
  facet normal 0.752577 0.658505 0
    outer loop
      vertex 65.3 -8.34286 12.6
      vertex 56.1 2.17143 6.95
      vertex 56.1 2.17143 12.6
    endloop
  endfacet
  facet normal 0.752577 0.658505 0
    outer loop
      vertex 56.1 2.17143 6.95
      vertex 65.3 -8.34286 12.6
      vertex 65.3 -8.34286 6.95
    endloop
  endfacet
  facet normal 0.752577 0.658505 0
    outer loop
      vertex 65.3 -8.34286 25.7
      vertex 56.1 2.17143 20.05
      vertex 56.1 2.17143 25.7
    endloop
  endfacet
  facet normal 0.752577 0.658505 0
    outer loop
      vertex 56.1 2.17143 20.05
      vertex 65.3 -8.34286 25.7
      vertex 65.3 -8.34286 20.05
    endloop
  endfacet
  facet normal 0.752577 0.658505 0
    outer loop
      vertex 70.4 -14.1714 32.25
      vertex 61.2 -3.65714 26.6
      vertex 61.2 -3.65714 32.25
    endloop
  endfacet
  facet normal 0.752577 0.658505 0
    outer loop
      vertex 61.2 -3.65714 26.6
      vertex 70.4 -14.1714 32.25
      vertex 70.4 -14.1714 26.6
    endloop
  endfacet
  facet normal 0.752577 0.658505 0
    outer loop
      vertex 70.4 -14.1714 19.15
      vertex 61.2 -3.65714 13.5
      vertex 61.2 -3.65714 19.15
    endloop
  endfacet
  facet normal 0.752577 0.658505 0
    outer loop
      vertex 61.2 -3.65714 13.5
      vertex 70.4 -14.1714 19.15
      vertex 70.4 -14.1714 13.5
    endloop
  endfacet
  facet normal -1 0 0
    outer loop
      vertex 49 8 6.95
      vertex 49 14 6.05
      vertex 49 8 6.05
    endloop
  endfacet
  facet normal -1 0 0
    outer loop
      vertex 49 8 12.6
      vertex 49 14 6.05
      vertex 49 8 6.95
    endloop
  endfacet
  facet normal -1 0 0
    outer loop
      vertex 49 8 13.5
      vertex 49 14 6.05
      vertex 49 8 12.6
    endloop
  endfacet
  facet normal -1 0 0
    outer loop
      vertex 49 8 19.15
      vertex 49 14 6.05
      vertex 49 8 13.5
    endloop
  endfacet
  facet normal -1 0 0
    outer loop
      vertex 49 14 6.05
      vertex 49 8 19.15
      vertex 49 14 30.05
    endloop
  endfacet
  facet normal -1 0 0
    outer loop
      vertex 49 8 20.05
      vertex 49 14 30.05
      vertex 49 8 19.15
    endloop
  endfacet
  facet normal -1 0 0
    outer loop
      vertex 49 8 25.7
      vertex 49 14 30.05
      vertex 49 8 20.05
    endloop
  endfacet
  facet normal -1 0 0
    outer loop
      vertex 49 8 26.6
      vertex 49 14 30.05
      vertex 49 8 25.7
    endloop
  endfacet
  facet normal -1 -0 0
    outer loop
      vertex 49 14 30.05
      vertex 49 8 26.6
      vertex 49 8 30.05
    endloop
  endfacet
  facet normal 0 0 1
    outer loop
      vertex 51 14 30.05
      vertex 50 8 30.05
      vertex 51 8 30.05
    endloop
  endfacet
  facet normal -0 0 1
    outer loop
      vertex 49 14 30.05
      vertex 50 8 30.05
      vertex 51 14 30.05
    endloop
  endfacet
  facet normal 0 0 1
    outer loop
      vertex 50 8 30.05
      vertex 49 14 30.05
      vertex 49 8 30.05
    endloop
  endfacet
  facet normal 1 0 0
    outer loop
      vertex 51 8 26.6
      vertex 51 14 30.05
      vertex 51 8 30.05
    endloop
  endfacet
  facet normal 1 0 0
    outer loop
      vertex 51 8 25.7
      vertex 51 14 30.05
      vertex 51 8 26.6
    endloop
  endfacet
  facet normal 1 0 0
    outer loop
      vertex 51 8 20.05
      vertex 51 14 30.05
      vertex 51 8 25.7
    endloop
  endfacet
  facet normal 1 0 0
    outer loop
      vertex 51 8 19.15
      vertex 51 14 30.05
      vertex 51 8 20.05
    endloop
  endfacet
  facet normal 1 0 0
    outer loop
      vertex 51 14 30.05
      vertex 51 8 19.15
      vertex 51 14 6.05
    endloop
  endfacet
  facet normal 1 -0 0
    outer loop
      vertex 51 8 13.5
      vertex 51 14 6.05
      vertex 51 8 19.15
    endloop
  endfacet
  facet normal 1 -0 0
    outer loop
      vertex 51 8 12.6
      vertex 51 14 6.05
      vertex 51 8 13.5
    endloop
  endfacet
  facet normal 1 -0 0
    outer loop
      vertex 51 8 6.95
      vertex 51 14 6.05
      vertex 51 8 12.6
    endloop
  endfacet
  facet normal 1 0 0
    outer loop
      vertex 51 14 6.05
      vertex 51 8 6.95
      vertex 51 8 6.05
    endloop
  endfacet
  facet normal 0 1 -0
    outer loop
      vertex 51 14 6.05
      vertex 49 14 30.05
      vertex 51 14 30.05
    endloop
  endfacet
  facet normal 0 1 0
    outer loop
      vertex 49 14 30.05
      vertex 51 14 6.05
      vertex 49 14 6.05
    endloop
  endfacet
  facet normal 0 0 -1
    outer loop
      vertex 50 -16 5.05
      vertex 51 8 5.05
      vertex 51 -16 5.05
    endloop
  endfacet
  facet normal -0 0 -1
    outer loop
      vertex 51 8 5.05
      vertex 50 -16 5.05
      vertex 50 8 5.05
    endloop
  endfacet
  facet normal 0 0 -1
    outer loop
      vertex 29.6 -13.0286 5.05
      vertex 30.6 -16 5.05
      vertex 29.6 -16 5.05
    endloop
  endfacet
  facet normal 0 0 -1
    outer loop
      vertex 30.6 -16 5.05
      vertex 29.6 -13.0286 5.05
      vertex 30.6 -11.8857 5.05
    endloop
  endfacet
  facet normal 0 0 -1
    outer loop
      vertex 39.8 -1.37143 5.05
      vertex 40.8 -16 5.05
      vertex 39.8 -16 5.05
    endloop
  endfacet
  facet normal 0 0 -1
    outer loop
      vertex 40.8 -16 5.05
      vertex 39.8 -1.37143 5.05
      vertex 40.8 -0.228572 5.05
    endloop
  endfacet
  facet normal 0 0 -1
    outer loop
      vertex 60.2 -16 5.05
      vertex 61.2 -2.51429 5.05
      vertex 61.2 -16 5.05
    endloop
  endfacet
  facet normal -0 0 -1
    outer loop
      vertex 61.2 -2.51429 5.05
      vertex 60.2 -16 5.05
      vertex 60.2 -1.37143 5.05
    endloop
  endfacet
  facet normal 0 0 -1
    outer loop
      vertex 70.4 -16 5.05
      vertex 71.4 -14.1714 5.05
      vertex 71.4 -16 5.05
    endloop
  endfacet
  facet normal -0 0 -1
    outer loop
      vertex 71.4 -14.1714 5.05
      vertex 70.4 -16 5.05
      vertex 70.4 -13.0286 5.05
    endloop
  endfacet
  facet normal 0 0.503871 0.863779
    outer loop
      vertex 51 8 31.05
      vertex 50 8 31.05
      vertex 51 5.94286 32.25
    endloop
  endfacet
  facet normal 7.88371e-07 0.503871 0.863779
    outer loop
      vertex 55.1 -6.14286 39.3
      vertex 56.1 3.31429 33.7833
      vertex 55.1 4.4 33.15
    endloop
  endfacet
  facet normal 2.38384e-05 0.503887 0.86377
    outer loop
      vertex 53.8 5.94286 32.25
      vertex 55.1 4.4 33.15
      vertex 56.1 3.31429 33.7833
    endloop
  endfacet
  facet normal -0 0.503872 0.863778
    outer loop
      vertex 51 5.94286 32.25
      vertex 55.1 4.4 33.15
      vertex 53.8 5.94286 32.25
    endloop
  endfacet
  facet normal -0 0.503871 0.863779
    outer loop
      vertex 50 5.94286 32.25
      vertex 51 5.94286 32.25
      vertex 50 8 31.05
    endloop
  endfacet
  facet normal -0 0.503872 0.863778
    outer loop
      vertex 50 5.94286 32.25
      vertex 55.1 4.4 33.15
      vertex 51 5.94286 32.25
    endloop
  endfacet
  facet normal 0 0.503872 0.863778
    outer loop
      vertex 45.9 4.4 33.15
      vertex 50 5.94286 32.25
      vertex 46.2 5.94286 32.25
    endloop
  endfacet
  facet normal 0 0.503872 0.863778
    outer loop
      vertex 50 5.94286 32.25
      vertex 45.9 4.4 33.15
      vertex 55.1 4.4 33.15
    endloop
  endfacet
  facet normal 0 0.503871 0.863779
    outer loop
      vertex 45.9 4.4 33.15
      vertex 44.9 4.4 33.15
      vertex 45.9 -6.14286 39.3
    endloop
  endfacet
  facet normal 0 0.503872 0.863778
    outer loop
      vertex 46.2 5.94286 32.25
      vertex 44.9 4.4 33.15
      vertex 45.9 4.4 33.15
    endloop
  endfacet
  facet normal 0 0.503872 0.863778
    outer loop
      vertex 44.9 4.4 33.15
      vertex 46.2 5.94286 32.25
      vertex 44.85 4.4 33.15
    endloop
  endfacet
  facet normal 0 0.503871 0.863779
    outer loop
      vertex 56.1 3.31429 33.7833
      vertex 55.1 -6.14286 39.3
      vertex 56.1 -6.14286 39.3
    endloop
  endfacet
  facet normal 0 0.503871 0.863779
    outer loop
      vertex 45.9 -6.14286 39.3
      vertex 44.9 4.4 33.15
      vertex 44.9 -6.14286 39.3
    endloop
  endfacet
  facet normal 0 0.503867 0.863781
    outer loop
      vertex 35.7 -6.05714 39.25
      vertex 35.625 -6.14286 39.3
      vertex 35.7 -6.14286 39.3
    endloop
  endfacet
  facet normal -0.752577 0.658504 0
    outer loop
      vertex 30.6 -11.8857 5.05
      vertex 29.6 -13.0286 5.05
      vertex 30.6 -11.8857 6.05
    endloop
  endfacet
  facet normal -0.752577 0.658505 0
    outer loop
      vertex 40.8 -0.228572 5.05
      vertex 39.8 -1.37143 5.05
      vertex 40.8 -0.228572 6.05
    endloop
  endfacet
  facet normal -0.752577 0.658504 0
    outer loop
      vertex 48 8 6.05
      vertex 45.9 5.6 6.95
      vertex 48 8 6.95
    endloop
  endfacet
  facet normal -0.752577 0.658505 0
    outer loop
      vertex 45.9 5.6 6.95
      vertex 44.9 4.45714 6.95
      vertex 45.9 5.6 12.6
    endloop
  endfacet
  facet normal -0.752577 0.658505 1.79927e-06
    outer loop
      vertex 48 8 6.05
      vertex 44.9 4.45714 6.95
      vertex 45.9 5.6 6.95
    endloop
  endfacet
  facet normal -0.752577 0.658505 1.64677e-06
    outer loop
      vertex 40.8 -0.228572 6.05
      vertex 44.9 4.45714 6.95
      vertex 48 8 6.05
    endloop
  endfacet
  facet normal -0.752577 0.658505 0
    outer loop
      vertex 39.8 -1.37143 6.05
      vertex 40.8 -0.228572 6.05
      vertex 39.8 -1.37143 5.05
    endloop
  endfacet
  facet normal -0.752577 0.658505 1.66859e-06
    outer loop
      vertex 39.8 -1.37143 6.05
      vertex 44.9 4.45714 6.95
      vertex 40.8 -0.228572 6.05
    endloop
  endfacet
  facet normal -0.752577 0.658505 1.23032e-06
    outer loop
      vertex 39.8 -1.37143 6.05
      vertex 35.7 -6.05714 6.95
      vertex 44.9 4.45714 6.95
    endloop
  endfacet
  facet normal -0.752577 0.658505 0
    outer loop
      vertex 35.7 -6.05714 6.95
      vertex 34.7 -7.2 6.95
      vertex 35.7 -6.05714 12.6
    endloop
  endfacet
  facet normal -0.752577 0.658505 1.10149e-06
    outer loop
      vertex 39.8 -1.37143 6.05
      vertex 34.7 -7.2 6.95
      vertex 35.7 -6.05714 6.95
    endloop
  endfacet
  facet normal -0.752577 0.658505 1.45514e-06
    outer loop
      vertex 30.6 -11.8857 6.05
      vertex 34.7 -7.2 6.95
      vertex 39.8 -1.37143 6.05
    endloop
  endfacet
  facet normal -0.752577 0.658504 0
    outer loop
      vertex 29.6 -13.0286 6.05
      vertex 30.6 -11.8857 6.05
      vertex 29.6 -13.0286 5.05
    endloop
  endfacet
  facet normal -0.752577 0.658504 1.99369e-08
    outer loop
      vertex 27 -16 6.95
      vertex 30.6 -11.8857 6.05
      vertex 29.6 -13.0286 6.05
    endloop
  endfacet
  facet normal -0.752577 0.658504 0
    outer loop
      vertex 27 -16 6.95
      vertex 29.6 -13.0286 6.05
      vertex 27 -16 6.05
    endloop
  endfacet
  facet normal -0.752577 0.658505 1.49265e-06
    outer loop
      vertex 30.6 -11.8857 6.05
      vertex 27 -16 6.95
      vertex 34.7 -7.2 6.95
    endloop
  endfacet
  facet normal -0.752577 0.658504 0
    outer loop
      vertex 45.9 5.6 12.6
      vertex 48 8 13.5
      vertex 48 8 12.6
    endloop
  endfacet
  facet normal -0.752577 0.658505 0
    outer loop
      vertex 44.9 4.45714 12.6
      vertex 45.9 5.6 12.6
      vertex 44.9 4.45714 6.95
    endloop
  endfacet
  facet normal -0.752577 0.658505 -1.79927e-06
    outer loop
      vertex 44.9 4.45714 12.6
      vertex 48 8 13.5
      vertex 45.9 5.6 12.6
    endloop
  endfacet
  facet normal -0.752577 0.658505 -1.64677e-06
    outer loop
      vertex 44.9 4.45714 12.6
      vertex 40.8 -0.228572 13.5
      vertex 48 8 13.5
    endloop
  endfacet
  facet normal -0.752577 0.658505 0
    outer loop
      vertex 40.8 -0.228572 13.5
      vertex 39.8 -1.37143 13.5
      vertex 40.8 -0.228572 19.15
    endloop
  endfacet
  facet normal -0.752577 0.658505 -1.66859e-06
    outer loop
      vertex 44.9 4.45714 12.6
      vertex 39.8 -1.37143 13.5
      vertex 40.8 -0.228572 13.5
    endloop
  endfacet
  facet normal -0.752577 0.658505 -1.23032e-06
    outer loop
      vertex 35.7 -6.05714 12.6
      vertex 39.8 -1.37143 13.5
      vertex 44.9 4.45714 12.6
    endloop
  endfacet
  facet normal -0.752577 0.658505 0
    outer loop
      vertex 34.7 -7.2 12.6
      vertex 35.7 -6.05714 12.6
      vertex 34.7 -7.2 6.95
    endloop
  endfacet
  facet normal -0.752577 0.658505 -1.10149e-06
    outer loop
      vertex 34.7 -7.2 12.6
      vertex 39.8 -1.37143 13.5
      vertex 35.7 -6.05714 12.6
    endloop
  endfacet
  facet normal -0.752577 0.658505 -1.45514e-06
    outer loop
      vertex 34.7 -7.2 12.6
      vertex 30.6 -11.8857 13.5
      vertex 39.8 -1.37143 13.5
    endloop
  endfacet
  facet normal -0.752577 0.658504 0
    outer loop
      vertex 30.6 -11.8857 13.5
      vertex 29.6 -13.0286 13.5
      vertex 30.6 -11.8857 19.15
    endloop
  endfacet
  facet normal -0.752577 0.658505 -1.49265e-06
    outer loop
      vertex 27 -16 12.6
      vertex 30.6 -11.8857 13.5
      vertex 34.7 -7.2 12.6
    endloop
  endfacet
  facet normal -0.752577 0.658504 -1.99369e-08
    outer loop
      vertex 30.6 -11.8857 13.5
      vertex 27 -16 12.6
      vertex 29.6 -13.0286 13.5
    endloop
  endfacet
  facet normal -0.752577 0.658504 0
    outer loop
      vertex 29.6 -13.0286 13.5
      vertex 27 -16 12.6
      vertex 27 -16 13.5
    endloop
  endfacet
  facet normal -0.752577 0.658504 0
    outer loop
      vertex 48 8 19.15
      vertex 45.9 5.6 20.05
      vertex 48 8 20.05
    endloop
  endfacet
  facet normal -0.752577 0.658505 0
    outer loop
      vertex 45.9 5.6 20.05
      vertex 44.9 4.45714 20.05
      vertex 45.9 5.6 25.7
    endloop
  endfacet
  facet normal -0.752577 0.658505 1.79927e-06
    outer loop
      vertex 48 8 19.15
      vertex 44.9 4.45714 20.05
      vertex 45.9 5.6 20.05
    endloop
  endfacet
  facet normal -0.752577 0.658505 1.64677e-06
    outer loop
      vertex 40.8 -0.228572 19.15
      vertex 44.9 4.45714 20.05
      vertex 48 8 19.15
    endloop
  endfacet
  facet normal -0.752577 0.658505 0
    outer loop
      vertex 39.8 -1.37143 19.15
      vertex 40.8 -0.228572 19.15
      vertex 39.8 -1.37143 13.5
    endloop
  endfacet
  facet normal -0.752577 0.658505 1.66859e-06
    outer loop
      vertex 39.8 -1.37143 19.15
      vertex 44.9 4.45714 20.05
      vertex 40.8 -0.228572 19.15
    endloop
  endfacet
  facet normal -0.752577 0.658505 1.23032e-06
    outer loop
      vertex 39.8 -1.37143 19.15
      vertex 35.7 -6.05714 20.05
      vertex 44.9 4.45714 20.05
    endloop
  endfacet
  facet normal -0.752577 0.658505 0
    outer loop
      vertex 35.7 -6.05714 20.05
      vertex 34.7 -7.2 20.05
      vertex 35.7 -6.05714 25.7
    endloop
  endfacet
  facet normal -0.752577 0.658505 1.10149e-06
    outer loop
      vertex 39.8 -1.37143 19.15
      vertex 34.7 -7.2 20.05
      vertex 35.7 -6.05714 20.05
    endloop
  endfacet
  facet normal -0.752577 0.658505 1.45515e-06
    outer loop
      vertex 30.6 -11.8857 19.15
      vertex 34.7 -7.2 20.05
      vertex 39.8 -1.37143 19.15
    endloop
  endfacet
  facet normal -0.752577 0.658504 0
    outer loop
      vertex 29.6 -13.0286 19.15
      vertex 30.6 -11.8857 19.15
      vertex 29.6 -13.0286 13.5
    endloop
  endfacet
  facet normal -0.752577 0.658504 1.99369e-08
    outer loop
      vertex 27 -16 20.05
      vertex 30.6 -11.8857 19.15
      vertex 29.6 -13.0286 19.15
    endloop
  endfacet
  facet normal -0.752577 0.658504 0
    outer loop
      vertex 27 -16 20.05
      vertex 29.6 -13.0286 19.15
      vertex 27 -16 19.15
    endloop
  endfacet
  facet normal -0.752577 0.658505 1.49265e-06
    outer loop
      vertex 30.6 -11.8857 19.15
      vertex 27 -16 20.05
      vertex 34.7 -7.2 20.05
    endloop
  endfacet
  facet normal -0.752577 0.658504 0
    outer loop
      vertex 45.9 5.6 25.7
      vertex 48 8 26.6
      vertex 48 8 25.7
    endloop
  endfacet
  facet normal -0.752577 0.658505 0
    outer loop
      vertex 44.9 4.45714 25.7
      vertex 45.9 5.6 25.7
      vertex 44.9 4.45714 20.05
    endloop
  endfacet
  facet normal -0.752577 0.658505 -1.79927e-06
    outer loop
      vertex 44.9 4.45714 25.7
      vertex 48 8 26.6
      vertex 45.9 5.6 25.7
    endloop
  endfacet
  facet normal -0.752577 0.658505 -1.64678e-06
    outer loop
      vertex 44.9 4.45714 25.7
      vertex 40.8 -0.228572 26.6
      vertex 48 8 26.6
    endloop
  endfacet
  facet normal -0.752577 0.658505 0
    outer loop
      vertex 40.8 -0.228572 26.6
      vertex 39.8 -1.37143 26.6
      vertex 40.8 -0.228572 32.25
    endloop
  endfacet
  facet normal -0.752577 0.658505 -1.66859e-06
    outer loop
      vertex 44.9 4.45714 25.7
      vertex 39.8 -1.37143 26.6
      vertex 40.8 -0.228572 26.6
    endloop
  endfacet
  facet normal -0.752577 0.658505 -1.23032e-06
    outer loop
      vertex 35.7 -6.05714 25.7
      vertex 39.8 -1.37143 26.6
      vertex 44.9 4.45714 25.7
    endloop
  endfacet
  facet normal -0.752577 0.658505 0
    outer loop
      vertex 34.7 -7.2 25.7
      vertex 35.7 -6.05714 25.7
      vertex 34.7 -7.2 20.05
    endloop
  endfacet
  facet normal -0.752577 0.658505 -1.10149e-06
    outer loop
      vertex 34.7 -7.2 25.7
      vertex 39.8 -1.37143 26.6
      vertex 35.7 -6.05714 25.7
    endloop
  endfacet
  facet normal -0.752577 0.658505 -1.45515e-06
    outer loop
      vertex 34.7 -7.2 25.7
      vertex 30.6 -11.8857 26.6
      vertex 39.8 -1.37143 26.6
    endloop
  endfacet
  facet normal -0.752577 0.658504 0
    outer loop
      vertex 30.6 -11.8857 26.6
      vertex 29.6 -13.0286 26.6
      vertex 30.6 -11.8857 32.25
    endloop
  endfacet
  facet normal -0.752577 0.658505 -1.49265e-06
    outer loop
      vertex 27 -16 25.7
      vertex 30.6 -11.8857 26.6
      vertex 34.7 -7.2 25.7
    endloop
  endfacet
  facet normal -0.752577 0.658504 -1.9937e-08
    outer loop
      vertex 30.6 -11.8857 26.6
      vertex 27 -16 25.7
      vertex 29.6 -13.0286 26.6
    endloop
  endfacet
  facet normal -0.752577 0.658504 0
    outer loop
      vertex 29.6 -13.0286 26.6
      vertex 27 -16 25.7
      vertex 27 -16 26.6
    endloop
  endfacet
  facet normal -0.752577 0.658504 5.4942e-07
    outer loop
      vertex 40.8 -0.228572 32.25
      vertex 44.85 4.4 33.15
      vertex 46.2 5.94286 32.25
    endloop
  endfacet
  facet normal -0.752577 0.658505 0
    outer loop
      vertex 39.8 -1.37143 32.25
      vertex 40.8 -0.228572 32.25
      vertex 39.8 -1.37143 26.6
    endloop
  endfacet
  facet normal -0.752577 0.658505 -6.24338e-07
    outer loop
      vertex 39.8 -1.37143 32.25
      vertex 44.85 4.4 33.15
      vertex 40.8 -0.228572 32.25
    endloop
  endfacet
  facet normal -0.752577 0.658505 2.04812e-07
    outer loop
      vertex 39.8 -1.37143 32.25
      vertex 35.7 -6.05714 33.15
      vertex 44.85 4.4 33.15
    endloop
  endfacet
  facet normal -0.752577 0.658505 0
    outer loop
      vertex 34.7 -7.2 33.15
      vertex 35.7 -6.05714 39.25
      vertex 35.7 -6.05714 33.15
    endloop
  endfacet
  facet normal -0.752577 0.658505 0
    outer loop
      vertex 34.7 -7.2 39.3
      vertex 35.7 -6.05714 39.25
      vertex 34.7 -7.2 33.15
    endloop
  endfacet
  facet normal -0.752577 0.658505 1.10149e-06
    outer loop
      vertex 39.8 -1.37143 32.25
      vertex 34.7 -7.2 33.15
      vertex 35.7 -6.05714 33.15
    endloop
  endfacet
  facet normal -0.752577 0.658505 1.45514e-06
    outer loop
      vertex 30.6 -11.8857 32.25
      vertex 34.7 -7.2 33.15
      vertex 39.8 -1.37143 32.25
    endloop
  endfacet
  facet normal -0.752577 0.658504 0
    outer loop
      vertex 29.6 -13.0286 32.25
      vertex 30.6 -11.8857 32.25
      vertex 29.6 -13.0286 26.6
    endloop
  endfacet
  facet normal -0.752577 0.658504 1.99369e-08
    outer loop
      vertex 27 -16 33.15
      vertex 30.6 -11.8857 32.25
      vertex 29.6 -13.0286 32.25
    endloop
  endfacet
  facet normal -0.752577 0.658504 0
    outer loop
      vertex 27 -16 33.15
      vertex 29.6 -13.0286 32.25
      vertex 27 -16 32.25
    endloop
  endfacet
  facet normal -0.752577 0.658505 1.49264e-06
    outer loop
      vertex 30.6 -11.8857 32.25
      vertex 27 -16 33.15
      vertex 34.7 -7.2 33.15
    endloop
  endfacet
  facet normal -0.752577 0.658504 -1.83553e-05
    outer loop
      vertex 35.7 -6.05714 39.25
      vertex 34.7 -7.2 39.3
      vertex 35.625 -6.14286 39.3
    endloop
  endfacet
  facet normal 0.752577 0.658505 0
    outer loop
      vertex 65.3 -7.2 39.3
      vertex 66.3 -8.34286 39.3
      vertex 65.3 -7.2 33.15
    endloop
  endfacet
  facet normal 0.752577 0.658504 -0
    outer loop
      vertex 56.1 3.31429 33.15
      vertex 53.8 5.94286 32.25
      vertex 56.1 3.31429 33.7833
    endloop
  endfacet
  facet normal 0.752577 0.658505 2.02655e-06
    outer loop
      vertex 56.1 3.31429 33.15
      vertex 60.2 -1.37143 32.25
      vertex 53.8 5.94286 32.25
    endloop
  endfacet
  facet normal 0.752577 0.658505 0
    outer loop
      vertex 60.2 -1.37143 32.25
      vertex 61.2 -2.51429 32.25
      vertex 60.2 -1.37143 26.6
    endloop
  endfacet
  facet normal 0.752577 0.658505 1.66095e-06
    outer loop
      vertex 56.1 3.31429 33.15
      vertex 61.2 -2.51429 32.25
      vertex 60.2 -1.37143 32.25
    endloop
  endfacet
  facet normal 0.752577 0.658505 -6.157e-07
    outer loop
      vertex 65.3 -7.2 33.15
      vertex 61.2 -2.51429 32.25
      vertex 56.1 3.31429 33.15
    endloop
  endfacet
  facet normal 0.752577 0.658505 -0
    outer loop
      vertex 66.3 -8.34286 33.15
      vertex 65.3 -7.2 33.15
      vertex 66.3 -8.34286 39.3
    endloop
  endfacet
  facet normal 0.752577 0.658505 -2.08834e-06
    outer loop
      vertex 66.3 -8.34286 33.15
      vertex 61.2 -2.51429 32.25
      vertex 65.3 -7.2 33.15
    endloop
  endfacet
  facet normal 0.752577 0.658505 -1.92809e-06
    outer loop
      vertex 66.3 -8.34286 33.15
      vertex 70.4 -13.0286 32.25
      vertex 61.2 -2.51429 32.25
    endloop
  endfacet
  facet normal 0.752577 0.658505 0
    outer loop
      vertex 70.4 -13.0286 32.25
      vertex 71.4 -14.1714 32.25
      vertex 70.4 -13.0286 26.6
    endloop
  endfacet
  facet normal 0.752577 0.658504 2.96071e-07
    outer loop
      vertex 73 -16 33.15
      vertex 70.4 -13.0286 32.25
      vertex 66.3 -8.34286 33.15
    endloop
  endfacet
  facet normal 0.752577 0.658505 2.53193e-06
    outer loop
      vertex 70.4 -13.0286 32.25
      vertex 73 -16 33.15
      vertex 71.4 -14.1714 32.25
    endloop
  endfacet
  facet normal 0.752577 0.658504 0
    outer loop
      vertex 71.4 -14.1714 32.25
      vertex 73 -16 33.15
      vertex 73 -16 32.25
    endloop
  endfacet
  facet normal 0.752577 0.658504 0
    outer loop
      vertex 52 8 26.6
      vertex 55.1 4.45714 25.7
      vertex 52 8 25.7
    endloop
  endfacet
  facet normal 0.752577 0.658505 0
    outer loop
      vertex 55.1 4.45714 25.7
      vertex 56.1 3.31429 25.7
      vertex 55.1 4.45714 20.05
    endloop
  endfacet
  facet normal 0.752577 0.658505 -1.64227e-06
    outer loop
      vertex 52 8 26.6
      vertex 56.1 3.31429 25.7
      vertex 55.1 4.45714 25.7
    endloop
  endfacet
  facet normal 0.752577 0.658505 -1.1152e-06
    outer loop
      vertex 60.2 -1.37143 26.6
      vertex 56.1 3.31429 25.7
      vertex 52 8 26.6
    endloop
  endfacet
  facet normal 0.752577 0.658505 -0
    outer loop
      vertex 61.2 -2.51429 26.6
      vertex 60.2 -1.37143 26.6
      vertex 61.2 -2.51429 32.25
    endloop
  endfacet
  facet normal 0.752577 0.658505 -1.66096e-06
    outer loop
      vertex 61.2 -2.51429 26.6
      vertex 56.1 3.31429 25.7
      vertex 60.2 -1.37143 26.6
    endloop
  endfacet
  facet normal 0.752577 0.658505 6.15703e-07
    outer loop
      vertex 61.2 -2.51429 26.6
      vertex 65.3 -7.2 25.7
      vertex 56.1 3.31429 25.7
    endloop
  endfacet
  facet normal 0.752577 0.658505 0
    outer loop
      vertex 65.3 -7.2 25.7
      vertex 66.3 -8.34286 25.7
      vertex 65.3 -7.2 20.05
    endloop
  endfacet
  facet normal 0.752577 0.658505 2.08835e-06
    outer loop
      vertex 61.2 -2.51429 26.6
      vertex 66.3 -8.34286 25.7
      vertex 65.3 -7.2 25.7
    endloop
  endfacet
  facet normal 0.752577 0.658505 1.9281e-06
    outer loop
      vertex 70.4 -13.0286 26.6
      vertex 66.3 -8.34286 25.7
      vertex 61.2 -2.51429 26.6
    endloop
  endfacet
  facet normal 0.752577 0.658505 -0
    outer loop
      vertex 71.4 -14.1714 26.6
      vertex 70.4 -13.0286 26.6
      vertex 71.4 -14.1714 32.25
    endloop
  endfacet
  facet normal 0.752577 0.658505 -2.53194e-06
    outer loop
      vertex 73 -16 25.7
      vertex 70.4 -13.0286 26.6
      vertex 71.4 -14.1714 26.6
    endloop
  endfacet
  facet normal 0.752577 0.658504 -0
    outer loop
      vertex 73 -16 25.7
      vertex 71.4 -14.1714 26.6
      vertex 73 -16 26.6
    endloop
  endfacet
  facet normal 0.752577 0.658504 -2.96072e-07
    outer loop
      vertex 70.4 -13.0286 26.6
      vertex 73 -16 25.7
      vertex 66.3 -8.34286 25.7
    endloop
  endfacet
  facet normal 0.752577 0.658504 0
    outer loop
      vertex 55.1 4.45714 20.05
      vertex 52 8 19.15
      vertex 52 8 20.05
    endloop
  endfacet
  facet normal 0.752577 0.658505 -0
    outer loop
      vertex 56.1 3.31429 20.05
      vertex 55.1 4.45714 20.05
      vertex 56.1 3.31429 25.7
    endloop
  endfacet
  facet normal 0.752577 0.658505 1.64227e-06
    outer loop
      vertex 56.1 3.31429 20.05
      vertex 52 8 19.15
      vertex 55.1 4.45714 20.05
    endloop
  endfacet
  facet normal 0.752577 0.658505 1.1152e-06
    outer loop
      vertex 56.1 3.31429 20.05
      vertex 60.2 -1.37143 19.15
      vertex 52 8 19.15
    endloop
  endfacet
  facet normal 0.752577 0.658505 0
    outer loop
      vertex 60.2 -1.37143 19.15
      vertex 61.2 -2.51429 19.15
      vertex 60.2 -1.37143 13.5
    endloop
  endfacet
  facet normal 0.752577 0.658505 1.66096e-06
    outer loop
      vertex 56.1 3.31429 20.05
      vertex 61.2 -2.51429 19.15
      vertex 60.2 -1.37143 19.15
    endloop
  endfacet
  facet normal 0.752577 0.658505 -6.15701e-07
    outer loop
      vertex 65.3 -7.2 20.05
      vertex 61.2 -2.51429 19.15
      vertex 56.1 3.31429 20.05
    endloop
  endfacet
  facet normal 0.752577 0.658505 -0
    outer loop
      vertex 66.3 -8.34286 20.05
      vertex 65.3 -7.2 20.05
      vertex 66.3 -8.34286 25.7
    endloop
  endfacet
  facet normal 0.752577 0.658505 -2.08835e-06
    outer loop
      vertex 66.3 -8.34286 20.05
      vertex 61.2 -2.51429 19.15
      vertex 65.3 -7.2 20.05
    endloop
  endfacet
  facet normal 0.752577 0.658505 -1.9281e-06
    outer loop
      vertex 66.3 -8.34286 20.05
      vertex 70.4 -13.0286 19.15
      vertex 61.2 -2.51429 19.15
    endloop
  endfacet
  facet normal 0.752577 0.658505 0
    outer loop
      vertex 70.4 -13.0286 19.15
      vertex 71.4 -14.1714 19.15
      vertex 70.4 -13.0286 13.5
    endloop
  endfacet
  facet normal 0.752577 0.658504 2.96072e-07
    outer loop
      vertex 73 -16 20.05
      vertex 70.4 -13.0286 19.15
      vertex 66.3 -8.34286 20.05
    endloop
  endfacet
  facet normal 0.752577 0.658505 2.53193e-06
    outer loop
      vertex 70.4 -13.0286 19.15
      vertex 73 -16 20.05
      vertex 71.4 -14.1714 19.15
    endloop
  endfacet
  facet normal 0.752577 0.658504 0
    outer loop
      vertex 71.4 -14.1714 19.15
      vertex 73 -16 20.05
      vertex 73 -16 19.15
    endloop
  endfacet
  facet normal 0.752577 0.658504 0
    outer loop
      vertex 52 8 13.5
      vertex 55.1 4.45714 12.6
      vertex 52 8 12.6
    endloop
  endfacet
  facet normal 0.752577 0.658505 0
    outer loop
      vertex 55.1 4.45714 12.6
      vertex 56.1 3.31429 12.6
      vertex 55.1 4.45714 6.95
    endloop
  endfacet
  facet normal 0.752577 0.658505 -1.64227e-06
    outer loop
      vertex 52 8 13.5
      vertex 56.1 3.31429 12.6
      vertex 55.1 4.45714 12.6
    endloop
  endfacet
  facet normal 0.752577 0.658505 -1.1152e-06
    outer loop
      vertex 60.2 -1.37143 13.5
      vertex 56.1 3.31429 12.6
      vertex 52 8 13.5
    endloop
  endfacet
  facet normal 0.752577 0.658505 -0
    outer loop
      vertex 61.2 -2.51429 13.5
      vertex 60.2 -1.37143 13.5
      vertex 61.2 -2.51429 19.15
    endloop
  endfacet
  facet normal 0.752577 0.658505 -1.66096e-06
    outer loop
      vertex 61.2 -2.51429 13.5
      vertex 56.1 3.31429 12.6
      vertex 60.2 -1.37143 13.5
    endloop
  endfacet
  facet normal 0.752577 0.658505 6.15701e-07
    outer loop
      vertex 61.2 -2.51429 13.5
      vertex 65.3 -7.2 12.6
      vertex 56.1 3.31429 12.6
    endloop
  endfacet
  facet normal 0.752577 0.658505 0
    outer loop
      vertex 65.3 -7.2 12.6
      vertex 66.3 -8.34286 12.6
      vertex 65.3 -7.2 6.95
    endloop
  endfacet
  facet normal 0.752577 0.658505 2.08834e-06
    outer loop
      vertex 61.2 -2.51429 13.5
      vertex 66.3 -8.34286 12.6
      vertex 65.3 -7.2 12.6
    endloop
  endfacet
  facet normal 0.752577 0.658505 1.92809e-06
    outer loop
      vertex 70.4 -13.0286 13.5
      vertex 66.3 -8.34286 12.6
      vertex 61.2 -2.51429 13.5
    endloop
  endfacet
  facet normal 0.752577 0.658505 -0
    outer loop
      vertex 71.4 -14.1714 13.5
      vertex 70.4 -13.0286 13.5
      vertex 71.4 -14.1714 19.15
    endloop
  endfacet
  facet normal 0.752577 0.658505 -2.53193e-06
    outer loop
      vertex 73 -16 12.6
      vertex 70.4 -13.0286 13.5
      vertex 71.4 -14.1714 13.5
    endloop
  endfacet
  facet normal 0.752577 0.658504 -0
    outer loop
      vertex 73 -16 12.6
      vertex 71.4 -14.1714 13.5
      vertex 73 -16 13.5
    endloop
  endfacet
  facet normal 0.752577 0.658504 -2.96071e-07
    outer loop
      vertex 70.4 -13.0286 13.5
      vertex 73 -16 12.6
      vertex 66.3 -8.34286 12.6
    endloop
  endfacet
  facet normal 0.752577 0.658504 0
    outer loop
      vertex 55.1 4.45714 6.95
      vertex 52 8 6.05
      vertex 52 8 6.95
    endloop
  endfacet
  facet normal 0.752577 0.658505 -0
    outer loop
      vertex 56.1 3.31429 6.95
      vertex 55.1 4.45714 6.95
      vertex 56.1 3.31429 12.6
    endloop
  endfacet
  facet normal 0.752577 0.658505 1.64227e-06
    outer loop
      vertex 56.1 3.31429 6.95
      vertex 52 8 6.05
      vertex 55.1 4.45714 6.95
    endloop
  endfacet
  facet normal 0.752577 0.658505 1.1152e-06
    outer loop
      vertex 56.1 3.31429 6.95
      vertex 60.2 -1.37143 6.05
      vertex 52 8 6.05
    endloop
  endfacet
  facet normal 0.752577 0.658505 0
    outer loop
      vertex 60.2 -1.37143 6.05
      vertex 61.2 -2.51429 6.05
      vertex 60.2 -1.37143 5.05
    endloop
  endfacet
  facet normal 0.752577 0.658505 1.66096e-06
    outer loop
      vertex 56.1 3.31429 6.95
      vertex 61.2 -2.51429 6.05
      vertex 60.2 -1.37143 6.05
    endloop
  endfacet
  facet normal 0.752577 0.658505 -6.15701e-07
    outer loop
      vertex 65.3 -7.2 6.95
      vertex 61.2 -2.51429 6.05
      vertex 56.1 3.31429 6.95
    endloop
  endfacet
  facet normal 0.752577 0.658505 -0
    outer loop
      vertex 66.3 -8.34286 6.95
      vertex 65.3 -7.2 6.95
      vertex 66.3 -8.34286 12.6
    endloop
  endfacet
  facet normal 0.752577 0.658505 -2.08834e-06
    outer loop
      vertex 66.3 -8.34286 6.95
      vertex 61.2 -2.51429 6.05
      vertex 65.3 -7.2 6.95
    endloop
  endfacet
  facet normal 0.752577 0.658505 -1.92809e-06
    outer loop
      vertex 66.3 -8.34286 6.95
      vertex 70.4 -13.0286 6.05
      vertex 61.2 -2.51429 6.05
    endloop
  endfacet
  facet normal 0.752577 0.658505 0
    outer loop
      vertex 70.4 -13.0286 6.05
      vertex 71.4 -14.1714 6.05
      vertex 70.4 -13.0286 5.05
    endloop
  endfacet
  facet normal 0.752577 0.658504 2.96071e-07
    outer loop
      vertex 73 -16 6.95
      vertex 70.4 -13.0286 6.05
      vertex 66.3 -8.34286 6.95
    endloop
  endfacet
  facet normal 0.752577 0.658505 2.53193e-06
    outer loop
      vertex 70.4 -13.0286 6.05
      vertex 73 -16 6.95
      vertex 71.4 -14.1714 6.05
    endloop
  endfacet
  facet normal 0.752577 0.658504 0
    outer loop
      vertex 71.4 -14.1714 6.05
      vertex 73 -16 6.95
      vertex 73 -16 6.05
    endloop
  endfacet
  facet normal 0.752577 0.658505 0
    outer loop
      vertex 60.2 -1.37143 5.05
      vertex 61.2 -2.51429 6.05
      vertex 61.2 -2.51429 5.05
    endloop
  endfacet
  facet normal 0.752577 0.658505 0
    outer loop
      vertex 70.4 -13.0286 5.05
      vertex 71.4 -14.1714 6.05
      vertex 71.4 -14.1714 5.05
    endloop
  endfacet
endsolid OpenSCAD_Model
