solid OpenSCAD_Model
  facet normal 0 1 0
    outer loop
      vertex 55.25 8 26.6
      vertex 55.1 8 25.7
      vertex 54.25 8 26.6
    endloop
  endfacet
  facet normal 0 1 0
    outer loop
      vertex 55.25 8 26.6
      vertex 55.1 8 20.05
      vertex 55.1 8 25.7
    endloop
  endfacet
  facet normal 0 1 -0
    outer loop
      vertex 55.25 8 19.15
      vertex 55.1 8 20.05
      vertex 55.25 8 26.6
    endloop
  endfacet
  facet normal 0 1 0
    outer loop
      vertex 54.25 8 19.15
      vertex 55.1 8 20.05
      vertex 55.25 8 19.15
    endloop
  endfacet
  facet normal 0 1 0
    outer loop
      vertex 55.1 8 20.05
      vertex 54.25 8 19.15
      vertex 54.25 8 20.05
    endloop
  endfacet
  facet normal 0 1 0
    outer loop
      vertex 54.25 8 26.6
      vertex 55.1 8 25.7
      vertex 54.25 8 25.7
    endloop
  endfacet
  facet normal 0 1 0
    outer loop
      vertex 58.25 8 6.95
      vertex 57.25 8 6.05
      vertex 57.25 8 6.95
    endloop
  endfacet
  facet normal 0 1 0
    outer loop
      vertex 57.25 8 6.05
      vertex 58.25 8 6.05
      vertex 55.25 8 6.05
    endloop
  endfacet
  facet normal 0 1 -0
    outer loop
      vertex 58.25 8 6.05
      vertex 57.25 8 6.05
      vertex 58.25 8 6.95
    endloop
  endfacet
  facet normal 0 1 0
    outer loop
      vertex 55.25 8 13.5
      vertex 55.1 8 12.6
      vertex 54.25 8 13.5
    endloop
  endfacet
  facet normal 0 1 0
    outer loop
      vertex 55.25 8 13.5
      vertex 55.1 8 6.95
      vertex 55.1 8 12.6
    endloop
  endfacet
  facet normal 0 1 -0
    outer loop
      vertex 55.25 8 6.05
      vertex 55.1 8 6.95
      vertex 55.25 8 13.5
    endloop
  endfacet
  facet normal 0 1 0
    outer loop
      vertex 54.25 8 6.05
      vertex 55.1 8 6.95
      vertex 55.25 8 6.05
    endloop
  endfacet
  facet normal 0 1 0
    outer loop
      vertex 55.1 8 6.95
      vertex 54.25 8 6.05
      vertex 54.25 8 6.95
    endloop
  endfacet
  facet normal 0 1 0
    outer loop
      vertex 54.25 8 6.05
      vertex 55.25 8 6.05
      vertex 58.25 8 6.05
    endloop
  endfacet
  facet normal 0 1 0
    outer loop
      vertex 54.25 8 13.5
      vertex 55.1 8 12.6
      vertex 54.25 8 12.6
    endloop
  endfacet
  facet normal 0 1 -0
    outer loop
      vertex 58.25 8 12.6
      vertex 57.25 8 13.5
      vertex 58.25 8 13.5
    endloop
  endfacet
  facet normal 0 1 0
    outer loop
      vertex 57.25 8 13.5
      vertex 58.25 8 12.6
      vertex 57.25 8 12.6
    endloop
  endfacet
  facet normal 0 1 -0
    outer loop
      vertex 58.25 8 19.15
      vertex 57.25 8 20.05
      vertex 58.25 8 20.05
    endloop
  endfacet
  facet normal 0 1 0
    outer loop
      vertex 57.25 8 20.05
      vertex 58.25 8 19.15
      vertex 57.25 8 19.15
    endloop
  endfacet
  facet normal 0 1 -0
    outer loop
      vertex 58.25 8 25.7
      vertex 57.25 8 26.6
      vertex 58.25 8 26.6
    endloop
  endfacet
  facet normal 0 1 0
    outer loop
      vertex 57.25 8 26.6
      vertex 58.25 8 25.7
      vertex 57.25 8 25.7
    endloop
  endfacet
  facet normal 0 -1 0
    outer loop
      vertex 33.25 -16 6.95
      vertex 34.25 -16 6.05
      vertex 34.25 -16 6.95
    endloop
  endfacet
  facet normal 0 -1 0
    outer loop
      vertex 39.8 -16 6.05
      vertex 34.25 -16 6.05
      vertex 33.25 -16 6.05
    endloop
  endfacet
  facet normal 0 -1 0
    outer loop
      vertex 33.25 -16 6.05
      vertex 34.25 -16 6.05
      vertex 33.25 -16 6.95
    endloop
  endfacet
  facet normal 0 -1 0
    outer loop
      vertex 78.25 -16 6.05
      vertex 79.25 -16 6.95
      vertex 78.25 -16 6.95
    endloop
  endfacet
  facet normal 0 -1 0
    outer loop
      vertex 34.25 -16 6.05
      vertex 39.8 -16 6.05
      vertex 78.25 -16 6.05
    endloop
  endfacet
  facet normal 0 -1 0
    outer loop
      vertex 40.8 -16 6.05
      vertex 78.25 -16 6.05
      vertex 39.8 -16 6.05
    endloop
  endfacet
  facet normal 0 -1 0
    outer loop
      vertex 50 -16 6.05
      vertex 78.25 -16 6.05
      vertex 40.8 -16 6.05
    endloop
  endfacet
  facet normal 0 -1 0
    outer loop
      vertex 51 -16 6.05
      vertex 78.25 -16 6.05
      vertex 50 -16 6.05
    endloop
  endfacet
  facet normal 0 -1 0
    outer loop
      vertex 60.2 -16 6.05
      vertex 78.25 -16 6.05
      vertex 51 -16 6.05
    endloop
  endfacet
  facet normal 0 -1 0
    outer loop
      vertex 61.2 -16 6.05
      vertex 78.25 -16 6.05
      vertex 60.2 -16 6.05
    endloop
  endfacet
  facet normal 0 -1 0
    outer loop
      vertex 70.4 -16 6.05
      vertex 78.25 -16 6.05
      vertex 61.2 -16 6.05
    endloop
  endfacet
  facet normal 0 -1 0
    outer loop
      vertex 71.4 -16 6.05
      vertex 78.25 -16 6.05
      vertex 70.4 -16 6.05
    endloop
  endfacet
  facet normal 0 -1 0
    outer loop
      vertex 78.25 -16 6.05
      vertex 79.25 -16 6.05
      vertex 79.25 -16 6.95
    endloop
  endfacet
  facet normal 0 -1 0
    outer loop
      vertex 79.25 -16 6.05
      vertex 78.25 -16 6.05
      vertex 71.4 -16 6.05
    endloop
  endfacet
  facet normal 0 -1 0
    outer loop
      vertex 70.4 -16 5.05
      vertex 71.4 -16 6.05
      vertex 70.4 -16 6.05
    endloop
  endfacet
  facet normal 0 -1 -0
    outer loop
      vertex 71.4 -16 6.05
      vertex 70.4 -16 5.05
      vertex 71.4 -16 5.05
    endloop
  endfacet
  facet normal 0 -1 0
    outer loop
      vertex 60.2 -16 5.05
      vertex 61.2 -16 6.05
      vertex 60.2 -16 6.05
    endloop
  endfacet
  facet normal 0 -1 -0
    outer loop
      vertex 61.2 -16 6.05
      vertex 60.2 -16 5.05
      vertex 61.2 -16 5.05
    endloop
  endfacet
  facet normal 0 -1 0
    outer loop
      vertex 50 -16 5.05
      vertex 51 -16 6.05
      vertex 50 -16 6.05
    endloop
  endfacet
  facet normal 0 -1 -0
    outer loop
      vertex 51 -16 6.05
      vertex 50 -16 5.05
      vertex 51 -16 5.05
    endloop
  endfacet
  facet normal 0 -1 0
    outer loop
      vertex 39.8 -16 5.05
      vertex 40.8 -16 6.05
      vertex 39.8 -16 6.05
    endloop
  endfacet
  facet normal 0 -1 -0
    outer loop
      vertex 40.8 -16 6.05
      vertex 39.8 -16 5.05
      vertex 40.8 -16 5.05
    endloop
  endfacet
  facet normal 0 -1 0
    outer loop
      vertex 33.25 -16 12.6
      vertex 34.25 -16 13.5
      vertex 33.25 -16 13.5
    endloop
  endfacet
  facet normal 0 -1 -0
    outer loop
      vertex 34.25 -16 13.5
      vertex 33.25 -16 12.6
      vertex 34.25 -16 12.6
    endloop
  endfacet
  facet normal 0 -1 0
    outer loop
      vertex 33.25 -16 19.15
      vertex 34.25 -16 20.05
      vertex 33.25 -16 20.05
    endloop
  endfacet
  facet normal 0 -1 -0
    outer loop
      vertex 34.25 -16 20.05
      vertex 33.25 -16 19.15
      vertex 34.25 -16 19.15
    endloop
  endfacet
  facet normal 0 -1 0
    outer loop
      vertex 78.25 -16 12.6
      vertex 79.25 -16 13.5
      vertex 78.25 -16 13.5
    endloop
  endfacet
  facet normal 0 -1 -0
    outer loop
      vertex 79.25 -16 13.5
      vertex 78.25 -16 12.6
      vertex 79.25 -16 12.6
    endloop
  endfacet
  facet normal 0 -1 0
    outer loop
      vertex 78.25 -16 19.15
      vertex 79.25 -16 20.05
      vertex 78.25 -16 20.05
    endloop
  endfacet
  facet normal 0 -1 -0
    outer loop
      vertex 79.25 -16 20.05
      vertex 78.25 -16 19.15
      vertex 79.25 -16 19.15
    endloop
  endfacet
  facet normal 0 -1 0
    outer loop
      vertex 33.25 -16 25.7
      vertex 34.25 -16 26.6
      vertex 33.25 -16 26.6
    endloop
  endfacet
  facet normal 0 -1 -0
    outer loop
      vertex 34.25 -16 26.6
      vertex 33.25 -16 25.7
      vertex 34.25 -16 25.7
    endloop
  endfacet
  facet normal 0 -1 0
    outer loop
      vertex 78.25 -16 25.7
      vertex 79.25 -16 26.6
      vertex 78.25 -16 26.6
    endloop
  endfacet
  facet normal 0 -1 -0
    outer loop
      vertex 79.25 -16 26.6
      vertex 78.25 -16 25.7
      vertex 79.25 -16 25.7
    endloop
  endfacet
  facet normal 0 -1 0
    outer loop
      vertex 33.25 -16 32.25
      vertex 34.25 -16 33.15
      vertex 33.25 -16 33.15
    endloop
  endfacet
  facet normal 0 -1 -0
    outer loop
      vertex 34.25 -16 33.15
      vertex 33.25 -16 32.25
      vertex 34.25 -16 32.25
    endloop
  endfacet
  facet normal 0 -1 0
    outer loop
      vertex 78.25 -16 32.25
      vertex 79.25 -16 33.15
      vertex 78.25 -16 33.15
    endloop
  endfacet
  facet normal 0 -1 -0
    outer loop
      vertex 79.25 -16 33.15
      vertex 78.25 -16 32.25
      vertex 79.25 -16 32.25
    endloop
  endfacet
  facet normal -1 0 0
    outer loop
      vertex 39.8 -16 5.05
      vertex 39.8 -8.51429 6.05
      vertex 39.8 -8.51429 5.05
    endloop
  endfacet
  facet normal -1 -0 0
    outer loop
      vertex 39.8 -8.51429 6.05
      vertex 39.8 -16 5.05
      vertex 39.8 -16 6.05
    endloop
  endfacet
  facet normal 1 -0 0
    outer loop
      vertex 40.8 -16 6.05
      vertex 40.8 -7.37143 5.05
      vertex 40.8 -7.37143 6.05
    endloop
  endfacet
  facet normal 1 0 0
    outer loop
      vertex 40.8 -7.37143 5.05
      vertex 40.8 -16 6.05
      vertex 40.8 -16 5.05
    endloop
  endfacet
  facet normal -1 0 0
    outer loop
      vertex 50 -16 5.05
      vertex 50 3.14286 6.05
      vertex 50 3.14286 5.05
    endloop
  endfacet
  facet normal -1 -0 0
    outer loop
      vertex 50 3.14286 6.05
      vertex 50 -16 5.05
      vertex 50 -16 6.05
    endloop
  endfacet
  facet normal 1 -0 0
    outer loop
      vertex 51 -16 6.05
      vertex 51 4.28571 5.05
      vertex 51 4.28571 6.05
    endloop
  endfacet
  facet normal 1 0 0
    outer loop
      vertex 51 4.28571 5.05
      vertex 51 -16 6.05
      vertex 51 -16 5.05
    endloop
  endfacet
  facet normal -1 0 0
    outer loop
      vertex 60.2 -16 5.05
      vertex 60.2 5.77143 6.05
      vertex 60.2 5.77143 5.05
    endloop
  endfacet
  facet normal -1 -0 0
    outer loop
      vertex 60.2 5.77143 6.05
      vertex 60.2 -16 5.05
      vertex 60.2 -16 6.05
    endloop
  endfacet
  facet normal 1 -0 0
    outer loop
      vertex 61.2 -16 6.05
      vertex 61.2 4.62857 5.05
      vertex 61.2 4.62857 6.05
    endloop
  endfacet
  facet normal 1 0 0
    outer loop
      vertex 61.2 4.62857 5.05
      vertex 61.2 -16 6.05
      vertex 61.2 -16 5.05
    endloop
  endfacet
  facet normal -1 0 0
    outer loop
      vertex 70.4 -16 5.05
      vertex 70.4 -5.88571 6.05
      vertex 70.4 -5.88571 5.05
    endloop
  endfacet
  facet normal -1 -0 0
    outer loop
      vertex 70.4 -5.88571 6.05
      vertex 70.4 -16 5.05
      vertex 70.4 -16 6.05
    endloop
  endfacet
  facet normal 1 -0 0
    outer loop
      vertex 71.4 -16 6.05
      vertex 71.4 -7.02857 5.05
      vertex 71.4 -7.02857 6.05
    endloop
  endfacet
  facet normal 1 0 0
    outer loop
      vertex 71.4 -7.02857 5.05
      vertex 71.4 -16 6.05
      vertex 71.4 -16 5.05
    endloop
  endfacet
  facet normal -1 0 0
    outer loop
      vertex 34.7 -15.4857 6.95
      vertex 34.7 -14.3429 12.6
      vertex 34.7 -14.3429 6.95
    endloop
  endfacet
  facet normal -1 -0 0
    outer loop
      vertex 34.7 -14.3429 12.6
      vertex 34.7 -15.4857 6.95
      vertex 34.7 -15.4857 12.6
    endloop
  endfacet
  facet normal 1 -0 0
    outer loop
      vertex 35.7 -14.3429 12.6
      vertex 35.7 -13.2 6.95
      vertex 35.7 -13.2 12.6
    endloop
  endfacet
  facet normal 1 0 0
    outer loop
      vertex 35.7 -13.2 6.95
      vertex 35.7 -14.3429 12.6
      vertex 35.7 -14.3429 6.95
    endloop
  endfacet
  facet normal -1 0 0
    outer loop
      vertex 44.9 -3.82857 6.95
      vertex 44.9 -2.68571 12.6
      vertex 44.9 -2.68571 6.95
    endloop
  endfacet
  facet normal -1 -0 0
    outer loop
      vertex 44.9 -2.68571 12.6
      vertex 44.9 -3.82857 6.95
      vertex 44.9 -3.82857 12.6
    endloop
  endfacet
  facet normal 1 -0 0
    outer loop
      vertex 45.9 -2.68571 12.6
      vertex 45.9 -1.54286 6.95
      vertex 45.9 -1.54286 12.6
    endloop
  endfacet
  facet normal 1 0 0
    outer loop
      vertex 45.9 -1.54286 6.95
      vertex 45.9 -2.68571 12.6
      vertex 45.9 -2.68571 6.95
    endloop
  endfacet
  facet normal -1 0 0
    outer loop
      vertex 55.1 7.82857 6.95
      vertex 55.1 8 12.6
      vertex 55.1 8 6.95
    endloop
  endfacet
  facet normal -1 -0 0
    outer loop
      vertex 55.1 8 12.6
      vertex 55.1 7.82857 6.95
      vertex 55.1 7.82857 12.6
    endloop
  endfacet
  facet normal -1 0 0
    outer loop
      vertex 65.3 -1.2 6.95
      vertex 65.3 -0.057142 12.6
      vertex 65.3 -0.057142 6.95
    endloop
  endfacet
  facet normal -1 -0 0
    outer loop
      vertex 65.3 -0.057142 12.6
      vertex 65.3 -1.2 6.95
      vertex 65.3 -1.2 12.6
    endloop
  endfacet
  facet normal 1 -0 0
    outer loop
      vertex 66.3 -2.34286 12.6
      vertex 66.3 -1.2 6.95
      vertex 66.3 -1.2 12.6
    endloop
  endfacet
  facet normal 1 0 0
    outer loop
      vertex 66.3 -1.2 6.95
      vertex 66.3 -2.34286 12.6
      vertex 66.3 -2.34286 6.95
    endloop
  endfacet
  facet normal -1 0 0
    outer loop
      vertex 75.5 -12.8571 6.95
      vertex 75.5 -11.7143 12.6
      vertex 75.5 -11.7143 6.95
    endloop
  endfacet
  facet normal -1 -0 0
    outer loop
      vertex 75.5 -11.7143 12.6
      vertex 75.5 -12.8571 6.95
      vertex 75.5 -12.8571 12.6
    endloop
  endfacet
  facet normal 1 -0 0
    outer loop
      vertex 76.5 -14 12.6
      vertex 76.5 -12.8571 6.95
      vertex 76.5 -12.8571 12.6
    endloop
  endfacet
  facet normal 1 0 0
    outer loop
      vertex 76.5 -12.8571 6.95
      vertex 76.5 -14 12.6
      vertex 76.5 -14 6.95
    endloop
  endfacet
  facet normal -1 0 0
    outer loop
      vertex 39.8 -9.65714 13.5
      vertex 39.8 -8.51429 19.15
      vertex 39.8 -8.51429 13.5
    endloop
  endfacet
  facet normal -1 -0 0
    outer loop
      vertex 39.8 -8.51429 19.15
      vertex 39.8 -9.65714 13.5
      vertex 39.8 -9.65714 19.15
    endloop
  endfacet
  facet normal 1 -0 0
    outer loop
      vertex 40.8 -8.51429 19.15
      vertex 40.8 -7.37143 13.5
      vertex 40.8 -7.37143 19.15
    endloop
  endfacet
  facet normal 1 0 0
    outer loop
      vertex 40.8 -7.37143 13.5
      vertex 40.8 -8.51429 19.15
      vertex 40.8 -8.51429 13.5
    endloop
  endfacet
  facet normal -1 0 0
    outer loop
      vertex 50 2 13.5
      vertex 50 3.14286 19.15
      vertex 50 3.14286 13.5
    endloop
  endfacet
  facet normal -1 -0 0
    outer loop
      vertex 50 3.14286 19.15
      vertex 50 2 13.5
      vertex 50 2 19.15
    endloop
  endfacet
  facet normal 1 -0 0
    outer loop
      vertex 51 3.14286 19.15
      vertex 51 4.28571 13.5
      vertex 51 4.28571 19.15
    endloop
  endfacet
  facet normal 1 0 0
    outer loop
      vertex 51 4.28571 13.5
      vertex 51 3.14286 19.15
      vertex 51 3.14286 13.5
    endloop
  endfacet
  facet normal -1 0 0
    outer loop
      vertex 60.2 4.62857 13.5
      vertex 60.2 5.77143 19.15
      vertex 60.2 5.77143 13.5
    endloop
  endfacet
  facet normal -1 -0 0
    outer loop
      vertex 60.2 5.77143 19.15
      vertex 60.2 4.62857 13.5
      vertex 60.2 4.62857 19.15
    endloop
  endfacet
  facet normal 1 -0 0
    outer loop
      vertex 61.2 3.48571 19.15
      vertex 61.2 4.62857 13.5
      vertex 61.2 4.62857 19.15
    endloop
  endfacet
  facet normal 1 0 0
    outer loop
      vertex 61.2 4.62857 13.5
      vertex 61.2 3.48571 19.15
      vertex 61.2 3.48571 13.5
    endloop
  endfacet
  facet normal -1 0 0
    outer loop
      vertex 70.4 -7.02857 13.5
      vertex 70.4 -5.88571 19.15
      vertex 70.4 -5.88571 13.5
    endloop
  endfacet
  facet normal -1 -0 0
    outer loop
      vertex 70.4 -5.88571 19.15
      vertex 70.4 -7.02857 13.5
      vertex 70.4 -7.02857 19.15
    endloop
  endfacet
  facet normal 1 -0 0
    outer loop
      vertex 71.4 -8.17143 19.15
      vertex 71.4 -7.02857 13.5
      vertex 71.4 -7.02857 19.15
    endloop
  endfacet
  facet normal 1 0 0
    outer loop
      vertex 71.4 -7.02857 13.5
      vertex 71.4 -8.17143 19.15
      vertex 71.4 -8.17143 13.5
    endloop
  endfacet
  facet normal -1 0 0
    outer loop
      vertex 34.7 -15.4857 20.05
      vertex 34.7 -14.3429 25.7
      vertex 34.7 -14.3429 20.05
    endloop
  endfacet
  facet normal -1 -0 0
    outer loop
      vertex 34.7 -14.3429 25.7
      vertex 34.7 -15.4857 20.05
      vertex 34.7 -15.4857 25.7
    endloop
  endfacet
  facet normal 1 -0 0
    outer loop
      vertex 35.7 -14.3429 25.7
      vertex 35.7 -13.2 20.05
      vertex 35.7 -13.2 25.7
    endloop
  endfacet
  facet normal 1 0 0
    outer loop
      vertex 35.7 -13.2 20.05
      vertex 35.7 -14.3429 25.7
      vertex 35.7 -14.3429 20.05
    endloop
  endfacet
  facet normal -1 0 0
    outer loop
      vertex 44.9 -3.82857 20.05
      vertex 44.9 -2.68571 25.7
      vertex 44.9 -2.68571 20.05
    endloop
  endfacet
  facet normal -1 -0 0
    outer loop
      vertex 44.9 -2.68571 25.7
      vertex 44.9 -3.82857 20.05
      vertex 44.9 -3.82857 25.7
    endloop
  endfacet
  facet normal 1 -0 0
    outer loop
      vertex 45.9 -2.68571 25.7
      vertex 45.9 -1.54286 20.05
      vertex 45.9 -1.54286 25.7
    endloop
  endfacet
  facet normal 1 0 0
    outer loop
      vertex 45.9 -1.54286 20.05
      vertex 45.9 -2.68571 25.7
      vertex 45.9 -2.68571 20.05
    endloop
  endfacet
  facet normal -1 0 0
    outer loop
      vertex 55.1 7.82857 20.05
      vertex 55.1 8 25.7
      vertex 55.1 8 20.05
    endloop
  endfacet
  facet normal -1 -0 0
    outer loop
      vertex 55.1 8 25.7
      vertex 55.1 7.82857 20.05
      vertex 55.1 7.82857 25.7
    endloop
  endfacet
  facet normal -1 0 0
    outer loop
      vertex 65.3 -1.2 20.05
      vertex 65.3 -0.057142 25.7
      vertex 65.3 -0.057142 20.05
    endloop
  endfacet
  facet normal -1 -0 0
    outer loop
      vertex 65.3 -0.057142 25.7
      vertex 65.3 -1.2 20.05
      vertex 65.3 -1.2 25.7
    endloop
  endfacet
  facet normal 1 -0 0
    outer loop
      vertex 66.3 -2.34286 25.7
      vertex 66.3 -1.2 20.05
      vertex 66.3 -1.2 25.7
    endloop
  endfacet
  facet normal 1 0 0
    outer loop
      vertex 66.3 -1.2 20.05
      vertex 66.3 -2.34286 25.7
      vertex 66.3 -2.34286 20.05
    endloop
  endfacet
  facet normal -1 0 0
    outer loop
      vertex 75.5 -12.8571 20.05
      vertex 75.5 -11.7143 25.7
      vertex 75.5 -11.7143 20.05
    endloop
  endfacet
  facet normal -1 -0 0
    outer loop
      vertex 75.5 -11.7143 25.7
      vertex 75.5 -12.8571 20.05
      vertex 75.5 -12.8571 25.7
    endloop
  endfacet
  facet normal 1 -0 0
    outer loop
      vertex 76.5 -14 25.7
      vertex 76.5 -12.8571 20.05
      vertex 76.5 -12.8571 25.7
    endloop
  endfacet
  facet normal 1 0 0
    outer loop
      vertex 76.5 -12.8571 20.05
      vertex 76.5 -14 25.7
      vertex 76.5 -14 20.05
    endloop
  endfacet
  facet normal -1 0 0
    outer loop
      vertex 39.8 -9.65714 26.6
      vertex 39.8 -8.51429 32.25
      vertex 39.8 -8.51429 26.6
    endloop
  endfacet
  facet normal -1 -0 0
    outer loop
      vertex 39.8 -8.51429 32.25
      vertex 39.8 -9.65714 26.6
      vertex 39.8 -9.65714 32.25
    endloop
  endfacet
  facet normal 1 -0 0
    outer loop
      vertex 40.8 -8.51429 32.25
      vertex 40.8 -7.37143 26.6
      vertex 40.8 -7.37143 32.25
    endloop
  endfacet
  facet normal 1 0 0
    outer loop
      vertex 40.8 -7.37143 26.6
      vertex 40.8 -8.51429 32.25
      vertex 40.8 -8.51429 26.6
    endloop
  endfacet
  facet normal -1 0 0
    outer loop
      vertex 50 2 26.6
      vertex 50 3.14286 32.25
      vertex 50 3.14286 26.6
    endloop
  endfacet
  facet normal -1 -0 0
    outer loop
      vertex 50 3.14286 32.25
      vertex 50 2 26.6
      vertex 50 2 32.25
    endloop
  endfacet
  facet normal 1 -0 0
    outer loop
      vertex 51 3.14286 32.25
      vertex 51 4.28571 26.6
      vertex 51 4.28571 32.25
    endloop
  endfacet
  facet normal 1 0 0
    outer loop
      vertex 51 4.28571 26.6
      vertex 51 3.14286 32.25
      vertex 51 3.14286 26.6
    endloop
  endfacet
  facet normal -1 0 0
    outer loop
      vertex 60.2 4.62857 32.0167
      vertex 60.2 5.77143 26.6
      vertex 60.2 4.62857 26.6
    endloop
  endfacet
  facet normal -1 0 0
    outer loop
      vertex 60.2 5.77143 26.6
      vertex 60.2 4.62857 32.0167
      vertex 60.2 5.77143 32.25
    endloop
  endfacet
  facet normal -1 -0 0
    outer loop
      vertex 60.2 5.77143 32.25
      vertex 60.2 4.62857 32.0167
      vertex 60.2 4.22857 32.25
    endloop
  endfacet
  facet normal 1 -0 0
    outer loop
      vertex 61.2 3.48571 32.25
      vertex 61.2 4.62857 26.6
      vertex 61.2 4.62857 32.25
    endloop
  endfacet
  facet normal 1 0 0
    outer loop
      vertex 61.2 4.62857 26.6
      vertex 61.2 3.48571 32.25
      vertex 61.2 3.48571 26.6
    endloop
  endfacet
  facet normal -1 0 0
    outer loop
      vertex 70.4 -7.02857 26.6
      vertex 70.4 -5.88571 32.25
      vertex 70.4 -5.88571 26.6
    endloop
  endfacet
  facet normal -1 -0 0
    outer loop
      vertex 70.4 -5.88571 32.25
      vertex 70.4 -7.02857 26.6
      vertex 70.4 -7.02857 32.25
    endloop
  endfacet
  facet normal 1 -0 0
    outer loop
      vertex 71.4 -8.17143 32.25
      vertex 71.4 -7.02857 26.6
      vertex 71.4 -7.02857 32.25
    endloop
  endfacet
  facet normal 1 0 0
    outer loop
      vertex 71.4 -7.02857 26.6
      vertex 71.4 -8.17143 32.25
      vertex 71.4 -8.17143 26.6
    endloop
  endfacet
  facet normal -1 0 0
    outer loop
      vertex 34.7 -15.4857 33.15
      vertex 34.7 -14.3429 39.3
      vertex 34.7 -14.3429 33.15
    endloop
  endfacet
  facet normal -1 -0 0
    outer loop
      vertex 34.7 -14.3429 39.3
      vertex 34.7 -15.4857 33.15
      vertex 34.7 -15.4857 39.3
    endloop
  endfacet
  facet normal 0 0 1
    outer loop
      vertex 34.7 -14.3429 39.3
      vertex 35.7 -14.3429 39.3
      vertex 35.7 -13.2 39.3
    endloop
  endfacet
  facet normal 0 0 1
    outer loop
      vertex 35.7 -14.3429 39.3
      vertex 34.7 -14.3429 39.3
      vertex 34.7 -15.4857 39.3
    endloop
  endfacet
  facet normal 1 -0 0
    outer loop
      vertex 35.7 -14.3429 39.3
      vertex 35.7 -13.2 33.15
      vertex 35.7 -13.2 39.3
    endloop
  endfacet
  facet normal 1 0 0
    outer loop
      vertex 35.7 -13.2 33.15
      vertex 35.7 -14.3429 39.3
      vertex 35.7 -14.3429 33.15
    endloop
  endfacet
  facet normal -1 0 0
    outer loop
      vertex 44.9 -3.82857 36.95
      vertex 44.9 -2.68571 33.15
      vertex 44.9 -3.82857 33.15
    endloop
  endfacet
  facet normal -1 0 0
    outer loop
      vertex 44.9 -2.68571 33.15
      vertex 44.9 -3.82857 36.95
      vertex 44.9 -2.68571 37.2833
    endloop
  endfacet
  facet normal -1 0 0
    outer loop
      vertex 44.9 -3.82857 36.95
      vertex 44.9 -6.14286 39.3
      vertex 44.9 -2.68571 37.2833
    endloop
  endfacet
  facet normal -1 -0 -0
    outer loop
      vertex 44.9 -6.14286 39.3
      vertex 44.9 -3.82857 36.95
      vertex 44.9 -7.85714 39.3
    endloop
  endfacet
  facet normal -0 0 1
    outer loop
      vertex 44.9 -6.14286 39.3
      vertex 45.9 -7.85714 39.3
      vertex 45.9 -6.14286 39.3
    endloop
  endfacet
  facet normal 0 0 1
    outer loop
      vertex 45.9 -7.85714 39.3
      vertex 44.9 -6.14286 39.3
      vertex 44.9 -7.85714 39.3
    endloop
  endfacet
  facet normal 1 0 0
    outer loop
      vertex 45.9 -1.54286 36.6167
      vertex 45.9 -2.68571 36.2833
      vertex 45.9 -1.54286 33.15
    endloop
  endfacet
  facet normal 1 0 0
    outer loop
      vertex 45.9 -6.14286 39.3
      vertex 45.9 -2.68571 36.2833
      vertex 45.9 -1.54286 36.6167
    endloop
  endfacet
  facet normal 1 0 0
    outer loop
      vertex 45.9 -2.68571 36.2833
      vertex 45.9 -6.14286 39.3
      vertex 45.9 -7.85714 39.3
    endloop
  endfacet
  facet normal 1 0 0
    outer loop
      vertex 45.9 -1.54286 33.15
      vertex 45.9 -2.68571 36.2833
      vertex 45.9 -2.68571 33.15
    endloop
  endfacet
  facet normal -1 0 0
    outer loop
      vertex 55.1 2.68571 33.15
      vertex 55.1 -6.14286 39.3
      vertex 55.1 4.4 33.15
    endloop
  endfacet
  facet normal -1 -0 -0
    outer loop
      vertex 55.1 -6.14286 39.3
      vertex 55.1 2.68571 33.15
      vertex 55.1 -7.85714 39.3
    endloop
  endfacet
  facet normal -0 0 1
    outer loop
      vertex 55.1 -6.14286 39.3
      vertex 56.1 -7.85714 39.3
      vertex 56.1 -6.14286 39.3
    endloop
  endfacet
  facet normal 0 0 1
    outer loop
      vertex 56.1 -7.85714 39.3
      vertex 55.1 -6.14286 39.3
      vertex 55.1 -7.85714 39.3
    endloop
  endfacet
  facet normal 1 0 0
    outer loop
      vertex 56.1 -6.14286 39.3
      vertex 56.1 2.68571 33.15
      vertex 56.1 4.4 33.15
    endloop
  endfacet
  facet normal 1 0 0
    outer loop
      vertex 56.1 2.68571 33.15
      vertex 56.1 -6.14286 39.3
      vertex 56.1 -7.85714 39.3
    endloop
  endfacet
  facet normal -1 0 0
    outer loop
      vertex 65.3 -1.2 35.4167
      vertex 65.3 -0.057142 33.15
      vertex 65.3 -1.2 33.15
    endloop
  endfacet
  facet normal -1 0 0
    outer loop
      vertex 65.3 -0.057142 33.15
      vertex 65.3 -1.2 35.4167
      vertex 65.3 -0.057142 35.75
    endloop
  endfacet
  facet normal -1 0 0
    outer loop
      vertex 65.3 -1.2 35.4167
      vertex 65.3 -6.14286 39.3
      vertex 65.3 -0.057142 35.75
    endloop
  endfacet
  facet normal -1 -0 -0
    outer loop
      vertex 65.3 -6.14286 39.3
      vertex 65.3 -1.2 35.4167
      vertex 65.3 -7.85714 39.3
    endloop
  endfacet
  facet normal -0 0 1
    outer loop
      vertex 65.3 -6.14286 39.3
      vertex 66.3 -7.85714 39.3
      vertex 66.3 -6.14286 39.3
    endloop
  endfacet
  facet normal 0 0 1
    outer loop
      vertex 66.3 -7.85714 39.3
      vertex 65.3 -6.14286 39.3
      vertex 65.3 -7.85714 39.3
    endloop
  endfacet
  facet normal 1 0 0
    outer loop
      vertex 66.3 -1.2 36.4167
      vertex 66.3 -2.34286 36.0833
      vertex 66.3 -1.2 33.15
    endloop
  endfacet
  facet normal 1 0 0
    outer loop
      vertex 66.3 -6.14286 39.3
      vertex 66.3 -2.34286 36.0833
      vertex 66.3 -1.2 36.4167
    endloop
  endfacet
  facet normal 1 0 0
    outer loop
      vertex 66.3 -2.34286 36.0833
      vertex 66.3 -6.14286 39.3
      vertex 66.3 -7.85714 39.3
    endloop
  endfacet
  facet normal 1 0 0
    outer loop
      vertex 66.3 -1.2 33.15
      vertex 66.3 -2.34286 36.0833
      vertex 66.3 -2.34286 33.15
    endloop
  endfacet
  facet normal -1 0 0
    outer loop
      vertex 75.5 -12.8571 33.15
      vertex 75.5 -11.7143 39.3
      vertex 75.5 -11.7143 33.15
    endloop
  endfacet
  facet normal -1 -0 0
    outer loop
      vertex 75.5 -11.7143 39.3
      vertex 75.5 -12.8571 33.15
      vertex 75.5 -12.8571 39.3
    endloop
  endfacet
  facet normal 0 0 1
    outer loop
      vertex 75.5 -12.8571 39.3
      vertex 76.5 -12.8571 39.3
      vertex 75.5 -11.7143 39.3
    endloop
  endfacet
  facet normal 0 0 1
    outer loop
      vertex 76.5 -12.8571 39.3
      vertex 75.5 -12.8571 39.3
      vertex 76.5 -14 39.3
    endloop
  endfacet
  facet normal 1 -0 0
    outer loop
      vertex 76.5 -14 39.3
      vertex 76.5 -12.8571 33.15
      vertex 76.5 -12.8571 39.3
    endloop
  endfacet
  facet normal 1 0 0
    outer loop
      vertex 76.5 -12.8571 33.15
      vertex 76.5 -14 39.3
      vertex 76.5 -14 33.15
    endloop
  endfacet
  facet normal -0 0 1
    outer loop
      vertex 54.25 8 6.95
      vertex 55.1 7.82857 6.95
      vertex 55.1 8 6.95
    endloop
  endfacet
  facet normal 0 0 1
    outer loop
      vertex 45.9 -1.54286 6.95
      vertex 55.1 7.82857 6.95
      vertex 54.25 8 6.95
    endloop
  endfacet
  facet normal 0 0 1
    outer loop
      vertex 55.1 7.82857 6.95
      vertex 45.9 -1.54286 6.95
      vertex 45.9 -2.68571 6.95
    endloop
  endfacet
  facet normal 0 0 1
    outer loop
      vertex 33.25 -16 6.95
      vertex 34.7 -15.4857 6.95
      vertex 34.7 -14.3429 6.95
    endloop
  endfacet
  facet normal 0 0 1
    outer loop
      vertex 34.7 -15.4857 6.95
      vertex 33.25 -16 6.95
      vertex 34.25 -16 6.95
    endloop
  endfacet
  facet normal -0 0 1
    outer loop
      vertex 57.25 8 6.95
      vertex 65.3 -0.057142 6.95
      vertex 58.25 8 6.95
    endloop
  endfacet
  facet normal 0 0 1
    outer loop
      vertex 65.3 -0.057142 6.95
      vertex 57.25 8 6.95
      vertex 65.3 -1.2 6.95
    endloop
  endfacet
  facet normal -0 0 1
    outer loop
      vertex 76.5 -14 6.95
      vertex 79.25 -16 6.95
      vertex 76.5 -12.8571 6.95
    endloop
  endfacet
  facet normal 0 0 1
    outer loop
      vertex 79.25 -16 6.95
      vertex 76.5 -14 6.95
      vertex 78.25 -16 6.95
    endloop
  endfacet
  facet normal 0 0 1
    outer loop
      vertex 35.7 -13.2 6.95
      vertex 44.9 -3.82857 6.95
      vertex 44.9 -2.68571 6.95
    endloop
  endfacet
  facet normal 0 0 1
    outer loop
      vertex 44.9 -3.82857 6.95
      vertex 35.7 -13.2 6.95
      vertex 35.7 -14.3429 6.95
    endloop
  endfacet
  facet normal -0 0 1
    outer loop
      vertex 66.3 -2.34286 6.95
      vertex 75.5 -11.7143 6.95
      vertex 66.3 -1.2 6.95
    endloop
  endfacet
  facet normal 0 0 1
    outer loop
      vertex 75.5 -11.7143 6.95
      vertex 66.3 -2.34286 6.95
      vertex 75.5 -12.8571 6.95
    endloop
  endfacet
  facet normal 0 0 -1
    outer loop
      vertex 39.8 -16 6.05
      vertex 33.25 -16 6.05
      vertex 39.8 -8.51429 6.05
    endloop
  endfacet
  facet normal 0 0 -1
    outer loop
      vertex 40.8 -7.37143 6.05
      vertex 50 -16 6.05
      vertex 40.8 -16 6.05
    endloop
  endfacet
  facet normal 0 0 -1
    outer loop
      vertex 50 -16 6.05
      vertex 40.8 -7.37143 6.05
      vertex 50 3.14286 6.05
    endloop
  endfacet
  facet normal 0 0 -1
    outer loop
      vertex 51 4.28571 6.05
      vertex 60.2 5.77143 6.05
      vertex 60.2 -16 6.05
    endloop
  endfacet
  facet normal 0 -0 -1
    outer loop
      vertex 54.25 8 6.05
      vertex 60.2 5.77143 6.05
      vertex 51 4.28571 6.05
    endloop
  endfacet
  facet normal 0 0 -1
    outer loop
      vertex 51 4.28571 6.05
      vertex 60.2 -16 6.05
      vertex 51 -16 6.05
    endloop
  endfacet
  facet normal 0 0 -1
    outer loop
      vertex 60.2 5.77143 6.05
      vertex 54.25 8 6.05
      vertex 58.25 8 6.05
    endloop
  endfacet
  facet normal 0 0 -1
    outer loop
      vertex 61.2 -16 6.05
      vertex 70.4 -5.88571 6.05
      vertex 70.4 -16 6.05
    endloop
  endfacet
  facet normal -0 0 -1
    outer loop
      vertex 70.4 -5.88571 6.05
      vertex 61.2 -16 6.05
      vertex 61.2 4.62857 6.05
    endloop
  endfacet
  facet normal 0 0 -1
    outer loop
      vertex 79.25 -16 6.05
      vertex 71.4 -16 6.05
      vertex 71.4 -7.02857 6.05
    endloop
  endfacet
  facet normal 0 0 1
    outer loop
      vertex 33.25 -16 13.5
      vertex 39.8 -9.65714 13.5
      vertex 39.8 -8.51429 13.5
    endloop
  endfacet
  facet normal 0 0 1
    outer loop
      vertex 39.8 -9.65714 13.5
      vertex 33.25 -16 13.5
      vertex 34.25 -16 13.5
    endloop
  endfacet
  facet normal 0 0 1
    outer loop
      vertex 51 4.28571 13.5
      vertex 55.25 8 13.5
      vertex 54.25 8 13.5
    endloop
  endfacet
  facet normal 0 0 1
    outer loop
      vertex 55.25 8 13.5
      vertex 51 4.28571 13.5
      vertex 51 3.14286 13.5
    endloop
  endfacet
  facet normal -0 0 1
    outer loop
      vertex 57.25 8 13.5
      vertex 60.2 5.77143 13.5
      vertex 58.25 8 13.5
    endloop
  endfacet
  facet normal 0 0 1
    outer loop
      vertex 60.2 5.77143 13.5
      vertex 57.25 8 13.5
      vertex 60.2 4.62857 13.5
    endloop
  endfacet
  facet normal -0 0 1
    outer loop
      vertex 71.4 -8.17143 13.5
      vertex 79.25 -16 13.5
      vertex 71.4 -7.02857 13.5
    endloop
  endfacet
  facet normal 0 0 1
    outer loop
      vertex 79.25 -16 13.5
      vertex 71.4 -8.17143 13.5
      vertex 78.25 -16 13.5
    endloop
  endfacet
  facet normal 0 0 1
    outer loop
      vertex 40.8 -7.37143 13.5
      vertex 50 2 13.5
      vertex 50 3.14286 13.5
    endloop
  endfacet
  facet normal 0 0 1
    outer loop
      vertex 50 2 13.5
      vertex 40.8 -7.37143 13.5
      vertex 40.8 -8.51429 13.5
    endloop
  endfacet
  facet normal -0 0 1
    outer loop
      vertex 61.2 3.48571 13.5
      vertex 70.4 -5.88571 13.5
      vertex 61.2 4.62857 13.5
    endloop
  endfacet
  facet normal 0 0 1
    outer loop
      vertex 70.4 -5.88571 13.5
      vertex 61.2 3.48571 13.5
      vertex 70.4 -7.02857 13.5
    endloop
  endfacet
  facet normal 0 0 -1
    outer loop
      vertex 55.1 7.82857 12.6
      vertex 54.25 8 12.6
      vertex 55.1 8 12.6
    endloop
  endfacet
  facet normal 0 0 -1
    outer loop
      vertex 45.9 -1.54286 12.6
      vertex 55.1 7.82857 12.6
      vertex 45.9 -2.68571 12.6
    endloop
  endfacet
  facet normal -0 0 -1
    outer loop
      vertex 55.1 7.82857 12.6
      vertex 45.9 -1.54286 12.6
      vertex 54.25 8 12.6
    endloop
  endfacet
  facet normal 0 0 -1
    outer loop
      vertex 33.25 -16 12.6
      vertex 34.7 -15.4857 12.6
      vertex 34.25 -16 12.6
    endloop
  endfacet
  facet normal -0 0 -1
    outer loop
      vertex 34.7 -15.4857 12.6
      vertex 33.25 -16 12.6
      vertex 34.7 -14.3429 12.6
    endloop
  endfacet
  facet normal 0 0 -1
    outer loop
      vertex 57.25 8 12.6
      vertex 65.3 -0.057142 12.6
      vertex 65.3 -1.2 12.6
    endloop
  endfacet
  facet normal 0 0 -1
    outer loop
      vertex 65.3 -0.057142 12.6
      vertex 57.25 8 12.6
      vertex 58.25 8 12.6
    endloop
  endfacet
  facet normal 0 0 -1
    outer loop
      vertex 76.5 -14 12.6
      vertex 79.25 -16 12.6
      vertex 78.25 -16 12.6
    endloop
  endfacet
  facet normal 0 0 -1
    outer loop
      vertex 79.25 -16 12.6
      vertex 76.5 -14 12.6
      vertex 76.5 -12.8571 12.6
    endloop
  endfacet
  facet normal 0 0 -1
    outer loop
      vertex 35.7 -13.2 12.6
      vertex 44.9 -3.82857 12.6
      vertex 35.7 -14.3429 12.6
    endloop
  endfacet
  facet normal -0 0 -1
    outer loop
      vertex 44.9 -3.82857 12.6
      vertex 35.7 -13.2 12.6
      vertex 44.9 -2.68571 12.6
    endloop
  endfacet
  facet normal 0 0 -1
    outer loop
      vertex 66.3 -2.34286 12.6
      vertex 75.5 -11.7143 12.6
      vertex 75.5 -12.8571 12.6
    endloop
  endfacet
  facet normal 0 0 -1
    outer loop
      vertex 75.5 -11.7143 12.6
      vertex 66.3 -2.34286 12.6
      vertex 66.3 -1.2 12.6
    endloop
  endfacet
  facet normal -0 0 1
    outer loop
      vertex 54.25 8 20.05
      vertex 55.1 7.82857 20.05
      vertex 55.1 8 20.05
    endloop
  endfacet
  facet normal 0 0 1
    outer loop
      vertex 45.9 -1.54286 20.05
      vertex 55.1 7.82857 20.05
      vertex 54.25 8 20.05
    endloop
  endfacet
  facet normal 0 0 1
    outer loop
      vertex 55.1 7.82857 20.05
      vertex 45.9 -1.54286 20.05
      vertex 45.9 -2.68571 20.05
    endloop
  endfacet
  facet normal 0 0 1
    outer loop
      vertex 33.25 -16 20.05
      vertex 34.7 -15.4857 20.05
      vertex 34.7 -14.3429 20.05
    endloop
  endfacet
  facet normal 0 0 1
    outer loop
      vertex 34.7 -15.4857 20.05
      vertex 33.25 -16 20.05
      vertex 34.25 -16 20.05
    endloop
  endfacet
  facet normal -0 0 1
    outer loop
      vertex 57.25 8 20.05
      vertex 65.3 -0.057142 20.05
      vertex 58.25 8 20.05
    endloop
  endfacet
  facet normal 0 0 1
    outer loop
      vertex 65.3 -0.057142 20.05
      vertex 57.25 8 20.05
      vertex 65.3 -1.2 20.05
    endloop
  endfacet
  facet normal -0 0 1
    outer loop
      vertex 76.5 -14 20.05
      vertex 79.25 -16 20.05
      vertex 76.5 -12.8571 20.05
    endloop
  endfacet
  facet normal 0 0 1
    outer loop
      vertex 79.25 -16 20.05
      vertex 76.5 -14 20.05
      vertex 78.25 -16 20.05
    endloop
  endfacet
  facet normal 0 0 1
    outer loop
      vertex 35.7 -13.2 20.05
      vertex 44.9 -3.82857 20.05
      vertex 44.9 -2.68571 20.05
    endloop
  endfacet
  facet normal 0 0 1
    outer loop
      vertex 44.9 -3.82857 20.05
      vertex 35.7 -13.2 20.05
      vertex 35.7 -14.3429 20.05
    endloop
  endfacet
  facet normal -0 0 1
    outer loop
      vertex 66.3 -2.34286 20.05
      vertex 75.5 -11.7143 20.05
      vertex 66.3 -1.2 20.05
    endloop
  endfacet
  facet normal 0 0 1
    outer loop
      vertex 75.5 -11.7143 20.05
      vertex 66.3 -2.34286 20.05
      vertex 75.5 -12.8571 20.05
    endloop
  endfacet
  facet normal 0 0 -1
    outer loop
      vertex 33.25 -16 19.15
      vertex 39.8 -9.65714 19.15
      vertex 34.25 -16 19.15
    endloop
  endfacet
  facet normal -0 0 -1
    outer loop
      vertex 39.8 -9.65714 19.15
      vertex 33.25 -16 19.15
      vertex 39.8 -8.51429 19.15
    endloop
  endfacet
  facet normal 0 0 -1
    outer loop
      vertex 51 4.28571 19.15
      vertex 55.25 8 19.15
      vertex 51 3.14286 19.15
    endloop
  endfacet
  facet normal -0 0 -1
    outer loop
      vertex 55.25 8 19.15
      vertex 51 4.28571 19.15
      vertex 54.25 8 19.15
    endloop
  endfacet
  facet normal 0 0 -1
    outer loop
      vertex 57.25 8 19.15
      vertex 60.2 5.77143 19.15
      vertex 60.2 4.62857 19.15
    endloop
  endfacet
  facet normal 0 0 -1
    outer loop
      vertex 60.2 5.77143 19.15
      vertex 57.25 8 19.15
      vertex 58.25 8 19.15
    endloop
  endfacet
  facet normal 0 0 -1
    outer loop
      vertex 71.4 -8.17143 19.15
      vertex 79.25 -16 19.15
      vertex 78.25 -16 19.15
    endloop
  endfacet
  facet normal 0 0 -1
    outer loop
      vertex 79.25 -16 19.15
      vertex 71.4 -8.17143 19.15
      vertex 71.4 -7.02857 19.15
    endloop
  endfacet
  facet normal 0 0 -1
    outer loop
      vertex 40.8 -7.37143 19.15
      vertex 50 2 19.15
      vertex 40.8 -8.51429 19.15
    endloop
  endfacet
  facet normal -0 0 -1
    outer loop
      vertex 50 2 19.15
      vertex 40.8 -7.37143 19.15
      vertex 50 3.14286 19.15
    endloop
  endfacet
  facet normal 0 0 -1
    outer loop
      vertex 61.2 3.48571 19.15
      vertex 70.4 -5.88571 19.15
      vertex 70.4 -7.02857 19.15
    endloop
  endfacet
  facet normal 0 0 -1
    outer loop
      vertex 70.4 -5.88571 19.15
      vertex 61.2 3.48571 19.15
      vertex 61.2 4.62857 19.15
    endloop
  endfacet
  facet normal 0 0 1
    outer loop
      vertex 33.25 -16 26.6
      vertex 39.8 -9.65714 26.6
      vertex 39.8 -8.51429 26.6
    endloop
  endfacet
  facet normal 0 0 1
    outer loop
      vertex 39.8 -9.65714 26.6
      vertex 33.25 -16 26.6
      vertex 34.25 -16 26.6
    endloop
  endfacet
  facet normal 0 0 1
    outer loop
      vertex 51 4.28571 26.6
      vertex 55.25 8 26.6
      vertex 54.25 8 26.6
    endloop
  endfacet
  facet normal 0 0 1
    outer loop
      vertex 55.25 8 26.6
      vertex 51 4.28571 26.6
      vertex 51 3.14286 26.6
    endloop
  endfacet
  facet normal -0 0 1
    outer loop
      vertex 57.25 8 26.6
      vertex 60.2 5.77143 26.6
      vertex 58.25 8 26.6
    endloop
  endfacet
  facet normal 0 0 1
    outer loop
      vertex 60.2 5.77143 26.6
      vertex 57.25 8 26.6
      vertex 60.2 4.62857 26.6
    endloop
  endfacet
  facet normal -0 0 1
    outer loop
      vertex 71.4 -8.17143 26.6
      vertex 79.25 -16 26.6
      vertex 71.4 -7.02857 26.6
    endloop
  endfacet
  facet normal 0 0 1
    outer loop
      vertex 79.25 -16 26.6
      vertex 71.4 -8.17143 26.6
      vertex 78.25 -16 26.6
    endloop
  endfacet
  facet normal 0 0 1
    outer loop
      vertex 40.8 -7.37143 26.6
      vertex 50 2 26.6
      vertex 50 3.14286 26.6
    endloop
  endfacet
  facet normal 0 0 1
    outer loop
      vertex 50 2 26.6
      vertex 40.8 -7.37143 26.6
      vertex 40.8 -8.51429 26.6
    endloop
  endfacet
  facet normal -0 0 1
    outer loop
      vertex 61.2 3.48571 26.6
      vertex 70.4 -5.88571 26.6
      vertex 61.2 4.62857 26.6
    endloop
  endfacet
  facet normal 0 0 1
    outer loop
      vertex 70.4 -5.88571 26.6
      vertex 61.2 3.48571 26.6
      vertex 70.4 -7.02857 26.6
    endloop
  endfacet
  facet normal 0 0 -1
    outer loop
      vertex 55.1 7.82857 25.7
      vertex 54.25 8 25.7
      vertex 55.1 8 25.7
    endloop
  endfacet
  facet normal 0 0 -1
    outer loop
      vertex 45.9 -1.54286 25.7
      vertex 55.1 7.82857 25.7
      vertex 45.9 -2.68571 25.7
    endloop
  endfacet
  facet normal -0 0 -1
    outer loop
      vertex 55.1 7.82857 25.7
      vertex 45.9 -1.54286 25.7
      vertex 54.25 8 25.7
    endloop
  endfacet
  facet normal 0 0 -1
    outer loop
      vertex 33.25 -16 25.7
      vertex 34.7 -15.4857 25.7
      vertex 34.25 -16 25.7
    endloop
  endfacet
  facet normal -0 0 -1
    outer loop
      vertex 34.7 -15.4857 25.7
      vertex 33.25 -16 25.7
      vertex 34.7 -14.3429 25.7
    endloop
  endfacet
  facet normal 0 0 -1
    outer loop
      vertex 57.25 8 25.7
      vertex 65.3 -0.057142 25.7
      vertex 65.3 -1.2 25.7
    endloop
  endfacet
  facet normal 0 0 -1
    outer loop
      vertex 65.3 -0.057142 25.7
      vertex 57.25 8 25.7
      vertex 58.25 8 25.7
    endloop
  endfacet
  facet normal 0 0 -1
    outer loop
      vertex 76.5 -14 25.7
      vertex 79.25 -16 25.7
      vertex 78.25 -16 25.7
    endloop
  endfacet
  facet normal 0 0 -1
    outer loop
      vertex 79.25 -16 25.7
      vertex 76.5 -14 25.7
      vertex 76.5 -12.8571 25.7
    endloop
  endfacet
  facet normal 0 0 -1
    outer loop
      vertex 35.7 -13.2 25.7
      vertex 44.9 -3.82857 25.7
      vertex 35.7 -14.3429 25.7
    endloop
  endfacet
  facet normal -0 0 -1
    outer loop
      vertex 44.9 -3.82857 25.7
      vertex 35.7 -13.2 25.7
      vertex 44.9 -2.68571 25.7
    endloop
  endfacet
  facet normal 0 0 -1
    outer loop
      vertex 66.3 -2.34286 25.7
      vertex 75.5 -11.7143 25.7
      vertex 75.5 -12.8571 25.7
    endloop
  endfacet
  facet normal 0 0 -1
    outer loop
      vertex 75.5 -11.7143 25.7
      vertex 66.3 -2.34286 25.7
      vertex 66.3 -1.2 25.7
    endloop
  endfacet
  facet normal 0 0 1
    outer loop
      vertex 33.25 -16 33.15
      vertex 34.7 -15.4857 33.15
      vertex 34.7 -14.3429 33.15
    endloop
  endfacet
  facet normal 0 0 1
    outer loop
      vertex 34.7 -15.4857 33.15
      vertex 33.25 -16 33.15
      vertex 34.25 -16 33.15
    endloop
  endfacet
  facet normal -0 0 1
    outer loop
      vertex 76.5 -14 33.15
      vertex 79.25 -16 33.15
      vertex 76.5 -12.8571 33.15
    endloop
  endfacet
  facet normal 0 0 1
    outer loop
      vertex 79.25 -16 33.15
      vertex 76.5 -14 33.15
      vertex 78.25 -16 33.15
    endloop
  endfacet
  facet normal -0 0 1
    outer loop
      vertex 51.1 4.4 33.15
      vertex 55.1 2.68571 33.15
      vertex 55.1 4.4 33.15
    endloop
  endfacet
  facet normal 0 0 1
    outer loop
      vertex 51.1 4.4 33.15
      vertex 50.6 2.68571 33.15
      vertex 55.1 2.68571 33.15
    endloop
  endfacet
  facet normal 0 0 1
    outer loop
      vertex 45.9 -1.54286 33.15
      vertex 50.6 2.68571 33.15
      vertex 51.1 4.4 33.15
    endloop
  endfacet
  facet normal 0 0 1
    outer loop
      vertex 50.6 2.68571 33.15
      vertex 45.9 -1.54286 33.15
      vertex 45.9 -2.68571 33.15
    endloop
  endfacet
  facet normal 0 0 1
    outer loop
      vertex 65.3 -0.057142 33.15
      vertex 61.9 2.68571 33.15
      vertex 65.3 -1.2 33.15
    endloop
  endfacet
  facet normal 0 0 1
    outer loop
      vertex 61.4 4.4 33.15
      vertex 61.9 2.68571 33.15
      vertex 65.3 -0.057142 33.15
    endloop
  endfacet
  facet normal 0 0 1
    outer loop
      vertex 56.1 2.68571 33.15
      vertex 61.4 4.4 33.15
      vertex 56.1 4.4 33.15
    endloop
  endfacet
  facet normal 0 0 1
    outer loop
      vertex 61.4 4.4 33.15
      vertex 56.1 2.68571 33.15
      vertex 61.9 2.68571 33.15
    endloop
  endfacet
  facet normal 0 0 1
    outer loop
      vertex 35.7 -13.2 33.15
      vertex 44.9 -3.82857 33.15
      vertex 44.9 -2.68571 33.15
    endloop
  endfacet
  facet normal 0 0 1
    outer loop
      vertex 44.9 -3.82857 33.15
      vertex 35.7 -13.2 33.15
      vertex 35.7 -14.3429 33.15
    endloop
  endfacet
  facet normal -0 0 1
    outer loop
      vertex 66.3 -2.34286 33.15
      vertex 75.5 -11.7143 33.15
      vertex 66.3 -1.2 33.15
    endloop
  endfacet
  facet normal 0 0 1
    outer loop
      vertex 75.5 -11.7143 33.15
      vertex 66.3 -2.34286 33.15
      vertex 75.5 -12.8571 33.15
    endloop
  endfacet
  facet normal 0 0 -1
    outer loop
      vertex 33.25 -16 32.25
      vertex 39.8 -9.65714 32.25
      vertex 34.25 -16 32.25
    endloop
  endfacet
  facet normal -0 0 -1
    outer loop
      vertex 39.8 -9.65714 32.25
      vertex 33.25 -16 32.25
      vertex 39.8 -8.51429 32.25
    endloop
  endfacet
  facet normal 0 0 -1
    outer loop
      vertex 71.4 -8.17143 32.25
      vertex 79.25 -16 32.25
      vertex 78.25 -16 32.25
    endloop
  endfacet
  facet normal 0 0 -1
    outer loop
      vertex 79.25 -16 32.25
      vertex 71.4 -8.17143 32.25
      vertex 71.4 -7.02857 32.25
    endloop
  endfacet
  facet normal 0 0 -1
    outer loop
      vertex 60.2 4.22857 32.25
      vertex 60.05 5.94286 32.25
      vertex 60.2 5.77143 32.25
    endloop
  endfacet
  facet normal 0 0 -1
    outer loop
      vertex 60.2 4.22857 32.25
      vertex 52.45 5.94286 32.25
      vertex 60.05 5.94286 32.25
    endloop
  endfacet
  facet normal 0 0 -1
    outer loop
      vertex 51.95 4.22857 32.25
      vertex 52.45 5.94286 32.25
      vertex 60.2 4.22857 32.25
    endloop
  endfacet
  facet normal 0 0 -1
    outer loop
      vertex 51 4.28571 32.25
      vertex 51.95 4.22857 32.25
      vertex 51 3.14286 32.25
    endloop
  endfacet
  facet normal 0 0 -1
    outer loop
      vertex 51.95 4.22857 32.25
      vertex 51 4.28571 32.25
      vertex 52.45 5.94286 32.25
    endloop
  endfacet
  facet normal 0 0 -1
    outer loop
      vertex 40.8 -7.37143 32.25
      vertex 50 2 32.25
      vertex 40.8 -8.51429 32.25
    endloop
  endfacet
  facet normal -0 0 -1
    outer loop
      vertex 50 2 32.25
      vertex 40.8 -7.37143 32.25
      vertex 50 3.14286 32.25
    endloop
  endfacet
  facet normal 0 0 -1
    outer loop
      vertex 61.2 3.48571 32.25
      vertex 70.4 -5.88571 32.25
      vertex 70.4 -7.02857 32.25
    endloop
  endfacet
  facet normal 0 0 -1
    outer loop
      vertex 70.4 -5.88571 32.25
      vertex 61.2 3.48571 32.25
      vertex 61.2 4.62857 32.25
    endloop
  endfacet
  facet normal 0 -1 0
    outer loop
      vertex 34.25 -17 6.05
      vertex 78.25 -17 44.05
      vertex 34.25 -17 44.05
    endloop
  endfacet
  facet normal 0 -1 -0
    outer loop
      vertex 78.25 -17 44.05
      vertex 34.25 -17 6.05
      vertex 78.25 -17 6.05
    endloop
  endfacet
  facet normal -0 0 1
    outer loop
      vertex 34.25 -16 44.05
      vertex 78.25 -17 44.05
      vertex 78.25 -16 44.05
    endloop
  endfacet
  facet normal 0 0 1
    outer loop
      vertex 78.25 -17 44.05
      vertex 34.25 -16 44.05
      vertex 34.25 -17 44.05
    endloop
  endfacet
  facet normal 0 0 -1
    outer loop
      vertex 55.25 8 6.05
      vertex 57.25 14 6.05
      vertex 57.25 8 6.05
    endloop
  endfacet
  facet normal -0 0 -1
    outer loop
      vertex 57.25 14 6.05
      vertex 55.25 8 6.05
      vertex 55.25 14 6.05
    endloop
  endfacet
  facet normal 0 0 -1
    outer loop
      vertex 34.25 -17 6.05
      vertex 78.25 -16 6.05
      vertex 78.25 -17 6.05
    endloop
  endfacet
  facet normal -0 0 -1
    outer loop
      vertex 78.25 -16 6.05
      vertex 34.25 -17 6.05
      vertex 34.25 -16 6.05
    endloop
  endfacet
  facet normal 1 -0 0
    outer loop
      vertex 78.25 -17 44.05
      vertex 78.25 -16 33.15
      vertex 78.25 -16 44.05
    endloop
  endfacet
  facet normal 1 0 0
    outer loop
      vertex 78.25 -16 33.15
      vertex 78.25 -17 44.05
      vertex 78.25 -16 32.25
    endloop
  endfacet
  facet normal 1 0 0
    outer loop
      vertex 78.25 -16 32.25
      vertex 78.25 -17 44.05
      vertex 78.25 -16 26.6
    endloop
  endfacet
  facet normal 1 0 0
    outer loop
      vertex 78.25 -16 26.6
      vertex 78.25 -17 44.05
      vertex 78.25 -16 25.7
    endloop
  endfacet
  facet normal 1 0 0
    outer loop
      vertex 78.25 -17 6.05
      vertex 78.25 -16 25.7
      vertex 78.25 -17 44.05
    endloop
  endfacet
  facet normal 1 0 0
    outer loop
      vertex 78.25 -16 25.7
      vertex 78.25 -17 6.05
      vertex 78.25 -16 20.05
    endloop
  endfacet
  facet normal 1 0 0
    outer loop
      vertex 78.25 -16 20.05
      vertex 78.25 -17 6.05
      vertex 78.25 -16 19.15
    endloop
  endfacet
  facet normal 1 0 0
    outer loop
      vertex 78.25 -16 19.15
      vertex 78.25 -17 6.05
      vertex 78.25 -16 13.5
    endloop
  endfacet
  facet normal 1 0 0
    outer loop
      vertex 78.25 -16 13.5
      vertex 78.25 -17 6.05
      vertex 78.25 -16 12.6
    endloop
  endfacet
  facet normal 1 0 0
    outer loop
      vertex 78.25 -16 12.6
      vertex 78.25 -17 6.05
      vertex 78.25 -16 6.95
    endloop
  endfacet
  facet normal 1 0 0
    outer loop
      vertex 78.25 -16 6.95
      vertex 78.25 -17 6.05
      vertex 78.25 -16 6.05
    endloop
  endfacet
  facet normal 2.02287e-08 0.503871 0.863779
    outer loop
      vertex 44.9 -3.82857 36.95
      vertex 34.25 -16 44.05
      vertex 44.9 -7.85714 39.3
    endloop
  endfacet
  facet normal 0 0.503871 0.863779
    outer loop
      vertex 55.1 2.68571 33.15
      vertex 50.6 2.68571 33.15
      vertex 55.1 -7.85714 39.3
    endloop
  endfacet
  facet normal -8.99156e-08 0.503871 0.863779
    outer loop
      vertex 56.1 -7.85714 39.3
      vertex 65.3 -1.2 35.4167
      vertex 61.9 2.68571 33.15
    endloop
  endfacet
  facet normal 1.35911e-07 0.503871 0.863779
    outer loop
      vertex 66.3 -7.85714 39.3
      vertex 78.25 -16 44.05
      vertex 66.3 -2.34286 36.0833
    endloop
  endfacet
  facet normal -0 0.503871 0.863779
    outer loop
      vertex 65.3 -7.85714 39.3
      vertex 78.25 -16 44.05
      vertex 66.3 -7.85714 39.3
    endloop
  endfacet
  facet normal 0 0.503871 0.863779
    outer loop
      vertex 56.1 -7.85714 39.3
      vertex 61.9 2.68571 33.15
      vertex 56.1 2.68571 33.15
    endloop
  endfacet
  facet normal 0 0.503871 0.863779
    outer loop
      vertex 65.3 -1.2 35.4167
      vertex 56.1 -7.85714 39.3
      vertex 65.3 -7.85714 39.3
    endloop
  endfacet
  facet normal -0 0.503871 0.863779
    outer loop
      vertex 56.1 -7.85714 39.3
      vertex 78.25 -16 44.05
      vertex 65.3 -7.85714 39.3
    endloop
  endfacet
  facet normal 0 0.503871 0.863779
    outer loop
      vertex 34.25 -16 44.05
      vertex 56.1 -7.85714 39.3
      vertex 55.1 -7.85714 39.3
    endloop
  endfacet
  facet normal -2.12535e-07 0.503871 0.863779
    outer loop
      vertex 45.9 -2.68571 36.2833
      vertex 55.1 -7.85714 39.3
      vertex 50.6 2.68571 33.15
    endloop
  endfacet
  facet normal -0 0.503871 0.863779
    outer loop
      vertex 45.9 -7.85714 39.3
      vertex 55.1 -7.85714 39.3
      vertex 45.9 -2.68571 36.2833
    endloop
  endfacet
  facet normal 0 0.503871 0.863779
    outer loop
      vertex 34.25 -16 44.05
      vertex 55.1 -7.85714 39.3
      vertex 45.9 -7.85714 39.3
    endloop
  endfacet
  facet normal 0 0.503871 0.863779
    outer loop
      vertex 34.25 -16 44.05
      vertex 45.9 -7.85714 39.3
      vertex 44.9 -7.85714 39.3
    endloop
  endfacet
  facet normal 0 0.503871 0.863779
    outer loop
      vertex 56.1 -7.85714 39.3
      vertex 34.25 -16 44.05
      vertex 78.25 -16 44.05
    endloop
  endfacet
  facet normal 3.27444e-07 0.503871 0.863779
    outer loop
      vertex 57.25 8 30.05
      vertex 60.2 4.22857 32.25
      vertex 60.2 4.62857 32.0167
    endloop
  endfacet
  facet normal -0 0.503871 0.863779
    outer loop
      vertex 55.25 8 30.05
      vertex 60.2 4.22857 32.25
      vertex 57.25 8 30.05
    endloop
  endfacet
  facet normal 0 0.503871 0.863779
    outer loop
      vertex 60.2 4.22857 32.25
      vertex 55.25 8 30.05
      vertex 51.95 4.22857 32.25
    endloop
  endfacet
  facet normal -0.752576 0.658506 0
    outer loop
      vertex 34.7 -15.4857 33.15
      vertex 34.25 -16 33.15
      vertex 34.7 -15.4857 39.3
    endloop
  endfacet
  facet normal -0.752577 0.658505 0
    outer loop
      vertex 35.7 -14.3429 33.15
      vertex 44.9 -3.82857 36.95
      vertex 44.9 -3.82857 33.15
    endloop
  endfacet
  facet normal -0.752577 0.658505 0
    outer loop
      vertex 35.7 -14.3429 39.3
      vertex 44.9 -3.82857 36.95
      vertex 35.7 -14.3429 33.15
    endloop
  endfacet
  facet normal -0.752577 0.658505 -1.39662e-07
    outer loop
      vertex 35.7 -14.3429 39.3
      vertex 34.25 -16 44.05
      vertex 44.9 -3.82857 36.95
    endloop
  endfacet
  facet normal -0.752577 0.658504 -2.33257e-07
    outer loop
      vertex 34.7 -15.4857 39.3
      vertex 34.25 -16 44.05
      vertex 35.7 -14.3429 39.3
    endloop
  endfacet
  facet normal -0.752576 0.658506 0
    outer loop
      vertex 34.25 -16 44.05
      vertex 34.7 -15.4857 39.3
      vertex 34.25 -16 33.15
    endloop
  endfacet
  facet normal -0.752577 0.658505 0
    outer loop
      vertex 51 3.14286 26.6
      vertex 55.25 8 30.05
      vertex 55.25 8 26.6
    endloop
  endfacet
  facet normal -0.752577 0.658505 1.12386e-07
    outer loop
      vertex 55.25 8 30.05
      vertex 51 3.14286 26.6
      vertex 51.95 4.22857 32.25
    endloop
  endfacet
  facet normal -0.752576 0.658505 0
    outer loop
      vertex 51.95 4.22857 32.25
      vertex 51 3.14286 26.6
      vertex 51 3.14286 32.25
    endloop
  endfacet
  facet normal -0.752577 0.658505 0
    outer loop
      vertex 34.25 -16 13.5
      vertex 39.8 -9.65714 19.15
      vertex 39.8 -9.65714 13.5
    endloop
  endfacet
  facet normal -0.752577 0.658505 0
    outer loop
      vertex 39.8 -9.65714 19.15
      vertex 34.25 -16 13.5
      vertex 34.25 -16 19.15
    endloop
  endfacet
  facet normal -0.752576 0.658506 0
    outer loop
      vertex 34.25 -16 6.95
      vertex 34.7 -15.4857 12.6
      vertex 34.7 -15.4857 6.95
    endloop
  endfacet
  facet normal -0.752576 0.658506 0
    outer loop
      vertex 34.7 -15.4857 12.6
      vertex 34.25 -16 6.95
      vertex 34.25 -16 12.6
    endloop
  endfacet
  facet normal -0.752577 0.658505 0
    outer loop
      vertex 51 3.14286 13.5
      vertex 55.25 8 19.15
      vertex 55.25 8 13.5
    endloop
  endfacet
  facet normal -0.752577 0.658505 0
    outer loop
      vertex 55.25 8 19.15
      vertex 51 3.14286 13.5
      vertex 51 3.14286 19.15
    endloop
  endfacet
  facet normal -0.752576 0.658506 0
    outer loop
      vertex 34.25 -16 20.05
      vertex 34.7 -15.4857 25.7
      vertex 34.7 -15.4857 20.05
    endloop
  endfacet
  facet normal -0.752576 0.658506 0
    outer loop
      vertex 34.7 -15.4857 25.7
      vertex 34.25 -16 20.05
      vertex 34.25 -16 25.7
    endloop
  endfacet
  facet normal -0.752577 0.658505 0
    outer loop
      vertex 34.25 -16 26.6
      vertex 39.8 -9.65714 32.25
      vertex 39.8 -9.65714 26.6
    endloop
  endfacet
  facet normal -0.752577 0.658505 0
    outer loop
      vertex 39.8 -9.65714 32.25
      vertex 34.25 -16 26.6
      vertex 34.25 -16 32.25
    endloop
  endfacet
  facet normal -0.752577 0.658505 0
    outer loop
      vertex 35.7 -14.3429 6.95
      vertex 44.9 -3.82857 12.6
      vertex 44.9 -3.82857 6.95
    endloop
  endfacet
  facet normal -0.752577 0.658505 0
    outer loop
      vertex 44.9 -3.82857 12.6
      vertex 35.7 -14.3429 6.95
      vertex 35.7 -14.3429 12.6
    endloop
  endfacet
  facet normal -0.752577 0.658505 0
    outer loop
      vertex 40.8 -8.51429 13.5
      vertex 50 2 19.15
      vertex 50 2 13.5
    endloop
  endfacet
  facet normal -0.752577 0.658505 0
    outer loop
      vertex 50 2 19.15
      vertex 40.8 -8.51429 13.5
      vertex 40.8 -8.51429 19.15
    endloop
  endfacet
  facet normal -0.752577 0.658504 0
    outer loop
      vertex 45.9 -2.68571 6.95
      vertex 55.1 7.82857 12.6
      vertex 55.1 7.82857 6.95
    endloop
  endfacet
  facet normal -0.752577 0.658504 0
    outer loop
      vertex 55.1 7.82857 12.6
      vertex 45.9 -2.68571 6.95
      vertex 45.9 -2.68571 12.6
    endloop
  endfacet
  facet normal -0.752577 0.658505 0
    outer loop
      vertex 35.7 -14.3429 20.05
      vertex 44.9 -3.82857 25.7
      vertex 44.9 -3.82857 20.05
    endloop
  endfacet
  facet normal -0.752577 0.658505 0
    outer loop
      vertex 44.9 -3.82857 25.7
      vertex 35.7 -14.3429 20.05
      vertex 35.7 -14.3429 25.7
    endloop
  endfacet
  facet normal -0.752577 0.658504 0
    outer loop
      vertex 45.9 -2.68571 20.05
      vertex 55.1 7.82857 25.7
      vertex 55.1 7.82857 20.05
    endloop
  endfacet
  facet normal -0.752577 0.658504 0
    outer loop
      vertex 55.1 7.82857 25.7
      vertex 45.9 -2.68571 20.05
      vertex 45.9 -2.68571 25.7
    endloop
  endfacet
  facet normal -0.752577 0.658505 0
    outer loop
      vertex 40.8 -8.51429 26.6
      vertex 50 2 32.25
      vertex 50 2 26.6
    endloop
  endfacet
  facet normal -0.752577 0.658505 0
    outer loop
      vertex 50 2 32.25
      vertex 40.8 -8.51429 26.6
      vertex 40.8 -8.51429 32.25
    endloop
  endfacet
  facet normal -0.752577 0.658505 0
    outer loop
      vertex 50.6 2.68571 33.15
      vertex 45.9 -2.68571 33.15
      vertex 45.9 -2.68571 36.2833
    endloop
  endfacet
  facet normal -1 0 0
    outer loop
      vertex 34.25 -17 6.05
      vertex 34.25 -16 6.95
      vertex 34.25 -16 6.05
    endloop
  endfacet
  facet normal -1 -0 0
    outer loop
      vertex 34.25 -16 6.95
      vertex 34.25 -17 6.05
      vertex 34.25 -16 12.6
    endloop
  endfacet
  facet normal -1 -0 0
    outer loop
      vertex 34.25 -16 12.6
      vertex 34.25 -17 6.05
      vertex 34.25 -16 13.5
    endloop
  endfacet
  facet normal -1 -0 0
    outer loop
      vertex 34.25 -16 13.5
      vertex 34.25 -17 6.05
      vertex 34.25 -16 19.15
    endloop
  endfacet
  facet normal -1 -0 0
    outer loop
      vertex 34.25 -16 19.15
      vertex 34.25 -17 6.05
      vertex 34.25 -16 20.05
    endloop
  endfacet
  facet normal -1 -0 0
    outer loop
      vertex 34.25 -16 20.05
      vertex 34.25 -17 6.05
      vertex 34.25 -16 25.7
    endloop
  endfacet
  facet normal -1 -0 0
    outer loop
      vertex 34.25 -16 25.7
      vertex 34.25 -17 6.05
      vertex 34.25 -16 26.6
    endloop
  endfacet
  facet normal -1 0 0
    outer loop
      vertex 34.25 -17 44.05
      vertex 34.25 -16 26.6
      vertex 34.25 -17 6.05
    endloop
  endfacet
  facet normal -1 0 0
    outer loop
      vertex 34.25 -16 26.6
      vertex 34.25 -17 44.05
      vertex 34.25 -16 32.25
    endloop
  endfacet
  facet normal -1 0 0
    outer loop
      vertex 34.25 -16 32.25
      vertex 34.25 -17 44.05
      vertex 34.25 -16 33.15
    endloop
  endfacet
  facet normal -1 0 0
    outer loop
      vertex 34.25 -16 33.15
      vertex 34.25 -17 44.05
      vertex 34.25 -16 44.05
    endloop
  endfacet
  facet normal 0.752577 0.658504 -0
    outer loop
      vertex 75.5 -12.8571 33.15
      vertex 66.3 -2.34286 36.0833
      vertex 75.5 -12.8571 39.3
    endloop
  endfacet
  facet normal 0.752577 0.658505 7.57717e-08
    outer loop
      vertex 78.25 -16 44.05
      vertex 75.5 -12.8571 39.3
      vertex 66.3 -2.34286 36.0833
    endloop
  endfacet
  facet normal 0.752577 0.658504 3.30526e-08
    outer loop
      vertex 78.25 -16 44.05
      vertex 76.5 -14 39.3
      vertex 75.5 -12.8571 39.3
    endloop
  endfacet
  facet normal 0.752577 0.658504 -0
    outer loop
      vertex 78.25 -16 33.15
      vertex 76.5 -14 39.3
      vertex 78.25 -16 44.05
    endloop
  endfacet
  facet normal 0.752577 0.658504 0
    outer loop
      vertex 76.5 -14 39.3
      vertex 78.25 -16 33.15
      vertex 76.5 -14 33.15
    endloop
  endfacet
  facet normal 0.752577 0.658504 0
    outer loop
      vertex 66.3 -2.34286 36.0833
      vertex 75.5 -12.8571 33.15
      vertex 66.3 -2.34286 33.15
    endloop
  endfacet
  facet normal 0.752577 0.658505 -0
    outer loop
      vertex 60.2 4.62857 26.6
      vertex 57.25 8 30.05
      vertex 60.2 4.62857 32.0167
    endloop
  endfacet
  facet normal 0.752577 0.658505 0
    outer loop
      vertex 57.25 8 30.05
      vertex 60.2 4.62857 26.6
      vertex 57.25 8 26.6
    endloop
  endfacet
  facet normal 0.752577 0.658505 0
    outer loop
      vertex 60.2 4.62857 19.15
      vertex 57.25 8 13.5
      vertex 57.25 8 19.15
    endloop
  endfacet
  facet normal 0.752577 0.658505 0
    outer loop
      vertex 57.25 8 13.5
      vertex 60.2 4.62857 19.15
      vertex 60.2 4.62857 13.5
    endloop
  endfacet
  facet normal 0.752577 0.658505 0
    outer loop
      vertex 65.3 -1.2 12.6
      vertex 57.25 8 6.95
      vertex 57.25 8 12.6
    endloop
  endfacet
  facet normal 0.752577 0.658505 0
    outer loop
      vertex 57.25 8 6.95
      vertex 65.3 -1.2 12.6
      vertex 65.3 -1.2 6.95
    endloop
  endfacet
  facet normal 0.752577 0.658504 0
    outer loop
      vertex 78.25 -16 19.15
      vertex 71.4 -8.17143 13.5
      vertex 71.4 -8.17143 19.15
    endloop
  endfacet
  facet normal 0.752577 0.658504 0
    outer loop
      vertex 71.4 -8.17143 13.5
      vertex 78.25 -16 19.15
      vertex 78.25 -16 13.5
    endloop
  endfacet
  facet normal 0.752577 0.658504 0
    outer loop
      vertex 78.25 -16 12.6
      vertex 76.5 -14 6.95
      vertex 76.5 -14 12.6
    endloop
  endfacet
  facet normal 0.752577 0.658504 0
    outer loop
      vertex 76.5 -14 6.95
      vertex 78.25 -16 12.6
      vertex 78.25 -16 6.95
    endloop
  endfacet
  facet normal 0.752577 0.658505 0
    outer loop
      vertex 65.3 -1.2 25.7
      vertex 57.25 8 20.05
      vertex 57.25 8 25.7
    endloop
  endfacet
  facet normal 0.752577 0.658505 0
    outer loop
      vertex 57.25 8 20.05
      vertex 65.3 -1.2 25.7
      vertex 65.3 -1.2 20.05
    endloop
  endfacet
  facet normal 0.752577 0.658504 0
    outer loop
      vertex 78.25 -16 25.7
      vertex 76.5 -14 20.05
      vertex 76.5 -14 25.7
    endloop
  endfacet
  facet normal 0.752577 0.658504 0
    outer loop
      vertex 76.5 -14 20.05
      vertex 78.25 -16 25.7
      vertex 78.25 -16 20.05
    endloop
  endfacet
  facet normal 0.752577 0.658504 0
    outer loop
      vertex 78.25 -16 32.25
      vertex 71.4 -8.17143 26.6
      vertex 71.4 -8.17143 32.25
    endloop
  endfacet
  facet normal 0.752577 0.658504 0
    outer loop
      vertex 71.4 -8.17143 26.6
      vertex 78.25 -16 32.25
      vertex 78.25 -16 26.6
    endloop
  endfacet
  facet normal 0.752577 0.658505 0
    outer loop
      vertex 70.4 -7.02857 19.15
      vertex 61.2 3.48571 13.5
      vertex 61.2 3.48571 19.15
    endloop
  endfacet
  facet normal 0.752577 0.658505 0
    outer loop
      vertex 61.2 3.48571 13.5
      vertex 70.4 -7.02857 19.15
      vertex 70.4 -7.02857 13.5
    endloop
  endfacet
  facet normal 0.752577 0.658504 0
    outer loop
      vertex 75.5 -12.8571 12.6
      vertex 66.3 -2.34286 6.95
      vertex 66.3 -2.34286 12.6
    endloop
  endfacet
  facet normal 0.752577 0.658504 0
    outer loop
      vertex 66.3 -2.34286 6.95
      vertex 75.5 -12.8571 12.6
      vertex 75.5 -12.8571 6.95
    endloop
  endfacet
  facet normal 0.752577 0.658504 0
    outer loop
      vertex 75.5 -12.8571 25.7
      vertex 66.3 -2.34286 20.05
      vertex 66.3 -2.34286 25.7
    endloop
  endfacet
  facet normal 0.752577 0.658504 0
    outer loop
      vertex 66.3 -2.34286 20.05
      vertex 75.5 -12.8571 25.7
      vertex 75.5 -12.8571 20.05
    endloop
  endfacet
  facet normal 0.752577 0.658505 0
    outer loop
      vertex 70.4 -7.02857 32.25
      vertex 61.2 3.48571 26.6
      vertex 61.2 3.48571 32.25
    endloop
  endfacet
  facet normal 0.752577 0.658505 0
    outer loop
      vertex 61.2 3.48571 26.6
      vertex 70.4 -7.02857 32.25
      vertex 70.4 -7.02857 26.6
    endloop
  endfacet
  facet normal 0.752576 0.658505 -0
    outer loop
      vertex 65.3 -1.2 33.15
      vertex 61.9 2.68571 33.15
      vertex 65.3 -1.2 35.4167
    endloop
  endfacet
  facet normal -1 0 0
    outer loop
      vertex 55.25 8 13.5
      vertex 55.25 14 6.05
      vertex 55.25 8 6.05
    endloop
  endfacet
  facet normal -1 0 0
    outer loop
      vertex 55.25 8 19.15
      vertex 55.25 14 6.05
      vertex 55.25 8 13.5
    endloop
  endfacet
  facet normal -1 0 0
    outer loop
      vertex 55.25 14 6.05
      vertex 55.25 8 19.15
      vertex 55.25 14 30.05
    endloop
  endfacet
  facet normal -1 0 0
    outer loop
      vertex 55.25 8 26.6
      vertex 55.25 14 30.05
      vertex 55.25 8 19.15
    endloop
  endfacet
  facet normal -1 -0 0
    outer loop
      vertex 55.25 14 30.05
      vertex 55.25 8 26.6
      vertex 55.25 8 30.05
    endloop
  endfacet
  facet normal -0 0 1
    outer loop
      vertex 55.25 14 30.05
      vertex 57.25 8 30.05
      vertex 57.25 14 30.05
    endloop
  endfacet
  facet normal 0 0 1
    outer loop
      vertex 57.25 8 30.05
      vertex 55.25 14 30.05
      vertex 55.25 8 30.05
    endloop
  endfacet
  facet normal 1 0 0
    outer loop
      vertex 57.25 8 26.6
      vertex 57.25 14 30.05
      vertex 57.25 8 30.05
    endloop
  endfacet
  facet normal 1 0 0
    outer loop
      vertex 57.25 8 25.7
      vertex 57.25 14 30.05
      vertex 57.25 8 26.6
    endloop
  endfacet
  facet normal 1 0 0
    outer loop
      vertex 57.25 8 20.05
      vertex 57.25 14 30.05
      vertex 57.25 8 25.7
    endloop
  endfacet
  facet normal 1 0 0
    outer loop
      vertex 57.25 8 19.15
      vertex 57.25 14 30.05
      vertex 57.25 8 20.05
    endloop
  endfacet
  facet normal 1 0 0
    outer loop
      vertex 57.25 14 30.05
      vertex 57.25 8 19.15
      vertex 57.25 14 6.05
    endloop
  endfacet
  facet normal 1 -0 0
    outer loop
      vertex 57.25 8 13.5
      vertex 57.25 14 6.05
      vertex 57.25 8 19.15
    endloop
  endfacet
  facet normal 1 -0 0
    outer loop
      vertex 57.25 8 12.6
      vertex 57.25 14 6.05
      vertex 57.25 8 13.5
    endloop
  endfacet
  facet normal 1 -0 0
    outer loop
      vertex 57.25 8 6.95
      vertex 57.25 14 6.05
      vertex 57.25 8 12.6
    endloop
  endfacet
  facet normal 1 0 0
    outer loop
      vertex 57.25 14 6.05
      vertex 57.25 8 6.95
      vertex 57.25 8 6.05
    endloop
  endfacet
  facet normal 0 1 -0
    outer loop
      vertex 57.25 14 6.05
      vertex 55.25 14 30.05
      vertex 57.25 14 30.05
    endloop
  endfacet
  facet normal 0 1 0
    outer loop
      vertex 55.25 14 30.05
      vertex 57.25 14 6.05
      vertex 55.25 14 6.05
    endloop
  endfacet
  facet normal 0 0 -1
    outer loop
      vertex 39.8 -8.51429 5.05
      vertex 40.8 -16 5.05
      vertex 39.8 -16 5.05
    endloop
  endfacet
  facet normal 0 0 -1
    outer loop
      vertex 40.8 -16 5.05
      vertex 39.8 -8.51429 5.05
      vertex 40.8 -7.37143 5.05
    endloop
  endfacet
  facet normal 0 0 -1
    outer loop
      vertex 50 3.14286 5.05
      vertex 51 -16 5.05
      vertex 50 -16 5.05
    endloop
  endfacet
  facet normal 0 0 -1
    outer loop
      vertex 51 -16 5.05
      vertex 50 3.14286 5.05
      vertex 51 4.28571 5.05
    endloop
  endfacet
  facet normal 0 0 -1
    outer loop
      vertex 60.2 -16 5.05
      vertex 61.2 4.62857 5.05
      vertex 61.2 -16 5.05
    endloop
  endfacet
  facet normal -0 0 -1
    outer loop
      vertex 61.2 4.62857 5.05
      vertex 60.2 -16 5.05
      vertex 60.2 5.77143 5.05
    endloop
  endfacet
  facet normal 0 0 -1
    outer loop
      vertex 70.4 -16 5.05
      vertex 71.4 -7.02857 5.05
      vertex 71.4 -16 5.05
    endloop
  endfacet
  facet normal -0 0 -1
    outer loop
      vertex 71.4 -7.02857 5.05
      vertex 70.4 -16 5.05
      vertex 70.4 -5.88571 5.05
    endloop
  endfacet
  facet normal 0 0.503872 0.863778
    outer loop
      vertex 60.05 5.94286 32.25
      vertex 56.1 4.4 33.15
      vertex 61.4 4.4 33.15
    endloop
  endfacet
  facet normal 0 0.503871 0.863779
    outer loop
      vertex 56.1 4.4 33.15
      vertex 55.1 4.4 33.15
      vertex 56.1 -6.14286 39.3
    endloop
  endfacet
  facet normal -0 0.503872 0.863778
    outer loop
      vertex 52.45 5.94286 32.25
      vertex 56.1 4.4 33.15
      vertex 60.05 5.94286 32.25
    endloop
  endfacet
  facet normal 0 0.503872 0.863778
    outer loop
      vertex 56.1 4.4 33.15
      vertex 52.45 5.94286 32.25
      vertex 55.1 4.4 33.15
    endloop
  endfacet
  facet normal 0 0.503872 0.863778
    outer loop
      vertex 55.1 4.4 33.15
      vertex 52.45 5.94286 32.25
      vertex 51.1 4.4 33.15
    endloop
  endfacet
  facet normal 0 0.503871 0.863779
    outer loop
      vertex 56.1 -6.14286 39.3
      vertex 55.1 4.4 33.15
      vertex 55.1 -6.14286 39.3
    endloop
  endfacet
  facet normal 7.97595e-07 0.503871 0.863779
    outer loop
      vertex 44.9 -2.68571 37.2833
      vertex 45.9 -6.14286 39.3
      vertex 45.9 -1.54286 36.6167
    endloop
  endfacet
  facet normal 0 0.503871 0.863779
    outer loop
      vertex 45.9 -6.14286 39.3
      vertex 44.9 -2.68571 37.2833
      vertex 44.9 -6.14286 39.3
    endloop
  endfacet
  facet normal 1.97951e-06 0.503871 0.863779
    outer loop
      vertex 65.3 -6.14286 39.3
      vertex 66.3 -1.2 36.4167
      vertex 65.3 -0.057142 35.75
    endloop
  endfacet
  facet normal 0 0.503871 0.863779
    outer loop
      vertex 66.3 -1.2 36.4167
      vertex 65.3 -6.14286 39.3
      vertex 66.3 -6.14286 39.3
    endloop
  endfacet
  facet normal -0.752577 0.658504 0
    outer loop
      vertex 40.8 -7.37143 5.05
      vertex 39.8 -8.51429 5.05
      vertex 40.8 -7.37143 6.05
    endloop
  endfacet
  facet normal -0.752577 0.658505 0
    outer loop
      vertex 54.25 8 12.6
      vertex 51 4.28571 13.5
      vertex 54.25 8 13.5
    endloop
  endfacet
  facet normal -0.752577 0.658505 0
    outer loop
      vertex 51 4.28571 13.5
      vertex 50 3.14286 13.5
      vertex 51 4.28571 19.15
    endloop
  endfacet
  facet normal -0.752577 0.658505 2.61666e-07
    outer loop
      vertex 54.25 8 12.6
      vertex 50 3.14286 13.5
      vertex 51 4.28571 13.5
    endloop
  endfacet
  facet normal -0.752577 0.658505 -7.42917e-07
    outer loop
      vertex 45.9 -1.54286 12.6
      vertex 50 3.14286 13.5
      vertex 54.25 8 12.6
    endloop
  endfacet
  facet normal -0.752577 0.658505 0
    outer loop
      vertex 44.9 -2.68571 12.6
      vertex 45.9 -1.54286 12.6
      vertex 44.9 -2.68571 6.95
    endloop
  endfacet
  facet normal -0.752577 0.658505 -1.35443e-06
    outer loop
      vertex 44.9 -2.68571 12.6
      vertex 50 3.14286 13.5
      vertex 45.9 -1.54286 12.6
    endloop
  endfacet
  facet normal -0.752577 0.658505 -1.57271e-06
    outer loop
      vertex 44.9 -2.68571 12.6
      vertex 40.8 -7.37143 13.5
      vertex 50 3.14286 13.5
    endloop
  endfacet
  facet normal -0.752577 0.658504 0
    outer loop
      vertex 40.8 -7.37143 13.5
      vertex 39.8 -8.51429 13.5
      vertex 40.8 -7.37143 19.15
    endloop
  endfacet
  facet normal -0.752577 0.658504 -2.82101e-06
    outer loop
      vertex 44.9 -2.68571 12.6
      vertex 39.8 -8.51429 13.5
      vertex 40.8 -7.37143 13.5
    endloop
  endfacet
  facet normal -0.752577 0.658505 -6.88024e-07
    outer loop
      vertex 35.7 -13.2 12.6
      vertex 39.8 -8.51429 13.5
      vertex 44.9 -2.68571 12.6
    endloop
  endfacet
  facet normal -0.752577 0.658504 0
    outer loop
      vertex 34.7 -14.3429 12.6
      vertex 35.7 -13.2 12.6
      vertex 34.7 -14.3429 6.95
    endloop
  endfacet
  facet normal -0.752577 0.658504 -1.23108e-06
    outer loop
      vertex 33.25 -16 13.5
      vertex 35.7 -13.2 12.6
      vertex 34.7 -14.3429 12.6
    endloop
  endfacet
  facet normal -0.752576 0.658505 0
    outer loop
      vertex 33.25 -16 13.5
      vertex 34.7 -14.3429 12.6
      vertex 33.25 -16 12.6
    endloop
  endfacet
  facet normal -0.752577 0.658505 -3.86554e-07
    outer loop
      vertex 35.7 -13.2 12.6
      vertex 33.25 -16 13.5
      vertex 39.8 -8.51429 13.5
    endloop
  endfacet
  facet normal -0.752577 0.658505 0
    outer loop
      vertex 51 4.28571 5.05
      vertex 50 3.14286 5.05
      vertex 51 4.28571 6.05
    endloop
  endfacet
  facet normal -0.752577 0.658505 0
    outer loop
      vertex 51 4.28571 6.05
      vertex 54.25 8 6.95
      vertex 54.25 8 6.05
    endloop
  endfacet
  facet normal -0.752577 0.658505 0
    outer loop
      vertex 50 3.14286 6.05
      vertex 51 4.28571 6.05
      vertex 50 3.14286 5.05
    endloop
  endfacet
  facet normal -0.752577 0.658505 -2.61666e-07
    outer loop
      vertex 50 3.14286 6.05
      vertex 54.25 8 6.95
      vertex 51 4.28571 6.05
    endloop
  endfacet
  facet normal -0.752577 0.658505 7.42917e-07
    outer loop
      vertex 50 3.14286 6.05
      vertex 45.9 -1.54286 6.95
      vertex 54.25 8 6.95
    endloop
  endfacet
  facet normal -0.752577 0.658505 0
    outer loop
      vertex 45.9 -1.54286 6.95
      vertex 44.9 -2.68571 6.95
      vertex 45.9 -1.54286 12.6
    endloop
  endfacet
  facet normal -0.752577 0.658505 1.35443e-06
    outer loop
      vertex 50 3.14286 6.05
      vertex 44.9 -2.68571 6.95
      vertex 45.9 -1.54286 6.95
    endloop
  endfacet
  facet normal -0.752577 0.658505 1.57271e-06
    outer loop
      vertex 40.8 -7.37143 6.05
      vertex 44.9 -2.68571 6.95
      vertex 50 3.14286 6.05
    endloop
  endfacet
  facet normal -0.752577 0.658504 0
    outer loop
      vertex 39.8 -8.51429 6.05
      vertex 40.8 -7.37143 6.05
      vertex 39.8 -8.51429 5.05
    endloop
  endfacet
  facet normal -0.752577 0.658504 2.82101e-06
    outer loop
      vertex 39.8 -8.51429 6.05
      vertex 44.9 -2.68571 6.95
      vertex 40.8 -7.37143 6.05
    endloop
  endfacet
  facet normal -0.752577 0.658505 6.88024e-07
    outer loop
      vertex 39.8 -8.51429 6.05
      vertex 35.7 -13.2 6.95
      vertex 44.9 -2.68571 6.95
    endloop
  endfacet
  facet normal -0.752577 0.658504 0
    outer loop
      vertex 35.7 -13.2 6.95
      vertex 34.7 -14.3429 6.95
      vertex 35.7 -13.2 12.6
    endloop
  endfacet
  facet normal -0.752577 0.658505 3.86554e-07
    outer loop
      vertex 33.25 -16 6.05
      vertex 35.7 -13.2 6.95
      vertex 39.8 -8.51429 6.05
    endloop
  endfacet
  facet normal -0.752577 0.658504 1.23108e-06
    outer loop
      vertex 35.7 -13.2 6.95
      vertex 33.25 -16 6.05
      vertex 34.7 -14.3429 6.95
    endloop
  endfacet
  facet normal -0.752576 0.658505 0
    outer loop
      vertex 34.7 -14.3429 6.95
      vertex 33.25 -16 6.05
      vertex 33.25 -16 6.95
    endloop
  endfacet
  facet normal -0.752577 0.658505 0
    outer loop
      vertex 51 4.28571 19.15
      vertex 54.25 8 20.05
      vertex 54.25 8 19.15
    endloop
  endfacet
  facet normal -0.752577 0.658505 0
    outer loop
      vertex 50 3.14286 19.15
      vertex 51 4.28571 19.15
      vertex 50 3.14286 13.5
    endloop
  endfacet
  facet normal -0.752577 0.658505 -2.61666e-07
    outer loop
      vertex 50 3.14286 19.15
      vertex 54.25 8 20.05
      vertex 51 4.28571 19.15
    endloop
  endfacet
  facet normal -0.752577 0.658505 7.42918e-07
    outer loop
      vertex 50 3.14286 19.15
      vertex 45.9 -1.54286 20.05
      vertex 54.25 8 20.05
    endloop
  endfacet
  facet normal -0.752577 0.658505 0
    outer loop
      vertex 45.9 -1.54286 20.05
      vertex 44.9 -2.68571 20.05
      vertex 45.9 -1.54286 25.7
    endloop
  endfacet
  facet normal -0.752577 0.658505 1.35443e-06
    outer loop
      vertex 50 3.14286 19.15
      vertex 44.9 -2.68571 20.05
      vertex 45.9 -1.54286 20.05
    endloop
  endfacet
  facet normal -0.752577 0.658505 1.57271e-06
    outer loop
      vertex 40.8 -7.37143 19.15
      vertex 44.9 -2.68571 20.05
      vertex 50 3.14286 19.15
    endloop
  endfacet
  facet normal -0.752577 0.658504 0
    outer loop
      vertex 39.8 -8.51429 19.15
      vertex 40.8 -7.37143 19.15
      vertex 39.8 -8.51429 13.5
    endloop
  endfacet
  facet normal -0.752577 0.658504 2.82101e-06
    outer loop
      vertex 39.8 -8.51429 19.15
      vertex 44.9 -2.68571 20.05
      vertex 40.8 -7.37143 19.15
    endloop
  endfacet
  facet normal -0.752577 0.658505 6.88025e-07
    outer loop
      vertex 39.8 -8.51429 19.15
      vertex 35.7 -13.2 20.05
      vertex 44.9 -2.68571 20.05
    endloop
  endfacet
  facet normal -0.752577 0.658504 0
    outer loop
      vertex 35.7 -13.2 20.05
      vertex 34.7 -14.3429 20.05
      vertex 35.7 -13.2 25.7
    endloop
  endfacet
  facet normal -0.752577 0.658505 3.86555e-07
    outer loop
      vertex 33.25 -16 19.15
      vertex 35.7 -13.2 20.05
      vertex 39.8 -8.51429 19.15
    endloop
  endfacet
  facet normal -0.752577 0.658504 1.23108e-06
    outer loop
      vertex 35.7 -13.2 20.05
      vertex 33.25 -16 19.15
      vertex 34.7 -14.3429 20.05
    endloop
  endfacet
  facet normal -0.752576 0.658505 0
    outer loop
      vertex 34.7 -14.3429 20.05
      vertex 33.25 -16 19.15
      vertex 33.25 -16 20.05
    endloop
  endfacet
  facet normal -0.752577 0.658505 0
    outer loop
      vertex 54.25 8 25.7
      vertex 51 4.28571 26.6
      vertex 54.25 8 26.6
    endloop
  endfacet
  facet normal -0.752577 0.658505 0
    outer loop
      vertex 51 4.28571 26.6
      vertex 50 3.14286 26.6
      vertex 51 4.28571 32.25
    endloop
  endfacet
  facet normal -0.752577 0.658505 2.61667e-07
    outer loop
      vertex 54.25 8 25.7
      vertex 50 3.14286 26.6
      vertex 51 4.28571 26.6
    endloop
  endfacet
  facet normal -0.752577 0.658505 -7.42919e-07
    outer loop
      vertex 45.9 -1.54286 25.7
      vertex 50 3.14286 26.6
      vertex 54.25 8 25.7
    endloop
  endfacet
  facet normal -0.752577 0.658505 0
    outer loop
      vertex 44.9 -2.68571 25.7
      vertex 45.9 -1.54286 25.7
      vertex 44.9 -2.68571 20.05
    endloop
  endfacet
  facet normal -0.752577 0.658505 -1.35444e-06
    outer loop
      vertex 44.9 -2.68571 25.7
      vertex 50 3.14286 26.6
      vertex 45.9 -1.54286 25.7
    endloop
  endfacet
  facet normal -0.752577 0.658505 -1.57271e-06
    outer loop
      vertex 44.9 -2.68571 25.7
      vertex 40.8 -7.37143 26.6
      vertex 50 3.14286 26.6
    endloop
  endfacet
  facet normal -0.752577 0.658504 0
    outer loop
      vertex 40.8 -7.37143 26.6
      vertex 39.8 -8.51429 26.6
      vertex 40.8 -7.37143 32.25
    endloop
  endfacet
  facet normal -0.752577 0.658504 -2.82102e-06
    outer loop
      vertex 44.9 -2.68571 25.7
      vertex 39.8 -8.51429 26.6
      vertex 40.8 -7.37143 26.6
    endloop
  endfacet
  facet normal -0.752577 0.658505 -6.88027e-07
    outer loop
      vertex 35.7 -13.2 25.7
      vertex 39.8 -8.51429 26.6
      vertex 44.9 -2.68571 25.7
    endloop
  endfacet
  facet normal -0.752577 0.658504 0
    outer loop
      vertex 34.7 -14.3429 25.7
      vertex 35.7 -13.2 25.7
      vertex 34.7 -14.3429 20.05
    endloop
  endfacet
  facet normal -0.752577 0.658504 -1.23108e-06
    outer loop
      vertex 33.25 -16 26.6
      vertex 35.7 -13.2 25.7
      vertex 34.7 -14.3429 25.7
    endloop
  endfacet
  facet normal -0.752576 0.658505 0
    outer loop
      vertex 33.25 -16 26.6
      vertex 34.7 -14.3429 25.7
      vertex 33.25 -16 25.7
    endloop
  endfacet
  facet normal -0.752577 0.658505 -3.86555e-07
    outer loop
      vertex 35.7 -13.2 25.7
      vertex 33.25 -16 26.6
      vertex 39.8 -8.51429 26.6
    endloop
  endfacet
  facet normal -0.752577 0.658504 -6.30749e-07
    outer loop
      vertex 51 4.28571 32.25
      vertex 51.1 4.4 33.15
      vertex 52.45 5.94286 32.25
    endloop
  endfacet
  facet normal -0.752577 0.658505 0
    outer loop
      vertex 50 3.14286 32.25
      vertex 51 4.28571 32.25
      vertex 50 3.14286 26.6
    endloop
  endfacet
  facet normal -0.752577 0.658505 -7.52601e-07
    outer loop
      vertex 51 4.28571 32.25
      vertex 50 3.14286 32.25
      vertex 51.1 4.4 33.15
    endloop
  endfacet
  facet normal -0.752577 0.658504 -2.31234e-07
    outer loop
      vertex 50 3.14286 32.25
      vertex 45.9 -1.54286 33.15
      vertex 51.1 4.4 33.15
    endloop
  endfacet
  facet normal -0.752577 0.658505 0
    outer loop
      vertex 45.9 -1.54286 33.15
      vertex 44.9 -2.68571 33.15
      vertex 45.9 -1.54286 36.6167
    endloop
  endfacet
  facet normal -0.752577 0.658505 1.35443e-06
    outer loop
      vertex 50 3.14286 32.25
      vertex 44.9 -2.68571 33.15
      vertex 45.9 -1.54286 33.15
    endloop
  endfacet
  facet normal -0.752577 0.658505 1.5727e-06
    outer loop
      vertex 40.8 -7.37143 32.25
      vertex 44.9 -2.68571 33.15
      vertex 50 3.14286 32.25
    endloop
  endfacet
  facet normal -0.752577 0.658504 0
    outer loop
      vertex 39.8 -8.51429 32.25
      vertex 40.8 -7.37143 32.25
      vertex 39.8 -8.51429 26.6
    endloop
  endfacet
  facet normal -0.752577 0.658504 2.82101e-06
    outer loop
      vertex 39.8 -8.51429 32.25
      vertex 44.9 -2.68571 33.15
      vertex 40.8 -7.37143 32.25
    endloop
  endfacet
  facet normal -0.752577 0.658505 6.88024e-07
    outer loop
      vertex 39.8 -8.51429 32.25
      vertex 35.7 -13.2 33.15
      vertex 44.9 -2.68571 33.15
    endloop
  endfacet
  facet normal -0.752577 0.658504 0
    outer loop
      vertex 35.7 -13.2 33.15
      vertex 34.7 -14.3429 33.15
      vertex 35.7 -13.2 39.3
    endloop
  endfacet
  facet normal -0.752577 0.658505 3.86554e-07
    outer loop
      vertex 33.25 -16 32.25
      vertex 35.7 -13.2 33.15
      vertex 39.8 -8.51429 32.25
    endloop
  endfacet
  facet normal -0.752577 0.658504 1.23108e-06
    outer loop
      vertex 35.7 -13.2 33.15
      vertex 33.25 -16 32.25
      vertex 34.7 -14.3429 33.15
    endloop
  endfacet
  facet normal -0.752576 0.658505 0
    outer loop
      vertex 34.7 -14.3429 33.15
      vertex 33.25 -16 32.25
      vertex 33.25 -16 33.15
    endloop
  endfacet
  facet normal -0.752577 0.658505 0
    outer loop
      vertex 45.9 -1.54286 36.6167
      vertex 44.9 -2.68571 33.15
      vertex 44.9 -2.68571 37.2833
    endloop
  endfacet
  facet normal -0.752577 0.658504 0
    outer loop
      vertex 35.7 -13.2 39.3
      vertex 34.7 -14.3429 33.15
      vertex 34.7 -14.3429 39.3
    endloop
  endfacet
  facet normal 0.752577 0.658505 0
    outer loop
      vertex 75.5 -11.7143 39.3
      vertex 76.5 -12.8571 39.3
      vertex 75.5 -11.7143 33.15
    endloop
  endfacet
  facet normal 0.752577 0.658505 -0
    outer loop
      vertex 66.3 -1.2 33.15
      vertex 65.3 -0.057142 35.75
      vertex 66.3 -1.2 36.4167
    endloop
  endfacet
  facet normal 0.752577 0.658505 0
    outer loop
      vertex 60.2 5.77143 32.25
      vertex 61.2 4.62857 32.25
      vertex 60.2 5.77143 26.6
    endloop
  endfacet
  facet normal 0.752579 0.658502 -7.57594e-06
    outer loop
      vertex 61.4 4.4 33.15
      vertex 60.2 5.77143 32.25
      vertex 60.05 5.94286 32.25
    endloop
  endfacet
  facet normal 0.752577 0.658505 5.98094e-08
    outer loop
      vertex 60.2 5.77143 32.25
      vertex 61.4 4.4 33.15
      vertex 61.2 4.62857 32.25
    endloop
  endfacet
  facet normal 0.752576 0.658505 1.80175e-07
    outer loop
      vertex 65.3 -0.057142 33.15
      vertex 61.2 4.62857 32.25
      vertex 61.4 4.4 33.15
    endloop
  endfacet
  facet normal 0.752577 0.658505 0
    outer loop
      vertex 65.3 -0.057142 35.75
      vertex 66.3 -1.2 33.15
      vertex 65.3 -0.057142 33.15
    endloop
  endfacet
  facet normal 0.752577 0.658505 -2.38789e-06
    outer loop
      vertex 66.3 -1.2 33.15
      vertex 61.2 4.62857 32.25
      vertex 65.3 -0.057142 33.15
    endloop
  endfacet
  facet normal 0.752577 0.658505 -2.10254e-06
    outer loop
      vertex 66.3 -1.2 33.15
      vertex 70.4 -5.88571 32.25
      vertex 61.2 4.62857 32.25
    endloop
  endfacet
  facet normal 0.752577 0.658505 0
    outer loop
      vertex 70.4 -5.88571 32.25
      vertex 71.4 -7.02857 32.25
      vertex 70.4 -5.88571 26.6
    endloop
  endfacet
  facet normal 0.752577 0.658505 -1.97371e-06
    outer loop
      vertex 66.3 -1.2 33.15
      vertex 71.4 -7.02857 32.25
      vertex 70.4 -5.88571 32.25
    endloop
  endfacet
  facet normal 0.752577 0.658504 -2.68979e-07
    outer loop
      vertex 75.5 -11.7143 33.15
      vertex 71.4 -7.02857 32.25
      vertex 66.3 -1.2 33.15
    endloop
  endfacet
  facet normal 0.752577 0.658505 -0
    outer loop
      vertex 76.5 -12.8571 33.15
      vertex 75.5 -11.7143 33.15
      vertex 76.5 -12.8571 39.3
    endloop
  endfacet
  facet normal 0.752577 0.658505 -2.09333e-06
    outer loop
      vertex 79.25 -16 32.25
      vertex 75.5 -11.7143 33.15
      vertex 76.5 -12.8571 33.15
    endloop
  endfacet
  facet normal 0.752577 0.658504 -0
    outer loop
      vertex 79.25 -16 32.25
      vertex 76.5 -12.8571 33.15
      vertex 79.25 -16 33.15
    endloop
  endfacet
  facet normal 0.752577 0.658505 1.1619e-07
    outer loop
      vertex 75.5 -11.7143 33.15
      vertex 79.25 -16 32.25
      vertex 71.4 -7.02857 32.25
    endloop
  endfacet
  facet normal 0.752577 0.658505 0
    outer loop
      vertex 60.2 5.77143 26.6
      vertex 58.25 8 25.7
      vertex 58.25 8 26.6
    endloop
  endfacet
  facet normal 0.752577 0.658505 -0
    outer loop
      vertex 61.2 4.62857 26.6
      vertex 60.2 5.77143 26.6
      vertex 61.2 4.62857 32.25
    endloop
  endfacet
  facet normal 0.752577 0.658505 -5.50746e-07
    outer loop
      vertex 61.2 4.62857 26.6
      vertex 58.25 8 25.7
      vertex 60.2 5.77143 26.6
    endloop
  endfacet
  facet normal 0.752577 0.658505 6.36816e-07
    outer loop
      vertex 61.2 4.62857 26.6
      vertex 65.3 -0.057142 25.7
      vertex 58.25 8 25.7
    endloop
  endfacet
  facet normal 0.752577 0.658505 0
    outer loop
      vertex 65.3 -0.057142 25.7
      vertex 66.3 -1.2 25.7
      vertex 65.3 -0.057142 20.05
    endloop
  endfacet
  facet normal 0.752577 0.658505 2.38791e-06
    outer loop
      vertex 61.2 4.62857 26.6
      vertex 66.3 -1.2 25.7
      vertex 65.3 -0.057142 25.7
    endloop
  endfacet
  facet normal 0.752577 0.658505 2.10254e-06
    outer loop
      vertex 70.4 -5.88571 26.6
      vertex 66.3 -1.2 25.7
      vertex 61.2 4.62857 26.6
    endloop
  endfacet
  facet normal 0.752577 0.658505 -0
    outer loop
      vertex 71.4 -7.02857 26.6
      vertex 70.4 -5.88571 26.6
      vertex 71.4 -7.02857 32.25
    endloop
  endfacet
  facet normal 0.752577 0.658505 1.97372e-06
    outer loop
      vertex 71.4 -7.02857 26.6
      vertex 66.3 -1.2 25.7
      vertex 70.4 -5.88571 26.6
    endloop
  endfacet
  facet normal 0.752577 0.658504 2.6898e-07
    outer loop
      vertex 71.4 -7.02857 26.6
      vertex 75.5 -11.7143 25.7
      vertex 66.3 -1.2 25.7
    endloop
  endfacet
  facet normal 0.752577 0.658505 0
    outer loop
      vertex 75.5 -11.7143 25.7
      vertex 76.5 -12.8571 25.7
      vertex 75.5 -11.7143 20.05
    endloop
  endfacet
  facet normal 0.752577 0.658505 -1.16191e-07
    outer loop
      vertex 79.25 -16 26.6
      vertex 75.5 -11.7143 25.7
      vertex 71.4 -7.02857 26.6
    endloop
  endfacet
  facet normal 0.752577 0.658505 2.09334e-06
    outer loop
      vertex 75.5 -11.7143 25.7
      vertex 79.25 -16 26.6
      vertex 76.5 -12.8571 25.7
    endloop
  endfacet
  facet normal 0.752577 0.658504 0
    outer loop
      vertex 76.5 -12.8571 25.7
      vertex 79.25 -16 26.6
      vertex 79.25 -16 25.7
    endloop
  endfacet
  facet normal 0.752577 0.658505 0
    outer loop
      vertex 58.25 8 20.05
      vertex 60.2 5.77143 19.15
      vertex 58.25 8 19.15
    endloop
  endfacet
  facet normal 0.752577 0.658505 0
    outer loop
      vertex 60.2 5.77143 19.15
      vertex 61.2 4.62857 19.15
      vertex 60.2 5.77143 13.5
    endloop
  endfacet
  facet normal 0.752577 0.658505 5.50745e-07
    outer loop
      vertex 58.25 8 20.05
      vertex 61.2 4.62857 19.15
      vertex 60.2 5.77143 19.15
    endloop
  endfacet
  facet normal 0.752577 0.658505 -6.36815e-07
    outer loop
      vertex 65.3 -0.057142 20.05
      vertex 61.2 4.62857 19.15
      vertex 58.25 8 20.05
    endloop
  endfacet
  facet normal 0.752577 0.658505 -0
    outer loop
      vertex 66.3 -1.2 20.05
      vertex 65.3 -0.057142 20.05
      vertex 66.3 -1.2 25.7
    endloop
  endfacet
  facet normal 0.752577 0.658505 -2.3879e-06
    outer loop
      vertex 66.3 -1.2 20.05
      vertex 61.2 4.62857 19.15
      vertex 65.3 -0.057142 20.05
    endloop
  endfacet
  facet normal 0.752577 0.658505 -2.10254e-06
    outer loop
      vertex 66.3 -1.2 20.05
      vertex 70.4 -5.88571 19.15
      vertex 61.2 4.62857 19.15
    endloop
  endfacet
  facet normal 0.752577 0.658505 0
    outer loop
      vertex 70.4 -5.88571 19.15
      vertex 71.4 -7.02857 19.15
      vertex 70.4 -5.88571 13.5
    endloop
  endfacet
  facet normal 0.752577 0.658505 -1.97371e-06
    outer loop
      vertex 66.3 -1.2 20.05
      vertex 71.4 -7.02857 19.15
      vertex 70.4 -5.88571 19.15
    endloop
  endfacet
  facet normal 0.752577 0.658504 -2.6898e-07
    outer loop
      vertex 75.5 -11.7143 20.05
      vertex 71.4 -7.02857 19.15
      vertex 66.3 -1.2 20.05
    endloop
  endfacet
  facet normal 0.752577 0.658505 -0
    outer loop
      vertex 76.5 -12.8571 20.05
      vertex 75.5 -11.7143 20.05
      vertex 76.5 -12.8571 25.7
    endloop
  endfacet
  facet normal 0.752577 0.658505 -2.09333e-06
    outer loop
      vertex 79.25 -16 19.15
      vertex 75.5 -11.7143 20.05
      vertex 76.5 -12.8571 20.05
    endloop
  endfacet
  facet normal 0.752577 0.658504 -0
    outer loop
      vertex 79.25 -16 19.15
      vertex 76.5 -12.8571 20.05
      vertex 79.25 -16 20.05
    endloop
  endfacet
  facet normal 0.752577 0.658505 1.1619e-07
    outer loop
      vertex 75.5 -11.7143 20.05
      vertex 79.25 -16 19.15
      vertex 71.4 -7.02857 19.15
    endloop
  endfacet
  facet normal 0.752577 0.658505 0
    outer loop
      vertex 60.2 5.77143 13.5
      vertex 58.25 8 12.6
      vertex 58.25 8 13.5
    endloop
  endfacet
  facet normal 0.752577 0.658505 -0
    outer loop
      vertex 61.2 4.62857 13.5
      vertex 60.2 5.77143 13.5
      vertex 61.2 4.62857 19.15
    endloop
  endfacet
  facet normal 0.752577 0.658505 -5.50745e-07
    outer loop
      vertex 61.2 4.62857 13.5
      vertex 58.25 8 12.6
      vertex 60.2 5.77143 13.5
    endloop
  endfacet
  facet normal 0.752577 0.658505 6.36814e-07
    outer loop
      vertex 61.2 4.62857 13.5
      vertex 65.3 -0.057142 12.6
      vertex 58.25 8 12.6
    endloop
  endfacet
  facet normal 0.752577 0.658505 0
    outer loop
      vertex 65.3 -0.057142 12.6
      vertex 66.3 -1.2 12.6
      vertex 65.3 -0.057142 6.95
    endloop
  endfacet
  facet normal 0.752577 0.658505 2.3879e-06
    outer loop
      vertex 61.2 4.62857 13.5
      vertex 66.3 -1.2 12.6
      vertex 65.3 -0.057142 12.6
    endloop
  endfacet
  facet normal 0.752577 0.658505 2.10254e-06
    outer loop
      vertex 70.4 -5.88571 13.5
      vertex 66.3 -1.2 12.6
      vertex 61.2 4.62857 13.5
    endloop
  endfacet
  facet normal 0.752577 0.658505 -0
    outer loop
      vertex 71.4 -7.02857 13.5
      vertex 70.4 -5.88571 13.5
      vertex 71.4 -7.02857 19.15
    endloop
  endfacet
  facet normal 0.752577 0.658505 1.97371e-06
    outer loop
      vertex 71.4 -7.02857 13.5
      vertex 66.3 -1.2 12.6
      vertex 70.4 -5.88571 13.5
    endloop
  endfacet
  facet normal 0.752577 0.658504 2.6898e-07
    outer loop
      vertex 71.4 -7.02857 13.5
      vertex 75.5 -11.7143 12.6
      vertex 66.3 -1.2 12.6
    endloop
  endfacet
  facet normal 0.752577 0.658505 0
    outer loop
      vertex 75.5 -11.7143 12.6
      vertex 76.5 -12.8571 12.6
      vertex 75.5 -11.7143 6.95
    endloop
  endfacet
  facet normal 0.752577 0.658505 -1.1619e-07
    outer loop
      vertex 79.25 -16 13.5
      vertex 75.5 -11.7143 12.6
      vertex 71.4 -7.02857 13.5
    endloop
  endfacet
  facet normal 0.752577 0.658505 2.09333e-06
    outer loop
      vertex 75.5 -11.7143 12.6
      vertex 79.25 -16 13.5
      vertex 76.5 -12.8571 12.6
    endloop
  endfacet
  facet normal 0.752577 0.658504 0
    outer loop
      vertex 76.5 -12.8571 12.6
      vertex 79.25 -16 13.5
      vertex 79.25 -16 12.6
    endloop
  endfacet
  facet normal 0.752577 0.658505 0
    outer loop
      vertex 58.25 8 6.95
      vertex 60.2 5.77143 6.05
      vertex 58.25 8 6.05
    endloop
  endfacet
  facet normal 0.752577 0.658505 0
    outer loop
      vertex 60.2 5.77143 6.05
      vertex 61.2 4.62857 6.05
      vertex 60.2 5.77143 5.05
    endloop
  endfacet
  facet normal 0.752577 0.658505 5.50745e-07
    outer loop
      vertex 58.25 8 6.95
      vertex 61.2 4.62857 6.05
      vertex 60.2 5.77143 6.05
    endloop
  endfacet
  facet normal 0.752577 0.658505 -6.36814e-07
    outer loop
      vertex 65.3 -0.057142 6.95
      vertex 61.2 4.62857 6.05
      vertex 58.25 8 6.95
    endloop
  endfacet
  facet normal 0.752577 0.658505 -0
    outer loop
      vertex 66.3 -1.2 6.95
      vertex 65.3 -0.057142 6.95
      vertex 66.3 -1.2 12.6
    endloop
  endfacet
  facet normal 0.752577 0.658505 -2.3879e-06
    outer loop
      vertex 66.3 -1.2 6.95
      vertex 61.2 4.62857 6.05
      vertex 65.3 -0.057142 6.95
    endloop
  endfacet
  facet normal 0.752577 0.658505 -2.10254e-06
    outer loop
      vertex 66.3 -1.2 6.95
      vertex 70.4 -5.88571 6.05
      vertex 61.2 4.62857 6.05
    endloop
  endfacet
  facet normal 0.752577 0.658505 0
    outer loop
      vertex 70.4 -5.88571 6.05
      vertex 71.4 -7.02857 6.05
      vertex 70.4 -5.88571 5.05
    endloop
  endfacet
  facet normal 0.752577 0.658505 -1.97371e-06
    outer loop
      vertex 66.3 -1.2 6.95
      vertex 71.4 -7.02857 6.05
      vertex 70.4 -5.88571 6.05
    endloop
  endfacet
  facet normal 0.752577 0.658504 -2.6898e-07
    outer loop
      vertex 75.5 -11.7143 6.95
      vertex 71.4 -7.02857 6.05
      vertex 66.3 -1.2 6.95
    endloop
  endfacet
  facet normal 0.752577 0.658505 -0
    outer loop
      vertex 76.5 -12.8571 6.95
      vertex 75.5 -11.7143 6.95
      vertex 76.5 -12.8571 12.6
    endloop
  endfacet
  facet normal 0.752577 0.658505 -2.09333e-06
    outer loop
      vertex 79.25 -16 6.05
      vertex 75.5 -11.7143 6.95
      vertex 76.5 -12.8571 6.95
    endloop
  endfacet
  facet normal 0.752577 0.658504 -0
    outer loop
      vertex 79.25 -16 6.05
      vertex 76.5 -12.8571 6.95
      vertex 79.25 -16 6.95
    endloop
  endfacet
  facet normal 0.752577 0.658505 1.1619e-07
    outer loop
      vertex 75.5 -11.7143 6.95
      vertex 79.25 -16 6.05
      vertex 71.4 -7.02857 6.05
    endloop
  endfacet
  facet normal 0.752577 0.658505 0
    outer loop
      vertex 60.2 5.77143 5.05
      vertex 61.2 4.62857 6.05
      vertex 61.2 4.62857 5.05
    endloop
  endfacet
  facet normal 0.752577 0.658505 0
    outer loop
      vertex 70.4 -5.88571 5.05
      vertex 71.4 -7.02857 6.05
      vertex 71.4 -7.02857 5.05
    endloop
  endfacet
endsolid OpenSCAD_Model
