solid OpenSCAD_Model
  facet normal -1 0 0
    outer loop
      vertex 9.2 -16 5.05
      vertex 9.2 -0.228571 6.05
      vertex 9.2 -0.228571 5.05
    endloop
  endfacet
  facet normal -1 -0 0
    outer loop
      vertex 9.2 -0.228571 6.05
      vertex 9.2 -16 5.05
      vertex 9.2 -16 6.05
    endloop
  endfacet
  facet normal 1 -0 0
    outer loop
      vertex 10.2 -16 6.05
      vertex 10.2 -1.37143 5.05
      vertex 10.2 -1.37143 6.05
    endloop
  endfacet
  facet normal 1 0 0
    outer loop
      vertex 10.2 -1.37143 5.05
      vertex 10.2 -16 6.05
      vertex 10.2 -16 5.05
    endloop
  endfacet
  facet normal 0 -1 0
    outer loop
      vertex 22 -16 6.05
      vertex 23 -16 6.95
      vertex 22 -16 6.95
    endloop
  endfacet
  facet normal 0 -1 0
    outer loop
      vertex 0 -16 6.05
      vertex 9.2 -16 6.05
      vertex 22 -16 6.05
    endloop
  endfacet
  facet normal 0 -1 0
    outer loop
      vertex 10.2 -16 6.05
      vertex 22 -16 6.05
      vertex 9.2 -16 6.05
    endloop
  endfacet
  facet normal 0 -1 0
    outer loop
      vertex 19.4 -16 6.05
      vertex 22 -16 6.05
      vertex 10.2 -16 6.05
    endloop
  endfacet
  facet normal 0 -1 0
    outer loop
      vertex 20.4 -16 6.05
      vertex 22 -16 6.05
      vertex 19.4 -16 6.05
    endloop
  endfacet
  facet normal 0 -1 0
    outer loop
      vertex 22 -16 6.05
      vertex 23 -16 6.05
      vertex 23 -16 6.95
    endloop
  endfacet
  facet normal 0 -1 0
    outer loop
      vertex 23 -16 6.05
      vertex 22 -16 6.05
      vertex 20.4 -16 6.05
    endloop
  endfacet
  facet normal 0 -1 0
    outer loop
      vertex 19.4 -16 5.05
      vertex 20.4 -16 6.05
      vertex 19.4 -16 6.05
    endloop
  endfacet
  facet normal 0 -1 -0
    outer loop
      vertex 20.4 -16 6.05
      vertex 19.4 -16 5.05
      vertex 20.4 -16 5.05
    endloop
  endfacet
  facet normal 0 -1 0
    outer loop
      vertex 9.2 -16 5.05
      vertex 10.2 -16 6.05
      vertex 9.2 -16 6.05
    endloop
  endfacet
  facet normal 0 -1 -0
    outer loop
      vertex 10.2 -16 6.05
      vertex 9.2 -16 5.05
      vertex 10.2 -16 5.05
    endloop
  endfacet
  facet normal 0 -1 0
    outer loop
      vertex 22 -16 12.6
      vertex 23 -16 13.5
      vertex 22 -16 13.5
    endloop
  endfacet
  facet normal 0 -1 -0
    outer loop
      vertex 23 -16 13.5
      vertex 22 -16 12.6
      vertex 23 -16 12.6
    endloop
  endfacet
  facet normal 0 -1 0
    outer loop
      vertex 22 -16 19.15
      vertex 23 -16 20.05
      vertex 22 -16 20.05
    endloop
  endfacet
  facet normal 0 -1 -0
    outer loop
      vertex 23 -16 20.05
      vertex 22 -16 19.15
      vertex 23 -16 19.15
    endloop
  endfacet
  facet normal 0 -1 0
    outer loop
      vertex 22 -16 25.7
      vertex 23 -16 26.6
      vertex 22 -16 26.6
    endloop
  endfacet
  facet normal 0 -1 -0
    outer loop
      vertex 23 -16 26.6
      vertex 22 -16 25.7
      vertex 23 -16 25.7
    endloop
  endfacet
  facet normal 0 -1 0
    outer loop
      vertex 22 -16 32.25
      vertex 23 -16 33.15
      vertex 22 -16 33.15
    endloop
  endfacet
  facet normal 0 -1 -0
    outer loop
      vertex 23 -16 33.15
      vertex 22 -16 32.25
      vertex 23 -16 32.25
    endloop
  endfacet
  facet normal 0 1 0
    outer loop
      vertex 2 8 6.95
      vertex 1 8 6.05
      vertex 1 8 6.95
    endloop
  endfacet
  facet normal 0 1 -0
    outer loop
      vertex 2 8 6.05
      vertex 1 8 6.05
      vertex 2 8 6.95
    endloop
  endfacet
  facet normal 0 1 0
    outer loop
      vertex 0 8 6.05
      vertex 1 8 6.05
      vertex 2 8 6.05
    endloop
  endfacet
  facet normal 0 1 -0
    outer loop
      vertex 2 8 12.6
      vertex 1 8 13.5
      vertex 2 8 13.5
    endloop
  endfacet
  facet normal 0 1 0
    outer loop
      vertex 1 8 13.5
      vertex 2 8 12.6
      vertex 1 8 12.6
    endloop
  endfacet
  facet normal 0 1 -0
    outer loop
      vertex 2 8 19.15
      vertex 1 8 20.05
      vertex 2 8 20.05
    endloop
  endfacet
  facet normal 0 1 0
    outer loop
      vertex 1 8 20.05
      vertex 2 8 19.15
      vertex 1 8 19.15
    endloop
  endfacet
  facet normal 0 1 -0
    outer loop
      vertex 2 8 25.7
      vertex 1 8 26.6
      vertex 2 8 26.6
    endloop
  endfacet
  facet normal 0 1 0
    outer loop
      vertex 1 8 26.6
      vertex 2 8 25.7
      vertex 1 8 25.7
    endloop
  endfacet
  facet normal -1 0 0
    outer loop
      vertex 19.4 -16 5.05
      vertex 19.4 -11.8857 6.05
      vertex 19.4 -11.8857 5.05
    endloop
  endfacet
  facet normal -1 -0 0
    outer loop
      vertex 19.4 -11.8857 6.05
      vertex 19.4 -16 5.05
      vertex 19.4 -16 6.05
    endloop
  endfacet
  facet normal 1 -0 0
    outer loop
      vertex 20.4 -16 6.05
      vertex 20.4 -13.0286 5.05
      vertex 20.4 -13.0286 6.05
    endloop
  endfacet
  facet normal 1 0 0
    outer loop
      vertex 20.4 -13.0286 5.05
      vertex 20.4 -16 6.05
      vertex 20.4 -16 5.05
    endloop
  endfacet
  facet normal -1 0 0
    outer loop
      vertex 4.1 4.45714 6.95
      vertex 4.1 5.6 12.6
      vertex 4.1 5.6 6.95
    endloop
  endfacet
  facet normal -1 -0 0
    outer loop
      vertex 4.1 5.6 12.6
      vertex 4.1 4.45714 6.95
      vertex 4.1 4.45714 12.6
    endloop
  endfacet
  facet normal 1 -0 0
    outer loop
      vertex 5.1 3.31429 12.6
      vertex 5.1 4.45714 6.95
      vertex 5.1 4.45714 12.6
    endloop
  endfacet
  facet normal 1 0 0
    outer loop
      vertex 5.1 4.45714 6.95
      vertex 5.1 3.31429 12.6
      vertex 5.1 3.31429 6.95
    endloop
  endfacet
  facet normal -1 0 0
    outer loop
      vertex 14.3 -7.2 6.95
      vertex 14.3 -6.05714 12.6
      vertex 14.3 -6.05714 6.95
    endloop
  endfacet
  facet normal -1 -0 0
    outer loop
      vertex 14.3 -6.05714 12.6
      vertex 14.3 -7.2 6.95
      vertex 14.3 -7.2 12.6
    endloop
  endfacet
  facet normal 1 -0 0
    outer loop
      vertex 15.3 -8.34286 12.6
      vertex 15.3 -7.2 6.95
      vertex 15.3 -7.2 12.6
    endloop
  endfacet
  facet normal 1 0 0
    outer loop
      vertex 15.3 -7.2 6.95
      vertex 15.3 -8.34286 12.6
      vertex 15.3 -8.34286 6.95
    endloop
  endfacet
  facet normal -1 0 0
    outer loop
      vertex 9.2 -1.37143 13.5
      vertex 9.2 -0.228571 19.15
      vertex 9.2 -0.228571 13.5
    endloop
  endfacet
  facet normal -1 -0 0
    outer loop
      vertex 9.2 -0.228571 19.15
      vertex 9.2 -1.37143 13.5
      vertex 9.2 -1.37143 19.15
    endloop
  endfacet
  facet normal 1 -0 0
    outer loop
      vertex 10.2 -2.51429 19.15
      vertex 10.2 -1.37143 13.5
      vertex 10.2 -1.37143 19.15
    endloop
  endfacet
  facet normal 1 0 0
    outer loop
      vertex 10.2 -1.37143 13.5
      vertex 10.2 -2.51429 19.15
      vertex 10.2 -2.51429 13.5
    endloop
  endfacet
  facet normal -1 0 0
    outer loop
      vertex 19.4 -13.0286 13.5
      vertex 19.4 -11.8857 19.15
      vertex 19.4 -11.8857 13.5
    endloop
  endfacet
  facet normal -1 -0 0
    outer loop
      vertex 19.4 -11.8857 19.15
      vertex 19.4 -13.0286 13.5
      vertex 19.4 -13.0286 19.15
    endloop
  endfacet
  facet normal 1 -0 0
    outer loop
      vertex 20.4 -14.1714 19.15
      vertex 20.4 -13.0286 13.5
      vertex 20.4 -13.0286 19.15
    endloop
  endfacet
  facet normal 1 0 0
    outer loop
      vertex 20.4 -13.0286 13.5
      vertex 20.4 -14.1714 19.15
      vertex 20.4 -14.1714 13.5
    endloop
  endfacet
  facet normal -1 0 0
    outer loop
      vertex 4.1 4.45714 20.05
      vertex 4.1 5.6 25.7
      vertex 4.1 5.6 20.05
    endloop
  endfacet
  facet normal -1 -0 0
    outer loop
      vertex 4.1 5.6 25.7
      vertex 4.1 4.45714 20.05
      vertex 4.1 4.45714 25.7
    endloop
  endfacet
  facet normal 1 -0 0
    outer loop
      vertex 5.1 3.31429 25.7
      vertex 5.1 4.45714 20.05
      vertex 5.1 4.45714 25.7
    endloop
  endfacet
  facet normal 1 0 0
    outer loop
      vertex 5.1 4.45714 20.05
      vertex 5.1 3.31429 25.7
      vertex 5.1 3.31429 20.05
    endloop
  endfacet
  facet normal -1 0 0
    outer loop
      vertex 14.3 -7.2 20.05
      vertex 14.3 -6.05714 25.7
      vertex 14.3 -6.05714 20.05
    endloop
  endfacet
  facet normal -1 -0 0
    outer loop
      vertex 14.3 -6.05714 25.7
      vertex 14.3 -7.2 20.05
      vertex 14.3 -7.2 25.7
    endloop
  endfacet
  facet normal 1 -0 0
    outer loop
      vertex 15.3 -8.34286 25.7
      vertex 15.3 -7.2 20.05
      vertex 15.3 -7.2 25.7
    endloop
  endfacet
  facet normal 1 0 0
    outer loop
      vertex 15.3 -7.2 20.05
      vertex 15.3 -8.34286 25.7
      vertex 15.3 -8.34286 20.05
    endloop
  endfacet
  facet normal -1 0 0
    outer loop
      vertex 9.2 -1.37143 26.6
      vertex 9.2 -0.228571 32.25
      vertex 9.2 -0.228571 26.6
    endloop
  endfacet
  facet normal -1 -0 0
    outer loop
      vertex 9.2 -0.228571 32.25
      vertex 9.2 -1.37143 26.6
      vertex 9.2 -1.37143 32.25
    endloop
  endfacet
  facet normal 1 -0 0
    outer loop
      vertex 10.2 -2.51429 32.25
      vertex 10.2 -1.37143 26.6
      vertex 10.2 -1.37143 32.25
    endloop
  endfacet
  facet normal 1 0 0
    outer loop
      vertex 10.2 -1.37143 26.6
      vertex 10.2 -2.51429 32.25
      vertex 10.2 -2.51429 26.6
    endloop
  endfacet
  facet normal -1 0 0
    outer loop
      vertex 19.4 -13.0286 26.6
      vertex 19.4 -11.8857 32.25
      vertex 19.4 -11.8857 26.6
    endloop
  endfacet
  facet normal -1 -0 0
    outer loop
      vertex 19.4 -11.8857 32.25
      vertex 19.4 -13.0286 26.6
      vertex 19.4 -13.0286 32.25
    endloop
  endfacet
  facet normal 1 -0 0
    outer loop
      vertex 20.4 -14.1714 32.25
      vertex 20.4 -13.0286 26.6
      vertex 20.4 -13.0286 32.25
    endloop
  endfacet
  facet normal 1 0 0
    outer loop
      vertex 20.4 -13.0286 26.6
      vertex 20.4 -14.1714 32.25
      vertex 20.4 -14.1714 26.6
    endloop
  endfacet
  facet normal -1 0 0
    outer loop
      vertex 4.1 2.68571 33.15
      vertex 4.1 -6.14286 39.3
      vertex 4.1 4.4 33.15
    endloop
  endfacet
  facet normal -1 -0 -0
    outer loop
      vertex 4.1 -6.14286 39.3
      vertex 4.1 2.68571 33.15
      vertex 4.1 -7.85714 39.3
    endloop
  endfacet
  facet normal -0 0 1
    outer loop
      vertex 4.1 -6.14286 39.3
      vertex 5.1 -7.85714 39.3
      vertex 5.1 -6.14286 39.3
    endloop
  endfacet
  facet normal 0 0 1
    outer loop
      vertex 5.1 -7.85714 39.3
      vertex 4.1 -6.14286 39.3
      vertex 4.1 -7.85714 39.3
    endloop
  endfacet
  facet normal 1 0 0
    outer loop
      vertex 5.1 -6.14286 39.3
      vertex 5.1 2.68571 33.15
      vertex 5.1 4.4 33.15
    endloop
  endfacet
  facet normal 1 0 0
    outer loop
      vertex 5.1 2.68571 33.15
      vertex 5.1 -6.14286 39.3
      vertex 5.1 -7.85714 39.3
    endloop
  endfacet
  facet normal -1 0 0
    outer loop
      vertex 14.3 -7.2 38.9167
      vertex 14.3 -6.05714 39.25
      vertex 14.3 -6.05714 33.15
    endloop
  endfacet
  facet normal -1 0 0
    outer loop
      vertex 14.3 -7.2 38.9167
      vertex 14.3 -6.05714 33.15
      vertex 14.3 -7.2 33.15
    endloop
  endfacet
  facet normal -1 -0 0
    outer loop
      vertex 14.3 -6.05714 39.25
      vertex 14.3 -7.2 38.9167
      vertex 14.3 -6.14286 39.3
    endloop
  endfacet
  facet normal -1 -0 0
    outer loop
      vertex 14.3 -6.14286 39.3
      vertex 14.3 -7.2 38.9167
      vertex 14.3 -7.85714 39.3
    endloop
  endfacet
  facet normal 0 0 1
    outer loop
      vertex 15.3 -7.2 39.3
      vertex 14.875 -7.85714 39.3
      vertex 15.3 -8.34286 39.3
    endloop
  endfacet
  facet normal 0 0 1
    outer loop
      vertex 14.3 -7.85714 39.3
      vertex 15.3 -7.2 39.3
      vertex 14.375 -6.14286 39.3
    endloop
  endfacet
  facet normal 0 0 1
    outer loop
      vertex 14.3 -7.85714 39.3
      vertex 14.375 -6.14286 39.3
      vertex 14.3 -6.14286 39.3
    endloop
  endfacet
  facet normal 0 0 1
    outer loop
      vertex 15.3 -7.2 39.3
      vertex 14.3 -7.85714 39.3
      vertex 14.875 -7.85714 39.3
    endloop
  endfacet
  facet normal 1 -0 0
    outer loop
      vertex 15.3 -8.34286 39.3
      vertex 15.3 -7.2 33.15
      vertex 15.3 -7.2 39.3
    endloop
  endfacet
  facet normal 1 0 0
    outer loop
      vertex 15.3 -7.2 33.15
      vertex 15.3 -8.34286 39.3
      vertex 15.3 -8.34286 33.15
    endloop
  endfacet
  facet normal -0 0 1
    outer loop
      vertex 1 8 6.95
      vertex 4.1 5.6 6.95
      vertex 2 8 6.95
    endloop
  endfacet
  facet normal 0 0 1
    outer loop
      vertex 4.1 5.6 6.95
      vertex 1 8 6.95
      vertex 4.1 4.45714 6.95
    endloop
  endfacet
  facet normal -0 0 1
    outer loop
      vertex 15.3 -8.34286 6.95
      vertex 23 -16 6.95
      vertex 15.3 -7.2 6.95
    endloop
  endfacet
  facet normal 0 0 1
    outer loop
      vertex 23 -16 6.95
      vertex 15.3 -8.34286 6.95
      vertex 22 -16 6.95
    endloop
  endfacet
  facet normal -0 0 1
    outer loop
      vertex 5.1 3.31429 6.95
      vertex 14.3 -6.05714 6.95
      vertex 5.1 4.45714 6.95
    endloop
  endfacet
  facet normal 0 0 1
    outer loop
      vertex 14.3 -6.05714 6.95
      vertex 5.1 3.31429 6.95
      vertex 14.3 -7.2 6.95
    endloop
  endfacet
  facet normal 0 0 -1
    outer loop
      vertex 0 -16 6.05
      vertex 9.2 -0.228571 6.05
      vertex 9.2 -16 6.05
    endloop
  endfacet
  facet normal 0 0 -1
    outer loop
      vertex 0 8 6.05
      vertex 9.2 -0.228571 6.05
      vertex 0 -16 6.05
    endloop
  endfacet
  facet normal 0 0 -1
    outer loop
      vertex 9.2 -0.228571 6.05
      vertex 0 8 6.05
      vertex 2 8 6.05
    endloop
  endfacet
  facet normal 0 0 -1
    outer loop
      vertex 10.2 -16 6.05
      vertex 19.4 -11.8857 6.05
      vertex 19.4 -16 6.05
    endloop
  endfacet
  facet normal -0 0 -1
    outer loop
      vertex 19.4 -11.8857 6.05
      vertex 10.2 -16 6.05
      vertex 10.2 -1.37143 6.05
    endloop
  endfacet
  facet normal 0 0 -1
    outer loop
      vertex 23 -16 6.05
      vertex 20.4 -16 6.05
      vertex 20.4 -13.0286 6.05
    endloop
  endfacet
  facet normal -0 0 1
    outer loop
      vertex 1 8 13.5
      vertex 9.2 -0.228571 13.5
      vertex 2 8 13.5
    endloop
  endfacet
  facet normal 0 0 1
    outer loop
      vertex 9.2 -0.228571 13.5
      vertex 1 8 13.5
      vertex 9.2 -1.37143 13.5
    endloop
  endfacet
  facet normal -0 0 1
    outer loop
      vertex 20.4 -14.1714 13.5
      vertex 23 -16 13.5
      vertex 20.4 -13.0286 13.5
    endloop
  endfacet
  facet normal 0 0 1
    outer loop
      vertex 23 -16 13.5
      vertex 20.4 -14.1714 13.5
      vertex 22 -16 13.5
    endloop
  endfacet
  facet normal -0 0 1
    outer loop
      vertex 10.2 -2.51429 13.5
      vertex 19.4 -11.8857 13.5
      vertex 10.2 -1.37143 13.5
    endloop
  endfacet
  facet normal 0 0 1
    outer loop
      vertex 19.4 -11.8857 13.5
      vertex 10.2 -2.51429 13.5
      vertex 19.4 -13.0286 13.5
    endloop
  endfacet
  facet normal 0 0 -1
    outer loop
      vertex 1 8 12.6
      vertex 4.1 5.6 12.6
      vertex 4.1 4.45714 12.6
    endloop
  endfacet
  facet normal 0 0 -1
    outer loop
      vertex 4.1 5.6 12.6
      vertex 1 8 12.6
      vertex 2 8 12.6
    endloop
  endfacet
  facet normal 0 0 -1
    outer loop
      vertex 15.3 -8.34286 12.6
      vertex 23 -16 12.6
      vertex 22 -16 12.6
    endloop
  endfacet
  facet normal 0 0 -1
    outer loop
      vertex 23 -16 12.6
      vertex 15.3 -8.34286 12.6
      vertex 15.3 -7.2 12.6
    endloop
  endfacet
  facet normal 0 0 -1
    outer loop
      vertex 5.1 3.31429 12.6
      vertex 14.3 -6.05714 12.6
      vertex 14.3 -7.2 12.6
    endloop
  endfacet
  facet normal 0 0 -1
    outer loop
      vertex 14.3 -6.05714 12.6
      vertex 5.1 3.31429 12.6
      vertex 5.1 4.45714 12.6
    endloop
  endfacet
  facet normal -0 0 1
    outer loop
      vertex 1 8 20.05
      vertex 4.1 5.6 20.05
      vertex 2 8 20.05
    endloop
  endfacet
  facet normal 0 0 1
    outer loop
      vertex 4.1 5.6 20.05
      vertex 1 8 20.05
      vertex 4.1 4.45714 20.05
    endloop
  endfacet
  facet normal -0 0 1
    outer loop
      vertex 15.3 -8.34286 20.05
      vertex 23 -16 20.05
      vertex 15.3 -7.2 20.05
    endloop
  endfacet
  facet normal 0 0 1
    outer loop
      vertex 23 -16 20.05
      vertex 15.3 -8.34286 20.05
      vertex 22 -16 20.05
    endloop
  endfacet
  facet normal -0 0 1
    outer loop
      vertex 5.1 3.31429 20.05
      vertex 14.3 -6.05714 20.05
      vertex 5.1 4.45714 20.05
    endloop
  endfacet
  facet normal 0 0 1
    outer loop
      vertex 14.3 -6.05714 20.05
      vertex 5.1 3.31429 20.05
      vertex 14.3 -7.2 20.05
    endloop
  endfacet
  facet normal 0 0 -1
    outer loop
      vertex 1 8 19.15
      vertex 9.2 -0.228571 19.15
      vertex 9.2 -1.37143 19.15
    endloop
  endfacet
  facet normal 0 0 -1
    outer loop
      vertex 9.2 -0.228571 19.15
      vertex 1 8 19.15
      vertex 2 8 19.15
    endloop
  endfacet
  facet normal 0 0 -1
    outer loop
      vertex 20.4 -14.1714 19.15
      vertex 23 -16 19.15
      vertex 22 -16 19.15
    endloop
  endfacet
  facet normal 0 0 -1
    outer loop
      vertex 23 -16 19.15
      vertex 20.4 -14.1714 19.15
      vertex 20.4 -13.0286 19.15
    endloop
  endfacet
  facet normal 0 0 -1
    outer loop
      vertex 10.2 -2.51429 19.15
      vertex 19.4 -11.8857 19.15
      vertex 19.4 -13.0286 19.15
    endloop
  endfacet
  facet normal 0 0 -1
    outer loop
      vertex 19.4 -11.8857 19.15
      vertex 10.2 -2.51429 19.15
      vertex 10.2 -1.37143 19.15
    endloop
  endfacet
  facet normal -0 0 1
    outer loop
      vertex 1 8 26.6
      vertex 9.2 -0.228571 26.6
      vertex 2 8 26.6
    endloop
  endfacet
  facet normal 0 0 1
    outer loop
      vertex 9.2 -0.228571 26.6
      vertex 1 8 26.6
      vertex 9.2 -1.37143 26.6
    endloop
  endfacet
  facet normal -0 0 1
    outer loop
      vertex 20.4 -14.1714 26.6
      vertex 23 -16 26.6
      vertex 20.4 -13.0286 26.6
    endloop
  endfacet
  facet normal 0 0 1
    outer loop
      vertex 23 -16 26.6
      vertex 20.4 -14.1714 26.6
      vertex 22 -16 26.6
    endloop
  endfacet
  facet normal -0 0 1
    outer loop
      vertex 10.2 -2.51429 26.6
      vertex 19.4 -11.8857 26.6
      vertex 10.2 -1.37143 26.6
    endloop
  endfacet
  facet normal 0 0 1
    outer loop
      vertex 19.4 -11.8857 26.6
      vertex 10.2 -2.51429 26.6
      vertex 19.4 -13.0286 26.6
    endloop
  endfacet
  facet normal 0 0 -1
    outer loop
      vertex 1 8 25.7
      vertex 4.1 5.6 25.7
      vertex 4.1 4.45714 25.7
    endloop
  endfacet
  facet normal 0 0 -1
    outer loop
      vertex 4.1 5.6 25.7
      vertex 1 8 25.7
      vertex 2 8 25.7
    endloop
  endfacet
  facet normal 0 0 -1
    outer loop
      vertex 15.3 -8.34286 25.7
      vertex 23 -16 25.7
      vertex 22 -16 25.7
    endloop
  endfacet
  facet normal 0 0 -1
    outer loop
      vertex 23 -16 25.7
      vertex 15.3 -8.34286 25.7
      vertex 15.3 -7.2 25.7
    endloop
  endfacet
  facet normal 0 0 -1
    outer loop
      vertex 5.1 3.31429 25.7
      vertex 14.3 -6.05714 25.7
      vertex 14.3 -7.2 25.7
    endloop
  endfacet
  facet normal 0 0 -1
    outer loop
      vertex 14.3 -6.05714 25.7
      vertex 5.1 3.31429 25.7
      vertex 5.1 4.45714 25.7
    endloop
  endfacet
  facet normal -1 0 0
    outer loop
      vertex 0 4.22857 32.25
      vertex 0 4.4 33.15
      vertex 0 5.94286 32.25
    endloop
  endfacet
  facet normal -1 -0 0
    outer loop
      vertex 0 4.4 33.15
      vertex 0 4.22857 32.25
      vertex 0 2.68571 33.15
    endloop
  endfacet
  facet normal -0 0 1
    outer loop
      vertex 15.3 -8.34286 33.15
      vertex 23 -16 33.15
      vertex 15.3 -7.2 33.15
    endloop
  endfacet
  facet normal 0 0 1
    outer loop
      vertex 23 -16 33.15
      vertex 15.3 -8.34286 33.15
      vertex 22 -16 33.15
    endloop
  endfacet
  facet normal 0 0 1
    outer loop
      vertex 14.3 -6.05714 33.15
      vertex 5.65 2.68571 33.15
      vertex 14.3 -7.2 33.15
    endloop
  endfacet
  facet normal 0 0 1
    outer loop
      vertex 5.15 4.4 33.15
      vertex 5.65 2.68571 33.15
      vertex 14.3 -6.05714 33.15
    endloop
  endfacet
  facet normal 0 0 1
    outer loop
      vertex 5.1 2.68571 33.15
      vertex 5.15 4.4 33.15
      vertex 5.1 4.4 33.15
    endloop
  endfacet
  facet normal 0 0 1
    outer loop
      vertex 5.15 4.4 33.15
      vertex 5.1 2.68571 33.15
      vertex 5.65 2.68571 33.15
    endloop
  endfacet
  facet normal -0 0 1
    outer loop
      vertex 0 4.4 33.15
      vertex 4.1 2.68571 33.15
      vertex 4.1 4.4 33.15
    endloop
  endfacet
  facet normal 0 0 1
    outer loop
      vertex 4.1 2.68571 33.15
      vertex 0 4.4 33.15
      vertex 0 2.68571 33.15
    endloop
  endfacet
  facet normal 0 0 -1
    outer loop
      vertex 20.4 -14.1714 32.25
      vertex 23 -16 32.25
      vertex 22 -16 32.25
    endloop
  endfacet
  facet normal 0 0 -1
    outer loop
      vertex 23 -16 32.25
      vertex 20.4 -14.1714 32.25
      vertex 20.4 -13.0286 32.25
    endloop
  endfacet
  facet normal 0 0 -1
    outer loop
      vertex 4.3 4.22857 32.25
      vertex 9.2 -0.228571 32.25
      vertex 9.2 -1.37143 32.25
    endloop
  endfacet
  facet normal 0 0 -1
    outer loop
      vertex 4.3 4.22857 32.25
      vertex 3.8 5.94286 32.25
      vertex 9.2 -0.228571 32.25
    endloop
  endfacet
  facet normal 0 0 -1
    outer loop
      vertex 0 4.22857 32.25
      vertex 3.8 5.94286 32.25
      vertex 4.3 4.22857 32.25
    endloop
  endfacet
  facet normal -0 0 -1
    outer loop
      vertex 3.8 5.94286 32.25
      vertex 0 4.22857 32.25
      vertex 0 5.94286 32.25
    endloop
  endfacet
  facet normal 0 0 -1
    outer loop
      vertex 10.2 -2.51429 32.25
      vertex 19.4 -11.8857 32.25
      vertex 19.4 -13.0286 32.25
    endloop
  endfacet
  facet normal 0 0 -1
    outer loop
      vertex 19.4 -11.8857 32.25
      vertex 10.2 -2.51429 32.25
      vertex 10.2 -1.37143 32.25
    endloop
  endfacet
  facet normal 0 -1 0
    outer loop
      vertex -22 -17 6.05
      vertex 22 -17 44.05
      vertex -22 -17 44.05
    endloop
  endfacet
  facet normal 0 -1 -0
    outer loop
      vertex 22 -17 44.05
      vertex -22 -17 6.05
      vertex 22 -17 6.05
    endloop
  endfacet
  facet normal -0 0 1
    outer loop
      vertex -22 -16 44.05
      vertex 22 -17 44.05
      vertex 22 -16 44.05
    endloop
  endfacet
  facet normal 0 0 1
    outer loop
      vertex 22 -17 44.05
      vertex -22 -16 44.05
      vertex -22 -17 44.05
    endloop
  endfacet
  facet normal 0 0 -1
    outer loop
      vertex 22 -17 6.05
      vertex 0 -16 6.05
      vertex 22 -16 6.05
    endloop
  endfacet
  facet normal 0 0 -1
    outer loop
      vertex 0 -16 6.05
      vertex -1 8 6.05
      vertex 0 8 6.05
    endloop
  endfacet
  facet normal 0 0 -1
    outer loop
      vertex -22 -17 6.05
      vertex 0 -16 6.05
      vertex 22 -17 6.05
    endloop
  endfacet
  facet normal 0 0 -1
    outer loop
      vertex -22 -16 6.05
      vertex 0 -16 6.05
      vertex -22 -17 6.05
    endloop
  endfacet
  facet normal 0 0 -1
    outer loop
      vertex 0 -16 6.05
      vertex -22 -16 6.05
      vertex -1 8 6.05
    endloop
  endfacet
  facet normal 0 0 -1
    outer loop
      vertex 0 8 6.05
      vertex 1 14 6.05
      vertex 1 8 6.05
    endloop
  endfacet
  facet normal 0 0 -1
    outer loop
      vertex -1 14 6.05
      vertex 0 8 6.05
      vertex -1 8 6.05
    endloop
  endfacet
  facet normal 0 0 -1
    outer loop
      vertex 0 8 6.05
      vertex -1 14 6.05
      vertex 1 14 6.05
    endloop
  endfacet
  facet normal 1 -0 0
    outer loop
      vertex 22 -17 44.05
      vertex 22 -16 33.15
      vertex 22 -16 44.05
    endloop
  endfacet
  facet normal 1 0 0
    outer loop
      vertex 22 -16 33.15
      vertex 22 -17 44.05
      vertex 22 -16 32.25
    endloop
  endfacet
  facet normal 1 0 0
    outer loop
      vertex 22 -16 32.25
      vertex 22 -17 44.05
      vertex 22 -16 26.6
    endloop
  endfacet
  facet normal 1 0 0
    outer loop
      vertex 22 -16 26.6
      vertex 22 -17 44.05
      vertex 22 -16 25.7
    endloop
  endfacet
  facet normal 1 0 0
    outer loop
      vertex 22 -17 6.05
      vertex 22 -16 25.7
      vertex 22 -17 44.05
    endloop
  endfacet
  facet normal 1 0 0
    outer loop
      vertex 22 -16 25.7
      vertex 22 -17 6.05
      vertex 22 -16 20.05
    endloop
  endfacet
  facet normal 1 0 0
    outer loop
      vertex 22 -16 20.05
      vertex 22 -17 6.05
      vertex 22 -16 19.15
    endloop
  endfacet
  facet normal 1 0 0
    outer loop
      vertex 22 -16 19.15
      vertex 22 -17 6.05
      vertex 22 -16 13.5
    endloop
  endfacet
  facet normal 1 0 0
    outer loop
      vertex 22 -16 13.5
      vertex 22 -17 6.05
      vertex 22 -16 12.6
    endloop
  endfacet
  facet normal 1 0 0
    outer loop
      vertex 22 -16 12.6
      vertex 22 -17 6.05
      vertex 22 -16 6.95
    endloop
  endfacet
  facet normal 1 0 0
    outer loop
      vertex 22 -16 6.95
      vertex 22 -17 6.05
      vertex 22 -16 6.05
    endloop
  endfacet
  facet normal 0 0.503871 0.863779
    outer loop
      vertex 1 8 30.05
      vertex 0 4.22857 32.25
      vertex 4.3 4.22857 32.25
    endloop
  endfacet
  facet normal 3.41709e-06 0.503872 0.863778
    outer loop
      vertex 0 4.22857 32.25
      vertex -1 8 30.05
      vertex 0 2.68571 33.15
    endloop
  endfacet
  facet normal -0 0.503871 0.863779
    outer loop
      vertex -1 8 30.05
      vertex 0 4.22857 32.25
      vertex 1 8 30.05
    endloop
  endfacet
  facet normal 0 0.503871 0.863779
    outer loop
      vertex 4.1 2.68571 33.15
      vertex 0 2.68571 33.15
      vertex 4.1 -7.85714 39.3
    endloop
  endfacet
  facet normal -1.42448e-07 0.503871 0.863779
    outer loop
      vertex 5.1 -7.85714 39.3
      vertex 14.3 -7.2 38.9167
      vertex 5.65 2.68571 33.15
    endloop
  endfacet
  facet normal -0 0.503871 0.863779
    outer loop
      vertex 14.3 -7.85714 39.3
      vertex 22 -16 44.05
      vertex 14.875 -7.85714 39.3
    endloop
  endfacet
  facet normal 0 0.503871 0.863779
    outer loop
      vertex 5.1 -7.85714 39.3
      vertex 5.65 2.68571 33.15
      vertex 5.1 2.68571 33.15
    endloop
  endfacet
  facet normal 0 0.503869 0.86378
    outer loop
      vertex 14.3 -7.2 38.9167
      vertex 5.1 -7.85714 39.3
      vertex 14.3 -7.85714 39.3
    endloop
  endfacet
  facet normal -0 0.503871 0.863779
    outer loop
      vertex 5.1 -7.85714 39.3
      vertex 22 -16 44.05
      vertex 14.3 -7.85714 39.3
    endloop
  endfacet
  facet normal -0 0.503871 0.863779
    outer loop
      vertex 4.1 -7.85714 39.3
      vertex 22 -16 44.05
      vertex 5.1 -7.85714 39.3
    endloop
  endfacet
  facet normal 0 0.503871 0.863779
    outer loop
      vertex 4.1 -7.85714 39.3
      vertex -22 -16 44.05
      vertex 22 -16 44.05
    endloop
  endfacet
  facet normal 1.95703e-08 0.503871 0.863779
    outer loop
      vertex 0 2.68571 33.15
      vertex -22 -16 44.05
      vertex 4.1 -7.85714 39.3
    endloop
  endfacet
  facet normal -4.10059e-07 0.503871 0.863779
    outer loop
      vertex -22 -16 44.05
      vertex 0 2.68571 33.15
      vertex -1 8 30.05
    endloop
  endfacet
  facet normal -0.752577 0.658505 0
    outer loop
      vertex -22 -16 6.05
      vertex -1 8 30.05
      vertex -1 8 6.05
    endloop
  endfacet
  facet normal -0.752577 0.658505 0
    outer loop
      vertex -1 8 30.05
      vertex -22 -16 6.05
      vertex -22 -16 44.05
    endloop
  endfacet
  facet normal -1 0 0
    outer loop
      vertex -22 -17 6.05
      vertex -22 -16 44.05
      vertex -22 -16 6.05
    endloop
  endfacet
  facet normal -1 -0 0
    outer loop
      vertex -22 -16 44.05
      vertex -22 -17 6.05
      vertex -22 -17 44.05
    endloop
  endfacet
  facet normal 0.752577 0.658504 -9.12139e-07
    outer loop
      vertex 22 -16 44.05
      vertex 15.3 -8.34286 39.3
      vertex 14.875 -7.85714 39.3
    endloop
  endfacet
  facet normal 0.752577 0.658505 -0
    outer loop
      vertex 22 -16 33.15
      vertex 15.3 -8.34286 39.3
      vertex 22 -16 44.05
    endloop
  endfacet
  facet normal 0.752577 0.658505 0
    outer loop
      vertex 15.3 -8.34286 39.3
      vertex 22 -16 33.15
      vertex 15.3 -8.34286 33.15
    endloop
  endfacet
  facet normal 0.752577 0.658505 0
    outer loop
      vertex 4.3 4.22857 32.25
      vertex 1 8 26.6
      vertex 1 8 30.05
    endloop
  endfacet
  facet normal 0.752577 0.658505 -0
    outer loop
      vertex 9.2 -1.37143 26.6
      vertex 4.3 4.22857 32.25
      vertex 9.2 -1.37143 32.25
    endloop
  endfacet
  facet normal 0.752577 0.658505 -2.46167e-08
    outer loop
      vertex 4.3 4.22857 32.25
      vertex 9.2 -1.37143 26.6
      vertex 1 8 26.6
    endloop
  endfacet
  facet normal 0.752577 0.658505 0
    outer loop
      vertex 9.2 -1.37143 19.15
      vertex 1 8 13.5
      vertex 1 8 19.15
    endloop
  endfacet
  facet normal 0.752577 0.658505 0
    outer loop
      vertex 1 8 13.5
      vertex 9.2 -1.37143 19.15
      vertex 9.2 -1.37143 13.5
    endloop
  endfacet
  facet normal 0.752577 0.658505 0
    outer loop
      vertex 4.1 4.45714 12.6
      vertex 1 8 6.95
      vertex 1 8 12.6
    endloop
  endfacet
  facet normal 0.752577 0.658505 0
    outer loop
      vertex 1 8 6.95
      vertex 4.1 4.45714 12.6
      vertex 4.1 4.45714 6.95
    endloop
  endfacet
  facet normal 0.752577 0.658505 0
    outer loop
      vertex 4.1 4.45714 25.7
      vertex 1 8 20.05
      vertex 1 8 25.7
    endloop
  endfacet
  facet normal 0.752577 0.658505 0
    outer loop
      vertex 1 8 20.05
      vertex 4.1 4.45714 25.7
      vertex 4.1 4.45714 20.05
    endloop
  endfacet
  facet normal 0.752577 0.658505 0
    outer loop
      vertex 22 -16 25.7
      vertex 15.3 -8.34286 20.05
      vertex 15.3 -8.34286 25.7
    endloop
  endfacet
  facet normal 0.752577 0.658505 0
    outer loop
      vertex 15.3 -8.34286 20.05
      vertex 22 -16 25.7
      vertex 22 -16 20.05
    endloop
  endfacet
  facet normal 0.752577 0.658505 0
    outer loop
      vertex 22 -16 12.6
      vertex 15.3 -8.34286 6.95
      vertex 15.3 -8.34286 12.6
    endloop
  endfacet
  facet normal 0.752577 0.658505 0
    outer loop
      vertex 15.3 -8.34286 6.95
      vertex 22 -16 12.6
      vertex 22 -16 6.95
    endloop
  endfacet
  facet normal 0.752577 0.658505 0
    outer loop
      vertex 22 -16 19.15
      vertex 20.4 -14.1714 13.5
      vertex 20.4 -14.1714 19.15
    endloop
  endfacet
  facet normal 0.752577 0.658505 0
    outer loop
      vertex 20.4 -14.1714 13.5
      vertex 22 -16 19.15
      vertex 22 -16 13.5
    endloop
  endfacet
  facet normal 0.752577 0.658505 0
    outer loop
      vertex 22 -16 32.25
      vertex 20.4 -14.1714 26.6
      vertex 20.4 -14.1714 32.25
    endloop
  endfacet
  facet normal 0.752577 0.658505 0
    outer loop
      vertex 20.4 -14.1714 26.6
      vertex 22 -16 32.25
      vertex 22 -16 26.6
    endloop
  endfacet
  facet normal 0.752577 0.658505 0
    outer loop
      vertex 14.3 -7.2 25.7
      vertex 5.1 3.31429 20.05
      vertex 5.1 3.31429 25.7
    endloop
  endfacet
  facet normal 0.752577 0.658505 0
    outer loop
      vertex 5.1 3.31429 20.05
      vertex 14.3 -7.2 25.7
      vertex 14.3 -7.2 20.05
    endloop
  endfacet
  facet normal 0.752577 0.658505 0
    outer loop
      vertex 14.3 -7.2 12.6
      vertex 5.1 3.31429 6.95
      vertex 5.1 3.31429 12.6
    endloop
  endfacet
  facet normal 0.752577 0.658505 0
    outer loop
      vertex 5.1 3.31429 6.95
      vertex 14.3 -7.2 12.6
      vertex 14.3 -7.2 6.95
    endloop
  endfacet
  facet normal 0.752577 0.658505 0
    outer loop
      vertex 19.4 -13.0286 19.15
      vertex 10.2 -2.51429 13.5
      vertex 10.2 -2.51429 19.15
    endloop
  endfacet
  facet normal 0.752577 0.658505 0
    outer loop
      vertex 10.2 -2.51429 13.5
      vertex 19.4 -13.0286 19.15
      vertex 19.4 -13.0286 13.5
    endloop
  endfacet
  facet normal 0.752577 0.658505 0
    outer loop
      vertex 19.4 -13.0286 32.25
      vertex 10.2 -2.51429 26.6
      vertex 10.2 -2.51429 32.25
    endloop
  endfacet
  facet normal 0.752577 0.658505 0
    outer loop
      vertex 10.2 -2.51429 26.6
      vertex 19.4 -13.0286 32.25
      vertex 19.4 -13.0286 26.6
    endloop
  endfacet
  facet normal 0.752577 0.658505 -0
    outer loop
      vertex 14.3 -7.2 33.15
      vertex 5.65 2.68571 33.15
      vertex 14.3 -7.2 38.9167
    endloop
  endfacet
  facet normal -1 0 0
    outer loop
      vertex -1 8 6.05
      vertex -1 14 30.05
      vertex -1 14 6.05
    endloop
  endfacet
  facet normal -1 -0 0
    outer loop
      vertex -1 14 30.05
      vertex -1 8 6.05
      vertex -1 8 30.05
    endloop
  endfacet
  facet normal -0 0 1
    outer loop
      vertex -1 14 30.05
      vertex 1 8 30.05
      vertex 1 14 30.05
    endloop
  endfacet
  facet normal 0 0 1
    outer loop
      vertex 1 8 30.05
      vertex -1 14 30.05
      vertex -1 8 30.05
    endloop
  endfacet
  facet normal 1 0 0
    outer loop
      vertex 1 8 26.6
      vertex 1 14 30.05
      vertex 1 8 30.05
    endloop
  endfacet
  facet normal 1 0 0
    outer loop
      vertex 1 8 25.7
      vertex 1 14 30.05
      vertex 1 8 26.6
    endloop
  endfacet
  facet normal 1 0 0
    outer loop
      vertex 1 8 20.05
      vertex 1 14 30.05
      vertex 1 8 25.7
    endloop
  endfacet
  facet normal 1 0 0
    outer loop
      vertex 1 8 19.15
      vertex 1 14 30.05
      vertex 1 8 20.05
    endloop
  endfacet
  facet normal 1 0 0
    outer loop
      vertex 1 14 30.05
      vertex 1 8 19.15
      vertex 1 14 6.05
    endloop
  endfacet
  facet normal 1 -0 0
    outer loop
      vertex 1 8 13.5
      vertex 1 14 6.05
      vertex 1 8 19.15
    endloop
  endfacet
  facet normal 1 -0 0
    outer loop
      vertex 1 8 12.6
      vertex 1 14 6.05
      vertex 1 8 13.5
    endloop
  endfacet
  facet normal 1 -0 0
    outer loop
      vertex 1 8 6.95
      vertex 1 14 6.05
      vertex 1 8 12.6
    endloop
  endfacet
  facet normal 1 0 0
    outer loop
      vertex 1 14 6.05
      vertex 1 8 6.95
      vertex 1 8 6.05
    endloop
  endfacet
  facet normal 0 1 -0
    outer loop
      vertex 1 14 6.05
      vertex -1 14 30.05
      vertex 1 14 30.05
    endloop
  endfacet
  facet normal 0 1 0
    outer loop
      vertex -1 14 30.05
      vertex 1 14 6.05
      vertex -1 14 6.05
    endloop
  endfacet
  facet normal 0 0 -1
    outer loop
      vertex 9.2 -16 5.05
      vertex 10.2 -1.37143 5.05
      vertex 10.2 -16 5.05
    endloop
  endfacet
  facet normal -0 0 -1
    outer loop
      vertex 10.2 -1.37143 5.05
      vertex 9.2 -16 5.05
      vertex 9.2 -0.228571 5.05
    endloop
  endfacet
  facet normal 0 0 -1
    outer loop
      vertex 19.4 -16 5.05
      vertex 20.4 -13.0286 5.05
      vertex 20.4 -16 5.05
    endloop
  endfacet
  facet normal -0 0 -1
    outer loop
      vertex 20.4 -13.0286 5.05
      vertex 19.4 -16 5.05
      vertex 19.4 -11.8857 5.05
    endloop
  endfacet
  facet normal 0 0.503871 0.863779
    outer loop
      vertex 5.1 4.4 33.15
      vertex 4.1 4.4 33.15
      vertex 5.1 -6.14286 39.3
    endloop
  endfacet
  facet normal 0 0.503872 0.863778
    outer loop
      vertex 3.8 5.94286 32.25
      vertex 5.1 4.4 33.15
      vertex 5.15 4.4 33.15
    endloop
  endfacet
  facet normal 0 0.503872 0.863778
    outer loop
      vertex 5.1 4.4 33.15
      vertex 3.8 5.94286 32.25
      vertex 4.1 4.4 33.15
    endloop
  endfacet
  facet normal 0 0.503872 0.863778
    outer loop
      vertex 0 4.4 33.15
      vertex 3.8 5.94286 32.25
      vertex 0 5.94286 32.25
    endloop
  endfacet
  facet normal 0 0.503872 0.863778
    outer loop
      vertex 3.8 5.94286 32.25
      vertex 0 4.4 33.15
      vertex 4.1 4.4 33.15
    endloop
  endfacet
  facet normal 0 0.503871 0.863779
    outer loop
      vertex 5.1 -6.14286 39.3
      vertex 4.1 4.4 33.15
      vertex 4.1 -6.14286 39.3
    endloop
  endfacet
  facet normal 0 0.503861 0.863785
    outer loop
      vertex 14.3 -6.05714 39.25
      vertex 14.3 -6.14286 39.3
      vertex 14.375 -6.14286 39.3
    endloop
  endfacet
  facet normal 0.752577 0.658505 1.50334e-06
    outer loop
      vertex 15.3 -7.2 39.3
      vertex 14.3 -6.05714 39.25
      vertex 14.375 -6.14286 39.3
    endloop
  endfacet
  facet normal 0.752577 0.658505 1.50302e-07
    outer loop
      vertex 5.15 4.4 33.15
      vertex 9.2 -0.228571 32.25
      vertex 3.8 5.94286 32.25
    endloop
  endfacet
  facet normal 0.752577 0.658505 0
    outer loop
      vertex 9.2 -0.228571 32.25
      vertex 10.2 -1.37143 32.25
      vertex 9.2 -0.228571 26.6
    endloop
  endfacet
  facet normal 0.752577 0.658505 2.15718e-07
    outer loop
      vertex 5.15 4.4 33.15
      vertex 10.2 -1.37143 32.25
      vertex 9.2 -0.228571 32.25
    endloop
  endfacet
  facet normal 0.752577 0.658505 -2.79846e-08
    outer loop
      vertex 14.3 -6.05714 33.15
      vertex 10.2 -1.37143 32.25
      vertex 5.15 4.4 33.15
    endloop
  endfacet
  facet normal 0.752577 0.658504 0
    outer loop
      vertex 14.3 -6.05714 39.25
      vertex 15.3 -7.2 39.3
      vertex 15.3 -7.2 33.15
    endloop
  endfacet
  facet normal 0.752577 0.658504 0
    outer loop
      vertex 14.3 -6.05714 39.25
      vertex 15.3 -7.2 33.15
      vertex 14.3 -6.05714 33.15
    endloop
  endfacet
  facet normal 0.752577 0.658504 -1.38807e-06
    outer loop
      vertex 15.3 -7.2 33.15
      vertex 10.2 -1.37143 32.25
      vertex 14.3 -6.05714 33.15
    endloop
  endfacet
  facet normal 0.752577 0.658505 2.54488e-07
    outer loop
      vertex 15.3 -7.2 33.15
      vertex 19.4 -11.8857 32.25
      vertex 10.2 -1.37143 32.25
    endloop
  endfacet
  facet normal 0.752577 0.658504 0
    outer loop
      vertex 19.4 -11.8857 32.25
      vertex 20.4 -13.0286 32.25
      vertex 19.4 -11.8857 26.6
    endloop
  endfacet
  facet normal 0.752577 0.658505 2.69271e-07
    outer loop
      vertex 23 -16 33.15
      vertex 19.4 -11.8857 32.25
      vertex 15.3 -7.2 33.15
    endloop
  endfacet
  facet normal 0.752577 0.658504 -8.77203e-07
    outer loop
      vertex 19.4 -11.8857 32.25
      vertex 23 -16 33.15
      vertex 20.4 -13.0286 32.25
    endloop
  endfacet
  facet normal 0.752577 0.658505 0
    outer loop
      vertex 20.4 -13.0286 32.25
      vertex 23 -16 33.15
      vertex 23 -16 32.25
    endloop
  endfacet
  facet normal 0.752577 0.658505 0
    outer loop
      vertex 2 8 26.6
      vertex 4.1 5.6 25.7
      vertex 2 8 25.7
    endloop
  endfacet
  facet normal 0.752577 0.658504 0
    outer loop
      vertex 4.1 5.6 25.7
      vertex 5.1 4.45714 25.7
      vertex 4.1 5.6 20.05
    endloop
  endfacet
  facet normal 0.752577 0.658504 7.77524e-07
    outer loop
      vertex 2 8 26.6
      vertex 5.1 4.45714 25.7
      vertex 4.1 5.6 25.7
    endloop
  endfacet
  facet normal 0.752577 0.658505 -1.50865e-07
    outer loop
      vertex 9.2 -0.228571 26.6
      vertex 5.1 4.45714 25.7
      vertex 2 8 26.6
    endloop
  endfacet
  facet normal 0.752577 0.658505 -0
    outer loop
      vertex 10.2 -1.37143 26.6
      vertex 9.2 -0.228571 26.6
      vertex 10.2 -1.37143 32.25
    endloop
  endfacet
  facet normal 0.752577 0.658505 -2.16498e-07
    outer loop
      vertex 10.2 -1.37143 26.6
      vertex 5.1 4.45714 25.7
      vertex 9.2 -0.228571 26.6
    endloop
  endfacet
  facet normal 0.752577 0.658505 2.87129e-08
    outer loop
      vertex 10.2 -1.37143 26.6
      vertex 14.3 -6.05714 25.7
      vertex 5.1 4.45714 25.7
    endloop
  endfacet
  facet normal 0.752577 0.658504 0
    outer loop
      vertex 14.3 -6.05714 25.7
      vertex 15.3 -7.2 25.7
      vertex 14.3 -6.05714 20.05
    endloop
  endfacet
  facet normal 0.752577 0.658504 1.38808e-06
    outer loop
      vertex 10.2 -1.37143 26.6
      vertex 15.3 -7.2 25.7
      vertex 14.3 -6.05714 25.7
    endloop
  endfacet
  facet normal 0.752577 0.658505 -2.54489e-07
    outer loop
      vertex 19.4 -11.8857 26.6
      vertex 15.3 -7.2 25.7
      vertex 10.2 -1.37143 26.6
    endloop
  endfacet
  facet normal 0.752577 0.658504 -0
    outer loop
      vertex 20.4 -13.0286 26.6
      vertex 19.4 -11.8857 26.6
      vertex 20.4 -13.0286 32.25
    endloop
  endfacet
  facet normal 0.752577 0.658504 8.77207e-07
    outer loop
      vertex 23 -16 25.7
      vertex 19.4 -11.8857 26.6
      vertex 20.4 -13.0286 26.6
    endloop
  endfacet
  facet normal 0.752577 0.658505 -0
    outer loop
      vertex 23 -16 25.7
      vertex 20.4 -13.0286 26.6
      vertex 23 -16 26.6
    endloop
  endfacet
  facet normal 0.752577 0.658505 -2.69273e-07
    outer loop
      vertex 19.4 -11.8857 26.6
      vertex 23 -16 25.7
      vertex 15.3 -7.2 25.7
    endloop
  endfacet
  facet normal 0.752577 0.658505 0
    outer loop
      vertex 4.1 5.6 20.05
      vertex 2 8 19.15
      vertex 2 8 20.05
    endloop
  endfacet
  facet normal 0.752577 0.658504 -0
    outer loop
      vertex 5.1 4.45714 20.05
      vertex 4.1 5.6 20.05
      vertex 5.1 4.45714 25.7
    endloop
  endfacet
  facet normal 0.752577 0.658504 -7.77522e-07
    outer loop
      vertex 5.1 4.45714 20.05
      vertex 2 8 19.15
      vertex 4.1 5.6 20.05
    endloop
  endfacet
  facet normal 0.752577 0.658505 1.50865e-07
    outer loop
      vertex 5.1 4.45714 20.05
      vertex 9.2 -0.228571 19.15
      vertex 2 8 19.15
    endloop
  endfacet
  facet normal 0.752577 0.658505 0
    outer loop
      vertex 9.2 -0.228571 19.15
      vertex 10.2 -1.37143 19.15
      vertex 9.2 -0.228571 13.5
    endloop
  endfacet
  facet normal 0.752577 0.658505 2.16498e-07
    outer loop
      vertex 5.1 4.45714 20.05
      vertex 10.2 -1.37143 19.15
      vertex 9.2 -0.228571 19.15
    endloop
  endfacet
  facet normal 0.752577 0.658505 -2.87129e-08
    outer loop
      vertex 14.3 -6.05714 20.05
      vertex 10.2 -1.37143 19.15
      vertex 5.1 4.45714 20.05
    endloop
  endfacet
  facet normal 0.752577 0.658504 -0
    outer loop
      vertex 15.3 -7.2 20.05
      vertex 14.3 -6.05714 20.05
      vertex 15.3 -7.2 25.7
    endloop
  endfacet
  facet normal 0.752577 0.658504 -1.38808e-06
    outer loop
      vertex 15.3 -7.2 20.05
      vertex 10.2 -1.37143 19.15
      vertex 14.3 -6.05714 20.05
    endloop
  endfacet
  facet normal 0.752577 0.658505 2.54488e-07
    outer loop
      vertex 15.3 -7.2 20.05
      vertex 19.4 -11.8857 19.15
      vertex 10.2 -1.37143 19.15
    endloop
  endfacet
  facet normal 0.752577 0.658504 0
    outer loop
      vertex 19.4 -11.8857 19.15
      vertex 20.4 -13.0286 19.15
      vertex 19.4 -11.8857 13.5
    endloop
  endfacet
  facet normal 0.752577 0.658505 2.69272e-07
    outer loop
      vertex 23 -16 20.05
      vertex 19.4 -11.8857 19.15
      vertex 15.3 -7.2 20.05
    endloop
  endfacet
  facet normal 0.752577 0.658504 -8.77205e-07
    outer loop
      vertex 19.4 -11.8857 19.15
      vertex 23 -16 20.05
      vertex 20.4 -13.0286 19.15
    endloop
  endfacet
  facet normal 0.752577 0.658505 0
    outer loop
      vertex 20.4 -13.0286 19.15
      vertex 23 -16 20.05
      vertex 23 -16 19.15
    endloop
  endfacet
  facet normal 0.752577 0.658505 0
    outer loop
      vertex 2 8 13.5
      vertex 4.1 5.6 12.6
      vertex 2 8 12.6
    endloop
  endfacet
  facet normal 0.752577 0.658504 0
    outer loop
      vertex 4.1 5.6 12.6
      vertex 5.1 4.45714 12.6
      vertex 4.1 5.6 6.95
    endloop
  endfacet
  facet normal 0.752577 0.658504 7.77522e-07
    outer loop
      vertex 2 8 13.5
      vertex 5.1 4.45714 12.6
      vertex 4.1 5.6 12.6
    endloop
  endfacet
  facet normal 0.752577 0.658505 -1.50865e-07
    outer loop
      vertex 9.2 -0.228571 13.5
      vertex 5.1 4.45714 12.6
      vertex 2 8 13.5
    endloop
  endfacet
  facet normal 0.752577 0.658505 -0
    outer loop
      vertex 10.2 -1.37143 13.5
      vertex 9.2 -0.228571 13.5
      vertex 10.2 -1.37143 19.15
    endloop
  endfacet
  facet normal 0.752577 0.658505 -2.16498e-07
    outer loop
      vertex 10.2 -1.37143 13.5
      vertex 5.1 4.45714 12.6
      vertex 9.2 -0.228571 13.5
    endloop
  endfacet
  facet normal 0.752577 0.658505 2.87129e-08
    outer loop
      vertex 10.2 -1.37143 13.5
      vertex 14.3 -6.05714 12.6
      vertex 5.1 4.45714 12.6
    endloop
  endfacet
  facet normal 0.752577 0.658504 0
    outer loop
      vertex 14.3 -6.05714 12.6
      vertex 15.3 -7.2 12.6
      vertex 14.3 -6.05714 6.95
    endloop
  endfacet
  facet normal 0.752577 0.658504 1.38808e-06
    outer loop
      vertex 10.2 -1.37143 13.5
      vertex 15.3 -7.2 12.6
      vertex 14.3 -6.05714 12.6
    endloop
  endfacet
  facet normal 0.752577 0.658505 -2.54488e-07
    outer loop
      vertex 19.4 -11.8857 13.5
      vertex 15.3 -7.2 12.6
      vertex 10.2 -1.37143 13.5
    endloop
  endfacet
  facet normal 0.752577 0.658504 -0
    outer loop
      vertex 20.4 -13.0286 13.5
      vertex 19.4 -11.8857 13.5
      vertex 20.4 -13.0286 19.15
    endloop
  endfacet
  facet normal 0.752577 0.658504 8.77204e-07
    outer loop
      vertex 23 -16 12.6
      vertex 19.4 -11.8857 13.5
      vertex 20.4 -13.0286 13.5
    endloop
  endfacet
  facet normal 0.752577 0.658505 -0
    outer loop
      vertex 23 -16 12.6
      vertex 20.4 -13.0286 13.5
      vertex 23 -16 13.5
    endloop
  endfacet
  facet normal 0.752577 0.658505 -2.69272e-07
    outer loop
      vertex 19.4 -11.8857 13.5
      vertex 23 -16 12.6
      vertex 15.3 -7.2 12.6
    endloop
  endfacet
  facet normal 0.752577 0.658505 0
    outer loop
      vertex 4.1 5.6 6.95
      vertex 2 8 6.05
      vertex 2 8 6.95
    endloop
  endfacet
  facet normal 0.752577 0.658504 -0
    outer loop
      vertex 5.1 4.45714 6.95
      vertex 4.1 5.6 6.95
      vertex 5.1 4.45714 12.6
    endloop
  endfacet
  facet normal 0.752577 0.658504 -7.77522e-07
    outer loop
      vertex 5.1 4.45714 6.95
      vertex 2 8 6.05
      vertex 4.1 5.6 6.95
    endloop
  endfacet
  facet normal 0.752577 0.658505 1.50865e-07
    outer loop
      vertex 5.1 4.45714 6.95
      vertex 9.2 -0.228571 6.05
      vertex 2 8 6.05
    endloop
  endfacet
  facet normal 0.752577 0.658505 0
    outer loop
      vertex 9.2 -0.228571 6.05
      vertex 10.2 -1.37143 6.05
      vertex 9.2 -0.228571 5.05
    endloop
  endfacet
  facet normal 0.752577 0.658505 2.16498e-07
    outer loop
      vertex 5.1 4.45714 6.95
      vertex 10.2 -1.37143 6.05
      vertex 9.2 -0.228571 6.05
    endloop
  endfacet
  facet normal 0.752577 0.658505 -2.87129e-08
    outer loop
      vertex 14.3 -6.05714 6.95
      vertex 10.2 -1.37143 6.05
      vertex 5.1 4.45714 6.95
    endloop
  endfacet
  facet normal 0.752577 0.658504 -0
    outer loop
      vertex 15.3 -7.2 6.95
      vertex 14.3 -6.05714 6.95
      vertex 15.3 -7.2 12.6
    endloop
  endfacet
  facet normal 0.752577 0.658504 -1.38808e-06
    outer loop
      vertex 15.3 -7.2 6.95
      vertex 10.2 -1.37143 6.05
      vertex 14.3 -6.05714 6.95
    endloop
  endfacet
  facet normal 0.752577 0.658505 2.54488e-07
    outer loop
      vertex 15.3 -7.2 6.95
      vertex 19.4 -11.8857 6.05
      vertex 10.2 -1.37143 6.05
    endloop
  endfacet
  facet normal 0.752577 0.658504 0
    outer loop
      vertex 19.4 -11.8857 6.05
      vertex 20.4 -13.0286 6.05
      vertex 19.4 -11.8857 5.05
    endloop
  endfacet
  facet normal 0.752577 0.658505 2.69272e-07
    outer loop
      vertex 23 -16 6.95
      vertex 19.4 -11.8857 6.05
      vertex 15.3 -7.2 6.95
    endloop
  endfacet
  facet normal 0.752577 0.658504 -8.77204e-07
    outer loop
      vertex 19.4 -11.8857 6.05
      vertex 23 -16 6.95
      vertex 20.4 -13.0286 6.05
    endloop
  endfacet
  facet normal 0.752577 0.658505 0
    outer loop
      vertex 20.4 -13.0286 6.05
      vertex 23 -16 6.95
      vertex 23 -16 6.05
    endloop
  endfacet
  facet normal 0.752577 0.658505 0
    outer loop
      vertex 9.2 -0.228571 5.05
      vertex 10.2 -1.37143 6.05
      vertex 10.2 -1.37143 5.05
    endloop
  endfacet
  facet normal 0.752577 0.658504 0
    outer loop
      vertex 19.4 -11.8857 5.05
      vertex 20.4 -13.0286 6.05
      vertex 20.4 -13.0286 5.05
    endloop
  endfacet
endsolid OpenSCAD_Model
