solid OpenSCAD_Model
  facet normal 1 -0 0
    outer loop
      vertex 23.5 90.8 5.2
      vertex 23.5 98.4 1.5
      vertex 23.5 98.4 5.2
    endloop
  endfacet
  facet normal 1 0 0
    outer loop
      vertex 23.5 98.4 1.5
      vertex 23.5 90.8 5.2
      vertex 23.5 90.8 1.5
    endloop
  endfacet
  facet normal -1 0 0
    outer loop
      vertex 76.5 90.8 1.5
      vertex 76.5 98.4 5.2
      vertex 76.5 98.4 1.5
    endloop
  endfacet
  facet normal -1 -0 0
    outer loop
      vertex 76.5 98.4 5.2
      vertex 76.5 90.8 1.5
      vertex 76.5 90.8 5.2
    endloop
  endfacet
  facet normal 0 -1 0
    outer loop
      vertex 23.5 98.4 1.5
      vertex 25.5 98.4 5.2
      vertex 23.5 98.4 5.2
    endloop
  endfacet
  facet normal 0 -1 -0
    outer loop
      vertex 25.5 98.4 5.2
      vertex 23.5 98.4 1.5
      vertex 25.5 98.4 1.5
    endloop
  endfacet
  facet normal 0 -1 0
    outer loop
      vertex 74.5 98.4 1.5
      vertex 76.5 98.4 5.2
      vertex 74.5 98.4 5.2
    endloop
  endfacet
  facet normal 0 -1 -0
    outer loop
      vertex 76.5 98.4 5.2
      vertex 74.5 98.4 1.5
      vertex 76.5 98.4 1.5
    endloop
  endfacet
  facet normal 1 -0 0
    outer loop
      vertex 25.5 98.4 5.2
      vertex 25.5 99 1.5
      vertex 25.5 99 5.2
    endloop
  endfacet
  facet normal 1 0 0
    outer loop
      vertex 25.5 99 1.5
      vertex 25.5 98.4 5.2
      vertex 25.5 98.4 1.5
    endloop
  endfacet
  facet normal -1 0 0
    outer loop
      vertex 74.5 98.4 1.5
      vertex 74.5 99 5.2
      vertex 74.5 99 1.5
    endloop
  endfacet
  facet normal -1 -0 0
    outer loop
      vertex 74.5 99 5.2
      vertex 74.5 98.4 1.5
      vertex 74.5 98.4 5.2
    endloop
  endfacet
  facet normal -1 0 0
    outer loop
      vertex 1 90.8 1.5
      vertex 1 99 5.2
      vertex 1 99 1.5
    endloop
  endfacet
  facet normal -1 -0 0
    outer loop
      vertex 1 99 5.2
      vertex 1 90.8 1.5
      vertex 1 90.8 5.2
    endloop
  endfacet
  facet normal 0 0 1
    outer loop
      vertex 25.5 99 5.2
      vertex 23.5 98.4 5.2
      vertex 25.5 98.4 5.2
    endloop
  endfacet
  facet normal -0 0 1
    outer loop
      vertex 1 99 5.2
      vertex 23.5 98.4 5.2
      vertex 25.5 99 5.2
    endloop
  endfacet
  facet normal 0 0 1
    outer loop
      vertex 1 90.8 5.2
      vertex 23.5 98.4 5.2
      vertex 1 99 5.2
    endloop
  endfacet
  facet normal 0 0 1
    outer loop
      vertex 23.5 98.4 5.2
      vertex 1 90.8 5.2
      vertex 23.5 90.8 5.2
    endloop
  endfacet
  facet normal 0 0 1
    outer loop
      vertex 99 99 5.2
      vertex 76.5 98.4 5.2
      vertex 99 90.8 5.2
    endloop
  endfacet
  facet normal -0 0 1
    outer loop
      vertex 74.5 99 5.2
      vertex 76.5 98.4 5.2
      vertex 99 99 5.2
    endloop
  endfacet
  facet normal 0 0 1
    outer loop
      vertex 76.5 98.4 5.2
      vertex 74.5 99 5.2
      vertex 74.5 98.4 5.2
    endloop
  endfacet
  facet normal 0 0 1
    outer loop
      vertex 99 90.8 5.2
      vertex 76.5 98.4 5.2
      vertex 76.5 90.8 5.2
    endloop
  endfacet
  facet normal 1 -0 0
    outer loop
      vertex 99 90.8 5.2
      vertex 99 99 1.5
      vertex 99 99 5.2
    endloop
  endfacet
  facet normal 1 0 0
    outer loop
      vertex 99 99 1.5
      vertex 99 90.8 5.2
      vertex 99 90.8 1.5
    endloop
  endfacet
  facet normal 0 1 -0
    outer loop
      vertex 99 99 1.5
      vertex 74.5 99 5.2
      vertex 99 99 5.2
    endloop
  endfacet
  facet normal 0 1 0
    outer loop
      vertex 74.5 99 5.2
      vertex 99 99 1.5
      vertex 74.5 99 1.5
    endloop
  endfacet
  facet normal 0 1 -0
    outer loop
      vertex 25.5 99 1.5
      vertex 1 99 5.2
      vertex 25.5 99 5.2
    endloop
  endfacet
  facet normal 0 1 0
    outer loop
      vertex 1 99 5.2
      vertex 25.5 99 1.5
      vertex 1 99 1.5
    endloop
  endfacet
  facet normal 0 0 -1
    outer loop
      vertex 23.5 90.8 1.5
      vertex 1 90.8 1.5
      vertex 23.5 98.4 1.5
    endloop
  endfacet
  facet normal 0 0 -1
    outer loop
      vertex 23.5 98.4 1.5
      vertex 25.5 99 1.5
      vertex 25.5 98.4 1.5
    endloop
  endfacet
  facet normal 0 0 -1
    outer loop
      vertex 23.5 98.4 1.5
      vertex 1 99 1.5
      vertex 25.5 99 1.5
    endloop
  endfacet
  facet normal 0 0 -1
    outer loop
      vertex 1 99 1.5
      vertex 23.5 98.4 1.5
      vertex 1 90.8 1.5
    endloop
  endfacet
  facet normal 0 0 -1
    outer loop
      vertex 76.5 98.4 1.5
      vertex 99 90.8 1.5
      vertex 76.5 90.8 1.5
    endloop
  endfacet
  facet normal 0 0 -1
    outer loop
      vertex 99 90.8 1.5
      vertex 76.5 98.4 1.5
      vertex 99 99 1.5
    endloop
  endfacet
  facet normal 0 0 -1
    outer loop
      vertex 74.5 99 1.5
      vertex 76.5 98.4 1.5
      vertex 74.5 98.4 1.5
    endloop
  endfacet
  facet normal 0 0 -1
    outer loop
      vertex 76.5 98.4 1.5
      vertex 74.5 99 1.5
      vertex 99 99 1.5
    endloop
  endfacet
  facet normal 0 -1 0
    outer loop
      vertex 1 90.8 1.5
      vertex 23.5 90.8 5.2
      vertex 1 90.8 5.2
    endloop
  endfacet
  facet normal 0 -1 -0
    outer loop
      vertex 23.5 90.8 5.2
      vertex 1 90.8 1.5
      vertex 23.5 90.8 1.5
    endloop
  endfacet
  facet normal 0 -1 0
    outer loop
      vertex 76.5 90.8 1.5
      vertex 99 90.8 5.2
      vertex 76.5 90.8 5.2
    endloop
  endfacet
  facet normal 0 -1 -0
    outer loop
      vertex 99 90.8 5.2
      vertex 76.5 90.8 1.5
      vertex 99 90.8 1.5
    endloop
  endfacet
endsolid OpenSCAD_Model
