solid OpenSCAD_Model
  facet normal 1 -0 0
    outer loop
      vertex 11 65.8 5.2
      vertex 11 73.4 1.5
      vertex 11 73.4 5.2
    endloop
  endfacet
  facet normal 1 0 0
    outer loop
      vertex 11 73.4 1.5
      vertex 11 65.8 5.2
      vertex 11 65.8 1.5
    endloop
  endfacet
  facet normal -1 0 0
    outer loop
      vertex 64 65.8 1.5
      vertex 64 73.4 5.2
      vertex 64 73.4 1.5
    endloop
  endfacet
  facet normal -1 -0 0
    outer loop
      vertex 64 73.4 5.2
      vertex 64 65.8 1.5
      vertex 64 65.8 5.2
    endloop
  endfacet
  facet normal 0 -1 0
    outer loop
      vertex 11 73.4 1.5
      vertex 13 73.4 5.2
      vertex 11 73.4 5.2
    endloop
  endfacet
  facet normal 0 -1 -0
    outer loop
      vertex 13 73.4 5.2
      vertex 11 73.4 1.5
      vertex 13 73.4 1.5
    endloop
  endfacet
  facet normal 0 -1 0
    outer loop
      vertex 62 73.4 1.5
      vertex 64 73.4 5.2
      vertex 62 73.4 5.2
    endloop
  endfacet
  facet normal 0 -1 -0
    outer loop
      vertex 64 73.4 5.2
      vertex 62 73.4 1.5
      vertex 64 73.4 1.5
    endloop
  endfacet
  facet normal 1 -0 0
    outer loop
      vertex 13 73.4 5.2
      vertex 13 74 1.5
      vertex 13 74 5.2
    endloop
  endfacet
  facet normal 1 0 0
    outer loop
      vertex 13 74 1.5
      vertex 13 73.4 5.2
      vertex 13 73.4 1.5
    endloop
  endfacet
  facet normal -1 0 0
    outer loop
      vertex 62 73.4 1.5
      vertex 62 74 5.2
      vertex 62 74 1.5
    endloop
  endfacet
  facet normal -1 -0 0
    outer loop
      vertex 62 74 5.2
      vertex 62 73.4 1.5
      vertex 62 73.4 5.2
    endloop
  endfacet
  facet normal -1 0 0
    outer loop
      vertex 1 65.8 1.5
      vertex 1 74 5.2
      vertex 1 74 1.5
    endloop
  endfacet
  facet normal -1 -0 0
    outer loop
      vertex 1 74 5.2
      vertex 1 65.8 1.5
      vertex 1 65.8 5.2
    endloop
  endfacet
  facet normal 0 0 1
    outer loop
      vertex 13 74 5.2
      vertex 11 73.4 5.2
      vertex 13 73.4 5.2
    endloop
  endfacet
  facet normal -0 0 1
    outer loop
      vertex 1 74 5.2
      vertex 11 73.4 5.2
      vertex 13 74 5.2
    endloop
  endfacet
  facet normal 0 0 1
    outer loop
      vertex 1 65.8 5.2
      vertex 11 73.4 5.2
      vertex 1 74 5.2
    endloop
  endfacet
  facet normal 0 0 1
    outer loop
      vertex 11 73.4 5.2
      vertex 1 65.8 5.2
      vertex 11 65.8 5.2
    endloop
  endfacet
  facet normal 0 0 1
    outer loop
      vertex 74 74 5.2
      vertex 64 73.4 5.2
      vertex 74 65.8 5.2
    endloop
  endfacet
  facet normal -0 0 1
    outer loop
      vertex 62 74 5.2
      vertex 64 73.4 5.2
      vertex 74 74 5.2
    endloop
  endfacet
  facet normal 0 0 1
    outer loop
      vertex 64 73.4 5.2
      vertex 62 74 5.2
      vertex 62 73.4 5.2
    endloop
  endfacet
  facet normal 0 0 1
    outer loop
      vertex 74 65.8 5.2
      vertex 64 73.4 5.2
      vertex 64 65.8 5.2
    endloop
  endfacet
  facet normal 1 -0 0
    outer loop
      vertex 74 65.8 5.2
      vertex 74 74 1.5
      vertex 74 74 5.2
    endloop
  endfacet
  facet normal 1 0 0
    outer loop
      vertex 74 74 1.5
      vertex 74 65.8 5.2
      vertex 74 65.8 1.5
    endloop
  endfacet
  facet normal 0 1 -0
    outer loop
      vertex 74 74 1.5
      vertex 62 74 5.2
      vertex 74 74 5.2
    endloop
  endfacet
  facet normal 0 1 0
    outer loop
      vertex 62 74 5.2
      vertex 74 74 1.5
      vertex 62 74 1.5
    endloop
  endfacet
  facet normal 0 1 -0
    outer loop
      vertex 13 74 1.5
      vertex 1 74 5.2
      vertex 13 74 5.2
    endloop
  endfacet
  facet normal 0 1 0
    outer loop
      vertex 1 74 5.2
      vertex 13 74 1.5
      vertex 1 74 1.5
    endloop
  endfacet
  facet normal 0 0 -1
    outer loop
      vertex 11 65.8 1.5
      vertex 1 65.8 1.5
      vertex 11 73.4 1.5
    endloop
  endfacet
  facet normal 0 0 -1
    outer loop
      vertex 11 73.4 1.5
      vertex 13 74 1.5
      vertex 13 73.4 1.5
    endloop
  endfacet
  facet normal 0 0 -1
    outer loop
      vertex 11 73.4 1.5
      vertex 1 74 1.5
      vertex 13 74 1.5
    endloop
  endfacet
  facet normal 0 0 -1
    outer loop
      vertex 1 74 1.5
      vertex 11 73.4 1.5
      vertex 1 65.8 1.5
    endloop
  endfacet
  facet normal 0 0 -1
    outer loop
      vertex 64 73.4 1.5
      vertex 74 65.8 1.5
      vertex 64 65.8 1.5
    endloop
  endfacet
  facet normal 0 0 -1
    outer loop
      vertex 74 65.8 1.5
      vertex 64 73.4 1.5
      vertex 74 74 1.5
    endloop
  endfacet
  facet normal 0 0 -1
    outer loop
      vertex 62 74 1.5
      vertex 64 73.4 1.5
      vertex 62 73.4 1.5
    endloop
  endfacet
  facet normal 0 0 -1
    outer loop
      vertex 64 73.4 1.5
      vertex 62 74 1.5
      vertex 74 74 1.5
    endloop
  endfacet
  facet normal 0 -1 0
    outer loop
      vertex 1 65.8 1.5
      vertex 11 65.8 5.2
      vertex 1 65.8 5.2
    endloop
  endfacet
  facet normal 0 -1 -0
    outer loop
      vertex 11 65.8 5.2
      vertex 1 65.8 1.5
      vertex 11 65.8 1.5
    endloop
  endfacet
  facet normal 0 -1 0
    outer loop
      vertex 64 65.8 1.5
      vertex 74 65.8 5.2
      vertex 64 65.8 5.2
    endloop
  endfacet
  facet normal 0 -1 -0
    outer loop
      vertex 74 65.8 5.2
      vertex 64 65.8 1.5
      vertex 74 65.8 1.5
    endloop
  endfacet
endsolid OpenSCAD_Model
